<svg width="11" height="18" viewBox="0 0 11 18" fill="none" xmlns="http://www.w3.org/2000/svg">
<mask id="path-1-inside-1_1571_9893" fill="white">
<path d="M10.7084 3.75769C10.7084 3.92806 10.6474 4.048 10.5633 4.09635C10.4782 4.14471 10.4299 4.12149 10.4299 4.22981C10.4299 4.33813 10.5508 4.38649 10.3448 4.44749C10.1397 4.5085 9.98686 4.49585 9.86397 4.58008C9.74109 4.66518 9.72844 4.7378 9.80105 4.82584C9.82237 4.85201 9.84751 4.8664 9.87454 4.87524C9.89101 4.88096 9.90834 4.8839 9.92585 4.88789H9.92688C9.90071 5.05133 9.84074 5.27872 9.71214 5.29414C9.51092 5.31841 9.37349 5.41512 9.30105 5.47994C9.22843 5.54372 9.035 5.56798 8.98665 5.60854C8.93829 5.64909 8.71281 5.81842 8.77763 5.89104C8.84141 5.96366 8.84141 6.06037 8.80952 6.10873C8.77763 6.15708 8.64799 6.17251 8.72928 6.28568C8.80952 6.39886 8.87434 6.38239 8.87434 6.49557C8.87434 6.6077 8.74955 6.70459 8.7031 6.72868C8.65666 6.75294 8.52701 6.9221 8.51921 7.01118C8.51141 7.10027 8.5511 7.13216 8.55977 7.18814C8.56757 7.24516 8.56757 7.22887 8.46306 7.29369C8.35768 7.35747 8.27727 7.43875 8.29373 7.49491C8.30916 7.55106 8.39044 7.65644 8.40586 7.71259C8.42233 7.76875 8.43013 7.92248 8.38178 7.92248C8.33342 7.92248 8.25318 7.81693 8.13983 7.85766C8.02752 7.89822 8.04503 7.88955 8.03636 8.04345C8.02769 8.19632 8.08367 8.33358 8.00343 8.37327C7.92214 8.41383 7.9386 8.50291 7.81 8.51071C7.68036 8.51851 7.59232 8.48645 7.5197 8.4381C7.44708 8.38974 7.43061 8.28523 7.24499 8.33358C7.06024 8.38194 6.97116 8.46218 6.93927 8.46218C6.90634 8.46218 6.7942 8.44572 6.75347 8.44572C6.71274 8.44572 6.53579 8.50274 6.53579 8.62372C6.53579 8.74469 6.58327 8.88109 6.49124 8.96238C6.39834 9.04262 6.26194 9.00206 6.24548 9.09877C6.22901 9.19549 6.2077 9.27677 6.17009 9.27677C6.1323 9.27677 6.07615 9.14713 5.98724 9.21957C5.89919 9.29219 5.86627 9.2525 5.89053 9.44592C5.91462 9.63935 5.96315 9.84837 5.96315 9.84837C5.96315 9.84837 5.94773 9.95374 6.04444 10.0583C6.14115 10.1628 6.18378 10.3002 6.17026 10.3243C6.15674 10.3484 6.07632 10.4936 6.10839 10.5825C6.14132 10.6706 6.14132 10.8564 6.11705 10.9047C6.09279 10.9531 6.03577 11.1784 6.09279 11.2113C6.14894 11.2432 6.02797 11.2675 6.26212 11.2916C6.49523 11.3158 6.63267 11.3564 6.68882 11.3399C6.74584 11.3235 6.85815 11.3224 6.89108 11.4153C6.92297 11.5093 6.92297 11.7105 6.86682 11.7675C6.80979 11.8237 6.74585 11.8798 6.6734 11.8885C6.60078 11.8963 6.56698 11.7027 6.49159 11.6786C6.41516 11.6543 6.31845 11.5983 6.22174 11.638C6.12502 11.6786 6.03594 11.7434 5.99643 11.7434C5.9557 11.7434 5.86679 11.6545 5.83489 11.55C5.803 11.4446 5.91514 11.3961 5.75465 11.3566C5.59312 11.316 5.44025 11.3566 5.3919 11.3644C5.34354 11.372 5.18184 11.2512 5.18184 11.2512C5.18184 11.2512 5.08513 11.1467 5.02031 11.1467C4.95653 11.1467 4.77074 11.2028 4.75427 11.3325C4.73885 11.4611 4.63329 11.558 4.82689 11.6625C5.02031 11.7678 5.02915 11.7195 5.12586 11.7756C5.22257 11.8318 5.30281 11.9131 5.30281 12.0176C5.30281 12.1221 5.24666 12.2034 5.23799 12.2914C5.2302 12.3805 5.03677 12.4772 5.24666 12.6388C5.45568 12.7994 5.56106 12.7838 5.57666 12.8081C5.59312 12.8322 5.64147 12.9609 5.61721 13.0015C5.59312 13.0412 5.5205 13.1863 5.54459 13.4282C5.56886 13.6702 5.65776 13.7591 5.68965 13.8239C5.72154 13.8877 5.80283 13.9284 5.73039 14.0329C5.65777 14.1383 5.6491 14.1703 5.5205 14.2989C5.3919 14.4286 5.43159 14.6057 5.30281 14.6617C5.17421 14.7187 4.98062 14.743 4.93226 14.8397C4.88391 14.9364 4.88391 14.9364 4.908 15.0168C4.93227 15.0971 5.09276 15.073 4.908 15.2345C4.72221 15.396 4.49689 15.6215 4.34299 15.6775C4.19013 15.7345 4.06915 15.6621 4.05269 15.8071C4.03726 15.9522 4.06135 16.081 4.013 16.2579C3.96464 16.4359 3.86793 16.5404 3.85147 16.6207C3.835 16.702 3.84366 16.8519 3.8272 16.9786C3.74297 16.9737 3.65701 16.9659 3.57659 16.9602C3.55822 16.9583 3.53984 16.9573 3.52251 16.9564C3.50899 16.9555 3.49634 16.9545 3.48386 16.9545C3.4693 16.9535 3.45578 16.9526 3.4433 16.9526C3.42788 16.9517 3.41228 16.9517 3.3979 16.9517C3.23446 16.9517 2.93254 16.9412 2.93254 16.9826C2.93254 16.998 2.88505 17.0155 2.82318 17.0328C2.77673 16.9874 2.73999 16.9458 2.73323 16.9216C2.70914 16.8432 2.73323 16.7638 2.73323 16.7155C2.73323 16.6671 2.70221 16.5829 2.68488 16.5404C2.66651 16.4978 2.55714 16.3654 2.55714 16.2801C2.55714 16.2444 2.5542 16.2056 2.54934 16.1718C2.54258 16.1245 2.53201 16.0867 2.52127 16.0789C2.5029 16.0643 2.34032 16.0441 2.3093 16.0624C2.27931 16.0808 2.21259 16.0865 2.17671 16.0624C2.13997 16.0382 2.10999 15.9357 2.12836 15.8272C2.14673 15.7179 2.17671 15.7179 2.17671 15.6995C2.17671 15.6822 2.13407 15.5245 2.1157 15.4518C2.09837 15.3792 1.92801 15.3009 1.81968 15.2099C1.72107 15.1276 1.69195 15.0309 1.66872 14.9728C1.66682 14.9671 1.66491 14.9612 1.663 14.9563C1.63787 14.9012 1.40269 14.8896 1.34757 14.9563C1.29332 15.0222 1.25086 14.9621 1.13093 14.9563C1.00908 14.9496 1.06991 14.8829 1.06991 14.817C1.06991 14.7503 0.960556 14.5752 0.960556 14.5752C0.973208 14.5366 0.997298 14.4977 1.05155 14.4785C1.13664 14.4475 1.21498 14.4418 1.22087 14.3991C1.22763 14.3575 1.19089 14.2849 1.13093 14.2366C1.06992 14.1882 0.954834 14.1088 0.949115 14.0605C0.943396 14.0121 1.00336 13.7702 1.00336 13.7702C1.00336 13.7702 1.10597 13.4799 1.22781 13.2991C1.34774 13.1181 1.58969 12.8211 1.68051 12.8694C1.7715 12.9178 1.70477 13.0272 1.80148 13.0996C1.89819 13.1722 1.98329 13.1838 2.05019 13.1663C2.11588 13.148 2.27949 13.1779 2.29214 13.1596C2.30375 13.1412 2.36372 13.027 2.31536 12.9729C2.26701 12.9178 2.21277 12.8635 2.21277 12.8635C2.21277 12.8635 2.26112 12.8025 2.29786 12.8025C2.33357 12.8025 2.43045 12.731 2.43045 12.7126C2.43045 12.6942 2.38209 12.5859 2.36372 12.5732C2.34639 12.5606 2.2554 12.4949 2.18278 12.4765C2.11016 12.4582 1.99508 12.4407 1.96509 12.4223C1.93511 12.4039 1.89837 12.3739 1.88676 12.3372C1.8741 12.3013 1.79005 12.0769 1.76578 12.0412C1.74169 12.0053 1.62644 11.9086 1.58969 11.9086C1.55382 11.9086 1.54134 11.9744 1.45139 11.9744C1.3604 11.9744 1.22798 11.9985 1.21533 11.9445C1.20285 11.8902 1.27633 11.8294 1.32469 11.8051C1.37304 11.781 1.39055 11.7209 1.38466 11.6968C1.37894 11.6727 1.34202 11.6417 1.30632 11.6358C1.26958 11.6299 1.21533 11.5699 1.21533 11.5332C1.21533 11.4964 1.20285 11.4481 1.27634 11.4548C1.34792 11.4606 1.58397 11.7268 1.60824 11.4964C1.6325 11.2671 1.66925 11.0553 1.5299 11.0494C1.39055 11.0436 1.30649 11.0978 1.26386 11.0494C1.22122 11.0011 1.18552 10.916 1.19713 10.8442C1.20978 10.7708 1.23977 10.6508 1.35485 10.6324C1.46993 10.6141 1.43319 10.6382 1.55988 10.6025C1.68658 10.5657 1.80166 10.5174 1.80842 10.4148C1.81518 10.287 1.86059 10.0277 1.73684 9.93693C1.66231 9.88078 1.45624 10.0115 1.43301 9.92532C1.40303 9.81596 1.29367 9.70088 1.463 9.66517C1.63233 9.62843 1.63805 9.67678 1.69905 9.62254C1.76006 9.56829 1.76006 9.35061 1.74741 9.28977C1.73475 9.2298 1.69316 9.05458 1.6507 9.0421C1.60806 9.02945 1.47565 9.03638 1.45728 8.99375C1.43891 8.95111 1.37894 8.76445 1.37894 8.67935C1.37894 8.59425 1.29384 8.46739 1.42729 8.38333C1.55988 8.29823 1.67497 8.29823 1.7533 8.27396C1.83164 8.24987 1.86838 8.25368 1.91674 8.14918C1.92541 8.12976 1.93511 8.10949 1.94378 8.08921C1.95348 8.06599 1.96319 8.0438 1.97185 8.02248V8.02144C1.99889 7.95662 2.01934 7.90532 2.01934 7.90532C2.01934 7.90532 2.14032 7.70601 2.09872 7.51259C2.05608 7.31917 1.97099 7.14984 1.98364 7.05313C1.99525 6.95642 1.98936 6.83544 2.09872 6.89541C2.20704 6.95642 2.2554 7.06283 2.30965 6.87894C2.3639 6.69609 2.35228 6.6051 2.34639 6.55103C2.3405 6.49678 2.30376 6.40007 2.33374 6.29071C2.36372 6.18239 2.39474 6.01306 2.46719 6.01306C2.53981 6.01306 2.69059 6.14564 2.75073 6.01306C2.81174 5.8796 2.75074 5.79537 2.84745 5.68601C2.94416 5.57769 3.03515 5.63176 3.05941 5.52344C3.0835 5.41408 3.05369 5.31147 3.05369 5.25636C3.05369 5.20211 3.05941 5.09968 3.1147 5.08807C3.16895 5.07542 3.22302 5.12966 3.30136 5.13642C3.3797 5.14214 3.52476 5.02706 3.52476 5.02706C3.52476 5.02706 3.54989 4.9177 3.60986 5.02706C3.66983 5.13642 3.77347 5.17213 3.85753 5.05133C3.94263 4.93035 3.96013 4.83364 4.1052 4.7553C4.25026 4.67592 4.26864 4.50763 4.32965 4.48926C4.38961 4.47089 4.45634 4.51925 4.49897 4.44663C4.54057 4.37401 4.55323 4.22894 4.54733 4.16221C4.54057 4.09549 4.47471 4.03552 4.58303 3.98716C4.6924 3.93881 4.81337 3.95042 4.84335 3.87208C4.87334 3.79374 4.81337 3.63707 4.81337 3.58871C4.81337 3.54036 4.74075 3.37675 4.90436 3.38264C5.06693 3.38853 5.36971 3.38853 5.38809 3.31002C5.40542 3.23168 5.34545 3.19494 5.38133 3.12821C5.41807 3.06235 5.49069 2.97725 5.47232 2.93479C5.45394 2.8932 5.33973 2.8022 5.26035 2.78383C5.18201 2.76633 4.98842 2.73548 4.97022 2.69284C4.95289 2.65124 4.91598 2.29421 4.81927 2.33096C4.72255 2.36683 4.64993 2.46926 4.60747 2.43928C4.56587 2.4093 4.49915 2.33096 4.47489 2.32801C4.45062 2.3242 4.2572 2.42091 4.2572 2.42091C4.2572 2.42091 4.28718 2.49353 4.16621 2.42767C4.04523 2.36094 4.00277 2.20894 4.02114 2.14897C4.03951 2.08901 4.16621 2.08901 4.21456 1.97393C4.26292 1.85884 4.35963 1.89559 4.28129 1.75624C4.20191 1.6169 4.11196 1.44757 4.11196 1.39349C4.11196 1.33838 4.26864 1.25415 4.2929 1.27252C4.31699 1.28985 4.37228 1.38084 4.378 1.44184C4.38372 1.50181 4.35963 1.58691 4.44386 1.60528C4.52896 1.62279 4.63156 1.58015 4.66831 1.55017C4.70401 1.52018 4.64404 1.46022 4.78252 1.46022C4.92187 1.46022 4.98287 1.48344 5.01858 1.54445C5.05532 1.60546 5.25463 1.62868 5.30299 1.62279C5.35134 1.61689 5.45966 1.50181 5.50819 1.52019C5.55655 1.53856 5.36313 1.64688 5.69589 1.65953C6.02866 1.67114 6.24063 1.56282 6.24063 1.56282C6.24063 1.56282 6.36247 1.61118 6.49211 1.51446C6.62071 1.41775 6.83268 1.23005 6.83268 1.23005C6.83268 1.23005 6.89073 1.20094 6.94394 1.18932C6.97878 1.18152 7.01171 1.18066 7.02609 1.1999C7.05608 1.23959 7.13546 1.3538 7.18953 1.40597C7.20114 1.41654 7.21085 1.42538 7.21952 1.42919C7.26787 1.45346 7.54656 1.53856 7.65488 1.44756C7.76425 1.35657 7.83687 1.3382 7.88523 1.25986C7.93358 1.18153 7.98194 1.10319 8.0062 0.988104C8.02648 0.89226 7.99649 0.808201 8.03722 0.741474C8.13393 0.723103 8.25682 0.728823 8.37485 0.818948C8.62927 1.01237 8.5199 1.19331 8.67762 1.35103C8.68733 1.36073 8.69791 1.3694 8.70761 1.3772C8.72113 1.38777 8.73569 1.39661 8.7492 1.40337C8.76567 1.41117 8.78213 1.41793 8.7986 1.42278C8.84886 1.43734 8.8993 1.44011 8.94766 1.44895C8.95545 1.45086 8.96308 1.4519 8.97087 1.4538C8.97867 1.45571 8.98631 1.45762 8.9941 1.46056C9 1.46247 9.00675 1.46438 9.01247 1.46732C9.02113 1.47114 9.0298 1.47512 9.03864 1.47997C9.04349 1.48292 9.04921 1.48569 9.05406 1.48968C9.05597 1.49072 9.05701 1.49263 9.05892 1.49349C9.06672 1.49835 9.07347 1.50407 9.08023 1.51083C9.08405 1.51464 9.0889 1.51949 9.09289 1.52435C9.0967 1.5292 9.10052 1.53301 9.10346 1.53786C9.11508 1.55329 9.12669 1.57166 9.13639 1.59298C9.24576 1.82227 9.11316 1.97999 9.22149 2.05244C9.32981 2.12506 9.56015 2.13754 9.60851 2.05244C9.65686 1.96734 9.89101 1.95278 9.86484 2.11137C9.83867 2.26995 9.74196 2.30583 9.70521 2.43928C9.66847 2.57273 9.79032 2.74102 9.79032 2.74102C9.79032 2.74102 9.85028 2.69267 9.9229 2.81451C9.99552 2.93444 9.91042 3.11642 9.9229 3.22475C9.93555 3.33411 10.0806 3.60015 10.1163 3.62424C10.1522 3.64833 10.3708 3.63672 10.4191 3.62424C10.4664 3.61263 10.7084 3.5894 10.7084 3.75769Z"/>
</mask>
<path d="M10.7084 3.75769C10.7084 3.92806 10.6474 4.048 10.5633 4.09635C10.4782 4.14471 10.4299 4.12149 10.4299 4.22981C10.4299 4.33813 10.5508 4.38649 10.3448 4.44749C10.1397 4.5085 9.98686 4.49585 9.86397 4.58008C9.74109 4.66518 9.72844 4.7378 9.80105 4.82584C9.82237 4.85201 9.84751 4.8664 9.87454 4.87524C9.89101 4.88096 9.90834 4.8839 9.92585 4.88789H9.92688C9.90071 5.05133 9.84074 5.27872 9.71214 5.29414C9.51092 5.31841 9.37349 5.41512 9.30105 5.47994C9.22843 5.54372 9.035 5.56798 8.98665 5.60854C8.93829 5.64909 8.71281 5.81842 8.77763 5.89104C8.84141 5.96366 8.84141 6.06037 8.80952 6.10873C8.77763 6.15708 8.64799 6.17251 8.72928 6.28568C8.80952 6.39886 8.87434 6.38239 8.87434 6.49557C8.87434 6.6077 8.74955 6.70459 8.7031 6.72868C8.65666 6.75294 8.52701 6.9221 8.51921 7.01118C8.51141 7.10027 8.5511 7.13216 8.55977 7.18814C8.56757 7.24516 8.56757 7.22887 8.46306 7.29369C8.35768 7.35747 8.27727 7.43875 8.29373 7.49491C8.30916 7.55106 8.39044 7.65644 8.40586 7.71259C8.42233 7.76875 8.43013 7.92248 8.38178 7.92248C8.33342 7.92248 8.25318 7.81693 8.13983 7.85766C8.02752 7.89822 8.04503 7.88955 8.03636 8.04345C8.02769 8.19632 8.08367 8.33358 8.00343 8.37327C7.92214 8.41383 7.9386 8.50291 7.81 8.51071C7.68036 8.51851 7.59232 8.48645 7.5197 8.4381C7.44708 8.38974 7.43061 8.28523 7.24499 8.33358C7.06024 8.38194 6.97116 8.46218 6.93927 8.46218C6.90634 8.46218 6.7942 8.44572 6.75347 8.44572C6.71274 8.44572 6.53579 8.50274 6.53579 8.62372C6.53579 8.74469 6.58327 8.88109 6.49124 8.96238C6.39834 9.04262 6.26194 9.00206 6.24548 9.09877C6.22901 9.19549 6.2077 9.27677 6.17009 9.27677C6.1323 9.27677 6.07615 9.14713 5.98724 9.21957C5.89919 9.29219 5.86627 9.2525 5.89053 9.44592C5.91462 9.63935 5.96315 9.84837 5.96315 9.84837C5.96315 9.84837 5.94773 9.95374 6.04444 10.0583C6.14115 10.1628 6.18378 10.3002 6.17026 10.3243C6.15674 10.3484 6.07632 10.4936 6.10839 10.5825C6.14132 10.6706 6.14132 10.8564 6.11705 10.9047C6.09279 10.9531 6.03577 11.1784 6.09279 11.2113C6.14894 11.2432 6.02797 11.2675 6.26212 11.2916C6.49523 11.3158 6.63267 11.3564 6.68882 11.3399C6.74584 11.3235 6.85815 11.3224 6.89108 11.4153C6.92297 11.5093 6.92297 11.7105 6.86682 11.7675C6.80979 11.8237 6.74585 11.8798 6.6734 11.8885C6.60078 11.8963 6.56698 11.7027 6.49159 11.6786C6.41516 11.6543 6.31845 11.5983 6.22174 11.638C6.12502 11.6786 6.03594 11.7434 5.99643 11.7434C5.9557 11.7434 5.86679 11.6545 5.83489 11.55C5.803 11.4446 5.91514 11.3961 5.75465 11.3566C5.59312 11.316 5.44025 11.3566 5.3919 11.3644C5.34354 11.372 5.18184 11.2512 5.18184 11.2512C5.18184 11.2512 5.08513 11.1467 5.02031 11.1467C4.95653 11.1467 4.77074 11.2028 4.75427 11.3325C4.73885 11.4611 4.63329 11.558 4.82689 11.6625C5.02031 11.7678 5.02915 11.7195 5.12586 11.7756C5.22257 11.8318 5.30281 11.9131 5.30281 12.0176C5.30281 12.1221 5.24666 12.2034 5.23799 12.2914C5.2302 12.3805 5.03677 12.4772 5.24666 12.6388C5.45568 12.7994 5.56106 12.7838 5.57666 12.8081C5.59312 12.8322 5.64147 12.9609 5.61721 13.0015C5.59312 13.0412 5.5205 13.1863 5.54459 13.4282C5.56886 13.6702 5.65776 13.7591 5.68965 13.8239C5.72154 13.8877 5.80283 13.9284 5.73039 14.0329C5.65777 14.1383 5.6491 14.1703 5.5205 14.2989C5.3919 14.4286 5.43159 14.6057 5.30281 14.6617C5.17421 14.7187 4.98062 14.743 4.93226 14.8397C4.88391 14.9364 4.88391 14.9364 4.908 15.0168C4.93227 15.0971 5.09276 15.073 4.908 15.2345C4.72221 15.396 4.49689 15.6215 4.34299 15.6775C4.19013 15.7345 4.06915 15.6621 4.05269 15.8071C4.03726 15.9522 4.06135 16.081 4.013 16.2579C3.96464 16.4359 3.86793 16.5404 3.85147 16.6207C3.835 16.702 3.84366 16.8519 3.8272 16.9786C3.74297 16.9737 3.65701 16.9659 3.57659 16.9602C3.55822 16.9583 3.53984 16.9573 3.52251 16.9564C3.50899 16.9555 3.49634 16.9545 3.48386 16.9545C3.4693 16.9535 3.45578 16.9526 3.4433 16.9526C3.42788 16.9517 3.41228 16.9517 3.3979 16.9517C3.23446 16.9517 2.93254 16.9412 2.93254 16.9826C2.93254 16.998 2.88505 17.0155 2.82318 17.0328C2.77673 16.9874 2.73999 16.9458 2.73323 16.9216C2.70914 16.8432 2.73323 16.7638 2.73323 16.7155C2.73323 16.6671 2.70221 16.5829 2.68488 16.5404C2.66651 16.4978 2.55714 16.3654 2.55714 16.2801C2.55714 16.2444 2.5542 16.2056 2.54934 16.1718C2.54258 16.1245 2.53201 16.0867 2.52127 16.0789C2.5029 16.0643 2.34032 16.0441 2.3093 16.0624C2.27931 16.0808 2.21259 16.0865 2.17671 16.0624C2.13997 16.0382 2.10999 15.9357 2.12836 15.8272C2.14673 15.7179 2.17671 15.7179 2.17671 15.6995C2.17671 15.6822 2.13407 15.5245 2.1157 15.4518C2.09837 15.3792 1.92801 15.3009 1.81968 15.2099C1.72107 15.1276 1.69195 15.0309 1.66872 14.9728C1.66682 14.9671 1.66491 14.9612 1.663 14.9563C1.63787 14.9012 1.40269 14.8896 1.34757 14.9563C1.29332 15.0222 1.25086 14.9621 1.13093 14.9563C1.00908 14.9496 1.06991 14.8829 1.06991 14.817C1.06991 14.7503 0.960556 14.5752 0.960556 14.5752C0.973208 14.5366 0.997298 14.4977 1.05155 14.4785C1.13664 14.4475 1.21498 14.4418 1.22087 14.3991C1.22763 14.3575 1.19089 14.2849 1.13093 14.2366C1.06992 14.1882 0.954834 14.1088 0.949115 14.0605C0.943396 14.0121 1.00336 13.7702 1.00336 13.7702C1.00336 13.7702 1.10597 13.4799 1.22781 13.2991C1.34774 13.1181 1.58969 12.8211 1.68051 12.8694C1.7715 12.9178 1.70477 13.0272 1.80148 13.0996C1.89819 13.1722 1.98329 13.1838 2.05019 13.1663C2.11588 13.148 2.27949 13.1779 2.29214 13.1596C2.30375 13.1412 2.36372 13.027 2.31536 12.9729C2.26701 12.9178 2.21277 12.8635 2.21277 12.8635C2.21277 12.8635 2.26112 12.8025 2.29786 12.8025C2.33357 12.8025 2.43045 12.731 2.43045 12.7126C2.43045 12.6942 2.38209 12.5859 2.36372 12.5732C2.34639 12.5606 2.2554 12.4949 2.18278 12.4765C2.11016 12.4582 1.99508 12.4407 1.96509 12.4223C1.93511 12.4039 1.89837 12.3739 1.88676 12.3372C1.8741 12.3013 1.79005 12.0769 1.76578 12.0412C1.74169 12.0053 1.62644 11.9086 1.58969 11.9086C1.55382 11.9086 1.54134 11.9744 1.45139 11.9744C1.3604 11.9744 1.22798 11.9985 1.21533 11.9445C1.20285 11.8902 1.27633 11.8294 1.32469 11.8051C1.37304 11.781 1.39055 11.7209 1.38466 11.6968C1.37894 11.6727 1.34202 11.6417 1.30632 11.6358C1.26958 11.6299 1.21533 11.5699 1.21533 11.5332C1.21533 11.4964 1.20285 11.4481 1.27634 11.4548C1.34792 11.4606 1.58397 11.7268 1.60824 11.4964C1.6325 11.2671 1.66925 11.0553 1.5299 11.0494C1.39055 11.0436 1.30649 11.0978 1.26386 11.0494C1.22122 11.0011 1.18552 10.916 1.19713 10.8442C1.20978 10.7708 1.23977 10.6508 1.35485 10.6324C1.46993 10.6141 1.43319 10.6382 1.55988 10.6025C1.68658 10.5657 1.80166 10.5174 1.80842 10.4148C1.81518 10.287 1.86059 10.0277 1.73684 9.93693C1.66231 9.88078 1.45624 10.0115 1.43301 9.92532C1.40303 9.81596 1.29367 9.70088 1.463 9.66517C1.63233 9.62843 1.63805 9.67678 1.69905 9.62254C1.76006 9.56829 1.76006 9.35061 1.74741 9.28977C1.73475 9.2298 1.69316 9.05458 1.6507 9.0421C1.60806 9.02945 1.47565 9.03638 1.45728 8.99375C1.43891 8.95111 1.37894 8.76445 1.37894 8.67935C1.37894 8.59425 1.29384 8.46739 1.42729 8.38333C1.55988 8.29823 1.67497 8.29823 1.7533 8.27396C1.83164 8.24987 1.86838 8.25368 1.91674 8.14918C1.92541 8.12976 1.93511 8.10949 1.94378 8.08921C1.95348 8.06599 1.96319 8.0438 1.97185 8.02248V8.02144C1.99889 7.95662 2.01934 7.90532 2.01934 7.90532C2.01934 7.90532 2.14032 7.70601 2.09872 7.51259C2.05608 7.31917 1.97099 7.14984 1.98364 7.05313C1.99525 6.95642 1.98936 6.83544 2.09872 6.89541C2.20704 6.95642 2.2554 7.06283 2.30965 6.87894C2.3639 6.69609 2.35228 6.6051 2.34639 6.55103C2.3405 6.49678 2.30376 6.40007 2.33374 6.29071C2.36372 6.18239 2.39474 6.01306 2.46719 6.01306C2.53981 6.01306 2.69059 6.14564 2.75073 6.01306C2.81174 5.8796 2.75074 5.79537 2.84745 5.68601C2.94416 5.57769 3.03515 5.63176 3.05941 5.52344C3.0835 5.41408 3.05369 5.31147 3.05369 5.25636C3.05369 5.20211 3.05941 5.09968 3.1147 5.08807C3.16895 5.07542 3.22302 5.12966 3.30136 5.13642C3.3797 5.14214 3.52476 5.02706 3.52476 5.02706C3.52476 5.02706 3.54989 4.9177 3.60986 5.02706C3.66983 5.13642 3.77347 5.17213 3.85753 5.05133C3.94263 4.93035 3.96013 4.83364 4.1052 4.7553C4.25026 4.67592 4.26864 4.50763 4.32965 4.48926C4.38961 4.47089 4.45634 4.51925 4.49897 4.44663C4.54057 4.37401 4.55323 4.22894 4.54733 4.16221C4.54057 4.09549 4.47471 4.03552 4.58303 3.98716C4.6924 3.93881 4.81337 3.95042 4.84335 3.87208C4.87334 3.79374 4.81337 3.63707 4.81337 3.58871C4.81337 3.54036 4.74075 3.37675 4.90436 3.38264C5.06693 3.38853 5.36971 3.38853 5.38809 3.31002C5.40542 3.23168 5.34545 3.19494 5.38133 3.12821C5.41807 3.06235 5.49069 2.97725 5.47232 2.93479C5.45394 2.8932 5.33973 2.8022 5.26035 2.78383C5.18201 2.76633 4.98842 2.73548 4.97022 2.69284C4.95289 2.65124 4.91598 2.29421 4.81927 2.33096C4.72255 2.36683 4.64993 2.46926 4.60747 2.43928C4.56587 2.4093 4.49915 2.33096 4.47489 2.32801C4.45062 2.3242 4.2572 2.42091 4.2572 2.42091C4.2572 2.42091 4.28718 2.49353 4.16621 2.42767C4.04523 2.36094 4.00277 2.20894 4.02114 2.14897C4.03951 2.08901 4.16621 2.08901 4.21456 1.97393C4.26292 1.85884 4.35963 1.89559 4.28129 1.75624C4.20191 1.6169 4.11196 1.44757 4.11196 1.39349C4.11196 1.33838 4.26864 1.25415 4.2929 1.27252C4.31699 1.28985 4.37228 1.38084 4.378 1.44184C4.38372 1.50181 4.35963 1.58691 4.44386 1.60528C4.52896 1.62279 4.63156 1.58015 4.66831 1.55017C4.70401 1.52018 4.64404 1.46022 4.78252 1.46022C4.92187 1.46022 4.98287 1.48344 5.01858 1.54445C5.05532 1.60546 5.25463 1.62868 5.30299 1.62279C5.35134 1.61689 5.45966 1.50181 5.50819 1.52019C5.55655 1.53856 5.36313 1.64688 5.69589 1.65953C6.02866 1.67114 6.24063 1.56282 6.24063 1.56282C6.24063 1.56282 6.36247 1.61118 6.49211 1.51446C6.62071 1.41775 6.83268 1.23005 6.83268 1.23005C6.83268 1.23005 6.89073 1.20094 6.94394 1.18932C6.97878 1.18152 7.01171 1.18066 7.02609 1.1999C7.05608 1.23959 7.13546 1.3538 7.18953 1.40597C7.20114 1.41654 7.21085 1.42538 7.21952 1.42919C7.26787 1.45346 7.54656 1.53856 7.65488 1.44756C7.76425 1.35657 7.83687 1.3382 7.88523 1.25986C7.93358 1.18153 7.98194 1.10319 8.0062 0.988104C8.02648 0.89226 7.99649 0.808201 8.03722 0.741474C8.13393 0.723103 8.25682 0.728823 8.37485 0.818948C8.62927 1.01237 8.5199 1.19331 8.67762 1.35103C8.68733 1.36073 8.69791 1.3694 8.70761 1.3772C8.72113 1.38777 8.73569 1.39661 8.7492 1.40337C8.76567 1.41117 8.78213 1.41793 8.7986 1.42278C8.84886 1.43734 8.8993 1.44011 8.94766 1.44895C8.95545 1.45086 8.96308 1.4519 8.97087 1.4538C8.97867 1.45571 8.98631 1.45762 8.9941 1.46056C9 1.46247 9.00675 1.46438 9.01247 1.46732C9.02113 1.47114 9.0298 1.47512 9.03864 1.47997C9.04349 1.48292 9.04921 1.48569 9.05406 1.48968C9.05597 1.49072 9.05701 1.49263 9.05892 1.49349C9.06672 1.49835 9.07347 1.50407 9.08023 1.51083C9.08405 1.51464 9.0889 1.51949 9.09289 1.52435C9.0967 1.5292 9.10052 1.53301 9.10346 1.53786C9.11508 1.55329 9.12669 1.57166 9.13639 1.59298C9.24576 1.82227 9.11316 1.97999 9.22149 2.05244C9.32981 2.12506 9.56015 2.13754 9.60851 2.05244C9.65686 1.96734 9.89101 1.95278 9.86484 2.11137C9.83867 2.26995 9.74196 2.30583 9.70521 2.43928C9.66847 2.57273 9.79032 2.74102 9.79032 2.74102C9.79032 2.74102 9.85028 2.69267 9.9229 2.81451C9.99552 2.93444 9.91042 3.11642 9.9229 3.22475C9.93555 3.33411 10.0806 3.60015 10.1163 3.62424C10.1522 3.64833 10.3708 3.63672 10.4191 3.62424C10.4664 3.61263 10.7084 3.5894 10.7084 3.75769Z" fill="#E0D47C"/>
<path d="M10.7084 3.75769C10.7084 3.92806 10.6474 4.048 10.5633 4.09635C10.4782 4.14471 10.4299 4.12149 10.4299 4.22981C10.4299 4.33813 10.5508 4.38649 10.3448 4.44749C10.1397 4.5085 9.98686 4.49585 9.86397 4.58008C9.74109 4.66518 9.72844 4.7378 9.80105 4.82584C9.82237 4.85201 9.84751 4.8664 9.87454 4.87524C9.89101 4.88096 9.90834 4.8839 9.92585 4.88789H9.92688C9.90071 5.05133 9.84074 5.27872 9.71214 5.29414C9.51092 5.31841 9.37349 5.41512 9.30105 5.47994C9.22843 5.54372 9.035 5.56798 8.98665 5.60854C8.93829 5.64909 8.71281 5.81842 8.77763 5.89104C8.84141 5.96366 8.84141 6.06037 8.80952 6.10873C8.77763 6.15708 8.64799 6.17251 8.72928 6.28568C8.80952 6.39886 8.87434 6.38239 8.87434 6.49557C8.87434 6.6077 8.74955 6.70459 8.7031 6.72868C8.65666 6.75294 8.52701 6.9221 8.51921 7.01118C8.51141 7.10027 8.5511 7.13216 8.55977 7.18814C8.56757 7.24516 8.56757 7.22887 8.46306 7.29369C8.35768 7.35747 8.27727 7.43875 8.29373 7.49491C8.30916 7.55106 8.39044 7.65644 8.40586 7.71259C8.42233 7.76875 8.43013 7.92248 8.38178 7.92248C8.33342 7.92248 8.25318 7.81693 8.13983 7.85766C8.02752 7.89822 8.04503 7.88955 8.03636 8.04345C8.02769 8.19632 8.08367 8.33358 8.00343 8.37327C7.92214 8.41383 7.9386 8.50291 7.81 8.51071C7.68036 8.51851 7.59232 8.48645 7.5197 8.4381C7.44708 8.38974 7.43061 8.28523 7.24499 8.33358C7.06024 8.38194 6.97116 8.46218 6.93927 8.46218C6.90634 8.46218 6.7942 8.44572 6.75347 8.44572C6.71274 8.44572 6.53579 8.50274 6.53579 8.62372C6.53579 8.74469 6.58327 8.88109 6.49124 8.96238C6.39834 9.04262 6.26194 9.00206 6.24548 9.09877C6.22901 9.19549 6.2077 9.27677 6.17009 9.27677C6.1323 9.27677 6.07615 9.14713 5.98724 9.21957C5.89919 9.29219 5.86627 9.2525 5.89053 9.44592C5.91462 9.63935 5.96315 9.84837 5.96315 9.84837C5.96315 9.84837 5.94773 9.95374 6.04444 10.0583C6.14115 10.1628 6.18378 10.3002 6.17026 10.3243C6.15674 10.3484 6.07632 10.4936 6.10839 10.5825C6.14132 10.6706 6.14132 10.8564 6.11705 10.9047C6.09279 10.9531 6.03577 11.1784 6.09279 11.2113C6.14894 11.2432 6.02797 11.2675 6.26212 11.2916C6.49523 11.3158 6.63267 11.3564 6.68882 11.3399C6.74584 11.3235 6.85815 11.3224 6.89108 11.4153C6.92297 11.5093 6.92297 11.7105 6.86682 11.7675C6.80979 11.8237 6.74585 11.8798 6.6734 11.8885C6.60078 11.8963 6.56698 11.7027 6.49159 11.6786C6.41516 11.6543 6.31845 11.5983 6.22174 11.638C6.12502 11.6786 6.03594 11.7434 5.99643 11.7434C5.9557 11.7434 5.86679 11.6545 5.83489 11.55C5.803 11.4446 5.91514 11.3961 5.75465 11.3566C5.59312 11.316 5.44025 11.3566 5.3919 11.3644C5.34354 11.372 5.18184 11.2512 5.18184 11.2512C5.18184 11.2512 5.08513 11.1467 5.02031 11.1467C4.95653 11.1467 4.77074 11.2028 4.75427 11.3325C4.73885 11.4611 4.63329 11.558 4.82689 11.6625C5.02031 11.7678 5.02915 11.7195 5.12586 11.7756C5.22257 11.8318 5.30281 11.9131 5.30281 12.0176C5.30281 12.1221 5.24666 12.2034 5.23799 12.2914C5.2302 12.3805 5.03677 12.4772 5.24666 12.6388C5.45568 12.7994 5.56106 12.7838 5.57666 12.8081C5.59312 12.8322 5.64147 12.9609 5.61721 13.0015C5.59312 13.0412 5.5205 13.1863 5.54459 13.4282C5.56886 13.6702 5.65776 13.7591 5.68965 13.8239C5.72154 13.8877 5.80283 13.9284 5.73039 14.0329C5.65777 14.1383 5.6491 14.1703 5.5205 14.2989C5.3919 14.4286 5.43159 14.6057 5.30281 14.6617C5.17421 14.7187 4.98062 14.743 4.93226 14.8397C4.88391 14.9364 4.88391 14.9364 4.908 15.0168C4.93227 15.0971 5.09276 15.073 4.908 15.2345C4.72221 15.396 4.49689 15.6215 4.34299 15.6775C4.19013 15.7345 4.06915 15.6621 4.05269 15.8071C4.03726 15.9522 4.06135 16.081 4.013 16.2579C3.96464 16.4359 3.86793 16.5404 3.85147 16.6207C3.835 16.702 3.84366 16.8519 3.8272 16.9786C3.74297 16.9737 3.65701 16.9659 3.57659 16.9602C3.55822 16.9583 3.53984 16.9573 3.52251 16.9564C3.50899 16.9555 3.49634 16.9545 3.48386 16.9545C3.4693 16.9535 3.45578 16.9526 3.4433 16.9526C3.42788 16.9517 3.41228 16.9517 3.3979 16.9517C3.23446 16.9517 2.93254 16.9412 2.93254 16.9826C2.93254 16.998 2.88505 17.0155 2.82318 17.0328C2.77673 16.9874 2.73999 16.9458 2.73323 16.9216C2.70914 16.8432 2.73323 16.7638 2.73323 16.7155C2.73323 16.6671 2.70221 16.5829 2.68488 16.5404C2.66651 16.4978 2.55714 16.3654 2.55714 16.2801C2.55714 16.2444 2.5542 16.2056 2.54934 16.1718C2.54258 16.1245 2.53201 16.0867 2.52127 16.0789C2.5029 16.0643 2.34032 16.0441 2.3093 16.0624C2.27931 16.0808 2.21259 16.0865 2.17671 16.0624C2.13997 16.0382 2.10999 15.9357 2.12836 15.8272C2.14673 15.7179 2.17671 15.7179 2.17671 15.6995C2.17671 15.6822 2.13407 15.5245 2.1157 15.4518C2.09837 15.3792 1.92801 15.3009 1.81968 15.2099C1.72107 15.1276 1.69195 15.0309 1.66872 14.9728C1.66682 14.9671 1.66491 14.9612 1.663 14.9563C1.63787 14.9012 1.40269 14.8896 1.34757 14.9563C1.29332 15.0222 1.25086 14.9621 1.13093 14.9563C1.00908 14.9496 1.06991 14.8829 1.06991 14.817C1.06991 14.7503 0.960556 14.5752 0.960556 14.5752C0.973208 14.5366 0.997298 14.4977 1.05155 14.4785C1.13664 14.4475 1.21498 14.4418 1.22087 14.3991C1.22763 14.3575 1.19089 14.2849 1.13093 14.2366C1.06992 14.1882 0.954834 14.1088 0.949115 14.0605C0.943396 14.0121 1.00336 13.7702 1.00336 13.7702C1.00336 13.7702 1.10597 13.4799 1.22781 13.2991C1.34774 13.1181 1.58969 12.8211 1.68051 12.8694C1.7715 12.9178 1.70477 13.0272 1.80148 13.0996C1.89819 13.1722 1.98329 13.1838 2.05019 13.1663C2.11588 13.148 2.27949 13.1779 2.29214 13.1596C2.30375 13.1412 2.36372 13.027 2.31536 12.9729C2.26701 12.9178 2.21277 12.8635 2.21277 12.8635C2.21277 12.8635 2.26112 12.8025 2.29786 12.8025C2.33357 12.8025 2.43045 12.731 2.43045 12.7126C2.43045 12.6942 2.38209 12.5859 2.36372 12.5732C2.34639 12.5606 2.2554 12.4949 2.18278 12.4765C2.11016 12.4582 1.99508 12.4407 1.96509 12.4223C1.93511 12.4039 1.89837 12.3739 1.88676 12.3372C1.8741 12.3013 1.79005 12.0769 1.76578 12.0412C1.74169 12.0053 1.62644 11.9086 1.58969 11.9086C1.55382 11.9086 1.54134 11.9744 1.45139 11.9744C1.3604 11.9744 1.22798 11.9985 1.21533 11.9445C1.20285 11.8902 1.27633 11.8294 1.32469 11.8051C1.37304 11.781 1.39055 11.7209 1.38466 11.6968C1.37894 11.6727 1.34202 11.6417 1.30632 11.6358C1.26958 11.6299 1.21533 11.5699 1.21533 11.5332C1.21533 11.4964 1.20285 11.4481 1.27634 11.4548C1.34792 11.4606 1.58397 11.7268 1.60824 11.4964C1.6325 11.2671 1.66925 11.0553 1.5299 11.0494C1.39055 11.0436 1.30649 11.0978 1.26386 11.0494C1.22122 11.0011 1.18552 10.916 1.19713 10.8442C1.20978 10.7708 1.23977 10.6508 1.35485 10.6324C1.46993 10.6141 1.43319 10.6382 1.55988 10.6025C1.68658 10.5657 1.80166 10.5174 1.80842 10.4148C1.81518 10.287 1.86059 10.0277 1.73684 9.93693C1.66231 9.88078 1.45624 10.0115 1.43301 9.92532C1.40303 9.81596 1.29367 9.70088 1.463 9.66517C1.63233 9.62843 1.63805 9.67678 1.69905 9.62254C1.76006 9.56829 1.76006 9.35061 1.74741 9.28977C1.73475 9.2298 1.69316 9.05458 1.6507 9.0421C1.60806 9.02945 1.47565 9.03638 1.45728 8.99375C1.43891 8.95111 1.37894 8.76445 1.37894 8.67935C1.37894 8.59425 1.29384 8.46739 1.42729 8.38333C1.55988 8.29823 1.67497 8.29823 1.7533 8.27396C1.83164 8.24987 1.86838 8.25368 1.91674 8.14918C1.92541 8.12976 1.93511 8.10949 1.94378 8.08921C1.95348 8.06599 1.96319 8.0438 1.97185 8.02248V8.02144C1.99889 7.95662 2.01934 7.90532 2.01934 7.90532C2.01934 7.90532 2.14032 7.70601 2.09872 7.51259C2.05608 7.31917 1.97099 7.14984 1.98364 7.05313C1.99525 6.95642 1.98936 6.83544 2.09872 6.89541C2.20704 6.95642 2.2554 7.06283 2.30965 6.87894C2.3639 6.69609 2.35228 6.6051 2.34639 6.55103C2.3405 6.49678 2.30376 6.40007 2.33374 6.29071C2.36372 6.18239 2.39474 6.01306 2.46719 6.01306C2.53981 6.01306 2.69059 6.14564 2.75073 6.01306C2.81174 5.8796 2.75074 5.79537 2.84745 5.68601C2.94416 5.57769 3.03515 5.63176 3.05941 5.52344C3.0835 5.41408 3.05369 5.31147 3.05369 5.25636C3.05369 5.20211 3.05941 5.09968 3.1147 5.08807C3.16895 5.07542 3.22302 5.12966 3.30136 5.13642C3.3797 5.14214 3.52476 5.02706 3.52476 5.02706C3.52476 5.02706 3.54989 4.9177 3.60986 5.02706C3.66983 5.13642 3.77347 5.17213 3.85753 5.05133C3.94263 4.93035 3.96013 4.83364 4.1052 4.7553C4.25026 4.67592 4.26864 4.50763 4.32965 4.48926C4.38961 4.47089 4.45634 4.51925 4.49897 4.44663C4.54057 4.37401 4.55323 4.22894 4.54733 4.16221C4.54057 4.09549 4.47471 4.03552 4.58303 3.98716C4.6924 3.93881 4.81337 3.95042 4.84335 3.87208C4.87334 3.79374 4.81337 3.63707 4.81337 3.58871C4.81337 3.54036 4.74075 3.37675 4.90436 3.38264C5.06693 3.38853 5.36971 3.38853 5.38809 3.31002C5.40542 3.23168 5.34545 3.19494 5.38133 3.12821C5.41807 3.06235 5.49069 2.97725 5.47232 2.93479C5.45394 2.8932 5.33973 2.8022 5.26035 2.78383C5.18201 2.76633 4.98842 2.73548 4.97022 2.69284C4.95289 2.65124 4.91598 2.29421 4.81927 2.33096C4.72255 2.36683 4.64993 2.46926 4.60747 2.43928C4.56587 2.4093 4.49915 2.33096 4.47489 2.32801C4.45062 2.3242 4.2572 2.42091 4.2572 2.42091C4.2572 2.42091 4.28718 2.49353 4.16621 2.42767C4.04523 2.36094 4.00277 2.20894 4.02114 2.14897C4.03951 2.08901 4.16621 2.08901 4.21456 1.97393C4.26292 1.85884 4.35963 1.89559 4.28129 1.75624C4.20191 1.6169 4.11196 1.44757 4.11196 1.39349C4.11196 1.33838 4.26864 1.25415 4.2929 1.27252C4.31699 1.28985 4.37228 1.38084 4.378 1.44184C4.38372 1.50181 4.35963 1.58691 4.44386 1.60528C4.52896 1.62279 4.63156 1.58015 4.66831 1.55017C4.70401 1.52018 4.64404 1.46022 4.78252 1.46022C4.92187 1.46022 4.98287 1.48344 5.01858 1.54445C5.05532 1.60546 5.25463 1.62868 5.30299 1.62279C5.35134 1.61689 5.45966 1.50181 5.50819 1.52019C5.55655 1.53856 5.36313 1.64688 5.69589 1.65953C6.02866 1.67114 6.24063 1.56282 6.24063 1.56282C6.24063 1.56282 6.36247 1.61118 6.49211 1.51446C6.62071 1.41775 6.83268 1.23005 6.83268 1.23005C6.83268 1.23005 6.89073 1.20094 6.94394 1.18932C6.97878 1.18152 7.01171 1.18066 7.02609 1.1999C7.05608 1.23959 7.13546 1.3538 7.18953 1.40597C7.20114 1.41654 7.21085 1.42538 7.21952 1.42919C7.26787 1.45346 7.54656 1.53856 7.65488 1.44756C7.76425 1.35657 7.83687 1.3382 7.88523 1.25986C7.93358 1.18153 7.98194 1.10319 8.0062 0.988104C8.02648 0.89226 7.99649 0.808201 8.03722 0.741474C8.13393 0.723103 8.25682 0.728823 8.37485 0.818948C8.62927 1.01237 8.5199 1.19331 8.67762 1.35103C8.68733 1.36073 8.69791 1.3694 8.70761 1.3772C8.72113 1.38777 8.73569 1.39661 8.7492 1.40337C8.76567 1.41117 8.78213 1.41793 8.7986 1.42278C8.84886 1.43734 8.8993 1.44011 8.94766 1.44895C8.95545 1.45086 8.96308 1.4519 8.97087 1.4538C8.97867 1.45571 8.98631 1.45762 8.9941 1.46056C9 1.46247 9.00675 1.46438 9.01247 1.46732C9.02113 1.47114 9.0298 1.47512 9.03864 1.47997C9.04349 1.48292 9.04921 1.48569 9.05406 1.48968C9.05597 1.49072 9.05701 1.49263 9.05892 1.49349C9.06672 1.49835 9.07347 1.50407 9.08023 1.51083C9.08405 1.51464 9.0889 1.51949 9.09289 1.52435C9.0967 1.5292 9.10052 1.53301 9.10346 1.53786C9.11508 1.55329 9.12669 1.57166 9.13639 1.59298C9.24576 1.82227 9.11316 1.97999 9.22149 2.05244C9.32981 2.12506 9.56015 2.13754 9.60851 2.05244C9.65686 1.96734 9.89101 1.95278 9.86484 2.11137C9.83867 2.26995 9.74196 2.30583 9.70521 2.43928C9.66847 2.57273 9.79032 2.74102 9.79032 2.74102C9.79032 2.74102 9.85028 2.69267 9.9229 2.81451C9.99552 2.93444 9.91042 3.11642 9.9229 3.22475C9.93555 3.33411 10.0806 3.60015 10.1163 3.62424C10.1522 3.64833 10.3708 3.63672 10.4191 3.62424C10.4664 3.61263 10.7084 3.5894 10.7084 3.75769Z" fill="url(#paint0_linear_1571_9893)"/>
<path d="M10.7084 3.75769C10.7084 3.92806 10.6474 4.048 10.5633 4.09635C10.4782 4.14471 10.4299 4.12149 10.4299 4.22981C10.4299 4.33813 10.5508 4.38649 10.3448 4.44749C10.1397 4.5085 9.98686 4.49585 9.86397 4.58008C9.74109 4.66518 9.72844 4.7378 9.80105 4.82584C9.82237 4.85201 9.84751 4.8664 9.87454 4.87524C9.89101 4.88096 9.90834 4.8839 9.92585 4.88789H9.92688C9.90071 5.05133 9.84074 5.27872 9.71214 5.29414C9.51092 5.31841 9.37349 5.41512 9.30105 5.47994C9.22843 5.54372 9.035 5.56798 8.98665 5.60854C8.93829 5.64909 8.71281 5.81842 8.77763 5.89104C8.84141 5.96366 8.84141 6.06037 8.80952 6.10873C8.77763 6.15708 8.64799 6.17251 8.72928 6.28568C8.80952 6.39886 8.87434 6.38239 8.87434 6.49557C8.87434 6.6077 8.74955 6.70459 8.7031 6.72868C8.65666 6.75294 8.52701 6.9221 8.51921 7.01118C8.51141 7.10027 8.5511 7.13216 8.55977 7.18814C8.56757 7.24516 8.56757 7.22887 8.46306 7.29369C8.35768 7.35747 8.27727 7.43875 8.29373 7.49491C8.30916 7.55106 8.39044 7.65644 8.40586 7.71259C8.42233 7.76875 8.43013 7.92248 8.38178 7.92248C8.33342 7.92248 8.25318 7.81693 8.13983 7.85766C8.02752 7.89822 8.04503 7.88955 8.03636 8.04345C8.02769 8.19632 8.08367 8.33358 8.00343 8.37327C7.92214 8.41383 7.9386 8.50291 7.81 8.51071C7.68036 8.51851 7.59232 8.48645 7.5197 8.4381C7.44708 8.38974 7.43061 8.28523 7.24499 8.33358C7.06024 8.38194 6.97116 8.46218 6.93927 8.46218C6.90634 8.46218 6.7942 8.44572 6.75347 8.44572C6.71274 8.44572 6.53579 8.50274 6.53579 8.62372C6.53579 8.74469 6.58327 8.88109 6.49124 8.96238C6.39834 9.04262 6.26194 9.00206 6.24548 9.09877C6.22901 9.19549 6.2077 9.27677 6.17009 9.27677C6.1323 9.27677 6.07615 9.14713 5.98724 9.21957C5.89919 9.29219 5.86627 9.2525 5.89053 9.44592C5.91462 9.63935 5.96315 9.84837 5.96315 9.84837C5.96315 9.84837 5.94773 9.95374 6.04444 10.0583C6.14115 10.1628 6.18378 10.3002 6.17026 10.3243C6.15674 10.3484 6.07632 10.4936 6.10839 10.5825C6.14132 10.6706 6.14132 10.8564 6.11705 10.9047C6.09279 10.9531 6.03577 11.1784 6.09279 11.2113C6.14894 11.2432 6.02797 11.2675 6.26212 11.2916C6.49523 11.3158 6.63267 11.3564 6.68882 11.3399C6.74584 11.3235 6.85815 11.3224 6.89108 11.4153C6.92297 11.5093 6.92297 11.7105 6.86682 11.7675C6.80979 11.8237 6.74585 11.8798 6.6734 11.8885C6.60078 11.8963 6.56698 11.7027 6.49159 11.6786C6.41516 11.6543 6.31845 11.5983 6.22174 11.638C6.12502 11.6786 6.03594 11.7434 5.99643 11.7434C5.9557 11.7434 5.86679 11.6545 5.83489 11.55C5.803 11.4446 5.91514 11.3961 5.75465 11.3566C5.59312 11.316 5.44025 11.3566 5.3919 11.3644C5.34354 11.372 5.18184 11.2512 5.18184 11.2512C5.18184 11.2512 5.08513 11.1467 5.02031 11.1467C4.95653 11.1467 4.77074 11.2028 4.75427 11.3325C4.73885 11.4611 4.63329 11.558 4.82689 11.6625C5.02031 11.7678 5.02915 11.7195 5.12586 11.7756C5.22257 11.8318 5.30281 11.9131 5.30281 12.0176C5.30281 12.1221 5.24666 12.2034 5.23799 12.2914C5.2302 12.3805 5.03677 12.4772 5.24666 12.6388C5.45568 12.7994 5.56106 12.7838 5.57666 12.8081C5.59312 12.8322 5.64147 12.9609 5.61721 13.0015C5.59312 13.0412 5.5205 13.1863 5.54459 13.4282C5.56886 13.6702 5.65776 13.7591 5.68965 13.8239C5.72154 13.8877 5.80283 13.9284 5.73039 14.0329C5.65777 14.1383 5.6491 14.1703 5.5205 14.2989C5.3919 14.4286 5.43159 14.6057 5.30281 14.6617C5.17421 14.7187 4.98062 14.743 4.93226 14.8397C4.88391 14.9364 4.88391 14.9364 4.908 15.0168C4.93227 15.0971 5.09276 15.073 4.908 15.2345C4.72221 15.396 4.49689 15.6215 4.34299 15.6775C4.19013 15.7345 4.06915 15.6621 4.05269 15.8071C4.03726 15.9522 4.06135 16.081 4.013 16.2579C3.96464 16.4359 3.86793 16.5404 3.85147 16.6207C3.835 16.702 3.84366 16.8519 3.8272 16.9786C3.74297 16.9737 3.65701 16.9659 3.57659 16.9602C3.55822 16.9583 3.53984 16.9573 3.52251 16.9564C3.50899 16.9555 3.49634 16.9545 3.48386 16.9545C3.4693 16.9535 3.45578 16.9526 3.4433 16.9526C3.42788 16.9517 3.41228 16.9517 3.3979 16.9517C3.23446 16.9517 2.93254 16.9412 2.93254 16.9826C2.93254 16.998 2.88505 17.0155 2.82318 17.0328C2.77673 16.9874 2.73999 16.9458 2.73323 16.9216C2.70914 16.8432 2.73323 16.7638 2.73323 16.7155C2.73323 16.6671 2.70221 16.5829 2.68488 16.5404C2.66651 16.4978 2.55714 16.3654 2.55714 16.2801C2.55714 16.2444 2.5542 16.2056 2.54934 16.1718C2.54258 16.1245 2.53201 16.0867 2.52127 16.0789C2.5029 16.0643 2.34032 16.0441 2.3093 16.0624C2.27931 16.0808 2.21259 16.0865 2.17671 16.0624C2.13997 16.0382 2.10999 15.9357 2.12836 15.8272C2.14673 15.7179 2.17671 15.7179 2.17671 15.6995C2.17671 15.6822 2.13407 15.5245 2.1157 15.4518C2.09837 15.3792 1.92801 15.3009 1.81968 15.2099C1.72107 15.1276 1.69195 15.0309 1.66872 14.9728C1.66682 14.9671 1.66491 14.9612 1.663 14.9563C1.63787 14.9012 1.40269 14.8896 1.34757 14.9563C1.29332 15.0222 1.25086 14.9621 1.13093 14.9563C1.00908 14.9496 1.06991 14.8829 1.06991 14.817C1.06991 14.7503 0.960556 14.5752 0.960556 14.5752C0.973208 14.5366 0.997298 14.4977 1.05155 14.4785C1.13664 14.4475 1.21498 14.4418 1.22087 14.3991C1.22763 14.3575 1.19089 14.2849 1.13093 14.2366C1.06992 14.1882 0.954834 14.1088 0.949115 14.0605C0.943396 14.0121 1.00336 13.7702 1.00336 13.7702C1.00336 13.7702 1.10597 13.4799 1.22781 13.2991C1.34774 13.1181 1.58969 12.8211 1.68051 12.8694C1.7715 12.9178 1.70477 13.0272 1.80148 13.0996C1.89819 13.1722 1.98329 13.1838 2.05019 13.1663C2.11588 13.148 2.27949 13.1779 2.29214 13.1596C2.30375 13.1412 2.36372 13.027 2.31536 12.9729C2.26701 12.9178 2.21277 12.8635 2.21277 12.8635C2.21277 12.8635 2.26112 12.8025 2.29786 12.8025C2.33357 12.8025 2.43045 12.731 2.43045 12.7126C2.43045 12.6942 2.38209 12.5859 2.36372 12.5732C2.34639 12.5606 2.2554 12.4949 2.18278 12.4765C2.11016 12.4582 1.99508 12.4407 1.96509 12.4223C1.93511 12.4039 1.89837 12.3739 1.88676 12.3372C1.8741 12.3013 1.79005 12.0769 1.76578 12.0412C1.74169 12.0053 1.62644 11.9086 1.58969 11.9086C1.55382 11.9086 1.54134 11.9744 1.45139 11.9744C1.3604 11.9744 1.22798 11.9985 1.21533 11.9445C1.20285 11.8902 1.27633 11.8294 1.32469 11.8051C1.37304 11.781 1.39055 11.7209 1.38466 11.6968C1.37894 11.6727 1.34202 11.6417 1.30632 11.6358C1.26958 11.6299 1.21533 11.5699 1.21533 11.5332C1.21533 11.4964 1.20285 11.4481 1.27634 11.4548C1.34792 11.4606 1.58397 11.7268 1.60824 11.4964C1.6325 11.2671 1.66925 11.0553 1.5299 11.0494C1.39055 11.0436 1.30649 11.0978 1.26386 11.0494C1.22122 11.0011 1.18552 10.916 1.19713 10.8442C1.20978 10.7708 1.23977 10.6508 1.35485 10.6324C1.46993 10.6141 1.43319 10.6382 1.55988 10.6025C1.68658 10.5657 1.80166 10.5174 1.80842 10.4148C1.81518 10.287 1.86059 10.0277 1.73684 9.93693C1.66231 9.88078 1.45624 10.0115 1.43301 9.92532C1.40303 9.81596 1.29367 9.70088 1.463 9.66517C1.63233 9.62843 1.63805 9.67678 1.69905 9.62254C1.76006 9.56829 1.76006 9.35061 1.74741 9.28977C1.73475 9.2298 1.69316 9.05458 1.6507 9.0421C1.60806 9.02945 1.47565 9.03638 1.45728 8.99375C1.43891 8.95111 1.37894 8.76445 1.37894 8.67935C1.37894 8.59425 1.29384 8.46739 1.42729 8.38333C1.55988 8.29823 1.67497 8.29823 1.7533 8.27396C1.83164 8.24987 1.86838 8.25368 1.91674 8.14918C1.92541 8.12976 1.93511 8.10949 1.94378 8.08921C1.95348 8.06599 1.96319 8.0438 1.97185 8.02248V8.02144C1.99889 7.95662 2.01934 7.90532 2.01934 7.90532C2.01934 7.90532 2.14032 7.70601 2.09872 7.51259C2.05608 7.31917 1.97099 7.14984 1.98364 7.05313C1.99525 6.95642 1.98936 6.83544 2.09872 6.89541C2.20704 6.95642 2.2554 7.06283 2.30965 6.87894C2.3639 6.69609 2.35228 6.6051 2.34639 6.55103C2.3405 6.49678 2.30376 6.40007 2.33374 6.29071C2.36372 6.18239 2.39474 6.01306 2.46719 6.01306C2.53981 6.01306 2.69059 6.14564 2.75073 6.01306C2.81174 5.8796 2.75074 5.79537 2.84745 5.68601C2.94416 5.57769 3.03515 5.63176 3.05941 5.52344C3.0835 5.41408 3.05369 5.31147 3.05369 5.25636C3.05369 5.20211 3.05941 5.09968 3.1147 5.08807C3.16895 5.07542 3.22302 5.12966 3.30136 5.13642C3.3797 5.14214 3.52476 5.02706 3.52476 5.02706C3.52476 5.02706 3.54989 4.9177 3.60986 5.02706C3.66983 5.13642 3.77347 5.17213 3.85753 5.05133C3.94263 4.93035 3.96013 4.83364 4.1052 4.7553C4.25026 4.67592 4.26864 4.50763 4.32965 4.48926C4.38961 4.47089 4.45634 4.51925 4.49897 4.44663C4.54057 4.37401 4.55323 4.22894 4.54733 4.16221C4.54057 4.09549 4.47471 4.03552 4.58303 3.98716C4.6924 3.93881 4.81337 3.95042 4.84335 3.87208C4.87334 3.79374 4.81337 3.63707 4.81337 3.58871C4.81337 3.54036 4.74075 3.37675 4.90436 3.38264C5.06693 3.38853 5.36971 3.38853 5.38809 3.31002C5.40542 3.23168 5.34545 3.19494 5.38133 3.12821C5.41807 3.06235 5.49069 2.97725 5.47232 2.93479C5.45394 2.8932 5.33973 2.8022 5.26035 2.78383C5.18201 2.76633 4.98842 2.73548 4.97022 2.69284C4.95289 2.65124 4.91598 2.29421 4.81927 2.33096C4.72255 2.36683 4.64993 2.46926 4.60747 2.43928C4.56587 2.4093 4.49915 2.33096 4.47489 2.32801C4.45062 2.3242 4.2572 2.42091 4.2572 2.42091C4.2572 2.42091 4.28718 2.49353 4.16621 2.42767C4.04523 2.36094 4.00277 2.20894 4.02114 2.14897C4.03951 2.08901 4.16621 2.08901 4.21456 1.97393C4.26292 1.85884 4.35963 1.89559 4.28129 1.75624C4.20191 1.6169 4.11196 1.44757 4.11196 1.39349C4.11196 1.33838 4.26864 1.25415 4.2929 1.27252C4.31699 1.28985 4.37228 1.38084 4.378 1.44184C4.38372 1.50181 4.35963 1.58691 4.44386 1.60528C4.52896 1.62279 4.63156 1.58015 4.66831 1.55017C4.70401 1.52018 4.64404 1.46022 4.78252 1.46022C4.92187 1.46022 4.98287 1.48344 5.01858 1.54445C5.05532 1.60546 5.25463 1.62868 5.30299 1.62279C5.35134 1.61689 5.45966 1.50181 5.50819 1.52019C5.55655 1.53856 5.36313 1.64688 5.69589 1.65953C6.02866 1.67114 6.24063 1.56282 6.24063 1.56282C6.24063 1.56282 6.36247 1.61118 6.49211 1.51446C6.62071 1.41775 6.83268 1.23005 6.83268 1.23005C6.83268 1.23005 6.89073 1.20094 6.94394 1.18932C6.97878 1.18152 7.01171 1.18066 7.02609 1.1999C7.05608 1.23959 7.13546 1.3538 7.18953 1.40597C7.20114 1.41654 7.21085 1.42538 7.21952 1.42919C7.26787 1.45346 7.54656 1.53856 7.65488 1.44756C7.76425 1.35657 7.83687 1.3382 7.88523 1.25986C7.93358 1.18153 7.98194 1.10319 8.0062 0.988104C8.02648 0.89226 7.99649 0.808201 8.03722 0.741474C8.13393 0.723103 8.25682 0.728823 8.37485 0.818948C8.62927 1.01237 8.5199 1.19331 8.67762 1.35103C8.68733 1.36073 8.69791 1.3694 8.70761 1.3772C8.72113 1.38777 8.73569 1.39661 8.7492 1.40337C8.76567 1.41117 8.78213 1.41793 8.7986 1.42278C8.84886 1.43734 8.8993 1.44011 8.94766 1.44895C8.95545 1.45086 8.96308 1.4519 8.97087 1.4538C8.97867 1.45571 8.98631 1.45762 8.9941 1.46056C9 1.46247 9.00675 1.46438 9.01247 1.46732C9.02113 1.47114 9.0298 1.47512 9.03864 1.47997C9.04349 1.48292 9.04921 1.48569 9.05406 1.48968C9.05597 1.49072 9.05701 1.49263 9.05892 1.49349C9.06672 1.49835 9.07347 1.50407 9.08023 1.51083C9.08405 1.51464 9.0889 1.51949 9.09289 1.52435C9.0967 1.5292 9.10052 1.53301 9.10346 1.53786C9.11508 1.55329 9.12669 1.57166 9.13639 1.59298C9.24576 1.82227 9.11316 1.97999 9.22149 2.05244C9.32981 2.12506 9.56015 2.13754 9.60851 2.05244C9.65686 1.96734 9.89101 1.95278 9.86484 2.11137C9.83867 2.26995 9.74196 2.30583 9.70521 2.43928C9.66847 2.57273 9.79032 2.74102 9.79032 2.74102C9.79032 2.74102 9.85028 2.69267 9.9229 2.81451C9.99552 2.93444 9.91042 3.11642 9.9229 3.22475C9.93555 3.33411 10.0806 3.60015 10.1163 3.62424C10.1522 3.64833 10.3708 3.63672 10.4191 3.62424C10.4664 3.61263 10.7084 3.5894 10.7084 3.75769Z" stroke="#510A32" stroke-width="0.378007" mask="url(#path-1-inside-1_1571_9893)"/>
<defs>
<linearGradient id="paint0_linear_1571_9893" x1="5.82847" y1="-12.118" x2="5.82847" y2="95.3184" gradientUnits="userSpaceOnUse">
<stop stop-color="#FF984F"/>
<stop offset="0.2978" stop-color="#F37A56"/>
<stop offset="0.9428" stop-color="#D42F67"/>
<stop offset="1" stop-color="#D12869"/>
</linearGradient>
</defs>
</svg>
