<svg width="60" height="90" viewBox="0 0 60 90" fill="none" xmlns="http://www.w3.org/2000/svg">
<g clip-path="url(#clip0_1734_59355)">
<path d="M57.881 80.4916C56.8072 70.8134 55.5926 61.1449 54.446 51.4667C54.169 49.12 53.9018 46.7685 53.6054 44.4218C53.3771 42.5756 53.0904 40.7051 52.386 38.9706C51.2442 36.172 48.6206 33.7136 45.3994 34.0051C41.6292 34.3501 40.4582 38.9463 39.2096 41.8225C37.2953 46.2146 35.3859 50.6019 33.4765 54.994C32.5826 57.0443 31.6934 59.0946 30.7995 61.1449C25.9652 52.0352 21.1261 42.9254 16.2919 33.8157C16.287 33.8108 16.2773 33.8059 16.2724 33.7962C16.7146 33.6359 17.1664 33.4901 17.6377 33.3832C17.9438 33.3152 17.8126 32.8439 17.5114 32.912C6.29302 35.487 5.61282 49.6108 4.46621 58.7497C3.67912 64.9929 2.8969 71.241 2.11468 77.4842C1.49278 82.435 -0.178561 88.6783 3.03293 93.0801C4.25728 94.7563 6.16183 95.9418 8.28987 95.7571C9.55309 95.6502 10.7434 95.111 11.5791 94.2218C7.13353 111.722 17.5988 128.756 17.7494 146.213C17.7835 150.012 17.2004 153.958 18.2596 157.669C19.2799 161.245 21.9618 163.393 25.2316 164.909C28.5645 166.449 32.6506 168.426 36.4062 167.445C39.8704 166.536 41.736 163.15 42.3336 159.851C42.7175 157.723 42.6883 155.551 42.7418 153.399C42.8001 151.14 42.9118 148.88 43.0867 146.631C43.4462 141.918 44.0681 137.225 44.9378 132.58C46.6383 123.495 49.2911 114.584 52.8621 106.057C54.5286 102.078 56.4428 98.1621 57.4971 93.9595C58.6049 89.5236 58.3814 85.0003 57.881 80.4916ZM16.0927 79.8435C15.344 80.9444 13.8694 79.9664 13.9501 78.8805C14.3383 73.662 14.1162 68.4444 13.9408 63.2219C13.936 63.084 13.9569 62.9596 13.9875 62.8425C13.8704 61.71 15.4256 60.7834 16.1277 61.9393C19.052 66.7556 19.3416 75.0637 16.0927 79.8435ZM43.8898 73.4958C42.9516 71.1686 43.0163 68.7437 43.027 66.2789C43.0338 64.73 45.4494 64.4638 45.4431 66.0248C45.4334 68.2539 45.3027 70.5005 46.1524 72.6086C46.7384 74.0638 44.4733 74.9432 43.8898 73.4958Z" fill="#C6EA6E"/>
<path d="M43.2615 68.1123C43.0671 67.9986 42.8723 67.8849 42.6779 67.7712C42.8174 67.2129 42.9564 66.6552 43.0958 66.0969C43.3091 65.2423 42.4656 64.756 41.8238 64.96C41.7087 64.8342 41.5629 64.7336 41.3802 64.688C39.704 64.2672 38.2057 64.4834 36.7355 65.3915C36.7117 65.4061 36.6952 65.4289 36.6733 65.4459C36.2569 65.2773 35.8405 65.1092 35.4246 64.9406C34.7561 64.67 34.0618 65.4663 34.2367 66.1013C34.1298 65.9803 34.0234 65.8594 33.9166 65.7384C33.3068 65.0465 32.424 65.6033 32.2914 66.3306C32.2632 66.3506 32.2345 66.3676 32.2078 66.3909C31.9391 66.6265 31.6646 66.8364 31.3857 67.0332C31.5466 66.851 31.7079 66.6683 31.8687 66.4861C32.5707 65.6908 31.7001 64.3678 30.7051 64.9498C29.6945 65.5411 28.6606 66.0343 27.6053 66.4472C27.2973 66.4278 26.9888 66.4084 26.6807 66.3894C26.5651 66.3345 26.4344 66.2986 26.2872 66.2913C24.6508 66.2106 23.014 66.1305 21.3777 66.0498C21.0128 65.4469 20.0989 65.2098 19.768 66.0148C19.1466 67.5258 18.6365 69.6616 20.5449 70.508C21.6113 70.9807 22.7652 70.4691 23.7821 70.1373C24.8802 69.7792 25.9738 69.4085 27.0675 69.0368C26.6628 69.7559 27.2531 70.6406 28.1388 70.4701C29.1095 70.283 30.0045 69.9857 30.8469 69.5849C30.5132 71.4175 30.7206 73.3614 30.8741 75.2669C31.2215 79.5701 31.5689 83.8733 31.9163 88.1766C32.0159 89.4096 33.8422 89.4339 33.8602 88.1664C33.8864 86.3065 33.9132 84.4467 33.9394 82.5868C34.1308 84.2475 34.3222 85.9076 34.5137 87.5683C34.6172 88.4642 35.8148 88.9602 36.3269 88.0488C37.8845 85.2784 36.667 81.7157 36.1957 78.7903C35.7011 75.7188 35.2065 72.6472 34.7119 69.5757C35.1069 70.0241 35.5019 70.472 35.8969 70.9205C36.5338 71.643 37.8223 70.8977 37.5279 69.9867C37.2656 69.1753 37.0032 68.3639 36.7408 67.5526C37.9749 68.052 39.209 68.551 40.4435 69.0504C40.5387 69.7355 41.3919 69.9711 41.9346 69.6539C42.1338 69.7345 42.333 69.8152 42.5322 69.8953C43.5656 70.3127 44.1802 68.6491 43.2615 68.1123Z" fill="#7777C6"/>
<path d="M34.1592 4.03452C33.2414 3.76001 32.3226 3.48793 31.4058 3.20857C31.1979 3.14541 30.9977 3.05698 30.7941 2.98022C30.9001 2.7645 30.9627 2.50845 31.1197 2.34083C31.7231 1.69659 32.5146 1.59893 33.3799 1.57464C32.8585 1.38613 32.3372 1.1981 31.6629 0.954206C35.0808 0.447461 39.592 4.46839 40.0137 8.25659C39.5094 7.37671 39.0328 6.54492 38.5566 5.71363C39.0415 8.39068 39.3214 11.0488 38.7174 13.8259C39.3418 13.6126 39.748 13.8099 39.9515 14.3915C40.3621 13.7273 40.4699 13.5028 40.3208 11.5983C40.2493 10.6844 39.8203 9.79869 39.5118 8.76042C39.8714 9.28465 40.294 9.69909 40.4733 10.201C40.981 11.6216 40.9859 13.0646 40.5146 14.5265C40.2863 15.2349 40.0084 16.0628 40.1701 16.7362C40.6842 18.8739 39.4142 20.3422 38.4565 21.9339C38.2564 22.2667 38.1577 22.5023 38.3142 22.857C38.7398 23.8209 39.146 24.7936 39.5696 25.7857C39.4652 25.8659 39.3073 25.9864 39.1226 26.1277C39.2422 26.2531 39.3534 26.3702 39.4652 26.4873C39.4249 26.5407 39.385 26.5942 39.3447 26.6476C38.889 26.3269 38.3934 26.049 37.9896 25.673C37.5975 25.3076 37.3002 24.8407 36.9023 24.3451C36.8105 24.6906 36.7429 24.9452 36.6754 25.2002C36.6322 25.1998 36.5889 25.1993 36.5452 25.1988C36.5452 24.6221 36.5452 24.0454 36.5452 23.3171C35.9617 23.8151 35.6114 24.1251 35.7513 24.8772C35.9942 26.1822 36.0258 27.5255 36.1706 28.85C36.2085 29.1974 36.2624 29.4597 36.759 29.6298C37.3002 29.8149 37.7258 30.3824 38.1607 30.823C39.3253 32.0032 40.6992 32.8626 42.2311 33.5759C42.3604 33.2513 42.4843 32.9409 42.6082 32.6304C42.6762 32.628 42.7442 32.6251 42.8122 32.6226C42.7714 33.3796 42.6125 34.1929 43.66 34.481C42.8006 34.5092 42.5557 34.9756 42.4026 35.6626C41.2866 40.6659 39.6639 45.4861 37.1098 49.9589C35.3656 53.0134 33.6165 56.0651 31.8718 59.1191C31.6177 59.5637 31.3752 60.0146 31.1401 60.4397C30.4953 59.5438 29.9016 58.7232 29.3128 57.8992C24.9061 51.7342 20.7229 45.4336 17.8228 38.3868C17.2053 36.886 16.8215 35.2885 16.3337 33.7343C16.2661 33.519 16.219 33.2975 16.1515 33.0371C15.6272 33.0895 15.1297 33.1391 14.5642 33.1955C14.4777 34.0656 13.8155 34.4203 13.11 34.7458C12.0242 35.2462 10.8902 35.6738 9.8796 36.2991C8.71258 37.0216 7.86768 38.1142 7.32936 39.3813C7.05631 40.0241 6.80658 40.7466 6.81679 41.4287C6.89209 46.2785 6.19101 51.0676 5.75957 55.8766C5.23145 61.7603 3.9007 67.4953 2.45722 73.207C1.57297 76.7056 1.26445 80.2732 1.13472 83.8651C1.11237 84.4773 1.04144 85.0875 0.900544 85.7021C0.872365 85.4908 0.84418 85.2794 0.816 85.0686C0.556069 87.1786 0.65227 89.2377 1.49911 91.2229C2.21963 92.9117 3.14469 94.4645 4.41131 95.7943C4.65813 96.0537 5.15953 96.3938 5.36845 96.3015C5.84798 96.0892 6.43199 95.7564 6.19295 95.1739C6.7133 94.844 7.16903 94.5554 7.61261 94.2745C7.61116 94.2682 7.63982 94.326 7.6267 94.3377C6.90715 94.9854 6.88868 95.72 7.02084 96.6684C7.27056 98.4602 7.18263 100.296 7.36482 102.101C7.61795 104.612 7.98623 107.111 8.31904 109.614C8.35645 109.894 8.48423 110.162 8.61347 110.574C7.77294 109.885 7.52661 109.05 7.35996 108.195C6.81629 105.407 6.65742 102.587 6.65305 99.7501C6.65111 98.5175 6.52527 97.2844 6.45579 96.0484C6.28817 96.0625 6.23327 96.0503 6.20217 96.0717C5.87276 96.303 5.47145 96.7947 5.23484 96.7247C4.6421 96.5503 3.95024 96.2461 3.60917 95.771C2.65009 94.4349 1.75079 93.0351 1.00743 91.5693C0.079938 89.7406 -0.229551 87.6864 0.17808 85.7158C0.696 83.2107 0.597853 80.6716 0.962729 78.1777C1.39805 75.2033 2.01606 72.2503 2.67099 69.3143C4.09114 62.9491 5.08909 56.5252 5.56474 50.0206C5.79455 46.879 6.00006 43.736 6.26971 40.5979C6.34065 39.7739 6.60883 38.9669 6.78666 38.1521C6.85128 38.157 6.91541 38.1618 6.98003 38.1667C7.03007 38.3372 7.0806 38.5083 7.13404 38.69C7.63641 38.0433 8.1247 37.4151 8.63387 36.7602C8.39143 36.7485 8.15823 36.7368 7.92502 36.7257C7.9153 36.6892 7.9051 36.6528 7.89538 36.6164C8.16114 36.5012 8.43029 36.3938 8.69168 36.2695C10.2892 35.5076 11.8871 34.7458 13.4793 33.9728C13.661 33.8844 13.8908 33.7624 13.9603 33.5977C14.3291 32.7252 15.121 32.609 15.8882 32.5211C16.5926 32.4404 17.3117 32.4623 18.0235 32.4842C18.2596 32.4915 18.6332 32.5774 18.7017 32.7339C19.0064 33.4296 19.5369 33.1814 19.9018 32.9812C21.0027 32.3778 22.076 31.7165 23.1094 31.0043C23.3897 30.8109 23.5744 30.377 23.6589 30.0199C23.9028 28.9933 24.0991 27.9531 24.2648 26.9105C24.4309 25.861 24.3887 24.8563 23.534 24.0366C23.2338 23.749 23.0511 23.3394 22.6935 22.8045C22.7431 24.3417 22.4277 25.5442 21.2981 26.4236C21.4662 26.0126 21.6251 25.5977 21.8049 25.1915C21.9949 24.762 21.8996 24.4428 21.5994 24.0677C21.3054 23.7004 21.1704 23.2063 20.9575 22.7724C20.8482 22.5499 20.7209 22.3366 20.6019 22.119C20.5281 22.1452 20.4537 22.1714 20.3799 22.1977C20.5961 22.8827 20.8123 23.5683 21.0212 24.2295C20.3954 24.0264 20.1933 23.4162 20.0811 22.788C19.9193 21.8848 19.9037 20.9485 19.6768 20.0648C19.2376 18.3546 18.6818 16.675 18.2023 14.975C18.0526 14.4449 17.9924 13.8901 17.8695 13.2293C18.2324 12.9193 18.2985 12.3965 18.212 11.7542C18.1425 11.2383 18.2339 10.6659 18.3961 10.1645C18.5482 9.69471 18.8873 9.28562 19.1434 8.84933C19.8386 7.66433 20.5305 6.47788 21.2296 5.29531C21.405 4.99894 21.5712 4.68751 21.7956 4.43049C23.1143 2.91997 24.5033 1.47941 26.2339 0.431427C26.6265 0.193359 27.1026 0.0932742 27.5681 -0.00195312C25.1281 1.15584 23.4714 3.06864 22.1591 5.34924C21.9157 5.77242 21.3773 6.06199 21.2325 6.49828C20.8682 7.59728 20.5417 8.73224 20.4085 9.87691C20.3026 10.7874 20.5042 11.7338 20.5747 12.7415C22.5259 12.4466 24.2424 11.901 25.8311 10.9079C26.7669 10.3234 27.6759 9.56888 27.9091 8.60494C28.1681 7.53315 29.1155 7.30577 29.5892 6.56679C29.8608 6.14361 31.1503 6.10523 31.5807 6.45796C31.331 6.50509 31.1245 6.54444 30.8933 6.58817C31.1882 8.13269 30.6192 9.49503 30.1067 10.8681C30.1703 10.9074 30.234 10.9468 30.2976 10.9866C30.9224 10.0436 31.5472 9.10051 32.243 8.0501C32.0967 8.55684 32.069 9.05339 31.828 9.4032C31.2975 10.1747 30.6814 10.8919 30.0595 11.5949C29.1947 12.5724 28.2925 13.5164 27.418 14.4624C27.5797 14.7262 27.691 14.9079 27.8232 15.1227C27.4384 15.1227 27.1138 15.1227 26.6697 15.1227C27.0691 15.5376 27.3426 15.8218 27.7517 16.2469C26.9078 16.3135 26.0274 15.6532 25.9026 16.7075C24.977 16.9645 24.0811 17.1633 23.2314 17.4849C23.0239 17.5636 22.8398 18.0577 22.8689 18.3371C22.9442 19.0634 23.1424 19.7767 23.2955 20.4948C23.3504 20.7518 23.4174 21.0064 23.3586 21.3178C23.1735 21.0982 22.9884 20.8786 22.694 20.5292C23.0083 22.9629 24.823 24.298 25.9764 26.0986C25.6305 25.9266 25.2846 25.7551 24.7394 25.4845C25.5226 26.3707 25.4736 27.252 25.3215 28.284C25.8278 27.6329 26.249 27.0839 26.679 26.5407C26.9195 26.2366 27.1031 26.0913 27.5749 26.3439C28.2021 26.6792 28.9567 26.7759 29.7214 26.9935C29.7214 25.9888 29.7214 25.0987 29.7214 24.2086C29.667 24.2334 29.6126 24.2582 29.5581 24.2825C29.3424 23.8826 29.1267 23.4828 28.8823 23.0304C29.2588 22.8973 29.871 23.0907 29.6747 22.3274C29.2477 22.5849 28.8843 22.8618 28.4752 23.0275C28.2633 23.1135 27.9718 23.0022 27.7163 22.9799C27.8406 22.7778 27.9568 22.5703 28.0918 22.376C28.2075 22.2088 28.326 22.0354 28.4766 21.9028C28.7191 21.6895 28.9897 21.5078 29.2477 21.3124C29.3725 21.2177 29.4964 21.122 29.6208 21.0273C29.5018 20.917 29.3905 20.7955 29.2598 20.7003C29.1899 20.6493 29.0684 20.6653 29.0023 20.6114C28.823 20.4651 28.6608 20.298 28.4917 20.1391C28.7079 20.1022 28.9319 20.0108 29.1393 20.039C29.7865 20.126 29.7948 19.7101 29.803 19.2689C29.8404 17.293 29.8768 15.317 29.9206 13.3415C29.9298 12.9329 29.9701 12.5248 30.1285 12.1182C30.1285 14.7 30.1285 17.2818 30.1285 19.9103C30.4127 19.9103 30.6217 19.8767 30.8131 19.921C30.9666 19.9564 31.0993 20.0852 31.2406 20.1726C31.1095 20.2654 30.9899 20.3986 30.8442 20.4408C30.6528 20.4962 30.4404 20.4792 30.1854 20.4972C30.1669 20.7421 30.1504 20.9617 30.1402 21.0958C30.9176 21.4271 31.6381 21.7347 32.3236 22.0267C31.8703 23.2899 30.9282 22.5412 30.1659 22.513C30.1664 22.5956 30.1669 22.6787 30.1669 22.7613C30.5425 22.8303 30.92 22.8905 31.2922 22.9741C31.4097 23.0003 31.5924 23.0795 31.6031 23.1543C31.6177 23.2583 31.5195 23.4031 31.4296 23.4896C31.3339 23.5819 31.1989 23.6615 31.0696 23.6854C30.1348 23.8598 30.008 24.5045 30.0683 25.3032C30.0974 25.69 30.0076 26.085 30.0246 26.4742C30.0348 26.7132 30.1451 26.9474 30.2451 27.3113C29.8118 27.3113 29.2914 27.3633 28.7871 27.2948C28.3872 27.2403 28.1734 27.251 27.9043 27.6446C27.2372 28.6211 26.4598 29.5224 25.7267 30.4543C25.6465 30.3945 25.5664 30.3352 25.4862 30.2755C26.2349 29.2353 26.9841 28.1946 27.7726 27.0985C27.5788 26.9824 27.3733 26.8594 27.0779 26.6821C26.2879 27.7408 25.443 28.7407 24.7453 29.8348C23.1381 32.3554 20.9318 33.7493 17.9006 33.7284C17.0032 33.7221 16.8929 33.8562 17.1339 34.7259C17.8539 37.3267 19.0297 39.7346 20.3123 42.1016C19.4169 39.649 18.521 37.1965 17.6256 34.7439C17.713 34.7079 17.8005 34.672 17.8879 34.636C18.3019 35.5173 18.7474 36.3861 19.1239 37.2829C20.3682 40.2491 21.4857 43.2735 22.8485 46.1833C23.946 48.5261 25.3293 50.7353 26.5852 53.0032C26.6683 52.9954 26.7509 52.9872 26.8335 52.9794C27.3621 52.0922 27.8907 51.2046 28.4985 50.1843C28.5427 50.898 28.4198 51.5554 28.6506 52.0461C29.048 52.8905 28.809 53.6528 28.6593 54.4472C28.6102 54.7081 28.4674 54.9515 28.362 55.2173C29.2632 56.5504 30.1747 57.8982 31.1483 59.3378C31.52 58.6833 31.865 58.0755 32.2094 57.4682C32.5044 56.9479 32.7682 56.4071 33.1005 55.912C33.6859 55.0404 34.0601 54.1489 33.6996 53.0776C33.6466 52.9201 33.7384 52.7137 33.7632 52.53C33.8477 52.5164 33.9323 52.5028 34.0163 52.4892C34.1286 52.8482 34.2403 53.2078 34.3778 53.6479C34.527 53.3836 34.664 53.1417 34.8049 52.8924C34.3331 52.4756 33.8905 52.085 33.2866 51.552C33.2866 52.4834 33.2866 53.2884 33.2866 54.094C33.1739 54.0954 33.0607 54.0969 32.9479 54.0983C32.9207 53.507 32.8935 52.9163 32.8624 52.238C32.7463 52.5378 32.6559 52.771 32.5656 53.0047C32.5111 52.9989 32.4567 52.993 32.4023 52.9867C32.4261 52.5907 32.4096 52.187 32.4815 51.7998C32.6603 50.8334 32.6589 49.8938 32.3149 48.9541C32.2357 48.7379 32.3489 48.4513 32.4645 48.2142C32.9659 49.8855 33.5523 51.4383 34.9875 52.683C36.7692 49.2107 38.3754 45.7329 39.4982 41.8437C38.3662 43.0578 37.376 44.1199 36.3858 45.1824C36.329 45.1416 36.2722 45.1003 36.2153 45.0595C36.3377 44.8676 36.4393 44.6577 36.586 44.4862C37.3483 43.5952 38.113 42.7056 38.8967 41.8339C39.1771 41.522 39.6634 41.3189 39.8004 40.9672C40.5822 38.9596 41.2871 36.922 42.0149 34.893C42.0271 34.86 41.9926 34.8099 41.9819 34.7755C40.14 34.6909 38.4886 35.1875 36.9854 36.2709C35.9806 36.9948 34.9016 37.6158 33.6762 38.3975C33.8196 38.0661 33.8803 37.9252 33.9998 37.6478C33.6787 37.8519 33.4615 37.9899 33.2273 38.1385C32.7861 37.9009 32.9416 37.6075 33.2822 37.4559C35.3126 36.5522 37.343 35.6456 39.4054 34.8197C39.9831 34.5884 40.6701 34.6341 41.3041 34.5374C41.5893 34.4937 41.8687 34.4125 42.1903 34.172C42.0169 34.0622 41.8391 33.9587 41.6705 33.8421C40.4272 32.9851 39.1853 32.1256 37.9435 31.2666C37.8327 31.1899 37.7321 31.0572 37.6136 31.0392C36.2571 30.8337 35.7853 29.8669 35.5565 28.6838C35.5346 28.5716 35.5191 28.4589 35.4681 28.1518C34.8554 28.9666 34.3287 29.6667 33.8021 30.3673C33.7477 30.327 33.6927 30.2866 33.6383 30.2468C33.8949 29.416 34.3477 28.7135 35.006 28.1125C35.2047 27.9312 35.3612 27.6062 35.3758 27.3385C35.4219 26.4712 35.3927 25.6001 35.3927 24.5152C34.9453 25.0506 34.4419 25.1662 34.3219 25.8615C34.216 26.4756 33.7423 27.0538 33.3468 27.5853C31.7688 29.708 30.1582 31.8069 28.5578 33.9131C28.5048 33.9825 28.4285 34.0345 28.3158 34.0588C29.7792 31.1714 32.0899 28.8612 33.806 26.0913C33.1083 26.4435 32.4669 26.7613 31.8329 27.0941C31.7197 27.1534 31.6245 27.2642 31.5458 27.3701C30.5225 28.7499 29.5217 30.1467 28.4756 31.5091C27.9602 32.1805 27.3626 32.7893 26.6838 33.3524C26.9656 32.9132 27.2158 32.4497 27.5346 32.0391C28.6491 30.6039 29.7952 29.193 30.9069 27.7558C31.0755 27.5377 31.1274 27.2292 31.3091 26.77C33.0208 26.1034 34.4011 24.6678 35.7246 23.1553C35.9991 22.8414 36.021 22.5795 35.9277 22.1719C35.7605 21.4441 35.6779 20.6857 35.659 19.938C35.6206 18.4012 35.6473 16.8625 35.6473 15.3068C34.8049 15.215 34.1451 14.6431 33.4289 15.1275C33.4367 15.197 33.4445 15.2665 33.4523 15.3355C33.6325 15.2752 33.8093 15.1985 33.994 15.1596C34.1538 15.1261 34.3224 15.1358 34.4871 15.1261C34.4614 15.3136 34.5041 15.5925 34.3977 15.6717C34.0081 15.9617 33.5689 16.1852 33.1039 16.4597C32.9426 16.0681 32.86 15.8675 32.7366 15.5667C32.4577 15.799 32.2289 15.9889 32.0005 16.1794C31.9398 16.1639 31.8786 16.1483 31.8178 16.1328C31.9053 15.8636 31.9267 15.5429 32.0909 15.334C32.8527 14.3638 33.8536 14.2287 35.5293 14.8589C35.4588 14.3575 35.3947 13.8983 35.3422 13.5242C34.8316 13.6432 34.3856 13.7637 33.9328 13.8497C32.9902 14.0295 32.0904 14.2685 31.5516 15.1785C31.4982 15.2689 31.33 15.2913 31.2154 15.3452C31.1668 15.2092 31.0492 15.0508 31.0842 14.9414C31.1658 14.6854 31.2649 14.3895 31.4554 14.2209C32.4961 13.3007 33.6004 12.5151 35.1848 13.0165C35.1712 10.7932 34.0926 9.08108 32.773 7.46805C32.8318 7.41898 32.8906 7.36942 32.9494 7.32035C33.2147 7.56813 33.5154 7.78774 33.7399 8.06808C35.025 9.67674 35.7275 11.538 35.9233 13.5679C36.0812 15.2072 36.0749 16.862 36.2241 18.5028C36.3081 19.4278 36.5598 20.3378 36.7361 21.2546C36.8294 21.2449 36.9232 21.2352 37.0165 21.225C36.9897 20.847 37.0155 20.4564 36.928 20.093C36.4752 18.2112 36.1701 16.3203 36.4519 14.372C36.605 15.6367 36.7575 16.9009 36.9106 18.1656C36.9577 18.1607 37.0048 18.1563 37.0519 18.1515C36.9917 17.1448 36.9621 16.1347 36.8629 15.1319C36.7648 14.1374 36.5962 13.1496 36.4733 12.262C37.6442 14.4182 37.5524 16.9237 37.9231 19.3914C37.9921 18.8992 38.1014 18.4085 38.1218 17.9139C38.1616 16.931 38.1155 15.9438 38.1733 14.9623C38.2272 14.0489 38.4191 13.1433 38.4619 12.2299C38.526 10.8476 38.4046 9.48968 37.9726 8.14581C37.3561 6.22766 36.1827 4.86533 34.3477 4.0593C34.2835 4.05007 34.2214 4.04229 34.1592 4.03452ZM38.3895 7.83147C38.439 7.67551 38.5547 7.50643 38.5275 7.36504C38.3769 6.57699 38.2501 5.77679 38.0028 5.01691C37.6797 4.0248 37.0621 3.15221 36.0909 2.76936C35.1012 2.37922 34.0236 2.16738 32.9645 2.01191C32.2002 1.89968 31.4831 2.18196 31.0429 2.75818C32.4077 3.24938 33.8001 3.63855 35.0906 4.24538C36.4422 4.88136 37.4882 5.93129 38.1543 7.3082C38.1033 7.43064 37.9814 7.57542 38.012 7.67113C38.2044 8.26825 38.4308 8.85419 38.646 9.44401C38.6922 9.43332 38.7379 9.42215 38.784 9.41146C38.6533 8.88528 38.5216 8.35813 38.3895 7.83147ZM22.0444 16.8125C21.7558 16.9777 21.5712 17.122 21.3618 17.1963C20.7851 17.4008 20.7161 17.7473 20.9935 18.2496C21.2257 18.6709 21.4415 19.1028 21.6329 19.5439C21.6829 19.6591 21.6144 19.8262 21.5999 19.9691C21.4721 19.9501 21.3059 19.9754 21.2248 19.904C21.0197 19.7247 20.8167 19.523 20.6782 19.2913C20.2934 18.6471 19.9416 17.9834 19.5768 17.3275C20.0845 19.4448 20.4163 21.6321 21.9744 23.3729C22.0648 22.6116 22.0502 21.8595 22.0692 21.1089C22.0872 20.3767 22.2592 19.6256 22.1426 18.9191C22.0308 18.2457 22.2135 17.5782 22.0444 16.8125ZM20.2769 13.995C20.1812 14.0587 20.0859 14.1223 19.9902 14.1859C20.1909 15.13 20.391 16.0735 20.5917 17.0175C20.6787 17.033 20.7652 17.0481 20.8521 17.0637C22.2893 15.7426 23.7264 14.4211 25.2729 12.999C23.7366 13.4406 22.4127 13.8211 21.0027 14.2263C21.2019 14.5445 21.4298 14.9094 21.6582 15.2743C21.6305 15.2932 21.6028 15.3126 21.5751 15.3316C21.1427 14.8861 20.7098 14.4405 20.2769 13.995ZM22.6231 16.5103C22.6634 16.5477 22.7032 16.5856 22.7436 16.623C22.9923 16.4267 23.2221 16.1974 23.4942 16.0414C23.9101 15.8029 24.429 15.6974 24.773 15.3889C25.6582 14.595 26.5381 13.7759 27.2941 12.8625C27.9791 12.0346 28.498 11.0687 29.0903 10.1636C27.9879 11.2388 26.9792 12.3552 25.9142 13.4149C24.8463 14.476 23.7225 15.4807 22.6231 16.5103ZM20.7953 13.5869C22.5725 13.9372 25.4245 12.5593 26.06 11.2494C24.4134 11.8344 22.591 12.4821 20.7107 13.1501C20.7229 13.2128 20.7603 13.4071 20.7953 13.5869ZM18.5453 12.8843C19.3149 12.9961 19.7672 12.8732 19.7021 12.0404C19.6778 11.7304 19.8197 11.4112 19.859 11.0925C19.9776 10.1359 20.0825 9.17825 20.1928 8.22063C20.1345 8.20266 20.0762 8.18517 20.0179 8.16719C19.4898 9.1044 18.9617 10.0421 18.434 10.9793C18.4948 11.0143 18.5555 11.0498 18.6162 11.0847C18.7411 10.9103 18.866 10.7359 19.1069 10.3982C18.8932 11.3437 18.7246 12.0909 18.5453 12.8843ZM38.6975 18.8093C39.4783 17.6695 39.3214 16.159 39.7776 14.8258C39.8033 14.7505 39.7781 14.6232 39.7266 14.5625C39.5497 14.3555 39.3505 14.1675 39.1601 13.9722C39.0061 14.2132 38.7257 14.4507 38.7184 14.6961C38.6752 16.09 38.6975 17.4854 38.6975 18.8093ZM18.4403 13.9765C18.6463 14.8584 18.8509 15.7353 19.0554 16.6128C19.1167 16.604 19.1774 16.5958 19.2386 16.587C19.2619 16.3869 19.2852 16.1862 19.3168 15.9122C19.6151 16.4704 19.8605 16.9296 20.1063 17.3892C20.1676 17.3683 20.2288 17.3479 20.29 17.327C20.2754 17.1642 20.2774 16.9981 20.2433 16.8392C20.1141 16.2348 19.8921 15.6377 19.8571 15.0289C19.809 14.2049 19.5029 13.7948 18.4403 13.9765ZM30.6061 6.73732C30.5017 6.94818 29.8385 6.61683 30.1747 7.25184C30.1917 7.28391 30.0479 7.38642 30.0017 7.46902C29.8016 7.82661 29.4765 8.17545 29.4396 8.5515C29.324 9.72484 29.1835 10.871 28.4742 11.8641C28.4373 11.9156 28.4378 11.9938 28.4203 12.0594C29.751 10.5328 30.369 8.72495 30.6061 6.73732ZM28.0515 51.9834C26.8272 53.4211 26.8272 53.4667 28.0515 54.6765C28.0515 53.7947 28.0515 52.8623 28.0515 51.9834ZM28.9673 9.06359C28.8648 8.9912 28.7623 8.9188 28.6603 8.84641C27.9849 9.81423 27.3091 10.7825 26.6338 11.7504C26.7091 11.8043 26.7844 11.8582 26.8592 11.9117C27.5622 10.9628 28.2648 10.0129 28.9673 9.06359ZM38.1247 20.1036C38.0183 20.5608 37.8988 21.0729 37.7793 21.585C37.8623 21.6093 37.9459 21.6341 38.029 21.6584C38.2986 21.1419 38.5688 20.6254 38.8413 20.1036C38.596 20.1036 38.3885 20.1036 38.1247 20.1036ZM19.5034 13.8026C19.5816 13.6913 19.6598 13.5806 19.7381 13.4693C19.57 13.3231 19.3951 13.0515 19.2357 13.0607C18.9971 13.0743 18.7702 13.2857 18.5385 13.4125C18.8601 13.5422 19.1818 13.6724 19.5034 13.8026ZM18.5263 33.1172C17.9346 33.1172 17.3433 33.1172 16.7515 33.1172C16.7481 33.1989 16.7442 33.281 16.7408 33.3626C17.3219 33.6113 17.9278 33.3441 18.5263 33.1172Z" fill="black"/>
<path d="M15.3861 146.239C15.3472 145.923 15.2238 145.59 15.284 145.294C15.5634 143.921 15.9501 142.57 16.1955 141.192C16.8893 137.297 16.4661 133.495 15.1135 129.789C14.7039 128.666 14.2501 127.558 13.8581 126.43C13.3771 125.046 12.9442 123.644 12.4811 122.254C12.3004 121.711 12.0473 121.188 11.9078 120.636C11.6926 119.787 11.6018 118.905 11.3627 118.064C9.40861 111.177 9.6117 104.249 10.8667 97.2824C11.4035 94.3017 12.2319 91.4206 13.4154 88.6352C13.6914 87.9861 13.8935 87.3054 14.0101 86.5873C13.809 86.9998 13.6078 87.4118 13.4067 87.8243C13.3955 87.819 13.3848 87.8141 13.3737 87.8088C14.153 85.2498 14.9833 82.7053 15.6975 80.1289C16.5074 77.2069 17.2916 74.2734 17.9276 71.3106C18.2016 70.0328 18.0864 68.6695 18.1253 67.3446C18.1404 66.8262 18.1904 66.2772 18.0481 65.7942C17.896 65.2797 17.535 64.8269 17.1721 64.1807C17.0506 64.5694 17.0045 64.7176 16.8985 65.0567C16.3481 64.1069 15.8821 63.3033 15.4162 62.4997C15.3477 62.4841 15.2797 62.4681 15.2112 62.4525C15.0761 63.0686 14.856 63.6798 14.82 64.3012C14.6408 67.4165 14.9367 70.5017 15.5313 73.5601C15.7529 74.699 15.8384 75.7669 15.3049 76.9125C14.9464 77.6836 15.0693 78.6728 14.9396 79.559C14.8803 79.9632 14.7715 80.3723 14.6048 80.743C14.5329 80.9023 14.2565 80.9694 14.0733 81.0782C13.9669 80.8917 13.7968 80.7133 13.7711 80.5161C13.7395 80.2751 13.7944 80.0069 13.8722 79.7703C15.0669 76.1342 14.8409 72.4854 14.066 68.807C13.5486 66.3496 13.5136 63.845 14.1671 61.4191C14.426 60.4576 14.1972 59.7677 13.8508 58.9607C12.401 55.5811 10.9896 52.1845 9.56748 48.7928C9.48974 48.6077 9.4436 48.4089 9.51842 48.1514C9.61753 48.3458 9.71907 48.5387 9.81576 48.734C11.1902 51.5155 12.5647 54.2975 13.9353 57.0809C14.0257 57.2646 14.0864 57.4623 14.1603 57.6528C13.8707 57.2388 13.5821 56.8254 13.2935 56.4124C13.2673 56.427 13.2415 56.442 13.2153 56.4566C13.7852 57.6222 14.3546 58.7882 14.9245 59.9538C14.9789 59.928 15.0333 59.9023 15.0882 59.8765C14.7715 59.1278 14.4552 58.3791 14.1384 57.6304C14.119 57.301 14.1311 56.9658 14.0747 56.6427C13.6341 54.1104 12.9573 51.5957 12.7887 49.0464C12.5905 46.0496 12.8295 43.0242 12.8825 40.011C12.8834 39.9517 12.932 39.8939 13.1409 39.7607C13.2391 40.0153 13.4164 40.2685 13.4227 40.525C13.4606 42.1341 13.5389 43.7481 13.4553 45.3529C13.2998 48.3346 13.4514 51.2818 14.1058 54.1979C14.1243 54.281 14.1418 54.365 14.2531 54.4398C14.2531 53.8082 14.2531 53.1761 14.2531 52.5445C14.2778 52.544 14.3021 52.5431 14.3269 52.5426C14.462 53.97 14.5543 55.4033 14.7418 56.8239C15.1354 59.8071 16.608 62.3053 18.3308 64.6962C18.6243 65.1038 18.6578 65.6946 18.8293 66.1946C19.2962 67.555 19.0198 68.9615 19.1116 70.3447C19.1359 70.7082 19.337 71.0594 19.5581 71.4044C19.3103 70.644 19.8564 70.524 20.3199 70.3311C22.5267 69.4143 24.7315 68.4922 26.9358 67.5696C27.015 67.5365 27.0835 67.4782 27.1447 67.3801C24.9151 67.7513 22.7268 68.4417 20.387 68.0258C20.645 67.9577 20.8995 67.8708 21.1614 67.8246C23.0606 67.4889 24.9622 67.1682 26.86 66.8242C27.1039 66.78 27.3283 66.6318 27.5504 66.4035C24.7052 66.4798 21.9427 66.1013 19.1937 65.2394C19.6844 65.1816 20.2018 64.9936 20.6605 65.0888C22.9348 65.5601 25.2338 65.5095 27.531 65.5071C27.7297 65.5071 27.9609 65.3186 28.1193 65.1602C28.3443 64.9348 28.4939 64.635 28.714 64.4037C29.864 63.1954 31.1127 63.2673 32.1645 64.5888C32.2199 64.6583 32.2763 64.7273 32.3244 64.7871C33.7018 64.5053 34.4029 64.8458 35.2278 66.1815C36.097 65.821 36.115 65.8195 36.4255 66.8189C36.5955 67.366 36.6786 67.9616 37.5906 67.8693C37.5123 67.7007 37.4647 67.5579 37.385 67.4359C37.2607 67.2445 37.1144 67.0672 36.9779 66.884C37.2019 66.8 37.4263 66.7159 37.6717 66.6241C37.8587 65.6869 37.7611 65.5333 36.8219 65.2724C36.6864 65.235 36.5299 65.1529 36.4537 65.0426C36.0567 64.4693 35.0772 64.3634 34.5345 64.8536C34.1682 64.3755 34.2663 64.0141 34.8464 64.0194C35.5213 64.0257 36.2302 64.1176 36.8608 64.3474C38.347 64.8896 39.8459 64.7589 41.3564 64.6078C41.4735 64.5961 41.6392 64.5062 41.6829 64.4086C42.365 62.8791 43.1405 61.3788 43.6676 59.7964C44.1574 58.3262 44.3779 56.7666 44.7171 55.2464C44.6539 55.226 44.5903 55.206 44.5271 55.1856C44.2919 55.7526 44.0816 56.3318 43.8163 56.8842C43 58.5827 42.1717 60.2754 41.3258 61.9589C41.1635 62.2825 40.9303 62.5857 40.6728 62.8402C40.5154 62.9957 40.2487 63.0409 40.0159 63.0798C41.7942 60.4678 42.9092 57.5843 44.1156 54.7464C44.7433 53.2689 45.1159 51.7502 45.0737 50.1274C45.0489 49.1635 45.1339 48.1961 45.1854 47.2317C45.1961 47.0315 45.2763 46.8353 45.457 46.656C45.9463 49.6401 45.3623 52.5625 45.012 55.4912C44.6578 58.451 43.9251 61.303 42.2674 63.8571C42.3199 63.8882 42.3723 63.9188 42.4248 63.9499C42.657 63.6895 42.9087 63.4437 43.1191 63.1672C45.886 59.5296 47.4189 55.3873 48.0821 50.9009C48.3867 48.8389 48.6398 46.7697 48.9163 44.7038C48.9741 44.7101 49.0319 44.716 49.0897 44.7223C48.9814 45.9709 48.8731 47.2196 48.7652 48.4682C48.4402 52.2282 47.6813 55.8755 46.0119 59.2964C45.1009 61.1626 44.0092 62.9029 42.5084 64.4863C43.1103 64.4125 43.6069 64.3513 44.1165 64.2886C44.1272 64.0665 44.1355 63.8878 44.1471 63.6473C44.6335 63.8975 45.0552 64.1151 45.32 64.2517C45.32 64.7579 45.2874 65.1432 45.3258 65.5207C45.4813 67.0516 45.6985 68.5777 45.817 70.1115C45.9302 71.5788 45.9312 73.0543 46.0221 74.5236C46.0493 74.9691 46.1406 75.438 46.3213 75.8427C47.3548 78.1544 48.4081 80.4573 49.4857 82.7486C50.7169 85.3673 52.8906 86.9386 55.4753 88.0697C53.5883 83.0935 51.7134 78.1485 49.838 73.204C49.9249 73.17 50.0114 73.1365 50.0984 73.1025C51.8756 77.6428 53.6529 82.1826 55.4296 86.7229C55.5113 86.7107 55.5929 86.6986 55.6745 86.6859C55.556 85.4101 55.4724 84.1299 55.3121 82.8594C54.8641 79.3131 53.8258 75.9039 52.8537 72.4801C52.7876 72.2469 52.7438 72.0073 52.7905 71.7445C54.148 74.9506 54.9909 78.3001 55.7236 81.6948C56.4553 85.0826 56.1584 88.4909 56.1327 91.9006C56.0812 91.132 55.9966 90.3639 55.9908 89.5947C55.9869 89.0948 55.7999 88.763 55.3791 88.5332C54.7538 88.1911 54.128 87.85 53.5047 87.5046C51.5321 86.4114 50.0328 84.8591 49.0795 82.8152C48.3036 81.1511 47.5846 79.4603 46.8514 77.7764C46.6376 77.2856 46.3835 77.0753 45.9915 77.2332C45.5833 74.8875 43.7604 73.3225 42.7392 71.3048C42.6167 71.0623 42.1143 71.0123 41.7009 70.8359C41.6844 70.8107 41.6217 70.5925 41.492 70.5401C40.324 70.0659 39.1448 69.6203 37.8937 69.1379C37.8937 69.443 37.867 69.7083 37.8986 69.9663C37.9953 70.7529 37.6362 71.0794 36.9181 70.7465C36.4065 70.5095 35.963 70.1251 35.4912 69.804C35.3853 69.7321 35.2876 69.648 35.1457 69.5382C35.6267 71.4671 36.1121 73.3293 36.5542 75.2023C37.4832 79.1377 38.3908 83.078 39.3017 87.0178C39.3897 87.3977 39.4485 87.7854 39.499 88.1722C39.6316 89.1886 39.1035 89.7444 38.0934 89.5466C37.3321 89.398 36.5989 89.105 35.8536 88.8747C35.6831 88.8218 35.514 88.7625 35.2104 88.6619C35.6748 90.4469 34.4277 90.7899 33.2436 91.1976C32.2578 91.5372 32.0314 91.4357 31.5937 90.479C30.327 87.7116 29.985 84.7731 30.1278 81.7861C30.2649 78.9191 30.5661 76.0594 30.8129 73.1982C30.8343 72.9489 30.9849 72.7109 31.1054 72.3882C30.3334 72.3499 29.5866 72.3105 28.8398 72.2765C28.4492 72.2585 28.0576 72.2575 27.667 72.2371C26.2784 72.1638 25.951 71.7766 26.1531 70.3992C23.6466 70.8753 21.246 72.0953 18.4999 71.4496C18.4003 71.8431 18.2682 72.3197 18.1598 72.8017C17.9582 73.6986 17.7653 74.5974 17.5797 75.4977C17.5389 75.6959 17.4956 75.9136 17.534 76.106C17.9523 78.1816 17.4053 80.1177 16.6998 82.0324C15.3181 85.7842 13.7118 89.4713 12.6041 93.3023C10.8273 99.4469 10.1529 105.771 10.9337 112.154C11.2923 115.086 11.8806 118.013 12.6575 120.863C13.3984 123.581 14.4761 126.211 15.4852 128.85C16.986 132.776 17.6574 136.794 16.8674 140.958C16.5949 142.393 16.0527 143.778 15.6397 145.188C15.5367 145.538 15.4585 145.897 15.3691 146.252L15.3861 146.239ZM32.4167 74.3895C32.3997 74.4463 32.3735 74.5017 32.3671 74.5595C32.046 77.5291 31.7812 80.5059 31.3891 83.4662C31.0733 85.8512 30.9655 88.1756 32.0436 90.4226C32.2753 90.9061 32.5265 91.1174 33.0434 90.96C33.2854 90.8866 33.5337 90.8322 33.7713 90.7482C34.8887 90.3522 35.3896 89.6482 34.9213 88.5866C34.3888 87.3797 34.6225 86.1996 34.5967 85.001C34.5938 84.8761 34.6628 84.7498 34.6983 84.6245C34.741 84.6318 34.7833 84.6395 34.826 84.6468C34.826 85.6375 34.826 86.6281 34.826 87.6193C34.8809 87.6193 34.9354 87.6188 34.9903 87.6188C34.9903 87.1927 34.9903 86.7661 34.9903 86.34C35.1229 86.8239 35.1574 87.3054 35.2458 87.7772C35.2837 87.9778 35.3935 88.2747 35.5412 88.3267C36.4046 88.6294 37.2752 88.9486 38.1707 89.1113C38.9339 89.2503 39.1944 88.915 39.016 88.1542C37.5279 81.8026 36.029 75.4535 34.5185 69.1068C34.3975 68.5996 34.0443 68.2473 33.4219 68.0695C33.4642 68.3731 33.4982 68.5932 33.5249 68.8143C33.6343 69.7126 33.8169 70.61 33.8349 71.5103C33.8845 74.0154 33.8334 76.5229 33.8811 79.0279C33.9306 81.6462 34.039 84.263 34.141 86.8798C34.1706 87.6372 34.2673 88.3918 34.3334 89.1478C34.2445 89.1691 34.1556 89.19 34.0667 89.2114C33.9709 88.9869 33.8252 88.7693 33.7941 88.5366C33.7635 88.3072 33.8995 88.057 33.8757 87.8253C33.7494 86.5912 33.4972 85.3625 33.4715 84.1279C33.4146 81.3931 33.522 78.6548 33.4579 75.9204C33.4001 73.443 33.2004 70.9691 33.0731 68.4932C33.0498 68.0413 32.8758 67.8771 32.5056 68.0102C33.2752 74.2316 32.734 80.4592 33.2485 86.6412C32.5843 82.5853 32.732 78.475 32.4167 74.3895ZM44.6077 64.8264C43.843 64.7584 43.5 65.0567 43.3917 65.6796C43.3368 65.9944 43.2153 66.2976 43.1531 66.6114C43.002 67.3786 42.7372 68.1302 43.2916 68.8901C43.5845 69.2919 43.7133 69.8186 43.8896 70.2986C43.9737 70.5265 44.0879 70.8121 44.0145 71.0065C43.9616 71.1469 43.6224 71.179 43.3474 71.2834C44.0174 72.2201 44.6636 73.1229 45.4181 74.1776C45.2194 70.9234 45.3249 67.8441 44.6077 64.8264ZM31.8181 71.5186C31.8769 71.5244 31.9362 71.5307 31.995 71.5365C32.269 70.524 32.3302 69.5066 32.1009 68.4528C31.9984 67.9811 31.7817 67.8421 31.2604 67.9466C31.4508 68.6938 30.6584 69.5416 31.6146 70.1975C30.9786 70.3214 30.7488 70.1436 30.742 69.459C30.7371 68.9499 30.8061 68.4402 30.8421 67.9305C30.26 68.4893 29.8572 69.1184 29.4054 69.7102C29.1455 70.0513 28.8433 70.3846 28.4944 70.6261C28.0766 70.9151 27.8064 70.7402 27.7836 70.2432C27.7773 70.1086 27.7826 69.974 27.7826 69.7996C27.6043 69.8506 27.3745 69.8477 27.3211 69.9434C27.1058 70.3282 26.9159 70.7349 26.792 71.1556C26.7691 71.2324 27.0903 71.5127 27.2686 71.5297C28.5828 71.6566 29.9014 71.7406 31.188 71.8363C31.3337 71.3383 31.4523 70.9336 31.5708 70.5284C31.6534 70.5459 31.7355 70.5634 31.8181 70.5809C31.8181 70.8938 31.8181 71.2062 31.8181 71.5186ZM31.0131 65.9662C31.2983 65.7753 31.4926 65.6451 31.6869 65.5149C31.7312 65.6728 31.8317 65.8389 31.8104 65.9871C31.6845 66.8675 32.0212 67.2377 32.886 67.4189C33.558 67.5598 33.9437 67.16 34.4335 66.9C34.8902 66.6576 34.8625 66.3845 34.605 66.0192C33.9467 65.0854 33.0663 64.9629 32.08 65.3327C30.8445 63.6779 29.5288 63.7741 28.7534 65.5071C29.0697 65.665 29.3855 65.8224 29.7144 65.9862C29.5706 66.1781 29.4724 66.3083 29.3748 66.4385C29.9354 66.164 30.3091 65.4624 31.0131 65.9662ZM38.2533 65.2749C38.2882 65.7398 38.2751 66.0901 38.3563 66.4171C38.3971 66.5813 38.5963 66.8097 38.7454 66.8276C39.7691 66.9501 40.7982 67.0599 41.8277 67.0905C42.093 67.0983 42.487 66.8723 42.6109 66.6406C42.8373 66.2179 42.9068 65.7107 43.0316 65.2754C41.4196 65.2749 39.8712 65.2749 38.2533 65.2749ZM30.8576 85.2473C31.2725 80.9427 31.6874 76.638 32.1028 72.3329C31.9969 72.3236 31.891 72.3144 31.7856 72.3052C30.9431 76.5773 30.5029 80.8839 30.8576 85.2473ZM20.7965 70.8855C21.2236 70.8471 21.4796 70.8539 21.7211 70.7976C23.0169 70.4944 24.3127 70.1902 25.6011 69.8569C26.638 69.5892 26.8041 69.3536 26.927 68.1195C24.9243 69.0232 22.9513 69.9133 20.7965 70.8855ZM37.1266 70.3894C37.1931 70.3311 37.2597 70.2728 37.3262 70.2145C37.3209 70.1018 37.3015 69.9881 37.3122 69.8774C37.3753 69.2171 37.3374 68.6491 36.5537 68.3746C36.2379 68.2638 36.0067 67.913 35.6355 67.5807C35.911 67.5963 36.047 67.6036 36.2477 67.6147C36.1014 67.159 35.9732 66.7582 35.8405 66.3452C35.2468 66.5575 35.4717 66.9865 35.4062 67.3407C35.3381 67.7046 35.1015 68.0374 34.8863 68.4961C35.5796 69.0825 36.3531 69.736 37.1266 70.3894ZM38.4962 67.2489C38.4826 67.2999 38.4685 67.3504 38.4549 67.4014C39.8352 67.8533 41.216 68.3051 42.6352 68.7701C42.6109 68.3323 42.5881 67.9296 42.5628 67.4767C41.1849 67.4 39.8405 67.3247 38.4962 67.2489ZM42.8927 69.6582C42.9243 69.5557 42.9558 69.4537 42.9874 69.3512C41.3953 68.8109 39.8031 68.2706 38.1435 67.708C38.1435 67.9679 38.1017 68.1822 38.1493 68.205C39.6637 68.9134 41.2141 69.5086 42.8927 69.6582ZM28.9117 68.4781C28.9846 68.5466 29.058 68.6151 29.1309 68.6836C29.7022 68.1506 30.3037 67.6449 30.8246 67.0662C30.9572 66.919 30.8338 66.5415 30.8284 66.2694C30.5889 66.3695 30.258 66.402 30.1264 66.5813C29.6833 67.1857 29.3111 67.8416 28.9117 68.4781ZM15.1772 83.4419C16.1416 82.0635 17.0948 79.0853 16.9423 77.9877C16.3563 79.799 15.7942 81.5359 15.1772 83.4419ZM27.4965 69.201C28.182 69.0835 28.4827 68.6763 28.9871 67.1857C27.8254 67.59 27.7263 67.7241 27.4965 69.201ZM14.3711 63.1614C14.6534 62.5244 15.7179 61.9895 14.6894 61.1237C14.5791 61.8311 14.4751 62.4963 14.3711 63.1614Z" fill="black"/>
<path d="M27.1738 96.6654C28.18 97.3607 29.0264 97.9457 29.8728 98.5306C29.8227 98.6356 29.7722 98.741 29.7221 98.8459C29.4 98.7614 29.0327 98.7488 28.7631 98.5802C27.8103 97.9831 26.7954 97.436 25.9816 96.6785C24.7762 95.5572 23.3594 94.8313 21.9349 94.0875C21.1196 93.6619 20.2951 93.2518 19.4993 92.7917C19.2768 92.663 19.1432 92.3812 18.9688 92.1698C19.2612 92.1601 19.6101 92.0411 19.836 92.1587C20.8733 92.6994 21.8746 93.3096 22.893 93.8873C23.1072 94.0088 23.3667 94.3567 23.4687 93.6507C24.1883 94.8804 25.3344 95.2234 26.3761 95.6636C27.7408 96.2398 29.1649 96.6756 30.6389 97.0609C26.2255 94.0127 23.2686 89.6677 19.9784 85.6288C20.0235 85.5875 20.0692 85.5462 20.1144 85.5049C21.4184 86.977 22.7764 88.4059 24.0143 89.9315C26.1054 92.508 28.5702 94.6666 31.2195 96.6324C31.3915 96.7602 31.6534 96.767 31.8949 96.7607C32.4381 97.177 32.3773 97.7834 32.3701 98.4334C32.3409 101.123 32.3341 103.814 32.4152 106.502C32.4492 107.619 32.7825 108.724 32.8773 109.843C33.0498 111.88 33.2213 113.923 33.2553 115.966C33.299 118.584 33.2548 121.206 33.1474 123.822C33.1076 124.796 32.7689 125.756 32.5897 126.727C32.3977 127.764 32.2364 128.807 32.0528 129.845C32.0178 130.043 31.9406 130.233 31.8827 130.427C31.7846 130.412 31.6865 130.397 31.5888 130.381C31.668 129.446 31.6102 128.474 31.8502 127.582C32.851 123.861 32.9006 120.086 32.6771 116.283C32.5488 114.103 32.4599 111.921 32.3496 109.741C32.3419 109.584 32.303 109.429 32.1966 109.268C31.5397 113.187 31.6937 117.194 31.0563 121.112C30.9781 121.112 30.8994 121.111 30.8211 121.111C30.7925 120.949 30.7313 120.786 30.74 120.626C30.9042 117.549 31.0548 114.472 31.2565 111.398C31.3449 110.046 31.5873 108.704 31.6724 107.352C31.7414 106.256 31.6641 105.151 31.6782 104.05C31.7005 102.321 31.7209 100.59 31.7924 98.8625C31.8186 98.2294 31.5723 97.9607 30.9868 97.8038C29.7707 97.4754 28.5716 97.0867 27.1738 96.6654Z" fill="black"/>
<path d="M54.679 51.1403C54.8495 53.0546 54.9525 54.9771 55.2057 56.8802C55.6322 60.0922 56.1973 63.2857 56.6239 66.4982C57.0898 70.0075 57.4236 73.5343 57.8963 77.0426C58.1412 78.8612 58.492 80.6729 58.9258 82.4555C59.3087 84.0282 59.6192 85.5825 59.5579 87.2145C59.4962 88.8678 59.4763 90.529 59.5638 92.1804C59.6488 93.7895 58.8486 95.0285 58.045 96.2975C58.148 95.9827 58.2233 95.6552 58.3584 95.3545C59.795 92.1575 59.7984 88.8202 58.8923 85.5601C57.3658 80.0705 56.8994 74.4409 56.2162 68.8298C55.8358 65.7052 55.1901 62.6128 54.8121 59.4878C54.5177 57.0536 54.437 54.5923 54.302 52.1412C54.283 51.7933 54.4939 51.4328 54.5983 51.0781C54.6251 51.0985 54.6518 51.1194 54.679 51.1403Z" fill="black"/>
<path d="M8.9335 82.307C8.96313 78.8332 9.26047 75.4181 10.2064 72.0793C9.49028 76.9437 9.08605 81.8192 9.68899 86.7356C9.60834 86.7608 9.52721 86.7861 9.44656 86.8109C9.34939 86.5801 9.19926 86.3576 9.16234 86.1176C8.61429 82.5781 8.04682 79.0406 7.55854 75.4924C7.31755 73.7414 7.22961 71.969 7.07268 70.2064C7.05325 69.9892 7.03624 69.772 6.95073 69.5606C6.02518 75.7767 6.27442 81.9115 8.22998 87.9298C8.17994 87.9565 8.13038 87.9833 8.08082 88.01C7.88065 87.6373 7.60225 87.286 7.4939 86.8881C7.13923 85.5841 6.78554 84.2742 6.53969 82.9464C5.59325 77.8367 5.99262 72.7367 6.72577 67.643C6.8244 66.956 6.88221 66.2627 7.06247 65.5742C7.38993 71.1985 7.96956 76.7809 8.9335 82.307Z" fill="black"/>
<path d="M53.2816 61.3368C53.2816 59.4317 53.2588 57.5262 53.2865 55.6217C53.3453 51.5517 53.3652 47.4792 53.5246 43.4126C53.6504 40.2031 52.0218 38.164 49.3982 36.7424C48.2127 36.1001 46.9252 35.6472 45.6912 35.0929C45.1494 34.8495 44.5975 34.609 44.1044 34.2849C43.841 34.1119 43.6924 33.7636 43.4922 33.4944C43.5422 33.4478 43.5928 33.4011 43.6428 33.3545C43.7579 33.3943 43.8804 33.4206 43.9873 33.4764C44.6893 33.8452 45.3758 34.247 46.091 34.5881C47.5389 35.2794 49.0717 35.8221 50.4428 36.6389C52.5213 37.8773 53.786 39.7891 54.1246 42.2009C54.2631 43.1882 54.1397 44.2138 54.1154 45.2215C54.0303 48.739 53.9618 52.2576 53.835 55.7742C53.768 57.6316 53.5931 59.4852 53.4668 61.3406C53.4046 61.3392 53.3429 61.3377 53.2816 61.3368Z" fill="black"/>
<path d="M44.762 86.9092C42.6922 90.368 39.9365 93.0917 37.4936 96.0918C39.1941 95.0404 40.8951 93.9895 42.5956 92.9381C42.6373 93.0057 42.6791 93.0727 42.7214 93.1403C40.1906 94.7936 37.6598 96.447 35.129 98.0998C35.0998 98.0513 35.0707 98.0027 35.041 97.9541C37.6981 95.0074 40.3558 92.0607 43.0129 89.114C42.9434 89.0494 42.874 88.9852 42.8045 88.9206C40.6628 91.1201 38.5217 93.319 36.38 95.5185C36.2731 94.7373 43.5945 87.3571 44.762 86.9092Z" fill="black"/>
<path d="M23.1875 11.7628C23.4562 9.22761 24.4201 6.91689 25.7008 4.70819C25.6571 4.65378 25.6129 4.59936 25.5691 4.54495C25.109 4.74366 24.6489 4.94238 24.1893 5.1406C24.1577 5.11 24.1266 5.0789 24.0951 5.04829C24.3919 4.80828 24.6582 4.50948 24.9905 4.33943C26.1527 3.74475 27.3279 3.17241 28.5197 2.63943C28.9536 2.44557 29.457 2.22548 29.9384 2.71959C29.4395 2.8396 28.9828 2.9494 28.526 3.05921C29.2407 3.09759 29.9603 2.89547 30.6478 3.63251C29.2689 3.30408 28.1058 3.70539 26.9563 4.07318C26.5909 4.19027 26.1906 4.52357 26.02 4.86464C25.489 5.92914 25.0235 7.03057 24.6038 8.14464C24.2709 9.02841 24.3171 9.0459 24.7296 9.70083C24.2811 10.4753 23.874 11.1793 23.4664 11.8833C23.3736 11.8439 23.2808 11.8036 23.1875 11.7628ZM23.876 9.31166C23.7545 9.92626 23.6631 10.3903 23.5713 10.8542C23.8784 10.4175 24.4731 10.0443 23.876 9.31166Z" fill="black"/>
<path d="M20.0422 55.2105C20.3444 58.1271 20.4698 61.0738 21.561 63.8558C21.6951 64.1973 21.818 64.516 21.1743 64.7444C20.8157 63.3918 20.341 62.0703 20.135 60.7084C19.8615 58.8962 19.7842 57.0538 19.6574 55.2217C19.6399 54.9666 19.8197 54.6974 19.9082 54.4346C20.138 54.6231 20.4848 54.7659 20.5791 55.0069C21.2423 56.7074 21.8535 58.4283 22.4812 60.1424C22.3981 60.1735 22.3151 60.2051 22.232 60.2362C21.5634 58.5425 20.8944 56.8493 20.2254 55.1556C20.1642 55.1745 20.103 55.1925 20.0422 55.2105Z" fill="black"/>
<path d="M17.9048 50.0693C17.2333 55.2685 18.8935 60.0653 20.4978 64.8718C18.669 63.6266 16.9209 53.6817 17.9048 50.0693Z" fill="black"/>
<path d="M52.4549 88.3896C52.6463 88.6987 52.9335 88.9853 53.0117 89.321C53.2721 90.437 53.5073 91.5642 53.6623 92.6992C53.9926 95.1197 54.0918 97.5499 53.7531 99.9821C53.7444 100.047 53.7157 100.108 53.6545 100.174C53.3761 96.2614 53.3285 92.3241 52.2266 88.5135C52.3024 88.4722 52.3786 88.4309 52.4549 88.3896Z" fill="black"/>
<path d="M31.2617 63.3343C32.1474 61.3972 33.0331 59.4605 33.9184 57.5234C34.3454 58.3756 34.084 59.2108 34.0034 60.0392C33.9218 60.8768 33.7964 61.7096 33.672 62.6881C33.9786 62.4519 34.1637 62.3096 34.3493 62.1667C34.377 62.1915 34.4042 62.2163 34.4319 62.2411C34.0564 62.7595 33.6808 63.2784 33.3052 63.7968C33.2304 63.7618 33.1551 63.7273 33.0803 63.6923C33.3004 62.157 33.5205 60.6212 33.7406 59.0859C32.9267 60.5469 32.574 62.2416 31.2617 63.3343Z" fill="black"/>
<path d="M34.1562 4.0332C34.2184 4.04098 34.2806 4.04827 34.3428 4.05604C35.0342 5.04475 35.8388 5.97565 36.3834 7.03967C36.8887 8.02643 37.1015 9.16042 37.4741 10.2191C37.6398 10.6899 37.8827 11.1335 38.0518 11.5047C37.8769 11.6509 37.7263 11.7772 37.5553 11.9201C37.3813 10.3454 35.9738 9.61566 35.1061 8.43649C35.7119 8.89465 36.3178 9.35233 37.048 9.90474C36.4028 7.97056 35.812 6.17436 34.507 4.71194C34.3428 4.5278 34.2709 4.26155 34.1562 4.0332Z" fill="black"/>
<path d="M35.3131 26.0441C33.961 28.0356 32.6094 30.0272 31.2572 32.0192C31.1538 31.9492 31.0508 31.8797 30.9473 31.8098C32.2843 29.8027 33.6214 27.7951 34.9585 25.7881C35.0765 25.8736 35.1946 25.9586 35.3131 26.0441Z" fill="black"/>
<path d="M35.4922 43.9335C36.8934 42.1174 38.1843 40.1983 40.082 38.8408C40.1292 38.8845 40.1768 38.9283 40.2239 38.9715C38.7071 40.6841 37.1902 42.3973 35.6739 44.1099C35.6132 44.0516 35.5524 43.9923 35.4922 43.9335Z" fill="black"/>
<path d="M20.6016 36.3226C21.6617 35.6935 25.5252 36.4014 26.0626 37.1583C24.3339 36.894 22.5168 36.6156 20.6016 36.3226Z" fill="black"/>
<path d="M31.1506 5.91886C30.7002 4.9423 30.2799 4.69014 29.1873 4.80237C28.5129 4.87185 27.8473 5.02538 27.1816 5.14053C27.9682 4.36948 29.8558 4.06873 30.794 4.56819C31.3561 4.86796 31.4722 5.25179 31.1506 5.91886Z" fill="black"/>
<path d="M30.2548 1.10645C28.323 1.60104 26.3942 2.10196 24.8633 3.48324C26.2514 1.78567 28.151 1.21965 30.2548 1.10645Z" fill="black"/>
<path d="M26.207 31.2451C27.0276 30.1379 27.8483 29.0301 28.6689 27.9229C28.7301 27.9676 28.7908 28.0118 28.852 28.0565C28.322 29.377 27.1841 30.2632 26.4198 31.4166C26.3489 31.3593 26.278 31.3024 26.207 31.2451Z" fill="black"/>
<path d="M36.0547 47.6545C36.3132 46.8548 36.8364 46.2786 37.5254 45.8418C37.5798 45.887 37.6337 45.9317 37.6881 45.9769C37.194 46.5701 36.7004 47.1633 36.2063 47.757C36.1553 47.7225 36.1047 47.6885 36.0547 47.6545Z" fill="black"/>
<path d="M35.1253 19.2846C34.536 19.8287 33.9462 20.3724 33.3568 20.9166C33.3175 20.8806 33.2776 20.8447 33.2383 20.8087C33.7941 20.2301 34.3504 19.6519 34.9062 19.0732C34.9791 19.1437 35.0525 19.2141 35.1253 19.2846Z" fill="black"/>
<path d="M36.5586 41.185C37.0114 40.5962 37.4637 40.0078 37.9166 39.4189C37.9729 39.4622 38.0288 39.5059 38.0851 39.5492C37.6284 40.1346 37.1717 40.7201 36.715 41.305C36.6626 41.2652 36.6106 41.2254 36.5586 41.185Z" fill="black"/>
<path d="M36.6182 82.6352C35.9385 79.0516 35.4745 75.4193 34.2924 71.7968C34.1792 71.9809 34.1253 72.0689 33.9902 72.289C34.0189 71.859 34.0374 71.5757 34.0563 71.293C34.1165 71.2609 34.1768 71.2284 34.237 71.1963C34.3886 71.4062 34.6218 71.5961 34.6797 71.8298C35.2972 74.316 35.9288 76.7996 36.4642 79.3037C36.6926 80.3707 36.7037 81.4842 36.8135 82.5769C36.7484 82.5964 36.6833 82.6158 36.6182 82.6352Z" fill="black"/>
</g>
<defs>
<clipPath id="clip0_1734_59355">
<path d="M0 0H60V61.4634C60 76.8196 47.5513 89.2683 32.1951 89.2683H27.8049C12.4487 89.2683 0 76.8196 0 61.4634V0Z" fill="white"/>
</clipPath>
</defs>
</svg>
