<svg width="94" height="75" viewBox="0 0 94 75" fill="none" xmlns="http://www.w3.org/2000/svg">
<path d="M30.9243 31.0237V34.4853C30.9243 35.2633 31.3001 35.9991 31.9299 36.4542C31.9511 36.4701 31.967 36.4807 31.9882 36.5019C32.581 36.9624 32.9303 37.6769 32.9303 38.4285V50.4751C32.9303 51.3538 32.221 52.063 31.3424 52.063H24.0488C23.1702 52.063 22.4609 51.3538 22.4609 50.4751V38.4285C22.4609 37.6716 22.8156 36.9571 23.4137 36.5019C23.4295 36.486 23.4454 36.4754 23.4666 36.4595V36.4542C24.0964 35.9991 24.4722 35.2633 24.4722 34.4853V31.0237C24.4722 30.3251 24.1705 29.6635 23.6518 29.2083C23.5936 29.15 23.5301 29.1024 23.4666 29.0548C22.8367 28.5943 22.4609 27.8586 22.4609 27.0805V27.0752C22.4609 24.8258 23.3025 22.6557 24.8163 20.9884L27.6956 17.8232L30.575 20.9884C32.0887 22.6557 32.9303 24.8258 32.9303 27.0752V27.0805C32.9303 27.8639 32.5598 28.5943 31.9299 29.0548C31.8664 29.1024 31.8029 29.15 31.7447 29.2083C31.226 29.6635 30.9243 30.3251 30.9243 31.0237Z" fill="url(#paint0_linear_1734_61326)"/>
<path d="M28.9785 19.1115H26.4136C25.9748 19.1115 25.6191 18.7558 25.6191 18.317V17.3267C25.6191 16.8879 25.9748 16.5322 26.4136 16.5322H28.9785C29.4173 16.5322 29.773 16.8879 29.773 17.3267V18.317C29.7725 18.7558 29.4168 19.1115 28.9785 19.1115Z" fill="#312A4F"/>
<path d="M31.9886 36.5006H23.4141C23.4299 36.4848 23.4458 36.4742 23.467 36.4583V36.453C24.0968 35.9978 24.4726 35.2621 24.4726 34.4841V31.0225C24.4726 30.3238 24.1709 29.6622 23.6522 29.207H31.7451C31.2264 29.6622 30.9247 30.3238 30.9247 31.0225V34.4841C30.9247 35.2621 31.3005 35.9978 31.9303 36.453C31.9515 36.4689 31.9674 36.4795 31.9886 36.5006Z" fill="url(#paint1_linear_1734_61326)"/>
<path d="M29.2311 34.8655H26.1617C25.823 34.8655 25.5488 34.5908 25.5488 34.2526C25.5488 33.9138 25.8235 33.6396 26.1617 33.6396H29.2311C29.5698 33.6396 29.844 33.9143 29.844 34.2526C29.844 34.5908 29.5698 34.8655 29.2311 34.8655Z" fill="white"/>
<path d="M28.1219 33.2073H27.2692C26.9304 33.2073 26.6562 32.9326 26.6562 32.5944C26.6562 32.2556 26.931 31.9814 27.2692 31.9814H28.1219C28.4606 31.9814 28.7348 32.2562 28.7348 32.5944C28.7348 32.9326 28.4601 33.2073 28.1219 33.2073Z" fill="white"/>
<path d="M12.9223 21.9152L14.38 25.0549C14.7076 25.7605 15.3581 26.2696 16.1213 26.4173C16.1473 26.4226 16.1663 26.4258 16.1944 26.4358C16.9258 26.6036 17.5435 27.1048 17.86 27.7866L22.9322 38.7132C23.3022 39.5104 22.9576 40.452 22.1605 40.8219L15.5449 43.8929C14.7478 44.2628 13.8062 43.9183 13.4362 43.1212L8.36406 32.1945C8.04542 31.508 8.06606 30.7104 8.41698 30.0461C8.42492 30.0249 8.43445 30.0085 8.44715 29.9853L8.44504 29.9805C8.82454 29.3025 8.85576 28.4768 8.52813 27.7712L7.07047 24.6315C6.77619 23.9979 6.22414 23.5247 5.562 23.3305C5.48472 23.3024 5.40691 23.2855 5.32911 23.2691C4.56375 23.1166 3.91326 22.6075 3.58563 21.9019L3.58351 21.8972C2.63661 19.8568 2.48576 17.5342 3.1569 15.3843L4.43567 11.3008L8.37993 12.9596C10.4553 13.8345 12.1321 15.4483 13.0795 17.4887L13.0816 17.4935C13.4114 18.2038 13.3828 19.0226 13.0054 19.7054C12.9678 19.7752 12.9302 19.8451 12.9022 19.9224C12.6232 20.5544 12.628 21.2816 12.9223 21.9152Z" fill="url(#paint2_linear_1734_61326)"/>
<path d="M6.14225 11.9305L3.81549 13.0108C3.41746 13.1955 2.94534 13.0224 2.76062 12.6249L2.34353 11.7267C2.15881 11.3287 2.33189 10.8566 2.72939 10.6719L5.05614 9.59157C5.45417 9.40685 5.92683 9.57993 6.11102 9.97796L6.5281 10.8762C6.71282 11.2737 6.54027 11.7458 6.14225 11.9305Z" fill="#312A4F"/>
<path d="M16.1949 26.4367L8.41749 30.047C8.42543 30.0259 8.43495 30.0094 8.44766 29.9861L8.44554 29.9814C8.82504 29.3034 8.85627 28.4777 8.52864 27.7721L7.07098 24.6324C6.77669 23.9988 6.22464 23.5256 5.5625 23.3314L12.9027 19.9238C12.6238 20.5553 12.6285 21.282 12.9228 21.9161L14.3805 25.0558C14.7081 25.7614 15.3586 26.2705 16.1218 26.4182C16.1478 26.4235 16.1668 26.4261 16.1949 26.4367Z" fill="url(#paint3_linear_1734_61326)"/>
<path d="M13.0048 26.1134L10.2207 27.4059C9.9137 27.5483 9.54902 27.4149 9.40664 27.1079C9.26426 26.801 9.39764 26.4363 9.70463 26.2939L12.4887 25.0014C12.7957 24.859 13.1604 24.9924 13.3027 25.2994C13.4451 25.6063 13.3117 25.971 13.0048 26.1134Z" fill="white"/>
<path d="M11.3006 25.0773L10.5273 25.4361C10.2203 25.5785 9.85566 25.4451 9.71328 25.1381C9.5709 24.8312 9.70428 24.4665 10.0113 24.3241L10.7846 23.9652C11.0915 23.8229 11.4562 23.9562 11.5986 24.2632C11.741 24.5702 11.6076 24.9349 11.3006 25.0773Z" fill="white"/>
<path d="M57.954 37.5869H27.0176V52.1022H57.954V37.5869Z" fill="#44D8D4"/>
<path d="M66.7566 37.5869H43.5176V52.1022H66.7566V37.5869Z" fill="#1A97A0"/>
<path d="M37.4428 41.7827H31.8445C31.185 41.7827 30.6504 41.2481 30.6504 40.5886C30.6504 39.9291 31.185 39.3945 31.8445 39.3945H37.4428C38.1023 39.3945 38.6368 39.9291 38.6368 40.5886C38.6368 41.2481 38.1023 41.7827 37.4428 41.7827Z" fill="#1A97A0"/>
<path d="M45.8544 26.4634C43.2778 27.1462 40.6356 25.6113 39.9528 23.0347L35.6915 6.95542C35.0087 4.37883 36.5437 1.73662 39.1203 1.05384C41.6969 0.371054 44.3391 1.90599 45.0218 4.48258L49.2832 20.5619C49.966 23.1385 48.431 25.7807 45.8544 26.4634Z" fill="#FFBDAB"/>
<path d="M43.2646 5.87068L37.9035 7.29129C37.5679 7.38021 37.2233 7.18014 37.1344 6.84457C37.0455 6.509 37.2455 6.16444 37.5811 6.07551L42.9423 4.65491C43.2779 4.56599 43.6224 4.76605 43.7113 5.10162C43.8003 5.43772 43.6002 5.78176 43.2646 5.87068Z" fill="#CA6A61"/>
<path d="M44.2978 9.7637L38.9367 11.1848C38.6011 11.2738 38.2565 11.0737 38.1676 10.7381C38.0787 10.4026 38.2788 10.058 38.6143 9.96907L43.9755 8.54846C44.3111 8.45954 44.6556 8.65961 44.7446 8.99518C44.834 9.33075 44.6339 9.67478 44.2978 9.7637Z" fill="#CA6A61"/>
<path d="M45.3291 13.6568L39.9679 15.0774C39.6323 15.1663 39.2878 14.9663 39.1989 14.6307C39.1099 14.2951 39.31 13.9506 39.6456 13.8616L45.0067 12.441C45.3423 12.3521 45.6869 12.5522 45.7758 12.8878C45.8647 13.2233 45.6647 13.5679 45.3291 13.6568Z" fill="#CA6A61"/>
<path d="M46.3603 17.5484L40.9992 18.969C40.6636 19.0579 40.319 18.8579 40.2301 18.5223C40.1412 18.1867 40.3413 17.8422 40.6768 17.7532L46.038 16.3326C46.3736 16.2437 46.7181 16.4438 46.8071 16.7794C46.896 17.1155 46.6959 17.4595 46.3603 17.5484Z" fill="#CA6A61"/>
<path d="M47.3916 21.441L42.0304 22.8616C41.6948 22.9505 41.3503 22.7505 41.2614 22.4149C41.1724 22.0793 41.3725 21.7348 41.7081 21.6458L47.0693 20.2252C47.4048 20.1363 47.7494 20.3364 47.8383 20.672C47.9272 21.0075 47.7272 21.3521 47.3916 21.441Z" fill="#CA6A61"/>
<path d="M49.8571 27.3177C47.2249 26.8985 45.4306 24.4246 45.8498 21.7925L48.4656 5.36488C48.8848 2.73273 51.3581 0.938442 53.9908 1.35764C56.623 1.77684 58.4173 4.25021 57.9981 6.88289L55.3823 23.3105C54.9626 25.9426 52.4892 27.7369 49.8571 27.3177Z" fill="#FFBDAB"/>
<path d="M55.8312 7.44076L50.3541 6.5685C50.0111 6.51398 49.7772 6.19163 49.8322 5.84865C49.8868 5.50567 50.2091 5.27173 50.5521 5.32625L56.0292 6.19852C56.3721 6.25304 56.6061 6.57537 56.5511 6.91835C56.4965 7.26186 56.1742 7.49527 55.8312 7.44076Z" fill="#CA6A61"/>
<path d="M55.1984 11.4173L49.7213 10.545C49.3783 10.4905 49.1444 10.1682 49.1994 9.82522C49.2539 9.48224 49.5763 9.24829 49.9193 9.30281L55.3964 10.1751C55.7393 10.2296 55.9733 10.5519 55.9182 10.8949C55.8637 11.2384 55.5414 11.4718 55.1984 11.4173Z" fill="#CA6A61"/>
<path d="M54.564 15.3945L49.0869 14.5222C48.744 14.4677 48.51 14.1454 48.5645 13.8024C48.619 13.4594 48.9414 13.2254 49.2844 13.2805L54.7614 14.1528C55.1044 14.2073 55.3384 14.5296 55.2833 14.8726C55.2293 15.2151 54.907 15.449 54.564 15.3945Z" fill="#CA6A61"/>
<path d="M53.9308 19.3714L48.4537 18.4992C48.1108 18.4446 47.8768 18.1223 47.9319 17.7793C47.9864 17.4363 48.3087 17.2024 48.6517 17.2569L54.1288 18.1292C54.4718 18.1837 54.7057 18.506 54.6507 18.849C54.5961 19.192 54.2738 19.426 53.9308 19.3714Z" fill="#CA6A61"/>
<path d="M53.298 23.348L47.8209 22.4757C47.4779 22.4212 47.244 22.0989 47.299 21.7559C47.3536 21.4129 47.6759 21.179 48.0189 21.2335L53.496 22.1057C53.839 22.1603 54.0729 22.4826 54.0178 22.8256C53.9633 23.1691 53.641 23.403 53.298 23.348Z" fill="#CA6A61"/>
<path d="M57.1713 14.3389H35.7001L32.6953 37.5869H60.1766L57.1713 14.3389Z" fill="#D49389"/>
<path d="M64.942 52.135L58.1931 52.0693L50.2246 51.9915L50.3368 40.3313L50.4379 29.4533L50.5162 20.9619L50.5215 20.963L65.2347 21.1006L65.1564 29.592L65.1516 29.719L65.05 40.4689L64.942 52.135Z" fill="#76C4FF"/>
<path d="M64.1472 14.2986L51.7343 14.1816L50.5195 20.9618L65.2338 21.1005L64.1472 14.2986Z" fill="#3E7ED8"/>
<path d="M64.1723 11.9926L51.7637 11.876L51.7419 14.1869L64.1506 14.3035L64.1723 11.9926Z" fill="#76C4FF"/>
<path d="M59.3867 17.6499C59.3783 18.5354 58.6537 19.2468 57.7682 19.2383C56.8827 19.2298 56.1713 18.5052 56.1798 17.6197C56.1882 16.7342 56.9128 16.0229 57.7983 16.0313C58.6838 16.0398 59.3947 16.7644 59.3867 17.6499Z" fill="white"/>
<path d="M65.0564 40.4702L65.0511 40.4697L60.2409 40.4247L50.3379 40.3321L50.439 29.4541L60.9544 29.5531L64.8325 29.5896L65.1575 29.5928L65.158 29.7203L65.0564 40.4702Z" fill="#EBF7FF"/>
<path d="M76.9346 2.72852L66.0868 52.6284H28.9544C21.2972 52.6284 14.3497 48.1427 11.1989 41.1634L1 18.5755H73.4899" stroke="#7B73A8" stroke-width="1.58787" stroke-miterlimit="10" stroke-linecap="round" stroke-linejoin="round"/>
<path d="M91.4928 4.20638H76.7145C75.6723 4.20638 74.8281 3.36164 74.8281 2.32C74.8281 1.27782 75.6729 0.433594 76.7145 0.433594H91.4928C92.535 0.433594 93.3792 1.27835 93.3792 2.32C93.3792 3.36164 92.5345 4.20638 91.4928 4.20638Z" fill="url(#paint4_linear_1734_61326)"/>
<path d="M14.3926 46.0824V42.4938V34.4221V26.3557V18.5752" stroke="#7B73A8" stroke-width="1.58787" stroke-miterlimit="10" stroke-linecap="round" stroke-linejoin="round"/>
<path d="M33.0078 18.5771V52.6295" stroke="#7B73A8" stroke-width="1.58787" stroke-miterlimit="10" stroke-linecap="round" stroke-linejoin="round"/>
<path d="M51.623 18.5771V52.6295" stroke="#7B73A8" stroke-width="1.58787" stroke-miterlimit="10" stroke-linecap="round" stroke-linejoin="round"/>
<path d="M4.51172 26.3525H71.7993" stroke="#7B73A8" stroke-width="1.58787" stroke-miterlimit="10" stroke-linecap="round" stroke-linejoin="round"/>
<path d="M8.1582 34.4219H14.3932H23.7034H33.0084H42.3186H51.6235H60.9284H70.0481" stroke="#7B73A8" stroke-width="1.58787" stroke-miterlimit="10" stroke-linecap="round" stroke-linejoin="round"/>
<path d="M11.8613 42.4922H14.3913H23.7015H33.0065H42.3167H51.6216H60.9265H68.2889" stroke="#7B73A8" stroke-width="1.58787" stroke-miterlimit="10" stroke-linecap="round" stroke-linejoin="round"/>
<path d="M66.0867 52.6299L64.077 60.3263C63.5196 62.4604 61.5919 63.9493 59.3869 63.9493H26.7832" stroke="#7B73A8" stroke-width="1.58787" stroke-miterlimit="10" stroke-linecap="round" stroke-linejoin="round"/>
<path d="M57.3605 71.022C57.3605 73.1143 55.6641 74.8107 53.5719 74.8107C51.4796 74.8107 49.7832 73.1143 49.7832 71.022C49.7832 68.9298 51.4796 67.2334 53.5719 67.2334C55.6641 67.2329 57.3605 68.9292 57.3605 71.022Z" fill="#312A4F"/>
<path d="M55.8572 71.0243C55.8572 72.2866 54.8335 73.3103 53.5712 73.3103C52.3088 73.3103 51.2852 72.2866 51.2852 71.0243C51.2852 69.7619 52.3088 68.7383 53.5712 68.7383C54.834 68.7383 55.8572 69.7614 55.8572 71.0243Z" fill="white"/>
<path d="M53.572 71.8108C52.8776 71.8108 52.3145 71.2476 52.3145 70.5532V64.9226C52.3145 64.2282 52.8776 63.665 53.572 63.665C54.2665 63.665 54.8296 64.2282 54.8296 64.9226V70.5532C54.8302 71.2482 54.267 71.8108 53.572 71.8108Z" fill="#7B73A8"/>
<path d="M37.9757 71.022C37.9757 73.1143 36.2794 74.8107 34.1871 74.8107C32.0948 74.8107 30.3984 73.1143 30.3984 71.022C30.3984 68.9298 32.0948 67.2334 34.1871 67.2334C36.2794 67.2334 37.9757 68.9292 37.9757 71.022Z" fill="#312A4F"/>
<path d="M36.4724 71.0243C36.4724 72.2866 35.4487 73.3103 34.1864 73.3103C32.924 73.3103 31.9004 72.2866 31.9004 71.0243C31.9004 69.7619 32.924 68.7383 34.1864 68.7383C35.4493 68.7383 36.4724 69.7614 36.4724 71.0243Z" fill="white"/>
<path d="M34.1873 71.8108C33.4928 71.8108 32.9297 71.2476 32.9297 70.5532V64.9226C32.9297 64.2282 33.4928 63.665 34.1873 63.665C34.8817 63.665 35.4449 64.2282 35.4449 64.9226V70.5532C35.4449 71.2482 34.8817 71.8108 34.1873 71.8108Z" fill="#7B73A8"/>
<defs>
<linearGradient id="paint0_linear_1734_61326" x1="28.1413" y1="55.5793" x2="27.0093" y2="12.7539" gradientUnits="userSpaceOnUse">
<stop stop-color="#606FFF"/>
<stop offset="1" stop-color="#98D1FF"/>
</linearGradient>
<linearGradient id="paint1_linear_1734_61326" x1="33.8677" y1="35.3717" x2="118.198" y2="69.1414" gradientUnits="userSpaceOnUse">
<stop stop-color="#606FFF"/>
<stop offset="1" stop-color="#98D1FF"/>
</linearGradient>
<linearGradient id="paint2_linear_1734_61326" x1="20.7382" y1="45.3599" x2="1.67737" y2="6.99332" gradientUnits="userSpaceOnUse">
<stop stop-color="#606FFF"/>
<stop offset="1" stop-color="#98D1FF"/>
</linearGradient>
<linearGradient id="paint3_linear_1734_61326" x1="17.4239" y1="24.6213" x2="108.131" y2="19.7391" gradientUnits="userSpaceOnUse">
<stop stop-color="#606FFF"/>
<stop offset="1" stop-color="#98D1FF"/>
</linearGradient>
<linearGradient id="paint4_linear_1734_61326" x1="83.4633" y1="-11.7691" x2="84.5009" y2="11.0586" gradientUnits="userSpaceOnUse">
<stop stop-color="#FFA491"/>
<stop offset="1" stop-color="#FF2984"/>
</linearGradient>
</defs>
</svg>
