<svg width="20" height="18" viewBox="0 0 20 18" fill="none" xmlns="http://www.w3.org/2000/svg">
<mask id="path-1-inside-1_1571_9890" fill="white">
<path d="M14.3832 16.5713C14.4648 16.5554 14.6296 16.7688 14.6546 16.8677C14.6796 16.9666 14.7705 16.9335 15.0749 16.9994C15.3791 17.0652 15.2396 17.0166 15.4121 16.9994C15.5847 16.9835 15.6097 16.8677 15.6427 16.8018C15.6758 16.736 15.8811 16.6952 15.9061 16.7029C15.9311 16.711 16.0458 16.7452 16.1565 16.7452C16.2672 16.7452 16.2355 16.5054 16.2355 16.5054C16.2355 16.5054 16.2278 16.4568 16.1947 16.1604C16.1617 15.864 16.1289 16.0115 16.1947 15.8798C16.2606 15.7481 16.3264 15.7889 16.3672 15.7323C16.4081 15.6742 16.4831 15.5598 16.4911 15.5347C16.4989 15.5097 16.4661 15.4108 16.4581 15.378C16.4489 15.345 16.3342 15.2792 16.2355 15.1397C16.1367 14.9988 16.2355 14.9988 16.3422 14.9013C16.4489 14.8013 16.532 14.958 16.6148 15.041C16.6965 15.1227 16.7465 15.2794 16.8204 15.4191C16.8942 15.56 16.9351 15.4519 17.1826 15.4191C17.429 15.3861 17.4368 15.2794 17.5685 15.1399C17.7002 14.999 17.7002 14.9424 17.7174 14.9174C17.7346 14.8923 17.8979 14.8435 17.973 14.7276C18.0466 14.6129 17.9638 14.4642 17.948 14.3495C17.9321 14.2337 17.8571 14.1112 17.7662 13.9318C17.6766 13.7527 17.5279 13.7475 17.4052 13.6909C17.2813 13.6328 17.0918 13.567 16.9679 13.4051C16.844 13.2432 17.0259 13.3366 17.1418 13.3366C17.2565 13.3366 17.4368 13.3286 17.4948 13.2049C17.5527 13.081 17.6846 13.0891 17.8743 13.0324C18.0641 12.9744 18.0641 12.7438 18.0799 12.703C18.0957 12.6621 18.2116 12.5213 18.2446 12.4724C18.2774 12.4224 18.3355 12.4224 18.3593 12.4143C18.3843 12.4066 18.9113 12.3815 19.1497 12.3735C19.3895 12.3643 19.2986 12.2904 19.3472 12.2246C19.3972 12.1588 19.3472 12.1007 19.3472 12.0349C19.3472 11.969 19.1339 11.969 19.0758 11.9532C19.0178 11.9374 18.566 11.9032 18.4013 11.9204C18.2366 11.9374 18.3024 11.9862 18.1866 12.0851C18.0719 12.184 18.014 12.176 17.8085 12.1694C17.6029 12.1642 17.6688 11.9612 17.6846 11.9032C17.7004 11.8465 17.8413 11.7476 17.8901 11.6898C17.9402 11.6318 17.9732 11.4843 17.989 11.3856C18.0063 11.2867 17.8007 11.1789 17.7835 11.097C17.7665 11.0153 18.0218 10.9573 18.1207 10.9072C18.2196 10.8586 18.5252 10.7097 18.5488 10.7017C18.5568 10.6991 18.5856 10.6977 18.6265 10.6977C18.6383 10.6793 18.6501 10.6543 18.6567 10.6108C18.6803 10.4303 18.7133 10.4133 18.8122 10.2736C18.9111 10.1339 18.87 10.1339 18.7964 9.98496C18.7225 9.83746 18.6317 9.78742 18.5738 9.59768C18.5158 9.40935 18.5989 9.29347 18.6449 9.24863C18.6909 9.20379 18.878 9.26043 18.9939 9.24462C19.1086 9.22739 19.1745 9.26043 19.2573 9.24462C19.3389 9.22739 19.347 9.14574 19.3389 9.04709C19.3309 8.94821 19.2073 8.939 19.1334 8.87859C19.0598 8.81675 19.0345 8.9154 19.0095 8.92343C18.9859 8.93145 18.8778 8.92343 18.7711 8.87859C18.6645 8.83257 18.6722 8.84177 18.6472 8.66784C18.6222 8.49532 18.7461 8.6348 18.812 8.62701C18.8778 8.61922 18.9517 8.52034 19.0425 8.38865C19.1334 8.25696 19.1834 8.28056 19.397 8.27277C19.6103 8.26475 19.5695 8.27277 19.6354 8.22392C19.7012 8.17389 19.6762 8.05919 19.6854 7.91051C19.6932 7.76301 19.7671 7.78803 19.8737 7.69717C19.9818 7.60631 19.9634 7.48241 19.9634 7.48241C19.9832 7.42577 19.9476 7.3611 19.899 7.32429C19.8501 7.28747 19.7909 7.26906 19.7383 7.23862C19.6066 7.16617 19.5169 7.02527 19.5063 6.87494C19.5037 6.84733 19.5063 6.81689 19.5143 6.78928C19.4459 6.71942 19.3536 6.43103 19.2759 6.40979C19.1995 6.38737 19.0784 6.48625 19.0019 6.48625C18.9255 6.48625 18.8596 6.23326 18.8372 6.06853C18.8148 5.9038 18.7607 6.09095 18.6501 5.92622C18.5408 5.76149 18.5302 5.79453 18.3537 5.77211C18.1783 5.75111 18.2007 5.75111 18.0797 5.70627C17.9586 5.66284 17.9373 5.39923 17.8925 5.32301C17.8491 5.24536 17.4974 5.32301 17.4974 5.32301C17.4974 5.32301 17.3882 5.25716 17.3658 5.12547C17.3447 4.99378 17.3776 4.8831 17.3658 4.83968C17.3551 4.79625 17.3447 4.78422 17.201 4.78422C17.0587 4.78422 17.0587 4.78421 17.0153 4.68533C16.9704 4.58645 16.9823 4.46656 16.9376 4.34549C16.8942 4.22418 16.8612 4.35611 16.7071 4.34549C16.5515 4.33487 16.6306 4.29027 16.5648 4.14796C16.4989 4.00565 16.5095 3.96081 16.5213 3.91739C16.532 3.87255 16.6743 3.7857 16.6979 3.62097C16.7215 3.45624 16.6861 3.42344 16.6965 3.32455C16.7071 3.22567 16.6637 3.1046 16.6202 2.98471C16.5754 2.86341 16.4227 2.99533 16.4003 3.05055C16.3779 3.1046 16.3899 3.17044 16.2804 3.30213C16.1723 3.43382 16.2131 3.34697 16.1591 3.34697C16.1039 3.34697 16.0602 3.2259 15.9944 3.16006C15.9285 3.09422 15.8509 3.05079 15.8072 2.98495C15.7638 2.9191 15.7083 2.80842 15.7083 2.72157C15.7083 2.63331 15.7638 2.52404 15.8176 2.43577C15.8728 2.34751 16.0047 2.43577 16.1034 2.43577C16.2023 2.43577 16.2127 2.36993 16.2681 2.26066C16.3233 2.14998 16.1798 2.1724 16.0706 2.19482C15.9613 2.21724 15.9823 2.16202 15.8834 2.11718C15.7845 2.07375 15.8834 1.95245 15.8834 1.83256C15.8834 1.71125 15.587 1.73367 15.4777 1.77733C15.3685 1.82076 15.4013 1.89864 15.4013 2.0079V2.15139C15.4013 2.15281 15.313 2.24886 15.2037 2.14998C15.0931 2.05109 14.9614 2.16178 14.8625 2.14998C14.7636 2.13936 14.6768 2.10655 14.512 1.98525C14.512 1.98525 14.3355 1.79952 14.3249 1.75468C14.3143 1.71125 14.1377 1.57956 14.0391 1.5359C13.9402 1.49106 13.9732 1.73344 13.8968 1.79928C13.8203 1.86513 13.7545 1.76648 13.6558 1.7004C13.5569 1.63455 13.4463 1.33814 13.3476 1.28268C13.2487 1.22722 13.1288 1.22722 13.0842 1.22722C13.0408 1.22722 12.843 1.11795 12.843 1.03747C12.843 0.958411 12.6889 0.788493 12.6125 0.755453C12.536 0.722648 12.4477 0.798875 12.3925 0.847727C12.3385 0.895163 12.3057 0.930799 12.1516 1.00443C11.9974 1.07688 12.0092 1.01883 11.921 0.952983C11.8327 0.887139 11.668 1.00443 11.668 1.00443C11.668 1.00443 11.2399 0.920179 11.1858 0.876755C11.1306 0.831915 10.8776 0.745067 10.8012 0.745067C10.7247 0.745067 10.6364 0.810913 10.5706 0.830737C10.5047 0.850561 10.3834 0.963842 10.3072 0.996646C10.2308 1.02969 9.85669 0.942598 9.704 0.831914C9.64995 0.792502 9.57349 0.759464 9.49584 0.733032C9.49325 0.805484 9.47082 0.855516 9.42858 0.86472C9.3297 0.88714 9.08874 0.986024 9.13217 1.17294C9.17701 1.35867 9.36273 1.5234 9.37453 1.56824C9.38515 1.61166 9.56027 1.67751 9.2969 1.78677C9.03352 1.89746 9.00048 1.77639 8.76991 1.87504C8.53933 1.97392 8.58417 2.18208 8.29837 2.19388C8.01258 2.2045 7.72797 2.18207 7.73859 2.00696C7.74921 1.83185 7.92573 1.62228 7.85988 1.5234C7.79404 1.42451 7.28806 1.35867 7.22221 1.41413C7.15637 1.46935 6.78349 1.66712 6.62938 1.67751C6.47645 1.68789 6.2237 1.67751 6.14723 1.84223C6.06959 2.00696 5.75217 2.19529 5.75217 2.19529C5.75217 2.19529 5.43333 2.14927 5.11449 2.02938C4.79707 1.90808 4.46762 1.62228 4.28071 1.60128C4.09356 1.57886 3.99491 1.63408 3.67725 1.65532C3.35841 1.67774 3.08442 1.70016 2.89727 1.67774C2.71012 1.65532 2.46916 1.60128 2.42574 1.57886C2.3809 1.55644 2.11752 1.29306 2.05168 1.45755C1.98584 1.62228 1.89899 1.78677 1.89899 2.03977C1.89899 2.29276 1.94241 2.43507 1.83315 2.52333C1.72246 2.61018 1.62357 2.61018 1.59077 2.64322C1.55797 2.67626 1.55797 2.92902 1.54735 2.99486C1.53673 3.0607 1.28397 3.23582 1.28397 3.23582C1.28397 3.23582 0.691138 3.67572 0.658098 3.96034C0.625294 4.24614 0.647713 4.42148 0.800406 4.48733C0.954514 4.55317 1.09682 4.56497 1.12986 4.63105C1.16267 4.69689 1.15228 4.78374 1.27335 4.79578C1.39324 4.8064 1.62381 4.79578 1.62381 4.79578C1.62381 4.79578 1.76754 4.81678 1.64623 4.86162C1.52493 4.90505 1.43808 4.92747 1.36044 4.97089C1.28397 5.01432 1.09706 5.23427 1.12986 5.32253C1.16267 5.40938 1.22875 5.35557 1.82158 5.81648C2.41441 6.27762 2.65679 6.65051 2.99663 6.73877C3.33647 6.82562 3.31546 6.72697 3.60008 6.81524C3.88588 6.9035 4.13887 7.02339 4.31398 7.06823C4.48909 7.11165 4.7645 7.06823 4.7645 7.06823C4.7645 7.06823 4.92923 6.83765 5.08192 6.76001C5.23603 6.68355 5.60891 6.66113 5.60891 6.66113L5.89471 6.59528L6.19113 6.31067C6.19113 6.31067 6.32282 6.38713 6.36624 6.44235C6.41108 6.4964 6.56377 6.54124 6.62962 6.51882C6.69546 6.4964 6.80615 6.26582 6.89299 6.19998C6.98126 6.13414 7.33313 5.90356 7.33313 5.90356C7.33313 5.90356 7.50825 6.1011 7.17903 6.26583C6.84981 6.43055 6.76154 6.56224 6.49793 6.9245C6.23455 7.28676 6.24636 7.79275 5.93814 7.80313C5.6311 7.81352 5.58768 7.61598 5.37834 7.66082C5.17019 7.70425 5.01608 7.78071 4.93962 7.90178C4.86315 8.02308 4.80793 8.18758 4.64321 8.17578C4.47848 8.16516 4.3574 8.06651 4.19267 8.08893C4.02795 8.10993 3.88564 8.14297 3.78699 8.28646C3.68811 8.42877 3.65531 8.45119 3.46816 8.47219C3.28243 8.49461 3.21658 8.48399 3.04005 8.47219C2.86471 8.46157 2.64475 8.45119 2.63436 8.37331C2.62374 8.29684 2.78847 8.16516 2.79909 8.13235C2.80971 8.09931 2.85456 7.95724 2.74387 7.9124C2.6346 7.86898 2.44746 7.82555 2.31577 7.82555C2.18408 7.82555 2.05239 7.84656 2.00873 7.94544C1.9653 8.04433 1.87704 7.95724 1.94288 8.40659C2.00873 8.85711 1.94288 9.06526 2.77691 9.72394C3.61211 10.3826 3.85307 10.8662 3.90853 10.932C3.96258 10.9979 4.34725 10.932 4.34725 10.932C4.34725 10.932 4.46856 11.1296 4.4131 11.1626C4.35788 11.1956 4.17215 11.1402 4.24838 11.2943C4.32484 11.4484 4.38006 11.5024 4.38006 11.5024C4.38006 11.5024 5.7963 13.1821 6.31267 13.5998C6.82762 14.0173 7.32181 14.3467 7.91464 14.3798C8.50748 14.4128 9.85763 13.8528 10.1765 13.7421C10.4953 13.6328 11.6031 13.1164 11.7796 13.0624C11.9547 13.0072 12.0536 12.9411 12.0536 12.7766C12.0536 12.6119 12.1195 12.3709 12.2736 12.2272C12.4265 12.0849 12.4791 12.2496 12.5568 11.9098C12.6358 11.5685 12.7017 11.4158 12.6568 11.1522C12.6134 10.8888 12.5013 10.9426 12.5568 10.6911C12.6134 10.4381 12.8109 10.3064 12.7781 10.1747C12.7453 10.043 12.6689 10.0206 12.6793 9.91132C12.6899 9.80205 12.8216 9.68075 12.8874 9.60429C12.9532 9.52664 13.0191 9.52664 13.0521 9.40675C13.0852 9.28569 13.118 9.14338 13.1628 9.02208C13.2062 8.90077 13.2393 8.73628 13.2721 8.85735C13.3049 8.97865 13.3049 9.11034 13.3049 9.15376C13.3049 9.19719 13.2943 9.36192 13.2943 9.36192C13.2943 9.36192 13.3707 9.40675 13.459 9.40675C13.5458 9.40675 13.6237 9.40676 13.6896 9.34091C13.7554 9.27507 13.766 9.20922 13.8319 9.20922C13.8977 9.20922 13.9636 9.16438 14.007 9.29607C14.0518 9.42776 14.0846 9.42776 14.1507 9.45018C14.2166 9.4726 14.3034 9.48298 14.3692 9.42776C14.4351 9.37371 14.4351 9.30787 14.5668 9.30787C14.6985 9.30787 14.8092 9.29607 14.8422 9.29607C14.8752 9.29607 14.9621 9.39495 14.9515 9.42776C14.9411 9.4608 14.8422 9.45018 14.8422 9.45018C14.8422 9.45018 14.8304 9.38433 14.6881 9.45018C14.5458 9.51602 14.534 9.5054 14.4471 9.58187C14.3589 9.65833 14.3258 9.65833 14.26 9.65833C14.1941 9.65833 14.007 9.62553 13.9636 9.59249C13.9201 9.55945 13.8647 9.4608 13.7988 9.4726C13.733 9.48322 13.5248 9.54906 13.4918 9.71355C13.4524 9.9059 13.4812 10.1549 13.3929 10.33C13.3823 10.3524 13.3679 10.3722 13.3561 10.3932C13.2006 10.6845 13.6157 10.8044 13.48 11.0968C13.4142 11.2391 13.4366 11.3708 13.5352 11.4696C13.6341 11.5685 13.7764 11.6237 13.7764 11.7554C13.7764 11.8871 13.7764 12.0412 13.8092 12.1071C13.8423 12.1729 13.7882 12.3046 13.6893 12.4141C13.5905 12.5234 13.4139 12.779 13.5128 12.8974C13.543 12.9331 13.5853 13.5087 13.7328 13.4837C13.8803 13.4601 13.8486 13.2453 13.9303 13.452C14.0119 13.6576 13.9883 13.6984 14.1358 13.954C14.2848 14.2082 14.3992 14.8433 14.3992 14.8433C14.3992 14.8433 14.5732 15.1963 14.3834 15.6575C14.2135 16.0723 13.8564 16.5071 13.7616 16.7943C13.8696 16.7877 13.9645 16.7483 14.0778 16.6626C14.2435 16.5384 14.3001 16.5885 14.3832 16.5713Z"/>
</mask>
<path d="M14.3832 16.5713C14.4648 16.5554 14.6296 16.7688 14.6546 16.8677C14.6796 16.9666 14.7705 16.9335 15.0749 16.9994C15.3791 17.0652 15.2396 17.0166 15.4121 16.9994C15.5847 16.9835 15.6097 16.8677 15.6427 16.8018C15.6758 16.736 15.8811 16.6952 15.9061 16.7029C15.9311 16.711 16.0458 16.7452 16.1565 16.7452C16.2672 16.7452 16.2355 16.5054 16.2355 16.5054C16.2355 16.5054 16.2278 16.4568 16.1947 16.1604C16.1617 15.864 16.1289 16.0115 16.1947 15.8798C16.2606 15.7481 16.3264 15.7889 16.3672 15.7323C16.4081 15.6742 16.4831 15.5598 16.4911 15.5347C16.4989 15.5097 16.4661 15.4108 16.4581 15.378C16.4489 15.345 16.3342 15.2792 16.2355 15.1397C16.1367 14.9988 16.2355 14.9988 16.3422 14.9013C16.4489 14.8013 16.532 14.958 16.6148 15.041C16.6965 15.1227 16.7465 15.2794 16.8204 15.4191C16.8942 15.56 16.9351 15.4519 17.1826 15.4191C17.429 15.3861 17.4368 15.2794 17.5685 15.1399C17.7002 14.999 17.7002 14.9424 17.7174 14.9174C17.7346 14.8923 17.8979 14.8435 17.973 14.7276C18.0466 14.6129 17.9638 14.4642 17.948 14.3495C17.9321 14.2337 17.8571 14.1112 17.7662 13.9318C17.6766 13.7527 17.5279 13.7475 17.4052 13.6909C17.2813 13.6328 17.0918 13.567 16.9679 13.4051C16.844 13.2432 17.0259 13.3366 17.1418 13.3366C17.2565 13.3366 17.4368 13.3286 17.4948 13.2049C17.5527 13.081 17.6846 13.0891 17.8743 13.0324C18.0641 12.9744 18.0641 12.7438 18.0799 12.703C18.0957 12.6621 18.2116 12.5213 18.2446 12.4724C18.2774 12.4224 18.3355 12.4224 18.3593 12.4143C18.3843 12.4066 18.9113 12.3815 19.1497 12.3735C19.3895 12.3643 19.2986 12.2904 19.3472 12.2246C19.3972 12.1588 19.3472 12.1007 19.3472 12.0349C19.3472 11.969 19.1339 11.969 19.0758 11.9532C19.0178 11.9374 18.566 11.9032 18.4013 11.9204C18.2366 11.9374 18.3024 11.9862 18.1866 12.0851C18.0719 12.184 18.014 12.176 17.8085 12.1694C17.6029 12.1642 17.6688 11.9612 17.6846 11.9032C17.7004 11.8465 17.8413 11.7476 17.8901 11.6898C17.9402 11.6318 17.9732 11.4843 17.989 11.3856C18.0063 11.2867 17.8007 11.1789 17.7835 11.097C17.7665 11.0153 18.0218 10.9573 18.1207 10.9072C18.2196 10.8586 18.5252 10.7097 18.5488 10.7017C18.5568 10.6991 18.5856 10.6977 18.6265 10.6977C18.6383 10.6793 18.6501 10.6543 18.6567 10.6108C18.6803 10.4303 18.7133 10.4133 18.8122 10.2736C18.9111 10.1339 18.87 10.1339 18.7964 9.98496C18.7225 9.83746 18.6317 9.78742 18.5738 9.59768C18.5158 9.40935 18.5989 9.29347 18.6449 9.24863C18.6909 9.20379 18.878 9.26043 18.9939 9.24462C19.1086 9.22739 19.1745 9.26043 19.2573 9.24462C19.3389 9.22739 19.347 9.14574 19.3389 9.04709C19.3309 8.94821 19.2073 8.939 19.1334 8.87859C19.0598 8.81675 19.0345 8.9154 19.0095 8.92343C18.9859 8.93145 18.8778 8.92343 18.7711 8.87859C18.6645 8.83257 18.6722 8.84177 18.6472 8.66784C18.6222 8.49532 18.7461 8.6348 18.812 8.62701C18.8778 8.61922 18.9517 8.52034 19.0425 8.38865C19.1334 8.25696 19.1834 8.28056 19.397 8.27277C19.6103 8.26475 19.5695 8.27277 19.6354 8.22392C19.7012 8.17389 19.6762 8.05919 19.6854 7.91051C19.6932 7.76301 19.7671 7.78803 19.8737 7.69717C19.9818 7.60631 19.9634 7.48241 19.9634 7.48241C19.9832 7.42577 19.9476 7.3611 19.899 7.32429C19.8501 7.28747 19.7909 7.26906 19.7383 7.23862C19.6066 7.16617 19.5169 7.02527 19.5063 6.87494C19.5037 6.84733 19.5063 6.81689 19.5143 6.78928C19.4459 6.71942 19.3536 6.43103 19.2759 6.40979C19.1995 6.38737 19.0784 6.48625 19.0019 6.48625C18.9255 6.48625 18.8596 6.23326 18.8372 6.06853C18.8148 5.9038 18.7607 6.09095 18.6501 5.92622C18.5408 5.76149 18.5302 5.79453 18.3537 5.77211C18.1783 5.75111 18.2007 5.75111 18.0797 5.70627C17.9586 5.66284 17.9373 5.39923 17.8925 5.32301C17.8491 5.24536 17.4974 5.32301 17.4974 5.32301C17.4974 5.32301 17.3882 5.25716 17.3658 5.12547C17.3447 4.99378 17.3776 4.8831 17.3658 4.83968C17.3551 4.79625 17.3447 4.78422 17.201 4.78422C17.0587 4.78422 17.0587 4.78421 17.0153 4.68533C16.9704 4.58645 16.9823 4.46656 16.9376 4.34549C16.8942 4.22418 16.8612 4.35611 16.7071 4.34549C16.5515 4.33487 16.6306 4.29027 16.5648 4.14796C16.4989 4.00565 16.5095 3.96081 16.5213 3.91739C16.532 3.87255 16.6743 3.7857 16.6979 3.62097C16.7215 3.45624 16.6861 3.42344 16.6965 3.32455C16.7071 3.22567 16.6637 3.1046 16.6202 2.98471C16.5754 2.86341 16.4227 2.99533 16.4003 3.05055C16.3779 3.1046 16.3899 3.17044 16.2804 3.30213C16.1723 3.43382 16.2131 3.34697 16.1591 3.34697C16.1039 3.34697 16.0602 3.2259 15.9944 3.16006C15.9285 3.09422 15.8509 3.05079 15.8072 2.98495C15.7638 2.9191 15.7083 2.80842 15.7083 2.72157C15.7083 2.63331 15.7638 2.52404 15.8176 2.43577C15.8728 2.34751 16.0047 2.43577 16.1034 2.43577C16.2023 2.43577 16.2127 2.36993 16.2681 2.26066C16.3233 2.14998 16.1798 2.1724 16.0706 2.19482C15.9613 2.21724 15.9823 2.16202 15.8834 2.11718C15.7845 2.07375 15.8834 1.95245 15.8834 1.83256C15.8834 1.71125 15.587 1.73367 15.4777 1.77733C15.3685 1.82076 15.4013 1.89864 15.4013 2.0079V2.15139C15.4013 2.15281 15.313 2.24886 15.2037 2.14998C15.0931 2.05109 14.9614 2.16178 14.8625 2.14998C14.7636 2.13936 14.6768 2.10655 14.512 1.98525C14.512 1.98525 14.3355 1.79952 14.3249 1.75468C14.3143 1.71125 14.1377 1.57956 14.0391 1.5359C13.9402 1.49106 13.9732 1.73344 13.8968 1.79928C13.8203 1.86513 13.7545 1.76648 13.6558 1.7004C13.5569 1.63455 13.4463 1.33814 13.3476 1.28268C13.2487 1.22722 13.1288 1.22722 13.0842 1.22722C13.0408 1.22722 12.843 1.11795 12.843 1.03747C12.843 0.958411 12.6889 0.788493 12.6125 0.755453C12.536 0.722648 12.4477 0.798875 12.3925 0.847727C12.3385 0.895163 12.3057 0.930799 12.1516 1.00443C11.9974 1.07688 12.0092 1.01883 11.921 0.952983C11.8327 0.887139 11.668 1.00443 11.668 1.00443C11.668 1.00443 11.2399 0.920179 11.1858 0.876755C11.1306 0.831915 10.8776 0.745067 10.8012 0.745067C10.7247 0.745067 10.6364 0.810913 10.5706 0.830737C10.5047 0.850561 10.3834 0.963842 10.3072 0.996646C10.2308 1.02969 9.85669 0.942598 9.704 0.831914C9.64995 0.792502 9.57349 0.759464 9.49584 0.733032C9.49325 0.805484 9.47082 0.855516 9.42858 0.86472C9.3297 0.88714 9.08874 0.986024 9.13217 1.17294C9.17701 1.35867 9.36273 1.5234 9.37453 1.56824C9.38515 1.61166 9.56027 1.67751 9.2969 1.78677C9.03352 1.89746 9.00048 1.77639 8.76991 1.87504C8.53933 1.97392 8.58417 2.18208 8.29837 2.19388C8.01258 2.2045 7.72797 2.18207 7.73859 2.00696C7.74921 1.83185 7.92573 1.62228 7.85988 1.5234C7.79404 1.42451 7.28806 1.35867 7.22221 1.41413C7.15637 1.46935 6.78349 1.66712 6.62938 1.67751C6.47645 1.68789 6.2237 1.67751 6.14723 1.84223C6.06959 2.00696 5.75217 2.19529 5.75217 2.19529C5.75217 2.19529 5.43333 2.14927 5.11449 2.02938C4.79707 1.90808 4.46762 1.62228 4.28071 1.60128C4.09356 1.57886 3.99491 1.63408 3.67725 1.65532C3.35841 1.67774 3.08442 1.70016 2.89727 1.67774C2.71012 1.65532 2.46916 1.60128 2.42574 1.57886C2.3809 1.55644 2.11752 1.29306 2.05168 1.45755C1.98584 1.62228 1.89899 1.78677 1.89899 2.03977C1.89899 2.29276 1.94241 2.43507 1.83315 2.52333C1.72246 2.61018 1.62357 2.61018 1.59077 2.64322C1.55797 2.67626 1.55797 2.92902 1.54735 2.99486C1.53673 3.0607 1.28397 3.23582 1.28397 3.23582C1.28397 3.23582 0.691138 3.67572 0.658098 3.96034C0.625294 4.24614 0.647713 4.42148 0.800406 4.48733C0.954514 4.55317 1.09682 4.56497 1.12986 4.63105C1.16267 4.69689 1.15228 4.78374 1.27335 4.79578C1.39324 4.8064 1.62381 4.79578 1.62381 4.79578C1.62381 4.79578 1.76754 4.81678 1.64623 4.86162C1.52493 4.90505 1.43808 4.92747 1.36044 4.97089C1.28397 5.01432 1.09706 5.23427 1.12986 5.32253C1.16267 5.40938 1.22875 5.35557 1.82158 5.81648C2.41441 6.27762 2.65679 6.65051 2.99663 6.73877C3.33647 6.82562 3.31546 6.72697 3.60008 6.81524C3.88588 6.9035 4.13887 7.02339 4.31398 7.06823C4.48909 7.11165 4.7645 7.06823 4.7645 7.06823C4.7645 7.06823 4.92923 6.83765 5.08192 6.76001C5.23603 6.68355 5.60891 6.66113 5.60891 6.66113L5.89471 6.59528L6.19113 6.31067C6.19113 6.31067 6.32282 6.38713 6.36624 6.44235C6.41108 6.4964 6.56377 6.54124 6.62962 6.51882C6.69546 6.4964 6.80615 6.26582 6.89299 6.19998C6.98126 6.13414 7.33313 5.90356 7.33313 5.90356C7.33313 5.90356 7.50825 6.1011 7.17903 6.26583C6.84981 6.43055 6.76154 6.56224 6.49793 6.9245C6.23455 7.28676 6.24636 7.79275 5.93814 7.80313C5.6311 7.81352 5.58768 7.61598 5.37834 7.66082C5.17019 7.70425 5.01608 7.78071 4.93962 7.90178C4.86315 8.02308 4.80793 8.18758 4.64321 8.17578C4.47848 8.16516 4.3574 8.06651 4.19267 8.08893C4.02795 8.10993 3.88564 8.14297 3.78699 8.28646C3.68811 8.42877 3.65531 8.45119 3.46816 8.47219C3.28243 8.49461 3.21658 8.48399 3.04005 8.47219C2.86471 8.46157 2.64475 8.45119 2.63436 8.37331C2.62374 8.29684 2.78847 8.16516 2.79909 8.13235C2.80971 8.09931 2.85456 7.95724 2.74387 7.9124C2.6346 7.86898 2.44746 7.82555 2.31577 7.82555C2.18408 7.82555 2.05239 7.84656 2.00873 7.94544C1.9653 8.04433 1.87704 7.95724 1.94288 8.40659C2.00873 8.85711 1.94288 9.06526 2.77691 9.72394C3.61211 10.3826 3.85307 10.8662 3.90853 10.932C3.96258 10.9979 4.34725 10.932 4.34725 10.932C4.34725 10.932 4.46856 11.1296 4.4131 11.1626C4.35788 11.1956 4.17215 11.1402 4.24838 11.2943C4.32484 11.4484 4.38006 11.5024 4.38006 11.5024C4.38006 11.5024 5.7963 13.1821 6.31267 13.5998C6.82762 14.0173 7.32181 14.3467 7.91464 14.3798C8.50748 14.4128 9.85763 13.8528 10.1765 13.7421C10.4953 13.6328 11.6031 13.1164 11.7796 13.0624C11.9547 13.0072 12.0536 12.9411 12.0536 12.7766C12.0536 12.6119 12.1195 12.3709 12.2736 12.2272C12.4265 12.0849 12.4791 12.2496 12.5568 11.9098C12.6358 11.5685 12.7017 11.4158 12.6568 11.1522C12.6134 10.8888 12.5013 10.9426 12.5568 10.6911C12.6134 10.4381 12.8109 10.3064 12.7781 10.1747C12.7453 10.043 12.6689 10.0206 12.6793 9.91132C12.6899 9.80205 12.8216 9.68075 12.8874 9.60429C12.9532 9.52664 13.0191 9.52664 13.0521 9.40675C13.0852 9.28569 13.118 9.14338 13.1628 9.02208C13.2062 8.90077 13.2393 8.73628 13.2721 8.85735C13.3049 8.97865 13.3049 9.11034 13.3049 9.15376C13.3049 9.19719 13.2943 9.36192 13.2943 9.36192C13.2943 9.36192 13.3707 9.40675 13.459 9.40675C13.5458 9.40675 13.6237 9.40676 13.6896 9.34091C13.7554 9.27507 13.766 9.20922 13.8319 9.20922C13.8977 9.20922 13.9636 9.16438 14.007 9.29607C14.0518 9.42776 14.0846 9.42776 14.1507 9.45018C14.2166 9.4726 14.3034 9.48298 14.3692 9.42776C14.4351 9.37371 14.4351 9.30787 14.5668 9.30787C14.6985 9.30787 14.8092 9.29607 14.8422 9.29607C14.8752 9.29607 14.9621 9.39495 14.9515 9.42776C14.9411 9.4608 14.8422 9.45018 14.8422 9.45018C14.8422 9.45018 14.8304 9.38433 14.6881 9.45018C14.5458 9.51602 14.534 9.5054 14.4471 9.58187C14.3589 9.65833 14.3258 9.65833 14.26 9.65833C14.1941 9.65833 14.007 9.62553 13.9636 9.59249C13.9201 9.55945 13.8647 9.4608 13.7988 9.4726C13.733 9.48322 13.5248 9.54906 13.4918 9.71355C13.4524 9.9059 13.4812 10.1549 13.3929 10.33C13.3823 10.3524 13.3679 10.3722 13.3561 10.3932C13.2006 10.6845 13.6157 10.8044 13.48 11.0968C13.4142 11.2391 13.4366 11.3708 13.5352 11.4696C13.6341 11.5685 13.7764 11.6237 13.7764 11.7554C13.7764 11.8871 13.7764 12.0412 13.8092 12.1071C13.8423 12.1729 13.7882 12.3046 13.6893 12.4141C13.5905 12.5234 13.4139 12.779 13.5128 12.8974C13.543 12.9331 13.5853 13.5087 13.7328 13.4837C13.8803 13.4601 13.8486 13.2453 13.9303 13.452C14.0119 13.6576 13.9883 13.6984 14.1358 13.954C14.2848 14.2082 14.3992 14.8433 14.3992 14.8433C14.3992 14.8433 14.5732 15.1963 14.3834 15.6575C14.2135 16.0723 13.8564 16.5071 13.7616 16.7943C13.8696 16.7877 13.9645 16.7483 14.0778 16.6626C14.2435 16.5384 14.3001 16.5885 14.3832 16.5713Z" fill="#E0D47C"/>
<path d="M14.3832 16.5713C14.4648 16.5554 14.6296 16.7688 14.6546 16.8677C14.6796 16.9666 14.7705 16.9335 15.0749 16.9994C15.3791 17.0652 15.2396 17.0166 15.4121 16.9994C15.5847 16.9835 15.6097 16.8677 15.6427 16.8018C15.6758 16.736 15.8811 16.6952 15.9061 16.7029C15.9311 16.711 16.0458 16.7452 16.1565 16.7452C16.2672 16.7452 16.2355 16.5054 16.2355 16.5054C16.2355 16.5054 16.2278 16.4568 16.1947 16.1604C16.1617 15.864 16.1289 16.0115 16.1947 15.8798C16.2606 15.7481 16.3264 15.7889 16.3672 15.7323C16.4081 15.6742 16.4831 15.5598 16.4911 15.5347C16.4989 15.5097 16.4661 15.4108 16.4581 15.378C16.4489 15.345 16.3342 15.2792 16.2355 15.1397C16.1367 14.9988 16.2355 14.9988 16.3422 14.9013C16.4489 14.8013 16.532 14.958 16.6148 15.041C16.6965 15.1227 16.7465 15.2794 16.8204 15.4191C16.8942 15.56 16.9351 15.4519 17.1826 15.4191C17.429 15.3861 17.4368 15.2794 17.5685 15.1399C17.7002 14.999 17.7002 14.9424 17.7174 14.9174C17.7346 14.8923 17.8979 14.8435 17.973 14.7276C18.0466 14.6129 17.9638 14.4642 17.948 14.3495C17.9321 14.2337 17.8571 14.1112 17.7662 13.9318C17.6766 13.7527 17.5279 13.7475 17.4052 13.6909C17.2813 13.6328 17.0918 13.567 16.9679 13.4051C16.844 13.2432 17.0259 13.3366 17.1418 13.3366C17.2565 13.3366 17.4368 13.3286 17.4948 13.2049C17.5527 13.081 17.6846 13.0891 17.8743 13.0324C18.0641 12.9744 18.0641 12.7438 18.0799 12.703C18.0957 12.6621 18.2116 12.5213 18.2446 12.4724C18.2774 12.4224 18.3355 12.4224 18.3593 12.4143C18.3843 12.4066 18.9113 12.3815 19.1497 12.3735C19.3895 12.3643 19.2986 12.2904 19.3472 12.2246C19.3972 12.1588 19.3472 12.1007 19.3472 12.0349C19.3472 11.969 19.1339 11.969 19.0758 11.9532C19.0178 11.9374 18.566 11.9032 18.4013 11.9204C18.2366 11.9374 18.3024 11.9862 18.1866 12.0851C18.0719 12.184 18.014 12.176 17.8085 12.1694C17.6029 12.1642 17.6688 11.9612 17.6846 11.9032C17.7004 11.8465 17.8413 11.7476 17.8901 11.6898C17.9402 11.6318 17.9732 11.4843 17.989 11.3856C18.0063 11.2867 17.8007 11.1789 17.7835 11.097C17.7665 11.0153 18.0218 10.9573 18.1207 10.9072C18.2196 10.8586 18.5252 10.7097 18.5488 10.7017C18.5568 10.6991 18.5856 10.6977 18.6265 10.6977C18.6383 10.6793 18.6501 10.6543 18.6567 10.6108C18.6803 10.4303 18.7133 10.4133 18.8122 10.2736C18.9111 10.1339 18.87 10.1339 18.7964 9.98496C18.7225 9.83746 18.6317 9.78742 18.5738 9.59768C18.5158 9.40935 18.5989 9.29347 18.6449 9.24863C18.6909 9.20379 18.878 9.26043 18.9939 9.24462C19.1086 9.22739 19.1745 9.26043 19.2573 9.24462C19.3389 9.22739 19.347 9.14574 19.3389 9.04709C19.3309 8.94821 19.2073 8.939 19.1334 8.87859C19.0598 8.81675 19.0345 8.9154 19.0095 8.92343C18.9859 8.93145 18.8778 8.92343 18.7711 8.87859C18.6645 8.83257 18.6722 8.84177 18.6472 8.66784C18.6222 8.49532 18.7461 8.6348 18.812 8.62701C18.8778 8.61922 18.9517 8.52034 19.0425 8.38865C19.1334 8.25696 19.1834 8.28056 19.397 8.27277C19.6103 8.26475 19.5695 8.27277 19.6354 8.22392C19.7012 8.17389 19.6762 8.05919 19.6854 7.91051C19.6932 7.76301 19.7671 7.78803 19.8737 7.69717C19.9818 7.60631 19.9634 7.48241 19.9634 7.48241C19.9832 7.42577 19.9476 7.3611 19.899 7.32429C19.8501 7.28747 19.7909 7.26906 19.7383 7.23862C19.6066 7.16617 19.5169 7.02527 19.5063 6.87494C19.5037 6.84733 19.5063 6.81689 19.5143 6.78928C19.4459 6.71942 19.3536 6.43103 19.2759 6.40979C19.1995 6.38737 19.0784 6.48625 19.0019 6.48625C18.9255 6.48625 18.8596 6.23326 18.8372 6.06853C18.8148 5.9038 18.7607 6.09095 18.6501 5.92622C18.5408 5.76149 18.5302 5.79453 18.3537 5.77211C18.1783 5.75111 18.2007 5.75111 18.0797 5.70627C17.9586 5.66284 17.9373 5.39923 17.8925 5.32301C17.8491 5.24536 17.4974 5.32301 17.4974 5.32301C17.4974 5.32301 17.3882 5.25716 17.3658 5.12547C17.3447 4.99378 17.3776 4.8831 17.3658 4.83968C17.3551 4.79625 17.3447 4.78422 17.201 4.78422C17.0587 4.78422 17.0587 4.78421 17.0153 4.68533C16.9704 4.58645 16.9823 4.46656 16.9376 4.34549C16.8942 4.22418 16.8612 4.35611 16.7071 4.34549C16.5515 4.33487 16.6306 4.29027 16.5648 4.14796C16.4989 4.00565 16.5095 3.96081 16.5213 3.91739C16.532 3.87255 16.6743 3.7857 16.6979 3.62097C16.7215 3.45624 16.6861 3.42344 16.6965 3.32455C16.7071 3.22567 16.6637 3.1046 16.6202 2.98471C16.5754 2.86341 16.4227 2.99533 16.4003 3.05055C16.3779 3.1046 16.3899 3.17044 16.2804 3.30213C16.1723 3.43382 16.2131 3.34697 16.1591 3.34697C16.1039 3.34697 16.0602 3.2259 15.9944 3.16006C15.9285 3.09422 15.8509 3.05079 15.8072 2.98495C15.7638 2.9191 15.7083 2.80842 15.7083 2.72157C15.7083 2.63331 15.7638 2.52404 15.8176 2.43577C15.8728 2.34751 16.0047 2.43577 16.1034 2.43577C16.2023 2.43577 16.2127 2.36993 16.2681 2.26066C16.3233 2.14998 16.1798 2.1724 16.0706 2.19482C15.9613 2.21724 15.9823 2.16202 15.8834 2.11718C15.7845 2.07375 15.8834 1.95245 15.8834 1.83256C15.8834 1.71125 15.587 1.73367 15.4777 1.77733C15.3685 1.82076 15.4013 1.89864 15.4013 2.0079V2.15139C15.4013 2.15281 15.313 2.24886 15.2037 2.14998C15.0931 2.05109 14.9614 2.16178 14.8625 2.14998C14.7636 2.13936 14.6768 2.10655 14.512 1.98525C14.512 1.98525 14.3355 1.79952 14.3249 1.75468C14.3143 1.71125 14.1377 1.57956 14.0391 1.5359C13.9402 1.49106 13.9732 1.73344 13.8968 1.79928C13.8203 1.86513 13.7545 1.76648 13.6558 1.7004C13.5569 1.63455 13.4463 1.33814 13.3476 1.28268C13.2487 1.22722 13.1288 1.22722 13.0842 1.22722C13.0408 1.22722 12.843 1.11795 12.843 1.03747C12.843 0.958411 12.6889 0.788493 12.6125 0.755453C12.536 0.722648 12.4477 0.798875 12.3925 0.847727C12.3385 0.895163 12.3057 0.930799 12.1516 1.00443C11.9974 1.07688 12.0092 1.01883 11.921 0.952983C11.8327 0.887139 11.668 1.00443 11.668 1.00443C11.668 1.00443 11.2399 0.920179 11.1858 0.876755C11.1306 0.831915 10.8776 0.745067 10.8012 0.745067C10.7247 0.745067 10.6364 0.810913 10.5706 0.830737C10.5047 0.850561 10.3834 0.963842 10.3072 0.996646C10.2308 1.02969 9.85669 0.942598 9.704 0.831914C9.64995 0.792502 9.57349 0.759464 9.49584 0.733032C9.49325 0.805484 9.47082 0.855516 9.42858 0.86472C9.3297 0.88714 9.08874 0.986024 9.13217 1.17294C9.17701 1.35867 9.36273 1.5234 9.37453 1.56824C9.38515 1.61166 9.56027 1.67751 9.2969 1.78677C9.03352 1.89746 9.00048 1.77639 8.76991 1.87504C8.53933 1.97392 8.58417 2.18208 8.29837 2.19388C8.01258 2.2045 7.72797 2.18207 7.73859 2.00696C7.74921 1.83185 7.92573 1.62228 7.85988 1.5234C7.79404 1.42451 7.28806 1.35867 7.22221 1.41413C7.15637 1.46935 6.78349 1.66712 6.62938 1.67751C6.47645 1.68789 6.2237 1.67751 6.14723 1.84223C6.06959 2.00696 5.75217 2.19529 5.75217 2.19529C5.75217 2.19529 5.43333 2.14927 5.11449 2.02938C4.79707 1.90808 4.46762 1.62228 4.28071 1.60128C4.09356 1.57886 3.99491 1.63408 3.67725 1.65532C3.35841 1.67774 3.08442 1.70016 2.89727 1.67774C2.71012 1.65532 2.46916 1.60128 2.42574 1.57886C2.3809 1.55644 2.11752 1.29306 2.05168 1.45755C1.98584 1.62228 1.89899 1.78677 1.89899 2.03977C1.89899 2.29276 1.94241 2.43507 1.83315 2.52333C1.72246 2.61018 1.62357 2.61018 1.59077 2.64322C1.55797 2.67626 1.55797 2.92902 1.54735 2.99486C1.53673 3.0607 1.28397 3.23582 1.28397 3.23582C1.28397 3.23582 0.691138 3.67572 0.658098 3.96034C0.625294 4.24614 0.647713 4.42148 0.800406 4.48733C0.954514 4.55317 1.09682 4.56497 1.12986 4.63105C1.16267 4.69689 1.15228 4.78374 1.27335 4.79578C1.39324 4.8064 1.62381 4.79578 1.62381 4.79578C1.62381 4.79578 1.76754 4.81678 1.64623 4.86162C1.52493 4.90505 1.43808 4.92747 1.36044 4.97089C1.28397 5.01432 1.09706 5.23427 1.12986 5.32253C1.16267 5.40938 1.22875 5.35557 1.82158 5.81648C2.41441 6.27762 2.65679 6.65051 2.99663 6.73877C3.33647 6.82562 3.31546 6.72697 3.60008 6.81524C3.88588 6.9035 4.13887 7.02339 4.31398 7.06823C4.48909 7.11165 4.7645 7.06823 4.7645 7.06823C4.7645 7.06823 4.92923 6.83765 5.08192 6.76001C5.23603 6.68355 5.60891 6.66113 5.60891 6.66113L5.89471 6.59528L6.19113 6.31067C6.19113 6.31067 6.32282 6.38713 6.36624 6.44235C6.41108 6.4964 6.56377 6.54124 6.62962 6.51882C6.69546 6.4964 6.80615 6.26582 6.89299 6.19998C6.98126 6.13414 7.33313 5.90356 7.33313 5.90356C7.33313 5.90356 7.50825 6.1011 7.17903 6.26583C6.84981 6.43055 6.76154 6.56224 6.49793 6.9245C6.23455 7.28676 6.24636 7.79275 5.93814 7.80313C5.6311 7.81352 5.58768 7.61598 5.37834 7.66082C5.17019 7.70425 5.01608 7.78071 4.93962 7.90178C4.86315 8.02308 4.80793 8.18758 4.64321 8.17578C4.47848 8.16516 4.3574 8.06651 4.19267 8.08893C4.02795 8.10993 3.88564 8.14297 3.78699 8.28646C3.68811 8.42877 3.65531 8.45119 3.46816 8.47219C3.28243 8.49461 3.21658 8.48399 3.04005 8.47219C2.86471 8.46157 2.64475 8.45119 2.63436 8.37331C2.62374 8.29684 2.78847 8.16516 2.79909 8.13235C2.80971 8.09931 2.85456 7.95724 2.74387 7.9124C2.6346 7.86898 2.44746 7.82555 2.31577 7.82555C2.18408 7.82555 2.05239 7.84656 2.00873 7.94544C1.9653 8.04433 1.87704 7.95724 1.94288 8.40659C2.00873 8.85711 1.94288 9.06526 2.77691 9.72394C3.61211 10.3826 3.85307 10.8662 3.90853 10.932C3.96258 10.9979 4.34725 10.932 4.34725 10.932C4.34725 10.932 4.46856 11.1296 4.4131 11.1626C4.35788 11.1956 4.17215 11.1402 4.24838 11.2943C4.32484 11.4484 4.38006 11.5024 4.38006 11.5024C4.38006 11.5024 5.7963 13.1821 6.31267 13.5998C6.82762 14.0173 7.32181 14.3467 7.91464 14.3798C8.50748 14.4128 9.85763 13.8528 10.1765 13.7421C10.4953 13.6328 11.6031 13.1164 11.7796 13.0624C11.9547 13.0072 12.0536 12.9411 12.0536 12.7766C12.0536 12.6119 12.1195 12.3709 12.2736 12.2272C12.4265 12.0849 12.4791 12.2496 12.5568 11.9098C12.6358 11.5685 12.7017 11.4158 12.6568 11.1522C12.6134 10.8888 12.5013 10.9426 12.5568 10.6911C12.6134 10.4381 12.8109 10.3064 12.7781 10.1747C12.7453 10.043 12.6689 10.0206 12.6793 9.91132C12.6899 9.80205 12.8216 9.68075 12.8874 9.60429C12.9532 9.52664 13.0191 9.52664 13.0521 9.40675C13.0852 9.28569 13.118 9.14338 13.1628 9.02208C13.2062 8.90077 13.2393 8.73628 13.2721 8.85735C13.3049 8.97865 13.3049 9.11034 13.3049 9.15376C13.3049 9.19719 13.2943 9.36192 13.2943 9.36192C13.2943 9.36192 13.3707 9.40675 13.459 9.40675C13.5458 9.40675 13.6237 9.40676 13.6896 9.34091C13.7554 9.27507 13.766 9.20922 13.8319 9.20922C13.8977 9.20922 13.9636 9.16438 14.007 9.29607C14.0518 9.42776 14.0846 9.42776 14.1507 9.45018C14.2166 9.4726 14.3034 9.48298 14.3692 9.42776C14.4351 9.37371 14.4351 9.30787 14.5668 9.30787C14.6985 9.30787 14.8092 9.29607 14.8422 9.29607C14.8752 9.29607 14.9621 9.39495 14.9515 9.42776C14.9411 9.4608 14.8422 9.45018 14.8422 9.45018C14.8422 9.45018 14.8304 9.38433 14.6881 9.45018C14.5458 9.51602 14.534 9.5054 14.4471 9.58187C14.3589 9.65833 14.3258 9.65833 14.26 9.65833C14.1941 9.65833 14.007 9.62553 13.9636 9.59249C13.9201 9.55945 13.8647 9.4608 13.7988 9.4726C13.733 9.48322 13.5248 9.54906 13.4918 9.71355C13.4524 9.9059 13.4812 10.1549 13.3929 10.33C13.3823 10.3524 13.3679 10.3722 13.3561 10.3932C13.2006 10.6845 13.6157 10.8044 13.48 11.0968C13.4142 11.2391 13.4366 11.3708 13.5352 11.4696C13.6341 11.5685 13.7764 11.6237 13.7764 11.7554C13.7764 11.8871 13.7764 12.0412 13.8092 12.1071C13.8423 12.1729 13.7882 12.3046 13.6893 12.4141C13.5905 12.5234 13.4139 12.779 13.5128 12.8974C13.543 12.9331 13.5853 13.5087 13.7328 13.4837C13.8803 13.4601 13.8486 13.2453 13.9303 13.452C14.0119 13.6576 13.9883 13.6984 14.1358 13.954C14.2848 14.2082 14.3992 14.8433 14.3992 14.8433C14.3992 14.8433 14.5732 15.1963 14.3834 15.6575C14.2135 16.0723 13.8564 16.5071 13.7616 16.7943C13.8696 16.7877 13.9645 16.7483 14.0778 16.6626C14.2435 16.5384 14.3001 16.5885 14.3832 16.5713Z" fill="url(#paint0_linear_1571_9890)"/>
<path d="M14.3832 16.5713C14.4648 16.5554 14.6296 16.7688 14.6546 16.8677C14.6796 16.9666 14.7705 16.9335 15.0749 16.9994C15.3791 17.0652 15.2396 17.0166 15.4121 16.9994C15.5847 16.9835 15.6097 16.8677 15.6427 16.8018C15.6758 16.736 15.8811 16.6952 15.9061 16.7029C15.9311 16.711 16.0458 16.7452 16.1565 16.7452C16.2672 16.7452 16.2355 16.5054 16.2355 16.5054C16.2355 16.5054 16.2278 16.4568 16.1947 16.1604C16.1617 15.864 16.1289 16.0115 16.1947 15.8798C16.2606 15.7481 16.3264 15.7889 16.3672 15.7323C16.4081 15.6742 16.4831 15.5598 16.4911 15.5347C16.4989 15.5097 16.4661 15.4108 16.4581 15.378C16.4489 15.345 16.3342 15.2792 16.2355 15.1397C16.1367 14.9988 16.2355 14.9988 16.3422 14.9013C16.4489 14.8013 16.532 14.958 16.6148 15.041C16.6965 15.1227 16.7465 15.2794 16.8204 15.4191C16.8942 15.56 16.9351 15.4519 17.1826 15.4191C17.429 15.3861 17.4368 15.2794 17.5685 15.1399C17.7002 14.999 17.7002 14.9424 17.7174 14.9174C17.7346 14.8923 17.8979 14.8435 17.973 14.7276C18.0466 14.6129 17.9638 14.4642 17.948 14.3495C17.9321 14.2337 17.8571 14.1112 17.7662 13.9318C17.6766 13.7527 17.5279 13.7475 17.4052 13.6909C17.2813 13.6328 17.0918 13.567 16.9679 13.4051C16.844 13.2432 17.0259 13.3366 17.1418 13.3366C17.2565 13.3366 17.4368 13.3286 17.4948 13.2049C17.5527 13.081 17.6846 13.0891 17.8743 13.0324C18.0641 12.9744 18.0641 12.7438 18.0799 12.703C18.0957 12.6621 18.2116 12.5213 18.2446 12.4724C18.2774 12.4224 18.3355 12.4224 18.3593 12.4143C18.3843 12.4066 18.9113 12.3815 19.1497 12.3735C19.3895 12.3643 19.2986 12.2904 19.3472 12.2246C19.3972 12.1588 19.3472 12.1007 19.3472 12.0349C19.3472 11.969 19.1339 11.969 19.0758 11.9532C19.0178 11.9374 18.566 11.9032 18.4013 11.9204C18.2366 11.9374 18.3024 11.9862 18.1866 12.0851C18.0719 12.184 18.014 12.176 17.8085 12.1694C17.6029 12.1642 17.6688 11.9612 17.6846 11.9032C17.7004 11.8465 17.8413 11.7476 17.8901 11.6898C17.9402 11.6318 17.9732 11.4843 17.989 11.3856C18.0063 11.2867 17.8007 11.1789 17.7835 11.097C17.7665 11.0153 18.0218 10.9573 18.1207 10.9072C18.2196 10.8586 18.5252 10.7097 18.5488 10.7017C18.5568 10.6991 18.5856 10.6977 18.6265 10.6977C18.6383 10.6793 18.6501 10.6543 18.6567 10.6108C18.6803 10.4303 18.7133 10.4133 18.8122 10.2736C18.9111 10.1339 18.87 10.1339 18.7964 9.98496C18.7225 9.83746 18.6317 9.78742 18.5738 9.59768C18.5158 9.40935 18.5989 9.29347 18.6449 9.24863C18.6909 9.20379 18.878 9.26043 18.9939 9.24462C19.1086 9.22739 19.1745 9.26043 19.2573 9.24462C19.3389 9.22739 19.347 9.14574 19.3389 9.04709C19.3309 8.94821 19.2073 8.939 19.1334 8.87859C19.0598 8.81675 19.0345 8.9154 19.0095 8.92343C18.9859 8.93145 18.8778 8.92343 18.7711 8.87859C18.6645 8.83257 18.6722 8.84177 18.6472 8.66784C18.6222 8.49532 18.7461 8.6348 18.812 8.62701C18.8778 8.61922 18.9517 8.52034 19.0425 8.38865C19.1334 8.25696 19.1834 8.28056 19.397 8.27277C19.6103 8.26475 19.5695 8.27277 19.6354 8.22392C19.7012 8.17389 19.6762 8.05919 19.6854 7.91051C19.6932 7.76301 19.7671 7.78803 19.8737 7.69717C19.9818 7.60631 19.9634 7.48241 19.9634 7.48241C19.9832 7.42577 19.9476 7.3611 19.899 7.32429C19.8501 7.28747 19.7909 7.26906 19.7383 7.23862C19.6066 7.16617 19.5169 7.02527 19.5063 6.87494C19.5037 6.84733 19.5063 6.81689 19.5143 6.78928C19.4459 6.71942 19.3536 6.43103 19.2759 6.40979C19.1995 6.38737 19.0784 6.48625 19.0019 6.48625C18.9255 6.48625 18.8596 6.23326 18.8372 6.06853C18.8148 5.9038 18.7607 6.09095 18.6501 5.92622C18.5408 5.76149 18.5302 5.79453 18.3537 5.77211C18.1783 5.75111 18.2007 5.75111 18.0797 5.70627C17.9586 5.66284 17.9373 5.39923 17.8925 5.32301C17.8491 5.24536 17.4974 5.32301 17.4974 5.32301C17.4974 5.32301 17.3882 5.25716 17.3658 5.12547C17.3447 4.99378 17.3776 4.8831 17.3658 4.83968C17.3551 4.79625 17.3447 4.78422 17.201 4.78422C17.0587 4.78422 17.0587 4.78421 17.0153 4.68533C16.9704 4.58645 16.9823 4.46656 16.9376 4.34549C16.8942 4.22418 16.8612 4.35611 16.7071 4.34549C16.5515 4.33487 16.6306 4.29027 16.5648 4.14796C16.4989 4.00565 16.5095 3.96081 16.5213 3.91739C16.532 3.87255 16.6743 3.7857 16.6979 3.62097C16.7215 3.45624 16.6861 3.42344 16.6965 3.32455C16.7071 3.22567 16.6637 3.1046 16.6202 2.98471C16.5754 2.86341 16.4227 2.99533 16.4003 3.05055C16.3779 3.1046 16.3899 3.17044 16.2804 3.30213C16.1723 3.43382 16.2131 3.34697 16.1591 3.34697C16.1039 3.34697 16.0602 3.2259 15.9944 3.16006C15.9285 3.09422 15.8509 3.05079 15.8072 2.98495C15.7638 2.9191 15.7083 2.80842 15.7083 2.72157C15.7083 2.63331 15.7638 2.52404 15.8176 2.43577C15.8728 2.34751 16.0047 2.43577 16.1034 2.43577C16.2023 2.43577 16.2127 2.36993 16.2681 2.26066C16.3233 2.14998 16.1798 2.1724 16.0706 2.19482C15.9613 2.21724 15.9823 2.16202 15.8834 2.11718C15.7845 2.07375 15.8834 1.95245 15.8834 1.83256C15.8834 1.71125 15.587 1.73367 15.4777 1.77733C15.3685 1.82076 15.4013 1.89864 15.4013 2.0079V2.15139C15.4013 2.15281 15.313 2.24886 15.2037 2.14998C15.0931 2.05109 14.9614 2.16178 14.8625 2.14998C14.7636 2.13936 14.6768 2.10655 14.512 1.98525C14.512 1.98525 14.3355 1.79952 14.3249 1.75468C14.3143 1.71125 14.1377 1.57956 14.0391 1.5359C13.9402 1.49106 13.9732 1.73344 13.8968 1.79928C13.8203 1.86513 13.7545 1.76648 13.6558 1.7004C13.5569 1.63455 13.4463 1.33814 13.3476 1.28268C13.2487 1.22722 13.1288 1.22722 13.0842 1.22722C13.0408 1.22722 12.843 1.11795 12.843 1.03747C12.843 0.958411 12.6889 0.788493 12.6125 0.755453C12.536 0.722648 12.4477 0.798875 12.3925 0.847727C12.3385 0.895163 12.3057 0.930799 12.1516 1.00443C11.9974 1.07688 12.0092 1.01883 11.921 0.952983C11.8327 0.887139 11.668 1.00443 11.668 1.00443C11.668 1.00443 11.2399 0.920179 11.1858 0.876755C11.1306 0.831915 10.8776 0.745067 10.8012 0.745067C10.7247 0.745067 10.6364 0.810913 10.5706 0.830737C10.5047 0.850561 10.3834 0.963842 10.3072 0.996646C10.2308 1.02969 9.85669 0.942598 9.704 0.831914C9.64995 0.792502 9.57349 0.759464 9.49584 0.733032C9.49325 0.805484 9.47082 0.855516 9.42858 0.86472C9.3297 0.88714 9.08874 0.986024 9.13217 1.17294C9.17701 1.35867 9.36273 1.5234 9.37453 1.56824C9.38515 1.61166 9.56027 1.67751 9.2969 1.78677C9.03352 1.89746 9.00048 1.77639 8.76991 1.87504C8.53933 1.97392 8.58417 2.18208 8.29837 2.19388C8.01258 2.2045 7.72797 2.18207 7.73859 2.00696C7.74921 1.83185 7.92573 1.62228 7.85988 1.5234C7.79404 1.42451 7.28806 1.35867 7.22221 1.41413C7.15637 1.46935 6.78349 1.66712 6.62938 1.67751C6.47645 1.68789 6.2237 1.67751 6.14723 1.84223C6.06959 2.00696 5.75217 2.19529 5.75217 2.19529C5.75217 2.19529 5.43333 2.14927 5.11449 2.02938C4.79707 1.90808 4.46762 1.62228 4.28071 1.60128C4.09356 1.57886 3.99491 1.63408 3.67725 1.65532C3.35841 1.67774 3.08442 1.70016 2.89727 1.67774C2.71012 1.65532 2.46916 1.60128 2.42574 1.57886C2.3809 1.55644 2.11752 1.29306 2.05168 1.45755C1.98584 1.62228 1.89899 1.78677 1.89899 2.03977C1.89899 2.29276 1.94241 2.43507 1.83315 2.52333C1.72246 2.61018 1.62357 2.61018 1.59077 2.64322C1.55797 2.67626 1.55797 2.92902 1.54735 2.99486C1.53673 3.0607 1.28397 3.23582 1.28397 3.23582C1.28397 3.23582 0.691138 3.67572 0.658098 3.96034C0.625294 4.24614 0.647713 4.42148 0.800406 4.48733C0.954514 4.55317 1.09682 4.56497 1.12986 4.63105C1.16267 4.69689 1.15228 4.78374 1.27335 4.79578C1.39324 4.8064 1.62381 4.79578 1.62381 4.79578C1.62381 4.79578 1.76754 4.81678 1.64623 4.86162C1.52493 4.90505 1.43808 4.92747 1.36044 4.97089C1.28397 5.01432 1.09706 5.23427 1.12986 5.32253C1.16267 5.40938 1.22875 5.35557 1.82158 5.81648C2.41441 6.27762 2.65679 6.65051 2.99663 6.73877C3.33647 6.82562 3.31546 6.72697 3.60008 6.81524C3.88588 6.9035 4.13887 7.02339 4.31398 7.06823C4.48909 7.11165 4.7645 7.06823 4.7645 7.06823C4.7645 7.06823 4.92923 6.83765 5.08192 6.76001C5.23603 6.68355 5.60891 6.66113 5.60891 6.66113L5.89471 6.59528L6.19113 6.31067C6.19113 6.31067 6.32282 6.38713 6.36624 6.44235C6.41108 6.4964 6.56377 6.54124 6.62962 6.51882C6.69546 6.4964 6.80615 6.26582 6.89299 6.19998C6.98126 6.13414 7.33313 5.90356 7.33313 5.90356C7.33313 5.90356 7.50825 6.1011 7.17903 6.26583C6.84981 6.43055 6.76154 6.56224 6.49793 6.9245C6.23455 7.28676 6.24636 7.79275 5.93814 7.80313C5.6311 7.81352 5.58768 7.61598 5.37834 7.66082C5.17019 7.70425 5.01608 7.78071 4.93962 7.90178C4.86315 8.02308 4.80793 8.18758 4.64321 8.17578C4.47848 8.16516 4.3574 8.06651 4.19267 8.08893C4.02795 8.10993 3.88564 8.14297 3.78699 8.28646C3.68811 8.42877 3.65531 8.45119 3.46816 8.47219C3.28243 8.49461 3.21658 8.48399 3.04005 8.47219C2.86471 8.46157 2.64475 8.45119 2.63436 8.37331C2.62374 8.29684 2.78847 8.16516 2.79909 8.13235C2.80971 8.09931 2.85456 7.95724 2.74387 7.9124C2.6346 7.86898 2.44746 7.82555 2.31577 7.82555C2.18408 7.82555 2.05239 7.84656 2.00873 7.94544C1.9653 8.04433 1.87704 7.95724 1.94288 8.40659C2.00873 8.85711 1.94288 9.06526 2.77691 9.72394C3.61211 10.3826 3.85307 10.8662 3.90853 10.932C3.96258 10.9979 4.34725 10.932 4.34725 10.932C4.34725 10.932 4.46856 11.1296 4.4131 11.1626C4.35788 11.1956 4.17215 11.1402 4.24838 11.2943C4.32484 11.4484 4.38006 11.5024 4.38006 11.5024C4.38006 11.5024 5.7963 13.1821 6.31267 13.5998C6.82762 14.0173 7.32181 14.3467 7.91464 14.3798C8.50748 14.4128 9.85763 13.8528 10.1765 13.7421C10.4953 13.6328 11.6031 13.1164 11.7796 13.0624C11.9547 13.0072 12.0536 12.9411 12.0536 12.7766C12.0536 12.6119 12.1195 12.3709 12.2736 12.2272C12.4265 12.0849 12.4791 12.2496 12.5568 11.9098C12.6358 11.5685 12.7017 11.4158 12.6568 11.1522C12.6134 10.8888 12.5013 10.9426 12.5568 10.6911C12.6134 10.4381 12.8109 10.3064 12.7781 10.1747C12.7453 10.043 12.6689 10.0206 12.6793 9.91132C12.6899 9.80205 12.8216 9.68075 12.8874 9.60429C12.9532 9.52664 13.0191 9.52664 13.0521 9.40675C13.0852 9.28569 13.118 9.14338 13.1628 9.02208C13.2062 8.90077 13.2393 8.73628 13.2721 8.85735C13.3049 8.97865 13.3049 9.11034 13.3049 9.15376C13.3049 9.19719 13.2943 9.36192 13.2943 9.36192C13.2943 9.36192 13.3707 9.40675 13.459 9.40675C13.5458 9.40675 13.6237 9.40676 13.6896 9.34091C13.7554 9.27507 13.766 9.20922 13.8319 9.20922C13.8977 9.20922 13.9636 9.16438 14.007 9.29607C14.0518 9.42776 14.0846 9.42776 14.1507 9.45018C14.2166 9.4726 14.3034 9.48298 14.3692 9.42776C14.4351 9.37371 14.4351 9.30787 14.5668 9.30787C14.6985 9.30787 14.8092 9.29607 14.8422 9.29607C14.8752 9.29607 14.9621 9.39495 14.9515 9.42776C14.9411 9.4608 14.8422 9.45018 14.8422 9.45018C14.8422 9.45018 14.8304 9.38433 14.6881 9.45018C14.5458 9.51602 14.534 9.5054 14.4471 9.58187C14.3589 9.65833 14.3258 9.65833 14.26 9.65833C14.1941 9.65833 14.007 9.62553 13.9636 9.59249C13.9201 9.55945 13.8647 9.4608 13.7988 9.4726C13.733 9.48322 13.5248 9.54906 13.4918 9.71355C13.4524 9.9059 13.4812 10.1549 13.3929 10.33C13.3823 10.3524 13.3679 10.3722 13.3561 10.3932C13.2006 10.6845 13.6157 10.8044 13.48 11.0968C13.4142 11.2391 13.4366 11.3708 13.5352 11.4696C13.6341 11.5685 13.7764 11.6237 13.7764 11.7554C13.7764 11.8871 13.7764 12.0412 13.8092 12.1071C13.8423 12.1729 13.7882 12.3046 13.6893 12.4141C13.5905 12.5234 13.4139 12.779 13.5128 12.8974C13.543 12.9331 13.5853 13.5087 13.7328 13.4837C13.8803 13.4601 13.8486 13.2453 13.9303 13.452C14.0119 13.6576 13.9883 13.6984 14.1358 13.954C14.2848 14.2082 14.3992 14.8433 14.3992 14.8433C14.3992 14.8433 14.5732 15.1963 14.3834 15.6575C14.2135 16.0723 13.8564 16.5071 13.7616 16.7943C13.8696 16.7877 13.9645 16.7483 14.0778 16.6626C14.2435 16.5384 14.3001 16.5885 14.3832 16.5713Z" stroke="#510A32" stroke-width="0.378007" mask="url(#path-1-inside-1_1571_9890)"/>
<defs>
<linearGradient id="paint0_linear_1571_9890" x1="10.3068" y1="-12.118" x2="10.3068" y2="95.3184" gradientUnits="userSpaceOnUse">
<stop stop-color="#FF984F"/>
<stop offset="0.2978" stop-color="#F37A56"/>
<stop offset="0.9428" stop-color="#D42F67"/>
<stop offset="1" stop-color="#D12869"/>
</linearGradient>
</defs>
</svg>
