<svg width="23" height="17" viewBox="0 0 23 17" fill="none" xmlns="http://www.w3.org/2000/svg">
<mask id="path-1-inside-1_1571_9852" fill="white">
<path d="M16.4347 13.8603C16.4628 13.7686 16.3711 13.7686 16.2038 13.6753C16.0382 13.5836 16.269 13.3424 16.3149 13.2685C16.3607 13.1945 16.4347 12.9459 16.4169 12.8526C16.3992 12.7593 16.2778 12.7328 16.2513 12.6395C16.2232 12.5478 16.2868 12.2518 16.2319 12.1129C16.1773 11.9738 15.9449 11.863 15.8341 11.78C15.775 11.7358 15.7202 11.6321 15.6921 11.5256C15.6727 11.5537 15.6581 11.5847 15.6478 11.6173C15.599 11.7742 15.6611 11.9605 15.5768 12.1042C15.5012 12.0997 15.4273 12.0612 15.3801 12.0034C15.3462 12.0981 15.2322 12.141 15.1331 12.1365C15.0992 12.1349 15.065 12.1291 15.0369 12.1113C14.9362 12.0522 14.9539 11.8982 14.8845 11.8052C14.8193 11.718 14.6714 11.709 14.5959 11.789C14.5678 11.82 14.5455 11.8617 14.5055 11.8733C14.4878 11.8778 14.4687 11.8762 14.4493 11.8733C14.3754 11.8659 14.3014 11.8571 14.2275 11.8481C14.1255 11.8362 14.0173 11.8216 13.9405 11.7548C13.862 11.6867 13.8413 11.5463 13.9243 11.4872C13.9686 11.4546 14.0337 11.4532 14.0709 11.4116C14.1435 11.3332 14.0576 11.1853 14.1315 11.1084C14.1509 11.0878 14.1774 11.0774 14.201 11.0626C14.3195 10.9886 14.3343 10.8243 14.3327 10.6838C14.3311 10.5447 14.3372 10.382 14.4467 10.2964C14.5413 10.224 14.673 10.2373 14.7899 10.2534C14.9142 10.2712 15.0398 10.2889 15.1641 10.3067C15.2203 10.3141 15.2797 10.3215 15.3359 10.3186C15.3003 10.1352 15.3891 10.0626 15.3817 9.93115C15.3727 9.77425 15.1967 9.54341 15.1037 9.21953C15.012 8.8954 15.197 8.82145 15.2797 8.46949C15.364 8.11885 15.0207 7.79498 15.0207 7.76821C15.0207 7.74012 15.1599 6.51063 15.2338 6.2888C15.3078 6.06696 15.6497 5.84487 15.9173 5.63204C16.1866 5.41896 16.3523 5.12318 16.5934 4.74445C16.6764 4.61432 16.7236 4.53428 16.7533 4.48551C16.731 4.42031 16.7193 4.3567 16.7236 4.2931C16.7 4.28408 16.6777 4.27083 16.66 4.25175C16.6406 4.23108 16.6274 4.20431 16.6051 4.18523C16.5712 4.15713 16.5221 4.15263 16.4779 4.15872C16.3875 4.17039 16.3061 4.21332 16.2176 4.23267C16.1304 4.25334 16.0239 4.24142 15.9706 4.16906C15.9603 4.15581 15.9529 4.13805 15.938 4.12904C15.9232 4.12162 15.9054 4.12162 15.8893 4.12162C15.6894 4.12321 15.4912 4.08319 15.3078 4.00633C15.29 3.99891 15.2738 3.99149 15.2619 3.97824C15.2412 3.95306 15.2442 3.91463 15.25 3.88044C15.259 3.82876 15.2958 3.76515 15.2574 3.7193C15.2412 3.70022 15.219 3.68378 15.2025 3.66311C15.167 3.61434 15.1745 3.54782 15.1699 3.48846C15.167 3.44552 15.158 3.40258 15.1477 3.36124C15.1419 3.33314 15.1358 3.30664 15.127 3.27987C15.1034 3.21467 15.0618 3.18234 15.016 3.13649C14.9998 3.11873 14.9863 3.09938 14.9759 3.07871C14.9598 3.05062 14.9463 3.02253 14.9301 2.99443C14.9198 2.97668 14.9094 2.95759 14.893 2.94567C14.8694 2.92632 14.8352 2.92632 14.8058 2.92791C14.6947 2.9295 14.5543 2.91307 14.5217 2.80652C14.5143 2.77843 14.5143 2.74583 14.4965 2.72224C14.4626 2.6809 14.387 2.69706 14.3544 2.65413C14.3412 2.63637 14.3396 2.61119 14.3309 2.59052C14.3189 2.55951 14.294 2.53725 14.2672 2.51817C14.1991 2.46781 14.1209 2.43097 14.038 2.41003C14.0603 2.45429 14.0706 2.50173 14.0616 2.55209C14.0571 2.5831 14.0438 2.61278 14.0216 2.63505C13.967 2.68991 13.8737 2.69123 13.8114 2.74C13.7685 2.77392 13.7152 2.81103 13.6871 2.85847C13.659 2.90591 13.6635 2.96342 13.6722 3.0167C13.6871 3.10548 13.7462 3.13199 13.8143 3.17943C13.9044 3.24595 13.9548 3.34958 14.02 3.43836C14.0894 3.53298 14.1975 3.57751 14.2731 3.66179C14.3367 3.73282 14.3589 3.83035 14.3693 3.92364C14.3783 4.01084 14.3796 4.0983 14.3738 4.18549C14.3722 4.21226 14.3693 4.24035 14.3664 4.26686C14.3635 4.29336 14.3589 4.32013 14.3544 4.34663C14.3454 4.39407 14.3279 4.44867 14.2821 4.46351C14.2466 4.47544 14.2081 4.45609 14.174 4.43992C14.0674 4.38824 13.9505 4.36147 13.8321 4.35988C13.7936 4.35988 13.7536 4.3628 13.7197 4.38056C13.6028 4.44125 13.6264 4.62015 13.5466 4.72537C13.4565 4.84066 13.2803 4.82608 13.1369 4.8009C13.1162 4.86742 13.0998 4.94004 13.1265 5.00498C13.1414 5.03598 13.165 5.06408 13.1814 5.09509C13.2169 5.17062 13.1933 5.26365 13.1446 5.33176C13.0958 5.39988 13.0248 5.44864 12.9551 5.49582C12.927 5.51517 12.893 5.53584 12.8589 5.52841C12.8321 5.52258 12.8146 5.50165 12.7982 5.48098C12.7494 5.41896 12.7123 5.34793 12.6561 5.29307C12.5999 5.23847 12.5156 5.20137 12.443 5.23238C12.3497 5.26948 12.3129 5.39802 12.2151 5.42161C12.1234 5.44228 11.9474 5.28856 11.8955 5.3906C11.8777 5.4232 11.8984 5.51622 11.8851 5.56234C11.8586 5.64662 11.8157 5.72057 11.8022 5.81094C11.7844 5.93683 11.8154 6.07862 11.9116 6.16317C11.9413 6.18676 11.9752 6.20611 11.9975 6.23712C12.0669 6.33465 11.9723 6.47538 11.8615 6.52123C11.7492 6.56708 11.6204 6.56258 11.5125 6.61877C11.4134 6.67045 11.3468 6.76533 11.2684 6.8451C11.1886 6.92355 11.0805 6.99299 10.9726 6.96781C10.7285 6.91454 10.7108 6.4722 10.4622 6.46478C10.2801 6.45895 10.1916 6.70146 10.0198 6.76215C9.80674 6.83901 9.61299 6.61134 9.3954 6.54615C9.3583 6.53581 9.31695 6.52998 9.28144 6.54615C9.25335 6.5594 9.234 6.58457 9.21491 6.60816C9.1248 6.73087 9.04635 6.86418 8.98274 7.00465C8.93398 7.1112 8.89264 7.22516 8.80968 7.30785C8.72832 7.39081 8.58917 7.43215 8.49296 7.36563C8.37158 7.28267 8.39225 7.10086 8.42193 6.95588C8.45162 6.81091 8.45453 6.62301 8.32122 6.5594C8.26662 6.53422 8.20302 6.53872 8.14524 6.52229C8.04161 6.49261 7.96343 6.38925 7.96343 6.28111C7.96184 6.23235 7.97668 6.18199 7.95893 6.13614C7.93242 6.0667 7.84946 6.04152 7.77685 6.02959C7.63028 6.00601 7.48239 5.99699 7.3345 6.00442C7.3019 6.00733 7.26798 6.00892 7.23829 5.99408C7.20861 5.97791 7.19086 5.94823 7.17018 5.92173C7.06656 5.7855 6.87732 5.74124 6.70717 5.759C6.56352 5.77516 6.42597 5.82711 6.29 5.8772C6.30193 5.9098 6.30326 5.94531 6.29292 5.97924C6.26642 6.06643 6.17021 6.11096 6.12277 6.18941C6.0695 6.2766 6.09176 6.4025 6.17154 6.4661C6.27649 6.54747 6.46307 6.56364 6.46599 6.73246C6.4689 6.86127 6.34169 6.9869 6.28259 7.09211C6.23674 7.17639 6.2916 7.2681 6.34779 7.35105C6.40265 7.43401 6.50469 7.50795 6.45884 7.62907C6.41299 7.74887 6.30061 7.69427 6.19989 7.71203C6.09786 7.72978 6.18055 7.97971 6.19989 8.04491C6.21765 8.10984 6.41298 8.23865 6.55053 8.21214C6.68968 8.18405 6.86566 8.09076 6.91151 8.05392C6.95736 8.01681 7.26215 8.00807 7.34643 8.02583C7.42939 8.04517 7.51208 8.26701 7.56827 8.3322C7.62286 8.39581 7.73391 8.39581 7.79009 8.452C7.84469 8.50819 7.8537 8.67383 7.8818 8.71094C7.90989 8.74804 8.16009 8.71094 8.34481 8.68284C8.52981 8.65634 8.61249 8.61764 8.77973 8.58213C8.94538 8.5437 8.90853 8.63699 8.97347 8.77587C9.03707 8.91342 8.97347 9.2092 8.97347 9.33059C8.97347 9.45038 9.09327 9.47847 9.27826 9.57919C9.46325 9.68123 9.4174 9.70057 9.4174 9.79227C9.4174 9.88557 9.30635 9.9876 9.23241 10.0971C9.15847 10.2094 9.31537 10.4315 9.34346 10.6621C9.37155 10.893 9.43516 11.1519 9.49134 11.2539C9.54594 11.3546 9.78712 11.3827 10.0267 11.6237C10.2679 11.8632 10.2117 11.8826 10.2944 11.9936C10.3787 12.1047 10.5162 12.2067 10.7487 12.3072C10.9795 12.4092 11.0815 12.612 11.1361 12.6594C11.1923 12.7053 11.182 12.8251 11.0813 12.8812C10.9792 12.9358 10.8401 13.0559 10.8314 13.1031C10.8223 13.1489 10.8862 13.2687 10.8682 13.2968C10.8504 13.3249 10.7484 13.5557 10.7203 13.6474C10.6922 13.7407 10.7025 13.9167 10.7203 14.0736C10.7381 14.2305 10.9053 14.1476 10.9983 14.1388C11.09 14.1301 11.1817 14.1195 11.34 14.1107C11.4969 14.102 11.4036 14.278 11.4317 14.3045C11.4598 14.3326 11.6254 14.3135 11.7468 14.2957C11.8666 14.278 11.8947 14.1388 11.8947 14.1388C11.8947 14.1388 11.7836 14.0455 11.5899 13.8889C11.3945 13.732 11.6638 13.5648 11.7097 13.556C11.7555 13.547 11.8666 13.5841 12.0232 13.5931C12.1814 13.6019 12.1165 13.4911 12.1904 13.3164C12.2644 13.1404 12.2644 13.1492 12.3842 13.1211C12.504 13.0946 12.439 13.1773 12.513 13.278C12.5869 13.38 12.5973 13.4643 12.7171 13.75C12.8369 14.037 12.9389 13.9082 13.0871 13.824C13.2349 13.741 13.244 13.3994 13.3828 13.3164C13.522 13.2321 13.5678 13.2602 13.6964 13.0752C13.8265 12.8902 13.9921 12.8725 14.0735 12.8534C14.1549 12.8341 14.3619 13.0752 14.39 13.2234C14.418 13.3713 14.2983 13.4542 14.2879 13.6021C14.2789 13.75 14.3441 13.8698 14.3354 14.0742C14.3266 14.2782 14.2879 14.2043 14.1504 14.3241C14.0112 14.4439 14.1045 14.6747 14.1045 14.8597C14.1045 15.0447 14.2702 15.1009 14.3812 15.0269C14.4923 14.953 14.7318 14.666 14.9359 14.6572C15.14 14.6482 15.2969 14.6379 15.334 14.601C15.3708 14.5642 15.5736 14.4441 15.6017 14.416C15.6033 14.4147 15.6062 14.4131 15.6107 14.4102C15.6788 14.3702 16.1063 14.2091 16.1848 14.1306C16.269 14.0453 16.4082 13.9536 16.4347 13.8603Z"/>
</mask>
<path d="M16.4347 13.8603C16.4628 13.7686 16.3711 13.7686 16.2038 13.6753C16.0382 13.5836 16.269 13.3424 16.3149 13.2685C16.3607 13.1945 16.4347 12.9459 16.4169 12.8526C16.3992 12.7593 16.2778 12.7328 16.2513 12.6395C16.2232 12.5478 16.2868 12.2518 16.2319 12.1129C16.1773 11.9738 15.9449 11.863 15.8341 11.78C15.775 11.7358 15.7202 11.6321 15.6921 11.5256C15.6727 11.5537 15.6581 11.5847 15.6478 11.6173C15.599 11.7742 15.6611 11.9605 15.5768 12.1042C15.5012 12.0997 15.4273 12.0612 15.3801 12.0034C15.3462 12.0981 15.2322 12.141 15.1331 12.1365C15.0992 12.1349 15.065 12.1291 15.0369 12.1113C14.9362 12.0522 14.9539 11.8982 14.8845 11.8052C14.8193 11.718 14.6714 11.709 14.5959 11.789C14.5678 11.82 14.5455 11.8617 14.5055 11.8733C14.4878 11.8778 14.4687 11.8762 14.4493 11.8733C14.3754 11.8659 14.3014 11.8571 14.2275 11.8481C14.1255 11.8362 14.0173 11.8216 13.9405 11.7548C13.862 11.6867 13.8413 11.5463 13.9243 11.4872C13.9686 11.4546 14.0337 11.4532 14.0709 11.4116C14.1435 11.3332 14.0576 11.1853 14.1315 11.1084C14.1509 11.0878 14.1774 11.0774 14.201 11.0626C14.3195 10.9886 14.3343 10.8243 14.3327 10.6838C14.3311 10.5447 14.3372 10.382 14.4467 10.2964C14.5413 10.224 14.673 10.2373 14.7899 10.2534C14.9142 10.2712 15.0398 10.2889 15.1641 10.3067C15.2203 10.3141 15.2797 10.3215 15.3359 10.3186C15.3003 10.1352 15.3891 10.0626 15.3817 9.93115C15.3727 9.77425 15.1967 9.54341 15.1037 9.21953C15.012 8.8954 15.197 8.82145 15.2797 8.46949C15.364 8.11885 15.0207 7.79498 15.0207 7.76821C15.0207 7.74012 15.1599 6.51063 15.2338 6.2888C15.3078 6.06696 15.6497 5.84487 15.9173 5.63204C16.1866 5.41896 16.3523 5.12318 16.5934 4.74445C16.6764 4.61432 16.7236 4.53428 16.7533 4.48551C16.731 4.42031 16.7193 4.3567 16.7236 4.2931C16.7 4.28408 16.6777 4.27083 16.66 4.25175C16.6406 4.23108 16.6274 4.20431 16.6051 4.18523C16.5712 4.15713 16.5221 4.15263 16.4779 4.15872C16.3875 4.17039 16.3061 4.21332 16.2176 4.23267C16.1304 4.25334 16.0239 4.24142 15.9706 4.16906C15.9603 4.15581 15.9529 4.13805 15.938 4.12904C15.9232 4.12162 15.9054 4.12162 15.8893 4.12162C15.6894 4.12321 15.4912 4.08319 15.3078 4.00633C15.29 3.99891 15.2738 3.99149 15.2619 3.97824C15.2412 3.95306 15.2442 3.91463 15.25 3.88044C15.259 3.82876 15.2958 3.76515 15.2574 3.7193C15.2412 3.70022 15.219 3.68378 15.2025 3.66311C15.167 3.61434 15.1745 3.54782 15.1699 3.48846C15.167 3.44552 15.158 3.40258 15.1477 3.36124C15.1419 3.33314 15.1358 3.30664 15.127 3.27987C15.1034 3.21467 15.0618 3.18234 15.016 3.13649C14.9998 3.11873 14.9863 3.09938 14.9759 3.07871C14.9598 3.05062 14.9463 3.02253 14.9301 2.99443C14.9198 2.97668 14.9094 2.95759 14.893 2.94567C14.8694 2.92632 14.8352 2.92632 14.8058 2.92791C14.6947 2.9295 14.5543 2.91307 14.5217 2.80652C14.5143 2.77843 14.5143 2.74583 14.4965 2.72224C14.4626 2.6809 14.387 2.69706 14.3544 2.65413C14.3412 2.63637 14.3396 2.61119 14.3309 2.59052C14.3189 2.55951 14.294 2.53725 14.2672 2.51817C14.1991 2.46781 14.1209 2.43097 14.038 2.41003C14.0603 2.45429 14.0706 2.50173 14.0616 2.55209C14.0571 2.5831 14.0438 2.61278 14.0216 2.63505C13.967 2.68991 13.8737 2.69123 13.8114 2.74C13.7685 2.77392 13.7152 2.81103 13.6871 2.85847C13.659 2.90591 13.6635 2.96342 13.6722 3.0167C13.6871 3.10548 13.7462 3.13199 13.8143 3.17943C13.9044 3.24595 13.9548 3.34958 14.02 3.43836C14.0894 3.53298 14.1975 3.57751 14.2731 3.66179C14.3367 3.73282 14.3589 3.83035 14.3693 3.92364C14.3783 4.01084 14.3796 4.0983 14.3738 4.18549C14.3722 4.21226 14.3693 4.24035 14.3664 4.26686C14.3635 4.29336 14.3589 4.32013 14.3544 4.34663C14.3454 4.39407 14.3279 4.44867 14.2821 4.46351C14.2466 4.47544 14.2081 4.45609 14.174 4.43992C14.0674 4.38824 13.9505 4.36147 13.8321 4.35988C13.7936 4.35988 13.7536 4.3628 13.7197 4.38056C13.6028 4.44125 13.6264 4.62015 13.5466 4.72537C13.4565 4.84066 13.2803 4.82608 13.1369 4.8009C13.1162 4.86742 13.0998 4.94004 13.1265 5.00498C13.1414 5.03598 13.165 5.06408 13.1814 5.09509C13.2169 5.17062 13.1933 5.26365 13.1446 5.33176C13.0958 5.39988 13.0248 5.44864 12.9551 5.49582C12.927 5.51517 12.893 5.53584 12.8589 5.52841C12.8321 5.52258 12.8146 5.50165 12.7982 5.48098C12.7494 5.41896 12.7123 5.34793 12.6561 5.29307C12.5999 5.23847 12.5156 5.20137 12.443 5.23238C12.3497 5.26948 12.3129 5.39802 12.2151 5.42161C12.1234 5.44228 11.9474 5.28856 11.8955 5.3906C11.8777 5.4232 11.8984 5.51622 11.8851 5.56234C11.8586 5.64662 11.8157 5.72057 11.8022 5.81094C11.7844 5.93683 11.8154 6.07862 11.9116 6.16317C11.9413 6.18676 11.9752 6.20611 11.9975 6.23712C12.0669 6.33465 11.9723 6.47538 11.8615 6.52123C11.7492 6.56708 11.6204 6.56258 11.5125 6.61877C11.4134 6.67045 11.3468 6.76533 11.2684 6.8451C11.1886 6.92355 11.0805 6.99299 10.9726 6.96781C10.7285 6.91454 10.7108 6.4722 10.4622 6.46478C10.2801 6.45895 10.1916 6.70146 10.0198 6.76215C9.80674 6.83901 9.61299 6.61134 9.3954 6.54615C9.3583 6.53581 9.31695 6.52998 9.28144 6.54615C9.25335 6.5594 9.234 6.58457 9.21491 6.60816C9.1248 6.73087 9.04635 6.86418 8.98274 7.00465C8.93398 7.1112 8.89264 7.22516 8.80968 7.30785C8.72832 7.39081 8.58917 7.43215 8.49296 7.36563C8.37158 7.28267 8.39225 7.10086 8.42193 6.95588C8.45162 6.81091 8.45453 6.62301 8.32122 6.5594C8.26662 6.53422 8.20302 6.53872 8.14524 6.52229C8.04161 6.49261 7.96343 6.38925 7.96343 6.28111C7.96184 6.23235 7.97668 6.18199 7.95893 6.13614C7.93242 6.0667 7.84946 6.04152 7.77685 6.02959C7.63028 6.00601 7.48239 5.99699 7.3345 6.00442C7.3019 6.00733 7.26798 6.00892 7.23829 5.99408C7.20861 5.97791 7.19086 5.94823 7.17018 5.92173C7.06656 5.7855 6.87732 5.74124 6.70717 5.759C6.56352 5.77516 6.42597 5.82711 6.29 5.8772C6.30193 5.9098 6.30326 5.94531 6.29292 5.97924C6.26642 6.06643 6.17021 6.11096 6.12277 6.18941C6.0695 6.2766 6.09176 6.4025 6.17154 6.4661C6.27649 6.54747 6.46307 6.56364 6.46599 6.73246C6.4689 6.86127 6.34169 6.9869 6.28259 7.09211C6.23674 7.17639 6.2916 7.2681 6.34779 7.35105C6.40265 7.43401 6.50469 7.50795 6.45884 7.62907C6.41299 7.74887 6.30061 7.69427 6.19989 7.71203C6.09786 7.72978 6.18055 7.97971 6.19989 8.04491C6.21765 8.10984 6.41298 8.23865 6.55053 8.21214C6.68968 8.18405 6.86566 8.09076 6.91151 8.05392C6.95736 8.01681 7.26215 8.00807 7.34643 8.02583C7.42939 8.04517 7.51208 8.26701 7.56827 8.3322C7.62286 8.39581 7.73391 8.39581 7.79009 8.452C7.84469 8.50819 7.8537 8.67383 7.8818 8.71094C7.90989 8.74804 8.16009 8.71094 8.34481 8.68284C8.52981 8.65634 8.61249 8.61764 8.77973 8.58213C8.94538 8.5437 8.90853 8.63699 8.97347 8.77587C9.03707 8.91342 8.97347 9.2092 8.97347 9.33059C8.97347 9.45038 9.09327 9.47847 9.27826 9.57919C9.46325 9.68123 9.4174 9.70057 9.4174 9.79227C9.4174 9.88557 9.30635 9.9876 9.23241 10.0971C9.15847 10.2094 9.31537 10.4315 9.34346 10.6621C9.37155 10.893 9.43516 11.1519 9.49134 11.2539C9.54594 11.3546 9.78712 11.3827 10.0267 11.6237C10.2679 11.8632 10.2117 11.8826 10.2944 11.9936C10.3787 12.1047 10.5162 12.2067 10.7487 12.3072C10.9795 12.4092 11.0815 12.612 11.1361 12.6594C11.1923 12.7053 11.182 12.8251 11.0813 12.8812C10.9792 12.9358 10.8401 13.0559 10.8314 13.1031C10.8223 13.1489 10.8862 13.2687 10.8682 13.2968C10.8504 13.3249 10.7484 13.5557 10.7203 13.6474C10.6922 13.7407 10.7025 13.9167 10.7203 14.0736C10.7381 14.2305 10.9053 14.1476 10.9983 14.1388C11.09 14.1301 11.1817 14.1195 11.34 14.1107C11.4969 14.102 11.4036 14.278 11.4317 14.3045C11.4598 14.3326 11.6254 14.3135 11.7468 14.2957C11.8666 14.278 11.8947 14.1388 11.8947 14.1388C11.8947 14.1388 11.7836 14.0455 11.5899 13.8889C11.3945 13.732 11.6638 13.5648 11.7097 13.556C11.7555 13.547 11.8666 13.5841 12.0232 13.5931C12.1814 13.6019 12.1165 13.4911 12.1904 13.3164C12.2644 13.1404 12.2644 13.1492 12.3842 13.1211C12.504 13.0946 12.439 13.1773 12.513 13.278C12.5869 13.38 12.5973 13.4643 12.7171 13.75C12.8369 14.037 12.9389 13.9082 13.0871 13.824C13.2349 13.741 13.244 13.3994 13.3828 13.3164C13.522 13.2321 13.5678 13.2602 13.6964 13.0752C13.8265 12.8902 13.9921 12.8725 14.0735 12.8534C14.1549 12.8341 14.3619 13.0752 14.39 13.2234C14.418 13.3713 14.2983 13.4542 14.2879 13.6021C14.2789 13.75 14.3441 13.8698 14.3354 14.0742C14.3266 14.2782 14.2879 14.2043 14.1504 14.3241C14.0112 14.4439 14.1045 14.6747 14.1045 14.8597C14.1045 15.0447 14.2702 15.1009 14.3812 15.0269C14.4923 14.953 14.7318 14.666 14.9359 14.6572C15.14 14.6482 15.2969 14.6379 15.334 14.601C15.3708 14.5642 15.5736 14.4441 15.6017 14.416C15.6033 14.4147 15.6062 14.4131 15.6107 14.4102C15.6788 14.3702 16.1063 14.2091 16.1848 14.1306C16.269 14.0453 16.4082 13.9536 16.4347 13.8603Z" fill="#E0D47C"/>
<path d="M16.4347 13.8603C16.4628 13.7686 16.3711 13.7686 16.2038 13.6753C16.0382 13.5836 16.269 13.3424 16.3149 13.2685C16.3607 13.1945 16.4347 12.9459 16.4169 12.8526C16.3992 12.7593 16.2778 12.7328 16.2513 12.6395C16.2232 12.5478 16.2868 12.2518 16.2319 12.1129C16.1773 11.9738 15.9449 11.863 15.8341 11.78C15.775 11.7358 15.7202 11.6321 15.6921 11.5256C15.6727 11.5537 15.6581 11.5847 15.6478 11.6173C15.599 11.7742 15.6611 11.9605 15.5768 12.1042C15.5012 12.0997 15.4273 12.0612 15.3801 12.0034C15.3462 12.0981 15.2322 12.141 15.1331 12.1365C15.0992 12.1349 15.065 12.1291 15.0369 12.1113C14.9362 12.0522 14.9539 11.8982 14.8845 11.8052C14.8193 11.718 14.6714 11.709 14.5959 11.789C14.5678 11.82 14.5455 11.8617 14.5055 11.8733C14.4878 11.8778 14.4687 11.8762 14.4493 11.8733C14.3754 11.8659 14.3014 11.8571 14.2275 11.8481C14.1255 11.8362 14.0173 11.8216 13.9405 11.7548C13.862 11.6867 13.8413 11.5463 13.9243 11.4872C13.9686 11.4546 14.0337 11.4532 14.0709 11.4116C14.1435 11.3332 14.0576 11.1853 14.1315 11.1084C14.1509 11.0878 14.1774 11.0774 14.201 11.0626C14.3195 10.9886 14.3343 10.8243 14.3327 10.6838C14.3311 10.5447 14.3372 10.382 14.4467 10.2964C14.5413 10.224 14.673 10.2373 14.7899 10.2534C14.9142 10.2712 15.0398 10.2889 15.1641 10.3067C15.2203 10.3141 15.2797 10.3215 15.3359 10.3186C15.3003 10.1352 15.3891 10.0626 15.3817 9.93115C15.3727 9.77425 15.1967 9.54341 15.1037 9.21953C15.012 8.8954 15.197 8.82145 15.2797 8.46949C15.364 8.11885 15.0207 7.79498 15.0207 7.76821C15.0207 7.74012 15.1599 6.51063 15.2338 6.2888C15.3078 6.06696 15.6497 5.84487 15.9173 5.63204C16.1866 5.41896 16.3523 5.12318 16.5934 4.74445C16.6764 4.61432 16.7236 4.53428 16.7533 4.48551C16.731 4.42031 16.7193 4.3567 16.7236 4.2931C16.7 4.28408 16.6777 4.27083 16.66 4.25175C16.6406 4.23108 16.6274 4.20431 16.6051 4.18523C16.5712 4.15713 16.5221 4.15263 16.4779 4.15872C16.3875 4.17039 16.3061 4.21332 16.2176 4.23267C16.1304 4.25334 16.0239 4.24142 15.9706 4.16906C15.9603 4.15581 15.9529 4.13805 15.938 4.12904C15.9232 4.12162 15.9054 4.12162 15.8893 4.12162C15.6894 4.12321 15.4912 4.08319 15.3078 4.00633C15.29 3.99891 15.2738 3.99149 15.2619 3.97824C15.2412 3.95306 15.2442 3.91463 15.25 3.88044C15.259 3.82876 15.2958 3.76515 15.2574 3.7193C15.2412 3.70022 15.219 3.68378 15.2025 3.66311C15.167 3.61434 15.1745 3.54782 15.1699 3.48846C15.167 3.44552 15.158 3.40258 15.1477 3.36124C15.1419 3.33314 15.1358 3.30664 15.127 3.27987C15.1034 3.21467 15.0618 3.18234 15.016 3.13649C14.9998 3.11873 14.9863 3.09938 14.9759 3.07871C14.9598 3.05062 14.9463 3.02253 14.9301 2.99443C14.9198 2.97668 14.9094 2.95759 14.893 2.94567C14.8694 2.92632 14.8352 2.92632 14.8058 2.92791C14.6947 2.9295 14.5543 2.91307 14.5217 2.80652C14.5143 2.77843 14.5143 2.74583 14.4965 2.72224C14.4626 2.6809 14.387 2.69706 14.3544 2.65413C14.3412 2.63637 14.3396 2.61119 14.3309 2.59052C14.3189 2.55951 14.294 2.53725 14.2672 2.51817C14.1991 2.46781 14.1209 2.43097 14.038 2.41003C14.0603 2.45429 14.0706 2.50173 14.0616 2.55209C14.0571 2.5831 14.0438 2.61278 14.0216 2.63505C13.967 2.68991 13.8737 2.69123 13.8114 2.74C13.7685 2.77392 13.7152 2.81103 13.6871 2.85847C13.659 2.90591 13.6635 2.96342 13.6722 3.0167C13.6871 3.10548 13.7462 3.13199 13.8143 3.17943C13.9044 3.24595 13.9548 3.34958 14.02 3.43836C14.0894 3.53298 14.1975 3.57751 14.2731 3.66179C14.3367 3.73282 14.3589 3.83035 14.3693 3.92364C14.3783 4.01084 14.3796 4.0983 14.3738 4.18549C14.3722 4.21226 14.3693 4.24035 14.3664 4.26686C14.3635 4.29336 14.3589 4.32013 14.3544 4.34663C14.3454 4.39407 14.3279 4.44867 14.2821 4.46351C14.2466 4.47544 14.2081 4.45609 14.174 4.43992C14.0674 4.38824 13.9505 4.36147 13.8321 4.35988C13.7936 4.35988 13.7536 4.3628 13.7197 4.38056C13.6028 4.44125 13.6264 4.62015 13.5466 4.72537C13.4565 4.84066 13.2803 4.82608 13.1369 4.8009C13.1162 4.86742 13.0998 4.94004 13.1265 5.00498C13.1414 5.03598 13.165 5.06408 13.1814 5.09509C13.2169 5.17062 13.1933 5.26365 13.1446 5.33176C13.0958 5.39988 13.0248 5.44864 12.9551 5.49582C12.927 5.51517 12.893 5.53584 12.8589 5.52841C12.8321 5.52258 12.8146 5.50165 12.7982 5.48098C12.7494 5.41896 12.7123 5.34793 12.6561 5.29307C12.5999 5.23847 12.5156 5.20137 12.443 5.23238C12.3497 5.26948 12.3129 5.39802 12.2151 5.42161C12.1234 5.44228 11.9474 5.28856 11.8955 5.3906C11.8777 5.4232 11.8984 5.51622 11.8851 5.56234C11.8586 5.64662 11.8157 5.72057 11.8022 5.81094C11.7844 5.93683 11.8154 6.07862 11.9116 6.16317C11.9413 6.18676 11.9752 6.20611 11.9975 6.23712C12.0669 6.33465 11.9723 6.47538 11.8615 6.52123C11.7492 6.56708 11.6204 6.56258 11.5125 6.61877C11.4134 6.67045 11.3468 6.76533 11.2684 6.8451C11.1886 6.92355 11.0805 6.99299 10.9726 6.96781C10.7285 6.91454 10.7108 6.4722 10.4622 6.46478C10.2801 6.45895 10.1916 6.70146 10.0198 6.76215C9.80674 6.83901 9.61299 6.61134 9.3954 6.54615C9.3583 6.53581 9.31695 6.52998 9.28144 6.54615C9.25335 6.5594 9.234 6.58457 9.21491 6.60816C9.1248 6.73087 9.04635 6.86418 8.98274 7.00465C8.93398 7.1112 8.89264 7.22516 8.80968 7.30785C8.72832 7.39081 8.58917 7.43215 8.49296 7.36563C8.37158 7.28267 8.39225 7.10086 8.42193 6.95588C8.45162 6.81091 8.45453 6.62301 8.32122 6.5594C8.26662 6.53422 8.20302 6.53872 8.14524 6.52229C8.04161 6.49261 7.96343 6.38925 7.96343 6.28111C7.96184 6.23235 7.97668 6.18199 7.95893 6.13614C7.93242 6.0667 7.84946 6.04152 7.77685 6.02959C7.63028 6.00601 7.48239 5.99699 7.3345 6.00442C7.3019 6.00733 7.26798 6.00892 7.23829 5.99408C7.20861 5.97791 7.19086 5.94823 7.17018 5.92173C7.06656 5.7855 6.87732 5.74124 6.70717 5.759C6.56352 5.77516 6.42597 5.82711 6.29 5.8772C6.30193 5.9098 6.30326 5.94531 6.29292 5.97924C6.26642 6.06643 6.17021 6.11096 6.12277 6.18941C6.0695 6.2766 6.09176 6.4025 6.17154 6.4661C6.27649 6.54747 6.46307 6.56364 6.46599 6.73246C6.4689 6.86127 6.34169 6.9869 6.28259 7.09211C6.23674 7.17639 6.2916 7.2681 6.34779 7.35105C6.40265 7.43401 6.50469 7.50795 6.45884 7.62907C6.41299 7.74887 6.30061 7.69427 6.19989 7.71203C6.09786 7.72978 6.18055 7.97971 6.19989 8.04491C6.21765 8.10984 6.41298 8.23865 6.55053 8.21214C6.68968 8.18405 6.86566 8.09076 6.91151 8.05392C6.95736 8.01681 7.26215 8.00807 7.34643 8.02583C7.42939 8.04517 7.51208 8.26701 7.56827 8.3322C7.62286 8.39581 7.73391 8.39581 7.79009 8.452C7.84469 8.50819 7.8537 8.67383 7.8818 8.71094C7.90989 8.74804 8.16009 8.71094 8.34481 8.68284C8.52981 8.65634 8.61249 8.61764 8.77973 8.58213C8.94538 8.5437 8.90853 8.63699 8.97347 8.77587C9.03707 8.91342 8.97347 9.2092 8.97347 9.33059C8.97347 9.45038 9.09327 9.47847 9.27826 9.57919C9.46325 9.68123 9.4174 9.70057 9.4174 9.79227C9.4174 9.88557 9.30635 9.9876 9.23241 10.0971C9.15847 10.2094 9.31537 10.4315 9.34346 10.6621C9.37155 10.893 9.43516 11.1519 9.49134 11.2539C9.54594 11.3546 9.78712 11.3827 10.0267 11.6237C10.2679 11.8632 10.2117 11.8826 10.2944 11.9936C10.3787 12.1047 10.5162 12.2067 10.7487 12.3072C10.9795 12.4092 11.0815 12.612 11.1361 12.6594C11.1923 12.7053 11.182 12.8251 11.0813 12.8812C10.9792 12.9358 10.8401 13.0559 10.8314 13.1031C10.8223 13.1489 10.8862 13.2687 10.8682 13.2968C10.8504 13.3249 10.7484 13.5557 10.7203 13.6474C10.6922 13.7407 10.7025 13.9167 10.7203 14.0736C10.7381 14.2305 10.9053 14.1476 10.9983 14.1388C11.09 14.1301 11.1817 14.1195 11.34 14.1107C11.4969 14.102 11.4036 14.278 11.4317 14.3045C11.4598 14.3326 11.6254 14.3135 11.7468 14.2957C11.8666 14.278 11.8947 14.1388 11.8947 14.1388C11.8947 14.1388 11.7836 14.0455 11.5899 13.8889C11.3945 13.732 11.6638 13.5648 11.7097 13.556C11.7555 13.547 11.8666 13.5841 12.0232 13.5931C12.1814 13.6019 12.1165 13.4911 12.1904 13.3164C12.2644 13.1404 12.2644 13.1492 12.3842 13.1211C12.504 13.0946 12.439 13.1773 12.513 13.278C12.5869 13.38 12.5973 13.4643 12.7171 13.75C12.8369 14.037 12.9389 13.9082 13.0871 13.824C13.2349 13.741 13.244 13.3994 13.3828 13.3164C13.522 13.2321 13.5678 13.2602 13.6964 13.0752C13.8265 12.8902 13.9921 12.8725 14.0735 12.8534C14.1549 12.8341 14.3619 13.0752 14.39 13.2234C14.418 13.3713 14.2983 13.4542 14.2879 13.6021C14.2789 13.75 14.3441 13.8698 14.3354 14.0742C14.3266 14.2782 14.2879 14.2043 14.1504 14.3241C14.0112 14.4439 14.1045 14.6747 14.1045 14.8597C14.1045 15.0447 14.2702 15.1009 14.3812 15.0269C14.4923 14.953 14.7318 14.666 14.9359 14.6572C15.14 14.6482 15.2969 14.6379 15.334 14.601C15.3708 14.5642 15.5736 14.4441 15.6017 14.416C15.6033 14.4147 15.6062 14.4131 15.6107 14.4102C15.6788 14.3702 16.1063 14.2091 16.1848 14.1306C16.269 14.0453 16.4082 13.9536 16.4347 13.8603Z" fill="url(#paint0_linear_1571_9852)"/>
<path d="M16.4347 13.8603C16.4628 13.7686 16.3711 13.7686 16.2038 13.6753C16.0382 13.5836 16.269 13.3424 16.3149 13.2685C16.3607 13.1945 16.4347 12.9459 16.4169 12.8526C16.3992 12.7593 16.2778 12.7328 16.2513 12.6395C16.2232 12.5478 16.2868 12.2518 16.2319 12.1129C16.1773 11.9738 15.9449 11.863 15.8341 11.78C15.775 11.7358 15.7202 11.6321 15.6921 11.5256C15.6727 11.5537 15.6581 11.5847 15.6478 11.6173C15.599 11.7742 15.6611 11.9605 15.5768 12.1042C15.5012 12.0997 15.4273 12.0612 15.3801 12.0034C15.3462 12.0981 15.2322 12.141 15.1331 12.1365C15.0992 12.1349 15.065 12.1291 15.0369 12.1113C14.9362 12.0522 14.9539 11.8982 14.8845 11.8052C14.8193 11.718 14.6714 11.709 14.5959 11.789C14.5678 11.82 14.5455 11.8617 14.5055 11.8733C14.4878 11.8778 14.4687 11.8762 14.4493 11.8733C14.3754 11.8659 14.3014 11.8571 14.2275 11.8481C14.1255 11.8362 14.0173 11.8216 13.9405 11.7548C13.862 11.6867 13.8413 11.5463 13.9243 11.4872C13.9686 11.4546 14.0337 11.4532 14.0709 11.4116C14.1435 11.3332 14.0576 11.1853 14.1315 11.1084C14.1509 11.0878 14.1774 11.0774 14.201 11.0626C14.3195 10.9886 14.3343 10.8243 14.3327 10.6838C14.3311 10.5447 14.3372 10.382 14.4467 10.2964C14.5413 10.224 14.673 10.2373 14.7899 10.2534C14.9142 10.2712 15.0398 10.2889 15.1641 10.3067C15.2203 10.3141 15.2797 10.3215 15.3359 10.3186C15.3003 10.1352 15.3891 10.0626 15.3817 9.93115C15.3727 9.77425 15.1967 9.54341 15.1037 9.21953C15.012 8.8954 15.197 8.82145 15.2797 8.46949C15.364 8.11885 15.0207 7.79498 15.0207 7.76821C15.0207 7.74012 15.1599 6.51063 15.2338 6.2888C15.3078 6.06696 15.6497 5.84487 15.9173 5.63204C16.1866 5.41896 16.3523 5.12318 16.5934 4.74445C16.6764 4.61432 16.7236 4.53428 16.7533 4.48551C16.731 4.42031 16.7193 4.3567 16.7236 4.2931C16.7 4.28408 16.6777 4.27083 16.66 4.25175C16.6406 4.23108 16.6274 4.20431 16.6051 4.18523C16.5712 4.15713 16.5221 4.15263 16.4779 4.15872C16.3875 4.17039 16.3061 4.21332 16.2176 4.23267C16.1304 4.25334 16.0239 4.24142 15.9706 4.16906C15.9603 4.15581 15.9529 4.13805 15.938 4.12904C15.9232 4.12162 15.9054 4.12162 15.8893 4.12162C15.6894 4.12321 15.4912 4.08319 15.3078 4.00633C15.29 3.99891 15.2738 3.99149 15.2619 3.97824C15.2412 3.95306 15.2442 3.91463 15.25 3.88044C15.259 3.82876 15.2958 3.76515 15.2574 3.7193C15.2412 3.70022 15.219 3.68378 15.2025 3.66311C15.167 3.61434 15.1745 3.54782 15.1699 3.48846C15.167 3.44552 15.158 3.40258 15.1477 3.36124C15.1419 3.33314 15.1358 3.30664 15.127 3.27987C15.1034 3.21467 15.0618 3.18234 15.016 3.13649C14.9998 3.11873 14.9863 3.09938 14.9759 3.07871C14.9598 3.05062 14.9463 3.02253 14.9301 2.99443C14.9198 2.97668 14.9094 2.95759 14.893 2.94567C14.8694 2.92632 14.8352 2.92632 14.8058 2.92791C14.6947 2.9295 14.5543 2.91307 14.5217 2.80652C14.5143 2.77843 14.5143 2.74583 14.4965 2.72224C14.4626 2.6809 14.387 2.69706 14.3544 2.65413C14.3412 2.63637 14.3396 2.61119 14.3309 2.59052C14.3189 2.55951 14.294 2.53725 14.2672 2.51817C14.1991 2.46781 14.1209 2.43097 14.038 2.41003C14.0603 2.45429 14.0706 2.50173 14.0616 2.55209C14.0571 2.5831 14.0438 2.61278 14.0216 2.63505C13.967 2.68991 13.8737 2.69123 13.8114 2.74C13.7685 2.77392 13.7152 2.81103 13.6871 2.85847C13.659 2.90591 13.6635 2.96342 13.6722 3.0167C13.6871 3.10548 13.7462 3.13199 13.8143 3.17943C13.9044 3.24595 13.9548 3.34958 14.02 3.43836C14.0894 3.53298 14.1975 3.57751 14.2731 3.66179C14.3367 3.73282 14.3589 3.83035 14.3693 3.92364C14.3783 4.01084 14.3796 4.0983 14.3738 4.18549C14.3722 4.21226 14.3693 4.24035 14.3664 4.26686C14.3635 4.29336 14.3589 4.32013 14.3544 4.34663C14.3454 4.39407 14.3279 4.44867 14.2821 4.46351C14.2466 4.47544 14.2081 4.45609 14.174 4.43992C14.0674 4.38824 13.9505 4.36147 13.8321 4.35988C13.7936 4.35988 13.7536 4.3628 13.7197 4.38056C13.6028 4.44125 13.6264 4.62015 13.5466 4.72537C13.4565 4.84066 13.2803 4.82608 13.1369 4.8009C13.1162 4.86742 13.0998 4.94004 13.1265 5.00498C13.1414 5.03598 13.165 5.06408 13.1814 5.09509C13.2169 5.17062 13.1933 5.26365 13.1446 5.33176C13.0958 5.39988 13.0248 5.44864 12.9551 5.49582C12.927 5.51517 12.893 5.53584 12.8589 5.52841C12.8321 5.52258 12.8146 5.50165 12.7982 5.48098C12.7494 5.41896 12.7123 5.34793 12.6561 5.29307C12.5999 5.23847 12.5156 5.20137 12.443 5.23238C12.3497 5.26948 12.3129 5.39802 12.2151 5.42161C12.1234 5.44228 11.9474 5.28856 11.8955 5.3906C11.8777 5.4232 11.8984 5.51622 11.8851 5.56234C11.8586 5.64662 11.8157 5.72057 11.8022 5.81094C11.7844 5.93683 11.8154 6.07862 11.9116 6.16317C11.9413 6.18676 11.9752 6.20611 11.9975 6.23712C12.0669 6.33465 11.9723 6.47538 11.8615 6.52123C11.7492 6.56708 11.6204 6.56258 11.5125 6.61877C11.4134 6.67045 11.3468 6.76533 11.2684 6.8451C11.1886 6.92355 11.0805 6.99299 10.9726 6.96781C10.7285 6.91454 10.7108 6.4722 10.4622 6.46478C10.2801 6.45895 10.1916 6.70146 10.0198 6.76215C9.80674 6.83901 9.61299 6.61134 9.3954 6.54615C9.3583 6.53581 9.31695 6.52998 9.28144 6.54615C9.25335 6.5594 9.234 6.58457 9.21491 6.60816C9.1248 6.73087 9.04635 6.86418 8.98274 7.00465C8.93398 7.1112 8.89264 7.22516 8.80968 7.30785C8.72832 7.39081 8.58917 7.43215 8.49296 7.36563C8.37158 7.28267 8.39225 7.10086 8.42193 6.95588C8.45162 6.81091 8.45453 6.62301 8.32122 6.5594C8.26662 6.53422 8.20302 6.53872 8.14524 6.52229C8.04161 6.49261 7.96343 6.38925 7.96343 6.28111C7.96184 6.23235 7.97668 6.18199 7.95893 6.13614C7.93242 6.0667 7.84946 6.04152 7.77685 6.02959C7.63028 6.00601 7.48239 5.99699 7.3345 6.00442C7.3019 6.00733 7.26798 6.00892 7.23829 5.99408C7.20861 5.97791 7.19086 5.94823 7.17018 5.92173C7.06656 5.7855 6.87732 5.74124 6.70717 5.759C6.56352 5.77516 6.42597 5.82711 6.29 5.8772C6.30193 5.9098 6.30326 5.94531 6.29292 5.97924C6.26642 6.06643 6.17021 6.11096 6.12277 6.18941C6.0695 6.2766 6.09176 6.4025 6.17154 6.4661C6.27649 6.54747 6.46307 6.56364 6.46599 6.73246C6.4689 6.86127 6.34169 6.9869 6.28259 7.09211C6.23674 7.17639 6.2916 7.2681 6.34779 7.35105C6.40265 7.43401 6.50469 7.50795 6.45884 7.62907C6.41299 7.74887 6.30061 7.69427 6.19989 7.71203C6.09786 7.72978 6.18055 7.97971 6.19989 8.04491C6.21765 8.10984 6.41298 8.23865 6.55053 8.21214C6.68968 8.18405 6.86566 8.09076 6.91151 8.05392C6.95736 8.01681 7.26215 8.00807 7.34643 8.02583C7.42939 8.04517 7.51208 8.26701 7.56827 8.3322C7.62286 8.39581 7.73391 8.39581 7.79009 8.452C7.84469 8.50819 7.8537 8.67383 7.8818 8.71094C7.90989 8.74804 8.16009 8.71094 8.34481 8.68284C8.52981 8.65634 8.61249 8.61764 8.77973 8.58213C8.94538 8.5437 8.90853 8.63699 8.97347 8.77587C9.03707 8.91342 8.97347 9.2092 8.97347 9.33059C8.97347 9.45038 9.09327 9.47847 9.27826 9.57919C9.46325 9.68123 9.4174 9.70057 9.4174 9.79227C9.4174 9.88557 9.30635 9.9876 9.23241 10.0971C9.15847 10.2094 9.31537 10.4315 9.34346 10.6621C9.37155 10.893 9.43516 11.1519 9.49134 11.2539C9.54594 11.3546 9.78712 11.3827 10.0267 11.6237C10.2679 11.8632 10.2117 11.8826 10.2944 11.9936C10.3787 12.1047 10.5162 12.2067 10.7487 12.3072C10.9795 12.4092 11.0815 12.612 11.1361 12.6594C11.1923 12.7053 11.182 12.8251 11.0813 12.8812C10.9792 12.9358 10.8401 13.0559 10.8314 13.1031C10.8223 13.1489 10.8862 13.2687 10.8682 13.2968C10.8504 13.3249 10.7484 13.5557 10.7203 13.6474C10.6922 13.7407 10.7025 13.9167 10.7203 14.0736C10.7381 14.2305 10.9053 14.1476 10.9983 14.1388C11.09 14.1301 11.1817 14.1195 11.34 14.1107C11.4969 14.102 11.4036 14.278 11.4317 14.3045C11.4598 14.3326 11.6254 14.3135 11.7468 14.2957C11.8666 14.278 11.8947 14.1388 11.8947 14.1388C11.8947 14.1388 11.7836 14.0455 11.5899 13.8889C11.3945 13.732 11.6638 13.5648 11.7097 13.556C11.7555 13.547 11.8666 13.5841 12.0232 13.5931C12.1814 13.6019 12.1165 13.4911 12.1904 13.3164C12.2644 13.1404 12.2644 13.1492 12.3842 13.1211C12.504 13.0946 12.439 13.1773 12.513 13.278C12.5869 13.38 12.5973 13.4643 12.7171 13.75C12.8369 14.037 12.9389 13.9082 13.0871 13.824C13.2349 13.741 13.244 13.3994 13.3828 13.3164C13.522 13.2321 13.5678 13.2602 13.6964 13.0752C13.8265 12.8902 13.9921 12.8725 14.0735 12.8534C14.1549 12.8341 14.3619 13.0752 14.39 13.2234C14.418 13.3713 14.2983 13.4542 14.2879 13.6021C14.2789 13.75 14.3441 13.8698 14.3354 14.0742C14.3266 14.2782 14.2879 14.2043 14.1504 14.3241C14.0112 14.4439 14.1045 14.6747 14.1045 14.8597C14.1045 15.0447 14.2702 15.1009 14.3812 15.0269C14.4923 14.953 14.7318 14.666 14.9359 14.6572C15.14 14.6482 15.2969 14.6379 15.334 14.601C15.3708 14.5642 15.5736 14.4441 15.6017 14.416C15.6033 14.4147 15.6062 14.4131 15.6107 14.4102C15.6788 14.3702 16.1063 14.2091 16.1848 14.1306C16.269 14.0453 16.4082 13.9536 16.4347 13.8603Z" stroke="#510A32" stroke-width="0.459149" mask="url(#path-1-inside-1_1571_9852)"/>
<defs>
<linearGradient id="paint0_linear_1571_9852" x1="11.4234" y1="-7.56218" x2="11.4234" y2="75.8072" gradientUnits="userSpaceOnUse">
<stop stop-color="#FF984F"/>
<stop offset="0.2978" stop-color="#F37A56"/>
<stop offset="0.9428" stop-color="#D42F67"/>
<stop offset="1" stop-color="#D12869"/>
</linearGradient>
</defs>
</svg>
