<svg width="33" height="40" viewBox="0 0 33 40" fill="none" xmlns="http://www.w3.org/2000/svg">
<path d="M22.7298 15.4883C22.664 15.3241 22.8283 15.0942 22.9268 14.93C23.0254 14.7658 23.0582 14.3388 22.7298 13.7806C22.5949 13.5513 22.5432 13.3497 22.529 13.1917C22.3157 13.2694 22.246 13.2743 22.2816 13.5944C22.3298 14.0278 22.9075 14.2203 22.1371 14.3647C21.3668 14.5092 21.3187 14.5573 21.0779 14.461C20.8372 14.3647 20.6927 13.8833 20.4521 13.8352C20.2113 13.787 19.441 14.1722 19.1039 14.2685C18.7669 14.3648 19.1521 13.3056 18.5262 13.2093C18.4408 13.1962 18.3702 13.1867 18.309 13.1798C18.2132 13.3904 18.1647 13.696 18.4276 14.1091C18.8874 14.8316 18.8546 14.9958 18.7231 15.1601C18.5918 15.3242 18.3618 15.6527 18.1977 15.8498C18.0335 16.0468 17.7708 16.0797 17.8036 16.2768C17.8364 16.4738 17.7379 16.5395 17.9349 16.9007C18.0971 17.198 18.3256 17.2063 18.2004 17.3829C18.8846 17.258 20.3333 17.1938 20.8706 17.1042C21.5037 16.9986 21.6795 17.1042 22.0664 17.0339C22.4532 16.9636 22.2774 16.436 22.5588 16.2602C22.6404 16.2091 22.7367 16.2621 22.823 16.371C22.8885 16.2537 22.927 16.1589 22.927 16.0797C22.9268 15.9153 22.7955 15.6526 22.7298 15.4883Z" fill="url(#paint0_linear_2208_29889)" stroke="white" stroke-width="0.0987507" stroke-miterlimit="10"/>
<path d="M17.9352 16.9009C17.7382 16.5396 17.8367 16.474 17.8039 16.2769C17.7711 16.0798 18.0338 16.047 18.198 15.8499C18.3621 15.6529 18.592 15.3245 18.7234 15.1602C18.8548 14.9961 18.8876 14.8318 18.4279 14.1093C18.165 13.6962 18.2135 13.3907 18.3093 13.18C17.9224 13.136 17.9334 13.1964 17.2265 13.1133C16.408 13.017 15.2525 11.717 14.9155 11.717C14.5784 11.717 14.3859 11.5244 14.3859 11.5244C14.3859 11.5244 14.3848 11.5038 14.3848 11.4677C14.3175 11.4682 14.2524 11.4626 14.1912 11.4491C13.6001 11.3177 13.0089 11.1864 12.8775 10.9893C12.7462 10.7922 12.4177 10.4638 12.2864 10.3653C12.2681 10.3516 12.2588 10.3469 12.2546 10.3466C12.2426 10.3454 12.2708 10.3788 12.2546 10.3466C12.2353 10.3079 12.1522 10.1748 11.8595 9.77414C11.2355 8.92026 11.1698 8.88745 11.0056 8.95308C10.8414 9.01881 10.4801 9.57706 10.4144 9.70842C10.3487 9.83978 10.3159 10.3324 10.3159 10.4638C10.3159 10.5772 9.85085 10.8619 9.55469 11.0433C9.59351 11.1336 9.61665 11.2411 9.61665 11.3717C9.61665 12.0751 9.68694 12.0047 9.82763 12.2861C9.96832 12.5675 10.32 12.7785 10.32 12.7785C10.32 12.7785 10.9179 12.6026 11.164 12.5675C11.4102 12.5323 11.4454 12.3565 11.5861 12.7082C11.7268 13.0598 11.7619 13.7633 12.2191 13.8688C12.6763 13.9743 13.028 14.2908 12.9928 14.4315C12.9577 14.5722 12.606 14.748 12.8873 14.9943C13.1687 15.2405 13.2038 15.4515 13.5906 15.6625C13.9775 15.8734 13.872 16.1899 14.3995 16.1197C14.927 16.0494 16.0173 15.9438 16.5449 16.612C17.0724 17.2802 17.0021 17.2802 17.2835 17.3506C17.5648 17.4209 17.4944 17.6319 17.9165 17.4561C17.9803 17.4295 18.0785 17.4054 18.2005 17.383C18.3259 17.2065 18.0974 17.1981 17.9352 16.9009Z" fill="url(#paint1_linear_2208_29889)"/>
<path d="M12.2546 10.3466C12.2588 10.3469 12.2681 10.3516 12.2864 10.3653C12.4177 10.4638 12.7462 10.7922 12.8775 10.9893C13.0089 11.1864 13.6001 11.3177 14.1912 11.4491C14.2524 11.4626 14.3175 11.4682 14.3848 11.4677C14.3848 11.5038 14.3859 11.5244 14.3859 11.5244C14.3859 11.5244 14.5784 11.717 14.9155 11.717C15.2525 11.717 16.408 13.017 17.2265 13.1133C17.9334 13.1964 17.9224 13.136 18.3093 13.18C18.2135 13.3907 18.165 13.6962 18.4279 14.1093C18.8876 14.8318 18.8548 14.9961 18.7234 15.1602C18.592 15.3245 18.3621 15.6529 18.198 15.8499C18.0338 16.047 17.7711 16.0798 17.8039 16.2769C17.8367 16.474 17.7382 16.5396 17.9352 16.9009C18.0974 17.1981 18.3259 17.2065 18.2005 17.383C18.0785 17.4054 17.9803 17.4295 17.9165 17.4561C17.4944 17.6319 17.5648 17.4209 17.2835 17.3506C17.0021 17.2802 17.0724 17.2802 16.5449 16.612C16.0173 15.9438 14.927 16.0494 14.3995 16.1197C13.872 16.1899 13.9775 15.8734 13.5906 15.6625C13.2038 15.4515 13.1687 15.2405 12.8873 14.9943C12.606 14.748 12.9577 14.5722 12.9928 14.4315C13.028 14.2908 12.6763 13.9743 12.2191 13.8688C11.7619 13.7633 11.7268 13.0598 11.5861 12.7082C11.4454 12.3565 11.4102 12.5323 11.164 12.5675C10.9179 12.6026 10.32 12.7785 10.32 12.7785C10.32 12.7785 9.96832 12.5675 9.82763 12.2861C9.68694 12.0047 9.61665 12.0751 9.61665 11.3717C9.61665 11.2411 9.59351 11.1336 9.55469 11.0433C9.85085 10.8619 10.3159 10.5772 10.3159 10.4638C10.3159 10.3324 10.3487 9.83978 10.4144 9.70842C10.4801 9.57706 10.8414 9.01881 11.0056 8.95308C11.1698 8.88745 11.2355 8.92026 11.8595 9.77414C12.1522 10.1748 12.2353 10.3079 12.2546 10.3466ZM12.2546 10.3466C12.2426 10.3454 12.2708 10.3788 12.2546 10.3466Z" stroke="white" stroke-width="0.0987507" stroke-miterlimit="10"/>
<path d="M10.315 10.4645C10.315 10.3332 10.3478 9.84055 10.4135 9.70919C10.4791 9.57783 10.8404 9.01948 11.0047 8.95385C11.1689 8.88812 11.2346 8.92103 11.8586 9.77491C12.1513 10.1755 12.2344 10.3087 12.2537 10.3473C12.258 10.3477 12.2672 10.3524 12.2855 10.3661C12.4168 10.4646 12.7453 10.7931 12.8766 10.9901C13.008 11.1871 13.5992 11.3185 14.1903 11.4499C14.2514 11.4634 14.3165 11.469 14.3839 11.4685C14.3835 11.2623 14.4157 10.5388 14.8665 10.1289C15.3961 9.64741 15.5887 9.5512 15.2999 9.2623C15.011 8.9734 14.8184 9.166 14.6258 8.92525C14.4332 8.68449 14.7703 8.68449 14.2888 8.58819C13.8073 8.49189 13.8554 8.01048 13.6148 7.62528C13.374 7.24008 13.2296 7.14378 13.1814 6.71052C13.1679 6.58857 13.1466 6.48241 13.1243 6.38772C12.994 6.46224 12.8454 6.56804 12.614 6.65484C12.0886 6.85192 11.7601 6.75338 11.6944 6.58911C11.6287 6.42493 11.5958 6.42493 11.4317 6.03077C11.2675 5.63669 11.1361 5.86659 10.8077 5.86659C10.4792 5.86659 10.3808 5.93232 9.92097 6.16213C9.46116 6.39203 9.75679 6.26067 9.46116 6.65475C9.31814 6.84546 9.02906 6.90527 8.76876 6.91639C8.751 6.94078 8.73011 6.96777 8.70384 6.99924C8.46309 7.28814 8.36678 7.28814 8.31863 7.5288C8.27048 7.76955 8.51124 7.96215 8.17418 8.29911C7.83713 8.63616 7.59646 8.63617 7.50016 8.78062C7.4703 8.82545 7.46358 8.89359 7.45703 8.969C7.52894 9.05418 7.60516 9.15192 7.68147 9.26212C7.99799 9.71932 7.787 9.33241 7.99799 9.71932C8.20897 10.1061 8.06829 10.1414 8.31451 10.2117C8.56073 10.282 8.52549 10.071 8.73657 10.3524C8.90837 10.5814 9.38342 10.6474 9.55387 11.0439C9.84995 10.8626 10.315 10.578 10.315 10.4645Z" fill="url(#paint2_linear_2208_29889)" stroke="white" stroke-width="0.0987507" stroke-miterlimit="10"/>
<path d="M12.2531 10.3462C12.2411 10.3451 12.2692 10.3784 12.2531 10.3462V10.3462Z" fill="url(#paint3_linear_2208_29889)" stroke="white" stroke-width="0.0987507" stroke-miterlimit="10"/>
<path d="M9.37902 6.85178C9.67456 6.4577 9.37902 6.58906 9.83883 6.35916C10.2986 6.12926 10.3972 6.06362 10.7255 6.06362C11.054 6.06362 11.1853 5.83372 11.3495 6.2278C11.5137 6.62188 11.5466 6.62188 11.6122 6.78614C11.678 6.95032 12.0063 7.04886 12.5319 6.85187C12.7633 6.76507 12.9119 6.65927 13.0422 6.58476C12.985 6.34302 12.9202 6.17929 12.9548 6.04085C13.003 5.84825 13.3881 6.61856 13.6288 6.089C13.8696 5.55944 13.6288 5.17424 13.677 4.98164C13.7251 4.78903 13.4844 5.27054 13.7251 4.78903C13.9659 4.30762 14.2547 4.35568 14.2547 3.53722C14.2547 2.71876 13.7733 2.86321 13.5325 2.71876C13.2918 2.57431 13.3399 2.52616 12.9067 2.57431C12.4733 2.62246 12.5696 2.42986 12.04 2.52616C11.5105 2.62246 11.3179 2.47801 10.8364 2.14096C10.3549 1.8039 10.5475 1.46694 10.1142 1.22619C9.68084 0.985442 8.4291 0.889142 7.80314 1.17804C7.80314 1.17804 7.12912 1.27434 7.03282 1.65954C6.93652 2.04475 6.79206 1.90029 7.12912 2.23726C7.46617 2.57431 7.51432 2.23726 7.65878 2.52616C7.80323 2.81506 7.75508 3.39277 7.75508 3.39277C7.75508 3.82612 7.56248 3.82612 7.46617 3.97048C7.36987 4.11493 7.22542 4.11493 7.27357 4.40383C7.32172 4.69273 7.70693 5.126 7.70693 5.126C7.70693 5.126 7.94768 4.93339 7.70693 5.4149C7.46617 5.8964 7.70693 5.8001 8.14028 6.04076C8.57364 6.28151 8.62179 6.28151 8.66985 6.61847C8.71271 6.91876 8.83134 6.91383 8.68662 7.11333C8.94692 7.1023 9.236 7.04241 9.37902 6.85178Z" fill="url(#paint4_linear_2208_29889)" stroke="white" stroke-width="0.0987507" stroke-miterlimit="10"/>
<path d="M32.343 11.4763C32.1504 11.3318 32.1022 11.4281 31.9578 11.1874C31.8133 10.9466 31.4281 9.98369 30.5615 10.1763C29.6949 10.3689 29.6949 10.2244 29.5504 10.6096C29.406 10.9948 29.3578 11.5244 29.1171 11.6207C28.8763 11.717 29.0689 11.6207 28.6356 11.8133C28.2023 12.0059 28.6356 11.7652 28.2023 12.0059C27.7689 12.2467 27.5283 12.1504 27.2394 12.4874C26.9505 12.8245 27.0949 12.7763 27.0949 13.017C27.0949 13.1625 27.1298 13.2905 27.1151 13.4221C27.2991 13.6121 27.5518 13.8068 27.7534 13.7152C28.1147 13.551 27.9833 13.4853 28.3446 13.3868C28.7059 13.2882 28.6401 13.2226 29.0343 13.1897C29.4284 13.1568 29.2642 13.6167 29.5927 13.3538C29.9211 13.0911 30.5451 11.8103 31.0049 12.073C31.4647 12.3357 31.5303 12.6641 31.3004 12.8283C31.0705 12.9925 30.8078 13.0582 30.4137 13.4195C30.0196 13.7807 29.7897 14.0106 29.7569 14.2734C29.7241 14.5361 29.7897 14.5689 29.4942 14.8317C29.1987 15.0944 28.9688 14.9631 28.9688 15.2915C28.9688 15.6199 28.9688 16.5066 28.5747 16.7037C28.1806 16.9008 28.2791 16.9336 28.082 16.9008C27.9711 16.8823 27.8706 16.6245 27.7278 16.4729C27.7276 16.5791 27.6879 16.6649 27.4804 16.8205C27.0952 17.1094 26.9027 16.9649 26.5656 17.5908C26.2286 18.2167 27.2878 17.7834 27.5285 17.976C27.7693 18.1686 27.8656 18.1204 27.8174 18.4574C27.7693 18.7945 27.3841 18.3611 27.7693 18.7945C28.1545 19.2278 28.1063 19.1797 28.4915 19.4203C28.8767 19.6611 28.8767 20.3351 29.3581 20.0462C29.8396 19.7573 29.7433 19.661 29.647 19.4685C29.5507 19.2759 29.5507 18.9389 29.647 18.7463C29.7433 18.5537 29.8396 18.369 29.8396 18.2167C29.8396 17.976 29.1656 17.3983 29.4544 17.2057C29.7433 17.0131 30.0321 17.0612 30.1766 16.7723C30.321 16.4834 30.3692 16.1465 30.3692 16.1465V15.8094L30.5618 15.328C30.5618 15.328 30.8025 15.1835 30.8988 14.8465C30.9951 14.5094 30.6099 13.9317 30.8988 13.6428C31.1877 13.3539 31.1396 13.4021 31.4284 13.3539C31.7173 13.3058 31.8617 13.3058 32.1506 13.2095C32.4395 13.1132 32.0061 13.1613 32.295 12.4392C32.5837 11.717 32.5356 11.6207 32.343 11.4763Z" fill="url(#paint5_linear_2208_29889)" stroke="white" stroke-width="0.0987507" stroke-miterlimit="10"/>
<path d="M13.1061 31.9754C12.942 31.9754 12.5478 32.0739 12.5478 32.0739C12.5478 32.0739 12.4806 32.0516 12.3987 32.033C12.3998 32.0778 12.3872 32.1187 12.3585 32.1569C12.253 32.2976 12.1123 32.5086 12.0068 32.7196C11.9013 32.9306 11.5496 32.4383 11.4441 32.9658C11.3386 33.4933 11.4792 33.5637 11.2331 33.7396C10.9869 33.9154 10.7056 33.9154 10.5297 34.0209C10.3538 34.1265 10.0725 34.1968 9.86149 34.3726C9.6505 34.5484 9.61526 34.4429 9.15814 34.7947C8.80728 35.0645 8.78755 35.0031 8.52734 35.0235C8.56411 35.0891 8.60607 35.1524 8.65521 35.2125C9.08856 35.7421 9.18478 35.6458 9.37738 35.9828C9.56998 36.3199 9.42553 36.8013 9.47368 37.0902C9.52183 37.3791 9.42553 38.4383 9.76258 38.7752C10.0996 39.1123 10.1959 39.0641 10.5811 39.2567C10.9663 39.4494 10.7255 39.4494 11.0626 39.5938C11.3996 39.7383 11.881 38.679 12.4588 38.1494C13.0366 37.6198 12.507 37.5235 12.6996 37.1383C12.8922 36.7531 13.2292 36.5125 13.4699 36.2236C13.7107 35.9347 13.6625 35.9347 13.8551 35.5014C14.0477 35.068 13.8551 34.7311 13.9033 34.394C13.9514 34.057 14.2885 32.8534 14.4328 32.5645C14.5773 32.2756 14.5773 32.083 14.5291 31.8423C14.4903 31.6481 14.3262 31.5792 14.239 31.4335C14.1096 31.4663 13.9866 31.5222 13.8945 31.6142C13.566 31.9426 13.2703 31.9754 13.1061 31.9754Z" fill="url(#paint6_linear_2208_29889)" stroke="white" stroke-width="0.0987507" stroke-miterlimit="10"/>
<path d="M19.4871 23.9765C19.1985 24.029 18.9458 24.099 18.8223 24.1916C18.4283 24.4872 17.8371 24.6514 17.7057 24.7828C17.5744 24.9142 17.3116 24.8814 17.1803 25.1441C17.0489 25.4068 16.819 25.5053 16.6548 25.5711C16.4907 25.6368 16.6877 25.6368 16.2278 25.7681C15.9492 25.8478 15.7674 25.7819 15.6452 25.6232C15.1781 25.5743 14.5407 25.1229 14.5407 25.1229L14.189 23.9975C14.189 23.9975 14.1187 23.7513 13.767 23.6459C13.4153 23.5403 13.2395 23.4349 13.0635 23.3996C12.8877 23.3645 12.8173 23.2589 12.4656 23.4348C12.114 23.6106 11.7623 23.6106 11.7623 23.6106C11.7623 23.6106 10.4611 24.2788 10.9182 25.0525C11.3754 25.8262 11.6568 25.7559 11.5161 26.2131C11.3754 26.6703 11.1995 26.5648 11.1995 27.0572C11.1995 27.5495 11.1644 27.6199 11.2347 27.866C11.305 28.1123 11.4457 28.2881 11.1995 28.4288C10.9533 28.5695 10.3203 28.4288 10.4258 29.097C10.5314 29.7651 10.1444 30.8202 10.883 30.9961C11.6216 31.1719 11.8677 31.2774 12.114 31.5588C12.2933 31.7638 12.3975 31.9125 12.4004 32.0327C12.4823 32.0513 12.5495 32.0737 12.5495 32.0737C12.5495 32.0737 12.9436 31.9751 13.1078 31.9751C13.272 31.9751 13.5676 31.9423 13.896 31.6139C13.9881 31.5218 14.1111 31.4659 14.2405 31.4331C14.2196 31.3982 14.2029 31.3589 14.1937 31.3124C14.1455 31.0716 14.0492 30.7828 14.1455 30.5421C14.2418 30.3013 14.0974 30.1087 14.2418 29.8199C14.3863 29.531 13.616 29.9644 14.29 29.0496C14.964 28.1348 15.4455 28.3756 15.7343 28.2793C16.0232 28.183 16.6972 27.7979 16.6972 27.7979C16.6972 27.7979 16.6009 27.509 17.0825 27.1239C17.564 26.7387 18.7194 25.4388 19.2491 24.8128C19.6093 24.3869 19.5018 24.1839 19.4871 23.9765Z" fill="url(#paint7_linear_2208_29889)" stroke="white" stroke-width="0.0987507" stroke-miterlimit="10"/>
<path d="M28.082 16.9005C28.2791 16.9333 28.1806 16.9005 28.5747 16.7034C28.9688 16.5063 28.9688 15.6196 28.9688 15.2912C28.9688 14.9627 29.1987 15.0941 29.4942 14.8314C29.7897 14.5687 29.7241 14.5359 29.7569 14.273C29.7897 14.0103 30.0196 13.7804 30.4137 13.4192C30.8078 13.0579 31.0705 12.9923 31.3004 12.828C31.5303 12.6638 31.4646 12.3354 31.0049 12.0727C30.5452 11.8099 29.9211 13.0907 29.5926 13.3535C29.2642 13.6162 29.4285 13.1564 29.0343 13.1894C28.6402 13.2222 28.7059 13.2879 28.3446 13.3864C27.9833 13.485 28.1147 13.5506 27.7534 13.7149C27.5518 13.8065 27.2992 13.6118 27.1151 13.4218C27.1055 13.5078 27.0748 13.5955 26.9987 13.6907C26.8061 13.9314 26.9505 13.6907 26.6616 13.787C26.3727 13.8833 26.3727 13.8351 26.0839 13.8351C25.795 13.8351 26.2765 13.6425 25.795 13.8351C25.3414 14.0166 25.7423 13.9843 25.3874 14.0203C25.3681 14.0595 25.337 14.1002 25.2902 14.1418C24.9947 14.4045 24.9618 14.306 24.9947 14.503C25.0275 14.7001 24.9947 14.6016 25.0932 14.8643C25.1653 15.0565 25.114 15.2662 25.0043 15.4421C25.1023 15.7944 25.1864 15.8572 25.4581 15.8572C25.7951 15.8572 25.8433 15.7609 26.1321 15.9053C26.421 16.0498 27.769 15.7127 27.7209 16.0979C27.6986 16.2756 27.7276 16.3815 27.7275 16.4725C27.8706 16.6242 27.9711 16.882 28.082 16.9005Z" fill="url(#paint8_linear_2208_29889)" stroke="white" stroke-width="0.0987507" stroke-miterlimit="10"/>
<path d="M25.0957 14.8646C24.9971 14.6019 25.0299 14.7004 24.9971 14.5033C24.9643 14.3063 24.9971 14.4048 25.2927 14.1421C25.3395 14.1005 25.3705 14.0598 25.3899 14.0206C25.3681 14.0228 25.3439 14.0253 25.316 14.028C24.8345 14.0762 24.4493 14.1243 24.2086 13.691C23.9678 13.2576 23.8715 13.0651 23.4864 13.017C23.1012 12.9688 23.2457 12.8244 22.8124 13.0651C22.6991 13.1281 22.6057 13.1646 22.5302 13.1921C22.5444 13.3501 22.5961 13.5516 22.731 13.7809C23.0594 14.3393 23.0265 14.7662 22.9281 14.9303C22.8295 15.0945 22.6653 15.3244 22.731 15.4887C22.7967 15.6529 22.9281 15.9157 22.9281 16.0798C22.9281 16.1591 22.8895 16.2539 22.8241 16.3712C23.0353 16.6377 23.1861 17.2415 22.9115 17.4913C22.5247 17.8429 22.0675 18.0188 22.0675 18.0188C22.0675 18.0188 21.6454 18.1594 21.6102 18.3353C21.5751 18.5111 21.3993 18.6166 21.4696 18.7925C21.5399 18.9683 21.7509 19.32 21.8212 19.4607C21.8795 19.5771 21.841 19.8865 21.5064 20.0093C21.5651 20.0629 21.6427 20.1121 21.7457 20.1522C22.3369 20.3821 22.1727 20.3163 22.4354 20.5134C22.6255 20.656 22.7294 20.6445 22.7724 20.7512C22.8499 20.5841 22.8625 20.511 22.9569 20.4795C23.1013 20.4314 23.2939 20.0943 23.8716 20.0462C24.4493 19.998 24.4493 19.5166 24.4493 19.5166C24.4493 19.5166 24.5456 18.7945 24.4975 18.65C24.4493 18.5055 24.4975 18.2166 24.4975 18.0723C24.4975 17.9278 24.3049 17.9278 24.016 17.4946C23.7271 17.0612 23.9197 16.8687 23.9197 16.5798C23.9197 16.2909 23.9678 16.4835 23.7752 16.1465C23.5826 15.8094 23.3419 15.9539 23.4382 15.665C23.5345 15.3761 23.3419 15.1835 23.7752 15.0872C24.2086 14.9909 24.7863 14.5095 24.9308 15.1354C24.9587 15.2566 24.9831 15.3579 25.0067 15.4425C25.1165 15.2665 25.1677 15.0569 25.0957 14.8646Z" fill="url(#paint9_linear_2208_29889)" stroke="white" stroke-width="0.0987507" stroke-miterlimit="10"/>
<path d="M22.4343 20.513C22.1716 20.3159 22.3358 20.3816 21.7446 20.1517C21.6417 20.1117 21.564 20.0626 21.5053 20.0089C21.4359 20.0344 21.354 20.052 21.2574 20.0581C20.6946 20.0933 20.4133 19.7768 20.2023 19.7065C19.9913 19.6362 19.7099 19.39 19.5341 19.4602C19.3582 19.5305 19.4285 19.1789 19.112 19.4954C18.7955 19.8119 18.3734 20.4801 17.8811 20.867C17.3887 21.2538 17.459 20.867 17.2832 21.3594C17.1073 21.8517 17.037 22.2386 17.0722 22.4144C17.1073 22.5903 16.8612 22.5903 16.7908 22.8716C16.7205 23.153 16.2633 23.1179 16.3336 23.5047C16.4039 23.8915 16.7204 24.2081 16.615 24.3487C16.5095 24.4894 16.1578 24.9466 16.1578 24.9466C16.1578 24.9466 16.2985 25.5093 15.8413 25.6148C15.7815 25.6286 15.7148 25.6301 15.6445 25.6227C15.7667 25.7815 15.9485 25.8473 16.2272 25.7676C16.687 25.6363 16.4899 25.6363 16.6542 25.5706C16.8183 25.5048 17.0483 25.4064 17.1796 25.1436C17.311 24.8809 17.5737 24.9137 17.7051 24.7823C17.8364 24.651 18.4276 24.4868 18.8217 24.1912C18.9452 24.0985 19.1978 24.0285 19.4865 23.976C19.4796 23.8784 19.493 23.7799 19.5854 23.6568C19.8744 23.2716 19.9707 23.1753 20.4521 23.1753C20.9335 23.1753 21.4631 22.9827 21.4631 22.9827C21.4631 22.9827 21.7039 22.8383 21.9927 22.2124C22.2816 21.5866 22.2816 21.5384 22.5704 21.1051C22.6707 20.9546 22.7299 20.8397 22.7711 20.7508C22.7282 20.644 22.6244 20.6556 22.4343 20.513Z" fill="url(#paint10_linear_2208_29889)" stroke="white" stroke-width="0.0987507" stroke-miterlimit="10"/>
<path d="M9.89626 25.5343C9.53724 26.2524 9.77656 26.1925 9.17831 26.5515C8.57997 26.9105 7.44318 26.9703 7.38328 27.9277C7.32347 28.885 7.56279 29.0644 7.08416 29.3636C6.97503 29.4319 6.84403 29.5156 6.69922 29.6042C6.98902 29.9421 7.32607 30.3323 7.35557 30.6866C7.40373 31.2643 7.59633 32.0347 7.59633 32.2272C7.59633 32.4198 7.69263 32.4679 7.88523 32.8049C8.07784 33.1419 7.93338 32.7567 8.12599 33.3345C8.29671 33.8467 8.24067 34.5101 8.52769 35.0231C8.7879 35.0028 8.80772 35.0641 9.15849 34.7943C9.6157 34.4426 9.65085 34.5481 9.86183 34.3722C10.0728 34.1964 10.3542 34.126 10.53 34.0206C10.7059 33.915 10.9872 33.915 11.2335 33.7392C11.4797 33.5634 11.339 33.493 11.4444 32.9655C11.55 32.438 11.9016 32.9303 12.0072 32.7193C12.1127 32.5083 12.2534 32.2972 12.3589 32.1565C12.4644 32.0158 12.3589 31.84 12.1126 31.5586C11.8664 31.2773 11.6203 31.1718 10.8817 30.9959C10.1431 30.8201 10.53 29.765 10.4245 29.0968C10.319 28.4286 10.952 28.5693 11.1982 28.4286C11.4444 28.2879 11.3038 28.1121 11.2334 27.8659C11.1631 27.6197 11.1982 27.5494 11.1982 27.057C11.1982 26.5647 11.3741 26.6701 11.5147 26.213C11.6554 25.7558 11.3741 25.8261 10.9168 25.0524C10.8827 24.9945 10.8595 24.9375 10.8436 24.8811C10.4431 25.0195 10.0497 25.2277 9.89626 25.5343Z" fill="url(#paint11_linear_2208_29889)" stroke="white" stroke-width="0.0987507" stroke-miterlimit="10"/>
<path d="M6.78924 17.6978C6.56292 17.4714 6.69877 17.381 6.51773 16.8831C6.3367 16.3853 6.15566 16.3401 5.70312 16.1591C5.25057 15.9781 5.1601 16.1138 4.57171 16.2949C4.31993 16.3723 4.1015 16.3088 3.93373 16.2108C3.86747 16.3595 3.77485 16.4658 3.64833 16.4839C3.31127 16.532 2.92616 16.4357 2.92616 16.4357C2.92616 16.4357 2.73355 16.6283 2.54095 16.7728C2.34835 16.9172 1.96323 16.7728 1.96323 16.7728C1.96323 16.7728 1.57803 16.7728 1.28921 16.8691C1.00031 16.9654 0.711493 16.8209 0.615191 17.1098C0.51889 17.3987 0.470739 17.6394 0.51889 17.7838C0.56704 17.9283 0.711493 18.2653 1.0004 18.2172C1.2893 18.169 1.33745 18.169 1.67442 18.169C2.01147 18.169 1.91517 18.2172 2.15592 18.3135C2.39668 18.4098 2.49298 18.1209 2.63734 18.3135C2.92625 18.6987 2.9744 18.8431 2.73364 18.9393C2.49289 19.0356 2.30029 18.9393 2.10777 18.9393C1.91517 18.9393 1.72257 18.6504 1.62627 18.7949C1.52997 18.9393 1.28921 18.9875 1.38551 19.1801C1.48181 19.3727 1.43366 19.7578 1.67442 19.8541C1.91517 19.9504 2.10777 19.7578 2.39659 19.9986C2.68549 20.2393 2.54104 20.3356 2.68549 20.5282C2.82994 20.7208 2.92625 20.9134 3.0707 21.0097C3.21515 21.106 3.167 21.2023 3.4559 21.106C3.74481 21.0097 3.88926 21.2023 4.22623 21.106C4.56328 21.0097 4.99655 20.9134 5.18915 20.4802C5.38175 20.0468 5.2373 19.9987 5.57436 19.8543C5.91141 19.7098 6.10392 19.3247 6.24838 19.7098C6.39283 20.095 6.29653 20.2394 6.10392 20.4802C5.91132 20.7209 5.67057 20.6728 5.62251 20.9616C5.57436 21.2505 5.38175 21.7319 5.38175 21.9245C5.38175 21.9362 5.38014 21.9561 5.37718 21.9831C5.52925 22.1215 5.67702 22.2675 5.79269 22.3254C6.12625 22.4921 6.22641 22.4254 6.52661 22.1919C6.82681 21.9585 6.86017 21.9918 6.79346 21.6248C6.72674 21.2579 6.86017 21.1912 6.99359 20.6574C7.12701 20.1236 7.22708 20.2572 7.36051 19.9569C7.49393 19.6567 7.39386 19.4231 7.39386 19.1229C7.39386 18.8227 7.594 18.7893 7.79422 18.5891C7.97328 18.4101 8.20516 18.151 8.25214 17.9073C7.95634 17.9945 7.69335 18.2139 7.55867 18.2408C7.33235 18.286 7.01556 17.924 6.78924 17.6978Z" fill="url(#paint12_linear_2208_29889)" stroke="white" stroke-width="0.0987507" stroke-miterlimit="10"/>
<path d="M12.2175 13.869C11.7603 13.7635 11.7252 13.0601 11.5845 12.7084C11.4438 12.3567 11.4087 12.5325 11.1624 12.5677C10.9162 12.6028 10.3184 12.7787 10.3184 12.7787C10.3184 12.7787 9.96675 12.5677 9.82606 12.2863C9.68537 12.005 9.61508 12.0753 9.61508 11.3719C9.61508 10.6686 8.94688 10.6334 8.73581 10.352C8.52483 10.0706 8.55998 10.2817 8.31375 10.2113C8.06753 10.141 8.20821 10.1058 7.99723 9.71894C7.78625 9.33213 7.99723 9.71895 7.68071 9.26174C7.6044 9.15146 7.52819 9.05381 7.45627 8.96863C7.44175 9.13612 7.42794 9.33975 7.16235 9.40619C6.77714 9.50249 6.19942 9.64695 6.15127 9.93576C6.10312 10.2247 6.53648 10.5616 6.24758 10.8987C5.95867 11.2357 5.86237 11.1394 5.62171 11.2839C5.38095 11.4283 5.28465 11.3802 5.18835 11.5246C5.09205 11.6691 5.18835 11.7172 5.09205 11.9098C4.99575 12.1024 4.56248 11.9098 4.56248 11.9098C4.56248 11.9098 3.74401 11.6691 3.50325 11.8135C3.2625 11.958 3.11805 12.2949 3.02175 12.7764C2.92545 13.2579 2.68469 13.4986 2.8773 13.7393C3.0699 13.9801 3.21435 14.2208 3.55132 14.4134C3.88837 14.606 4.08088 14.8949 4.08088 15.3281C4.08088 15.5987 4.04331 15.9632 3.93302 16.2106C4.10079 16.3085 4.31922 16.3721 4.571 16.2946C5.1593 16.1136 5.24986 15.9778 5.70241 16.1589C6.15495 16.3399 6.33599 16.3851 6.51702 16.8829C6.69806 17.3807 6.5623 17.4712 6.78853 17.6975C7.01485 17.9237 7.33155 18.2858 7.55787 18.2405C7.69255 18.2136 7.95554 17.9942 8.25134 17.9071C8.2569 17.8784 8.2604 17.8498 8.2604 17.8216C8.2604 17.5548 8.2604 17.1544 8.5606 16.6541C8.8608 16.1537 8.82745 16.554 9.02767 16.4873C9.22781 16.4206 9.59481 16.6207 9.86166 16.554C10.1285 16.4873 10.2954 16.3205 10.4288 16.0202C10.5622 15.72 10.4288 15.72 10.5956 15.4198C10.7624 15.1196 11.1294 15.1196 11.663 14.886C12.1968 14.6525 11.9633 14.8193 12.0634 14.1854C12.0873 14.0346 12.1472 13.9353 12.2243 13.8707C12.222 13.8703 12.2199 13.8695 12.2175 13.869Z" fill="url(#paint13_linear_2208_29889)" stroke="white" stroke-width="0.0987507" stroke-miterlimit="10"/>
<path d="M14.393 23.1273C14.2119 22.8558 14.574 22.4937 14.7098 22.177C14.8455 21.8602 14.6645 21.1361 14.4383 20.7741C14.2119 20.412 13.9857 20.5026 13.9857 20.5026C13.9857 20.5026 11.904 21.0004 11.5872 21.0004C11.2704 21.0004 11.2252 20.9099 10.9537 20.6836C10.6821 20.4574 10.5916 20.2763 10.2748 20.2763C9.958 20.2763 9.46017 20.5026 8.73612 20.5026C8.30088 20.5026 7.71868 20.2411 7.32325 20.0323C7.20812 20.2364 7.11487 20.1748 6.99444 20.6565C6.86102 21.1903 6.7276 21.257 6.79431 21.6239C6.86102 21.9908 6.82766 21.9575 6.52746 22.191C6.22726 22.4245 6.12719 22.4912 5.79355 22.3245C5.67788 22.2666 5.53011 22.1206 5.37803 21.9822C5.33347 22.3974 4.98449 24.5105 5.52697 25.0531C6.10469 25.6308 6.24914 25.6789 6.44174 26.3049C6.63434 26.9307 6.63434 27.3159 6.58619 27.7493C6.53804 28.1826 6.15284 28.664 6.29729 29.0492C6.35315 29.1983 6.51724 29.3907 6.70016 29.6039C6.84497 29.5152 6.97597 29.4315 7.0851 29.3633C7.56373 29.0642 7.32442 28.8847 7.38422 27.9274C7.44403 26.97 8.58091 26.9102 9.17925 26.5512C9.77759 26.1922 9.53827 26.2521 9.89721 25.534C10.0505 25.2274 10.4441 25.0192 10.8446 24.881C10.6488 24.1826 11.7619 23.6103 11.7619 23.6103C11.7619 23.6103 12.1136 23.6103 12.4652 23.4345C12.8169 23.2587 12.8873 23.3642 13.0631 23.3994C13.239 23.4345 13.4148 23.54 13.7666 23.6456C14.1182 23.7511 14.1886 23.9972 14.1886 23.9972L14.2297 24.1286C14.3956 23.9541 14.5272 23.7656 14.5739 23.6254C14.6646 23.3536 14.574 23.3989 14.393 23.1273Z" fill="url(#paint14_linear_2208_29889)" stroke="white" stroke-width="0.0987507" stroke-miterlimit="10"/>
<path d="M22.56 16.2609C22.2786 16.4368 22.4545 16.9643 22.0677 17.0347C21.6808 17.105 21.5049 16.9995 20.8719 17.105C20.2388 17.2105 18.3397 17.2808 17.9176 17.4566C17.4956 17.6325 17.566 17.4215 17.2846 17.3511C17.0032 17.2808 17.0736 17.2808 16.546 16.6125C16.0185 15.9443 14.9283 16.0498 14.4007 16.1202C13.8732 16.1905 13.9786 15.8739 13.5918 15.663C13.205 15.452 13.1697 15.2409 12.8884 14.9948C12.6071 14.7486 12.9587 14.5727 12.994 14.432C13.029 14.2921 12.6809 13.9782 12.227 13.8711C12.1499 13.9357 12.0899 14.035 12.0661 14.1858C11.9661 14.8197 12.1995 14.6529 11.6658 14.8864C11.132 15.1199 10.7651 15.1199 10.5983 15.4201C10.4315 15.7203 10.5649 15.7203 10.4315 16.0206C10.2981 16.3208 10.1313 16.4877 9.86437 16.5544C9.59752 16.6211 9.23052 16.421 9.03039 16.4877C8.83025 16.5544 8.86361 16.1541 8.56331 16.6545C8.26311 17.1549 8.26311 17.5552 8.26311 17.822C8.26311 18.0888 7.99627 18.3891 7.79604 18.5893C7.59591 18.7894 7.39568 18.8228 7.39568 19.123C7.39568 19.4232 7.49575 19.6568 7.36233 19.957C7.34932 19.9863 7.33668 20.0114 7.32422 20.0334C7.71965 20.2422 8.30176 20.5037 8.73709 20.5037C9.46114 20.5037 9.95897 20.2774 10.2758 20.2774C10.5925 20.2774 10.683 20.4584 10.9546 20.6847C11.2261 20.911 11.2714 21.0014 11.5882 21.0014C11.905 21.0014 13.9867 20.5036 13.9867 20.5036C13.9867 20.5036 14.213 20.4131 14.4392 20.7751C14.6655 21.1372 14.8465 21.8612 14.7107 22.178C14.575 22.4948 14.2129 22.8569 14.3939 23.1284C14.575 23.3999 14.6655 23.3547 14.575 23.6262C14.5283 23.7664 14.3966 23.9549 14.2308 24.1294L14.5414 25.1234C14.5414 25.1234 15.3856 25.7213 15.8427 25.6158C16.2999 25.5102 16.1592 24.9476 16.1592 24.9476C16.1592 24.9476 16.5109 24.4904 16.6164 24.3497C16.7219 24.209 16.4054 23.8925 16.335 23.5057C16.2647 23.1189 16.7219 23.154 16.7922 22.8727C16.8625 22.5913 17.1088 22.5913 17.0736 22.4155C17.0385 22.2396 17.1088 21.8527 17.2846 21.3604C17.4604 20.868 17.3901 21.2548 17.8825 20.868C18.3749 20.4811 18.7969 19.8129 19.1134 19.4964C19.43 19.1799 19.3597 19.5316 19.5355 19.4613C19.7113 19.391 19.9927 19.6371 20.2037 19.7075C20.4147 19.7778 20.696 20.0943 21.2588 20.0591C21.8215 20.024 21.8918 19.6019 21.8215 19.4613C21.7512 19.3206 21.5402 18.9689 21.4699 18.7931C21.3996 18.6172 21.5754 18.5117 21.6105 18.3359C21.6457 18.16 22.0677 18.0194 22.0677 18.0194C22.0677 18.0194 22.525 17.8435 22.9118 17.4919C23.2986 17.1402 22.8414 16.0851 22.56 16.2609Z" fill="url(#paint15_linear_2208_29889)" stroke="white" stroke-width="0.0987507" stroke-miterlimit="10"/>
<defs>
<linearGradient id="paint0_linear_2208_29889" x1="20.3976" y1="1.32978" x2="20.3976" y2="38.6931" gradientUnits="userSpaceOnUse">
<stop stop-color="#FF984F"/>
<stop offset="0.2978" stop-color="#F37A56"/>
<stop offset="0.9428" stop-color="#D42F67"/>
<stop offset="1" stop-color="#D12869"/>
</linearGradient>
<linearGradient id="paint1_linear_2208_29889" x1="14.1818" y1="1.33013" x2="14.1818" y2="38.6934" gradientUnits="userSpaceOnUse">
<stop stop-color="#FF984F"/>
<stop offset="0.2978" stop-color="#F37A56"/>
<stop offset="0.9428" stop-color="#D42F67"/>
<stop offset="1" stop-color="#D12869"/>
</linearGradient>
<linearGradient id="paint2_linear_2208_29889" x1="11.4454" y1="1.33072" x2="11.4454" y2="38.694" gradientUnits="userSpaceOnUse">
<stop stop-color="#FF984F"/>
<stop offset="0.2978" stop-color="#F37A56"/>
<stop offset="0.9428" stop-color="#D42F67"/>
<stop offset="1" stop-color="#D12869"/>
</linearGradient>
<linearGradient id="paint3_linear_2208_29889" x1="12.2541" y1="1.3297" x2="12.2541" y2="38.693" gradientUnits="userSpaceOnUse">
<stop stop-color="#FF984F"/>
<stop offset="0.2978" stop-color="#F37A56"/>
<stop offset="0.9428" stop-color="#D42F67"/>
<stop offset="1" stop-color="#D12869"/>
</linearGradient>
<linearGradient id="paint4_linear_2208_29889" x1="10.5864" y1="1.52757" x2="10.5864" y2="38.8909" gradientUnits="userSpaceOnUse">
<stop stop-color="#FF984F"/>
<stop offset="0.2978" stop-color="#F37A56"/>
<stop offset="0.9428" stop-color="#D42F67"/>
<stop offset="1" stop-color="#D12869"/>
</linearGradient>
<linearGradient id="paint5_linear_2208_29889" x1="29.4997" y1="1.33004" x2="29.4997" y2="38.6933" gradientUnits="userSpaceOnUse">
<stop stop-color="#FF984F"/>
<stop offset="0.2978" stop-color="#F37A56"/>
<stop offset="0.9428" stop-color="#D42F67"/>
<stop offset="1" stop-color="#D12869"/>
</linearGradient>
<linearGradient id="paint6_linear_2208_29889" x1="11.5426" y1="1.33032" x2="11.5426" y2="38.6936" gradientUnits="userSpaceOnUse">
<stop stop-color="#FF984F"/>
<stop offset="0.2978" stop-color="#F37A56"/>
<stop offset="0.9428" stop-color="#D42F67"/>
<stop offset="1" stop-color="#D12869"/>
</linearGradient>
<linearGradient id="paint7_linear_2208_29889" x1="14.9638" y1="1.33003" x2="14.9638" y2="38.6933" gradientUnits="userSpaceOnUse">
<stop stop-color="#FF984F"/>
<stop offset="0.2978" stop-color="#F37A56"/>
<stop offset="0.9428" stop-color="#D42F67"/>
<stop offset="1" stop-color="#D12869"/>
</linearGradient>
<linearGradient id="paint8_linear_2208_29889" x1="28.207" y1="1.32973" x2="28.207" y2="38.693" gradientUnits="userSpaceOnUse">
<stop stop-color="#FF984F"/>
<stop offset="0.2978" stop-color="#F37A56"/>
<stop offset="0.9428" stop-color="#D42F67"/>
<stop offset="1" stop-color="#D12869"/>
</linearGradient>
<linearGradient id="paint9_linear_2208_29889" x1="23.4215" y1="1.33004" x2="23.4215" y2="38.6933" gradientUnits="userSpaceOnUse">
<stop stop-color="#FF984F"/>
<stop offset="0.2978" stop-color="#F37A56"/>
<stop offset="0.9428" stop-color="#D42F67"/>
<stop offset="1" stop-color="#D12869"/>
</linearGradient>
<linearGradient id="paint10_linear_2208_29889" x1="19.2079" y1="1.32963" x2="19.2079" y2="38.6929" gradientUnits="userSpaceOnUse">
<stop stop-color="#FF984F"/>
<stop offset="0.2978" stop-color="#F37A56"/>
<stop offset="0.9428" stop-color="#D42F67"/>
<stop offset="1" stop-color="#D12869"/>
</linearGradient>
<linearGradient id="paint11_linear_2208_29889" x1="9.54942" y1="1.33005" x2="9.54942" y2="38.6933" gradientUnits="userSpaceOnUse">
<stop stop-color="#FF984F"/>
<stop offset="0.2978" stop-color="#F37A56"/>
<stop offset="0.9428" stop-color="#D42F67"/>
<stop offset="1" stop-color="#D12869"/>
</linearGradient>
<linearGradient id="paint12_linear_2208_29889" x1="4.37604" y1="1.33049" x2="4.37604" y2="38.6938" gradientUnits="userSpaceOnUse">
<stop stop-color="#FF984F"/>
<stop offset="0.2978" stop-color="#F37A56"/>
<stop offset="0.9428" stop-color="#D42F67"/>
<stop offset="1" stop-color="#D12869"/>
</linearGradient>
<linearGradient id="paint13_linear_2208_29889" x1="7.51453" y1="1.33026" x2="7.51453" y2="38.6935" gradientUnits="userSpaceOnUse">
<stop stop-color="#FF984F"/>
<stop offset="0.2978" stop-color="#F37A56"/>
<stop offset="0.9428" stop-color="#D42F67"/>
<stop offset="1" stop-color="#D12869"/>
</linearGradient>
<linearGradient id="paint14_linear_2208_29889" x1="9.99157" y1="1.32958" x2="9.99157" y2="38.6929" gradientUnits="userSpaceOnUse">
<stop stop-color="#FF984F"/>
<stop offset="0.2978" stop-color="#F37A56"/>
<stop offset="0.9428" stop-color="#D42F67"/>
<stop offset="1" stop-color="#D12869"/>
</linearGradient>
<linearGradient id="paint15_linear_2208_29889" x1="15.1924" y1="1.33073" x2="15.1924" y2="38.694" gradientUnits="userSpaceOnUse">
<stop stop-color="#FF984F"/>
<stop offset="0.2978" stop-color="#F37A56"/>
<stop offset="0.9428" stop-color="#D42F67"/>
<stop offset="1" stop-color="#D12869"/>
</linearGradient>
</defs>
</svg>
