<svg width="23" height="17" viewBox="0 0 23 17" fill="none" xmlns="http://www.w3.org/2000/svg">
<mask id="path-1-inside-1_1571_9838" fill="white">
<path d="M4.05167 5.99899C3.98606 6.12708 3.93079 6.23474 3.98605 6.39497C4.03991 6.5552 4.18289 6.63968 4.45591 6.69362C4.56879 6.71543 4.65157 6.72691 4.71836 6.74481C4.8143 6.76914 4.88109 6.80771 4.96645 6.90757C4.99914 6.9459 5.02806 6.98447 5.0544 7.0228C5.06757 7.04208 5.0805 7.06114 5.09109 7.08042C5.10167 7.09833 5.11202 7.11508 5.12002 7.13299C5.12801 7.14837 5.13436 7.16237 5.13977 7.17775C5.14635 7.19175 5.15152 7.20599 5.15693 7.21999C5.16093 7.23422 5.1647 7.24685 5.16869 7.26108C5.3025 7.25718 5.43913 7.24823 5.56635 7.20851C5.6924 7.17018 5.80645 7.10223 5.9325 7.06619C6.05855 7.03038 6.20812 7.0329 6.30406 7.1199C6.46162 7.26475 6.39601 7.5595 6.57191 7.68369C6.62435 7.72203 6.69137 7.73488 6.75181 7.76312C7.01966 7.89006 7.11796 8.29362 7.41591 8.31795C7.52173 8.32667 7.61768 8.28168 7.70892 8.22337C7.76372 8.18848 7.81686 8.14877 7.8693 8.11342L7.86977 8.11319C8.1522 7.9261 8.50001 7.98624 8.55386 8.34504C8.57479 8.47841 8.54869 8.61545 8.51318 8.74607C8.49342 8.82297 8.4685 8.89987 8.45932 8.9793C8.43698 9.17672 8.51717 9.38171 8.66815 9.51485C8.7521 9.58923 8.8584 9.64432 8.91366 9.7405C9.02654 9.93907 8.87298 10.2184 9.0082 10.4044C9.0818 10.5056 9.2182 10.5428 9.31132 10.6298C9.33484 10.6516 9.356 10.6759 9.38493 10.6925C9.45289 10.7308 9.53261 10.7044 9.60292 10.6619C9.6262 10.6477 9.64855 10.6319 9.66924 10.6158C9.68994 10.6002 9.71251 10.5841 9.73603 10.5697C9.80634 10.5265 9.88582 10.4978 9.95473 10.5334C9.89829 10.7359 9.97448 10.9677 10.1412 11.0997C10.3079 11.2317 10.5351 11.2599 10.7294 11.3469C11.1416 11.534 11.3791 12.0259 11.2662 12.4552C11.2413 12.5525 11.2018 12.6641 11.2582 12.7486C11.2766 12.7754 11.5616 12.6692 11.614 12.6666C11.7441 12.6577 11.8793 12.6834 12.0014 12.7293C12.2403 12.8216 12.4451 13.0048 12.5422 13.2394C12.6408 13.479 12.6499 13.7788 12.772 13.9953C12.8141 14.0733 12.8717 14.1401 12.9519 14.1902C13.0307 14.2375 13.1238 14.2618 13.1934 14.3197C13.3418 14.4413 13.3549 14.6824 13.5217 14.7772C13.6767 14.8655 13.901 14.7875 14.0348 14.9027C14.1176 14.9746 14.1333 15.0923 14.1766 15.1922C14.2213 15.2907 14.3429 15.3816 14.4348 15.323C14.5094 15.2741 14.507 15.1591 14.5752 15.1015C14.586 15.0923 14.5973 15.0852 14.6093 15.0797C14.6937 15.0409 14.8085 15.0818 14.9051 15.0627C14.9392 15.0563 14.9696 15.0432 14.9976 15.0258C15.0815 14.9727 15.1434 14.8795 15.2144 14.8056C15.2384 14.7806 15.268 14.7581 15.3 14.74C15.3959 14.6858 15.5142 14.6727 15.5732 14.7565C15.5523 14.9486 15.5667 15.1986 15.7543 15.2613C15.8068 15.2781 15.8646 15.2767 15.9119 15.3049C16.0327 15.3779 15.9723 15.5547 15.9577 15.6919C15.9472 15.806 15.9827 15.9277 16.0706 16.0032C16.1583 16.0787 16.2985 16.0966 16.393 16.0303C16.4523 15.9888 16.4908 15.9206 16.5447 15.8751C16.5626 15.86 16.5823 15.8473 16.6049 15.8391C16.6653 15.8161 16.7335 15.8313 16.798 15.8276C16.9504 15.8187 17.071 15.7046 17.2076 15.6405C17.3454 15.5765 17.5594 15.5969 17.5895 15.7431C17.618 15.8774 17.4696 15.9741 17.3483 16.0468C17.3468 16.0478 17.3454 16.0487 17.344 16.0494C17.2231 16.1224 17.1039 16.2812 17.1996 16.3838C17.2612 16.4479 17.3715 16.435 17.4529 16.3953C17.53 16.3583 17.6022 16.3046 17.6859 16.289V16.2879C17.6808 16.1905 17.5874 16.0842 17.7135 16.0046L17.7139 16.0044L17.7142 16.0041C17.84 15.9236 18.0796 15.9284 18.1626 15.8698C18.2136 15.8338 18.3202 15.7434 18.4048 15.6974C18.4559 15.6697 18.4991 15.6577 18.5175 15.6839C18.5673 15.753 18.7091 15.7801 18.6605 15.9773C18.6106 16.1747 18.6 16.2387 18.688 16.3565C18.7745 16.4731 18.7209 16.5321 18.9504 16.6448C19.1802 16.7564 19.2392 16.7933 19.4309 16.7614C19.5505 16.7415 19.6488 16.7364 19.7229 16.7001C19.7671 16.6783 19.8029 16.6455 19.8292 16.5913C19.9014 16.4465 19.8685 16.4093 19.967 16.2812C20.0531 16.169 20.1594 16.0363 20.2252 16.0048C20.2349 16.0002 20.2436 15.9975 20.2513 15.9975C20.3118 15.9975 20.3064 16.0783 20.4324 16.137C20.5585 16.196 20.4863 16.2973 20.6779 16.196C20.7017 16.1834 20.7252 16.1699 20.7485 16.1552C20.911 16.0528 21.0497 15.9068 21.0831 15.7902C21.1212 15.6568 21.1487 15.5981 20.99 15.2673C20.8312 14.9353 20.8089 14.8662 20.6448 14.7278C20.4806 14.5882 20.2955 14.5561 20.3993 14.3704C20.503 14.1833 20.6499 14.0552 20.6499 13.9476C20.6499 13.8413 20.6829 13.676 20.5686 13.6388C20.4531 13.6016 20.3717 13.5966 20.1314 13.5966C19.8899 13.5966 19.7587 13.6441 19.567 13.5529C19.3765 13.462 19.2731 13.4095 19.1955 13.3236C19.1193 13.2378 19.0313 13.1262 19.0313 12.9763C19.0313 12.8459 19.0273 12.6979 19.0997 12.635C19.1047 12.6306 19.1115 12.6281 19.1171 12.6244C19.123 12.621 19.1282 12.6164 19.1348 12.6136L19.1353 12.6134C19.2455 12.5711 19.2836 12.5647 19.365 12.6134C19.4269 12.6487 19.5496 12.6942 19.5983 12.6533C19.6143 12.6393 19.622 12.6159 19.6166 12.5792C19.5943 12.4318 19.7309 12.4433 19.5668 12.1166C19.4026 11.7911 19.3542 11.7271 19.2608 11.6208C19.1677 11.5131 19.1021 11.4018 19.1348 11.2838C19.1552 11.2108 19.1759 11.1433 19.2354 11.1031C19.2709 11.0788 19.3206 11.0643 19.3925 11.0643C19.5842 11.0643 19.7587 11.113 19.8901 11.1502C20.0213 11.1874 20.1907 11.2193 20.3391 11.172C20.4308 11.1417 20.4806 11.1321 20.5354 11.0972C20.5683 11.0761 20.6029 11.0455 20.6497 10.9957C20.7758 10.8623 21.0763 10.5318 20.9897 10.296C20.9018 10.0616 20.7757 9.90647 20.7757 9.78343C20.7757 9.67554 20.815 9.54607 20.8613 9.50704C20.8675 9.50177 20.8738 9.49786 20.8799 9.49603C20.935 9.47927 21.0716 9.67164 21.1976 9.68816C21.3077 9.70148 21.4086 9.75198 21.4761 9.70079C21.4857 9.69344 21.4946 9.68403 21.5029 9.67186C21.5685 9.57568 21.6341 9.52702 21.5802 9.42073C21.5252 9.31445 21.4319 9.22859 21.5198 9.08489C21.5969 8.95795 21.7192 8.83215 21.774 8.803C21.782 8.79864 21.7886 8.79634 21.7935 8.79634C21.8316 8.79634 21.8815 8.79129 21.98 8.83353C22.0539 8.86521 22.1519 8.88839 22.2154 8.86154C22.2363 8.85258 22.2533 8.83835 22.2643 8.81723C22.3076 8.73253 22.3732 8.73781 22.3509 8.61477C22.3299 8.49172 22.1764 8.50205 22.3234 8.27273C22.4717 8.0434 22.6081 7.32834 22.6305 7.08754C22.6514 6.84788 22.5858 6.76708 22.6737 6.66607C22.7617 6.56484 22.8706 6.45213 22.9087 6.34057C22.9468 6.229 22.9637 6.08943 22.9691 6.02539C22.9743 5.96134 23.0519 5.64616 22.805 5.59359C22.5595 5.53988 22.3179 5.44369 22.2248 5.30527C22.1329 5.1657 22.0343 4.88886 21.936 4.8721C21.8375 4.85672 21.6894 4.93615 21.5908 4.97839C21.4923 5.022 21.3611 5.04243 21.2298 5.00019C21.0986 4.95796 20.907 4.86705 20.7219 4.78625C20.5354 4.70682 20.4042 4.67469 20.3057 4.5684C20.2071 4.46074 20.3332 4.3967 20.0865 4.39164C19.9026 4.38774 19.7396 4.41414 19.6488 4.4814C19.6185 4.5039 19.5964 4.53098 19.5844 4.56289C19.547 4.65908 19.5811 4.78212 19.5077 4.83951C19.4833 4.85879 19.4471 4.87073 19.3923 4.8721C19.1731 4.87715 18.9826 4.74906 18.774 4.72863C18.5673 4.70682 18.2955 4.7284 18.2666 4.75526C18.2459 4.77477 18.259 4.94189 18.1281 5.03738C18.0845 5.06929 18.025 5.09339 17.943 5.10143C17.6558 5.12943 17.3689 5.12507 17.1952 5.22057C17.1705 5.23411 17.1481 5.24972 17.1284 5.26763C16.9894 5.39342 16.964 5.69965 16.7987 5.79193C16.7749 5.80524 16.7483 5.8142 16.7182 5.81764C16.4767 5.8445 16.3573 5.73684 16.247 5.75864C16.2199 5.76415 16.1917 5.7777 16.1642 5.79629C16.0812 5.85276 16.0043 5.95537 15.9796 6.01965C15.9674 6.05201 15.9309 6.08255 15.8888 6.10596C15.8188 6.14521 15.7317 6.1645 15.7113 6.13787C15.6786 6.09448 15.498 6.01001 15.4058 6.07359C15.3583 6.10642 15.3216 6.15256 15.2736 6.18584C15.2276 6.21798 15.1709 6.23818 15.0825 6.22257C15.0274 6.21362 14.9432 6.20467 14.8986 6.17138C14.8513 6.13557 14.8395 6.10229 14.7699 6.08943C14.7109 6.0791 14.6519 6.07658 14.5914 6.0791C14.5823 6.08048 14.5731 6.08048 14.5639 6.07772C14.5533 6.0752 14.5456 6.06877 14.5376 6.0612C14.5141 6.04329 14.4903 6.02286 14.4797 5.99463C14.4626 5.95354 14.4849 5.89982 14.527 5.88192H14.5272L14.5275 5.88168C14.5395 5.87526 14.5538 5.8725 14.5656 5.86883C14.5935 5.86057 14.6178 5.84909 14.6375 5.83509C14.697 5.79239 14.7158 5.72513 14.6766 5.64639C14.6055 5.50292 14.4861 5.39641 14.4362 5.37988C14.3875 5.36312 14.0701 5.22998 14.0045 5.21965C13.9389 5.20932 13.8732 5.06975 13.6212 5.09156C13.3705 5.11337 13.1513 5.08651 13.0253 4.97885C12.8992 4.87256 12.621 4.85718 12.7351 4.62143C12.8505 4.38682 12.9817 4.27411 12.97 4.17931C12.9594 4.08198 12.9872 4.0884 12.8611 3.9486C12.7351 3.81018 12.5881 3.69747 12.3858 3.6449C12.1824 3.59119 11.9802 3.60771 11.9421 3.48467C11.904 3.36163 11.8436 3.1796 11.7453 3.12083C11.6467 3.06321 11.6467 3.06321 11.488 3.03635C11.3293 3.0095 11.1494 2.94545 11.0783 2.88645C11.0073 2.82746 10.9798 2.74298 10.9024 2.67894C10.8262 2.61489 10.8159 2.59308 10.569 2.4969C10.3235 2.40072 10.2146 2.37914 10.1751 2.33162C10.137 2.28295 9.94015 2.10734 9.92439 2.04858C9.90722 1.98958 9.83127 1.83463 9.73273 1.71159C9.6342 1.58993 9.45312 1.48227 9.37176 1.39136C9.28898 1.30161 9.13683 1.1889 9.11449 1.10947C9.09215 1.02867 9.0383 0.922383 9.0383 0.848007C9.0383 0.772483 8.98327 0.51102 8.98327 0.51102C8.98139 0.512398 8.91837 0.555324 8.82265 0.610876C8.60913 0.734836 8.23498 0.919628 8.03156 0.831479C7.7362 0.703387 7.37523 0.543158 7.21108 0.51102C7.04718 0.479112 6.09641 0.780976 5.99717 0.854204C5.99105 0.858796 5.98306 0.863616 5.97295 0.868666C5.82362 0.946256 5.26276 1.08353 5.07792 1.02362C4.88109 0.95957 4.25744 0.773861 4.25744 0.773861C4.25744 0.773861 3.96278 0.776385 3.90963 0.817476C3.89764 0.827117 3.89858 0.838595 3.91927 0.852827C4.02815 0.927203 4.21464 0.924678 4.41147 1.03854C4.6083 1.15125 4.81571 1.26924 4.79337 1.36519C4.77479 1.45013 4.62758 1.55067 4.59348 1.57317C4.58831 1.57661 4.58549 1.57845 4.58549 1.57845C4.58549 1.57845 4.35573 1.65397 4.29012 1.67463C4.22451 1.69644 4.05896 1.60026 3.90164 1.53621C3.7429 1.47217 3.72173 1.42993 3.50256 1.42993C3.28339 1.42993 3.24012 1.47217 3.15217 1.47217C3.06563 1.47217 2.80295 1.42993 2.74793 1.41845C2.72041 1.4134 2.67408 1.41868 2.63434 1.44393C2.59483 1.46941 2.56191 1.51486 2.56191 1.5897C2.56191 1.73822 2.56191 1.90993 2.56191 1.90993C2.56191 1.90993 2.39777 2.24049 2.15766 2.43285C2.06242 2.50907 1.96177 2.57977 1.86465 2.63853C1.71697 2.72806 1.57752 2.78958 1.47828 2.79578C1.33506 2.80588 1.16669 2.74964 1.0825 2.81368C1.07051 2.82287 1.0604 2.83457 1.05217 2.84927C0.986556 2.96726 0.910361 3.12726 0.965624 3.34005C1.01948 3.554 0.949872 3.7886 0.945874 3.9167C0.943287 4.04479 1.00889 4.37672 1.22807 4.35492C1.44606 4.33311 1.54436 4.30097 1.69792 4.22682C1.85149 4.15245 1.93826 4.19469 1.98271 4.24863C2.02598 4.3012 2.17953 4.32553 2.23338 4.35629C2.28841 4.38705 2.51817 4.35629 2.51817 4.35629C2.51817 4.35629 2.65997 4.601 2.69266 4.80347C2.72558 5.00593 2.93418 5.26212 3.1089 5.3583C3.28339 5.45448 3.53548 5.48639 3.60109 5.48639C3.66671 5.48639 3.98441 5.46596 4.05002 5.48639C4.11563 5.5082 4.30071 5.75428 4.27978 5.80685C4.27414 5.82039 4.26097 5.83118 4.24333 5.84174C4.21723 5.85758 4.18124 5.87273 4.14573 5.89615C4.1114 5.91956 4.07613 5.95101 4.05167 5.99899Z"/>
</mask>
<path d="M4.05167 5.99899C3.98606 6.12708 3.93079 6.23474 3.98605 6.39497C4.03991 6.5552 4.18289 6.63968 4.45591 6.69362C4.56879 6.71543 4.65157 6.72691 4.71836 6.74481C4.8143 6.76914 4.88109 6.80771 4.96645 6.90757C4.99914 6.9459 5.02806 6.98447 5.0544 7.0228C5.06757 7.04208 5.0805 7.06114 5.09109 7.08042C5.10167 7.09833 5.11202 7.11508 5.12002 7.13299C5.12801 7.14837 5.13436 7.16237 5.13977 7.17775C5.14635 7.19175 5.15152 7.20599 5.15693 7.21999C5.16093 7.23422 5.1647 7.24685 5.16869 7.26108C5.3025 7.25718 5.43913 7.24823 5.56635 7.20851C5.6924 7.17018 5.80645 7.10223 5.9325 7.06619C6.05855 7.03038 6.20812 7.0329 6.30406 7.1199C6.46162 7.26475 6.39601 7.5595 6.57191 7.68369C6.62435 7.72203 6.69137 7.73488 6.75181 7.76312C7.01966 7.89006 7.11796 8.29362 7.41591 8.31795C7.52173 8.32667 7.61768 8.28168 7.70892 8.22337C7.76372 8.18848 7.81686 8.14877 7.8693 8.11342L7.86977 8.11319C8.1522 7.9261 8.50001 7.98624 8.55386 8.34504C8.57479 8.47841 8.54869 8.61545 8.51318 8.74607C8.49342 8.82297 8.4685 8.89987 8.45932 8.9793C8.43698 9.17672 8.51717 9.38171 8.66815 9.51485C8.7521 9.58923 8.8584 9.64432 8.91366 9.7405C9.02654 9.93907 8.87298 10.2184 9.0082 10.4044C9.0818 10.5056 9.2182 10.5428 9.31132 10.6298C9.33484 10.6516 9.356 10.6759 9.38493 10.6925C9.45289 10.7308 9.53261 10.7044 9.60292 10.6619C9.6262 10.6477 9.64855 10.6319 9.66924 10.6158C9.68994 10.6002 9.71251 10.5841 9.73603 10.5697C9.80634 10.5265 9.88582 10.4978 9.95473 10.5334C9.89829 10.7359 9.97448 10.9677 10.1412 11.0997C10.3079 11.2317 10.5351 11.2599 10.7294 11.3469C11.1416 11.534 11.3791 12.0259 11.2662 12.4552C11.2413 12.5525 11.2018 12.6641 11.2582 12.7486C11.2766 12.7754 11.5616 12.6692 11.614 12.6666C11.7441 12.6577 11.8793 12.6834 12.0014 12.7293C12.2403 12.8216 12.4451 13.0048 12.5422 13.2394C12.6408 13.479 12.6499 13.7788 12.772 13.9953C12.8141 14.0733 12.8717 14.1401 12.9519 14.1902C13.0307 14.2375 13.1238 14.2618 13.1934 14.3197C13.3418 14.4413 13.3549 14.6824 13.5217 14.7772C13.6767 14.8655 13.901 14.7875 14.0348 14.9027C14.1176 14.9746 14.1333 15.0923 14.1766 15.1922C14.2213 15.2907 14.3429 15.3816 14.4348 15.323C14.5094 15.2741 14.507 15.1591 14.5752 15.1015C14.586 15.0923 14.5973 15.0852 14.6093 15.0797C14.6937 15.0409 14.8085 15.0818 14.9051 15.0627C14.9392 15.0563 14.9696 15.0432 14.9976 15.0258C15.0815 14.9727 15.1434 14.8795 15.2144 14.8056C15.2384 14.7806 15.268 14.7581 15.3 14.74C15.3959 14.6858 15.5142 14.6727 15.5732 14.7565C15.5523 14.9486 15.5667 15.1986 15.7543 15.2613C15.8068 15.2781 15.8646 15.2767 15.9119 15.3049C16.0327 15.3779 15.9723 15.5547 15.9577 15.6919C15.9472 15.806 15.9827 15.9277 16.0706 16.0032C16.1583 16.0787 16.2985 16.0966 16.393 16.0303C16.4523 15.9888 16.4908 15.9206 16.5447 15.8751C16.5626 15.86 16.5823 15.8473 16.6049 15.8391C16.6653 15.8161 16.7335 15.8313 16.798 15.8276C16.9504 15.8187 17.071 15.7046 17.2076 15.6405C17.3454 15.5765 17.5594 15.5969 17.5895 15.7431C17.618 15.8774 17.4696 15.9741 17.3483 16.0468C17.3468 16.0478 17.3454 16.0487 17.344 16.0494C17.2231 16.1224 17.1039 16.2812 17.1996 16.3838C17.2612 16.4479 17.3715 16.435 17.4529 16.3953C17.53 16.3583 17.6022 16.3046 17.6859 16.289V16.2879C17.6808 16.1905 17.5874 16.0842 17.7135 16.0046L17.7139 16.0044L17.7142 16.0041C17.84 15.9236 18.0796 15.9284 18.1626 15.8698C18.2136 15.8338 18.3202 15.7434 18.4048 15.6974C18.4559 15.6697 18.4991 15.6577 18.5175 15.6839C18.5673 15.753 18.7091 15.7801 18.6605 15.9773C18.6106 16.1747 18.6 16.2387 18.688 16.3565C18.7745 16.4731 18.7209 16.5321 18.9504 16.6448C19.1802 16.7564 19.2392 16.7933 19.4309 16.7614C19.5505 16.7415 19.6488 16.7364 19.7229 16.7001C19.7671 16.6783 19.8029 16.6455 19.8292 16.5913C19.9014 16.4465 19.8685 16.4093 19.967 16.2812C20.0531 16.169 20.1594 16.0363 20.2252 16.0048C20.2349 16.0002 20.2436 15.9975 20.2513 15.9975C20.3118 15.9975 20.3064 16.0783 20.4324 16.137C20.5585 16.196 20.4863 16.2973 20.6779 16.196C20.7017 16.1834 20.7252 16.1699 20.7485 16.1552C20.911 16.0528 21.0497 15.9068 21.0831 15.7902C21.1212 15.6568 21.1487 15.5981 20.99 15.2673C20.8312 14.9353 20.8089 14.8662 20.6448 14.7278C20.4806 14.5882 20.2955 14.5561 20.3993 14.3704C20.503 14.1833 20.6499 14.0552 20.6499 13.9476C20.6499 13.8413 20.6829 13.676 20.5686 13.6388C20.4531 13.6016 20.3717 13.5966 20.1314 13.5966C19.8899 13.5966 19.7587 13.6441 19.567 13.5529C19.3765 13.462 19.2731 13.4095 19.1955 13.3236C19.1193 13.2378 19.0313 13.1262 19.0313 12.9763C19.0313 12.8459 19.0273 12.6979 19.0997 12.635C19.1047 12.6306 19.1115 12.6281 19.1171 12.6244C19.123 12.621 19.1282 12.6164 19.1348 12.6136L19.1353 12.6134C19.2455 12.5711 19.2836 12.5647 19.365 12.6134C19.4269 12.6487 19.5496 12.6942 19.5983 12.6533C19.6143 12.6393 19.622 12.6159 19.6166 12.5792C19.5943 12.4318 19.7309 12.4433 19.5668 12.1166C19.4026 11.7911 19.3542 11.7271 19.2608 11.6208C19.1677 11.5131 19.1021 11.4018 19.1348 11.2838C19.1552 11.2108 19.1759 11.1433 19.2354 11.1031C19.2709 11.0788 19.3206 11.0643 19.3925 11.0643C19.5842 11.0643 19.7587 11.113 19.8901 11.1502C20.0213 11.1874 20.1907 11.2193 20.3391 11.172C20.4308 11.1417 20.4806 11.1321 20.5354 11.0972C20.5683 11.0761 20.6029 11.0455 20.6497 10.9957C20.7758 10.8623 21.0763 10.5318 20.9897 10.296C20.9018 10.0616 20.7757 9.90647 20.7757 9.78343C20.7757 9.67554 20.815 9.54607 20.8613 9.50704C20.8675 9.50177 20.8738 9.49786 20.8799 9.49603C20.935 9.47927 21.0716 9.67164 21.1976 9.68816C21.3077 9.70148 21.4086 9.75198 21.4761 9.70079C21.4857 9.69344 21.4946 9.68403 21.5029 9.67186C21.5685 9.57568 21.6341 9.52702 21.5802 9.42073C21.5252 9.31445 21.4319 9.22859 21.5198 9.08489C21.5969 8.95795 21.7192 8.83215 21.774 8.803C21.782 8.79864 21.7886 8.79634 21.7935 8.79634C21.8316 8.79634 21.8815 8.79129 21.98 8.83353C22.0539 8.86521 22.1519 8.88839 22.2154 8.86154C22.2363 8.85258 22.2533 8.83835 22.2643 8.81723C22.3076 8.73253 22.3732 8.73781 22.3509 8.61477C22.3299 8.49172 22.1764 8.50205 22.3234 8.27273C22.4717 8.0434 22.6081 7.32834 22.6305 7.08754C22.6514 6.84788 22.5858 6.76708 22.6737 6.66607C22.7617 6.56484 22.8706 6.45213 22.9087 6.34057C22.9468 6.229 22.9637 6.08943 22.9691 6.02539C22.9743 5.96134 23.0519 5.64616 22.805 5.59359C22.5595 5.53988 22.3179 5.44369 22.2248 5.30527C22.1329 5.1657 22.0343 4.88886 21.936 4.8721C21.8375 4.85672 21.6894 4.93615 21.5908 4.97839C21.4923 5.022 21.3611 5.04243 21.2298 5.00019C21.0986 4.95796 20.907 4.86705 20.7219 4.78625C20.5354 4.70682 20.4042 4.67469 20.3057 4.5684C20.2071 4.46074 20.3332 4.3967 20.0865 4.39164C19.9026 4.38774 19.7396 4.41414 19.6488 4.4814C19.6185 4.5039 19.5964 4.53098 19.5844 4.56289C19.547 4.65908 19.5811 4.78212 19.5077 4.83951C19.4833 4.85879 19.4471 4.87073 19.3923 4.8721C19.1731 4.87715 18.9826 4.74906 18.774 4.72863C18.5673 4.70682 18.2955 4.7284 18.2666 4.75526C18.2459 4.77477 18.259 4.94189 18.1281 5.03738C18.0845 5.06929 18.025 5.09339 17.943 5.10143C17.6558 5.12943 17.3689 5.12507 17.1952 5.22057C17.1705 5.23411 17.1481 5.24972 17.1284 5.26763C16.9894 5.39342 16.964 5.69965 16.7987 5.79193C16.7749 5.80524 16.7483 5.8142 16.7182 5.81764C16.4767 5.8445 16.3573 5.73684 16.247 5.75864C16.2199 5.76415 16.1917 5.7777 16.1642 5.79629C16.0812 5.85276 16.0043 5.95537 15.9796 6.01965C15.9674 6.05201 15.9309 6.08255 15.8888 6.10596C15.8188 6.14521 15.7317 6.1645 15.7113 6.13787C15.6786 6.09448 15.498 6.01001 15.4058 6.07359C15.3583 6.10642 15.3216 6.15256 15.2736 6.18584C15.2276 6.21798 15.1709 6.23818 15.0825 6.22257C15.0274 6.21362 14.9432 6.20467 14.8986 6.17138C14.8513 6.13557 14.8395 6.10229 14.7699 6.08943C14.7109 6.0791 14.6519 6.07658 14.5914 6.0791C14.5823 6.08048 14.5731 6.08048 14.5639 6.07772C14.5533 6.0752 14.5456 6.06877 14.5376 6.0612C14.5141 6.04329 14.4903 6.02286 14.4797 5.99463C14.4626 5.95354 14.4849 5.89982 14.527 5.88192H14.5272L14.5275 5.88168C14.5395 5.87526 14.5538 5.8725 14.5656 5.86883C14.5935 5.86057 14.6178 5.84909 14.6375 5.83509C14.697 5.79239 14.7158 5.72513 14.6766 5.64639C14.6055 5.50292 14.4861 5.39641 14.4362 5.37988C14.3875 5.36312 14.0701 5.22998 14.0045 5.21965C13.9389 5.20932 13.8732 5.06975 13.6212 5.09156C13.3705 5.11337 13.1513 5.08651 13.0253 4.97885C12.8992 4.87256 12.621 4.85718 12.7351 4.62143C12.8505 4.38682 12.9817 4.27411 12.97 4.17931C12.9594 4.08198 12.9872 4.0884 12.8611 3.9486C12.7351 3.81018 12.5881 3.69747 12.3858 3.6449C12.1824 3.59119 11.9802 3.60771 11.9421 3.48467C11.904 3.36163 11.8436 3.1796 11.7453 3.12083C11.6467 3.06321 11.6467 3.06321 11.488 3.03635C11.3293 3.0095 11.1494 2.94545 11.0783 2.88645C11.0073 2.82746 10.9798 2.74298 10.9024 2.67894C10.8262 2.61489 10.8159 2.59308 10.569 2.4969C10.3235 2.40072 10.2146 2.37914 10.1751 2.33162C10.137 2.28295 9.94015 2.10734 9.92439 2.04858C9.90722 1.98958 9.83127 1.83463 9.73273 1.71159C9.6342 1.58993 9.45312 1.48227 9.37176 1.39136C9.28898 1.30161 9.13683 1.1889 9.11449 1.10947C9.09215 1.02867 9.0383 0.922383 9.0383 0.848007C9.0383 0.772483 8.98327 0.51102 8.98327 0.51102C8.98139 0.512398 8.91837 0.555324 8.82265 0.610876C8.60913 0.734836 8.23498 0.919628 8.03156 0.831479C7.7362 0.703387 7.37523 0.543158 7.21108 0.51102C7.04718 0.479112 6.09641 0.780976 5.99717 0.854204C5.99105 0.858796 5.98306 0.863616 5.97295 0.868666C5.82362 0.946256 5.26276 1.08353 5.07792 1.02362C4.88109 0.95957 4.25744 0.773861 4.25744 0.773861C4.25744 0.773861 3.96278 0.776385 3.90963 0.817476C3.89764 0.827117 3.89858 0.838595 3.91927 0.852827C4.02815 0.927203 4.21464 0.924678 4.41147 1.03854C4.6083 1.15125 4.81571 1.26924 4.79337 1.36519C4.77479 1.45013 4.62758 1.55067 4.59348 1.57317C4.58831 1.57661 4.58549 1.57845 4.58549 1.57845C4.58549 1.57845 4.35573 1.65397 4.29012 1.67463C4.22451 1.69644 4.05896 1.60026 3.90164 1.53621C3.7429 1.47217 3.72173 1.42993 3.50256 1.42993C3.28339 1.42993 3.24012 1.47217 3.15217 1.47217C3.06563 1.47217 2.80295 1.42993 2.74793 1.41845C2.72041 1.4134 2.67408 1.41868 2.63434 1.44393C2.59483 1.46941 2.56191 1.51486 2.56191 1.5897C2.56191 1.73822 2.56191 1.90993 2.56191 1.90993C2.56191 1.90993 2.39777 2.24049 2.15766 2.43285C2.06242 2.50907 1.96177 2.57977 1.86465 2.63853C1.71697 2.72806 1.57752 2.78958 1.47828 2.79578C1.33506 2.80588 1.16669 2.74964 1.0825 2.81368C1.07051 2.82287 1.0604 2.83457 1.05217 2.84927C0.986556 2.96726 0.910361 3.12726 0.965624 3.34005C1.01948 3.554 0.949872 3.7886 0.945874 3.9167C0.943287 4.04479 1.00889 4.37672 1.22807 4.35492C1.44606 4.33311 1.54436 4.30097 1.69792 4.22682C1.85149 4.15245 1.93826 4.19469 1.98271 4.24863C2.02598 4.3012 2.17953 4.32553 2.23338 4.35629C2.28841 4.38705 2.51817 4.35629 2.51817 4.35629C2.51817 4.35629 2.65997 4.601 2.69266 4.80347C2.72558 5.00593 2.93418 5.26212 3.1089 5.3583C3.28339 5.45448 3.53548 5.48639 3.60109 5.48639C3.66671 5.48639 3.98441 5.46596 4.05002 5.48639C4.11563 5.5082 4.30071 5.75428 4.27978 5.80685C4.27414 5.82039 4.26097 5.83118 4.24333 5.84174C4.21723 5.85758 4.18124 5.87273 4.14573 5.89615C4.1114 5.91956 4.07613 5.95101 4.05167 5.99899Z" fill="#E0D47C"/>
<path d="M4.05167 5.99899C3.98606 6.12708 3.93079 6.23474 3.98605 6.39497C4.03991 6.5552 4.18289 6.63968 4.45591 6.69362C4.56879 6.71543 4.65157 6.72691 4.71836 6.74481C4.8143 6.76914 4.88109 6.80771 4.96645 6.90757C4.99914 6.9459 5.02806 6.98447 5.0544 7.0228C5.06757 7.04208 5.0805 7.06114 5.09109 7.08042C5.10167 7.09833 5.11202 7.11508 5.12002 7.13299C5.12801 7.14837 5.13436 7.16237 5.13977 7.17775C5.14635 7.19175 5.15152 7.20599 5.15693 7.21999C5.16093 7.23422 5.1647 7.24685 5.16869 7.26108C5.3025 7.25718 5.43913 7.24823 5.56635 7.20851C5.6924 7.17018 5.80645 7.10223 5.9325 7.06619C6.05855 7.03038 6.20812 7.0329 6.30406 7.1199C6.46162 7.26475 6.39601 7.5595 6.57191 7.68369C6.62435 7.72203 6.69137 7.73488 6.75181 7.76312C7.01966 7.89006 7.11796 8.29362 7.41591 8.31795C7.52173 8.32667 7.61768 8.28168 7.70892 8.22337C7.76372 8.18848 7.81686 8.14877 7.8693 8.11342L7.86977 8.11319C8.1522 7.9261 8.50001 7.98624 8.55386 8.34504C8.57479 8.47841 8.54869 8.61545 8.51318 8.74607C8.49342 8.82297 8.4685 8.89987 8.45932 8.9793C8.43698 9.17672 8.51717 9.38171 8.66815 9.51485C8.7521 9.58923 8.8584 9.64432 8.91366 9.7405C9.02654 9.93907 8.87298 10.2184 9.0082 10.4044C9.0818 10.5056 9.2182 10.5428 9.31132 10.6298C9.33484 10.6516 9.356 10.6759 9.38493 10.6925C9.45289 10.7308 9.53261 10.7044 9.60292 10.6619C9.6262 10.6477 9.64855 10.6319 9.66924 10.6158C9.68994 10.6002 9.71251 10.5841 9.73603 10.5697C9.80634 10.5265 9.88582 10.4978 9.95473 10.5334C9.89829 10.7359 9.97448 10.9677 10.1412 11.0997C10.3079 11.2317 10.5351 11.2599 10.7294 11.3469C11.1416 11.534 11.3791 12.0259 11.2662 12.4552C11.2413 12.5525 11.2018 12.6641 11.2582 12.7486C11.2766 12.7754 11.5616 12.6692 11.614 12.6666C11.7441 12.6577 11.8793 12.6834 12.0014 12.7293C12.2403 12.8216 12.4451 13.0048 12.5422 13.2394C12.6408 13.479 12.6499 13.7788 12.772 13.9953C12.8141 14.0733 12.8717 14.1401 12.9519 14.1902C13.0307 14.2375 13.1238 14.2618 13.1934 14.3197C13.3418 14.4413 13.3549 14.6824 13.5217 14.7772C13.6767 14.8655 13.901 14.7875 14.0348 14.9027C14.1176 14.9746 14.1333 15.0923 14.1766 15.1922C14.2213 15.2907 14.3429 15.3816 14.4348 15.323C14.5094 15.2741 14.507 15.1591 14.5752 15.1015C14.586 15.0923 14.5973 15.0852 14.6093 15.0797C14.6937 15.0409 14.8085 15.0818 14.9051 15.0627C14.9392 15.0563 14.9696 15.0432 14.9976 15.0258C15.0815 14.9727 15.1434 14.8795 15.2144 14.8056C15.2384 14.7806 15.268 14.7581 15.3 14.74C15.3959 14.6858 15.5142 14.6727 15.5732 14.7565C15.5523 14.9486 15.5667 15.1986 15.7543 15.2613C15.8068 15.2781 15.8646 15.2767 15.9119 15.3049C16.0327 15.3779 15.9723 15.5547 15.9577 15.6919C15.9472 15.806 15.9827 15.9277 16.0706 16.0032C16.1583 16.0787 16.2985 16.0966 16.393 16.0303C16.4523 15.9888 16.4908 15.9206 16.5447 15.8751C16.5626 15.86 16.5823 15.8473 16.6049 15.8391C16.6653 15.8161 16.7335 15.8313 16.798 15.8276C16.9504 15.8187 17.071 15.7046 17.2076 15.6405C17.3454 15.5765 17.5594 15.5969 17.5895 15.7431C17.618 15.8774 17.4696 15.9741 17.3483 16.0468C17.3468 16.0478 17.3454 16.0487 17.344 16.0494C17.2231 16.1224 17.1039 16.2812 17.1996 16.3838C17.2612 16.4479 17.3715 16.435 17.4529 16.3953C17.53 16.3583 17.6022 16.3046 17.6859 16.289V16.2879C17.6808 16.1905 17.5874 16.0842 17.7135 16.0046L17.7139 16.0044L17.7142 16.0041C17.84 15.9236 18.0796 15.9284 18.1626 15.8698C18.2136 15.8338 18.3202 15.7434 18.4048 15.6974C18.4559 15.6697 18.4991 15.6577 18.5175 15.6839C18.5673 15.753 18.7091 15.7801 18.6605 15.9773C18.6106 16.1747 18.6 16.2387 18.688 16.3565C18.7745 16.4731 18.7209 16.5321 18.9504 16.6448C19.1802 16.7564 19.2392 16.7933 19.4309 16.7614C19.5505 16.7415 19.6488 16.7364 19.7229 16.7001C19.7671 16.6783 19.8029 16.6455 19.8292 16.5913C19.9014 16.4465 19.8685 16.4093 19.967 16.2812C20.0531 16.169 20.1594 16.0363 20.2252 16.0048C20.2349 16.0002 20.2436 15.9975 20.2513 15.9975C20.3118 15.9975 20.3064 16.0783 20.4324 16.137C20.5585 16.196 20.4863 16.2973 20.6779 16.196C20.7017 16.1834 20.7252 16.1699 20.7485 16.1552C20.911 16.0528 21.0497 15.9068 21.0831 15.7902C21.1212 15.6568 21.1487 15.5981 20.99 15.2673C20.8312 14.9353 20.8089 14.8662 20.6448 14.7278C20.4806 14.5882 20.2955 14.5561 20.3993 14.3704C20.503 14.1833 20.6499 14.0552 20.6499 13.9476C20.6499 13.8413 20.6829 13.676 20.5686 13.6388C20.4531 13.6016 20.3717 13.5966 20.1314 13.5966C19.8899 13.5966 19.7587 13.6441 19.567 13.5529C19.3765 13.462 19.2731 13.4095 19.1955 13.3236C19.1193 13.2378 19.0313 13.1262 19.0313 12.9763C19.0313 12.8459 19.0273 12.6979 19.0997 12.635C19.1047 12.6306 19.1115 12.6281 19.1171 12.6244C19.123 12.621 19.1282 12.6164 19.1348 12.6136L19.1353 12.6134C19.2455 12.5711 19.2836 12.5647 19.365 12.6134C19.4269 12.6487 19.5496 12.6942 19.5983 12.6533C19.6143 12.6393 19.622 12.6159 19.6166 12.5792C19.5943 12.4318 19.7309 12.4433 19.5668 12.1166C19.4026 11.7911 19.3542 11.7271 19.2608 11.6208C19.1677 11.5131 19.1021 11.4018 19.1348 11.2838C19.1552 11.2108 19.1759 11.1433 19.2354 11.1031C19.2709 11.0788 19.3206 11.0643 19.3925 11.0643C19.5842 11.0643 19.7587 11.113 19.8901 11.1502C20.0213 11.1874 20.1907 11.2193 20.3391 11.172C20.4308 11.1417 20.4806 11.1321 20.5354 11.0972C20.5683 11.0761 20.6029 11.0455 20.6497 10.9957C20.7758 10.8623 21.0763 10.5318 20.9897 10.296C20.9018 10.0616 20.7757 9.90647 20.7757 9.78343C20.7757 9.67554 20.815 9.54607 20.8613 9.50704C20.8675 9.50177 20.8738 9.49786 20.8799 9.49603C20.935 9.47927 21.0716 9.67164 21.1976 9.68816C21.3077 9.70148 21.4086 9.75198 21.4761 9.70079C21.4857 9.69344 21.4946 9.68403 21.5029 9.67186C21.5685 9.57568 21.6341 9.52702 21.5802 9.42073C21.5252 9.31445 21.4319 9.22859 21.5198 9.08489C21.5969 8.95795 21.7192 8.83215 21.774 8.803C21.782 8.79864 21.7886 8.79634 21.7935 8.79634C21.8316 8.79634 21.8815 8.79129 21.98 8.83353C22.0539 8.86521 22.1519 8.88839 22.2154 8.86154C22.2363 8.85258 22.2533 8.83835 22.2643 8.81723C22.3076 8.73253 22.3732 8.73781 22.3509 8.61477C22.3299 8.49172 22.1764 8.50205 22.3234 8.27273C22.4717 8.0434 22.6081 7.32834 22.6305 7.08754C22.6514 6.84788 22.5858 6.76708 22.6737 6.66607C22.7617 6.56484 22.8706 6.45213 22.9087 6.34057C22.9468 6.229 22.9637 6.08943 22.9691 6.02539C22.9743 5.96134 23.0519 5.64616 22.805 5.59359C22.5595 5.53988 22.3179 5.44369 22.2248 5.30527C22.1329 5.1657 22.0343 4.88886 21.936 4.8721C21.8375 4.85672 21.6894 4.93615 21.5908 4.97839C21.4923 5.022 21.3611 5.04243 21.2298 5.00019C21.0986 4.95796 20.907 4.86705 20.7219 4.78625C20.5354 4.70682 20.4042 4.67469 20.3057 4.5684C20.2071 4.46074 20.3332 4.3967 20.0865 4.39164C19.9026 4.38774 19.7396 4.41414 19.6488 4.4814C19.6185 4.5039 19.5964 4.53098 19.5844 4.56289C19.547 4.65908 19.5811 4.78212 19.5077 4.83951C19.4833 4.85879 19.4471 4.87073 19.3923 4.8721C19.1731 4.87715 18.9826 4.74906 18.774 4.72863C18.5673 4.70682 18.2955 4.7284 18.2666 4.75526C18.2459 4.77477 18.259 4.94189 18.1281 5.03738C18.0845 5.06929 18.025 5.09339 17.943 5.10143C17.6558 5.12943 17.3689 5.12507 17.1952 5.22057C17.1705 5.23411 17.1481 5.24972 17.1284 5.26763C16.9894 5.39342 16.964 5.69965 16.7987 5.79193C16.7749 5.80524 16.7483 5.8142 16.7182 5.81764C16.4767 5.8445 16.3573 5.73684 16.247 5.75864C16.2199 5.76415 16.1917 5.7777 16.1642 5.79629C16.0812 5.85276 16.0043 5.95537 15.9796 6.01965C15.9674 6.05201 15.9309 6.08255 15.8888 6.10596C15.8188 6.14521 15.7317 6.1645 15.7113 6.13787C15.6786 6.09448 15.498 6.01001 15.4058 6.07359C15.3583 6.10642 15.3216 6.15256 15.2736 6.18584C15.2276 6.21798 15.1709 6.23818 15.0825 6.22257C15.0274 6.21362 14.9432 6.20467 14.8986 6.17138C14.8513 6.13557 14.8395 6.10229 14.7699 6.08943C14.7109 6.0791 14.6519 6.07658 14.5914 6.0791C14.5823 6.08048 14.5731 6.08048 14.5639 6.07772C14.5533 6.0752 14.5456 6.06877 14.5376 6.0612C14.5141 6.04329 14.4903 6.02286 14.4797 5.99463C14.4626 5.95354 14.4849 5.89982 14.527 5.88192H14.5272L14.5275 5.88168C14.5395 5.87526 14.5538 5.8725 14.5656 5.86883C14.5935 5.86057 14.6178 5.84909 14.6375 5.83509C14.697 5.79239 14.7158 5.72513 14.6766 5.64639C14.6055 5.50292 14.4861 5.39641 14.4362 5.37988C14.3875 5.36312 14.0701 5.22998 14.0045 5.21965C13.9389 5.20932 13.8732 5.06975 13.6212 5.09156C13.3705 5.11337 13.1513 5.08651 13.0253 4.97885C12.8992 4.87256 12.621 4.85718 12.7351 4.62143C12.8505 4.38682 12.9817 4.27411 12.97 4.17931C12.9594 4.08198 12.9872 4.0884 12.8611 3.9486C12.7351 3.81018 12.5881 3.69747 12.3858 3.6449C12.1824 3.59119 11.9802 3.60771 11.9421 3.48467C11.904 3.36163 11.8436 3.1796 11.7453 3.12083C11.6467 3.06321 11.6467 3.06321 11.488 3.03635C11.3293 3.0095 11.1494 2.94545 11.0783 2.88645C11.0073 2.82746 10.9798 2.74298 10.9024 2.67894C10.8262 2.61489 10.8159 2.59308 10.569 2.4969C10.3235 2.40072 10.2146 2.37914 10.1751 2.33162C10.137 2.28295 9.94015 2.10734 9.92439 2.04858C9.90722 1.98958 9.83127 1.83463 9.73273 1.71159C9.6342 1.58993 9.45312 1.48227 9.37176 1.39136C9.28898 1.30161 9.13683 1.1889 9.11449 1.10947C9.09215 1.02867 9.0383 0.922383 9.0383 0.848007C9.0383 0.772483 8.98327 0.51102 8.98327 0.51102C8.98139 0.512398 8.91837 0.555324 8.82265 0.610876C8.60913 0.734836 8.23498 0.919628 8.03156 0.831479C7.7362 0.703387 7.37523 0.543158 7.21108 0.51102C7.04718 0.479112 6.09641 0.780976 5.99717 0.854204C5.99105 0.858796 5.98306 0.863616 5.97295 0.868666C5.82362 0.946256 5.26276 1.08353 5.07792 1.02362C4.88109 0.95957 4.25744 0.773861 4.25744 0.773861C4.25744 0.773861 3.96278 0.776385 3.90963 0.817476C3.89764 0.827117 3.89858 0.838595 3.91927 0.852827C4.02815 0.927203 4.21464 0.924678 4.41147 1.03854C4.6083 1.15125 4.81571 1.26924 4.79337 1.36519C4.77479 1.45013 4.62758 1.55067 4.59348 1.57317C4.58831 1.57661 4.58549 1.57845 4.58549 1.57845C4.58549 1.57845 4.35573 1.65397 4.29012 1.67463C4.22451 1.69644 4.05896 1.60026 3.90164 1.53621C3.7429 1.47217 3.72173 1.42993 3.50256 1.42993C3.28339 1.42993 3.24012 1.47217 3.15217 1.47217C3.06563 1.47217 2.80295 1.42993 2.74793 1.41845C2.72041 1.4134 2.67408 1.41868 2.63434 1.44393C2.59483 1.46941 2.56191 1.51486 2.56191 1.5897C2.56191 1.73822 2.56191 1.90993 2.56191 1.90993C2.56191 1.90993 2.39777 2.24049 2.15766 2.43285C2.06242 2.50907 1.96177 2.57977 1.86465 2.63853C1.71697 2.72806 1.57752 2.78958 1.47828 2.79578C1.33506 2.80588 1.16669 2.74964 1.0825 2.81368C1.07051 2.82287 1.0604 2.83457 1.05217 2.84927C0.986556 2.96726 0.910361 3.12726 0.965624 3.34005C1.01948 3.554 0.949872 3.7886 0.945874 3.9167C0.943287 4.04479 1.00889 4.37672 1.22807 4.35492C1.44606 4.33311 1.54436 4.30097 1.69792 4.22682C1.85149 4.15245 1.93826 4.19469 1.98271 4.24863C2.02598 4.3012 2.17953 4.32553 2.23338 4.35629C2.28841 4.38705 2.51817 4.35629 2.51817 4.35629C2.51817 4.35629 2.65997 4.601 2.69266 4.80347C2.72558 5.00593 2.93418 5.26212 3.1089 5.3583C3.28339 5.45448 3.53548 5.48639 3.60109 5.48639C3.66671 5.48639 3.98441 5.46596 4.05002 5.48639C4.11563 5.5082 4.30071 5.75428 4.27978 5.80685C4.27414 5.82039 4.26097 5.83118 4.24333 5.84174C4.21723 5.85758 4.18124 5.87273 4.14573 5.89615C4.1114 5.91956 4.07613 5.95101 4.05167 5.99899Z" fill="url(#paint0_linear_1571_9838)"/>
<path d="M4.05167 5.99899C3.98606 6.12708 3.93079 6.23474 3.98605 6.39497C4.03991 6.5552 4.18289 6.63968 4.45591 6.69362C4.56879 6.71543 4.65157 6.72691 4.71836 6.74481C4.8143 6.76914 4.88109 6.80771 4.96645 6.90757C4.99914 6.9459 5.02806 6.98447 5.0544 7.0228C5.06757 7.04208 5.0805 7.06114 5.09109 7.08042C5.10167 7.09833 5.11202 7.11508 5.12002 7.13299C5.12801 7.14837 5.13436 7.16237 5.13977 7.17775C5.14635 7.19175 5.15152 7.20599 5.15693 7.21999C5.16093 7.23422 5.1647 7.24685 5.16869 7.26108C5.3025 7.25718 5.43913 7.24823 5.56635 7.20851C5.6924 7.17018 5.80645 7.10223 5.9325 7.06619C6.05855 7.03038 6.20812 7.0329 6.30406 7.1199C6.46162 7.26475 6.39601 7.5595 6.57191 7.68369C6.62435 7.72203 6.69137 7.73488 6.75181 7.76312C7.01966 7.89006 7.11796 8.29362 7.41591 8.31795C7.52173 8.32667 7.61768 8.28168 7.70892 8.22337C7.76372 8.18848 7.81686 8.14877 7.8693 8.11342L7.86977 8.11319C8.1522 7.9261 8.50001 7.98624 8.55386 8.34504C8.57479 8.47841 8.54869 8.61545 8.51318 8.74607C8.49342 8.82297 8.4685 8.89987 8.45932 8.9793C8.43698 9.17672 8.51717 9.38171 8.66815 9.51485C8.7521 9.58923 8.8584 9.64432 8.91366 9.7405C9.02654 9.93907 8.87298 10.2184 9.0082 10.4044C9.0818 10.5056 9.2182 10.5428 9.31132 10.6298C9.33484 10.6516 9.356 10.6759 9.38493 10.6925C9.45289 10.7308 9.53261 10.7044 9.60292 10.6619C9.6262 10.6477 9.64855 10.6319 9.66924 10.6158C9.68994 10.6002 9.71251 10.5841 9.73603 10.5697C9.80634 10.5265 9.88582 10.4978 9.95473 10.5334C9.89829 10.7359 9.97448 10.9677 10.1412 11.0997C10.3079 11.2317 10.5351 11.2599 10.7294 11.3469C11.1416 11.534 11.3791 12.0259 11.2662 12.4552C11.2413 12.5525 11.2018 12.6641 11.2582 12.7486C11.2766 12.7754 11.5616 12.6692 11.614 12.6666C11.7441 12.6577 11.8793 12.6834 12.0014 12.7293C12.2403 12.8216 12.4451 13.0048 12.5422 13.2394C12.6408 13.479 12.6499 13.7788 12.772 13.9953C12.8141 14.0733 12.8717 14.1401 12.9519 14.1902C13.0307 14.2375 13.1238 14.2618 13.1934 14.3197C13.3418 14.4413 13.3549 14.6824 13.5217 14.7772C13.6767 14.8655 13.901 14.7875 14.0348 14.9027C14.1176 14.9746 14.1333 15.0923 14.1766 15.1922C14.2213 15.2907 14.3429 15.3816 14.4348 15.323C14.5094 15.2741 14.507 15.1591 14.5752 15.1015C14.586 15.0923 14.5973 15.0852 14.6093 15.0797C14.6937 15.0409 14.8085 15.0818 14.9051 15.0627C14.9392 15.0563 14.9696 15.0432 14.9976 15.0258C15.0815 14.9727 15.1434 14.8795 15.2144 14.8056C15.2384 14.7806 15.268 14.7581 15.3 14.74C15.3959 14.6858 15.5142 14.6727 15.5732 14.7565C15.5523 14.9486 15.5667 15.1986 15.7543 15.2613C15.8068 15.2781 15.8646 15.2767 15.9119 15.3049C16.0327 15.3779 15.9723 15.5547 15.9577 15.6919C15.9472 15.806 15.9827 15.9277 16.0706 16.0032C16.1583 16.0787 16.2985 16.0966 16.393 16.0303C16.4523 15.9888 16.4908 15.9206 16.5447 15.8751C16.5626 15.86 16.5823 15.8473 16.6049 15.8391C16.6653 15.8161 16.7335 15.8313 16.798 15.8276C16.9504 15.8187 17.071 15.7046 17.2076 15.6405C17.3454 15.5765 17.5594 15.5969 17.5895 15.7431C17.618 15.8774 17.4696 15.9741 17.3483 16.0468C17.3468 16.0478 17.3454 16.0487 17.344 16.0494C17.2231 16.1224 17.1039 16.2812 17.1996 16.3838C17.2612 16.4479 17.3715 16.435 17.4529 16.3953C17.53 16.3583 17.6022 16.3046 17.6859 16.289V16.2879C17.6808 16.1905 17.5874 16.0842 17.7135 16.0046L17.7139 16.0044L17.7142 16.0041C17.84 15.9236 18.0796 15.9284 18.1626 15.8698C18.2136 15.8338 18.3202 15.7434 18.4048 15.6974C18.4559 15.6697 18.4991 15.6577 18.5175 15.6839C18.5673 15.753 18.7091 15.7801 18.6605 15.9773C18.6106 16.1747 18.6 16.2387 18.688 16.3565C18.7745 16.4731 18.7209 16.5321 18.9504 16.6448C19.1802 16.7564 19.2392 16.7933 19.4309 16.7614C19.5505 16.7415 19.6488 16.7364 19.7229 16.7001C19.7671 16.6783 19.8029 16.6455 19.8292 16.5913C19.9014 16.4465 19.8685 16.4093 19.967 16.2812C20.0531 16.169 20.1594 16.0363 20.2252 16.0048C20.2349 16.0002 20.2436 15.9975 20.2513 15.9975C20.3118 15.9975 20.3064 16.0783 20.4324 16.137C20.5585 16.196 20.4863 16.2973 20.6779 16.196C20.7017 16.1834 20.7252 16.1699 20.7485 16.1552C20.911 16.0528 21.0497 15.9068 21.0831 15.7902C21.1212 15.6568 21.1487 15.5981 20.99 15.2673C20.8312 14.9353 20.8089 14.8662 20.6448 14.7278C20.4806 14.5882 20.2955 14.5561 20.3993 14.3704C20.503 14.1833 20.6499 14.0552 20.6499 13.9476C20.6499 13.8413 20.6829 13.676 20.5686 13.6388C20.4531 13.6016 20.3717 13.5966 20.1314 13.5966C19.8899 13.5966 19.7587 13.6441 19.567 13.5529C19.3765 13.462 19.2731 13.4095 19.1955 13.3236C19.1193 13.2378 19.0313 13.1262 19.0313 12.9763C19.0313 12.8459 19.0273 12.6979 19.0997 12.635C19.1047 12.6306 19.1115 12.6281 19.1171 12.6244C19.123 12.621 19.1282 12.6164 19.1348 12.6136L19.1353 12.6134C19.2455 12.5711 19.2836 12.5647 19.365 12.6134C19.4269 12.6487 19.5496 12.6942 19.5983 12.6533C19.6143 12.6393 19.622 12.6159 19.6166 12.5792C19.5943 12.4318 19.7309 12.4433 19.5668 12.1166C19.4026 11.7911 19.3542 11.7271 19.2608 11.6208C19.1677 11.5131 19.1021 11.4018 19.1348 11.2838C19.1552 11.2108 19.1759 11.1433 19.2354 11.1031C19.2709 11.0788 19.3206 11.0643 19.3925 11.0643C19.5842 11.0643 19.7587 11.113 19.8901 11.1502C20.0213 11.1874 20.1907 11.2193 20.3391 11.172C20.4308 11.1417 20.4806 11.1321 20.5354 11.0972C20.5683 11.0761 20.6029 11.0455 20.6497 10.9957C20.7758 10.8623 21.0763 10.5318 20.9897 10.296C20.9018 10.0616 20.7757 9.90647 20.7757 9.78343C20.7757 9.67554 20.815 9.54607 20.8613 9.50704C20.8675 9.50177 20.8738 9.49786 20.8799 9.49603C20.935 9.47927 21.0716 9.67164 21.1976 9.68816C21.3077 9.70148 21.4086 9.75198 21.4761 9.70079C21.4857 9.69344 21.4946 9.68403 21.5029 9.67186C21.5685 9.57568 21.6341 9.52702 21.5802 9.42073C21.5252 9.31445 21.4319 9.22859 21.5198 9.08489C21.5969 8.95795 21.7192 8.83215 21.774 8.803C21.782 8.79864 21.7886 8.79634 21.7935 8.79634C21.8316 8.79634 21.8815 8.79129 21.98 8.83353C22.0539 8.86521 22.1519 8.88839 22.2154 8.86154C22.2363 8.85258 22.2533 8.83835 22.2643 8.81723C22.3076 8.73253 22.3732 8.73781 22.3509 8.61477C22.3299 8.49172 22.1764 8.50205 22.3234 8.27273C22.4717 8.0434 22.6081 7.32834 22.6305 7.08754C22.6514 6.84788 22.5858 6.76708 22.6737 6.66607C22.7617 6.56484 22.8706 6.45213 22.9087 6.34057C22.9468 6.229 22.9637 6.08943 22.9691 6.02539C22.9743 5.96134 23.0519 5.64616 22.805 5.59359C22.5595 5.53988 22.3179 5.44369 22.2248 5.30527C22.1329 5.1657 22.0343 4.88886 21.936 4.8721C21.8375 4.85672 21.6894 4.93615 21.5908 4.97839C21.4923 5.022 21.3611 5.04243 21.2298 5.00019C21.0986 4.95796 20.907 4.86705 20.7219 4.78625C20.5354 4.70682 20.4042 4.67469 20.3057 4.5684C20.2071 4.46074 20.3332 4.3967 20.0865 4.39164C19.9026 4.38774 19.7396 4.41414 19.6488 4.4814C19.6185 4.5039 19.5964 4.53098 19.5844 4.56289C19.547 4.65908 19.5811 4.78212 19.5077 4.83951C19.4833 4.85879 19.4471 4.87073 19.3923 4.8721C19.1731 4.87715 18.9826 4.74906 18.774 4.72863C18.5673 4.70682 18.2955 4.7284 18.2666 4.75526C18.2459 4.77477 18.259 4.94189 18.1281 5.03738C18.0845 5.06929 18.025 5.09339 17.943 5.10143C17.6558 5.12943 17.3689 5.12507 17.1952 5.22057C17.1705 5.23411 17.1481 5.24972 17.1284 5.26763C16.9894 5.39342 16.964 5.69965 16.7987 5.79193C16.7749 5.80524 16.7483 5.8142 16.7182 5.81764C16.4767 5.8445 16.3573 5.73684 16.247 5.75864C16.2199 5.76415 16.1917 5.7777 16.1642 5.79629C16.0812 5.85276 16.0043 5.95537 15.9796 6.01965C15.9674 6.05201 15.9309 6.08255 15.8888 6.10596C15.8188 6.14521 15.7317 6.1645 15.7113 6.13787C15.6786 6.09448 15.498 6.01001 15.4058 6.07359C15.3583 6.10642 15.3216 6.15256 15.2736 6.18584C15.2276 6.21798 15.1709 6.23818 15.0825 6.22257C15.0274 6.21362 14.9432 6.20467 14.8986 6.17138C14.8513 6.13557 14.8395 6.10229 14.7699 6.08943C14.7109 6.0791 14.6519 6.07658 14.5914 6.0791C14.5823 6.08048 14.5731 6.08048 14.5639 6.07772C14.5533 6.0752 14.5456 6.06877 14.5376 6.0612C14.5141 6.04329 14.4903 6.02286 14.4797 5.99463C14.4626 5.95354 14.4849 5.89982 14.527 5.88192H14.5272L14.5275 5.88168C14.5395 5.87526 14.5538 5.8725 14.5656 5.86883C14.5935 5.86057 14.6178 5.84909 14.6375 5.83509C14.697 5.79239 14.7158 5.72513 14.6766 5.64639C14.6055 5.50292 14.4861 5.39641 14.4362 5.37988C14.3875 5.36312 14.0701 5.22998 14.0045 5.21965C13.9389 5.20932 13.8732 5.06975 13.6212 5.09156C13.3705 5.11337 13.1513 5.08651 13.0253 4.97885C12.8992 4.87256 12.621 4.85718 12.7351 4.62143C12.8505 4.38682 12.9817 4.27411 12.97 4.17931C12.9594 4.08198 12.9872 4.0884 12.8611 3.9486C12.7351 3.81018 12.5881 3.69747 12.3858 3.6449C12.1824 3.59119 11.9802 3.60771 11.9421 3.48467C11.904 3.36163 11.8436 3.1796 11.7453 3.12083C11.6467 3.06321 11.6467 3.06321 11.488 3.03635C11.3293 3.0095 11.1494 2.94545 11.0783 2.88645C11.0073 2.82746 10.9798 2.74298 10.9024 2.67894C10.8262 2.61489 10.8159 2.59308 10.569 2.4969C10.3235 2.40072 10.2146 2.37914 10.1751 2.33162C10.137 2.28295 9.94015 2.10734 9.92439 2.04858C9.90722 1.98958 9.83127 1.83463 9.73273 1.71159C9.6342 1.58993 9.45312 1.48227 9.37176 1.39136C9.28898 1.30161 9.13683 1.1889 9.11449 1.10947C9.09215 1.02867 9.0383 0.922383 9.0383 0.848007C9.0383 0.772483 8.98327 0.51102 8.98327 0.51102C8.98139 0.512398 8.91837 0.555324 8.82265 0.610876C8.60913 0.734836 8.23498 0.919628 8.03156 0.831479C7.7362 0.703387 7.37523 0.543158 7.21108 0.51102C7.04718 0.479112 6.09641 0.780976 5.99717 0.854204C5.99105 0.858796 5.98306 0.863616 5.97295 0.868666C5.82362 0.946256 5.26276 1.08353 5.07792 1.02362C4.88109 0.95957 4.25744 0.773861 4.25744 0.773861C4.25744 0.773861 3.96278 0.776385 3.90963 0.817476C3.89764 0.827117 3.89858 0.838595 3.91927 0.852827C4.02815 0.927203 4.21464 0.924678 4.41147 1.03854C4.6083 1.15125 4.81571 1.26924 4.79337 1.36519C4.77479 1.45013 4.62758 1.55067 4.59348 1.57317C4.58831 1.57661 4.58549 1.57845 4.58549 1.57845C4.58549 1.57845 4.35573 1.65397 4.29012 1.67463C4.22451 1.69644 4.05896 1.60026 3.90164 1.53621C3.7429 1.47217 3.72173 1.42993 3.50256 1.42993C3.28339 1.42993 3.24012 1.47217 3.15217 1.47217C3.06563 1.47217 2.80295 1.42993 2.74793 1.41845C2.72041 1.4134 2.67408 1.41868 2.63434 1.44393C2.59483 1.46941 2.56191 1.51486 2.56191 1.5897C2.56191 1.73822 2.56191 1.90993 2.56191 1.90993C2.56191 1.90993 2.39777 2.24049 2.15766 2.43285C2.06242 2.50907 1.96177 2.57977 1.86465 2.63853C1.71697 2.72806 1.57752 2.78958 1.47828 2.79578C1.33506 2.80588 1.16669 2.74964 1.0825 2.81368C1.07051 2.82287 1.0604 2.83457 1.05217 2.84927C0.986556 2.96726 0.910361 3.12726 0.965624 3.34005C1.01948 3.554 0.949872 3.7886 0.945874 3.9167C0.943287 4.04479 1.00889 4.37672 1.22807 4.35492C1.44606 4.33311 1.54436 4.30097 1.69792 4.22682C1.85149 4.15245 1.93826 4.19469 1.98271 4.24863C2.02598 4.3012 2.17953 4.32553 2.23338 4.35629C2.28841 4.38705 2.51817 4.35629 2.51817 4.35629C2.51817 4.35629 2.65997 4.601 2.69266 4.80347C2.72558 5.00593 2.93418 5.26212 3.1089 5.3583C3.28339 5.45448 3.53548 5.48639 3.60109 5.48639C3.66671 5.48639 3.98441 5.46596 4.05002 5.48639C4.11563 5.5082 4.30071 5.75428 4.27978 5.80685C4.27414 5.82039 4.26097 5.83118 4.24333 5.84174C4.21723 5.85758 4.18124 5.87273 4.14573 5.89615C4.1114 5.91956 4.07613 5.95101 4.05167 5.99899Z" stroke="#510A32" stroke-width="0.459144" mask="url(#path-1-inside-1_1571_9838)"/>
<path d="M8.97794 16.5893L8.97814 16.5891C9.00099 16.5718 9.02159 16.5507 9.0498 16.5219L9.05363 16.518C9.08149 16.4895 9.11709 16.4534 9.16088 16.4233L9.16145 16.4229C9.23087 16.3757 9.30664 16.353 9.37301 16.3376C9.39946 16.3315 9.42661 16.3261 9.45168 16.3211C9.45788 16.3199 9.46395 16.3187 9.46986 16.3175C9.50079 16.3113 9.52873 16.3054 9.55514 16.2981L9.55604 16.2979C9.6043 16.285 9.65065 16.2627 9.68275 16.2358C9.71443 16.2092 9.72366 16.1862 9.72404 16.1681L9.72408 16.1664C9.72437 16.1585 9.72327 16.1499 9.72018 16.1268L9.72016 16.1267C9.71761 16.1076 9.71342 16.0763 9.71675 16.0419M8.97794 16.5893L9.83105 16.0525M8.97794 16.5893C8.91196 16.6395 8.82673 16.6603 8.71567 16.6691C8.67093 16.6727 8.62566 16.6742 8.57726 16.6757C8.56552 16.6761 8.55359 16.6765 8.54145 16.6769C8.50279 16.6783 8.46239 16.68 8.42158 16.6834L8.97794 16.5893ZM9.71675 16.0419C9.71677 16.0417 9.7168 16.0414 9.71683 16.0411L9.83105 16.0525M9.71675 16.0419C9.71672 16.0422 9.7167 16.0425 9.71667 16.0428L9.83105 16.0525M9.71675 16.0419C9.72514 15.9469 9.78102 15.8806 9.82368 15.8371C9.83786 15.8226 9.85456 15.8068 9.86899 15.7932C9.87551 15.787 9.88156 15.7813 9.88672 15.7764C9.90585 15.7579 9.92017 15.7429 9.93097 15.7285L9.93624 15.7215L9.93986 15.718M9.83105 16.0525C9.83714 15.981 9.89072 15.9305 9.94524 15.8791C9.97283 15.8531 10.0007 15.8268 10.0227 15.7975C10.0293 15.7911 10.0345 15.7846 10.0385 15.7771C10.1344 15.6258 10.0425 15.4311 9.94134 15.2838L9.93832 15.2793C9.83791 15.1319 9.72384 14.9644 9.77343 14.7955M9.93986 15.718L9.93694 15.7235C9.93899 15.7196 9.94108 15.717 9.94203 15.7159C9.94245 15.7154 9.94265 15.7152 9.94252 15.7154L9.94199 15.7159L9.93986 15.718ZM9.93986 15.718L9.94121 15.7154L9.94152 15.7156C9.96639 15.6764 9.97152 15.6263 9.95311 15.5594C9.93437 15.4912 9.89414 15.4179 9.84669 15.3487L9.84645 15.3484L9.8412 15.3406C9.7931 15.27 9.73466 15.1843 9.69535 15.0935C9.65398 14.998 9.62797 14.8843 9.66308 14.7639M9.66308 14.7639C9.663 14.7642 9.66293 14.7644 9.66285 14.7647L9.77343 14.7955M9.66308 14.7639C9.68005 14.7036 9.72625 14.6169 9.82368 14.5881L9.82491 14.5877L9.82491 14.5877C9.8978 14.5671 9.96121 14.5872 10.0087 14.6237C10.0491 14.6547 10.0785 14.6979 10.098 14.7274C10.1037 14.736 10.1088 14.7439 10.1136 14.7513C10.1287 14.7743 10.1402 14.7921 10.1537 14.8085C10.1705 14.8288 10.1796 14.833 10.1822 14.8338L10.1829 14.834C10.1873 14.8355 10.1881 14.8352 10.191 14.834C10.1969 14.8317 10.2084 14.8247 10.2257 14.8069C10.2518 14.7798 10.2732 14.7485 10.2987 14.7112C10.311 14.6932 10.3242 14.6739 10.3394 14.653C10.436 14.5173 10.5928 14.4264 10.7593 14.4074M9.66308 14.7639C9.66315 14.7636 9.66322 14.7634 9.6633 14.7631L9.77343 14.7955M9.77343 14.7955C9.78519 14.7533 9.8127 14.711 9.85621 14.6982L10.7593 14.4074M7.86955 8.11361C8.15175 7.92675 8.49931 7.98689 8.55316 8.34569C8.57409 8.47883 8.548 8.6161 8.51249 8.74672C8.50776 8.76513 8.50274 8.78353 8.4977 8.80197C8.48171 8.86057 8.46561 8.91953 8.45863 8.97995L3.05506 9.69455C2.95653 9.50219 3.07716 8.92577 3.13243 8.81168C3.18628 8.69897 3.39487 8.72193 3.44872 8.77587C3.50398 8.82959 3.70082 8.81811 3.77701 8.77587M7.86955 8.11361C7.84908 8.12744 7.82854 8.14189 7.80785 8.15644C7.77532 8.17933 7.74243 8.20246 7.70893 8.2238M7.86955 8.11361L7.93292 8.20931C7.93307 8.20922 7.93321 8.20912 7.93336 8.20903M7.86955 8.11361L7.9338 8.20873C7.93365 8.20883 7.9335 8.20893 7.93336 8.20903M7.70893 8.2238C7.61745 8.2821 7.52127 8.32755 7.41521 8.31883M7.70893 8.2238L7.77059 8.32062L7.77063 8.32059M7.70893 8.2238L7.77063 8.32059M7.41521 8.31883C7.24755 8.30514 7.14303 8.17136 7.036 8.03436C6.95283 7.92791 6.86814 7.81951 6.75111 7.764M7.41521 8.31883L7.40587 8.43324C7.20237 8.41662 7.07553 8.26895 6.98197 8.15137C6.96849 8.13443 6.95568 8.11803 6.94323 8.1021C6.90847 8.05762 6.87659 8.01682 6.84137 7.97849C6.79501 7.92806 6.75039 7.89077 6.70222 7.86785M7.41521 8.31883L5.29046 7.4094M6.75111 7.764C6.72898 7.75365 6.70599 7.74537 6.68315 7.73715C6.64364 7.72292 6.6046 7.70886 6.57122 7.68457M6.75111 7.764L6.70192 7.86771C6.70202 7.86775 6.70212 7.8678 6.70222 7.86785M6.75111 7.764L6.70253 7.86799C6.70243 7.86795 6.70233 7.8679 6.70222 7.86785M6.57122 7.68457C6.4795 7.61969 6.45344 7.50857 6.42717 7.39653C6.40306 7.2937 6.37877 7.1901 6.30337 7.12078M6.57122 7.68457L6.50367 7.77738C6.50388 7.77753 6.5041 7.77769 6.50431 7.77784M6.57122 7.68457L6.50493 7.77828C6.50472 7.77814 6.50451 7.77799 6.50431 7.77784M6.30337 7.12078C6.20742 7.03355 6.05786 7.03103 5.93181 7.06684C5.86628 7.08546 5.80392 7.11276 5.74147 7.14011C5.6838 7.16536 5.62606 7.19065 5.56566 7.20916M6.30337 7.12078L6.22568 7.20529C6.22576 7.20536 6.22584 7.20543 6.22592 7.20551M6.30337 7.12078L6.22615 7.20572C6.22607 7.20565 6.226 7.20558 6.22592 7.20551M5.56566 7.20916C5.47551 7.2373 5.38087 7.25 5.28576 7.2564C5.28734 7.26332 5.28861 7.26954 5.28963 7.27455C5.28979 7.27533 5.28995 7.27608 5.29009 7.2768L5.29117 7.28207L5.29105 7.28209C5.29435 7.30319 5.29643 7.32485 5.29643 7.34713C5.29643 7.35503 5.29614 7.36294 5.29558 7.37079M5.56566 7.20916L5.5993 7.31891C5.5994 7.31888 5.59949 7.31885 5.59958 7.31882M5.56566 7.20916L5.59986 7.31873C5.59977 7.31876 5.59968 7.31879 5.59958 7.31882M5.29558 7.37079C5.25613 7.37349 5.21734 7.37508 5.17967 7.37623C5.1791 7.38032 5.17843 7.38432 5.17764 7.38821M5.29558 7.37079C5.29464 7.38389 5.29293 7.39684 5.29046 7.4094M5.29558 7.37079C5.39517 7.364 5.49895 7.3502 5.59958 7.31882M5.17764 7.38821C5.1553 7.51631 4.90462 7.80463 4.80608 7.90081C4.70755 7.99699 4.2692 8.14552 4.22593 8.13519C4.18266 8.12486 3.82169 8.20956 3.78877 8.31722C3.77484 8.3625 3.78469 8.44478 3.7946 8.52758C3.80795 8.63913 3.82142 8.75163 3.77701 8.77587M5.17764 7.38821L5.29017 7.41086C5.29027 7.41037 5.29037 7.40989 5.29046 7.4094M5.17764 7.38821L5.29072 7.40794C5.29064 7.40842 5.29055 7.40891 5.29046 7.4094M3.77701 8.77587L3.83201 8.87662C3.83213 8.87656 3.83225 8.87649 3.83238 8.87642M3.77701 8.77587L3.83266 8.87627C3.83257 8.87632 3.83247 8.87637 3.83238 8.87642M3.15723 9.64222C3.21564 9.75617 3.21231 9.86367 3.20921 9.96375C3.20884 9.97581 3.20847 9.98776 3.20821 9.99961C3.20574 10.1129 3.20813 10.2576 3.27536 10.4831L3.27544 10.4834C3.34921 10.7333 3.36936 10.9074 3.37933 11.0485C3.3814 11.0779 3.38303 11.1049 3.38455 11.1301C3.39051 11.2287 3.39483 11.3002 3.41769 11.3818L3.41774 11.382C3.43106 11.4298 3.45092 11.4733 3.47434 11.5186C3.48031 11.5302 3.48695 11.5427 3.4939 11.5557C3.51197 11.5896 3.53212 11.6274 3.54783 11.6633C3.57114 11.7165 3.59073 11.7775 3.59283 11.8479C3.59495 11.919 3.57902 11.9922 3.54218 12.0703M3.15723 9.64222L3.43837 12.0213M3.15723 9.64222C3.14495 9.61825 3.13417 9.56799 3.13257 9.48916C3.13105 9.41419 3.13792 9.32685 3.14982 9.2392C3.16166 9.15191 3.17812 9.06694 3.19478 8.9975C3.21222 8.92484 3.2278 8.87809 3.23573 8.86172L3.23573 8.86172L3.236 8.86117C3.23603 8.86109 3.23609 8.86087 3.23685 8.86017C3.2378 8.8593 3.24018 8.85743 3.24493 8.85525C3.25512 8.85057 3.27165 8.84657 3.29338 8.84603C3.31474 8.84551 3.33598 8.84848 3.35267 8.85325C3.36414 8.85652 3.36946 8.85943 3.37063 8.86002C3.40731 8.89462 3.45437 8.90946 3.48879 8.91676C3.52713 8.9249 3.56853 8.92747 3.60752 8.92662C3.68084 8.92501 3.77061 8.91055 3.83238 8.87642M3.15723 9.64222L3.83238 8.87642M3.54218 12.0703L3.43837 12.0213M3.54218 12.0703C3.5422 12.0703 3.54221 12.0702 3.54222 12.0702L3.43837 12.0213M3.54218 12.0703C3.48463 12.1925 3.43148 12.3373 3.3923 12.4533C3.37283 12.511 3.35706 12.5608 3.34618 12.5961L3.34486 12.6005M3.43837 12.0213C3.31773 12.2775 3.21921 12.6198 3.21921 12.6198M3.34486 12.6005C3.3437 12.5986 3.34257 12.5968 3.34145 12.595C3.33266 12.5809 3.32499 12.5698 3.31924 12.5618L3.31211 12.5522L3.30978 12.5493L3.30896 12.5482L3.30864 12.5478L3.3085 12.5476L3.30843 12.5476L3.21921 12.6198M3.34486 12.6005L3.33371 12.6373L3.33052 12.6481L3.32974 12.6508L3.32955 12.6514L3.32952 12.6515L3.32951 12.6515M3.34486 12.6005L3.32951 12.6515M3.21921 12.6198L3.32951 12.6515M3.21921 12.6198L3.32951 12.6515M5.59958 7.31882C5.66641 7.29832 5.72957 7.27064 5.78582 7.246C5.78879 7.2447 5.79174 7.24341 5.79467 7.24212C5.85541 7.21554 5.90872 7.19273 5.96318 7.17725C6.07377 7.14584 6.17336 7.15795 6.22592 7.20551M6.22592 7.20551C6.27319 7.24915 6.29078 7.31825 6.31869 7.43666L6.31965 7.44075C6.34322 7.54088 6.37786 7.688 6.50431 7.77784M6.50431 7.77784C6.54353 7.80624 6.58518 7.82329 6.61804 7.83558C6.62958 7.8399 6.63968 7.84354 6.64887 7.84684C6.66933 7.85421 6.68522 7.85993 6.70222 7.86785M7.77063 8.32059C7.8055 8.29838 7.84357 8.27165 7.87825 8.24729C7.89815 8.23332 7.91693 8.22013 7.93336 8.20903M7.77063 8.32059L8.91456 10.4719C8.91461 10.472 8.91466 10.4721 8.91471 10.4721M7.93336 8.20903C8.05357 8.12958 8.17652 8.1102 8.26569 8.13547C8.34705 8.15852 8.41875 8.22345 8.43965 8.36273L8.43977 8.36351C8.45679 8.47177 8.43626 8.58958 8.40172 8.71661L8.40171 8.71661L8.40131 8.71816C8.39749 8.73304 8.39311 8.74906 8.38848 8.76596C8.3721 8.82583 8.35269 8.89675 8.34461 8.96678L8.34456 8.96716C8.31821 9.20221 8.41298 9.44385 8.59146 9.60153L8.59147 9.60153C8.62019 9.62689 8.65696 9.65461 8.68811 9.67808C8.70392 9.69 8.71829 9.70082 8.72941 9.70969C8.76969 9.74182 8.79652 9.76877 8.81331 9.79788C8.84923 9.86128 8.84535 9.94168 8.83729 10.0704L8.83704 10.0745C8.83009 10.1852 8.82023 10.3424 8.91471 10.4721M8.91471 10.4721C8.96646 10.5434 9.0375 10.5881 9.0928 10.6212C9.10211 10.6267 9.11099 10.632 9.11948 10.637C9.16711 10.6651 9.20247 10.686 9.23226 10.7139L9.23299 10.7145C9.23485 10.7162 9.23753 10.7189 9.24093 10.7222C9.25744 10.7385 9.2907 10.7714 9.3267 10.7922L9.32669 10.7922L9.32799 10.7929C9.45506 10.8644 9.58668 10.8059 9.66237 10.7601C9.69045 10.7431 9.71659 10.7244 9.73971 10.7065L8.91471 10.4721ZM11.6456 14.0253L11.5867 13.9268C11.5895 13.9251 11.5957 13.9203 11.6101 13.9004C11.6121 13.8977 11.6146 13.8942 11.6175 13.8901C11.6297 13.8728 11.6492 13.8449 11.6704 13.8228L11.6715 13.8217C11.7778 13.714 11.9334 13.7063 12.0472 13.7329L12.0473 13.7329C12.1316 13.7527 12.2136 13.7928 12.2804 13.8254C12.2988 13.8344 12.3161 13.8428 12.3319 13.8501C12.4329 13.8942 12.5267 13.9117 12.6069 13.9098C12.5758 13.8241 12.5545 13.7354 12.5357 13.652C12.5319 13.6353 12.5282 13.6187 12.5245 13.6024C12.4984 13.4853 12.4747 13.3792 12.4357 13.2841C12.3521 13.0825 12.1732 12.9199 11.9599 12.8374C11.8506 12.7961 11.7324 12.7745 11.6222 12.7818C11.6217 12.7819 11.6183 12.7824 11.6109 12.7842C11.6005 12.7867 11.5869 12.7905 11.5703 12.7953C11.5511 12.8008 11.5314 12.8067 11.5104 12.813C11.493 12.8183 11.4748 12.8237 11.4553 12.8295C11.4152 12.8413 11.3722 12.8534 11.3369 12.8606C11.32 12.8641 11.2996 12.8677 11.28 12.8683C11.2706 12.8686 11.2555 12.8686 11.2387 12.8647C11.2247 12.8615 11.188 12.851 11.1627 12.8136L11.1622 12.8129C11.1128 12.7387 11.1097 12.6582 11.1171 12.594C11.1228 12.5449 11.1368 12.4931 11.1474 12.4534C11.15 12.444 11.1523 12.4352 11.1543 12.4274L11.1545 12.4267C11.2528 12.0529 11.0439 11.6168 10.6814 11.4522C10.6176 11.4236 10.5525 11.4028 10.4808 11.3799C10.451 11.3704 10.42 11.3605 10.3876 11.3495C10.2828 11.3141 10.1687 11.2691 10.0693 11.1903C9.90704 11.0619 9.81552 10.8571 9.82103 10.6535C9.81301 10.6576 9.80456 10.6624 9.79568 10.6678L11.7533 13.9023C11.7389 13.9173 11.7267 13.9345 11.7147 13.9516C11.6947 13.9798 11.675 14.0078 11.6456 14.0253ZM11.6456 14.0253C11.5981 14.0536 11.5415 14.0455 11.4845 14.0374C11.4328 14.03 11.3806 14.0226 11.3344 14.0421M11.6456 14.0253L11.5868 13.9267C11.5815 13.9299 11.5693 13.9335 11.5086 13.9249C11.5051 13.9244 11.5012 13.9238 11.4971 13.9232C11.4505 13.9162 11.3674 13.9037 11.2902 13.9362M11.3344 14.0421L11.2907 13.936C11.2905 13.936 11.2903 13.9361 11.2902 13.9362M11.3344 14.0421C11.2549 14.0749 11.2371 14.1605 11.2186 14.2491C11.2039 14.3198 11.1888 14.3925 11.1416 14.442L11.2902 13.9362M11.3344 14.0421L11.2897 13.9364C11.2899 13.9363 11.29 13.9362 11.2902 13.9362M10.7593 14.4074C10.7594 14.4074 10.7595 14.4074 10.7597 14.4074L10.7726 14.5214L10.759 14.4074C10.7591 14.4074 10.7592 14.4074 10.7593 14.4074ZM3.39956 13.7754C3.39955 13.7752 3.39954 13.7751 3.39953 13.775L3.28505 13.7834L3.39959 13.7758C3.39958 13.7757 3.39957 13.7755 3.39956 13.7754Z" fill="#E0D47C"/>
<path d="M8.97794 16.5893L8.97814 16.5891C9.00099 16.5718 9.02159 16.5507 9.0498 16.5219L9.05363 16.518C9.08149 16.4895 9.11709 16.4534 9.16088 16.4233L9.16145 16.4229C9.23087 16.3757 9.30664 16.353 9.37301 16.3376C9.39946 16.3315 9.42661 16.3261 9.45168 16.3211C9.45788 16.3199 9.46395 16.3187 9.46986 16.3175C9.50079 16.3113 9.52873 16.3054 9.55514 16.2981L9.55604 16.2979C9.6043 16.285 9.65065 16.2627 9.68275 16.2358C9.71443 16.2092 9.72366 16.1862 9.72404 16.1681L9.72408 16.1664C9.72437 16.1585 9.72327 16.1499 9.72018 16.1268L9.72016 16.1267C9.71761 16.1076 9.71342 16.0763 9.71675 16.0419M8.97794 16.5893L9.83105 16.0525M8.97794 16.5893C8.91196 16.6395 8.82673 16.6603 8.71567 16.6691C8.67093 16.6727 8.62566 16.6742 8.57726 16.6757C8.56552 16.6761 8.55359 16.6765 8.54145 16.6769C8.50279 16.6783 8.46239 16.68 8.42158 16.6834L8.97794 16.5893ZM9.71675 16.0419C9.71677 16.0417 9.7168 16.0414 9.71683 16.0411L9.83105 16.0525M9.71675 16.0419C9.71672 16.0422 9.7167 16.0425 9.71667 16.0428L9.83105 16.0525M9.71675 16.0419C9.72514 15.9469 9.78102 15.8806 9.82368 15.8371C9.83786 15.8226 9.85456 15.8068 9.86899 15.7932C9.87551 15.787 9.88156 15.7813 9.88672 15.7764C9.90585 15.7579 9.92017 15.7429 9.93097 15.7285L9.93624 15.7215L9.93986 15.718M9.83105 16.0525C9.83714 15.981 9.89072 15.9305 9.94524 15.8791C9.97283 15.8531 10.0007 15.8268 10.0227 15.7975C10.0293 15.7911 10.0345 15.7846 10.0385 15.7771C10.1344 15.6258 10.0425 15.4311 9.94134 15.2838L9.93832 15.2793C9.83791 15.1319 9.72384 14.9644 9.77343 14.7955M9.93986 15.718L9.93694 15.7235C9.93899 15.7196 9.94108 15.717 9.94203 15.7159C9.94245 15.7154 9.94265 15.7152 9.94252 15.7154L9.94199 15.7159L9.93986 15.718ZM9.93986 15.718L9.94121 15.7154L9.94152 15.7156C9.96639 15.6764 9.97152 15.6263 9.95311 15.5594C9.93437 15.4912 9.89414 15.4179 9.84669 15.3487L9.84645 15.3484L9.8412 15.3406C9.7931 15.27 9.73466 15.1843 9.69535 15.0935C9.65398 14.998 9.62797 14.8843 9.66308 14.7639M9.66308 14.7639C9.663 14.7642 9.66293 14.7644 9.66285 14.7647L9.77343 14.7955M9.66308 14.7639C9.68005 14.7036 9.72625 14.6169 9.82368 14.5881L9.82491 14.5877L9.82491 14.5877C9.8978 14.5671 9.96121 14.5872 10.0087 14.6237C10.0491 14.6547 10.0785 14.6979 10.098 14.7274C10.1037 14.736 10.1088 14.7439 10.1136 14.7513C10.1287 14.7743 10.1402 14.7921 10.1537 14.8085C10.1705 14.8288 10.1796 14.833 10.1822 14.8338L10.1829 14.834C10.1873 14.8355 10.1881 14.8352 10.191 14.834C10.1969 14.8317 10.2084 14.8247 10.2257 14.8069C10.2518 14.7798 10.2732 14.7485 10.2987 14.7112C10.311 14.6932 10.3242 14.6739 10.3394 14.653C10.436 14.5173 10.5928 14.4264 10.7593 14.4074M9.66308 14.7639C9.66315 14.7636 9.66322 14.7634 9.6633 14.7631L9.77343 14.7955M9.77343 14.7955C9.78519 14.7533 9.8127 14.711 9.85621 14.6982L10.7593 14.4074M7.86955 8.11361C8.15175 7.92675 8.49931 7.98689 8.55316 8.34569C8.57409 8.47883 8.548 8.6161 8.51249 8.74672C8.50776 8.76513 8.50274 8.78353 8.4977 8.80197C8.48171 8.86057 8.46561 8.91953 8.45863 8.97995L3.05506 9.69455C2.95653 9.50219 3.07716 8.92577 3.13243 8.81168C3.18628 8.69897 3.39487 8.72193 3.44872 8.77587C3.50398 8.82959 3.70082 8.81811 3.77701 8.77587M7.86955 8.11361C7.84908 8.12744 7.82854 8.14189 7.80785 8.15644C7.77532 8.17933 7.74243 8.20246 7.70893 8.2238M7.86955 8.11361L7.93292 8.20931C7.93307 8.20922 7.93321 8.20912 7.93336 8.20903M7.86955 8.11361L7.9338 8.20873C7.93365 8.20883 7.9335 8.20893 7.93336 8.20903M7.70893 8.2238C7.61745 8.2821 7.52127 8.32755 7.41521 8.31883M7.70893 8.2238L7.77059 8.32062L7.77063 8.32059M7.70893 8.2238L7.77063 8.32059M7.41521 8.31883C7.24755 8.30514 7.14303 8.17136 7.036 8.03436C6.95283 7.92791 6.86814 7.81951 6.75111 7.764M7.41521 8.31883L7.40587 8.43324C7.20237 8.41662 7.07553 8.26895 6.98197 8.15137C6.96849 8.13443 6.95568 8.11803 6.94323 8.1021C6.90847 8.05762 6.87659 8.01682 6.84137 7.97849C6.79501 7.92806 6.75039 7.89077 6.70222 7.86785M7.41521 8.31883L5.29046 7.4094M6.75111 7.764C6.72898 7.75365 6.70599 7.74537 6.68315 7.73715C6.64364 7.72292 6.6046 7.70886 6.57122 7.68457M6.75111 7.764L6.70192 7.86771C6.70202 7.86775 6.70212 7.8678 6.70222 7.86785M6.75111 7.764L6.70253 7.86799C6.70243 7.86795 6.70233 7.8679 6.70222 7.86785M6.57122 7.68457C6.4795 7.61969 6.45344 7.50857 6.42717 7.39653C6.40306 7.2937 6.37877 7.1901 6.30337 7.12078M6.57122 7.68457L6.50367 7.77738C6.50388 7.77753 6.5041 7.77769 6.50431 7.77784M6.57122 7.68457L6.50493 7.77828C6.50472 7.77814 6.50451 7.77799 6.50431 7.77784M6.30337 7.12078C6.20742 7.03355 6.05786 7.03103 5.93181 7.06684C5.86628 7.08546 5.80392 7.11276 5.74147 7.14011C5.6838 7.16536 5.62606 7.19065 5.56566 7.20916M6.30337 7.12078L6.22568 7.20529C6.22576 7.20536 6.22584 7.20543 6.22592 7.20551M6.30337 7.12078L6.22615 7.20572C6.22607 7.20565 6.226 7.20558 6.22592 7.20551M5.56566 7.20916C5.47551 7.2373 5.38087 7.25 5.28576 7.2564C5.28734 7.26332 5.28861 7.26954 5.28963 7.27455C5.28979 7.27533 5.28995 7.27608 5.29009 7.2768L5.29117 7.28207L5.29105 7.28209C5.29435 7.30319 5.29643 7.32485 5.29643 7.34713C5.29643 7.35503 5.29614 7.36294 5.29558 7.37079M5.56566 7.20916L5.5993 7.31891C5.5994 7.31888 5.59949 7.31885 5.59958 7.31882M5.56566 7.20916L5.59986 7.31873C5.59977 7.31876 5.59968 7.31879 5.59958 7.31882M5.29558 7.37079C5.25613 7.37349 5.21734 7.37508 5.17967 7.37623C5.1791 7.38032 5.17843 7.38432 5.17764 7.38821M5.29558 7.37079C5.29464 7.38389 5.29293 7.39684 5.29046 7.4094M5.29558 7.37079C5.39517 7.364 5.49895 7.3502 5.59958 7.31882M5.17764 7.38821C5.1553 7.51631 4.90462 7.80463 4.80608 7.90081C4.70755 7.99699 4.2692 8.14552 4.22593 8.13519C4.18266 8.12486 3.82169 8.20956 3.78877 8.31722C3.77484 8.3625 3.78469 8.44478 3.7946 8.52758C3.80795 8.63913 3.82142 8.75163 3.77701 8.77587M5.17764 7.38821L5.29017 7.41086C5.29027 7.41037 5.29037 7.40989 5.29046 7.4094M5.17764 7.38821L5.29072 7.40794C5.29064 7.40842 5.29055 7.40891 5.29046 7.4094M3.77701 8.77587L3.83201 8.87662C3.83213 8.87656 3.83225 8.87649 3.83238 8.87642M3.77701 8.77587L3.83266 8.87627C3.83257 8.87632 3.83247 8.87637 3.83238 8.87642M3.15723 9.64222C3.21564 9.75617 3.21231 9.86367 3.20921 9.96375C3.20884 9.97581 3.20847 9.98776 3.20821 9.99961C3.20574 10.1129 3.20813 10.2576 3.27536 10.4831L3.27544 10.4834C3.34921 10.7333 3.36936 10.9074 3.37933 11.0485C3.3814 11.0779 3.38303 11.1049 3.38455 11.1301C3.39051 11.2287 3.39483 11.3002 3.41769 11.3818L3.41774 11.382C3.43106 11.4298 3.45092 11.4733 3.47434 11.5186C3.48031 11.5302 3.48695 11.5427 3.4939 11.5557C3.51197 11.5896 3.53212 11.6274 3.54783 11.6633C3.57114 11.7165 3.59073 11.7775 3.59283 11.8479C3.59495 11.919 3.57902 11.9922 3.54218 12.0703M3.15723 9.64222L3.43837 12.0213M3.15723 9.64222C3.14495 9.61825 3.13417 9.56799 3.13257 9.48916C3.13105 9.41419 3.13792 9.32685 3.14982 9.2392C3.16166 9.15191 3.17812 9.06694 3.19478 8.9975C3.21222 8.92484 3.2278 8.87809 3.23573 8.86172L3.23573 8.86172L3.236 8.86117C3.23603 8.86109 3.23609 8.86087 3.23685 8.86017C3.2378 8.8593 3.24018 8.85743 3.24493 8.85525C3.25512 8.85057 3.27165 8.84657 3.29338 8.84603C3.31474 8.84551 3.33598 8.84848 3.35267 8.85325C3.36414 8.85652 3.36946 8.85943 3.37063 8.86002C3.40731 8.89462 3.45437 8.90946 3.48879 8.91676C3.52713 8.9249 3.56853 8.92747 3.60752 8.92662C3.68084 8.92501 3.77061 8.91055 3.83238 8.87642M3.15723 9.64222L3.83238 8.87642M3.54218 12.0703L3.43837 12.0213M3.54218 12.0703C3.5422 12.0703 3.54221 12.0702 3.54222 12.0702L3.43837 12.0213M3.54218 12.0703C3.48463 12.1925 3.43148 12.3373 3.3923 12.4533C3.37283 12.511 3.35706 12.5608 3.34618 12.5961L3.34486 12.6005M3.43837 12.0213C3.31773 12.2775 3.21921 12.6198 3.21921 12.6198M3.34486 12.6005C3.3437 12.5986 3.34257 12.5968 3.34145 12.595C3.33266 12.5809 3.32499 12.5698 3.31924 12.5618L3.31211 12.5522L3.30978 12.5493L3.30896 12.5482L3.30864 12.5478L3.3085 12.5476L3.30843 12.5476L3.21921 12.6198M3.34486 12.6005L3.33371 12.6373L3.33052 12.6481L3.32974 12.6508L3.32955 12.6514L3.32952 12.6515L3.32951 12.6515M3.34486 12.6005L3.32951 12.6515M3.21921 12.6198L3.32951 12.6515M3.21921 12.6198L3.32951 12.6515M5.59958 7.31882C5.66641 7.29832 5.72957 7.27064 5.78582 7.246C5.78879 7.2447 5.79174 7.24341 5.79467 7.24212C5.85541 7.21554 5.90872 7.19273 5.96318 7.17725C6.07377 7.14584 6.17336 7.15795 6.22592 7.20551M6.22592 7.20551C6.27319 7.24915 6.29078 7.31825 6.31869 7.43666L6.31965 7.44075C6.34322 7.54088 6.37786 7.688 6.50431 7.77784M6.50431 7.77784C6.54353 7.80624 6.58518 7.82329 6.61804 7.83558C6.62958 7.8399 6.63968 7.84354 6.64887 7.84684C6.66933 7.85421 6.68522 7.85993 6.70222 7.86785M7.77063 8.32059C7.8055 8.29838 7.84357 8.27165 7.87825 8.24729C7.89815 8.23332 7.91693 8.22013 7.93336 8.20903M7.77063 8.32059L8.91456 10.4719C8.91461 10.472 8.91466 10.4721 8.91471 10.4721M7.93336 8.20903C8.05357 8.12958 8.17652 8.1102 8.26569 8.13547C8.34705 8.15852 8.41875 8.22345 8.43965 8.36273L8.43977 8.36351C8.45679 8.47177 8.43626 8.58958 8.40172 8.71661L8.40171 8.71661L8.40131 8.71816C8.39749 8.73304 8.39311 8.74906 8.38848 8.76596C8.3721 8.82583 8.35269 8.89675 8.34461 8.96678L8.34456 8.96716C8.31821 9.20221 8.41298 9.44385 8.59146 9.60153L8.59147 9.60153C8.62019 9.62689 8.65696 9.65461 8.68811 9.67808C8.70392 9.69 8.71829 9.70082 8.72941 9.70969C8.76969 9.74182 8.79652 9.76877 8.81331 9.79788C8.84923 9.86128 8.84535 9.94168 8.83729 10.0704L8.83704 10.0745C8.83009 10.1852 8.82023 10.3424 8.91471 10.4721M8.91471 10.4721C8.96646 10.5434 9.0375 10.5881 9.0928 10.6212C9.10211 10.6267 9.11099 10.632 9.11948 10.637C9.16711 10.6651 9.20247 10.686 9.23226 10.7139L9.23299 10.7145C9.23485 10.7162 9.23753 10.7189 9.24093 10.7222C9.25744 10.7385 9.2907 10.7714 9.3267 10.7922L9.32669 10.7922L9.32799 10.7929C9.45506 10.8644 9.58668 10.8059 9.66237 10.7601C9.69045 10.7431 9.71659 10.7244 9.73971 10.7065L8.91471 10.4721ZM11.6456 14.0253L11.5867 13.9268C11.5895 13.9251 11.5957 13.9203 11.6101 13.9004C11.6121 13.8977 11.6146 13.8942 11.6175 13.8901C11.6297 13.8728 11.6492 13.8449 11.6704 13.8228L11.6715 13.8217C11.7778 13.714 11.9334 13.7063 12.0472 13.7329L12.0473 13.7329C12.1316 13.7527 12.2136 13.7928 12.2804 13.8254C12.2988 13.8344 12.3161 13.8428 12.3319 13.8501C12.4329 13.8942 12.5267 13.9117 12.6069 13.9098C12.5758 13.8241 12.5545 13.7354 12.5357 13.652C12.5319 13.6353 12.5282 13.6187 12.5245 13.6024C12.4984 13.4853 12.4747 13.3792 12.4357 13.2841C12.3521 13.0825 12.1732 12.9199 11.9599 12.8374C11.8506 12.7961 11.7324 12.7745 11.6222 12.7818C11.6217 12.7819 11.6183 12.7824 11.6109 12.7842C11.6005 12.7867 11.5869 12.7905 11.5703 12.7953C11.5511 12.8008 11.5314 12.8067 11.5104 12.813C11.493 12.8183 11.4748 12.8237 11.4553 12.8295C11.4152 12.8413 11.3722 12.8534 11.3369 12.8606C11.32 12.8641 11.2996 12.8677 11.28 12.8683C11.2706 12.8686 11.2555 12.8686 11.2387 12.8647C11.2247 12.8615 11.188 12.851 11.1627 12.8136L11.1622 12.8129C11.1128 12.7387 11.1097 12.6582 11.1171 12.594C11.1228 12.5449 11.1368 12.4931 11.1474 12.4534C11.15 12.444 11.1523 12.4352 11.1543 12.4274L11.1545 12.4267C11.2528 12.0529 11.0439 11.6168 10.6814 11.4522C10.6176 11.4236 10.5525 11.4028 10.4808 11.3799C10.451 11.3704 10.42 11.3605 10.3876 11.3495C10.2828 11.3141 10.1687 11.2691 10.0693 11.1903C9.90704 11.0619 9.81552 10.8571 9.82103 10.6535C9.81301 10.6576 9.80456 10.6624 9.79568 10.6678L11.7533 13.9023C11.7389 13.9173 11.7267 13.9345 11.7147 13.9516C11.6947 13.9798 11.675 14.0078 11.6456 14.0253ZM11.6456 14.0253C11.5981 14.0536 11.5415 14.0455 11.4845 14.0374C11.4328 14.03 11.3806 14.0226 11.3344 14.0421M11.6456 14.0253L11.5868 13.9267C11.5815 13.9299 11.5693 13.9335 11.5086 13.9249C11.5051 13.9244 11.5012 13.9238 11.4971 13.9232C11.4505 13.9162 11.3674 13.9037 11.2902 13.9362M11.3344 14.0421L11.2907 13.936C11.2905 13.936 11.2903 13.9361 11.2902 13.9362M11.3344 14.0421C11.2549 14.0749 11.2371 14.1605 11.2186 14.2491C11.2039 14.3198 11.1888 14.3925 11.1416 14.442L11.2902 13.9362M11.3344 14.0421L11.2897 13.9364C11.2899 13.9363 11.29 13.9362 11.2902 13.9362M10.7593 14.4074C10.7594 14.4074 10.7595 14.4074 10.7597 14.4074L10.7726 14.5214L10.759 14.4074C10.7591 14.4074 10.7592 14.4074 10.7593 14.4074ZM3.39956 13.7754C3.39955 13.7752 3.39954 13.7751 3.39953 13.775L3.28505 13.7834L3.39959 13.7758C3.39958 13.7757 3.39957 13.7755 3.39956 13.7754Z" fill="url(#paint1_linear_1571_9838)"/>
<path d="M8.97794 16.5893L8.97814 16.5891C9.00099 16.5718 9.02159 16.5507 9.0498 16.5219L9.05363 16.518C9.08149 16.4895 9.11709 16.4534 9.16088 16.4233L9.16145 16.4229C9.23087 16.3757 9.30664 16.353 9.37301 16.3376C9.39946 16.3315 9.42661 16.3261 9.45168 16.3211C9.45788 16.3199 9.46395 16.3187 9.46986 16.3175C9.50079 16.3113 9.52873 16.3054 9.55514 16.2981L9.55604 16.2979C9.6043 16.285 9.65065 16.2627 9.68275 16.2358C9.71443 16.2092 9.72366 16.1862 9.72404 16.1681L9.72408 16.1664C9.72437 16.1585 9.72327 16.1499 9.72018 16.1268L9.72016 16.1267C9.71761 16.1076 9.71342 16.0763 9.71675 16.0419M8.97794 16.5893L9.83105 16.0525M8.97794 16.5893C8.91196 16.6395 8.82673 16.6603 8.71567 16.6691C8.67093 16.6727 8.62566 16.6742 8.57726 16.6757C8.56552 16.6761 8.55359 16.6765 8.54145 16.6769C8.50279 16.6783 8.46239 16.68 8.42158 16.6834L8.97794 16.5893ZM9.71675 16.0419C9.71677 16.0417 9.7168 16.0414 9.71683 16.0411L9.83105 16.0525M9.71675 16.0419C9.71672 16.0422 9.7167 16.0425 9.71667 16.0428L9.83105 16.0525M9.71675 16.0419C9.72514 15.9469 9.78102 15.8806 9.82368 15.8371C9.83786 15.8226 9.85456 15.8068 9.86899 15.7932C9.87551 15.787 9.88156 15.7813 9.88672 15.7764C9.90585 15.7579 9.92017 15.7429 9.93097 15.7285L9.93624 15.7215L9.93986 15.718M9.83105 16.0525C9.83714 15.981 9.89072 15.9305 9.94524 15.8791C9.97283 15.8531 10.0007 15.8268 10.0227 15.7975C10.0293 15.7911 10.0345 15.7846 10.0385 15.7771C10.1344 15.6258 10.0425 15.4311 9.94134 15.2838L9.93832 15.2793C9.83791 15.1319 9.72384 14.9644 9.77343 14.7955M9.93986 15.718L9.93694 15.7235C9.93899 15.7196 9.94108 15.717 9.94203 15.7159C9.94245 15.7154 9.94265 15.7152 9.94252 15.7154L9.94199 15.7159L9.93986 15.718ZM9.93986 15.718L9.94121 15.7154L9.94152 15.7156C9.96639 15.6764 9.97152 15.6263 9.95311 15.5594C9.93437 15.4912 9.89414 15.4179 9.84669 15.3487L9.84645 15.3484L9.8412 15.3406C9.7931 15.27 9.73466 15.1843 9.69535 15.0935C9.65398 14.998 9.62797 14.8843 9.66308 14.7639M9.66308 14.7639C9.663 14.7642 9.66293 14.7644 9.66285 14.7647L9.77343 14.7955M9.66308 14.7639C9.68005 14.7036 9.72625 14.6169 9.82368 14.5881L9.82491 14.5877L9.82491 14.5877C9.8978 14.5671 9.96121 14.5872 10.0087 14.6237C10.0491 14.6547 10.0785 14.6979 10.098 14.7274C10.1037 14.736 10.1088 14.7439 10.1136 14.7513C10.1287 14.7743 10.1402 14.7921 10.1537 14.8085C10.1705 14.8288 10.1796 14.833 10.1822 14.8338L10.1829 14.834C10.1873 14.8355 10.1881 14.8352 10.191 14.834C10.1969 14.8317 10.2084 14.8247 10.2257 14.8069C10.2518 14.7798 10.2732 14.7485 10.2987 14.7112C10.311 14.6932 10.3242 14.6739 10.3394 14.653C10.436 14.5173 10.5928 14.4264 10.7593 14.4074M9.66308 14.7639C9.66315 14.7636 9.66322 14.7634 9.6633 14.7631L9.77343 14.7955M9.77343 14.7955C9.78519 14.7533 9.8127 14.711 9.85621 14.6982L10.7593 14.4074M7.86955 8.11361C8.15175 7.92675 8.49931 7.98689 8.55316 8.34569C8.57409 8.47883 8.548 8.6161 8.51249 8.74672C8.50776 8.76513 8.50274 8.78353 8.4977 8.80197C8.48171 8.86057 8.46561 8.91953 8.45863 8.97995L3.05506 9.69455C2.95653 9.50219 3.07716 8.92577 3.13243 8.81168C3.18628 8.69897 3.39487 8.72193 3.44872 8.77587C3.50398 8.82959 3.70082 8.81811 3.77701 8.77587M7.86955 8.11361C7.84908 8.12744 7.82854 8.14189 7.80785 8.15644C7.77532 8.17933 7.74243 8.20246 7.70893 8.2238M7.86955 8.11361L7.93292 8.20931C7.93307 8.20922 7.93321 8.20912 7.93336 8.20903M7.86955 8.11361L7.9338 8.20873C7.93365 8.20883 7.9335 8.20893 7.93336 8.20903M7.70893 8.2238C7.61745 8.2821 7.52127 8.32755 7.41521 8.31883M7.70893 8.2238L7.77059 8.32062L7.77063 8.32059M7.70893 8.2238L7.77063 8.32059M7.41521 8.31883C7.24755 8.30514 7.14303 8.17136 7.036 8.03436C6.95283 7.92791 6.86814 7.81951 6.75111 7.764M7.41521 8.31883L7.40587 8.43324C7.20237 8.41662 7.07553 8.26895 6.98197 8.15137C6.96849 8.13443 6.95568 8.11803 6.94323 8.1021C6.90847 8.05762 6.87659 8.01682 6.84137 7.97849C6.79501 7.92806 6.75039 7.89077 6.70222 7.86785M7.41521 8.31883L5.29046 7.4094M6.75111 7.764C6.72898 7.75365 6.70599 7.74537 6.68315 7.73715C6.64364 7.72292 6.6046 7.70886 6.57122 7.68457M6.75111 7.764L6.70192 7.86771C6.70202 7.86775 6.70212 7.8678 6.70222 7.86785M6.75111 7.764L6.70253 7.86799C6.70243 7.86795 6.70233 7.8679 6.70222 7.86785M6.57122 7.68457C6.4795 7.61969 6.45344 7.50857 6.42717 7.39653C6.40306 7.2937 6.37877 7.1901 6.30337 7.12078M6.57122 7.68457L6.50367 7.77738C6.50388 7.77753 6.5041 7.77769 6.50431 7.77784M6.57122 7.68457L6.50493 7.77828C6.50472 7.77814 6.50451 7.77799 6.50431 7.77784M6.30337 7.12078C6.20742 7.03355 6.05786 7.03103 5.93181 7.06684C5.86628 7.08546 5.80392 7.11276 5.74147 7.14011C5.6838 7.16536 5.62606 7.19065 5.56566 7.20916M6.30337 7.12078L6.22568 7.20529C6.22576 7.20536 6.22584 7.20543 6.22592 7.20551M6.30337 7.12078L6.22615 7.20572C6.22607 7.20565 6.226 7.20558 6.22592 7.20551M5.56566 7.20916C5.47551 7.2373 5.38087 7.25 5.28576 7.2564C5.28734 7.26332 5.28861 7.26954 5.28963 7.27455C5.28979 7.27533 5.28995 7.27608 5.29009 7.2768L5.29117 7.28207L5.29105 7.28209C5.29435 7.30319 5.29643 7.32485 5.29643 7.34713C5.29643 7.35503 5.29614 7.36294 5.29558 7.37079M5.56566 7.20916L5.5993 7.31891C5.5994 7.31888 5.59949 7.31885 5.59958 7.31882M5.56566 7.20916L5.59986 7.31873C5.59977 7.31876 5.59968 7.31879 5.59958 7.31882M5.29558 7.37079C5.25613 7.37349 5.21734 7.37508 5.17967 7.37623C5.1791 7.38032 5.17843 7.38432 5.17764 7.38821M5.29558 7.37079C5.29464 7.38389 5.29293 7.39684 5.29046 7.4094M5.29558 7.37079C5.39517 7.364 5.49895 7.3502 5.59958 7.31882M5.17764 7.38821C5.1553 7.51631 4.90462 7.80463 4.80608 7.90081C4.70755 7.99699 4.2692 8.14552 4.22593 8.13519C4.18266 8.12486 3.82169 8.20956 3.78877 8.31722C3.77484 8.3625 3.78469 8.44478 3.7946 8.52758C3.80795 8.63913 3.82142 8.75163 3.77701 8.77587M5.17764 7.38821L5.29017 7.41086C5.29027 7.41037 5.29037 7.40989 5.29046 7.4094M5.17764 7.38821L5.29072 7.40794C5.29064 7.40842 5.29055 7.40891 5.29046 7.4094M3.77701 8.77587L3.83201 8.87662C3.83213 8.87656 3.83225 8.87649 3.83238 8.87642M3.77701 8.77587L3.83266 8.87627C3.83257 8.87632 3.83247 8.87637 3.83238 8.87642M3.15723 9.64222C3.21564 9.75617 3.21231 9.86367 3.20921 9.96375C3.20884 9.97581 3.20847 9.98776 3.20821 9.99961C3.20574 10.1129 3.20813 10.2576 3.27536 10.4831L3.27544 10.4834C3.34921 10.7333 3.36936 10.9074 3.37933 11.0485C3.3814 11.0779 3.38303 11.1049 3.38455 11.1301C3.39051 11.2287 3.39483 11.3002 3.41769 11.3818L3.41774 11.382C3.43106 11.4298 3.45092 11.4733 3.47434 11.5186C3.48031 11.5302 3.48695 11.5427 3.4939 11.5557C3.51197 11.5896 3.53212 11.6274 3.54783 11.6633C3.57114 11.7165 3.59073 11.7775 3.59283 11.8479C3.59495 11.919 3.57902 11.9922 3.54218 12.0703M3.15723 9.64222L3.43837 12.0213M3.15723 9.64222C3.14495 9.61825 3.13417 9.56799 3.13257 9.48916C3.13105 9.41419 3.13792 9.32685 3.14982 9.2392C3.16166 9.15191 3.17812 9.06694 3.19478 8.9975C3.21222 8.92484 3.2278 8.87809 3.23573 8.86172L3.23573 8.86172L3.236 8.86117C3.23603 8.86109 3.23609 8.86087 3.23685 8.86017C3.2378 8.8593 3.24018 8.85743 3.24493 8.85525C3.25512 8.85057 3.27165 8.84657 3.29338 8.84603C3.31474 8.84551 3.33598 8.84848 3.35267 8.85325C3.36414 8.85652 3.36946 8.85943 3.37063 8.86002C3.40731 8.89462 3.45437 8.90946 3.48879 8.91676C3.52713 8.9249 3.56853 8.92747 3.60752 8.92662C3.68084 8.92501 3.77061 8.91055 3.83238 8.87642M3.15723 9.64222L3.83238 8.87642M3.54218 12.0703L3.43837 12.0213M3.54218 12.0703C3.5422 12.0703 3.54221 12.0702 3.54222 12.0702L3.43837 12.0213M3.54218 12.0703C3.48463 12.1925 3.43148 12.3373 3.3923 12.4533C3.37283 12.511 3.35706 12.5608 3.34618 12.5961L3.34486 12.6005M3.43837 12.0213C3.31773 12.2775 3.21921 12.6198 3.21921 12.6198M3.34486 12.6005C3.3437 12.5986 3.34257 12.5968 3.34145 12.595C3.33266 12.5809 3.32499 12.5698 3.31924 12.5618L3.31211 12.5522L3.30978 12.5493L3.30896 12.5482L3.30864 12.5478L3.3085 12.5476L3.30843 12.5476L3.21921 12.6198M3.34486 12.6005L3.33371 12.6373L3.33052 12.6481L3.32974 12.6508L3.32955 12.6514L3.32952 12.6515L3.32951 12.6515M3.34486 12.6005L3.32951 12.6515M3.21921 12.6198L3.32951 12.6515M3.21921 12.6198L3.32951 12.6515M5.59958 7.31882C5.66641 7.29832 5.72957 7.27064 5.78582 7.246C5.78879 7.2447 5.79174 7.24341 5.79467 7.24212C5.85541 7.21554 5.90872 7.19273 5.96318 7.17725C6.07377 7.14584 6.17336 7.15795 6.22592 7.20551M6.22592 7.20551C6.27319 7.24915 6.29078 7.31825 6.31869 7.43666L6.31965 7.44075C6.34322 7.54088 6.37786 7.688 6.50431 7.77784M6.50431 7.77784C6.54353 7.80624 6.58518 7.82329 6.61804 7.83558C6.62958 7.8399 6.63968 7.84354 6.64887 7.84684C6.66933 7.85421 6.68522 7.85993 6.70222 7.86785M7.77063 8.32059C7.8055 8.29838 7.84357 8.27165 7.87825 8.24729C7.89815 8.23332 7.91693 8.22013 7.93336 8.20903M7.77063 8.32059L8.91456 10.4719C8.91461 10.472 8.91466 10.4721 8.91471 10.4721M7.93336 8.20903C8.05357 8.12958 8.17652 8.1102 8.26569 8.13547C8.34705 8.15852 8.41875 8.22345 8.43965 8.36273L8.43977 8.36351C8.45679 8.47177 8.43626 8.58958 8.40172 8.71661L8.40171 8.71661L8.40131 8.71816C8.39749 8.73304 8.39311 8.74906 8.38848 8.76596C8.3721 8.82583 8.35269 8.89675 8.34461 8.96678L8.34456 8.96716C8.31821 9.20221 8.41298 9.44385 8.59146 9.60153L8.59147 9.60153C8.62019 9.62689 8.65696 9.65461 8.68811 9.67808C8.70392 9.69 8.71829 9.70082 8.72941 9.70969C8.76969 9.74182 8.79652 9.76877 8.81331 9.79788C8.84923 9.86128 8.84535 9.94168 8.83729 10.0704L8.83704 10.0745C8.83009 10.1852 8.82023 10.3424 8.91471 10.4721M8.91471 10.4721C8.96646 10.5434 9.0375 10.5881 9.0928 10.6212C9.10211 10.6267 9.11099 10.632 9.11948 10.637C9.16711 10.6651 9.20247 10.686 9.23226 10.7139L9.23299 10.7145C9.23485 10.7162 9.23753 10.7189 9.24093 10.7222C9.25744 10.7385 9.2907 10.7714 9.3267 10.7922L9.32669 10.7922L9.32799 10.7929C9.45506 10.8644 9.58668 10.8059 9.66237 10.7601C9.69045 10.7431 9.71659 10.7244 9.73971 10.7065L8.91471 10.4721ZM11.6456 14.0253L11.5867 13.9268C11.5895 13.9251 11.5957 13.9203 11.6101 13.9004C11.6121 13.8977 11.6146 13.8942 11.6175 13.8901C11.6297 13.8728 11.6492 13.8449 11.6704 13.8228L11.6715 13.8217C11.7778 13.714 11.9334 13.7063 12.0472 13.7329L12.0473 13.7329C12.1316 13.7527 12.2136 13.7928 12.2804 13.8254C12.2988 13.8344 12.3161 13.8428 12.3319 13.8501C12.4329 13.8942 12.5267 13.9117 12.6069 13.9098C12.5758 13.8241 12.5545 13.7354 12.5357 13.652C12.5319 13.6353 12.5282 13.6187 12.5245 13.6024C12.4984 13.4853 12.4747 13.3792 12.4357 13.2841C12.3521 13.0825 12.1732 12.9199 11.9599 12.8374C11.8506 12.7961 11.7324 12.7745 11.6222 12.7818C11.6217 12.7819 11.6183 12.7824 11.6109 12.7842C11.6005 12.7867 11.5869 12.7905 11.5703 12.7953C11.5511 12.8008 11.5314 12.8067 11.5104 12.813C11.493 12.8183 11.4748 12.8237 11.4553 12.8295C11.4152 12.8413 11.3722 12.8534 11.3369 12.8606C11.32 12.8641 11.2996 12.8677 11.28 12.8683C11.2706 12.8686 11.2555 12.8686 11.2387 12.8647C11.2247 12.8615 11.188 12.851 11.1627 12.8136L11.1622 12.8129C11.1128 12.7387 11.1097 12.6582 11.1171 12.594C11.1228 12.5449 11.1368 12.4931 11.1474 12.4534C11.15 12.444 11.1523 12.4352 11.1543 12.4274L11.1545 12.4267C11.2528 12.0529 11.0439 11.6168 10.6814 11.4522C10.6176 11.4236 10.5525 11.4028 10.4808 11.3799C10.451 11.3704 10.42 11.3605 10.3876 11.3495C10.2828 11.3141 10.1687 11.2691 10.0693 11.1903C9.90704 11.0619 9.81552 10.8571 9.82103 10.6535C9.81301 10.6576 9.80456 10.6624 9.79568 10.6678L11.7533 13.9023C11.7389 13.9173 11.7267 13.9345 11.7147 13.9516C11.6947 13.9798 11.675 14.0078 11.6456 14.0253ZM11.6456 14.0253C11.5981 14.0536 11.5415 14.0455 11.4845 14.0374C11.4328 14.03 11.3806 14.0226 11.3344 14.0421M11.6456 14.0253L11.5868 13.9267C11.5815 13.9299 11.5693 13.9335 11.5086 13.9249C11.5051 13.9244 11.5012 13.9238 11.4971 13.9232C11.4505 13.9162 11.3674 13.9037 11.2902 13.9362M11.3344 14.0421L11.2907 13.936C11.2905 13.936 11.2903 13.9361 11.2902 13.9362M11.3344 14.0421C11.2549 14.0749 11.2371 14.1605 11.2186 14.2491C11.2039 14.3198 11.1888 14.3925 11.1416 14.442L11.2902 13.9362M11.3344 14.0421L11.2897 13.9364C11.2899 13.9363 11.29 13.9362 11.2902 13.9362M10.7593 14.4074C10.7594 14.4074 10.7595 14.4074 10.7597 14.4074L10.7726 14.5214L10.759 14.4074C10.7591 14.4074 10.7592 14.4074 10.7593 14.4074ZM3.39956 13.7754C3.39955 13.7752 3.39954 13.7751 3.39953 13.775L3.28505 13.7834L3.39959 13.7758C3.39958 13.7757 3.39957 13.7755 3.39956 13.7754Z" stroke="#510A32" stroke-width="0.229572"/>
<defs>
<linearGradient id="paint0_linear_1571_9838" x1="11.9654" y1="1.91251" x2="11.9654" y2="101.311" gradientUnits="userSpaceOnUse">
<stop stop-color="#FF984F"/>
<stop offset="0.2978" stop-color="#F37A56"/>
<stop offset="0.9428" stop-color="#D42F67"/>
<stop offset="1" stop-color="#D12869"/>
</linearGradient>
<linearGradient id="paint1_linear_1571_9838" x1="7.89451" y1="7.88791" x2="7.89451" y2="67.5577" gradientUnits="userSpaceOnUse">
<stop stop-color="#FF984F"/>
<stop offset="0.2978" stop-color="#F37A56"/>
<stop offset="0.9428" stop-color="#D42F67"/>
<stop offset="1" stop-color="#D12869"/>
</linearGradient>
</defs>
</svg>
