<svg width="22" height="17" viewBox="0 0 22 17" fill="none" xmlns="http://www.w3.org/2000/svg">
<mask id="path-1-inside-1_1571_9883" fill="white">
<path d="M16.2708 16.406V16.4049C16.298 16.3331 16.3187 16.2762 16.3187 16.2762C16.3187 16.2762 16.4407 16.0553 16.3987 15.841C16.3557 15.6267 16.2699 15.439 16.2827 15.3319C16.2944 15.2247 16.2884 15.0907 16.3987 15.1571C16.508 15.2247 16.5567 15.3426 16.6114 15.1389C16.6661 14.9362 16.6544 14.8354 16.6485 14.7755C16.6425 14.7154 16.6055 14.6082 16.6357 14.487C16.666 14.367 16.6973 14.1794 16.7703 14.1794C16.8436 14.1794 16.9956 14.3263 17.0563 14.1794C17.1178 14.0315 17.0563 13.9381 17.1538 13.817C17.2513 13.6969 17.3431 13.7568 17.3676 13.6368C17.3919 13.5156 17.3618 13.4019 17.3618 13.3409C17.3618 13.2807 17.3676 13.1672 17.4233 13.1544C17.478 13.1403 17.5326 13.2005 17.6116 13.208C17.6906 13.2143 17.8369 13.0868 17.8369 13.0868C17.8369 13.0868 17.8622 12.9656 17.9227 13.0868C17.9832 13.208 18.0877 13.2475 18.1725 13.1137C18.2583 12.9796 18.2759 12.8724 18.4222 12.7856C18.5685 12.6977 18.587 12.5112 18.6486 12.4908C18.709 12.4705 18.7763 12.524 18.8193 12.4436C18.8613 12.3631 18.874 12.2024 18.8681 12.1284C18.8613 12.0545 18.7949 11.988 18.9041 11.9344C19.0144 11.8809 19.1364 11.8937 19.1666 11.8069C19.1969 11.7201 19.1364 11.5465 19.1364 11.4929C19.1364 11.4393 19.0632 11.258 19.2282 11.2646C19.3921 11.2711 19.6975 11.2711 19.716 11.1841C19.7335 11.0973 19.673 11.0566 19.7092 10.9826C19.7462 10.9096 19.8195 10.8153 19.8009 10.7683C19.7824 10.7222 19.6672 10.6214 19.5872 10.601C19.5082 10.5816 19.3129 10.5474 19.2946 10.5002C19.2771 10.4541 19.2399 10.0585 19.1423 10.0992C19.0448 10.1389 18.9716 10.2524 18.9287 10.2192C18.8868 10.186 18.8195 10.0992 18.795 10.0959C18.7706 10.0917 18.5755 10.1988 18.5755 10.1988C18.5755 10.1988 18.6057 10.2793 18.4837 10.2063C18.3617 10.1324 18.3189 9.96397 18.3374 9.89752C18.356 9.83106 18.4837 9.83107 18.5325 9.70354C18.5813 9.57602 18.6788 9.61673 18.5998 9.46232C18.5197 9.30791 18.429 9.12027 18.429 9.06035C18.429 8.99928 18.587 8.90594 18.6115 8.9263C18.6358 8.94551 18.6916 9.04633 18.6973 9.11394C18.7031 9.18039 18.6788 9.27468 18.7638 9.29504C18.8496 9.31444 18.953 9.2672 18.9901 9.23397C19.0261 9.20075 18.9656 9.13429 19.1053 9.13429C19.2458 9.13429 19.3073 9.16003 19.3433 9.22763C19.3804 9.29524 19.5814 9.32097 19.6302 9.31444C19.6789 9.30791 19.7882 9.18039 19.8371 9.20074C19.8859 9.2211 19.6908 9.34114 20.0264 9.35516C20.362 9.36802 20.5758 9.24799 20.5758 9.24799C20.5758 9.24799 20.6986 9.30157 20.8294 9.19441C20.9591 9.08724 21.1728 8.87925 21.1728 8.87925C21.1728 8.87925 21.2314 8.84698 21.285 8.83411C21.284 8.82125 21.2821 8.80953 21.2812 8.79878C21.2646 8.66914 21.1992 8.62401 21.1504 8.51684C21.1017 8.40967 21.0821 8.36992 21.0978 8.26275C21.1144 8.15559 21.1711 8.14157 21.1877 8.02153C21.2043 7.9015 21.1144 7.75362 20.9965 7.58422C20.8785 7.41368 21.0082 7.29365 21.1262 7.23584C21.2441 7.17688 21.2198 7.15114 21.2237 7.0653C21.2286 6.9806 21.1387 6.89168 21.0451 6.81121C20.9514 6.73074 20.9154 6.82945 20.8821 6.86057C20.85 6.89168 20.6918 6.88745 20.61 6.86921C20.5291 6.85096 20.5251 6.81985 20.4316 6.81985C20.3379 6.81985 20.3213 6.94104 20.2276 6.97637C20.1349 7.01171 20.0042 6.90455 19.9437 6.79316C19.8822 6.68177 19.8334 6.56154 19.7847 6.50796C19.7359 6.45437 19.57 6.4319 19.4804 6.4319C19.3905 6.4319 19.2608 6.41807 19.1544 6.35585C19.049 6.29362 19.1105 6.13287 19.1018 6.01591C19.0939 5.9001 18.9193 5.91297 18.895 5.88186C18.8707 5.85075 18.7975 5.81541 18.6833 5.80581C18.5703 5.79735 18.5126 5.8058 18.4678 5.78871C18.4229 5.77047 18.4074 5.72111 18.4035 5.6633C18.3997 5.60549 18.3665 5.47144 18.3254 5.40806C18.2854 5.34584 18.2238 5.41344 18.1712 5.44878C18.1186 5.48412 18.1186 5.57419 17.9479 5.63641C17.7771 5.69864 17.8463 5.64064 17.7937 5.62777C17.7411 5.61375 17.6913 5.50659 17.5986 5.52061C17.5049 5.53347 17.4962 5.62777 17.464 5.69864C17.4319 5.77047 17.4768 5.86918 17.464 5.93563C17.4523 6.00324 17.4319 6.06104 17.3753 6.1104C17.3177 6.15861 17.1957 6.11463 16.9888 6.10503C16.781 6.09638 16.5859 6.07929 16.5576 6.03435C16.5293 5.98941 16.541 6.00766 16.541 5.94005C16.541 5.8736 16.5819 5.82866 16.663 5.73532C16.745 5.64102 16.7411 5.61855 16.7411 5.55633C16.7411 5.4941 16.7284 5.44474 16.6875 5.38694C16.6474 5.32913 16.5372 5.39558 16.4971 5.42669C16.4562 5.4578 16.3996 5.52099 16.3547 5.57899C16.3098 5.6368 16.3176 5.62835 16.2689 5.65504C16.2201 5.68174 16.1264 5.7044 16.0289 5.73014C15.9313 5.75798 15.8426 5.7891 15.7527 5.80619C15.663 5.82443 15.5743 5.81579 15.4239 5.73551C15.2728 5.65504 15.3986 5.65946 15.4806 5.57899C15.5615 5.49852 15.5332 5.36466 15.501 5.32913C15.4678 5.29264 15.3907 5.29264 15.3098 5.22196C15.2289 5.15013 15.3098 5.12766 15.3547 5.04719C15.3986 4.96672 15.2776 4.80175 15.2367 4.77909C15.1958 4.75642 15.0826 4.82844 15.0085 4.89067C14.9363 4.95385 14.9363 4.96672 14.8826 5.01608C14.83 5.06544 14.8056 5.03855 14.6925 5.04277C14.5783 5.04719 14.5579 5.14034 14.5296 5.14034C14.5013 5.14034 14.4154 5.18528 14.2934 5.29686C14.1714 5.40845 14.2934 5.38271 14.2934 5.45338C14.2934 5.52521 14.233 5.56478 14.1753 5.58302C14.1186 5.60127 14.0622 5.61413 14.0045 5.60991C13.9479 5.60568 13.8299 5.53808 13.789 5.50274C13.749 5.46741 13.7002 5.49852 13.6027 5.55633C13.5051 5.61414 13.5011 5.58302 13.387 5.5788C13.2729 5.57457 13.3012 5.52521 13.3012 5.49833C13.3012 5.47144 13.387 5.41786 13.4436 5.36427C13.5011 5.31069 13.5011 5.29244 13.4962 5.20352C13.4924 5.1146 13.4113 5.20352 13.3342 5.21217C13.2571 5.22081 13.1994 5.20352 13.143 5.16281C13.0864 5.12324 13.1021 5.01589 13.0533 4.96672C13.0046 4.91736 12.9518 4.96672 12.8095 5.04277C12.6681 5.11883 12.8504 5.32375 12.8583 5.4265C12.867 5.52944 12.8095 5.50255 12.7286 5.50255C12.6476 5.50255 12.631 5.44033 12.5959 5.39961C12.5608 5.36005 12.3023 5.35467 12.2282 5.3418C12.156 5.32894 12.0495 5.25711 12.0048 5.19392C11.9609 5.13169 11.9803 5.09213 11.9843 5.02031C11.9892 4.94848 12.0625 4.93138 12.1472 4.86801C12.2331 4.80578 12.1998 4.64926 12.1794 4.53345C12.1598 4.41764 12.0135 4.40803 11.912 4.43473C11.8096 4.46162 11.7978 4.52903 11.7608 4.58703C11.7248 4.64484 11.7042 4.68997 11.6682 4.74355C11.6311 4.79714 11.55 4.83248 11.517 4.82403C11.4848 4.81442 11.3794 4.76506 11.3102 4.76506C11.241 4.76506 11.0907 4.90872 11.0214 5.00206C10.9522 5.09636 11.0947 5.1897 11.1317 5.23905C11.1677 5.28841 11.2205 5.46741 11.2205 5.52963C11.2205 5.59186 11.3591 5.70862 11.3591 5.72572C11.3591 5.74396 11.2733 5.90471 11.282 5.95407C11.2897 6.00343 11.3951 6.13307 11.4645 6.2264C11.5337 6.31974 11.5991 6.3378 11.6636 6.40982C11.729 6.48049 11.6919 6.55232 11.6764 6.62856C11.6598 6.70462 11.611 6.82043 11.611 6.95871C11.611 7.09699 11.6276 7.11945 11.6636 7.13347C11.7007 7.14634 11.7856 7.07989 11.9202 7.06165C12.0539 7.04455 12.0099 7.11101 12.0333 7.20953C12.0586 7.30709 12.0216 7.34781 11.9971 7.42386C11.9726 7.49991 12.0459 7.51278 12.0625 7.5268C12.078 7.53967 12.1796 7.55791 12.2332 7.58461C12.2858 7.6115 12.2577 7.74113 12.2488 7.80759C12.2409 7.87404 12.0137 8.10661 11.9843 8.14214C11.956 8.17863 11.8468 8.16461 11.7365 8.18286C11.6273 8.2011 11.5902 8.17863 11.5014 8.09394C11.4116 8.00924 11.3668 7.97275 11.3181 7.90207C11.2693 7.83025 11.1922 7.74133 11.1718 7.71348C11.1513 7.68774 11.0459 7.75861 11.0255 7.82064C11.005 7.88383 10.9367 7.89247 10.8264 7.95566C10.7161 8.01788 10.7367 7.94606 10.6967 7.87423C10.6556 7.80355 10.6801 7.68237 10.6635 7.59767C10.6479 7.51297 10.5093 7.47322 10.4684 7.38756C10.4284 7.30287 10.4812 7.31247 10.5417 7.1957C10.6032 7.07989 10.57 7.03053 10.566 6.9685C10.5621 6.90531 10.5055 6.7895 10.4878 6.74437C10.4703 6.70039 10.3873 6.59745 10.3307 6.52562C10.2732 6.45495 10.2975 6.31974 10.3629 6.24907C10.4282 6.17724 10.6028 6.07968 10.6478 6.01207C10.6927 5.94447 10.6927 5.85555 10.6799 5.82443C10.6672 5.79332 10.7121 5.69902 10.7853 5.65082C10.8585 5.60146 10.8468 5.44935 10.8262 5.37311C10.8058 5.29705 10.7453 5.26172 10.6761 5.09655C10.6069 4.93138 10.6556 4.91755 10.6799 4.8682C10.7044 4.81884 10.757 4.65809 10.8096 4.53806C10.8622 4.41802 10.9687 4.40842 11.0417 4.37289C11.115 4.3364 11.2408 4.35464 11.395 4.34619C11.5502 4.33659 11.6877 4.28839 11.8379 4.18545C11.9891 4.0825 11.794 4.09115 11.7363 4.00203C11.6797 3.91311 11.6631 3.81017 11.7695 3.73412C11.8749 3.65787 11.9032 3.66767 11.9403 3.60006C11.9763 3.53246 11.9646 3.32351 12.07 3.18945C12.1754 3.0554 12.2046 3.04157 12.2486 2.92576C12.2935 2.8088 12.2124 2.80996 12.1881 2.71566C12.1637 2.62136 12.2407 2.61271 12.3218 2.50555C12.4038 2.39838 12.558 2.18405 12.5863 2.15294C12.6146 2.12182 12.5746 1.94283 12.5501 1.83989C12.5258 1.7381 12.4603 1.74655 12.3745 1.67914C12.2895 1.61269 12.2895 1.51839 12.3023 1.41641C12.314 1.31347 12.314 1.21053 12.2691 1.18383C12.2241 1.15714 12.1023 1.19248 12.0418 1.18383C11.9803 1.17423 11.8789 1.0542 11.7042 0.906124C11.5295 0.759203 11.4495 1.00695 11.4495 1.00695C11.3324 1.07129 11.1821 1.05516 11.0796 0.967389C10.9917 0.892296 10.9313 0.766883 10.8231 0.7423C10.7304 0.720982 10.6397 0.782056 10.546 0.793771C10.5226 0.795884 10.4973 0.795883 10.4768 0.782055C10.4466 0.760737 10.4387 0.717717 10.4436 0.677002C10.4338 0.69736 10.4232 0.718871 10.4123 0.739228C10.3001 0.958938 10.147 1.18422 9.92257 1.23569C9.84741 1.25278 9.76648 1.24952 9.69919 1.29254C9.61722 1.34401 9.57911 1.45002 9.51479 1.52723C9.35085 1.72235 9.0621 1.68701 8.84746 1.80705C8.66796 1.90672 8.55278 2.10608 8.38795 2.23168C8.18398 2.38705 7.92844 2.4247 7.7187 2.56835C7.55859 2.67667 7.31477 2.84164 7.21619 3.01756C7.16742 3.10437 7.19189 3.28567 7.06989 3.2995C6.94789 3.31237 6.83184 3.25225 6.76455 3.2995C6.69813 3.34674 6.35677 3.90831 6.38701 4.10344C6.41725 4.29741 6.77136 4.9406 6.92954 4.99438C7.0886 5.04796 7.20378 5.00091 7.28366 5.04796C7.36266 5.09521 7.53919 5.18835 7.5939 5.16166C7.64948 5.13496 7.85049 5.04796 7.93544 5.01473C8.02126 4.98036 8.05149 5.12843 8.07596 4.96115C8.10043 4.79387 8.11302 4.75969 8.19202 4.71244C8.27102 4.66635 8.42326 4.67288 8.43008 4.75969C8.43584 4.84765 8.35684 5.03413 8.35684 5.11556C8.35684 5.19488 8.44861 5.26882 8.48461 5.33643C8.52079 5.40288 8.60661 5.47048 8.48461 5.57015C8.36261 5.67098 8.27679 5.67732 8.25337 5.67732C8.22803 5.67732 8.07579 5.56362 7.98402 5.57015C7.89331 5.57764 7.84454 5.63123 7.79578 5.67732C7.74701 5.72457 7.58796 5.72457 7.55772 5.72457C7.52748 5.72457 7.39866 5.6174 7.30795 5.72457C7.21619 5.83173 7.16743 5.87898 7.23472 5.99901C7.30096 6.1202 7.41125 6.16725 7.37524 6.26059C7.33819 6.35489 7.25237 6.34855 7.17319 6.35489C7.09419 6.36142 6.98495 6.40213 7.02095 6.48145C7.05713 6.56288 7.15466 6.64969 7.28925 6.67005C7.42383 6.68925 7.44726 6.60898 7.52137 6.74303C7.59355 6.87708 7.6736 7.07855 7.6736 7.15249C7.6736 7.22547 7.58184 7.32611 7.56332 7.33897C7.54479 7.35299 7.34379 7.29288 7.30778 7.28539C7.27073 7.27905 7.31355 7.19205 7.19749 7.24583C7.0823 7.29941 7.05696 7.28539 7.05696 7.40658C7.05696 7.52776 7.01501 7.56732 7.08825 7.71425C7.16148 7.86213 7.24625 7.92224 7.28925 8.00271C7.33225 8.08318 7.42384 8.13024 7.38678 8.25795C7.34973 8.38548 7.33207 8.47228 7.19749 8.45193C7.06378 8.43157 6.88725 8.40468 6.83848 8.28465C6.78972 8.16346 6.77119 7.94913 6.72242 7.94913C6.67366 7.94913 6.5576 7.95662 6.5389 8.00271C6.52037 8.04996 6.58189 8.13677 6.46566 8.15059C6.35048 8.16346 6.30171 8.1431 6.25295 8.10988C6.20418 8.07665 6.22166 7.93626 6.05789 8.02941C5.89307 8.12371 5.8686 8.1431 5.83731 8.12371C5.80707 8.10335 5.77683 8.13024 5.72212 8.02941C5.66741 7.92858 5.6246 7.81508 5.57583 7.81508C5.52706 7.81508 5.48407 7.80221 5.45977 7.92877C5.43548 8.05629 5.4783 8.03594 5.45977 8.19035C5.44125 8.34476 5.45977 8.33823 5.35647 8.40468C5.25213 8.47228 5.19742 8.4454 5.11842 8.5322C5.03941 8.61901 5.03347 8.55256 5.00812 8.7402C4.9847 8.92784 4.94765 8.94704 4.89294 8.9674C4.83823 8.98776 4.64317 9.00062 4.60612 9.00062C4.56906 9.00062 4.38659 8.94704 4.36806 9.00062C4.35058 9.05421 4.35635 9.20862 4.28906 9.19575C4.22177 9.18173 4.05782 9.08206 4.02076 8.99429C3.98371 8.90748 3.93494 8.80665 3.96029 8.71984C3.98371 8.63303 4.09976 8.52587 4.19153 8.57196C4.28329 8.6192 4.35635 8.66626 4.39935 8.67279C4.44129 8.67912 4.55735 8.68681 4.60612 8.6192C4.65488 8.55275 4.71536 8.42523 4.71536 8.37165C4.71536 8.31806 4.70942 8.29118 4.68512 8.24412C4.66083 8.19707 4.53288 8.11007 4.58759 8.02326C4.64317 7.93645 4.7407 7.8218 4.70959 7.7757C4.67935 7.72846 4.58759 7.74901 4.58759 7.57424C4.58759 7.40062 4.58759 7.30632 4.67341 7.30632C4.75835 7.30632 4.81971 7.38026 4.84994 7.39313C4.88018 7.40696 5.0333 7.46073 5.0333 7.3674C5.0333 7.2731 5.02648 7.09948 4.99624 7.0459C4.966 6.99232 4.86165 6.89802 4.844 6.89149C4.82547 6.88496 4.73371 6.85711 4.73371 6.7436C4.73371 6.62991 4.70347 6.38869 4.63618 6.38869C4.56889 6.38869 4.53865 6.36833 4.38064 6.44227C4.22159 6.51621 4.31912 6.56346 4.08106 6.56346C3.84405 6.56346 3.77082 6.55597 3.66735 6.55597C3.563 6.55597 3.41653 6.60321 3.398 6.5431C3.38052 6.48203 3.27023 6.43593 3.36182 6.33511C3.45358 6.23428 3.52088 6.18069 3.57558 6.18069C3.63012 6.18069 3.71611 6.1807 3.71611 6.12711C3.71611 6.07353 3.72782 6.06066 3.642 6.00708C3.55705 5.9535 3.51423 5.92027 3.53276 5.79275C3.55128 5.66522 3.65476 5.52483 3.52105 5.55152C3.38646 5.57822 3.2517 5.55786 3.17952 5.67809C3.10541 5.79928 3.06923 5.90644 3.01469 5.98691C2.95911 6.06738 2.98446 6.18838 2.87417 6.06085C2.76388 5.93333 2.72193 5.71247 2.61758 5.75952C2.51411 5.80561 2.48387 5.71996 2.4781 5.84959C2.47129 5.98038 2.51411 6.12077 2.5571 6.16802C2.6001 6.21411 2.6244 6.16802 2.67911 6.28171C2.73382 6.39541 2.7464 6.42864 2.74063 6.46935C2.73382 6.51007 2.65481 6.66333 2.61776 6.65699C2.58158 6.65065 2.52704 6.55616 2.42951 6.58939C2.33198 6.62376 2.28899 6.60341 2.2764 6.68368C2.26469 6.76415 2.21593 6.88515 2.1974 6.99251C2.17887 7.09967 2.08816 7.18648 2.1974 7.22624C2.30769 7.26695 2.32517 7.19301 2.36222 7.29384C2.39927 7.39352 2.42269 7.47495 2.33792 7.53506C2.25298 7.59517 2.22187 7.56195 2.24616 7.66162C2.27046 7.76245 2.39928 7.89631 2.42951 7.91033C2.45975 7.9232 2.52023 7.95009 2.54557 8.0175C2.56899 8.08395 2.60028 8.19764 2.60028 8.26506C2.60028 8.33266 2.71546 8.45903 2.73399 8.47305C2.75252 8.48592 2.77699 8.60057 2.72228 8.65416C2.6667 8.70774 2.54575 8.68738 2.53875 8.78706C2.53299 8.88789 2.54557 9.0423 2.54557 9.08301C2.54557 9.12277 2.59433 9.65879 2.52022 9.71871C2.44804 9.77979 2.33198 9.84624 2.24022 9.90635C2.14846 9.96646 1.99045 10.0479 1.86164 10.1207C1.78351 10.1668 1.65679 10.1946 1.64997 10.3062C1.64403 10.4113 1.70468 10.525 1.79347 10.5657C1.81689 10.5774 1.84328 10.5839 1.8667 10.5968C1.9097 10.6204 1.94274 10.6665 1.95357 10.7189C1.96231 10.7587 1.95654 10.8048 1.92928 10.8336C1.91267 10.8507 1.8903 10.8593 1.87265 10.8743C1.84835 10.8925 1.83175 10.9215 1.80815 10.9408C1.72723 11.0126 1.59648 10.9632 1.51066 11.0276C1.45403 11.0694 1.42082 11.1584 1.35266 11.1649C1.27558 11.1724 1.21021 11.0662 1.13697 11.0942C1.10866 11.105 1.09206 11.1317 1.08332 11.1649C1.07737 11.1874 1.07545 11.2121 1.07737 11.2346C1.08524 11.3567 1.15148 11.4716 1.24919 11.5306C1.28817 11.5551 1.33204 11.5701 1.36822 11.6003C1.40422 11.6302 1.43061 11.6829 1.41593 11.7289C1.41593 11.7289 1.42956 11.8298 1.34951 11.9037C1.27051 11.9777 1.2158 11.9573 1.21003 12.0773C1.20322 12.1985 1.22175 12.2917 1.17298 12.3324C1.12422 12.3721 1.15445 12.3656 0.996446 12.3721C0.83844 12.3785 0.801383 12.3593 0.733916 12.4664C0.666624 12.5736 0.611918 12.6541 0.563152 12.6604C0.514387 12.6669 0.422625 12.5532 0.441152 12.6936C0.45968 12.8352 0.453911 12.8277 0.532914 12.8651C0.611917 12.9016 0.69197 12.908 0.709449 12.9016C0.727976 12.8953 0.746502 12.8148 0.80121 12.8651C0.855918 12.9145 0.947506 12.922 0.953449 13.0023C0.959391 13.0827 0.953447 13.1492 0.892972 13.163C0.831447 13.1759 0.782682 13.149 0.697911 13.163C0.612092 13.1759 0.473486 13.1298 0.439403 13.1663C0.40532 13.2028 0.343796 13.2971 0.386793 13.4503C0.42979 13.6047 0.497082 13.6455 0.551615 13.7655C0.606148 13.8867 0.636564 13.8867 0.563328 14.0004C0.490093 14.1141 0.465799 14.1279 0.448145 14.2748C0.443251 14.3102 0.434508 14.3305 0.425769 14.3455C0.492188 14.3455 0.599511 14.3488 0.666803 14.3488C0.764334 14.3488 0.795616 14.3551 0.868851 14.3359C0.942086 14.3155 0.978095 14.2084 1.00256 14.1471C1.02686 14.087 1.20356 14.1075 1.22209 14.1471C1.24062 14.1878 1.25915 14.2414 1.3441 14.2886C1.42992 14.3359 1.44162 14.4966 1.42117 14.5299C1.39968 14.5631 1.43586 14.7175 1.42415 14.8043C1.41139 14.8911 1.44162 14.9651 1.49039 15.039C1.53828 15.1097 1.63179 15.1698 1.76166 15.2652C1.76463 15.2673 1.76847 15.2706 1.77144 15.2727C1.90515 15.3736 1.89345 15.3467 1.99098 15.3467H2.39298C2.52757 15.3467 2.56952 15.441 2.60657 15.4679C2.64363 15.4947 2.68557 15.6351 2.7041 15.6951C2.72263 15.7552 2.78992 15.8226 2.83869 15.8698C2.88745 15.9159 3.33823 16.0039 3.33823 16.0039C3.33823 16.0039 3.47875 16.0308 3.58799 16.0467C3.69828 16.0628 3.91781 16.0575 4.07005 16.0467C4.22229 16.0359 4.87494 16.1443 5.02718 16.1583C5.18029 16.1712 5.16771 16.2119 5.20371 16.2516C5.24077 16.2914 5.271 16.406 5.271 16.48C5.271 16.553 5.24077 16.5797 5.21629 16.6129C5.19182 16.6473 5.13135 16.7137 5.13135 16.7876C5.13135 16.8616 5.34406 16.9013 5.52165 16.9549C5.69818 17.0085 5.75866 16.9549 5.97819 16.8885C6.19772 16.8209 6.107 16.761 6.14301 16.7074C6.17919 16.6538 6.28353 16.6805 6.36254 16.6667C6.44154 16.6538 6.4903 16.5735 6.47859 16.4994C6.46583 16.4264 6.46007 16.3054 6.47859 16.2315C6.49712 16.1585 6.63083 16.1842 6.69813 16.1114C6.76455 16.0375 6.82589 15.8091 6.82589 15.7759C6.82589 15.7427 6.83865 15.5754 6.86889 15.508C6.89913 15.4415 7.02113 15.4951 7.03966 15.4951C7.05714 15.4951 7.24066 15.4083 7.30114 15.3204C7.36266 15.2335 7.41143 15.2335 7.47872 15.227C7.54514 15.2195 7.67378 15.2731 7.78896 15.2871C7.90502 15.301 7.89331 15.2806 8.00255 15.227C8.11284 15.1734 8.1069 15.1594 8.24655 15.1262C8.38708 15.093 8.46014 15.1529 8.55767 15.2001C8.6552 15.2474 8.62496 15.3342 8.66114 15.4006C8.6982 15.4682 8.7772 15.4874 8.81338 15.5614C8.85043 15.6353 8.75867 15.749 8.75867 15.749C8.75867 15.749 8.61238 15.749 8.53914 15.7095C8.46591 15.6687 8.43567 15.6762 8.37432 15.6762C8.31384 15.6762 8.31961 15.7223 8.30213 15.8627C8.28361 16.0043 8.44161 16.0847 8.49719 16.1051C8.5519 16.1245 8.93625 16.2048 9.13131 16.2048C9.32638 16.2048 9.41132 16.2048 9.49627 16.1715C9.58209 16.1383 9.71003 16.1448 9.86314 16.0976C10.0154 16.0515 10.0271 15.8704 10.0329 15.8297C10.0397 15.7901 10.1792 15.7225 10.265 15.6486C10.3508 15.5756 10.503 15.5017 10.5635 15.4621C10.625 15.4214 10.6796 15.5758 10.6796 15.6422C10.6796 15.7098 10.704 15.7763 10.7528 15.8502C10.8016 15.9242 10.8991 15.7698 10.9781 15.7634C11.0571 15.7559 11.1127 15.8439 11.1732 15.8975C11.2347 15.9511 11.3077 15.9843 11.4727 16.0175C11.6367 16.0507 11.7342 16.0315 11.8143 16.0175C11.8933 16.0035 11.942 15.8835 11.942 15.7838C11.942 15.683 11.9723 15.6155 11.9908 15.5952C12.0093 15.576 12.2463 15.6027 12.3323 15.6027C12.4173 15.6027 12.4972 15.562 12.5576 15.5222C12.6181 15.4815 12.6181 15.4279 12.6181 15.3615C12.6181 15.2939 12.7099 15.2735 12.7586 15.2478C12.8074 15.2199 12.8562 15.3142 12.8992 15.3956C12.9422 15.4771 12.9596 15.4214 13.0942 15.401C13.2288 15.3807 13.2952 15.4214 13.3655 15.4342C13.4358 15.4483 13.3655 15.6144 13.3655 15.6144C13.4192 15.6766 13.4592 15.7527 13.5207 15.8051C13.5822 15.8566 13.6798 15.8727 13.7315 15.8093C13.75 15.7869 13.7598 15.7569 13.7745 15.7312C13.8096 15.668 13.872 15.624 13.9393 15.6186C14.0057 15.6132 14.075 15.6444 14.1178 15.7C14.145 15.7365 14.1627 15.7826 14.1938 15.8159C14.2553 15.8835 14.3675 15.8823 14.428 15.8137C14.4417 15.7988 14.4534 15.7805 14.47 15.7698C14.4895 15.759 14.5119 15.759 14.5334 15.7602C14.5792 15.7613 14.626 15.7634 14.672 15.7644C14.6886 15.7655 14.7061 15.7655 14.7218 15.759C14.7414 15.7494 14.755 15.7312 14.7695 15.7141C14.8613 15.6025 15.0027 15.5414 15.1403 15.5554C15.1724 15.5587 15.2067 15.5662 15.2301 15.5908C15.2535 15.6144 15.2633 15.6486 15.278 15.6787C15.3004 15.7206 15.3346 15.7548 15.3755 15.773C15.3998 15.7847 15.4283 15.7913 15.4458 15.8149C15.4692 15.8481 15.4575 15.8954 15.4526 15.9382C15.4428 16.0133 15.4594 16.0926 15.4965 16.1558C15.5091 16.1783 15.5258 16.1998 15.5472 16.2126C15.5646 16.2222 15.5842 16.2267 15.6027 16.2309C15.6671 16.2438 15.7188 16.2545 15.7812 16.2449C15.8408 16.2353 15.9011 16.2461 15.9577 16.2631C16.0553 16.2931 16.147 16.3542 16.2124 16.4391C16.2222 16.4348 16.2309 16.4295 16.2407 16.425C16.2503 16.4168 16.261 16.4114 16.2708 16.406Z"/>
</mask>
<path d="M16.2708 16.406V16.4049C16.298 16.3331 16.3187 16.2762 16.3187 16.2762C16.3187 16.2762 16.4407 16.0553 16.3987 15.841C16.3557 15.6267 16.2699 15.439 16.2827 15.3319C16.2944 15.2247 16.2884 15.0907 16.3987 15.1571C16.508 15.2247 16.5567 15.3426 16.6114 15.1389C16.6661 14.9362 16.6544 14.8354 16.6485 14.7755C16.6425 14.7154 16.6055 14.6082 16.6357 14.487C16.666 14.367 16.6973 14.1794 16.7703 14.1794C16.8436 14.1794 16.9956 14.3263 17.0563 14.1794C17.1178 14.0315 17.0563 13.9381 17.1538 13.817C17.2513 13.6969 17.3431 13.7568 17.3676 13.6368C17.3919 13.5156 17.3618 13.4019 17.3618 13.3409C17.3618 13.2807 17.3676 13.1672 17.4233 13.1544C17.478 13.1403 17.5326 13.2005 17.6116 13.208C17.6906 13.2143 17.8369 13.0868 17.8369 13.0868C17.8369 13.0868 17.8622 12.9656 17.9227 13.0868C17.9832 13.208 18.0877 13.2475 18.1725 13.1137C18.2583 12.9796 18.2759 12.8724 18.4222 12.7856C18.5685 12.6977 18.587 12.5112 18.6486 12.4908C18.709 12.4705 18.7763 12.524 18.8193 12.4436C18.8613 12.3631 18.874 12.2024 18.8681 12.1284C18.8613 12.0545 18.7949 11.988 18.9041 11.9344C19.0144 11.8809 19.1364 11.8937 19.1666 11.8069C19.1969 11.7201 19.1364 11.5465 19.1364 11.4929C19.1364 11.4393 19.0632 11.258 19.2282 11.2646C19.3921 11.2711 19.6975 11.2711 19.716 11.1841C19.7335 11.0973 19.673 11.0566 19.7092 10.9826C19.7462 10.9096 19.8195 10.8153 19.8009 10.7683C19.7824 10.7222 19.6672 10.6214 19.5872 10.601C19.5082 10.5816 19.3129 10.5474 19.2946 10.5002C19.2771 10.4541 19.2399 10.0585 19.1423 10.0992C19.0448 10.1389 18.9716 10.2524 18.9287 10.2192C18.8868 10.186 18.8195 10.0992 18.795 10.0959C18.7706 10.0917 18.5755 10.1988 18.5755 10.1988C18.5755 10.1988 18.6057 10.2793 18.4837 10.2063C18.3617 10.1324 18.3189 9.96397 18.3374 9.89752C18.356 9.83106 18.4837 9.83107 18.5325 9.70354C18.5813 9.57602 18.6788 9.61673 18.5998 9.46232C18.5197 9.30791 18.429 9.12027 18.429 9.06035C18.429 8.99928 18.587 8.90594 18.6115 8.9263C18.6358 8.94551 18.6916 9.04633 18.6973 9.11394C18.7031 9.18039 18.6788 9.27468 18.7638 9.29504C18.8496 9.31444 18.953 9.2672 18.9901 9.23397C19.0261 9.20075 18.9656 9.13429 19.1053 9.13429C19.2458 9.13429 19.3073 9.16003 19.3433 9.22763C19.3804 9.29524 19.5814 9.32097 19.6302 9.31444C19.6789 9.30791 19.7882 9.18039 19.8371 9.20074C19.8859 9.2211 19.6908 9.34114 20.0264 9.35516C20.362 9.36802 20.5758 9.24799 20.5758 9.24799C20.5758 9.24799 20.6986 9.30157 20.8294 9.19441C20.9591 9.08724 21.1728 8.87925 21.1728 8.87925C21.1728 8.87925 21.2314 8.84698 21.285 8.83411C21.284 8.82125 21.2821 8.80953 21.2812 8.79878C21.2646 8.66914 21.1992 8.62401 21.1504 8.51684C21.1017 8.40967 21.0821 8.36992 21.0978 8.26275C21.1144 8.15559 21.1711 8.14157 21.1877 8.02153C21.2043 7.9015 21.1144 7.75362 20.9965 7.58422C20.8785 7.41368 21.0082 7.29365 21.1262 7.23584C21.2441 7.17688 21.2198 7.15114 21.2237 7.0653C21.2286 6.9806 21.1387 6.89168 21.0451 6.81121C20.9514 6.73074 20.9154 6.82945 20.8821 6.86057C20.85 6.89168 20.6918 6.88745 20.61 6.86921C20.5291 6.85096 20.5251 6.81985 20.4316 6.81985C20.3379 6.81985 20.3213 6.94104 20.2276 6.97637C20.1349 7.01171 20.0042 6.90455 19.9437 6.79316C19.8822 6.68177 19.8334 6.56154 19.7847 6.50796C19.7359 6.45437 19.57 6.4319 19.4804 6.4319C19.3905 6.4319 19.2608 6.41807 19.1544 6.35585C19.049 6.29362 19.1105 6.13287 19.1018 6.01591C19.0939 5.9001 18.9193 5.91297 18.895 5.88186C18.8707 5.85075 18.7975 5.81541 18.6833 5.80581C18.5703 5.79735 18.5126 5.8058 18.4678 5.78871C18.4229 5.77047 18.4074 5.72111 18.4035 5.6633C18.3997 5.60549 18.3665 5.47144 18.3254 5.40806C18.2854 5.34584 18.2238 5.41344 18.1712 5.44878C18.1186 5.48412 18.1186 5.57419 17.9479 5.63641C17.7771 5.69864 17.8463 5.64064 17.7937 5.62777C17.7411 5.61375 17.6913 5.50659 17.5986 5.52061C17.5049 5.53347 17.4962 5.62777 17.464 5.69864C17.4319 5.77047 17.4768 5.86918 17.464 5.93563C17.4523 6.00324 17.4319 6.06104 17.3753 6.1104C17.3177 6.15861 17.1957 6.11463 16.9888 6.10503C16.781 6.09638 16.5859 6.07929 16.5576 6.03435C16.5293 5.98941 16.541 6.00766 16.541 5.94005C16.541 5.8736 16.5819 5.82866 16.663 5.73532C16.745 5.64102 16.7411 5.61855 16.7411 5.55633C16.7411 5.4941 16.7284 5.44474 16.6875 5.38694C16.6474 5.32913 16.5372 5.39558 16.4971 5.42669C16.4562 5.4578 16.3996 5.52099 16.3547 5.57899C16.3098 5.6368 16.3176 5.62835 16.2689 5.65504C16.2201 5.68174 16.1264 5.7044 16.0289 5.73014C15.9313 5.75798 15.8426 5.7891 15.7527 5.80619C15.663 5.82443 15.5743 5.81579 15.4239 5.73551C15.2728 5.65504 15.3986 5.65946 15.4806 5.57899C15.5615 5.49852 15.5332 5.36466 15.501 5.32913C15.4678 5.29264 15.3907 5.29264 15.3098 5.22196C15.2289 5.15013 15.3098 5.12766 15.3547 5.04719C15.3986 4.96672 15.2776 4.80175 15.2367 4.77909C15.1958 4.75642 15.0826 4.82844 15.0085 4.89067C14.9363 4.95385 14.9363 4.96672 14.8826 5.01608C14.83 5.06544 14.8056 5.03855 14.6925 5.04277C14.5783 5.04719 14.5579 5.14034 14.5296 5.14034C14.5013 5.14034 14.4154 5.18528 14.2934 5.29686C14.1714 5.40845 14.2934 5.38271 14.2934 5.45338C14.2934 5.52521 14.233 5.56478 14.1753 5.58302C14.1186 5.60127 14.0622 5.61413 14.0045 5.60991C13.9479 5.60568 13.8299 5.53808 13.789 5.50274C13.749 5.46741 13.7002 5.49852 13.6027 5.55633C13.5051 5.61414 13.5011 5.58302 13.387 5.5788C13.2729 5.57457 13.3012 5.52521 13.3012 5.49833C13.3012 5.47144 13.387 5.41786 13.4436 5.36427C13.5011 5.31069 13.5011 5.29244 13.4962 5.20352C13.4924 5.1146 13.4113 5.20352 13.3342 5.21217C13.2571 5.22081 13.1994 5.20352 13.143 5.16281C13.0864 5.12324 13.1021 5.01589 13.0533 4.96672C13.0046 4.91736 12.9518 4.96672 12.8095 5.04277C12.6681 5.11883 12.8504 5.32375 12.8583 5.4265C12.867 5.52944 12.8095 5.50255 12.7286 5.50255C12.6476 5.50255 12.631 5.44033 12.5959 5.39961C12.5608 5.36005 12.3023 5.35467 12.2282 5.3418C12.156 5.32894 12.0495 5.25711 12.0048 5.19392C11.9609 5.13169 11.9803 5.09213 11.9843 5.02031C11.9892 4.94848 12.0625 4.93138 12.1472 4.86801C12.2331 4.80578 12.1998 4.64926 12.1794 4.53345C12.1598 4.41764 12.0135 4.40803 11.912 4.43473C11.8096 4.46162 11.7978 4.52903 11.7608 4.58703C11.7248 4.64484 11.7042 4.68997 11.6682 4.74355C11.6311 4.79714 11.55 4.83248 11.517 4.82403C11.4848 4.81442 11.3794 4.76506 11.3102 4.76506C11.241 4.76506 11.0907 4.90872 11.0214 5.00206C10.9522 5.09636 11.0947 5.1897 11.1317 5.23905C11.1677 5.28841 11.2205 5.46741 11.2205 5.52963C11.2205 5.59186 11.3591 5.70862 11.3591 5.72572C11.3591 5.74396 11.2733 5.90471 11.282 5.95407C11.2897 6.00343 11.3951 6.13307 11.4645 6.2264C11.5337 6.31974 11.5991 6.3378 11.6636 6.40982C11.729 6.48049 11.6919 6.55232 11.6764 6.62856C11.6598 6.70462 11.611 6.82043 11.611 6.95871C11.611 7.09699 11.6276 7.11945 11.6636 7.13347C11.7007 7.14634 11.7856 7.07989 11.9202 7.06165C12.0539 7.04455 12.0099 7.11101 12.0333 7.20953C12.0586 7.30709 12.0216 7.34781 11.9971 7.42386C11.9726 7.49991 12.0459 7.51278 12.0625 7.5268C12.078 7.53967 12.1796 7.55791 12.2332 7.58461C12.2858 7.6115 12.2577 7.74113 12.2488 7.80759C12.2409 7.87404 12.0137 8.10661 11.9843 8.14214C11.956 8.17863 11.8468 8.16461 11.7365 8.18286C11.6273 8.2011 11.5902 8.17863 11.5014 8.09394C11.4116 8.00924 11.3668 7.97275 11.3181 7.90207C11.2693 7.83025 11.1922 7.74133 11.1718 7.71348C11.1513 7.68774 11.0459 7.75861 11.0255 7.82064C11.005 7.88383 10.9367 7.89247 10.8264 7.95566C10.7161 8.01788 10.7367 7.94606 10.6967 7.87423C10.6556 7.80355 10.6801 7.68237 10.6635 7.59767C10.6479 7.51297 10.5093 7.47322 10.4684 7.38756C10.4284 7.30287 10.4812 7.31247 10.5417 7.1957C10.6032 7.07989 10.57 7.03053 10.566 6.9685C10.5621 6.90531 10.5055 6.7895 10.4878 6.74437C10.4703 6.70039 10.3873 6.59745 10.3307 6.52562C10.2732 6.45495 10.2975 6.31974 10.3629 6.24907C10.4282 6.17724 10.6028 6.07968 10.6478 6.01207C10.6927 5.94447 10.6927 5.85555 10.6799 5.82443C10.6672 5.79332 10.7121 5.69902 10.7853 5.65082C10.8585 5.60146 10.8468 5.44935 10.8262 5.37311C10.8058 5.29705 10.7453 5.26172 10.6761 5.09655C10.6069 4.93138 10.6556 4.91755 10.6799 4.8682C10.7044 4.81884 10.757 4.65809 10.8096 4.53806C10.8622 4.41802 10.9687 4.40842 11.0417 4.37289C11.115 4.3364 11.2408 4.35464 11.395 4.34619C11.5502 4.33659 11.6877 4.28839 11.8379 4.18545C11.9891 4.0825 11.794 4.09115 11.7363 4.00203C11.6797 3.91311 11.6631 3.81017 11.7695 3.73412C11.8749 3.65787 11.9032 3.66767 11.9403 3.60006C11.9763 3.53246 11.9646 3.32351 12.07 3.18945C12.1754 3.0554 12.2046 3.04157 12.2486 2.92576C12.2935 2.8088 12.2124 2.80996 12.1881 2.71566C12.1637 2.62136 12.2407 2.61271 12.3218 2.50555C12.4038 2.39838 12.558 2.18405 12.5863 2.15294C12.6146 2.12182 12.5746 1.94283 12.5501 1.83989C12.5258 1.7381 12.4603 1.74655 12.3745 1.67914C12.2895 1.61269 12.2895 1.51839 12.3023 1.41641C12.314 1.31347 12.314 1.21053 12.2691 1.18383C12.2241 1.15714 12.1023 1.19248 12.0418 1.18383C11.9803 1.17423 11.8789 1.0542 11.7042 0.906124C11.5295 0.759203 11.4495 1.00695 11.4495 1.00695C11.3324 1.07129 11.1821 1.05516 11.0796 0.967389C10.9917 0.892296 10.9313 0.766883 10.8231 0.7423C10.7304 0.720982 10.6397 0.782056 10.546 0.793771C10.5226 0.795884 10.4973 0.795883 10.4768 0.782055C10.4466 0.760737 10.4387 0.717717 10.4436 0.677002C10.4338 0.69736 10.4232 0.718871 10.4123 0.739228C10.3001 0.958938 10.147 1.18422 9.92257 1.23569C9.84741 1.25278 9.76648 1.24952 9.69919 1.29254C9.61722 1.34401 9.57911 1.45002 9.51479 1.52723C9.35085 1.72235 9.0621 1.68701 8.84746 1.80705C8.66796 1.90672 8.55278 2.10608 8.38795 2.23168C8.18398 2.38705 7.92844 2.4247 7.7187 2.56835C7.55859 2.67667 7.31477 2.84164 7.21619 3.01756C7.16742 3.10437 7.19189 3.28567 7.06989 3.2995C6.94789 3.31237 6.83184 3.25225 6.76455 3.2995C6.69813 3.34674 6.35677 3.90831 6.38701 4.10344C6.41725 4.29741 6.77136 4.9406 6.92954 4.99438C7.0886 5.04796 7.20378 5.00091 7.28366 5.04796C7.36266 5.09521 7.53919 5.18835 7.5939 5.16166C7.64948 5.13496 7.85049 5.04796 7.93544 5.01473C8.02126 4.98036 8.05149 5.12843 8.07596 4.96115C8.10043 4.79387 8.11302 4.75969 8.19202 4.71244C8.27102 4.66635 8.42326 4.67288 8.43008 4.75969C8.43584 4.84765 8.35684 5.03413 8.35684 5.11556C8.35684 5.19488 8.44861 5.26882 8.48461 5.33643C8.52079 5.40288 8.60661 5.47048 8.48461 5.57015C8.36261 5.67098 8.27679 5.67732 8.25337 5.67732C8.22803 5.67732 8.07579 5.56362 7.98402 5.57015C7.89331 5.57764 7.84454 5.63123 7.79578 5.67732C7.74701 5.72457 7.58796 5.72457 7.55772 5.72457C7.52748 5.72457 7.39866 5.6174 7.30795 5.72457C7.21619 5.83173 7.16743 5.87898 7.23472 5.99901C7.30096 6.1202 7.41125 6.16725 7.37524 6.26059C7.33819 6.35489 7.25237 6.34855 7.17319 6.35489C7.09419 6.36142 6.98495 6.40213 7.02095 6.48145C7.05713 6.56288 7.15466 6.64969 7.28925 6.67005C7.42383 6.68925 7.44726 6.60898 7.52137 6.74303C7.59355 6.87708 7.6736 7.07855 7.6736 7.15249C7.6736 7.22547 7.58184 7.32611 7.56332 7.33897C7.54479 7.35299 7.34379 7.29288 7.30778 7.28539C7.27073 7.27905 7.31355 7.19205 7.19749 7.24583C7.0823 7.29941 7.05696 7.28539 7.05696 7.40658C7.05696 7.52776 7.01501 7.56732 7.08825 7.71425C7.16148 7.86213 7.24625 7.92224 7.28925 8.00271C7.33225 8.08318 7.42384 8.13024 7.38678 8.25795C7.34973 8.38548 7.33207 8.47228 7.19749 8.45193C7.06378 8.43157 6.88725 8.40468 6.83848 8.28465C6.78972 8.16346 6.77119 7.94913 6.72242 7.94913C6.67366 7.94913 6.5576 7.95662 6.5389 8.00271C6.52037 8.04996 6.58189 8.13677 6.46566 8.15059C6.35048 8.16346 6.30171 8.1431 6.25295 8.10988C6.20418 8.07665 6.22166 7.93626 6.05789 8.02941C5.89307 8.12371 5.8686 8.1431 5.83731 8.12371C5.80707 8.10335 5.77683 8.13024 5.72212 8.02941C5.66741 7.92858 5.6246 7.81508 5.57583 7.81508C5.52706 7.81508 5.48407 7.80221 5.45977 7.92877C5.43548 8.05629 5.4783 8.03594 5.45977 8.19035C5.44125 8.34476 5.45977 8.33823 5.35647 8.40468C5.25213 8.47228 5.19742 8.4454 5.11842 8.5322C5.03941 8.61901 5.03347 8.55256 5.00812 8.7402C4.9847 8.92784 4.94765 8.94704 4.89294 8.9674C4.83823 8.98776 4.64317 9.00062 4.60612 9.00062C4.56906 9.00062 4.38659 8.94704 4.36806 9.00062C4.35058 9.05421 4.35635 9.20862 4.28906 9.19575C4.22177 9.18173 4.05782 9.08206 4.02076 8.99429C3.98371 8.90748 3.93494 8.80665 3.96029 8.71984C3.98371 8.63303 4.09976 8.52587 4.19153 8.57196C4.28329 8.6192 4.35635 8.66626 4.39935 8.67279C4.44129 8.67912 4.55735 8.68681 4.60612 8.6192C4.65488 8.55275 4.71536 8.42523 4.71536 8.37165C4.71536 8.31806 4.70942 8.29118 4.68512 8.24412C4.66083 8.19707 4.53288 8.11007 4.58759 8.02326C4.64317 7.93645 4.7407 7.8218 4.70959 7.7757C4.67935 7.72846 4.58759 7.74901 4.58759 7.57424C4.58759 7.40062 4.58759 7.30632 4.67341 7.30632C4.75835 7.30632 4.81971 7.38026 4.84994 7.39313C4.88018 7.40696 5.0333 7.46073 5.0333 7.3674C5.0333 7.2731 5.02648 7.09948 4.99624 7.0459C4.966 6.99232 4.86165 6.89802 4.844 6.89149C4.82547 6.88496 4.73371 6.85711 4.73371 6.7436C4.73371 6.62991 4.70347 6.38869 4.63618 6.38869C4.56889 6.38869 4.53865 6.36833 4.38064 6.44227C4.22159 6.51621 4.31912 6.56346 4.08106 6.56346C3.84405 6.56346 3.77082 6.55597 3.66735 6.55597C3.563 6.55597 3.41653 6.60321 3.398 6.5431C3.38052 6.48203 3.27023 6.43593 3.36182 6.33511C3.45358 6.23428 3.52088 6.18069 3.57558 6.18069C3.63012 6.18069 3.71611 6.1807 3.71611 6.12711C3.71611 6.07353 3.72782 6.06066 3.642 6.00708C3.55705 5.9535 3.51423 5.92027 3.53276 5.79275C3.55128 5.66522 3.65476 5.52483 3.52105 5.55152C3.38646 5.57822 3.2517 5.55786 3.17952 5.67809C3.10541 5.79928 3.06923 5.90644 3.01469 5.98691C2.95911 6.06738 2.98446 6.18838 2.87417 6.06085C2.76388 5.93333 2.72193 5.71247 2.61758 5.75952C2.51411 5.80561 2.48387 5.71996 2.4781 5.84959C2.47129 5.98038 2.51411 6.12077 2.5571 6.16802C2.6001 6.21411 2.6244 6.16802 2.67911 6.28171C2.73382 6.39541 2.7464 6.42864 2.74063 6.46935C2.73382 6.51007 2.65481 6.66333 2.61776 6.65699C2.58158 6.65065 2.52704 6.55616 2.42951 6.58939C2.33198 6.62376 2.28899 6.60341 2.2764 6.68368C2.26469 6.76415 2.21593 6.88515 2.1974 6.99251C2.17887 7.09967 2.08816 7.18648 2.1974 7.22624C2.30769 7.26695 2.32517 7.19301 2.36222 7.29384C2.39927 7.39352 2.42269 7.47495 2.33792 7.53506C2.25298 7.59517 2.22187 7.56195 2.24616 7.66162C2.27046 7.76245 2.39928 7.89631 2.42951 7.91033C2.45975 7.9232 2.52023 7.95009 2.54557 8.0175C2.56899 8.08395 2.60028 8.19764 2.60028 8.26506C2.60028 8.33266 2.71546 8.45903 2.73399 8.47305C2.75252 8.48592 2.77699 8.60057 2.72228 8.65416C2.6667 8.70774 2.54575 8.68738 2.53875 8.78706C2.53299 8.88789 2.54557 9.0423 2.54557 9.08301C2.54557 9.12277 2.59433 9.65879 2.52022 9.71871C2.44804 9.77979 2.33198 9.84624 2.24022 9.90635C2.14846 9.96646 1.99045 10.0479 1.86164 10.1207C1.78351 10.1668 1.65679 10.1946 1.64997 10.3062C1.64403 10.4113 1.70468 10.525 1.79347 10.5657C1.81689 10.5774 1.84328 10.5839 1.8667 10.5968C1.9097 10.6204 1.94274 10.6665 1.95357 10.7189C1.96231 10.7587 1.95654 10.8048 1.92928 10.8336C1.91267 10.8507 1.8903 10.8593 1.87265 10.8743C1.84835 10.8925 1.83175 10.9215 1.80815 10.9408C1.72723 11.0126 1.59648 10.9632 1.51066 11.0276C1.45403 11.0694 1.42082 11.1584 1.35266 11.1649C1.27558 11.1724 1.21021 11.0662 1.13697 11.0942C1.10866 11.105 1.09206 11.1317 1.08332 11.1649C1.07737 11.1874 1.07545 11.2121 1.07737 11.2346C1.08524 11.3567 1.15148 11.4716 1.24919 11.5306C1.28817 11.5551 1.33204 11.5701 1.36822 11.6003C1.40422 11.6302 1.43061 11.6829 1.41593 11.7289C1.41593 11.7289 1.42956 11.8298 1.34951 11.9037C1.27051 11.9777 1.2158 11.9573 1.21003 12.0773C1.20322 12.1985 1.22175 12.2917 1.17298 12.3324C1.12422 12.3721 1.15445 12.3656 0.996446 12.3721C0.83844 12.3785 0.801383 12.3593 0.733916 12.4664C0.666624 12.5736 0.611918 12.6541 0.563152 12.6604C0.514387 12.6669 0.422625 12.5532 0.441152 12.6936C0.45968 12.8352 0.453911 12.8277 0.532914 12.8651C0.611917 12.9016 0.69197 12.908 0.709449 12.9016C0.727976 12.8953 0.746502 12.8148 0.80121 12.8651C0.855918 12.9145 0.947506 12.922 0.953449 13.0023C0.959391 13.0827 0.953447 13.1492 0.892972 13.163C0.831447 13.1759 0.782682 13.149 0.697911 13.163C0.612092 13.1759 0.473486 13.1298 0.439403 13.1663C0.40532 13.2028 0.343796 13.2971 0.386793 13.4503C0.42979 13.6047 0.497082 13.6455 0.551615 13.7655C0.606148 13.8867 0.636564 13.8867 0.563328 14.0004C0.490093 14.1141 0.465799 14.1279 0.448145 14.2748C0.443251 14.3102 0.434508 14.3305 0.425769 14.3455C0.492188 14.3455 0.599511 14.3488 0.666803 14.3488C0.764334 14.3488 0.795616 14.3551 0.868851 14.3359C0.942086 14.3155 0.978095 14.2084 1.00256 14.1471C1.02686 14.087 1.20356 14.1075 1.22209 14.1471C1.24062 14.1878 1.25915 14.2414 1.3441 14.2886C1.42992 14.3359 1.44162 14.4966 1.42117 14.5299C1.39968 14.5631 1.43586 14.7175 1.42415 14.8043C1.41139 14.8911 1.44162 14.9651 1.49039 15.039C1.53828 15.1097 1.63179 15.1698 1.76166 15.2652C1.76463 15.2673 1.76847 15.2706 1.77144 15.2727C1.90515 15.3736 1.89345 15.3467 1.99098 15.3467H2.39298C2.52757 15.3467 2.56952 15.441 2.60657 15.4679C2.64363 15.4947 2.68557 15.6351 2.7041 15.6951C2.72263 15.7552 2.78992 15.8226 2.83869 15.8698C2.88745 15.9159 3.33823 16.0039 3.33823 16.0039C3.33823 16.0039 3.47875 16.0308 3.58799 16.0467C3.69828 16.0628 3.91781 16.0575 4.07005 16.0467C4.22229 16.0359 4.87494 16.1443 5.02718 16.1583C5.18029 16.1712 5.16771 16.2119 5.20371 16.2516C5.24077 16.2914 5.271 16.406 5.271 16.48C5.271 16.553 5.24077 16.5797 5.21629 16.6129C5.19182 16.6473 5.13135 16.7137 5.13135 16.7876C5.13135 16.8616 5.34406 16.9013 5.52165 16.9549C5.69818 17.0085 5.75866 16.9549 5.97819 16.8885C6.19772 16.8209 6.107 16.761 6.14301 16.7074C6.17919 16.6538 6.28353 16.6805 6.36254 16.6667C6.44154 16.6538 6.4903 16.5735 6.47859 16.4994C6.46583 16.4264 6.46007 16.3054 6.47859 16.2315C6.49712 16.1585 6.63083 16.1842 6.69813 16.1114C6.76455 16.0375 6.82589 15.8091 6.82589 15.7759C6.82589 15.7427 6.83865 15.5754 6.86889 15.508C6.89913 15.4415 7.02113 15.4951 7.03966 15.4951C7.05714 15.4951 7.24066 15.4083 7.30114 15.3204C7.36266 15.2335 7.41143 15.2335 7.47872 15.227C7.54514 15.2195 7.67378 15.2731 7.78896 15.2871C7.90502 15.301 7.89331 15.2806 8.00255 15.227C8.11284 15.1734 8.1069 15.1594 8.24655 15.1262C8.38708 15.093 8.46014 15.1529 8.55767 15.2001C8.6552 15.2474 8.62496 15.3342 8.66114 15.4006C8.6982 15.4682 8.7772 15.4874 8.81338 15.5614C8.85043 15.6353 8.75867 15.749 8.75867 15.749C8.75867 15.749 8.61238 15.749 8.53914 15.7095C8.46591 15.6687 8.43567 15.6762 8.37432 15.6762C8.31384 15.6762 8.31961 15.7223 8.30213 15.8627C8.28361 16.0043 8.44161 16.0847 8.49719 16.1051C8.5519 16.1245 8.93625 16.2048 9.13131 16.2048C9.32638 16.2048 9.41132 16.2048 9.49627 16.1715C9.58209 16.1383 9.71003 16.1448 9.86314 16.0976C10.0154 16.0515 10.0271 15.8704 10.0329 15.8297C10.0397 15.7901 10.1792 15.7225 10.265 15.6486C10.3508 15.5756 10.503 15.5017 10.5635 15.4621C10.625 15.4214 10.6796 15.5758 10.6796 15.6422C10.6796 15.7098 10.704 15.7763 10.7528 15.8502C10.8016 15.9242 10.8991 15.7698 10.9781 15.7634C11.0571 15.7559 11.1127 15.8439 11.1732 15.8975C11.2347 15.9511 11.3077 15.9843 11.4727 16.0175C11.6367 16.0507 11.7342 16.0315 11.8143 16.0175C11.8933 16.0035 11.942 15.8835 11.942 15.7838C11.942 15.683 11.9723 15.6155 11.9908 15.5952C12.0093 15.576 12.2463 15.6027 12.3323 15.6027C12.4173 15.6027 12.4972 15.562 12.5576 15.5222C12.6181 15.4815 12.6181 15.4279 12.6181 15.3615C12.6181 15.2939 12.7099 15.2735 12.7586 15.2478C12.8074 15.2199 12.8562 15.3142 12.8992 15.3956C12.9422 15.4771 12.9596 15.4214 13.0942 15.401C13.2288 15.3807 13.2952 15.4214 13.3655 15.4342C13.4358 15.4483 13.3655 15.6144 13.3655 15.6144C13.4192 15.6766 13.4592 15.7527 13.5207 15.8051C13.5822 15.8566 13.6798 15.8727 13.7315 15.8093C13.75 15.7869 13.7598 15.7569 13.7745 15.7312C13.8096 15.668 13.872 15.624 13.9393 15.6186C14.0057 15.6132 14.075 15.6444 14.1178 15.7C14.145 15.7365 14.1627 15.7826 14.1938 15.8159C14.2553 15.8835 14.3675 15.8823 14.428 15.8137C14.4417 15.7988 14.4534 15.7805 14.47 15.7698C14.4895 15.759 14.5119 15.759 14.5334 15.7602C14.5792 15.7613 14.626 15.7634 14.672 15.7644C14.6886 15.7655 14.7061 15.7655 14.7218 15.759C14.7414 15.7494 14.755 15.7312 14.7695 15.7141C14.8613 15.6025 15.0027 15.5414 15.1403 15.5554C15.1724 15.5587 15.2067 15.5662 15.2301 15.5908C15.2535 15.6144 15.2633 15.6486 15.278 15.6787C15.3004 15.7206 15.3346 15.7548 15.3755 15.773C15.3998 15.7847 15.4283 15.7913 15.4458 15.8149C15.4692 15.8481 15.4575 15.8954 15.4526 15.9382C15.4428 16.0133 15.4594 16.0926 15.4965 16.1558C15.5091 16.1783 15.5258 16.1998 15.5472 16.2126C15.5646 16.2222 15.5842 16.2267 15.6027 16.2309C15.6671 16.2438 15.7188 16.2545 15.7812 16.2449C15.8408 16.2353 15.9011 16.2461 15.9577 16.2631C16.0553 16.2931 16.147 16.3542 16.2124 16.4391C16.2222 16.4348 16.2309 16.4295 16.2407 16.425C16.2503 16.4168 16.261 16.4114 16.2708 16.406Z" fill="url(#paint0_linear_1571_9883)" stroke="#510A32" stroke-width="0.459149" mask="url(#path-1-inside-1_1571_9883)"/>
<defs>
<linearGradient id="paint0_linear_1571_9883" x1="10.8285" y1="-13.7412" x2="10.8285" y2="57.1311" gradientUnits="userSpaceOnUse">
<stop stop-color="#FF984F"/>
<stop offset="0.2978" stop-color="#F37A56"/>
<stop offset="0.9428" stop-color="#D42F67"/>
<stop offset="1" stop-color="#D12869"/>
</linearGradient>
</defs>
</svg>
