<svg width="21" height="17" viewBox="0 0 21 17" fill="none" xmlns="http://www.w3.org/2000/svg">
<mask id="path-1-inside-1_1571_9856" fill="white">
<path d="M20.0214 7.45707C20.0214 7.45707 20.0754 7.51113 20.1236 7.56606C20.1718 7.62013 20.1121 7.73379 20.1005 7.7521C20.0879 7.77041 19.925 7.74052 19.8594 7.75883C19.7929 7.77627 19.708 7.7647 19.6115 7.69233C19.5151 7.61996 19.5816 7.51113 19.4909 7.46294C19.4002 7.41475 19.1593 7.71081 19.0397 7.89114C18.9183 8.07147 18.8161 8.36062 18.8161 8.36062C18.8161 8.36062 18.7563 8.60176 18.762 8.64995C18.7677 8.69814 18.8826 8.77725 18.9432 8.82545C19.003 8.87364 19.0396 8.94601 19.0328 8.98746C19.027 9.02996 18.9491 9.03566 18.8641 9.06658C18.81 9.08592 18.786 9.12444 18.7734 9.16296C18.7667 9.18421 18.7637 9.20528 18.7618 9.22272C18.7561 9.27092 18.5024 9.37317 18.4243 9.3673C18.3462 9.36143 18.2854 9.27662 18.1775 9.19284C18.0685 9.10889 18.0811 9.17453 18.0203 9.13204C17.9605 9.09059 17.9538 9.02408 17.9961 8.92183C18.0384 8.81957 17.9479 8.46392 17.9237 8.4273C17.8997 8.39155 17.8158 8.34923 17.8158 8.28946C17.8158 8.22866 17.864 8.22296 17.8823 8.20465C17.8995 8.18634 17.9662 8.14488 17.9603 8.06577C17.9536 7.9877 17.888 7.8787 17.888 7.81324C17.888 7.74674 18.075 7.67437 18.1531 7.54136C18.2312 7.40922 18.0201 7.38521 17.888 7.26465C17.755 7.14408 17.6893 6.98793 17.5746 6.93301C17.4599 6.87894 17.4541 6.93974 17.3518 6.98793C17.2487 7.03612 17.2245 7.10746 17.1521 7.16239C17.0798 7.21646 16.9053 7.18657 16.8032 7.16239C16.7001 7.13821 16.5139 7.08431 16.484 7.0717C16.4531 7.0591 16.3933 6.98776 16.2843 6.95701C16.1764 6.92713 16.2843 7.02939 16.2843 7.09589V7.26465C16.2843 7.34272 16.1696 7.39091 16.1465 7.39679C16.1215 7.40352 16.0857 7.30714 16.0251 7.24634C15.9653 7.18657 15.8323 7.20385 15.7724 7.16826C15.7126 7.13251 15.6817 7.02939 15.6817 6.93301C15.6817 6.83662 15.6093 6.89725 15.5554 6.87894C15.5014 6.86063 15.4233 6.81244 15.3925 6.75267C15.3626 6.69187 15.3086 6.58392 15.3086 6.58392C15.3086 6.58392 15.164 6.58392 15.1215 6.57718C15.079 6.57131 14.9894 6.54142 14.9643 6.49323C14.9412 6.44504 14.8747 6.42673 14.8023 6.43243C14.7299 6.43917 14.6577 6.46335 14.5727 6.46335C14.4888 6.46335 14.3501 6.45074 14.3202 6.42086C14.2893 6.39098 14.2594 6.25797 14.2594 6.17972C14.2594 6.10165 14.2112 6.05916 14.1388 6.02357C14.0665 5.98696 14.0126 6.06503 13.9585 6.13153C13.9036 6.19803 13.9884 6.23949 14.0366 6.33017C14.0848 6.42085 14.1696 6.45748 14.1696 6.51137C14.1696 6.56526 13.9642 6.60205 13.9459 6.60775C13.9286 6.61363 13.9286 6.7639 13.9825 6.8247C14.0364 6.88447 14.0606 6.90278 14.0732 6.95097C14.0848 6.99916 14.1031 7.14374 14.0964 7.22181C14.0907 7.29989 14.0124 7.34238 13.9768 7.39057C13.9402 7.43876 13.8379 7.37899 13.6452 7.39057C13.4524 7.40318 13.5604 7.45707 13.5787 7.51787C13.597 7.57763 13.7899 7.72221 13.8139 7.83708C13.8381 7.95177 13.7773 7.99323 13.5913 7.97492C13.4042 7.95764 13.2538 7.77058 13.1931 7.66832C13.1323 7.56606 13.1092 7.64414 13.036 7.66832C12.9646 7.69233 12.9945 7.84278 12.9945 7.9364C12.9945 8.02985 12.928 8.18029 12.8914 8.21018C12.8556 8.24109 12.7169 8.33748 12.6986 8.48205C12.6813 8.62663 12.8798 8.65651 12.9879 8.78295C13.0969 8.90922 13.0671 8.92753 13.0671 8.92753C13.0671 8.92753 12.88 9.04222 12.8202 9.08368C12.7594 9.12617 12.6872 9.24086 12.6689 9.31324C12.6506 9.38561 12.6689 9.49443 12.6689 9.53018C12.6689 9.56594 12.5001 9.63918 12.3556 9.66233C12.211 9.68737 12.2417 9.81364 12.1936 9.93421C12.1454 10.0548 12.1328 10.2658 12.1328 10.2658C12.1328 10.2658 12.1376 10.2696 12.1473 10.2793C12.0932 10.2909 12.049 10.3025 12.0238 10.314C11.9158 10.3612 11.8916 10.3498 11.8916 10.3498C11.8916 10.3498 11.7826 10.2774 11.7778 10.1926C11.7719 10.1087 11.7711 10.127 11.7768 10.0548C11.7826 9.9824 11.717 9.83212 11.6023 9.85527C11.4876 9.88031 11.4335 9.99984 11.391 10.0962C11.3486 10.1926 11.3187 10.2591 11.2705 10.3557C11.2223 10.4521 11.0478 10.5427 11.0053 10.5427C10.9628 10.5427 10.9513 10.507 10.9273 10.4819C10.9033 10.4588 10.6804 10.5186 10.6024 10.6332C10.5232 10.7479 10.6024 10.8443 10.6024 10.8801C10.6024 10.9157 10.5657 11.0855 10.5542 11.1086C10.5416 11.1336 10.3488 11.2475 10.264 11.2176C10.1781 11.1877 10.1501 11.29 10.1377 11.2986C10.1261 11.3072 10.2225 11.3748 10.2524 11.3979C10.2823 11.423 10.2467 11.477 10.2042 11.5696C10.1617 11.6622 10.0239 11.7779 9.95064 11.7904C9.8793 11.8019 9.82437 11.6757 9.8185 11.6159C9.8128 11.5551 9.71624 11.5677 9.64404 11.5793C9.57167 11.5909 9.60155 11.694 9.51674 11.8203C9.43279 11.9465 9.3846 11.8926 9.28252 11.8868C9.1794 11.88 9.17352 11.9408 9.14364 12.1277C9.11376 12.3137 9.18613 12.3264 9.2459 12.441C9.3067 12.5549 9.3789 12.7178 9.2459 12.7062C9.11376 12.6936 8.99337 12.6281 8.92669 12.5915C8.86002 12.5549 8.6258 12.5616 8.57087 12.5732C8.5168 12.5858 8.40211 12.6639 8.34234 12.6938C8.28154 12.7247 8.15528 12.6938 8.10708 12.6098C8.05889 12.525 8.04732 12.4951 8.02227 12.4951C7.99913 12.4951 7.81206 12.5675 7.76974 12.5374C7.72725 12.5065 7.71568 12.4583 7.67906 12.3562C7.64348 12.254 7.46884 12.2839 7.38403 12.308C7.29922 12.3321 7.25776 12.4951 7.25776 12.5549C7.25776 12.6157 7.33584 12.6763 7.35415 12.6763C7.37246 12.6763 7.49199 12.7843 7.50356 12.8325C7.51513 12.8806 7.49872 12.9105 7.35985 13.0195C7.22097 13.1275 7.41098 13.1689 7.41098 13.1689C7.43896 13.2287 7.47748 13.2828 7.49579 13.3453C7.51324 13.4089 7.50443 13.4861 7.45054 13.5246C7.36866 13.5825 7.24705 13.512 7.15654 13.5564C7.10645 13.5814 7.07657 13.6355 7.02734 13.6624C6.96758 13.6942 6.8933 13.6769 6.8325 13.6471C6.7717 13.6172 6.71574 13.5747 6.65131 13.5555C6.58567 13.5362 6.50466 13.5469 6.46804 13.6047C6.42658 13.6683 6.4594 13.7609 6.41881 13.8255C6.38599 13.8766 6.31465 13.892 6.25679 13.8756C6.19789 13.8602 6.1497 13.8187 6.10634 13.7763C6.07646 13.7464 6.04761 13.7155 6.02049 13.6826C6.00218 13.6605 5.98388 13.6382 5.96073 13.621C5.86521 13.5458 5.69939 13.6065 5.67434 13.7251C5.65707 13.808 5.68781 13.917 5.61648 13.9594C5.55671 13.9951 5.4757 13.9486 5.413 13.9787C5.3522 14.0086 5.33976 14.0974 5.28086 14.13C5.2211 14.1637 5.14492 14.1241 5.07738 14.1386C4.99931 14.1561 4.95595 14.239 4.93281 14.316C4.9107 14.3922 4.89515 14.477 4.83728 14.532C4.76215 14.5686 4.65989 14.5214 4.63864 14.4404C4.62897 14.4057 4.63277 14.3672 4.61256 14.3373C4.58078 14.2929 4.50841 14.2977 4.46695 14.3325C4.4255 14.368 4.40615 14.4231 4.38974 14.4751C4.30787 14.4627 4.22495 14.4606 4.14291 14.4684C4.08314 14.4743 4.01854 14.4886 3.98089 14.5349C3.92199 14.6081 3.96828 14.7277 4.05222 14.7702C4.07917 14.7836 4.11113 14.7933 4.1284 14.8183C4.16986 14.8771 4.09852 14.9475 4.06483 15.0111C4.0099 15.1172 4.08418 15.2657 4.20181 15.2849C4.23756 15.2908 4.27419 15.2859 4.3108 15.2897C4.37731 15.2984 4.43707 15.3428 4.46885 15.4015C4.50944 15.4758 4.48906 15.5065 4.41772 15.5442C4.33965 15.5846 4.26831 15.5915 4.23739 15.6917C4.23549 15.6984 4.23359 15.7051 4.23359 15.7119C4.23463 15.735 4.25674 15.7514 4.27798 15.759C4.30009 15.7658 4.32324 15.7668 4.34448 15.7765C4.37817 15.7919 4.40045 15.8314 4.39561 15.8691C4.38301 15.9684 4.26451 16.0446 4.21822 16.1264C4.15362 16.2384 4.1854 16.3347 4.15362 16.4311C4.12184 16.5275 3.98486 16.5681 3.9289 16.5681C3.87207 16.5681 3.80833 16.5121 3.68793 16.4717C3.56737 16.4313 3.55873 16.5121 3.51054 16.5999C3.46425 16.6838 3.43627 16.7676 3.3727 16.8168C3.34576 16.8381 3.3138 16.8535 3.27044 16.8602C3.2492 16.864 3.22795 16.8669 3.20774 16.8621C3.1827 16.8562 3.16231 16.8398 3.14314 16.8244C3.01204 16.7184 3.02551 16.5564 2.9483 16.4156C2.91272 16.3491 2.83551 16.3905 2.72565 16.46C2.688 16.4831 2.64757 16.5101 2.60318 16.5362C2.52891 16.5795 2.45273 16.5873 2.39003 16.5805C2.35048 16.4899 2.31092 16.3994 2.27327 16.3145C2.17101 16.086 2.16531 16.195 2.07463 16.0561C1.98394 15.9173 1.93575 15.6647 1.88756 15.4352C1.83937 15.2058 1.72468 14.6696 1.70637 14.4527C1.68892 14.2357 1.5801 13.3862 1.5801 13.3439C1.5801 13.3025 1.48371 12.7057 1.39407 12.1937C1.30338 11.6807 1.24949 11.4938 1.207 11.0241C1.16451 10.5545 0.935123 10.4215 0.935123 10.4215C0.935123 10.4215 0.93512 10.4215 0.923547 10.3674C0.911974 10.3133 0.905239 10.1688 0.953431 10.1206C1.00162 10.0724 1.06812 10.2045 1.0923 10.2344C1.11631 10.2653 1.207 10.3009 1.26107 10.2653C1.31513 10.2287 1.26107 10.0541 1.26107 9.95977C1.26107 9.86528 1.21857 9.7708 1.18869 9.7708C1.15881 9.7708 1.0923 9.86719 1.0923 9.89707C1.0923 9.92799 1.00162 9.96944 0.90524 9.95787C0.808856 9.94526 0.832866 9.84318 0.784674 9.71C0.736482 9.57786 0.832862 9.47578 0.857044 9.4034C0.881227 9.33103 0.845473 9.21634 0.802981 9.10838C0.76049 8.99938 0.760489 8.89713 0.760489 8.77673C0.760489 8.65617 0.767224 8.69762 0.80868 8.65617C0.851172 8.61368 0.953256 8.66774 1.08643 8.65617C1.21857 8.64356 1.07382 8.4634 1.05655 8.43352C1.03824 8.4026 0.935123 8.30051 0.935123 8.27633C0.935123 8.25215 1.07969 8.16734 1.08643 8.01689C1.09213 7.86644 1.05655 7.91463 0.99005 7.91463C0.923549 7.91463 0.911977 7.9687 0.911977 8.0409C0.911977 8.11328 0.754792 8.23367 0.676717 8.1556C0.597606 8.07752 0.664108 7.99945 0.664108 7.73327C0.664108 7.48263 0.598468 7.12197 0.453028 6.57528C0.446292 6.54643 0.437655 6.51655 0.429882 6.48667C0.266997 5.88988 0.519529 5.50988 0.543711 5.30553C0.545611 5.28533 0.551487 5.26304 0.559088 5.23903C0.638198 5.2342 0.707636 5.20535 0.790546 5.14265C0.911976 5.05196 0.953429 5.08858 1.01423 5.07615C1.07399 5.06457 1.19457 5.22072 1.21287 5.29309C1.23118 5.36547 1.29768 5.34129 1.5205 5.38948C1.74315 5.43767 1.64107 5.40209 1.76734 5.38948C1.89361 5.37791 1.91191 5.2931 1.9361 5.2449C1.96028 5.19671 2.11055 5.16683 2.12886 5.17253C2.14717 5.1784 2.23112 5.20345 2.31213 5.20345C2.39314 5.20345 2.37 5.02795 2.37 5.02795C2.37 5.02795 2.36429 4.99237 2.34011 4.77542C2.31593 4.55847 2.29192 4.66643 2.34011 4.57004C2.3883 4.47366 2.4365 4.50354 2.46638 4.46208C2.49626 4.41959 2.55119 4.33582 2.55706 4.31751C2.56276 4.2992 2.53876 4.22683 2.53288 4.20282C2.52615 4.17864 2.4422 4.13044 2.37 4.02836C2.29762 3.92524 2.36999 3.92524 2.44807 3.8539C2.52614 3.78066 2.58695 3.89536 2.64758 3.95616C2.70734 4.01592 2.74396 4.13061 2.79802 4.23287C2.85209 4.33599 2.88197 4.25688 3.06316 4.23287C3.2435 4.20869 3.2492 4.13062 3.34558 4.02853C3.44197 3.92541 3.44197 3.88396 3.45458 3.86565C3.46719 3.84734 3.58671 3.81158 3.64164 3.72677C3.69553 3.64282 3.63491 3.53401 3.62333 3.45006C3.61176 3.36525 3.55683 3.2756 3.49033 3.14432C3.42469 3.01322 3.31587 3.00942 3.22605 2.96796C3.13537 2.92547 2.99666 2.87728 2.90598 2.75879C2.8153 2.64029 2.94847 2.70869 3.03328 2.70869C3.11723 2.70869 3.2492 2.70282 3.29169 2.61231C3.33401 2.52163 3.43056 2.5275 3.56944 2.48604C3.70831 2.44355 3.70832 2.2748 3.71989 2.24491C3.73146 2.21503 3.81627 2.11191 3.84045 2.07615C3.86446 2.03954 3.90696 2.03953 3.92441 2.03366C3.94271 2.02796 4.32842 2.00965 4.50288 2.00378C4.67838 1.99704 4.61187 1.94298 4.64745 1.89479C4.68407 1.84659 4.64745 1.8041 4.64745 1.75591C4.64745 1.70772 4.4913 1.70772 4.44881 1.69615C4.40632 1.68457 4.07571 1.65953 3.95515 1.67214C3.83458 1.68457 3.88277 1.72033 3.79796 1.7927C3.71401 1.86508 3.6717 1.8592 3.52125 1.85437C3.3708 1.85057 3.41899 1.70202 3.43057 1.65953C3.44214 1.61807 3.54526 1.5457 3.58101 1.50338C3.61763 1.46089 3.64182 1.35293 3.65339 1.28073C3.666 1.20835 3.51555 1.12942 3.50294 1.06948C3.4905 1.00971 3.6774 0.967221 3.74977 0.930602C3.82215 0.895019 4.04583 0.786025 4.0631 0.780152C4.06898 0.778252 4.09005 0.777216 4.11993 0.777216C4.18557 0.777216 4.29163 0.780152 4.35813 0.780152C4.45451 0.780152 4.48543 0.785855 4.55781 0.768582C4.63018 0.750272 4.66576 0.653888 4.68994 0.598787C4.71395 0.544722 4.88859 0.563204 4.9069 0.598787C4.92521 0.635406 4.94352 0.683598 5.02746 0.72609C5.11227 0.768582 5.12385 0.913157 5.10364 0.943039C5.08239 0.972922 5.11815 1.1118 5.10658 1.18987C5.09397 1.26795 5.12385 1.33445 5.17204 1.40095C5.21937 1.46451 5.31178 1.51858 5.44012 1.60443C5.44305 1.60633 5.44685 1.60926 5.44979 1.61116C5.58193 1.70185 5.57035 1.67766 5.66674 1.67766H6.06402C6.19703 1.67766 6.23848 1.76248 6.2751 1.78666C6.31172 1.81084 6.35317 1.93711 6.37148 1.991C6.38979 2.04506 6.45629 2.10569 6.50448 2.14818C6.55268 2.18964 6.99815 2.26875 6.99815 2.26875C6.99815 2.26875 7.13703 2.29293 7.24499 2.30727C7.35398 2.32178 7.57093 2.31694 7.72138 2.30727C7.87183 2.2976 8.5168 2.39502 8.66725 2.40763C8.81856 2.4192 8.80613 2.45582 8.84171 2.49157C8.87833 2.52733 8.90821 2.63045 8.90821 2.69695C8.90821 2.76259 8.87833 2.7866 8.85414 2.81648C8.82996 2.8474 8.7702 2.90717 8.7702 2.97367C8.7702 3.04017 8.98041 3.07592 9.15591 3.12411C9.33036 3.1723 9.39013 3.12411 9.60708 3.06435C9.82403 3.00355 9.73438 2.94966 9.76996 2.90147C9.80572 2.85327 9.90884 2.87728 9.98692 2.86485C10.065 2.85327 10.1132 2.78107 10.1016 2.7144C10.089 2.64876 10.0833 2.53993 10.1016 2.47343C10.1199 2.4078 10.2521 2.43094 10.3186 2.36548C10.3842 2.29897 10.4448 2.0936 10.4448 2.06372C10.4448 2.03383 10.4574 1.88339 10.4873 1.82276C10.5172 1.76299 10.6378 1.81119 10.6561 1.81119C10.6733 1.81119 10.8547 1.73311 10.9145 1.654C10.9753 1.57592 11.0235 1.57593 11.09 1.57005C11.1556 1.56332 11.2827 1.61151 11.3966 1.62412C11.5113 1.63655 11.4997 1.61825 11.6076 1.57005C11.7166 1.52186 11.7108 1.50925 11.8488 1.47937C11.9877 1.44949 12.0599 1.50338 12.1562 1.54587C12.2526 1.58836 12.2227 1.66644 12.2585 1.7262C12.2951 1.787 12.3732 1.80428 12.4089 1.87078C12.4456 1.93728 12.3549 2.03953 12.3549 2.03953C12.3549 2.03953 12.2103 2.03954 12.1379 2.00395C12.0656 1.96733 12.0357 1.97407 11.975 1.97407C11.9153 1.97407 11.921 2.01553 11.9037 2.14179C11.8854 2.2691 12.0415 2.34147 12.0965 2.35978C12.1505 2.37722 12.5304 2.44943 12.7231 2.44943C12.9159 2.44943 12.9999 2.44943 13.0838 2.41954C13.1686 2.38966 13.2951 2.39553 13.4464 2.35304C13.5968 2.31159 13.6084 2.1487 13.6141 2.11208C13.6208 2.0765 13.7587 2.0157 13.8435 1.9492C13.9283 1.88356 14.0787 1.81706 14.1385 1.78148C14.1993 1.74486 14.2532 1.88373 14.2532 1.9435C14.2532 2.0043 14.2774 2.06406 14.3256 2.13056C14.3738 2.19707 14.4701 2.05819 14.5482 2.05249C14.6263 2.04575 14.6812 2.12486 14.741 2.17306C14.8018 2.22125 14.874 2.25113 15.0371 2.28101C15.1991 2.3109 15.2955 2.29362 15.3746 2.28101C15.4526 2.2684 15.5008 2.16045 15.5008 2.0708C15.5008 1.98011 15.5307 1.91949 15.549 1.90118C15.5673 1.8839 15.8016 1.90791 15.8865 1.90791C15.9705 1.90791 16.0494 1.87129 16.1092 1.83554C16.169 1.79892 16.169 1.75073 16.169 1.69096C16.169 1.63016 16.2596 1.61185 16.3078 1.58871C16.356 1.56366 16.4042 1.64847 16.4467 1.72171C16.4892 1.79495 16.5065 1.74486 16.6395 1.72655C16.7725 1.70824 16.8381 1.74486 16.9076 1.75643C16.977 1.76904 16.9076 1.91845 16.9076 1.91845C16.9606 1.97442 17.0001 2.04282 17.0609 2.08997C17.1217 2.13626 17.2181 2.15077 17.2693 2.09377C17.2876 2.07356 17.2972 2.04662 17.3117 2.02347C17.3465 1.96664 17.4081 1.92709 17.4746 1.92225C17.5403 1.91741 17.6087 1.9454 17.651 1.99549C17.6779 2.02831 17.6954 2.06976 17.7261 2.09965C17.7869 2.16045 17.8978 2.15941 17.9576 2.09775C17.9711 2.08427 17.9826 2.06786 17.999 2.05819C18.0184 2.04852 18.0405 2.04852 18.0617 2.04955C18.107 2.05059 18.1533 2.05249 18.1987 2.05335C18.2151 2.05439 18.2324 2.05439 18.2479 2.04852C18.2673 2.03988 18.2808 2.02347 18.2951 2.0081C18.3858 1.90774 18.5255 1.85281 18.6615 1.86542C18.6932 1.86836 18.7271 1.8751 18.7502 1.89721C18.7734 1.91845 18.7831 1.9492 18.7976 1.97632C18.8197 2.01397 18.8535 2.04472 18.894 2.06113C18.918 2.07166 18.9461 2.07754 18.9634 2.09878C18.9865 2.12866 18.975 2.17116 18.9701 2.20967C18.9605 2.27721 18.9769 2.34855 19.0135 2.40538C19.0259 2.42559 19.0425 2.44493 19.0636 2.45651C19.0809 2.46514 19.1002 2.46912 19.1185 2.47292C19.1821 2.48449 19.2332 2.49416 19.2949 2.48553C19.3538 2.47689 19.4134 2.48656 19.4693 2.50194C19.5657 2.52888 19.6564 2.58381 19.721 2.66016C19.7326 2.6726 19.7422 2.68607 19.7519 2.69972C19.7433 2.71993 19.7336 2.74013 19.725 2.75948C19.6768 2.86363 19.6402 2.85983 19.5621 2.88384C19.484 2.90785 19.3693 2.90785 19.2372 2.99284C19.1042 3.07679 19.189 3.20305 19.189 3.28786C19.189 3.37268 19.2487 3.55888 19.2671 3.6012C19.2854 3.64369 19.4175 3.63678 19.4598 3.64939C19.5023 3.662 19.5438 3.83645 19.5562 3.89622C19.5688 3.95702 19.5688 4.1738 19.508 4.22786C19.4472 4.28193 19.4415 4.23374 19.2728 4.27036C19.104 4.30594 19.213 4.42081 19.2429 4.52963C19.266 4.61547 19.4714 4.48523 19.5457 4.5412C19.669 4.63188 19.6237 4.89029 19.617 5.01742C19.6103 5.11968 19.4956 5.16786 19.3693 5.20448C19.243 5.24024 19.2797 5.21606 19.165 5.23437C19.0503 5.25268 19.0204 5.37221 19.0078 5.44545C18.9962 5.51678 19.0318 5.60159 19.0743 5.64996C19.1168 5.69815 19.2006 5.64409 19.3394 5.64996C19.4783 5.65583 19.4417 5.86691 19.4175 6.09543C19.3935 6.32499 19.1582 6.05967 19.0867 6.05397C19.0135 6.04724 19.0259 6.09543 19.0259 6.13205C19.0259 6.16867 19.08 6.22843 19.1166 6.23431C19.1522 6.24001 19.189 6.27092 19.1947 6.29511C19.2006 6.31929 19.1831 6.37905 19.1349 6.40306C19.0867 6.42725 19.0135 6.48788 19.0259 6.54194C19.0385 6.59601 19.1705 6.57182 19.2612 6.57182C19.3508 6.57182 19.3634 6.50619 19.399 6.50619C19.4356 6.50619 19.5503 6.60257 19.5745 6.63832C19.5987 6.67408 19.6825 6.89777 19.6951 6.93335C19.7067 6.96997 19.7433 6.99985 19.7732 7.01816C19.803 7.03647 19.9177 7.05374 19.9901 7.07223C20.0625 7.09054 20.1532 7.15617 20.1704 7.16861C20.1888 7.18104 20.2369 7.28918 20.2369 7.30749C20.2369 7.3258 20.1406 7.39713 20.1048 7.39713C20.0696 7.39644 20.0214 7.45707 20.0214 7.45707Z"/>
</mask>
<path d="M20.0214 7.45707C20.0214 7.45707 20.0754 7.51113 20.1236 7.56606C20.1718 7.62013 20.1121 7.73379 20.1005 7.7521C20.0879 7.77041 19.925 7.74052 19.8594 7.75883C19.7929 7.77627 19.708 7.7647 19.6115 7.69233C19.5151 7.61996 19.5816 7.51113 19.4909 7.46294C19.4002 7.41475 19.1593 7.71081 19.0397 7.89114C18.9183 8.07147 18.8161 8.36062 18.8161 8.36062C18.8161 8.36062 18.7563 8.60176 18.762 8.64995C18.7677 8.69814 18.8826 8.77725 18.9432 8.82545C19.003 8.87364 19.0396 8.94601 19.0328 8.98746C19.027 9.02996 18.9491 9.03566 18.8641 9.06658C18.81 9.08592 18.786 9.12444 18.7734 9.16296C18.7667 9.18421 18.7637 9.20528 18.7618 9.22272C18.7561 9.27092 18.5024 9.37317 18.4243 9.3673C18.3462 9.36143 18.2854 9.27662 18.1775 9.19284C18.0685 9.10889 18.0811 9.17453 18.0203 9.13204C17.9605 9.09059 17.9538 9.02408 17.9961 8.92183C18.0384 8.81957 17.9479 8.46392 17.9237 8.4273C17.8997 8.39155 17.8158 8.34923 17.8158 8.28946C17.8158 8.22866 17.864 8.22296 17.8823 8.20465C17.8995 8.18634 17.9662 8.14488 17.9603 8.06577C17.9536 7.9877 17.888 7.8787 17.888 7.81324C17.888 7.74674 18.075 7.67437 18.1531 7.54136C18.2312 7.40922 18.0201 7.38521 17.888 7.26465C17.755 7.14408 17.6893 6.98793 17.5746 6.93301C17.4599 6.87894 17.4541 6.93974 17.3518 6.98793C17.2487 7.03612 17.2245 7.10746 17.1521 7.16239C17.0798 7.21646 16.9053 7.18657 16.8032 7.16239C16.7001 7.13821 16.5139 7.08431 16.484 7.0717C16.4531 7.0591 16.3933 6.98776 16.2843 6.95701C16.1764 6.92713 16.2843 7.02939 16.2843 7.09589V7.26465C16.2843 7.34272 16.1696 7.39091 16.1465 7.39679C16.1215 7.40352 16.0857 7.30714 16.0251 7.24634C15.9653 7.18657 15.8323 7.20385 15.7724 7.16826C15.7126 7.13251 15.6817 7.02939 15.6817 6.93301C15.6817 6.83662 15.6093 6.89725 15.5554 6.87894C15.5014 6.86063 15.4233 6.81244 15.3925 6.75267C15.3626 6.69187 15.3086 6.58392 15.3086 6.58392C15.3086 6.58392 15.164 6.58392 15.1215 6.57718C15.079 6.57131 14.9894 6.54142 14.9643 6.49323C14.9412 6.44504 14.8747 6.42673 14.8023 6.43243C14.7299 6.43917 14.6577 6.46335 14.5727 6.46335C14.4888 6.46335 14.3501 6.45074 14.3202 6.42086C14.2893 6.39098 14.2594 6.25797 14.2594 6.17972C14.2594 6.10165 14.2112 6.05916 14.1388 6.02357C14.0665 5.98696 14.0126 6.06503 13.9585 6.13153C13.9036 6.19803 13.9884 6.23949 14.0366 6.33017C14.0848 6.42085 14.1696 6.45748 14.1696 6.51137C14.1696 6.56526 13.9642 6.60205 13.9459 6.60775C13.9286 6.61363 13.9286 6.7639 13.9825 6.8247C14.0364 6.88447 14.0606 6.90278 14.0732 6.95097C14.0848 6.99916 14.1031 7.14374 14.0964 7.22181C14.0907 7.29989 14.0124 7.34238 13.9768 7.39057C13.9402 7.43876 13.8379 7.37899 13.6452 7.39057C13.4524 7.40318 13.5604 7.45707 13.5787 7.51787C13.597 7.57763 13.7899 7.72221 13.8139 7.83708C13.8381 7.95177 13.7773 7.99323 13.5913 7.97492C13.4042 7.95764 13.2538 7.77058 13.1931 7.66832C13.1323 7.56606 13.1092 7.64414 13.036 7.66832C12.9646 7.69233 12.9945 7.84278 12.9945 7.9364C12.9945 8.02985 12.928 8.18029 12.8914 8.21018C12.8556 8.24109 12.7169 8.33748 12.6986 8.48205C12.6813 8.62663 12.8798 8.65651 12.9879 8.78295C13.0969 8.90922 13.0671 8.92753 13.0671 8.92753C13.0671 8.92753 12.88 9.04222 12.8202 9.08368C12.7594 9.12617 12.6872 9.24086 12.6689 9.31324C12.6506 9.38561 12.6689 9.49443 12.6689 9.53018C12.6689 9.56594 12.5001 9.63918 12.3556 9.66233C12.211 9.68737 12.2417 9.81364 12.1936 9.93421C12.1454 10.0548 12.1328 10.2658 12.1328 10.2658C12.1328 10.2658 12.1376 10.2696 12.1473 10.2793C12.0932 10.2909 12.049 10.3025 12.0238 10.314C11.9158 10.3612 11.8916 10.3498 11.8916 10.3498C11.8916 10.3498 11.7826 10.2774 11.7778 10.1926C11.7719 10.1087 11.7711 10.127 11.7768 10.0548C11.7826 9.9824 11.717 9.83212 11.6023 9.85527C11.4876 9.88031 11.4335 9.99984 11.391 10.0962C11.3486 10.1926 11.3187 10.2591 11.2705 10.3557C11.2223 10.4521 11.0478 10.5427 11.0053 10.5427C10.9628 10.5427 10.9513 10.507 10.9273 10.4819C10.9033 10.4588 10.6804 10.5186 10.6024 10.6332C10.5232 10.7479 10.6024 10.8443 10.6024 10.8801C10.6024 10.9157 10.5657 11.0855 10.5542 11.1086C10.5416 11.1336 10.3488 11.2475 10.264 11.2176C10.1781 11.1877 10.1501 11.29 10.1377 11.2986C10.1261 11.3072 10.2225 11.3748 10.2524 11.3979C10.2823 11.423 10.2467 11.477 10.2042 11.5696C10.1617 11.6622 10.0239 11.7779 9.95064 11.7904C9.8793 11.8019 9.82437 11.6757 9.8185 11.6159C9.8128 11.5551 9.71624 11.5677 9.64404 11.5793C9.57167 11.5909 9.60155 11.694 9.51674 11.8203C9.43279 11.9465 9.3846 11.8926 9.28252 11.8868C9.1794 11.88 9.17352 11.9408 9.14364 12.1277C9.11376 12.3137 9.18613 12.3264 9.2459 12.441C9.3067 12.5549 9.3789 12.7178 9.2459 12.7062C9.11376 12.6936 8.99337 12.6281 8.92669 12.5915C8.86002 12.5549 8.6258 12.5616 8.57087 12.5732C8.5168 12.5858 8.40211 12.6639 8.34234 12.6938C8.28154 12.7247 8.15528 12.6938 8.10708 12.6098C8.05889 12.525 8.04732 12.4951 8.02227 12.4951C7.99913 12.4951 7.81206 12.5675 7.76974 12.5374C7.72725 12.5065 7.71568 12.4583 7.67906 12.3562C7.64348 12.254 7.46884 12.2839 7.38403 12.308C7.29922 12.3321 7.25776 12.4951 7.25776 12.5549C7.25776 12.6157 7.33584 12.6763 7.35415 12.6763C7.37246 12.6763 7.49199 12.7843 7.50356 12.8325C7.51513 12.8806 7.49872 12.9105 7.35985 13.0195C7.22097 13.1275 7.41098 13.1689 7.41098 13.1689C7.43896 13.2287 7.47748 13.2828 7.49579 13.3453C7.51324 13.4089 7.50443 13.4861 7.45054 13.5246C7.36866 13.5825 7.24705 13.512 7.15654 13.5564C7.10645 13.5814 7.07657 13.6355 7.02734 13.6624C6.96758 13.6942 6.8933 13.6769 6.8325 13.6471C6.7717 13.6172 6.71574 13.5747 6.65131 13.5555C6.58567 13.5362 6.50466 13.5469 6.46804 13.6047C6.42658 13.6683 6.4594 13.7609 6.41881 13.8255C6.38599 13.8766 6.31465 13.892 6.25679 13.8756C6.19789 13.8602 6.1497 13.8187 6.10634 13.7763C6.07646 13.7464 6.04761 13.7155 6.02049 13.6826C6.00218 13.6605 5.98388 13.6382 5.96073 13.621C5.86521 13.5458 5.69939 13.6065 5.67434 13.7251C5.65707 13.808 5.68781 13.917 5.61648 13.9594C5.55671 13.9951 5.4757 13.9486 5.413 13.9787C5.3522 14.0086 5.33976 14.0974 5.28086 14.13C5.2211 14.1637 5.14492 14.1241 5.07738 14.1386C4.99931 14.1561 4.95595 14.239 4.93281 14.316C4.9107 14.3922 4.89515 14.477 4.83728 14.532C4.76215 14.5686 4.65989 14.5214 4.63864 14.4404C4.62897 14.4057 4.63277 14.3672 4.61256 14.3373C4.58078 14.2929 4.50841 14.2977 4.46695 14.3325C4.4255 14.368 4.40615 14.4231 4.38974 14.4751C4.30787 14.4627 4.22495 14.4606 4.14291 14.4684C4.08314 14.4743 4.01854 14.4886 3.98089 14.5349C3.92199 14.6081 3.96828 14.7277 4.05222 14.7702C4.07917 14.7836 4.11113 14.7933 4.1284 14.8183C4.16986 14.8771 4.09852 14.9475 4.06483 15.0111C4.0099 15.1172 4.08418 15.2657 4.20181 15.2849C4.23756 15.2908 4.27419 15.2859 4.3108 15.2897C4.37731 15.2984 4.43707 15.3428 4.46885 15.4015C4.50944 15.4758 4.48906 15.5065 4.41772 15.5442C4.33965 15.5846 4.26831 15.5915 4.23739 15.6917C4.23549 15.6984 4.23359 15.7051 4.23359 15.7119C4.23463 15.735 4.25674 15.7514 4.27798 15.759C4.30009 15.7658 4.32324 15.7668 4.34448 15.7765C4.37817 15.7919 4.40045 15.8314 4.39561 15.8691C4.38301 15.9684 4.26451 16.0446 4.21822 16.1264C4.15362 16.2384 4.1854 16.3347 4.15362 16.4311C4.12184 16.5275 3.98486 16.5681 3.9289 16.5681C3.87207 16.5681 3.80833 16.5121 3.68793 16.4717C3.56737 16.4313 3.55873 16.5121 3.51054 16.5999C3.46425 16.6838 3.43627 16.7676 3.3727 16.8168C3.34576 16.8381 3.3138 16.8535 3.27044 16.8602C3.2492 16.864 3.22795 16.8669 3.20774 16.8621C3.1827 16.8562 3.16231 16.8398 3.14314 16.8244C3.01204 16.7184 3.02551 16.5564 2.9483 16.4156C2.91272 16.3491 2.83551 16.3905 2.72565 16.46C2.688 16.4831 2.64757 16.5101 2.60318 16.5362C2.52891 16.5795 2.45273 16.5873 2.39003 16.5805C2.35048 16.4899 2.31092 16.3994 2.27327 16.3145C2.17101 16.086 2.16531 16.195 2.07463 16.0561C1.98394 15.9173 1.93575 15.6647 1.88756 15.4352C1.83937 15.2058 1.72468 14.6696 1.70637 14.4527C1.68892 14.2357 1.5801 13.3862 1.5801 13.3439C1.5801 13.3025 1.48371 12.7057 1.39407 12.1937C1.30338 11.6807 1.24949 11.4938 1.207 11.0241C1.16451 10.5545 0.935123 10.4215 0.935123 10.4215C0.935123 10.4215 0.93512 10.4215 0.923547 10.3674C0.911974 10.3133 0.905239 10.1688 0.953431 10.1206C1.00162 10.0724 1.06812 10.2045 1.0923 10.2344C1.11631 10.2653 1.207 10.3009 1.26107 10.2653C1.31513 10.2287 1.26107 10.0541 1.26107 9.95977C1.26107 9.86528 1.21857 9.7708 1.18869 9.7708C1.15881 9.7708 1.0923 9.86719 1.0923 9.89707C1.0923 9.92799 1.00162 9.96944 0.90524 9.95787C0.808856 9.94526 0.832866 9.84318 0.784674 9.71C0.736482 9.57786 0.832862 9.47578 0.857044 9.4034C0.881227 9.33103 0.845473 9.21634 0.802981 9.10838C0.76049 8.99938 0.760489 8.89713 0.760489 8.77673C0.760489 8.65617 0.767224 8.69762 0.80868 8.65617C0.851172 8.61368 0.953256 8.66774 1.08643 8.65617C1.21857 8.64356 1.07382 8.4634 1.05655 8.43352C1.03824 8.4026 0.935123 8.30051 0.935123 8.27633C0.935123 8.25215 1.07969 8.16734 1.08643 8.01689C1.09213 7.86644 1.05655 7.91463 0.99005 7.91463C0.923549 7.91463 0.911977 7.9687 0.911977 8.0409C0.911977 8.11328 0.754792 8.23367 0.676717 8.1556C0.597606 8.07752 0.664108 7.99945 0.664108 7.73327C0.664108 7.48263 0.598468 7.12197 0.453028 6.57528C0.446292 6.54643 0.437655 6.51655 0.429882 6.48667C0.266997 5.88988 0.519529 5.50988 0.543711 5.30553C0.545611 5.28533 0.551487 5.26304 0.559088 5.23903C0.638198 5.2342 0.707636 5.20535 0.790546 5.14265C0.911976 5.05196 0.953429 5.08858 1.01423 5.07615C1.07399 5.06457 1.19457 5.22072 1.21287 5.29309C1.23118 5.36547 1.29768 5.34129 1.5205 5.38948C1.74315 5.43767 1.64107 5.40209 1.76734 5.38948C1.89361 5.37791 1.91191 5.2931 1.9361 5.2449C1.96028 5.19671 2.11055 5.16683 2.12886 5.17253C2.14717 5.1784 2.23112 5.20345 2.31213 5.20345C2.39314 5.20345 2.37 5.02795 2.37 5.02795C2.37 5.02795 2.36429 4.99237 2.34011 4.77542C2.31593 4.55847 2.29192 4.66643 2.34011 4.57004C2.3883 4.47366 2.4365 4.50354 2.46638 4.46208C2.49626 4.41959 2.55119 4.33582 2.55706 4.31751C2.56276 4.2992 2.53876 4.22683 2.53288 4.20282C2.52615 4.17864 2.4422 4.13044 2.37 4.02836C2.29762 3.92524 2.36999 3.92524 2.44807 3.8539C2.52614 3.78066 2.58695 3.89536 2.64758 3.95616C2.70734 4.01592 2.74396 4.13061 2.79802 4.23287C2.85209 4.33599 2.88197 4.25688 3.06316 4.23287C3.2435 4.20869 3.2492 4.13062 3.34558 4.02853C3.44197 3.92541 3.44197 3.88396 3.45458 3.86565C3.46719 3.84734 3.58671 3.81158 3.64164 3.72677C3.69553 3.64282 3.63491 3.53401 3.62333 3.45006C3.61176 3.36525 3.55683 3.2756 3.49033 3.14432C3.42469 3.01322 3.31587 3.00942 3.22605 2.96796C3.13537 2.92547 2.99666 2.87728 2.90598 2.75879C2.8153 2.64029 2.94847 2.70869 3.03328 2.70869C3.11723 2.70869 3.2492 2.70282 3.29169 2.61231C3.33401 2.52163 3.43056 2.5275 3.56944 2.48604C3.70831 2.44355 3.70832 2.2748 3.71989 2.24491C3.73146 2.21503 3.81627 2.11191 3.84045 2.07615C3.86446 2.03954 3.90696 2.03953 3.92441 2.03366C3.94271 2.02796 4.32842 2.00965 4.50288 2.00378C4.67838 1.99704 4.61187 1.94298 4.64745 1.89479C4.68407 1.84659 4.64745 1.8041 4.64745 1.75591C4.64745 1.70772 4.4913 1.70772 4.44881 1.69615C4.40632 1.68457 4.07571 1.65953 3.95515 1.67214C3.83458 1.68457 3.88277 1.72033 3.79796 1.7927C3.71401 1.86508 3.6717 1.8592 3.52125 1.85437C3.3708 1.85057 3.41899 1.70202 3.43057 1.65953C3.44214 1.61807 3.54526 1.5457 3.58101 1.50338C3.61763 1.46089 3.64182 1.35293 3.65339 1.28073C3.666 1.20835 3.51555 1.12942 3.50294 1.06948C3.4905 1.00971 3.6774 0.967221 3.74977 0.930602C3.82215 0.895019 4.04583 0.786025 4.0631 0.780152C4.06898 0.778252 4.09005 0.777216 4.11993 0.777216C4.18557 0.777216 4.29163 0.780152 4.35813 0.780152C4.45451 0.780152 4.48543 0.785855 4.55781 0.768582C4.63018 0.750272 4.66576 0.653888 4.68994 0.598787C4.71395 0.544722 4.88859 0.563204 4.9069 0.598787C4.92521 0.635406 4.94352 0.683598 5.02746 0.72609C5.11227 0.768582 5.12385 0.913157 5.10364 0.943039C5.08239 0.972922 5.11815 1.1118 5.10658 1.18987C5.09397 1.26795 5.12385 1.33445 5.17204 1.40095C5.21937 1.46451 5.31178 1.51858 5.44012 1.60443C5.44305 1.60633 5.44685 1.60926 5.44979 1.61116C5.58193 1.70185 5.57035 1.67766 5.66674 1.67766H6.06402C6.19703 1.67766 6.23848 1.76248 6.2751 1.78666C6.31172 1.81084 6.35317 1.93711 6.37148 1.991C6.38979 2.04506 6.45629 2.10569 6.50448 2.14818C6.55268 2.18964 6.99815 2.26875 6.99815 2.26875C6.99815 2.26875 7.13703 2.29293 7.24499 2.30727C7.35398 2.32178 7.57093 2.31694 7.72138 2.30727C7.87183 2.2976 8.5168 2.39502 8.66725 2.40763C8.81856 2.4192 8.80613 2.45582 8.84171 2.49157C8.87833 2.52733 8.90821 2.63045 8.90821 2.69695C8.90821 2.76259 8.87833 2.7866 8.85414 2.81648C8.82996 2.8474 8.7702 2.90717 8.7702 2.97367C8.7702 3.04017 8.98041 3.07592 9.15591 3.12411C9.33036 3.1723 9.39013 3.12411 9.60708 3.06435C9.82403 3.00355 9.73438 2.94966 9.76996 2.90147C9.80572 2.85327 9.90884 2.87728 9.98692 2.86485C10.065 2.85327 10.1132 2.78107 10.1016 2.7144C10.089 2.64876 10.0833 2.53993 10.1016 2.47343C10.1199 2.4078 10.2521 2.43094 10.3186 2.36548C10.3842 2.29897 10.4448 2.0936 10.4448 2.06372C10.4448 2.03383 10.4574 1.88339 10.4873 1.82276C10.5172 1.76299 10.6378 1.81119 10.6561 1.81119C10.6733 1.81119 10.8547 1.73311 10.9145 1.654C10.9753 1.57592 11.0235 1.57593 11.09 1.57005C11.1556 1.56332 11.2827 1.61151 11.3966 1.62412C11.5113 1.63655 11.4997 1.61825 11.6076 1.57005C11.7166 1.52186 11.7108 1.50925 11.8488 1.47937C11.9877 1.44949 12.0599 1.50338 12.1562 1.54587C12.2526 1.58836 12.2227 1.66644 12.2585 1.7262C12.2951 1.787 12.3732 1.80428 12.4089 1.87078C12.4456 1.93728 12.3549 2.03953 12.3549 2.03953C12.3549 2.03953 12.2103 2.03954 12.1379 2.00395C12.0656 1.96733 12.0357 1.97407 11.975 1.97407C11.9153 1.97407 11.921 2.01553 11.9037 2.14179C11.8854 2.2691 12.0415 2.34147 12.0965 2.35978C12.1505 2.37722 12.5304 2.44943 12.7231 2.44943C12.9159 2.44943 12.9999 2.44943 13.0838 2.41954C13.1686 2.38966 13.2951 2.39553 13.4464 2.35304C13.5968 2.31159 13.6084 2.1487 13.6141 2.11208C13.6208 2.0765 13.7587 2.0157 13.8435 1.9492C13.9283 1.88356 14.0787 1.81706 14.1385 1.78148C14.1993 1.74486 14.2532 1.88373 14.2532 1.9435C14.2532 2.0043 14.2774 2.06406 14.3256 2.13056C14.3738 2.19707 14.4701 2.05819 14.5482 2.05249C14.6263 2.04575 14.6812 2.12486 14.741 2.17306C14.8018 2.22125 14.874 2.25113 15.0371 2.28101C15.1991 2.3109 15.2955 2.29362 15.3746 2.28101C15.4526 2.2684 15.5008 2.16045 15.5008 2.0708C15.5008 1.98011 15.5307 1.91949 15.549 1.90118C15.5673 1.8839 15.8016 1.90791 15.8865 1.90791C15.9705 1.90791 16.0494 1.87129 16.1092 1.83554C16.169 1.79892 16.169 1.75073 16.169 1.69096C16.169 1.63016 16.2596 1.61185 16.3078 1.58871C16.356 1.56366 16.4042 1.64847 16.4467 1.72171C16.4892 1.79495 16.5065 1.74486 16.6395 1.72655C16.7725 1.70824 16.8381 1.74486 16.9076 1.75643C16.977 1.76904 16.9076 1.91845 16.9076 1.91845C16.9606 1.97442 17.0001 2.04282 17.0609 2.08997C17.1217 2.13626 17.2181 2.15077 17.2693 2.09377C17.2876 2.07356 17.2972 2.04662 17.3117 2.02347C17.3465 1.96664 17.4081 1.92709 17.4746 1.92225C17.5403 1.91741 17.6087 1.9454 17.651 1.99549C17.6779 2.02831 17.6954 2.06976 17.7261 2.09965C17.7869 2.16045 17.8978 2.15941 17.9576 2.09775C17.9711 2.08427 17.9826 2.06786 17.999 2.05819C18.0184 2.04852 18.0405 2.04852 18.0617 2.04955C18.107 2.05059 18.1533 2.05249 18.1987 2.05335C18.2151 2.05439 18.2324 2.05439 18.2479 2.04852C18.2673 2.03988 18.2808 2.02347 18.2951 2.0081C18.3858 1.90774 18.5255 1.85281 18.6615 1.86542C18.6932 1.86836 18.7271 1.8751 18.7502 1.89721C18.7734 1.91845 18.7831 1.9492 18.7976 1.97632C18.8197 2.01397 18.8535 2.04472 18.894 2.06113C18.918 2.07166 18.9461 2.07754 18.9634 2.09878C18.9865 2.12866 18.975 2.17116 18.9701 2.20967C18.9605 2.27721 18.9769 2.34855 19.0135 2.40538C19.0259 2.42559 19.0425 2.44493 19.0636 2.45651C19.0809 2.46514 19.1002 2.46912 19.1185 2.47292C19.1821 2.48449 19.2332 2.49416 19.2949 2.48553C19.3538 2.47689 19.4134 2.48656 19.4693 2.50194C19.5657 2.52888 19.6564 2.58381 19.721 2.66016C19.7326 2.6726 19.7422 2.68607 19.7519 2.69972C19.7433 2.71993 19.7336 2.74013 19.725 2.75948C19.6768 2.86363 19.6402 2.85983 19.5621 2.88384C19.484 2.90785 19.3693 2.90785 19.2372 2.99284C19.1042 3.07679 19.189 3.20305 19.189 3.28786C19.189 3.37268 19.2487 3.55888 19.2671 3.6012C19.2854 3.64369 19.4175 3.63678 19.4598 3.64939C19.5023 3.662 19.5438 3.83645 19.5562 3.89622C19.5688 3.95702 19.5688 4.1738 19.508 4.22786C19.4472 4.28193 19.4415 4.23374 19.2728 4.27036C19.104 4.30594 19.213 4.42081 19.2429 4.52963C19.266 4.61547 19.4714 4.48523 19.5457 4.5412C19.669 4.63188 19.6237 4.89029 19.617 5.01742C19.6103 5.11968 19.4956 5.16786 19.3693 5.20448C19.243 5.24024 19.2797 5.21606 19.165 5.23437C19.0503 5.25268 19.0204 5.37221 19.0078 5.44545C18.9962 5.51678 19.0318 5.60159 19.0743 5.64996C19.1168 5.69815 19.2006 5.64409 19.3394 5.64996C19.4783 5.65583 19.4417 5.86691 19.4175 6.09543C19.3935 6.32499 19.1582 6.05967 19.0867 6.05397C19.0135 6.04724 19.0259 6.09543 19.0259 6.13205C19.0259 6.16867 19.08 6.22843 19.1166 6.23431C19.1522 6.24001 19.189 6.27092 19.1947 6.29511C19.2006 6.31929 19.1831 6.37905 19.1349 6.40306C19.0867 6.42725 19.0135 6.48788 19.0259 6.54194C19.0385 6.59601 19.1705 6.57182 19.2612 6.57182C19.3508 6.57182 19.3634 6.50619 19.399 6.50619C19.4356 6.50619 19.5503 6.60257 19.5745 6.63832C19.5987 6.67408 19.6825 6.89777 19.6951 6.93335C19.7067 6.96997 19.7433 6.99985 19.7732 7.01816C19.803 7.03647 19.9177 7.05374 19.9901 7.07223C20.0625 7.09054 20.1532 7.15617 20.1704 7.16861C20.1888 7.18104 20.2369 7.28918 20.2369 7.30749C20.2369 7.3258 20.1406 7.39713 20.1048 7.39713C20.0696 7.39644 20.0214 7.45707 20.0214 7.45707Z" fill="#E0D47C"/>
<path d="M20.0214 7.45707C20.0214 7.45707 20.0754 7.51113 20.1236 7.56606C20.1718 7.62013 20.1121 7.73379 20.1005 7.7521C20.0879 7.77041 19.925 7.74052 19.8594 7.75883C19.7929 7.77627 19.708 7.7647 19.6115 7.69233C19.5151 7.61996 19.5816 7.51113 19.4909 7.46294C19.4002 7.41475 19.1593 7.71081 19.0397 7.89114C18.9183 8.07147 18.8161 8.36062 18.8161 8.36062C18.8161 8.36062 18.7563 8.60176 18.762 8.64995C18.7677 8.69814 18.8826 8.77725 18.9432 8.82545C19.003 8.87364 19.0396 8.94601 19.0328 8.98746C19.027 9.02996 18.9491 9.03566 18.8641 9.06658C18.81 9.08592 18.786 9.12444 18.7734 9.16296C18.7667 9.18421 18.7637 9.20528 18.7618 9.22272C18.7561 9.27092 18.5024 9.37317 18.4243 9.3673C18.3462 9.36143 18.2854 9.27662 18.1775 9.19284C18.0685 9.10889 18.0811 9.17453 18.0203 9.13204C17.9605 9.09059 17.9538 9.02408 17.9961 8.92183C18.0384 8.81957 17.9479 8.46392 17.9237 8.4273C17.8997 8.39155 17.8158 8.34923 17.8158 8.28946C17.8158 8.22866 17.864 8.22296 17.8823 8.20465C17.8995 8.18634 17.9662 8.14488 17.9603 8.06577C17.9536 7.9877 17.888 7.8787 17.888 7.81324C17.888 7.74674 18.075 7.67437 18.1531 7.54136C18.2312 7.40922 18.0201 7.38521 17.888 7.26465C17.755 7.14408 17.6893 6.98793 17.5746 6.93301C17.4599 6.87894 17.4541 6.93974 17.3518 6.98793C17.2487 7.03612 17.2245 7.10746 17.1521 7.16239C17.0798 7.21646 16.9053 7.18657 16.8032 7.16239C16.7001 7.13821 16.5139 7.08431 16.484 7.0717C16.4531 7.0591 16.3933 6.98776 16.2843 6.95701C16.1764 6.92713 16.2843 7.02939 16.2843 7.09589V7.26465C16.2843 7.34272 16.1696 7.39091 16.1465 7.39679C16.1215 7.40352 16.0857 7.30714 16.0251 7.24634C15.9653 7.18657 15.8323 7.20385 15.7724 7.16826C15.7126 7.13251 15.6817 7.02939 15.6817 6.93301C15.6817 6.83662 15.6093 6.89725 15.5554 6.87894C15.5014 6.86063 15.4233 6.81244 15.3925 6.75267C15.3626 6.69187 15.3086 6.58392 15.3086 6.58392C15.3086 6.58392 15.164 6.58392 15.1215 6.57718C15.079 6.57131 14.9894 6.54142 14.9643 6.49323C14.9412 6.44504 14.8747 6.42673 14.8023 6.43243C14.7299 6.43917 14.6577 6.46335 14.5727 6.46335C14.4888 6.46335 14.3501 6.45074 14.3202 6.42086C14.2893 6.39098 14.2594 6.25797 14.2594 6.17972C14.2594 6.10165 14.2112 6.05916 14.1388 6.02357C14.0665 5.98696 14.0126 6.06503 13.9585 6.13153C13.9036 6.19803 13.9884 6.23949 14.0366 6.33017C14.0848 6.42085 14.1696 6.45748 14.1696 6.51137C14.1696 6.56526 13.9642 6.60205 13.9459 6.60775C13.9286 6.61363 13.9286 6.7639 13.9825 6.8247C14.0364 6.88447 14.0606 6.90278 14.0732 6.95097C14.0848 6.99916 14.1031 7.14374 14.0964 7.22181C14.0907 7.29989 14.0124 7.34238 13.9768 7.39057C13.9402 7.43876 13.8379 7.37899 13.6452 7.39057C13.4524 7.40318 13.5604 7.45707 13.5787 7.51787C13.597 7.57763 13.7899 7.72221 13.8139 7.83708C13.8381 7.95177 13.7773 7.99323 13.5913 7.97492C13.4042 7.95764 13.2538 7.77058 13.1931 7.66832C13.1323 7.56606 13.1092 7.64414 13.036 7.66832C12.9646 7.69233 12.9945 7.84278 12.9945 7.9364C12.9945 8.02985 12.928 8.18029 12.8914 8.21018C12.8556 8.24109 12.7169 8.33748 12.6986 8.48205C12.6813 8.62663 12.8798 8.65651 12.9879 8.78295C13.0969 8.90922 13.0671 8.92753 13.0671 8.92753C13.0671 8.92753 12.88 9.04222 12.8202 9.08368C12.7594 9.12617 12.6872 9.24086 12.6689 9.31324C12.6506 9.38561 12.6689 9.49443 12.6689 9.53018C12.6689 9.56594 12.5001 9.63918 12.3556 9.66233C12.211 9.68737 12.2417 9.81364 12.1936 9.93421C12.1454 10.0548 12.1328 10.2658 12.1328 10.2658C12.1328 10.2658 12.1376 10.2696 12.1473 10.2793C12.0932 10.2909 12.049 10.3025 12.0238 10.314C11.9158 10.3612 11.8916 10.3498 11.8916 10.3498C11.8916 10.3498 11.7826 10.2774 11.7778 10.1926C11.7719 10.1087 11.7711 10.127 11.7768 10.0548C11.7826 9.9824 11.717 9.83212 11.6023 9.85527C11.4876 9.88031 11.4335 9.99984 11.391 10.0962C11.3486 10.1926 11.3187 10.2591 11.2705 10.3557C11.2223 10.4521 11.0478 10.5427 11.0053 10.5427C10.9628 10.5427 10.9513 10.507 10.9273 10.4819C10.9033 10.4588 10.6804 10.5186 10.6024 10.6332C10.5232 10.7479 10.6024 10.8443 10.6024 10.8801C10.6024 10.9157 10.5657 11.0855 10.5542 11.1086C10.5416 11.1336 10.3488 11.2475 10.264 11.2176C10.1781 11.1877 10.1501 11.29 10.1377 11.2986C10.1261 11.3072 10.2225 11.3748 10.2524 11.3979C10.2823 11.423 10.2467 11.477 10.2042 11.5696C10.1617 11.6622 10.0239 11.7779 9.95064 11.7904C9.8793 11.8019 9.82437 11.6757 9.8185 11.6159C9.8128 11.5551 9.71624 11.5677 9.64404 11.5793C9.57167 11.5909 9.60155 11.694 9.51674 11.8203C9.43279 11.9465 9.3846 11.8926 9.28252 11.8868C9.1794 11.88 9.17352 11.9408 9.14364 12.1277C9.11376 12.3137 9.18613 12.3264 9.2459 12.441C9.3067 12.5549 9.3789 12.7178 9.2459 12.7062C9.11376 12.6936 8.99337 12.6281 8.92669 12.5915C8.86002 12.5549 8.6258 12.5616 8.57087 12.5732C8.5168 12.5858 8.40211 12.6639 8.34234 12.6938C8.28154 12.7247 8.15528 12.6938 8.10708 12.6098C8.05889 12.525 8.04732 12.4951 8.02227 12.4951C7.99913 12.4951 7.81206 12.5675 7.76974 12.5374C7.72725 12.5065 7.71568 12.4583 7.67906 12.3562C7.64348 12.254 7.46884 12.2839 7.38403 12.308C7.29922 12.3321 7.25776 12.4951 7.25776 12.5549C7.25776 12.6157 7.33584 12.6763 7.35415 12.6763C7.37246 12.6763 7.49199 12.7843 7.50356 12.8325C7.51513 12.8806 7.49872 12.9105 7.35985 13.0195C7.22097 13.1275 7.41098 13.1689 7.41098 13.1689C7.43896 13.2287 7.47748 13.2828 7.49579 13.3453C7.51324 13.4089 7.50443 13.4861 7.45054 13.5246C7.36866 13.5825 7.24705 13.512 7.15654 13.5564C7.10645 13.5814 7.07657 13.6355 7.02734 13.6624C6.96758 13.6942 6.8933 13.6769 6.8325 13.6471C6.7717 13.6172 6.71574 13.5747 6.65131 13.5555C6.58567 13.5362 6.50466 13.5469 6.46804 13.6047C6.42658 13.6683 6.4594 13.7609 6.41881 13.8255C6.38599 13.8766 6.31465 13.892 6.25679 13.8756C6.19789 13.8602 6.1497 13.8187 6.10634 13.7763C6.07646 13.7464 6.04761 13.7155 6.02049 13.6826C6.00218 13.6605 5.98388 13.6382 5.96073 13.621C5.86521 13.5458 5.69939 13.6065 5.67434 13.7251C5.65707 13.808 5.68781 13.917 5.61648 13.9594C5.55671 13.9951 5.4757 13.9486 5.413 13.9787C5.3522 14.0086 5.33976 14.0974 5.28086 14.13C5.2211 14.1637 5.14492 14.1241 5.07738 14.1386C4.99931 14.1561 4.95595 14.239 4.93281 14.316C4.9107 14.3922 4.89515 14.477 4.83728 14.532C4.76215 14.5686 4.65989 14.5214 4.63864 14.4404C4.62897 14.4057 4.63277 14.3672 4.61256 14.3373C4.58078 14.2929 4.50841 14.2977 4.46695 14.3325C4.4255 14.368 4.40615 14.4231 4.38974 14.4751C4.30787 14.4627 4.22495 14.4606 4.14291 14.4684C4.08314 14.4743 4.01854 14.4886 3.98089 14.5349C3.92199 14.6081 3.96828 14.7277 4.05222 14.7702C4.07917 14.7836 4.11113 14.7933 4.1284 14.8183C4.16986 14.8771 4.09852 14.9475 4.06483 15.0111C4.0099 15.1172 4.08418 15.2657 4.20181 15.2849C4.23756 15.2908 4.27419 15.2859 4.3108 15.2897C4.37731 15.2984 4.43707 15.3428 4.46885 15.4015C4.50944 15.4758 4.48906 15.5065 4.41772 15.5442C4.33965 15.5846 4.26831 15.5915 4.23739 15.6917C4.23549 15.6984 4.23359 15.7051 4.23359 15.7119C4.23463 15.735 4.25674 15.7514 4.27798 15.759C4.30009 15.7658 4.32324 15.7668 4.34448 15.7765C4.37817 15.7919 4.40045 15.8314 4.39561 15.8691C4.38301 15.9684 4.26451 16.0446 4.21822 16.1264C4.15362 16.2384 4.1854 16.3347 4.15362 16.4311C4.12184 16.5275 3.98486 16.5681 3.9289 16.5681C3.87207 16.5681 3.80833 16.5121 3.68793 16.4717C3.56737 16.4313 3.55873 16.5121 3.51054 16.5999C3.46425 16.6838 3.43627 16.7676 3.3727 16.8168C3.34576 16.8381 3.3138 16.8535 3.27044 16.8602C3.2492 16.864 3.22795 16.8669 3.20774 16.8621C3.1827 16.8562 3.16231 16.8398 3.14314 16.8244C3.01204 16.7184 3.02551 16.5564 2.9483 16.4156C2.91272 16.3491 2.83551 16.3905 2.72565 16.46C2.688 16.4831 2.64757 16.5101 2.60318 16.5362C2.52891 16.5795 2.45273 16.5873 2.39003 16.5805C2.35048 16.4899 2.31092 16.3994 2.27327 16.3145C2.17101 16.086 2.16531 16.195 2.07463 16.0561C1.98394 15.9173 1.93575 15.6647 1.88756 15.4352C1.83937 15.2058 1.72468 14.6696 1.70637 14.4527C1.68892 14.2357 1.5801 13.3862 1.5801 13.3439C1.5801 13.3025 1.48371 12.7057 1.39407 12.1937C1.30338 11.6807 1.24949 11.4938 1.207 11.0241C1.16451 10.5545 0.935123 10.4215 0.935123 10.4215C0.935123 10.4215 0.93512 10.4215 0.923547 10.3674C0.911974 10.3133 0.905239 10.1688 0.953431 10.1206C1.00162 10.0724 1.06812 10.2045 1.0923 10.2344C1.11631 10.2653 1.207 10.3009 1.26107 10.2653C1.31513 10.2287 1.26107 10.0541 1.26107 9.95977C1.26107 9.86528 1.21857 9.7708 1.18869 9.7708C1.15881 9.7708 1.0923 9.86719 1.0923 9.89707C1.0923 9.92799 1.00162 9.96944 0.90524 9.95787C0.808856 9.94526 0.832866 9.84318 0.784674 9.71C0.736482 9.57786 0.832862 9.47578 0.857044 9.4034C0.881227 9.33103 0.845473 9.21634 0.802981 9.10838C0.76049 8.99938 0.760489 8.89713 0.760489 8.77673C0.760489 8.65617 0.767224 8.69762 0.80868 8.65617C0.851172 8.61368 0.953256 8.66774 1.08643 8.65617C1.21857 8.64356 1.07382 8.4634 1.05655 8.43352C1.03824 8.4026 0.935123 8.30051 0.935123 8.27633C0.935123 8.25215 1.07969 8.16734 1.08643 8.01689C1.09213 7.86644 1.05655 7.91463 0.99005 7.91463C0.923549 7.91463 0.911977 7.9687 0.911977 8.0409C0.911977 8.11328 0.754792 8.23367 0.676717 8.1556C0.597606 8.07752 0.664108 7.99945 0.664108 7.73327C0.664108 7.48263 0.598468 7.12197 0.453028 6.57528C0.446292 6.54643 0.437655 6.51655 0.429882 6.48667C0.266997 5.88988 0.519529 5.50988 0.543711 5.30553C0.545611 5.28533 0.551487 5.26304 0.559088 5.23903C0.638198 5.2342 0.707636 5.20535 0.790546 5.14265C0.911976 5.05196 0.953429 5.08858 1.01423 5.07615C1.07399 5.06457 1.19457 5.22072 1.21287 5.29309C1.23118 5.36547 1.29768 5.34129 1.5205 5.38948C1.74315 5.43767 1.64107 5.40209 1.76734 5.38948C1.89361 5.37791 1.91191 5.2931 1.9361 5.2449C1.96028 5.19671 2.11055 5.16683 2.12886 5.17253C2.14717 5.1784 2.23112 5.20345 2.31213 5.20345C2.39314 5.20345 2.37 5.02795 2.37 5.02795C2.37 5.02795 2.36429 4.99237 2.34011 4.77542C2.31593 4.55847 2.29192 4.66643 2.34011 4.57004C2.3883 4.47366 2.4365 4.50354 2.46638 4.46208C2.49626 4.41959 2.55119 4.33582 2.55706 4.31751C2.56276 4.2992 2.53876 4.22683 2.53288 4.20282C2.52615 4.17864 2.4422 4.13044 2.37 4.02836C2.29762 3.92524 2.36999 3.92524 2.44807 3.8539C2.52614 3.78066 2.58695 3.89536 2.64758 3.95616C2.70734 4.01592 2.74396 4.13061 2.79802 4.23287C2.85209 4.33599 2.88197 4.25688 3.06316 4.23287C3.2435 4.20869 3.2492 4.13062 3.34558 4.02853C3.44197 3.92541 3.44197 3.88396 3.45458 3.86565C3.46719 3.84734 3.58671 3.81158 3.64164 3.72677C3.69553 3.64282 3.63491 3.53401 3.62333 3.45006C3.61176 3.36525 3.55683 3.2756 3.49033 3.14432C3.42469 3.01322 3.31587 3.00942 3.22605 2.96796C3.13537 2.92547 2.99666 2.87728 2.90598 2.75879C2.8153 2.64029 2.94847 2.70869 3.03328 2.70869C3.11723 2.70869 3.2492 2.70282 3.29169 2.61231C3.33401 2.52163 3.43056 2.5275 3.56944 2.48604C3.70831 2.44355 3.70832 2.2748 3.71989 2.24491C3.73146 2.21503 3.81627 2.11191 3.84045 2.07615C3.86446 2.03954 3.90696 2.03953 3.92441 2.03366C3.94271 2.02796 4.32842 2.00965 4.50288 2.00378C4.67838 1.99704 4.61187 1.94298 4.64745 1.89479C4.68407 1.84659 4.64745 1.8041 4.64745 1.75591C4.64745 1.70772 4.4913 1.70772 4.44881 1.69615C4.40632 1.68457 4.07571 1.65953 3.95515 1.67214C3.83458 1.68457 3.88277 1.72033 3.79796 1.7927C3.71401 1.86508 3.6717 1.8592 3.52125 1.85437C3.3708 1.85057 3.41899 1.70202 3.43057 1.65953C3.44214 1.61807 3.54526 1.5457 3.58101 1.50338C3.61763 1.46089 3.64182 1.35293 3.65339 1.28073C3.666 1.20835 3.51555 1.12942 3.50294 1.06948C3.4905 1.00971 3.6774 0.967221 3.74977 0.930602C3.82215 0.895019 4.04583 0.786025 4.0631 0.780152C4.06898 0.778252 4.09005 0.777216 4.11993 0.777216C4.18557 0.777216 4.29163 0.780152 4.35813 0.780152C4.45451 0.780152 4.48543 0.785855 4.55781 0.768582C4.63018 0.750272 4.66576 0.653888 4.68994 0.598787C4.71395 0.544722 4.88859 0.563204 4.9069 0.598787C4.92521 0.635406 4.94352 0.683598 5.02746 0.72609C5.11227 0.768582 5.12385 0.913157 5.10364 0.943039C5.08239 0.972922 5.11815 1.1118 5.10658 1.18987C5.09397 1.26795 5.12385 1.33445 5.17204 1.40095C5.21937 1.46451 5.31178 1.51858 5.44012 1.60443C5.44305 1.60633 5.44685 1.60926 5.44979 1.61116C5.58193 1.70185 5.57035 1.67766 5.66674 1.67766H6.06402C6.19703 1.67766 6.23848 1.76248 6.2751 1.78666C6.31172 1.81084 6.35317 1.93711 6.37148 1.991C6.38979 2.04506 6.45629 2.10569 6.50448 2.14818C6.55268 2.18964 6.99815 2.26875 6.99815 2.26875C6.99815 2.26875 7.13703 2.29293 7.24499 2.30727C7.35398 2.32178 7.57093 2.31694 7.72138 2.30727C7.87183 2.2976 8.5168 2.39502 8.66725 2.40763C8.81856 2.4192 8.80613 2.45582 8.84171 2.49157C8.87833 2.52733 8.90821 2.63045 8.90821 2.69695C8.90821 2.76259 8.87833 2.7866 8.85414 2.81648C8.82996 2.8474 8.7702 2.90717 8.7702 2.97367C8.7702 3.04017 8.98041 3.07592 9.15591 3.12411C9.33036 3.1723 9.39013 3.12411 9.60708 3.06435C9.82403 3.00355 9.73438 2.94966 9.76996 2.90147C9.80572 2.85327 9.90884 2.87728 9.98692 2.86485C10.065 2.85327 10.1132 2.78107 10.1016 2.7144C10.089 2.64876 10.0833 2.53993 10.1016 2.47343C10.1199 2.4078 10.2521 2.43094 10.3186 2.36548C10.3842 2.29897 10.4448 2.0936 10.4448 2.06372C10.4448 2.03383 10.4574 1.88339 10.4873 1.82276C10.5172 1.76299 10.6378 1.81119 10.6561 1.81119C10.6733 1.81119 10.8547 1.73311 10.9145 1.654C10.9753 1.57592 11.0235 1.57593 11.09 1.57005C11.1556 1.56332 11.2827 1.61151 11.3966 1.62412C11.5113 1.63655 11.4997 1.61825 11.6076 1.57005C11.7166 1.52186 11.7108 1.50925 11.8488 1.47937C11.9877 1.44949 12.0599 1.50338 12.1562 1.54587C12.2526 1.58836 12.2227 1.66644 12.2585 1.7262C12.2951 1.787 12.3732 1.80428 12.4089 1.87078C12.4456 1.93728 12.3549 2.03953 12.3549 2.03953C12.3549 2.03953 12.2103 2.03954 12.1379 2.00395C12.0656 1.96733 12.0357 1.97407 11.975 1.97407C11.9153 1.97407 11.921 2.01553 11.9037 2.14179C11.8854 2.2691 12.0415 2.34147 12.0965 2.35978C12.1505 2.37722 12.5304 2.44943 12.7231 2.44943C12.9159 2.44943 12.9999 2.44943 13.0838 2.41954C13.1686 2.38966 13.2951 2.39553 13.4464 2.35304C13.5968 2.31159 13.6084 2.1487 13.6141 2.11208C13.6208 2.0765 13.7587 2.0157 13.8435 1.9492C13.9283 1.88356 14.0787 1.81706 14.1385 1.78148C14.1993 1.74486 14.2532 1.88373 14.2532 1.9435C14.2532 2.0043 14.2774 2.06406 14.3256 2.13056C14.3738 2.19707 14.4701 2.05819 14.5482 2.05249C14.6263 2.04575 14.6812 2.12486 14.741 2.17306C14.8018 2.22125 14.874 2.25113 15.0371 2.28101C15.1991 2.3109 15.2955 2.29362 15.3746 2.28101C15.4526 2.2684 15.5008 2.16045 15.5008 2.0708C15.5008 1.98011 15.5307 1.91949 15.549 1.90118C15.5673 1.8839 15.8016 1.90791 15.8865 1.90791C15.9705 1.90791 16.0494 1.87129 16.1092 1.83554C16.169 1.79892 16.169 1.75073 16.169 1.69096C16.169 1.63016 16.2596 1.61185 16.3078 1.58871C16.356 1.56366 16.4042 1.64847 16.4467 1.72171C16.4892 1.79495 16.5065 1.74486 16.6395 1.72655C16.7725 1.70824 16.8381 1.74486 16.9076 1.75643C16.977 1.76904 16.9076 1.91845 16.9076 1.91845C16.9606 1.97442 17.0001 2.04282 17.0609 2.08997C17.1217 2.13626 17.2181 2.15077 17.2693 2.09377C17.2876 2.07356 17.2972 2.04662 17.3117 2.02347C17.3465 1.96664 17.4081 1.92709 17.4746 1.92225C17.5403 1.91741 17.6087 1.9454 17.651 1.99549C17.6779 2.02831 17.6954 2.06976 17.7261 2.09965C17.7869 2.16045 17.8978 2.15941 17.9576 2.09775C17.9711 2.08427 17.9826 2.06786 17.999 2.05819C18.0184 2.04852 18.0405 2.04852 18.0617 2.04955C18.107 2.05059 18.1533 2.05249 18.1987 2.05335C18.2151 2.05439 18.2324 2.05439 18.2479 2.04852C18.2673 2.03988 18.2808 2.02347 18.2951 2.0081C18.3858 1.90774 18.5255 1.85281 18.6615 1.86542C18.6932 1.86836 18.7271 1.8751 18.7502 1.89721C18.7734 1.91845 18.7831 1.9492 18.7976 1.97632C18.8197 2.01397 18.8535 2.04472 18.894 2.06113C18.918 2.07166 18.9461 2.07754 18.9634 2.09878C18.9865 2.12866 18.975 2.17116 18.9701 2.20967C18.9605 2.27721 18.9769 2.34855 19.0135 2.40538C19.0259 2.42559 19.0425 2.44493 19.0636 2.45651C19.0809 2.46514 19.1002 2.46912 19.1185 2.47292C19.1821 2.48449 19.2332 2.49416 19.2949 2.48553C19.3538 2.47689 19.4134 2.48656 19.4693 2.50194C19.5657 2.52888 19.6564 2.58381 19.721 2.66016C19.7326 2.6726 19.7422 2.68607 19.7519 2.69972C19.7433 2.71993 19.7336 2.74013 19.725 2.75948C19.6768 2.86363 19.6402 2.85983 19.5621 2.88384C19.484 2.90785 19.3693 2.90785 19.2372 2.99284C19.1042 3.07679 19.189 3.20305 19.189 3.28786C19.189 3.37268 19.2487 3.55888 19.2671 3.6012C19.2854 3.64369 19.4175 3.63678 19.4598 3.64939C19.5023 3.662 19.5438 3.83645 19.5562 3.89622C19.5688 3.95702 19.5688 4.1738 19.508 4.22786C19.4472 4.28193 19.4415 4.23374 19.2728 4.27036C19.104 4.30594 19.213 4.42081 19.2429 4.52963C19.266 4.61547 19.4714 4.48523 19.5457 4.5412C19.669 4.63188 19.6237 4.89029 19.617 5.01742C19.6103 5.11968 19.4956 5.16786 19.3693 5.20448C19.243 5.24024 19.2797 5.21606 19.165 5.23437C19.0503 5.25268 19.0204 5.37221 19.0078 5.44545C18.9962 5.51678 19.0318 5.60159 19.0743 5.64996C19.1168 5.69815 19.2006 5.64409 19.3394 5.64996C19.4783 5.65583 19.4417 5.86691 19.4175 6.09543C19.3935 6.32499 19.1582 6.05967 19.0867 6.05397C19.0135 6.04724 19.0259 6.09543 19.0259 6.13205C19.0259 6.16867 19.08 6.22843 19.1166 6.23431C19.1522 6.24001 19.189 6.27092 19.1947 6.29511C19.2006 6.31929 19.1831 6.37905 19.1349 6.40306C19.0867 6.42725 19.0135 6.48788 19.0259 6.54194C19.0385 6.59601 19.1705 6.57182 19.2612 6.57182C19.3508 6.57182 19.3634 6.50619 19.399 6.50619C19.4356 6.50619 19.5503 6.60257 19.5745 6.63832C19.5987 6.67408 19.6825 6.89777 19.6951 6.93335C19.7067 6.96997 19.7433 6.99985 19.7732 7.01816C19.803 7.03647 19.9177 7.05374 19.9901 7.07223C20.0625 7.09054 20.1532 7.15617 20.1704 7.16861C20.1888 7.18104 20.2369 7.28918 20.2369 7.30749C20.2369 7.3258 20.1406 7.39713 20.1048 7.39713C20.0696 7.39644 20.0214 7.45707 20.0214 7.45707Z" fill="url(#paint0_linear_1571_9856)"/>
<path d="M20.0214 7.45707C20.0214 7.45707 20.0754 7.51113 20.1236 7.56606C20.1718 7.62013 20.1121 7.73379 20.1005 7.7521C20.0879 7.77041 19.925 7.74052 19.8594 7.75883C19.7929 7.77627 19.708 7.7647 19.6115 7.69233C19.5151 7.61996 19.5816 7.51113 19.4909 7.46294C19.4002 7.41475 19.1593 7.71081 19.0397 7.89114C18.9183 8.07147 18.8161 8.36062 18.8161 8.36062C18.8161 8.36062 18.7563 8.60176 18.762 8.64995C18.7677 8.69814 18.8826 8.77725 18.9432 8.82545C19.003 8.87364 19.0396 8.94601 19.0328 8.98746C19.027 9.02996 18.9491 9.03566 18.8641 9.06658C18.81 9.08592 18.786 9.12444 18.7734 9.16296C18.7667 9.18421 18.7637 9.20528 18.7618 9.22272C18.7561 9.27092 18.5024 9.37317 18.4243 9.3673C18.3462 9.36143 18.2854 9.27662 18.1775 9.19284C18.0685 9.10889 18.0811 9.17453 18.0203 9.13204C17.9605 9.09059 17.9538 9.02408 17.9961 8.92183C18.0384 8.81957 17.9479 8.46392 17.9237 8.4273C17.8997 8.39155 17.8158 8.34923 17.8158 8.28946C17.8158 8.22866 17.864 8.22296 17.8823 8.20465C17.8995 8.18634 17.9662 8.14488 17.9603 8.06577C17.9536 7.9877 17.888 7.8787 17.888 7.81324C17.888 7.74674 18.075 7.67437 18.1531 7.54136C18.2312 7.40922 18.0201 7.38521 17.888 7.26465C17.755 7.14408 17.6893 6.98793 17.5746 6.93301C17.4599 6.87894 17.4541 6.93974 17.3518 6.98793C17.2487 7.03612 17.2245 7.10746 17.1521 7.16239C17.0798 7.21646 16.9053 7.18657 16.8032 7.16239C16.7001 7.13821 16.5139 7.08431 16.484 7.0717C16.4531 7.0591 16.3933 6.98776 16.2843 6.95701C16.1764 6.92713 16.2843 7.02939 16.2843 7.09589V7.26465C16.2843 7.34272 16.1696 7.39091 16.1465 7.39679C16.1215 7.40352 16.0857 7.30714 16.0251 7.24634C15.9653 7.18657 15.8323 7.20385 15.7724 7.16826C15.7126 7.13251 15.6817 7.02939 15.6817 6.93301C15.6817 6.83662 15.6093 6.89725 15.5554 6.87894C15.5014 6.86063 15.4233 6.81244 15.3925 6.75267C15.3626 6.69187 15.3086 6.58392 15.3086 6.58392C15.3086 6.58392 15.164 6.58392 15.1215 6.57718C15.079 6.57131 14.9894 6.54142 14.9643 6.49323C14.9412 6.44504 14.8747 6.42673 14.8023 6.43243C14.7299 6.43917 14.6577 6.46335 14.5727 6.46335C14.4888 6.46335 14.3501 6.45074 14.3202 6.42086C14.2893 6.39098 14.2594 6.25797 14.2594 6.17972C14.2594 6.10165 14.2112 6.05916 14.1388 6.02357C14.0665 5.98696 14.0126 6.06503 13.9585 6.13153C13.9036 6.19803 13.9884 6.23949 14.0366 6.33017C14.0848 6.42085 14.1696 6.45748 14.1696 6.51137C14.1696 6.56526 13.9642 6.60205 13.9459 6.60775C13.9286 6.61363 13.9286 6.7639 13.9825 6.8247C14.0364 6.88447 14.0606 6.90278 14.0732 6.95097C14.0848 6.99916 14.1031 7.14374 14.0964 7.22181C14.0907 7.29989 14.0124 7.34238 13.9768 7.39057C13.9402 7.43876 13.8379 7.37899 13.6452 7.39057C13.4524 7.40318 13.5604 7.45707 13.5787 7.51787C13.597 7.57763 13.7899 7.72221 13.8139 7.83708C13.8381 7.95177 13.7773 7.99323 13.5913 7.97492C13.4042 7.95764 13.2538 7.77058 13.1931 7.66832C13.1323 7.56606 13.1092 7.64414 13.036 7.66832C12.9646 7.69233 12.9945 7.84278 12.9945 7.9364C12.9945 8.02985 12.928 8.18029 12.8914 8.21018C12.8556 8.24109 12.7169 8.33748 12.6986 8.48205C12.6813 8.62663 12.8798 8.65651 12.9879 8.78295C13.0969 8.90922 13.0671 8.92753 13.0671 8.92753C13.0671 8.92753 12.88 9.04222 12.8202 9.08368C12.7594 9.12617 12.6872 9.24086 12.6689 9.31324C12.6506 9.38561 12.6689 9.49443 12.6689 9.53018C12.6689 9.56594 12.5001 9.63918 12.3556 9.66233C12.211 9.68737 12.2417 9.81364 12.1936 9.93421C12.1454 10.0548 12.1328 10.2658 12.1328 10.2658C12.1328 10.2658 12.1376 10.2696 12.1473 10.2793C12.0932 10.2909 12.049 10.3025 12.0238 10.314C11.9158 10.3612 11.8916 10.3498 11.8916 10.3498C11.8916 10.3498 11.7826 10.2774 11.7778 10.1926C11.7719 10.1087 11.7711 10.127 11.7768 10.0548C11.7826 9.9824 11.717 9.83212 11.6023 9.85527C11.4876 9.88031 11.4335 9.99984 11.391 10.0962C11.3486 10.1926 11.3187 10.2591 11.2705 10.3557C11.2223 10.4521 11.0478 10.5427 11.0053 10.5427C10.9628 10.5427 10.9513 10.507 10.9273 10.4819C10.9033 10.4588 10.6804 10.5186 10.6024 10.6332C10.5232 10.7479 10.6024 10.8443 10.6024 10.8801C10.6024 10.9157 10.5657 11.0855 10.5542 11.1086C10.5416 11.1336 10.3488 11.2475 10.264 11.2176C10.1781 11.1877 10.1501 11.29 10.1377 11.2986C10.1261 11.3072 10.2225 11.3748 10.2524 11.3979C10.2823 11.423 10.2467 11.477 10.2042 11.5696C10.1617 11.6622 10.0239 11.7779 9.95064 11.7904C9.8793 11.8019 9.82437 11.6757 9.8185 11.6159C9.8128 11.5551 9.71624 11.5677 9.64404 11.5793C9.57167 11.5909 9.60155 11.694 9.51674 11.8203C9.43279 11.9465 9.3846 11.8926 9.28252 11.8868C9.1794 11.88 9.17352 11.9408 9.14364 12.1277C9.11376 12.3137 9.18613 12.3264 9.2459 12.441C9.3067 12.5549 9.3789 12.7178 9.2459 12.7062C9.11376 12.6936 8.99337 12.6281 8.92669 12.5915C8.86002 12.5549 8.6258 12.5616 8.57087 12.5732C8.5168 12.5858 8.40211 12.6639 8.34234 12.6938C8.28154 12.7247 8.15528 12.6938 8.10708 12.6098C8.05889 12.525 8.04732 12.4951 8.02227 12.4951C7.99913 12.4951 7.81206 12.5675 7.76974 12.5374C7.72725 12.5065 7.71568 12.4583 7.67906 12.3562C7.64348 12.254 7.46884 12.2839 7.38403 12.308C7.29922 12.3321 7.25776 12.4951 7.25776 12.5549C7.25776 12.6157 7.33584 12.6763 7.35415 12.6763C7.37246 12.6763 7.49199 12.7843 7.50356 12.8325C7.51513 12.8806 7.49872 12.9105 7.35985 13.0195C7.22097 13.1275 7.41098 13.1689 7.41098 13.1689C7.43896 13.2287 7.47748 13.2828 7.49579 13.3453C7.51324 13.4089 7.50443 13.4861 7.45054 13.5246C7.36866 13.5825 7.24705 13.512 7.15654 13.5564C7.10645 13.5814 7.07657 13.6355 7.02734 13.6624C6.96758 13.6942 6.8933 13.6769 6.8325 13.6471C6.7717 13.6172 6.71574 13.5747 6.65131 13.5555C6.58567 13.5362 6.50466 13.5469 6.46804 13.6047C6.42658 13.6683 6.4594 13.7609 6.41881 13.8255C6.38599 13.8766 6.31465 13.892 6.25679 13.8756C6.19789 13.8602 6.1497 13.8187 6.10634 13.7763C6.07646 13.7464 6.04761 13.7155 6.02049 13.6826C6.00218 13.6605 5.98388 13.6382 5.96073 13.621C5.86521 13.5458 5.69939 13.6065 5.67434 13.7251C5.65707 13.808 5.68781 13.917 5.61648 13.9594C5.55671 13.9951 5.4757 13.9486 5.413 13.9787C5.3522 14.0086 5.33976 14.0974 5.28086 14.13C5.2211 14.1637 5.14492 14.1241 5.07738 14.1386C4.99931 14.1561 4.95595 14.239 4.93281 14.316C4.9107 14.3922 4.89515 14.477 4.83728 14.532C4.76215 14.5686 4.65989 14.5214 4.63864 14.4404C4.62897 14.4057 4.63277 14.3672 4.61256 14.3373C4.58078 14.2929 4.50841 14.2977 4.46695 14.3325C4.4255 14.368 4.40615 14.4231 4.38974 14.4751C4.30787 14.4627 4.22495 14.4606 4.14291 14.4684C4.08314 14.4743 4.01854 14.4886 3.98089 14.5349C3.92199 14.6081 3.96828 14.7277 4.05222 14.7702C4.07917 14.7836 4.11113 14.7933 4.1284 14.8183C4.16986 14.8771 4.09852 14.9475 4.06483 15.0111C4.0099 15.1172 4.08418 15.2657 4.20181 15.2849C4.23756 15.2908 4.27419 15.2859 4.3108 15.2897C4.37731 15.2984 4.43707 15.3428 4.46885 15.4015C4.50944 15.4758 4.48906 15.5065 4.41772 15.5442C4.33965 15.5846 4.26831 15.5915 4.23739 15.6917C4.23549 15.6984 4.23359 15.7051 4.23359 15.7119C4.23463 15.735 4.25674 15.7514 4.27798 15.759C4.30009 15.7658 4.32324 15.7668 4.34448 15.7765C4.37817 15.7919 4.40045 15.8314 4.39561 15.8691C4.38301 15.9684 4.26451 16.0446 4.21822 16.1264C4.15362 16.2384 4.1854 16.3347 4.15362 16.4311C4.12184 16.5275 3.98486 16.5681 3.9289 16.5681C3.87207 16.5681 3.80833 16.5121 3.68793 16.4717C3.56737 16.4313 3.55873 16.5121 3.51054 16.5999C3.46425 16.6838 3.43627 16.7676 3.3727 16.8168C3.34576 16.8381 3.3138 16.8535 3.27044 16.8602C3.2492 16.864 3.22795 16.8669 3.20774 16.8621C3.1827 16.8562 3.16231 16.8398 3.14314 16.8244C3.01204 16.7184 3.02551 16.5564 2.9483 16.4156C2.91272 16.3491 2.83551 16.3905 2.72565 16.46C2.688 16.4831 2.64757 16.5101 2.60318 16.5362C2.52891 16.5795 2.45273 16.5873 2.39003 16.5805C2.35048 16.4899 2.31092 16.3994 2.27327 16.3145C2.17101 16.086 2.16531 16.195 2.07463 16.0561C1.98394 15.9173 1.93575 15.6647 1.88756 15.4352C1.83937 15.2058 1.72468 14.6696 1.70637 14.4527C1.68892 14.2357 1.5801 13.3862 1.5801 13.3439C1.5801 13.3025 1.48371 12.7057 1.39407 12.1937C1.30338 11.6807 1.24949 11.4938 1.207 11.0241C1.16451 10.5545 0.935123 10.4215 0.935123 10.4215C0.935123 10.4215 0.93512 10.4215 0.923547 10.3674C0.911974 10.3133 0.905239 10.1688 0.953431 10.1206C1.00162 10.0724 1.06812 10.2045 1.0923 10.2344C1.11631 10.2653 1.207 10.3009 1.26107 10.2653C1.31513 10.2287 1.26107 10.0541 1.26107 9.95977C1.26107 9.86528 1.21857 9.7708 1.18869 9.7708C1.15881 9.7708 1.0923 9.86719 1.0923 9.89707C1.0923 9.92799 1.00162 9.96944 0.90524 9.95787C0.808856 9.94526 0.832866 9.84318 0.784674 9.71C0.736482 9.57786 0.832862 9.47578 0.857044 9.4034C0.881227 9.33103 0.845473 9.21634 0.802981 9.10838C0.76049 8.99938 0.760489 8.89713 0.760489 8.77673C0.760489 8.65617 0.767224 8.69762 0.80868 8.65617C0.851172 8.61368 0.953256 8.66774 1.08643 8.65617C1.21857 8.64356 1.07382 8.4634 1.05655 8.43352C1.03824 8.4026 0.935123 8.30051 0.935123 8.27633C0.935123 8.25215 1.07969 8.16734 1.08643 8.01689C1.09213 7.86644 1.05655 7.91463 0.99005 7.91463C0.923549 7.91463 0.911977 7.9687 0.911977 8.0409C0.911977 8.11328 0.754792 8.23367 0.676717 8.1556C0.597606 8.07752 0.664108 7.99945 0.664108 7.73327C0.664108 7.48263 0.598468 7.12197 0.453028 6.57528C0.446292 6.54643 0.437655 6.51655 0.429882 6.48667C0.266997 5.88988 0.519529 5.50988 0.543711 5.30553C0.545611 5.28533 0.551487 5.26304 0.559088 5.23903C0.638198 5.2342 0.707636 5.20535 0.790546 5.14265C0.911976 5.05196 0.953429 5.08858 1.01423 5.07615C1.07399 5.06457 1.19457 5.22072 1.21287 5.29309C1.23118 5.36547 1.29768 5.34129 1.5205 5.38948C1.74315 5.43767 1.64107 5.40209 1.76734 5.38948C1.89361 5.37791 1.91191 5.2931 1.9361 5.2449C1.96028 5.19671 2.11055 5.16683 2.12886 5.17253C2.14717 5.1784 2.23112 5.20345 2.31213 5.20345C2.39314 5.20345 2.37 5.02795 2.37 5.02795C2.37 5.02795 2.36429 4.99237 2.34011 4.77542C2.31593 4.55847 2.29192 4.66643 2.34011 4.57004C2.3883 4.47366 2.4365 4.50354 2.46638 4.46208C2.49626 4.41959 2.55119 4.33582 2.55706 4.31751C2.56276 4.2992 2.53876 4.22683 2.53288 4.20282C2.52615 4.17864 2.4422 4.13044 2.37 4.02836C2.29762 3.92524 2.36999 3.92524 2.44807 3.8539C2.52614 3.78066 2.58695 3.89536 2.64758 3.95616C2.70734 4.01592 2.74396 4.13061 2.79802 4.23287C2.85209 4.33599 2.88197 4.25688 3.06316 4.23287C3.2435 4.20869 3.2492 4.13062 3.34558 4.02853C3.44197 3.92541 3.44197 3.88396 3.45458 3.86565C3.46719 3.84734 3.58671 3.81158 3.64164 3.72677C3.69553 3.64282 3.63491 3.53401 3.62333 3.45006C3.61176 3.36525 3.55683 3.2756 3.49033 3.14432C3.42469 3.01322 3.31587 3.00942 3.22605 2.96796C3.13537 2.92547 2.99666 2.87728 2.90598 2.75879C2.8153 2.64029 2.94847 2.70869 3.03328 2.70869C3.11723 2.70869 3.2492 2.70282 3.29169 2.61231C3.33401 2.52163 3.43056 2.5275 3.56944 2.48604C3.70831 2.44355 3.70832 2.2748 3.71989 2.24491C3.73146 2.21503 3.81627 2.11191 3.84045 2.07615C3.86446 2.03954 3.90696 2.03953 3.92441 2.03366C3.94271 2.02796 4.32842 2.00965 4.50288 2.00378C4.67838 1.99704 4.61187 1.94298 4.64745 1.89479C4.68407 1.84659 4.64745 1.8041 4.64745 1.75591C4.64745 1.70772 4.4913 1.70772 4.44881 1.69615C4.40632 1.68457 4.07571 1.65953 3.95515 1.67214C3.83458 1.68457 3.88277 1.72033 3.79796 1.7927C3.71401 1.86508 3.6717 1.8592 3.52125 1.85437C3.3708 1.85057 3.41899 1.70202 3.43057 1.65953C3.44214 1.61807 3.54526 1.5457 3.58101 1.50338C3.61763 1.46089 3.64182 1.35293 3.65339 1.28073C3.666 1.20835 3.51555 1.12942 3.50294 1.06948C3.4905 1.00971 3.6774 0.967221 3.74977 0.930602C3.82215 0.895019 4.04583 0.786025 4.0631 0.780152C4.06898 0.778252 4.09005 0.777216 4.11993 0.777216C4.18557 0.777216 4.29163 0.780152 4.35813 0.780152C4.45451 0.780152 4.48543 0.785855 4.55781 0.768582C4.63018 0.750272 4.66576 0.653888 4.68994 0.598787C4.71395 0.544722 4.88859 0.563204 4.9069 0.598787C4.92521 0.635406 4.94352 0.683598 5.02746 0.72609C5.11227 0.768582 5.12385 0.913157 5.10364 0.943039C5.08239 0.972922 5.11815 1.1118 5.10658 1.18987C5.09397 1.26795 5.12385 1.33445 5.17204 1.40095C5.21937 1.46451 5.31178 1.51858 5.44012 1.60443C5.44305 1.60633 5.44685 1.60926 5.44979 1.61116C5.58193 1.70185 5.57035 1.67766 5.66674 1.67766H6.06402C6.19703 1.67766 6.23848 1.76248 6.2751 1.78666C6.31172 1.81084 6.35317 1.93711 6.37148 1.991C6.38979 2.04506 6.45629 2.10569 6.50448 2.14818C6.55268 2.18964 6.99815 2.26875 6.99815 2.26875C6.99815 2.26875 7.13703 2.29293 7.24499 2.30727C7.35398 2.32178 7.57093 2.31694 7.72138 2.30727C7.87183 2.2976 8.5168 2.39502 8.66725 2.40763C8.81856 2.4192 8.80613 2.45582 8.84171 2.49157C8.87833 2.52733 8.90821 2.63045 8.90821 2.69695C8.90821 2.76259 8.87833 2.7866 8.85414 2.81648C8.82996 2.8474 8.7702 2.90717 8.7702 2.97367C8.7702 3.04017 8.98041 3.07592 9.15591 3.12411C9.33036 3.1723 9.39013 3.12411 9.60708 3.06435C9.82403 3.00355 9.73438 2.94966 9.76996 2.90147C9.80572 2.85327 9.90884 2.87728 9.98692 2.86485C10.065 2.85327 10.1132 2.78107 10.1016 2.7144C10.089 2.64876 10.0833 2.53993 10.1016 2.47343C10.1199 2.4078 10.2521 2.43094 10.3186 2.36548C10.3842 2.29897 10.4448 2.0936 10.4448 2.06372C10.4448 2.03383 10.4574 1.88339 10.4873 1.82276C10.5172 1.76299 10.6378 1.81119 10.6561 1.81119C10.6733 1.81119 10.8547 1.73311 10.9145 1.654C10.9753 1.57592 11.0235 1.57593 11.09 1.57005C11.1556 1.56332 11.2827 1.61151 11.3966 1.62412C11.5113 1.63655 11.4997 1.61825 11.6076 1.57005C11.7166 1.52186 11.7108 1.50925 11.8488 1.47937C11.9877 1.44949 12.0599 1.50338 12.1562 1.54587C12.2526 1.58836 12.2227 1.66644 12.2585 1.7262C12.2951 1.787 12.3732 1.80428 12.4089 1.87078C12.4456 1.93728 12.3549 2.03953 12.3549 2.03953C12.3549 2.03953 12.2103 2.03954 12.1379 2.00395C12.0656 1.96733 12.0357 1.97407 11.975 1.97407C11.9153 1.97407 11.921 2.01553 11.9037 2.14179C11.8854 2.2691 12.0415 2.34147 12.0965 2.35978C12.1505 2.37722 12.5304 2.44943 12.7231 2.44943C12.9159 2.44943 12.9999 2.44943 13.0838 2.41954C13.1686 2.38966 13.2951 2.39553 13.4464 2.35304C13.5968 2.31159 13.6084 2.1487 13.6141 2.11208C13.6208 2.0765 13.7587 2.0157 13.8435 1.9492C13.9283 1.88356 14.0787 1.81706 14.1385 1.78148C14.1993 1.74486 14.2532 1.88373 14.2532 1.9435C14.2532 2.0043 14.2774 2.06406 14.3256 2.13056C14.3738 2.19707 14.4701 2.05819 14.5482 2.05249C14.6263 2.04575 14.6812 2.12486 14.741 2.17306C14.8018 2.22125 14.874 2.25113 15.0371 2.28101C15.1991 2.3109 15.2955 2.29362 15.3746 2.28101C15.4526 2.2684 15.5008 2.16045 15.5008 2.0708C15.5008 1.98011 15.5307 1.91949 15.549 1.90118C15.5673 1.8839 15.8016 1.90791 15.8865 1.90791C15.9705 1.90791 16.0494 1.87129 16.1092 1.83554C16.169 1.79892 16.169 1.75073 16.169 1.69096C16.169 1.63016 16.2596 1.61185 16.3078 1.58871C16.356 1.56366 16.4042 1.64847 16.4467 1.72171C16.4892 1.79495 16.5065 1.74486 16.6395 1.72655C16.7725 1.70824 16.8381 1.74486 16.9076 1.75643C16.977 1.76904 16.9076 1.91845 16.9076 1.91845C16.9606 1.97442 17.0001 2.04282 17.0609 2.08997C17.1217 2.13626 17.2181 2.15077 17.2693 2.09377C17.2876 2.07356 17.2972 2.04662 17.3117 2.02347C17.3465 1.96664 17.4081 1.92709 17.4746 1.92225C17.5403 1.91741 17.6087 1.9454 17.651 1.99549C17.6779 2.02831 17.6954 2.06976 17.7261 2.09965C17.7869 2.16045 17.8978 2.15941 17.9576 2.09775C17.9711 2.08427 17.9826 2.06786 17.999 2.05819C18.0184 2.04852 18.0405 2.04852 18.0617 2.04955C18.107 2.05059 18.1533 2.05249 18.1987 2.05335C18.2151 2.05439 18.2324 2.05439 18.2479 2.04852C18.2673 2.03988 18.2808 2.02347 18.2951 2.0081C18.3858 1.90774 18.5255 1.85281 18.6615 1.86542C18.6932 1.86836 18.7271 1.8751 18.7502 1.89721C18.7734 1.91845 18.7831 1.9492 18.7976 1.97632C18.8197 2.01397 18.8535 2.04472 18.894 2.06113C18.918 2.07166 18.9461 2.07754 18.9634 2.09878C18.9865 2.12866 18.975 2.17116 18.9701 2.20967C18.9605 2.27721 18.9769 2.34855 19.0135 2.40538C19.0259 2.42559 19.0425 2.44493 19.0636 2.45651C19.0809 2.46514 19.1002 2.46912 19.1185 2.47292C19.1821 2.48449 19.2332 2.49416 19.2949 2.48553C19.3538 2.47689 19.4134 2.48656 19.4693 2.50194C19.5657 2.52888 19.6564 2.58381 19.721 2.66016C19.7326 2.6726 19.7422 2.68607 19.7519 2.69972C19.7433 2.71993 19.7336 2.74013 19.725 2.75948C19.6768 2.86363 19.6402 2.85983 19.5621 2.88384C19.484 2.90785 19.3693 2.90785 19.2372 2.99284C19.1042 3.07679 19.189 3.20305 19.189 3.28786C19.189 3.37268 19.2487 3.55888 19.2671 3.6012C19.2854 3.64369 19.4175 3.63678 19.4598 3.64939C19.5023 3.662 19.5438 3.83645 19.5562 3.89622C19.5688 3.95702 19.5688 4.1738 19.508 4.22786C19.4472 4.28193 19.4415 4.23374 19.2728 4.27036C19.104 4.30594 19.213 4.42081 19.2429 4.52963C19.266 4.61547 19.4714 4.48523 19.5457 4.5412C19.669 4.63188 19.6237 4.89029 19.617 5.01742C19.6103 5.11968 19.4956 5.16786 19.3693 5.20448C19.243 5.24024 19.2797 5.21606 19.165 5.23437C19.0503 5.25268 19.0204 5.37221 19.0078 5.44545C18.9962 5.51678 19.0318 5.60159 19.0743 5.64996C19.1168 5.69815 19.2006 5.64409 19.3394 5.64996C19.4783 5.65583 19.4417 5.86691 19.4175 6.09543C19.3935 6.32499 19.1582 6.05967 19.0867 6.05397C19.0135 6.04724 19.0259 6.09543 19.0259 6.13205C19.0259 6.16867 19.08 6.22843 19.1166 6.23431C19.1522 6.24001 19.189 6.27092 19.1947 6.29511C19.2006 6.31929 19.1831 6.37905 19.1349 6.40306C19.0867 6.42725 19.0135 6.48788 19.0259 6.54194C19.0385 6.59601 19.1705 6.57182 19.2612 6.57182C19.3508 6.57182 19.3634 6.50619 19.399 6.50619C19.4356 6.50619 19.5503 6.60257 19.5745 6.63832C19.5987 6.67408 19.6825 6.89777 19.6951 6.93335C19.7067 6.96997 19.7433 6.99985 19.7732 7.01816C19.803 7.03647 19.9177 7.05374 19.9901 7.07223C20.0625 7.09054 20.1532 7.15617 20.1704 7.16861C20.1888 7.18104 20.2369 7.28918 20.2369 7.30749C20.2369 7.3258 20.1406 7.39713 20.1048 7.39713C20.0696 7.39644 20.0214 7.45707 20.0214 7.45707Z" stroke="#510A32" stroke-width="0.378007" mask="url(#path-1-inside-1_1571_9856)"/>
<defs>
<linearGradient id="paint0_linear_1571_9856" x1="10.306" y1="-12.2862" x2="10.306" y2="95.1502" gradientUnits="userSpaceOnUse">
<stop stop-color="#FF984F"/>
<stop offset="0.2978" stop-color="#F37A56"/>
<stop offset="0.9428" stop-color="#D42F67"/>
<stop offset="1" stop-color="#D12869"/>
</linearGradient>
</defs>
</svg>
