<svg width="22" height="43" viewBox="0 0 22 43" fill="none" xmlns="http://www.w3.org/2000/svg">
<path d="M18.2978 43L3.68832 42.9913C1.93129 42.9903 0.507455 41.5654 0.507813 39.8083L0.514965 3.18183C0.515322 1.42372 1.94107 -0.000953199 3.69917 4.78514e-07L18.3088 0.00858363C20.0659 0.00965652 21.4897 1.43457 21.4893 3.1916L21.4822 39.8181C21.4818 41.5763 20.0559 43.0011 18.2978 43Z" fill="#455A64"/>
<path d="M18.2607 1.31327L15.4282 1.3116C15.0484 1.31148 14.7402 1.63323 14.7402 2.0302L14.74 2.54399C14.74 2.94108 14.432 3.26283 14.0522 3.26259L8.53085 3.25937C8.15105 3.25913 7.84313 2.93703 7.84313 2.53994L7.84325 2.02614C7.84325 1.62906 7.53533 1.30695 7.15553 1.30671L6.15941 1.30612L3.68021 1.30469C2.44901 1.30397 1.45039 2.30176 1.45015 3.53307L1.44336 39.2831C1.44312 40.5138 2.44019 41.5117 3.67079 41.5124L18.2512 41.5209C19.4824 41.5216 20.4809 40.5238 20.4813 39.2926L20.4883 3.54249C20.4884 2.31189 19.4913 1.31399 18.2607 1.31327Z" fill="white"/>
<path d="M3.43229 5.67056C3.41859 5.67056 3.40488 5.66579 3.39379 5.65602L2.83827 5.16881C2.8254 5.15748 2.81813 5.14115 2.81837 5.12399C2.8186 5.10694 2.82623 5.09073 2.83947 5.07988L3.39498 4.61806C3.4199 4.59732 3.45673 4.60078 3.47736 4.62557C3.4981 4.65037 3.49464 4.68732 3.46985 4.70794L2.96702 5.12601L3.47104 5.56804C3.49536 5.58938 3.49774 5.62634 3.47652 5.65054C3.46472 5.66377 3.44851 5.67056 3.43229 5.67056Z" fill="#263238"/>
<path d="M8.50741 5.51006H8.1598L8.09352 5.67051H7.91602L8.24968 4.92188H8.42087L8.75561 5.67051H8.57382L8.50741 5.51006ZM8.45294 5.37857L8.3342 5.09187L8.21547 5.37857H8.45294Z" fill="#263238"/>
<path d="M9.4022 4.87793V5.67151H9.24281V5.60523C9.20109 5.65541 9.14017 5.68009 9.06316 5.68009C8.90056 5.68009 8.77539 5.56458 8.77539 5.38386C8.77539 5.20313 8.90056 5.08762 9.06316 5.08762C9.13374 5.08762 9.19358 5.11003 9.2353 5.15712V4.87793H9.4022ZM9.23852 5.38374C9.23852 5.28432 9.17439 5.22435 9.09201 5.22435C9.00857 5.22435 8.94443 5.2842 8.94443 5.38374C8.94443 5.48328 9.00857 5.54312 9.09201 5.54312C9.17439 5.54312 9.23852 5.48328 9.23852 5.38374Z" fill="#263238"/>
<path d="M10.1423 4.87793V5.67151H9.98305V5.60523C9.94132 5.65541 9.88041 5.68009 9.8034 5.68009C9.6408 5.68009 9.51562 5.56458 9.51562 5.38386C9.51562 5.20313 9.6408 5.08762 9.8034 5.08762C9.87397 5.08762 9.93381 5.11003 9.97554 5.15712V4.87793H10.1423ZM9.97864 5.38374C9.97864 5.28432 9.9145 5.22435 9.83213 5.22435C9.74868 5.22435 9.68455 5.2842 9.68455 5.38374C9.68455 5.48328 9.74868 5.54312 9.83213 5.54312C9.9145 5.54312 9.97864 5.48328 9.97864 5.38374Z" fill="#263238"/>
<path d="M10.7847 5.06087V5.25876H11.1312V5.39776H10.7847V5.67051H10.6113V4.92188H11.1771V5.06087H10.7847Z" fill="#263238"/>
<path d="M11.6307 5.08691V5.24093C11.6168 5.23986 11.6062 5.23879 11.5933 5.23879C11.5014 5.23879 11.4403 5.28909 11.4403 5.39924V5.67092H11.2734V5.0955H11.4328V5.17143C11.4735 5.11576 11.5419 5.08691 11.6307 5.08691Z" fill="#263238"/>
<path d="M11.709 4.9222C11.709 4.86975 11.7507 4.8291 11.8127 4.8291C11.8748 4.8291 11.9165 4.86761 11.9165 4.91887C11.9165 4.97454 11.8748 5.01519 11.8127 5.01519C11.7506 5.01519 11.709 4.97454 11.709 4.9222ZM11.7292 5.09542H11.8961V5.67084H11.7292V5.09542Z" fill="#263238"/>
<path d="M12.6109 5.43012H12.1757C12.1918 5.50176 12.2527 5.54563 12.3404 5.54563C12.4013 5.54563 12.4452 5.52751 12.4848 5.49008L12.5736 5.58628C12.5202 5.64732 12.4398 5.67939 12.3361 5.67939C12.1372 5.67939 12.0078 5.55422 12.0078 5.38315C12.0078 5.21101 12.1394 5.08691 12.3148 5.08691C12.4838 5.08691 12.6142 5.20028 12.6142 5.3853C12.6141 5.39805 12.612 5.41629 12.6109 5.43012ZM12.1734 5.33284H12.4569C12.4451 5.26013 12.3906 5.21304 12.3157 5.21304C12.2398 5.21304 12.1852 5.25905 12.1734 5.33284Z" fill="#263238"/>
<path d="M13.3147 5.34143V5.67092H13.148V5.36718C13.148 5.27407 13.1052 5.23128 13.0314 5.23128C12.9512 5.23128 12.8935 5.28051 12.8935 5.38637V5.67092H12.7266V5.0955H12.8859V5.16285C12.9309 5.11362 12.9982 5.08691 13.0763 5.08691C13.2121 5.08691 13.3147 5.16607 13.3147 5.34143Z" fill="#263238"/>
<path d="M14.0583 4.87793V5.67151H13.8991V5.60523C13.8572 5.65541 13.7964 5.68009 13.7193 5.68009C13.5568 5.68009 13.4316 5.56458 13.4316 5.38386C13.4316 5.20313 13.5568 5.08762 13.7193 5.08762C13.7899 5.08762 13.8498 5.11003 13.8914 5.15712V4.87793H14.0583ZM13.8948 5.38374C13.8948 5.28432 13.8306 5.22435 13.7481 5.22435C13.6647 5.22435 13.6006 5.2842 13.6006 5.38374C13.6006 5.48328 13.6647 5.54312 13.7481 5.54312C13.8306 5.54312 13.8948 5.48328 13.8948 5.38374Z" fill="#263238"/>
<path d="M14.1562 5.6174L14.2119 5.49759C14.2633 5.53073 14.3414 5.55326 14.412 5.55326C14.489 5.55326 14.5179 5.533 14.5179 5.50081C14.5179 5.40663 14.1703 5.50296 14.1703 5.273C14.1703 5.16392 14.2687 5.08691 14.4366 5.08691C14.5157 5.08691 14.6034 5.10515 14.6579 5.13722L14.6023 5.25595C14.5456 5.22389 14.489 5.21328 14.4365 5.21328C14.3615 5.21328 14.3296 5.23676 14.3296 5.26668C14.3296 5.36515 14.6772 5.2699 14.6772 5.49664C14.6772 5.60357 14.5777 5.67951 14.4055 5.67951C14.3082 5.67951 14.2099 5.65268 14.1562 5.6174Z" fill="#263238"/>
<path d="M18.4289 16.7649H15.0436C14.5557 16.7649 14.1602 16.3693 14.1602 15.8814V15.2106C14.1602 14.7227 14.5557 14.3271 15.0436 14.3271H18.4289C18.9169 14.3271 19.3124 14.7227 19.3124 15.2106V15.8814C19.3124 16.3694 18.9169 16.7649 18.4289 16.7649Z" fill="#FF725E"/>
<path d="M15.9465 15.579C16.018 15.5489 16.0689 15.4753 16.0692 15.3885C16.0697 15.2747 15.9836 15.1821 15.8769 15.1816C15.7702 15.1812 15.6835 15.273 15.683 15.3867C15.6826 15.4743 15.7338 15.5489 15.806 15.579C15.6845 15.5967 15.5735 15.7304 15.5605 15.8281H16.1853C16.1854 15.7415 16.0686 15.6114 15.9465 15.579Z" fill="white"/>
<path d="M16.9823 15.6619H16.7677L16.7267 15.761H16.6172L16.8233 15.2988H16.9289L17.1355 15.761H17.0233L16.9823 15.6619ZM16.9487 15.5808L16.8755 15.4039L16.8022 15.5808H16.9487Z" fill="white"/>
<path d="M17.5354 15.2715V15.7614H17.4369V15.7205C17.4112 15.7515 17.3736 15.7668 17.3261 15.7668C17.2256 15.7668 17.1484 15.6955 17.1484 15.5839C17.1484 15.4722 17.2256 15.4009 17.3261 15.4009C17.3696 15.4009 17.4066 15.4149 17.4324 15.4439V15.2715H17.5354ZM17.4343 15.5838C17.4343 15.5224 17.3946 15.4853 17.3438 15.4853C17.2922 15.4853 17.2526 15.5224 17.2526 15.5838C17.2526 15.6452 17.2922 15.6822 17.3438 15.6822C17.3946 15.6822 17.4343 15.6452 17.4343 15.5838Z" fill="white"/>
<path d="M17.9924 15.2715V15.7614H17.894V15.7205C17.8682 15.7515 17.8307 15.7668 17.7831 15.7668C17.6826 15.7668 17.6055 15.6955 17.6055 15.5839C17.6055 15.4722 17.6827 15.4009 17.7831 15.4009C17.8266 15.4009 17.8637 15.4149 17.8894 15.4439V15.2715H17.9924ZM17.8913 15.5838C17.8913 15.5224 17.8516 15.4853 17.8009 15.4853C17.7492 15.4853 17.7097 15.5224 17.7097 15.5838C17.7097 15.6452 17.7492 15.6822 17.8009 15.6822C17.8516 15.6822 17.8913 15.6452 17.8913 15.5838Z" fill="white"/>
<path d="M15.3888 15.5901C15.366 15.5901 15.3477 15.5717 15.3477 15.549V15.3312C15.3477 15.3085 15.366 15.29 15.3888 15.29C15.4116 15.29 15.4299 15.3084 15.4299 15.3312V15.549C15.4299 15.5717 15.4116 15.5901 15.3888 15.5901Z" fill="white"/>
<path d="M15.4972 15.4817H15.2794C15.2566 15.4817 15.2383 15.4633 15.2383 15.4405C15.2383 15.4179 15.2566 15.3994 15.2794 15.3994H15.4972C15.52 15.3994 15.5383 15.4178 15.5383 15.4405C15.5383 15.4632 15.52 15.4817 15.4972 15.4817Z" fill="white"/>
<path d="M20.4004 6.85717C20.4004 6.87433 16.1367 6.88816 10.8784 6.88816C5.61829 6.88816 1.35547 6.87421 1.35547 6.85717C1.35547 6.84 5.61829 6.82617 10.8784 6.82617C16.1367 6.82617 20.4004 6.84012 20.4004 6.85717Z" fill="#E0E0E0"/>
<path d="M20.4004 11.8396C20.4004 11.8568 16.1367 11.8706 10.8784 11.8706C5.61829 11.8706 1.35547 11.8566 1.35547 11.8396C1.35547 11.8224 5.61829 11.8086 10.8784 11.8086C16.1367 11.8086 20.4004 11.8225 20.4004 11.8396Z" fill="#E0E0E0"/>
<path d="M20.5176 18.6052C20.5176 18.6224 16.2539 18.6362 10.9956 18.6362C5.73547 18.6362 1.47266 18.6223 1.47266 18.6052C1.47266 18.588 5.73547 18.5742 10.9956 18.5742C16.2539 18.5742 20.5176 18.588 20.5176 18.6052Z" fill="#E0E0E0"/>
<path d="M20.5195 25.1404C20.5195 25.1575 16.2559 25.1714 10.9976 25.1714C5.73743 25.1714 1.47461 25.1574 1.47461 25.1404C1.47461 25.1232 5.73743 25.1094 10.9976 25.1094C16.2559 25.1094 20.5195 25.1232 20.5195 25.1404Z" fill="#E0E0E0"/>
<path d="M20.5195 31.7507C20.5195 31.7679 16.2559 31.7817 10.9976 31.7817C5.73743 31.7817 1.47461 31.7678 1.47461 31.7507C1.47461 31.7337 5.73743 31.7197 10.9976 31.7197C16.2559 31.7197 20.5195 31.7337 20.5195 31.7507Z" fill="#E0E0E0"/>
<path d="M18.4218 10.6379H3.99985C3.53291 10.6379 3.1543 10.2592 3.1543 9.7923V9.15024C3.1543 8.68318 3.53291 8.30469 3.99985 8.30469H18.4218C18.8889 8.30469 19.2674 8.6833 19.2674 9.15024V9.7923C19.2674 10.2594 18.8888 10.6379 18.4218 10.6379Z" fill="#EBEBEB"/>
<path d="M17.8012 9.84638C17.4961 9.84638 17.248 9.59831 17.248 9.29325C17.248 8.98831 17.4961 8.74023 17.8012 8.74023C18.1062 8.74023 18.3543 8.98831 18.3543 9.29325C18.3542 9.59831 18.1061 9.84638 17.8012 9.84638ZM17.8012 8.79984C17.5291 8.79984 17.3077 9.02121 17.3077 9.29325C17.3077 9.5654 17.529 9.78678 17.8012 9.78678C18.0732 9.78678 18.2947 9.5654 18.2947 9.29325C18.2946 9.02121 18.0732 8.79984 17.8012 8.79984Z" fill="#263238"/>
<path d="M18.513 9.93631C18.5068 9.93631 18.5006 9.9344 18.4954 9.93047L18.1586 9.68168C18.1454 9.6719 18.1425 9.65319 18.1523 9.63995C18.1621 9.62672 18.1808 9.6241 18.194 9.63364L18.5308 9.88243C18.544 9.8922 18.5469 9.91092 18.5371 9.92415C18.5311 9.93214 18.5221 9.93631 18.513 9.93631Z" fill="#263238"/>
<path d="M12.9182 15.2781C12.9182 15.2952 11.9111 15.3091 10.6692 15.3091C9.42677 15.3091 8.41992 15.2951 8.41992 15.2781C8.41992 15.261 9.42677 15.2471 10.6692 15.2471C11.9112 15.2471 12.9182 15.2609 12.9182 15.2781Z" fill="#263238"/>
<path d="M11.1406 16.0369C11.1406 16.054 10.5316 16.0678 9.78034 16.0678C9.02885 16.0678 8.41992 16.0539 8.41992 16.0369C8.41992 16.0197 9.02885 16.0059 9.78034 16.0059C10.5315 16.0059 11.1406 16.0197 11.1406 16.0369Z" fill="#E0E0E0"/>
<path d="M18.4289 23.3401H15.0436C14.5557 23.3401 14.1602 22.9445 14.1602 22.4566V21.7858C14.1602 21.2979 14.5557 20.9023 15.0436 20.9023H18.4289C18.9169 20.9023 19.3124 21.2979 19.3124 21.7858V22.4566C19.3124 22.9445 18.9169 23.3401 18.4289 23.3401Z" fill="#FF725E"/>
<path d="M15.9465 22.1542C16.018 22.1242 16.0689 22.0505 16.0692 21.9637C16.0697 21.8499 15.9836 21.7573 15.8769 21.7568C15.7702 21.7564 15.6835 21.8482 15.683 21.9619C15.6826 22.0495 15.7338 22.1241 15.806 22.1542C15.6845 22.1719 15.5735 22.3056 15.5605 22.4033H16.1853C16.1854 22.3166 16.0686 22.1866 15.9465 22.1542Z" fill="white"/>
<path d="M16.9823 22.2373H16.7677L16.7267 22.3363H16.6172L16.8233 21.874H16.9289L17.1355 22.3363H17.0233L16.9823 22.2373ZM16.9487 22.1561L16.8755 21.9792L16.8022 22.1561H16.9487Z" fill="white"/>
<path d="M17.5354 21.8467V22.3366H17.4369V22.2957C17.4112 22.3267 17.3736 22.342 17.3261 22.342C17.2256 22.342 17.1484 22.2707 17.1484 22.1591C17.1484 22.0474 17.2256 21.9761 17.3261 21.9761C17.3696 21.9761 17.4066 21.9901 17.4324 22.0191V21.8467H17.5354ZM17.4343 22.159C17.4343 22.0976 17.3946 22.0605 17.3438 22.0605C17.2922 22.0605 17.2526 22.0976 17.2526 22.159C17.2526 22.2204 17.2922 22.2574 17.3438 22.2574C17.3946 22.2574 17.4343 22.2204 17.4343 22.159Z" fill="white"/>
<path d="M17.9924 21.8467V22.3366H17.894V22.2957C17.8682 22.3267 17.8307 22.342 17.7831 22.342C17.6826 22.342 17.6055 22.2707 17.6055 22.1591C17.6055 22.0474 17.6827 21.9761 17.7831 21.9761C17.8266 21.9761 17.8637 21.9901 17.8894 22.0191V21.8467H17.9924ZM17.8913 22.159C17.8913 22.0976 17.8516 22.0605 17.8009 22.0605C17.7492 22.0605 17.7097 22.0976 17.7097 22.159C17.7097 22.2204 17.7492 22.2574 17.8009 22.2574C17.8516 22.2574 17.8913 22.2204 17.8913 22.159Z" fill="white"/>
<path d="M15.3888 22.1653C15.366 22.1653 15.3477 22.1469 15.3477 22.1242V21.9064C15.3477 21.8837 15.366 21.8652 15.3888 21.8652C15.4116 21.8652 15.4299 21.8836 15.4299 21.9064V22.1242C15.4299 22.1469 15.4116 22.1653 15.3888 22.1653Z" fill="white"/>
<path d="M15.4972 22.0559H15.2794C15.2566 22.0559 15.2383 22.0375 15.2383 22.0148C15.2383 21.9921 15.2566 21.9736 15.2794 21.9736H15.4972C15.52 21.9736 15.5383 21.992 15.5383 22.0148C15.5383 22.0375 15.52 22.0559 15.4972 22.0559Z" fill="white"/>
<path d="M12.9182 21.8533C12.9182 21.8704 11.9111 21.8843 10.6692 21.8843C9.42677 21.8843 8.41992 21.8703 8.41992 21.8533C8.41992 21.8362 9.42677 21.8223 10.6692 21.8223C11.9112 21.8221 12.9182 21.8361 12.9182 21.8533Z" fill="#263238"/>
<path d="M11.1406 22.6121C11.1406 22.6292 10.5316 22.643 9.78034 22.643C9.02885 22.643 8.41992 22.6291 8.41992 22.6121C8.41992 22.595 9.02885 22.5811 9.78034 22.5811C10.5315 22.5811 11.1406 22.5949 11.1406 22.6121Z" fill="#E0E0E0"/>
<path d="M18.4289 29.9153H15.0436C14.5557 29.9153 14.1602 29.5197 14.1602 29.0318V28.361C14.1602 27.8731 14.5557 27.4775 15.0436 27.4775H18.4289C18.9169 27.4775 19.3124 27.8731 19.3124 28.361V29.0318C19.3124 29.5197 18.9169 29.9153 18.4289 29.9153Z" fill="#FF725E"/>
<path d="M15.9465 28.7294C16.018 28.6994 16.0689 28.6256 16.0692 28.5389C16.0697 28.4251 15.9836 28.3325 15.8769 28.332C15.7702 28.3316 15.6835 28.4233 15.683 28.5371C15.6826 28.6247 15.7338 28.6993 15.806 28.7294C15.6845 28.7471 15.5735 28.8808 15.5605 28.9785H16.1853C16.1854 28.8917 16.0686 28.7617 15.9465 28.7294Z" fill="white"/>
<path d="M16.9823 28.8123H16.7677L16.7267 28.9114H16.6172L16.8233 28.4492H16.9289L17.1355 28.9114H17.0233L16.9823 28.8123ZM16.9487 28.7313L16.8755 28.5544L16.8022 28.7313H16.9487Z" fill="white"/>
<path d="M17.5354 28.4219V28.9118H17.4369V28.8708C17.4112 28.9019 17.3736 28.9171 17.3261 28.9171C17.2256 28.9171 17.1484 28.8458 17.1484 28.7342C17.1484 28.6226 17.2256 28.5513 17.3261 28.5513C17.3696 28.5513 17.4066 28.5652 17.4324 28.5943V28.4219H17.5354ZM17.4343 28.7342C17.4343 28.6728 17.3946 28.6359 17.3438 28.6359C17.2922 28.6359 17.2526 28.6729 17.2526 28.7342C17.2526 28.7957 17.2922 28.8326 17.3438 28.8326C17.3946 28.8326 17.4343 28.7957 17.4343 28.7342Z" fill="white"/>
<path d="M17.9924 28.4219V28.9118H17.894V28.8708C17.8682 28.9019 17.8307 28.9171 17.7831 28.9171C17.6826 28.9171 17.6055 28.8458 17.6055 28.7342C17.6055 28.6226 17.6827 28.5513 17.7831 28.5513C17.8266 28.5513 17.8637 28.5652 17.8894 28.5943V28.4219H17.9924ZM17.8913 28.7342C17.8913 28.6728 17.8516 28.6359 17.8009 28.6359C17.7492 28.6359 17.7097 28.6729 17.7097 28.7342C17.7097 28.7957 17.7492 28.8326 17.8009 28.8326C17.8516 28.8326 17.8913 28.7957 17.8913 28.7342Z" fill="white"/>
<path d="M15.3888 28.7395C15.366 28.7395 15.3477 28.7211 15.3477 28.6984V28.4806C15.3477 28.4578 15.366 28.4395 15.3888 28.4395C15.4116 28.4395 15.4299 28.4578 15.4299 28.4806V28.6984C15.4299 28.721 15.4116 28.7395 15.3888 28.7395Z" fill="white"/>
<path d="M15.4972 28.634H15.2794C15.2566 28.634 15.2383 28.6155 15.2383 28.5929C15.2383 28.5702 15.2566 28.5518 15.2794 28.5518H15.4972C15.52 28.5518 15.5383 28.5702 15.5383 28.5929C15.5383 28.6157 15.52 28.634 15.4972 28.634Z" fill="white"/>
<path d="M12.9182 28.4314C12.9182 28.4485 11.9111 28.4624 10.6692 28.4624C9.42677 28.4624 8.41992 28.4484 8.41992 28.4314C8.41992 28.4142 9.42677 28.4004 10.6692 28.4004C11.9112 28.4003 12.9182 28.4142 12.9182 28.4314Z" fill="#263238"/>
<path d="M11.1406 29.1872C11.1406 29.2044 10.5316 29.2182 9.78034 29.2182C9.02885 29.2182 8.41992 29.2043 8.41992 29.1872C8.41992 29.1702 9.02885 29.1562 9.78034 29.1562C10.5315 29.1562 11.1406 29.1701 11.1406 29.1872Z" fill="#E0E0E0"/>
<path d="M18.4289 36.4944H15.0436C14.5557 36.4944 14.1602 36.0988 14.1602 35.6109V34.9401C14.1602 34.4522 14.5557 34.0566 15.0436 34.0566H18.4289C18.9169 34.0566 19.3124 34.4522 19.3124 34.9401V35.6109C19.3124 36.0988 18.9169 36.4944 18.4289 36.4944Z" fill="#FF725E"/>
<path d="M15.9465 35.3085C16.018 35.2785 16.0689 35.2047 16.0692 35.118C16.0697 35.0042 15.9836 34.9116 15.8769 34.9111C15.7702 34.9107 15.6835 35.0024 15.683 35.1162C15.6826 35.2038 15.7338 35.2784 15.806 35.3085C15.6845 35.3262 15.5735 35.4599 15.5605 35.5576H16.1853C16.1854 35.4708 16.0686 35.3408 15.9465 35.3085Z" fill="white"/>
<path d="M16.9823 35.3914H16.7677L16.7267 35.4905H16.6172L16.8233 35.0283H16.9289L17.1355 35.4905H17.0233L16.9823 35.3914ZM16.9487 35.3102L16.8755 35.1333L16.8022 35.3102H16.9487Z" fill="white"/>
<path d="M17.5354 35.001V35.4909H17.4369V35.4499C17.4112 35.481 17.3736 35.4962 17.3261 35.4962C17.2256 35.4962 17.1484 35.4249 17.1484 35.3133C17.1484 35.2018 17.2256 35.1304 17.3261 35.1304C17.3696 35.1304 17.4066 35.1443 17.4324 35.1734V35.001H17.5354ZM17.4343 35.3133C17.4343 35.2519 17.3946 35.215 17.3438 35.215C17.2922 35.215 17.2526 35.252 17.2526 35.3133C17.2526 35.3748 17.2922 35.4117 17.3438 35.4117C17.3946 35.4117 17.4343 35.3748 17.4343 35.3133Z" fill="white"/>
<path d="M17.9924 35.001V35.4909H17.894V35.4499C17.8682 35.481 17.8307 35.4962 17.7831 35.4962C17.6826 35.4962 17.6055 35.4249 17.6055 35.3133C17.6055 35.2018 17.6827 35.1304 17.7831 35.1304C17.8266 35.1304 17.8637 35.1443 17.8894 35.1734V35.001H17.9924ZM17.8913 35.3133C17.8913 35.2519 17.8516 35.215 17.8009 35.215C17.7492 35.215 17.7097 35.252 17.7097 35.3133C17.7097 35.3748 17.7492 35.4117 17.8009 35.4117C17.8516 35.4117 17.8913 35.3748 17.8913 35.3133Z" fill="white"/>
<path d="M15.3888 35.3206C15.366 35.3206 15.3477 35.3022 15.3477 35.2794V35.0616C15.3477 35.039 15.366 35.0205 15.3888 35.0205C15.4116 35.0205 15.4299 35.039 15.4299 35.0616V35.2794C15.4299 35.3021 15.4116 35.3206 15.3888 35.3206Z" fill="white"/>
<path d="M15.4992 35.2121H15.2814C15.2586 35.2121 15.2402 35.1938 15.2402 35.171C15.2402 35.1484 15.2586 35.1299 15.2814 35.1299H15.4992C15.5219 35.1299 15.5403 35.1482 15.5403 35.171C15.5403 35.1938 15.5219 35.2121 15.4992 35.2121Z" fill="white"/>
<path d="M12.9182 35.0076C12.9182 35.0247 11.9111 35.0386 10.6692 35.0386C9.42677 35.0386 8.41992 35.0246 8.41992 35.0076C8.41992 34.9904 9.42677 34.9766 10.6692 34.9766C11.9112 34.9764 12.9182 34.9904 12.9182 35.0076Z" fill="#263238"/>
<path d="M11.1406 35.7624C11.1406 35.7796 10.5316 35.7934 9.78034 35.7934C9.02885 35.7934 8.41992 35.7795 8.41992 35.7624C8.41992 35.7453 9.02885 35.7314 9.78034 35.7314C10.5315 35.7313 11.1406 35.7453 11.1406 35.7624Z" fill="#E0E0E0"/>
<path d="M10.0724 39.5901C10.244 39.5901 10.383 39.451 10.383 39.2794C10.383 39.1078 10.244 38.9688 10.0724 38.9688C9.9008 38.9688 9.76172 39.1078 9.76172 39.2794C9.76172 39.451 9.9008 39.5901 10.0724 39.5901Z" fill="#EBEBEB"/>
<path d="M11.2228 39.5901C11.3943 39.5901 11.5334 39.451 11.5334 39.2794C11.5334 39.1078 11.3943 38.9688 11.2228 38.9688C11.0512 38.9688 10.9121 39.1078 10.9121 39.2794C10.9121 39.451 11.0512 39.5901 11.2228 39.5901Z" fill="#EBEBEB"/>
<path d="M12.3751 39.5901C12.5467 39.5901 12.6858 39.451 12.6858 39.2794C12.6858 39.1078 12.5467 38.9688 12.3751 38.9688C12.2035 38.9688 12.0645 39.1078 12.0645 39.2794C12.0645 39.451 12.2035 39.5901 12.3751 39.5901Z" fill="#EBEBEB"/>
<path d="M18.1356 4.65354C18.179 4.62731 18.2252 4.6074 18.2728 4.59393L18.3011 4.45815L18.5306 4.4541L18.5636 4.58881C18.6116 4.60061 18.6585 4.61885 18.7028 4.64353L18.8188 4.56747L18.9839 4.72685L18.912 4.84535C18.9383 4.88874 18.9582 4.93499 18.9716 4.98256L19.1074 5.01081L19.1115 5.24029L18.9768 5.27331C18.965 5.32135 18.9467 5.3682 18.922 5.41255L18.998 5.52854L18.8386 5.69364L18.72 5.62176C18.6766 5.64799 18.6305 5.66789 18.5828 5.68136L18.5545 5.81714L18.325 5.8212L18.292 5.68649C18.244 5.67469 18.1971 5.65645 18.1528 5.63177L18.0368 5.70783L17.8717 5.54845L17.9436 5.42995C17.9174 5.38656 17.8974 5.34042 17.884 5.29274L17.7482 5.26449L17.7441 5.03501L17.8788 5.00199C17.8906 4.95395 17.909 4.9071 17.9336 4.86275L17.8575 4.74676L18.0169 4.58166L18.1356 4.65354ZM18.2579 4.95919C18.1635 5.05706 18.1663 5.21287 18.264 5.30728C18.3618 5.4017 18.5177 5.39896 18.6121 5.3012C18.7065 5.20345 18.7038 5.04753 18.606 4.95311C18.5082 4.85858 18.3523 4.86132 18.2579 4.95919Z" fill="#263238"/>
<path d="M5.03143 17.9496C6.43489 17.9496 7.57262 16.8143 7.57262 15.4138C7.57262 14.0133 6.43489 12.8779 5.03143 12.8779C3.62796 12.8779 2.49023 14.0133 2.49023 15.4138C2.49023 16.8143 3.62796 17.9496 5.03143 17.9496Z" fill="#F5F5F5"/>
<path d="M3.85156 16.0476L4.51675 15.9912L6.14182 16.2649L6.33363 17.4875L6.30633 17.6297C5.52062 18.0658 4.6418 18.0551 3.89746 17.6852L3.85156 16.0476Z" fill="#FF725E"/>
<path d="M5.79297 16.2523C5.79297 16.2523 6.30486 16.151 6.63578 16.6228C6.83832 16.9115 6.93774 17.1029 6.93774 17.1029C6.64985 17.3712 6.4516 17.6036 6.09075 17.7366L5.79297 16.2523Z" fill="#FF725E"/>
<path d="M3.83957 16.0541C3.83957 16.0541 3.39993 16.1078 3.2291 16.4827C3.05839 16.8577 3.01953 16.9754 3.01953 16.9754C3.24722 17.2489 3.53523 17.553 3.88976 17.6744C3.88976 17.6744 3.97154 16.7498 3.98227 16.4826C3.99407 16.1901 4.00551 16.0456 3.83957 16.0541Z" fill="#FF725E"/>
<path d="M4.24456 13.6463C4.48202 13.3566 4.80091 13.19 5.17594 13.1838C5.38742 13.1803 5.47504 13.2242 5.62739 13.2652C5.77974 13.3062 5.91719 13.3878 6.00803 13.5165C6.11603 13.6693 6.20663 13.8406 6.22701 14.0265C6.24799 14.2175 6.26898 14.4097 6.25455 14.6013C6.24013 14.7929 6.18803 14.9858 6.0749 15.1413L5.58638 15.226C5.31661 15.2351 5.04314 15.244 4.78028 15.1826C4.51743 15.1212 4.26208 14.98 4.12141 14.7502C3.92579 14.4308 4.00709 13.9359 4.24456 13.6463Z" fill="#263238"/>
<path d="M5.92976 15.4132C5.9288 15.4144 5.93774 15.4252 5.95896 15.4388C5.97994 15.4523 6.01427 15.4674 6.05957 15.4728C6.1044 15.4776 6.16126 15.4717 6.21491 15.4414C6.26891 15.4119 6.31313 15.3546 6.33161 15.2868C6.34985 15.219 6.34055 15.1472 6.30896 15.0945C6.27797 15.0414 6.23183 15.0077 6.19071 14.9893C6.14886 14.971 6.11167 14.9669 6.08664 14.9679C6.06148 14.969 6.04825 14.9739 6.04849 14.9753C6.04813 14.9812 6.10535 14.969 6.18165 15.0077C6.2186 15.0272 6.25913 15.0596 6.28548 15.1075C6.3123 15.1547 6.31981 15.2182 6.30348 15.2791C6.28679 15.3399 6.24828 15.3908 6.20132 15.4182C6.15435 15.4463 6.10297 15.4541 6.06124 15.4522C5.97577 15.4473 5.93238 15.4079 5.92976 15.4132Z" fill="#E0E0E0"/>
<path d="M3.77401 15.0607C3.78617 14.9507 3.84387 14.8427 3.93936 14.7864C4.03484 14.7302 4.16824 14.736 4.24775 14.8131L4.32452 14.9045C4.44481 14.9556 4.5205 15.0921 4.50584 15.2217C4.4913 15.3514 4.3914 15.4657 4.26623 15.5037C4.14118 15.5418 3.99777 15.5049 3.90204 15.416C3.80656 15.3269 3.75971 15.1904 3.77401 15.0607Z" fill="#263238"/>
<path d="M3.87129 15.3903C3.87486 15.3886 3.84101 15.3575 3.84494 15.2932C3.84911 15.2309 3.89441 15.1491 3.95676 15.0741C4.0203 14.9988 4.09516 14.9473 4.1525 14.9175C4.20972 14.8869 4.24906 14.8756 4.24787 14.8716C4.24739 14.8692 4.20591 14.8747 4.14511 14.9022C4.08431 14.9288 4.00468 14.9802 3.93852 15.0585C3.90538 15.0974 3.87892 15.1386 3.8596 15.1783C3.83993 15.2178 3.82778 15.2578 3.82813 15.2925C3.82801 15.3272 3.83922 15.3542 3.85007 15.3698C3.86103 15.3859 3.87045 15.3913 3.87129 15.3903Z" fill="#455A64"/>
<path d="M4.10566 15.5362C4.11365 15.5357 4.08039 15.3883 4.12748 15.2143C4.17194 15.0395 4.27327 14.9272 4.26648 14.9229C4.26457 14.9212 4.23667 14.9461 4.20198 14.9953C4.16718 15.0443 4.12784 15.119 4.10435 15.2082C4.08111 15.2975 4.07872 15.3819 4.08504 15.4415C4.091 15.5013 4.10304 15.5368 4.10566 15.5362Z" fill="#455A64"/>
<path d="M5.58677 16.1662C5.58677 16.1662 5.58415 15.7132 5.58415 15.7141C5.58415 15.7141 5.98243 15.6703 6.09246 15.1609C6.14717 14.9076 6.15731 14.4879 6.15457 14.1442C6.15206 13.8348 5.88801 13.4136 5.50523 13.4122L5.33512 13.3926L4.68388 13.6509C4.58982 13.6557 4.51508 13.7315 4.51174 13.8254L4.49219 16.0012L5.58009 17.5262L5.58677 16.1662Z" fill="#A26760"/>
<path d="M5.32304 15.037C5.32662 15.0102 5.34152 14.9865 5.36059 14.9702C5.39874 14.9375 5.45453 14.9344 5.4953 14.9625C5.53607 14.9907 5.55955 15.0484 5.5518 15.1019C5.52892 15.1333 5.49387 15.1546 5.45501 15.1579C5.44893 15.1584 5.44296 15.1586 5.43689 15.1585C5.40744 15.1578 5.37752 15.1478 5.35511 15.1262C5.3327 15.1044 5.31875 15.0702 5.32304 15.037Z" fill="#7B4B45"/>
<path d="M6.02479 14.4987C6.02408 14.5337 5.99392 14.5618 5.95744 14.5618C5.92096 14.5618 5.89199 14.5335 5.89259 14.4986C5.8933 14.4637 5.92346 14.4355 5.95982 14.4355C5.99642 14.4357 6.02551 14.4639 6.02479 14.4987Z" fill="#263238"/>
<path d="M6.01477 14.3139C6.00607 14.322 5.95814 14.2825 5.88698 14.2786C5.81605 14.2739 5.76193 14.3076 5.75465 14.2984C5.75108 14.2944 5.76026 14.2793 5.78386 14.2641C5.80711 14.2488 5.84621 14.235 5.89043 14.2376C5.93466 14.2402 5.97102 14.2586 5.99152 14.2764C6.01239 14.2944 6.01894 14.3103 6.01477 14.3139Z" fill="#263238"/>
<path d="M5.587 14.8553C5.58688 14.8513 5.63147 14.846 5.70359 14.8409C5.72183 14.8401 5.73923 14.8373 5.74293 14.8252C5.74793 14.8123 5.74138 14.7924 5.73375 14.7708C5.71908 14.7261 5.70383 14.6791 5.68761 14.63C5.62384 14.4296 5.57877 14.2652 5.58688 14.2627C5.59499 14.2602 5.65328 14.4207 5.71694 14.6211C5.7322 14.6704 5.74686 14.7175 5.76069 14.7626C5.76641 14.7836 5.7769 14.8075 5.76617 14.8342C5.76057 14.8474 5.74674 14.8566 5.73482 14.859C5.72302 14.8619 5.71277 14.8615 5.70383 14.8616C5.6317 14.8615 5.587 14.8594 5.587 14.8553Z" fill="#263238"/>
<path d="M5.58782 15.7233C5.58782 15.7233 5.2402 15.7267 4.9082 15.502C4.9082 15.502 5.07235 15.8682 5.59044 15.8484L5.58782 15.7233Z" fill="#7B4B45"/>
<path d="M5.37524 14.9199C5.3868 14.9199 5.38275 14.9968 5.44581 15.0551C5.50864 15.1135 5.59137 15.1094 5.59137 15.1202C5.5922 15.1251 5.57217 15.1342 5.53748 15.1332C5.50339 15.1325 5.45428 15.1189 5.41565 15.0833C5.37715 15.0476 5.36236 15.0018 5.36141 14.9701C5.36034 14.9378 5.36999 14.9192 5.37524 14.9199Z" fill="#263238"/>
<path d="M6.02085 14.0682C6.00798 14.0849 5.95421 14.0703 5.89032 14.0721C5.82642 14.0719 5.7729 14.0878 5.75967 14.0714C5.75382 14.0634 5.76169 14.047 5.7847 14.0308C5.80735 14.0147 5.84574 14.0006 5.88972 14C5.93359 13.9995 5.97222 14.0125 5.99511 14.0281C6.01847 14.0438 6.02658 14.0601 6.02085 14.0682Z" fill="#263238"/>
<path d="M5.21883 14.494C5.21704 14.5288 5.24506 14.5591 5.28142 14.5617C5.31777 14.5644 5.34877 14.5382 5.35068 14.5034C5.35247 14.4686 5.32445 14.4384 5.28809 14.4357C5.25173 14.4331 5.22074 14.4592 5.21883 14.494Z" fill="#263238"/>
<path d="M5.05767 14.2917C5.06566 14.3004 5.11644 14.2644 5.18761 14.2657C5.25866 14.2661 5.31028 14.3037 5.31814 14.2951C5.32196 14.2913 5.31385 14.2756 5.29144 14.2587C5.26939 14.2419 5.23148 14.2252 5.18713 14.2246C5.14279 14.2241 5.10524 14.2398 5.08354 14.256C5.06137 14.2723 5.05362 14.2878 5.05767 14.2917Z" fill="#263238"/>
<path d="M5.01367 14.1688C5.02738 14.1852 5.08258 14.1694 5.14862 14.1698C5.21466 14.1681 5.27033 14.1828 5.28357 14.1661C5.28941 14.158 5.28082 14.1417 5.25662 14.126C5.23278 14.1104 5.19273 14.0973 5.14743 14.0977C5.10201 14.0981 5.06243 14.1121 5.03919 14.1282C5.01558 14.1444 5.00759 14.1608 5.01367 14.1688Z" fill="#263238"/>
<path d="M4.58365 14.67C4.58567 14.6317 4.54634 14.5391 4.50878 14.5311C4.40853 14.5099 4.22578 14.508 4.20992 14.7642C4.18835 15.1144 4.54514 15.0638 4.54645 15.0537C4.54741 15.046 4.57662 14.8022 4.58365 14.67Z" fill="#A26760"/>
<path d="M4.47724 14.9394C4.47581 14.9382 4.47092 14.9433 4.46019 14.9473C4.44982 14.9513 4.4323 14.9534 4.41441 14.9454C4.37817 14.9296 4.35052 14.8689 4.35278 14.8057C4.35386 14.7738 4.36244 14.7439 4.37531 14.7194C4.38759 14.6945 4.40535 14.6776 4.42419 14.6754C4.44302 14.6722 4.45554 14.6842 4.45924 14.6944C4.46329 14.7045 4.46067 14.7113 4.46246 14.712C4.46341 14.713 4.47032 14.7067 4.46842 14.692C4.46734 14.685 4.46377 14.6764 4.4559 14.6692C4.44791 14.6618 4.43575 14.6577 4.42264 14.6583C4.39546 14.6585 4.36959 14.6819 4.35541 14.7087C4.33979 14.7355 4.32942 14.7691 4.32823 14.805C4.32608 14.8757 4.35827 14.944 4.4081 14.9618C4.43242 14.9696 4.4534 14.9636 4.4646 14.9559C4.47616 14.9478 4.47843 14.9402 4.47724 14.9394Z" fill="#7B4B45"/>
<path d="M4.51076 14.5429L4.59993 14.6352C4.98497 14.2673 5.73766 13.3464 5.69558 13.4013C5.69558 13.4013 5.43177 13.293 5.14543 13.3417C4.85909 13.3903 4.31597 13.5334 4.32431 13.8704C4.33266 14.2074 4.51076 14.5429 4.51076 14.5429Z" fill="#263238"/>
<path d="M4.52049 15.4132C4.52145 15.4144 4.5125 15.4252 4.49129 15.4388C4.4703 15.4523 4.43597 15.4674 4.39067 15.4728C4.34585 15.4776 4.28899 15.4717 4.23534 15.4414C4.18134 15.4119 4.13711 15.3546 4.11864 15.2868C4.1004 15.219 4.10969 15.1472 4.14129 15.0945C4.17228 15.0414 4.21841 15.0077 4.25954 14.9893C4.30138 14.971 4.33858 14.9669 4.36361 14.9679C4.38877 14.969 4.402 14.9739 4.40176 14.9753C4.40212 14.9812 4.34489 14.969 4.2686 15.0077C4.23165 15.0272 4.19112 15.0596 4.16477 15.1075C4.13795 15.1547 4.13044 15.2182 4.14677 15.2791C4.16346 15.3399 4.20196 15.3908 4.24893 15.4182C4.2959 15.4463 4.34728 15.4541 4.389 15.4522C4.4746 15.4473 4.51787 15.4079 4.52049 15.4132Z" fill="#E0E0E0"/>
<path d="M3.9962 14.4662C3.9956 14.4659 3.99751 14.459 4.00157 14.4459C4.00574 14.4328 4.01325 14.4139 4.02553 14.3907C4.04996 14.3446 4.09658 14.2822 4.17227 14.226C4.24678 14.1683 4.35001 14.1212 4.46756 14.0842C4.58498 14.0461 4.7173 14.0164 4.84724 13.9609C4.97801 13.9072 5.0946 13.8382 5.19402 13.767C5.29308 13.6951 5.37498 13.6205 5.43876 13.5535C5.50265 13.4864 5.54903 13.4273 5.58026 13.3859C5.59456 13.3662 5.60625 13.3503 5.61543 13.3376C5.62353 13.3267 5.62806 13.3211 5.62866 13.3213C5.62913 13.3217 5.62568 13.328 5.61852 13.3395C5.61113 13.3511 5.60088 13.3685 5.58598 13.3898C5.5563 13.4326 5.51112 13.4933 5.44806 13.5621C5.38499 13.6308 5.30334 13.7069 5.2038 13.7803C5.10402 13.8529 4.98636 13.9231 4.85415 13.9773C4.72255 14.0337 4.58927 14.0629 4.47256 14.1C4.3555 14.1359 4.25381 14.1808 4.17978 14.2361C4.10468 14.29 4.05759 14.3497 4.03161 14.3941C4.00586 14.4388 3.99799 14.4668 3.9962 14.4662Z" fill="#455A64"/>
<path d="M4.09992 14.5185C4.09992 14.5185 4.09634 14.4898 4.11351 14.442C4.12984 14.3946 4.17144 14.33 4.24535 14.2771C4.31867 14.2225 4.42322 14.1888 4.53825 14.1626C4.65377 14.1372 4.77906 14.1046 4.9022 14.0473C5.02523 13.9904 5.13561 13.9215 5.22669 13.8474C5.31824 13.7738 5.39215 13.6974 5.44913 13.6292C5.50683 13.5614 5.54545 13.5005 5.57311 13.4591C5.58515 13.4392 5.59505 13.423 5.60291 13.4101C5.60995 13.399 5.61388 13.3933 5.61436 13.3936C5.61496 13.3938 5.61209 13.4001 5.60613 13.4119C5.5991 13.4253 5.59016 13.4422 5.57919 13.4628C5.5532 13.5055 5.51589 13.568 5.45903 13.6373C5.40288 13.7071 5.32921 13.7853 5.23718 13.8604C5.14563 13.9361 5.03428 14.0062 4.90971 14.0638C4.78525 14.1217 4.65722 14.1544 4.54207 14.1788C4.42727 14.2041 4.32487 14.2359 4.25275 14.2876C4.17979 14.3378 4.13795 14.3992 4.12007 14.4448C4.10135 14.4904 4.1023 14.519 4.09992 14.5185Z" fill="#455A64"/>
<path d="M3.89449 17.7112C3.88806 17.7112 3.88281 17.5557 3.88281 17.364C3.88281 17.1722 3.88806 17.0166 3.89449 17.0166C3.90093 17.0166 3.90618 17.1721 3.90618 17.364C3.90618 17.5557 3.90093 17.7112 3.89449 17.7112Z" fill="#263238"/>
<path d="M6.30077 17.6565C6.29731 17.6561 6.30053 17.6096 6.3047 17.5348C6.30804 17.46 6.31281 17.3563 6.29493 17.2444C6.27645 17.1325 6.2395 17.0354 6.21327 16.9653C6.18621 16.8953 6.16904 16.852 6.17226 16.8506C6.175 16.8494 6.19753 16.8902 6.22865 16.959C6.25893 17.0278 6.29898 17.1255 6.31805 17.2407C6.33641 17.3558 6.3289 17.4614 6.32127 17.5362C6.31281 17.6112 6.30375 17.6568 6.30077 17.6565Z" fill="#263238"/>
<path d="M7.57692 15.4227C7.57585 15.4227 7.57406 15.4087 7.57168 15.3816C7.56941 15.3512 7.56631 15.3113 7.5625 15.2609C7.56071 15.2341 7.55868 15.2045 7.55654 15.1721C7.55284 15.1396 7.54569 15.1044 7.53973 15.066C7.52721 14.9895 7.51529 14.9007 7.48561 14.8041C7.44007 14.6081 7.34756 14.3767 7.20225 14.1318C7.05574 13.8877 6.84497 13.633 6.55827 13.4169C6.27253 13.2029 5.91228 13.021 5.49659 12.9477C5.08377 12.877 4.61778 12.8901 4.17432 13.0589C4.06143 13.0951 3.95533 13.151 3.84625 13.2034C3.7429 13.2659 3.63406 13.3235 3.53786 13.4017C3.43558 13.4719 3.34629 13.5598 3.25259 13.6444C3.16807 13.7381 3.07914 13.8298 3.0063 13.9361C2.8567 14.144 2.72604 14.3749 2.64701 14.629C2.56511 14.8814 2.521 15.1495 2.51731 15.4223C2.52088 15.6952 2.56487 15.9634 2.64689 16.2159C2.72592 16.4699 2.85658 16.701 3.00618 16.909C3.07914 17.0153 3.16795 17.107 3.25259 17.2007C3.34629 17.2853 3.43558 17.3732 3.53786 17.4434C3.63406 17.5217 3.7429 17.5793 3.84625 17.6419C3.95533 17.6942 4.06155 17.7501 4.17432 17.7864C4.6179 17.9552 5.08389 17.9682 5.49683 17.8976C5.91252 17.8243 6.27277 17.6424 6.55851 17.4284C6.84509 17.2123 7.05597 16.9575 7.20236 16.7135C7.34756 16.4684 7.44019 16.2371 7.48561 16.0411C7.51529 15.9447 7.52721 15.8559 7.53973 15.7794C7.55487 15.7031 7.56011 15.6376 7.5625 15.5846C7.56631 15.5341 7.56941 15.4943 7.57168 15.4639C7.57406 15.4366 7.57585 15.4227 7.57692 15.4227C7.578 15.4227 7.57835 15.4366 7.57799 15.4639C7.57716 15.4946 7.57621 15.5346 7.57502 15.5853C7.57466 15.6388 7.57144 15.7047 7.55809 15.7819C7.54736 15.8592 7.53723 15.9491 7.50909 16.047C7.46677 16.2457 7.37653 16.481 7.23217 16.7312C7.08661 16.9803 6.87502 17.2412 6.5851 17.4633C6.29613 17.6834 5.93004 17.8711 5.50625 17.9483C5.08532 18.0226 4.60932 18.0113 4.15477 17.8403C4.03926 17.8035 3.93042 17.7468 3.8186 17.6934C3.71262 17.6298 3.60116 17.571 3.50246 17.4912C3.39767 17.4194 3.30588 17.3298 3.20991 17.2434C3.12301 17.1478 3.03193 17.0538 2.95707 16.9451C2.80341 16.7323 2.66942 16.4958 2.58812 16.2355C2.50395 15.9768 2.45877 15.7019 2.45508 15.4223C2.45877 15.1429 2.50407 14.8681 2.58824 14.6096C2.66954 14.3494 2.80353 14.1128 2.95719 13.9001C3.03205 13.7914 3.12313 13.6976 3.21003 13.602C3.306 13.5154 3.39779 13.4259 3.50246 13.3542C3.60116 13.2744 3.71262 13.2155 3.8186 13.152C3.9303 13.0986 4.03914 13.0419 4.15465 13.0051C4.60908 12.8342 5.08508 12.8227 5.50589 12.8971C5.92968 12.9741 6.29577 13.162 6.58474 13.3819C6.87466 13.604 7.08625 13.8649 7.23193 14.1139C7.37641 14.364 7.46653 14.5994 7.50897 14.7981C7.53711 14.896 7.54724 14.9859 7.55797 15.0633C7.56297 15.102 7.56917 15.1375 7.57192 15.1704C7.57299 15.2031 7.57406 15.2329 7.57489 15.26C7.57621 15.3106 7.57716 15.3508 7.57788 15.3813C7.57835 15.4087 7.578 15.4227 7.57692 15.4227Z" fill="#263238"/>
<path d="M5.03143 37.7386C6.43489 37.7386 7.57262 36.6033 7.57262 35.2028C7.57262 33.8023 6.43489 32.667 5.03143 32.667C3.62796 32.667 2.49023 33.8023 2.49023 35.2028C2.49023 36.6033 3.62796 37.7386 5.03143 37.7386Z" fill="#F5F5F5"/>
<path d="M3.85156 35.8338L4.51675 35.7773L6.14182 36.0511L6.33363 37.2737L6.30633 37.4159C5.52062 37.8519 4.6418 37.8412 3.89746 37.4713L3.85156 35.8338Z" fill="#455A64"/>
<path d="M5.79297 36.0384C5.79297 36.0384 6.30486 35.9371 6.63578 36.4089C6.83832 36.6977 6.93774 36.889 6.93774 36.889C6.64985 37.1573 6.4516 37.3897 6.09075 37.5227L5.79297 36.0384Z" fill="#455A64"/>
<path d="M3.83957 35.8343C3.83957 35.8343 3.39993 35.8881 3.2291 36.263C3.05839 36.6379 3.01953 36.7557 3.01953 36.7557C3.24722 37.0292 3.53523 37.3333 3.88976 37.4546C3.88976 37.4546 3.97154 36.53 3.98227 36.2629C3.99407 35.9702 4.00551 35.8259 3.83957 35.8343Z" fill="#455A64"/>
<path d="M4.24658 33.4354C4.48405 33.1457 4.80293 32.979 5.17797 32.9728C5.38944 32.9694 5.47706 33.0133 5.62941 33.0543C5.78176 33.0953 5.91921 33.1768 6.01005 33.3056C6.11805 33.4585 6.20865 33.6297 6.22904 33.8155C6.25002 34.0065 6.28411 34.2004 6.29365 34.4389C6.3014 34.6308 6.30843 34.9046 6.3312 35.2407L6.39343 35.914C6.24978 35.914 3.94927 35.6957 3.77344 35.6976C3.77344 35.6976 3.85033 34.9446 3.88347 34.5924C3.94474 33.9399 4.00912 33.7251 4.24658 33.4354Z" fill="#263238"/>
<path d="M5.58091 35.9524C5.58091 35.9524 5.57829 35.4994 5.57829 35.5002C5.57829 35.5002 5.97657 35.4565 6.0866 34.9471C6.14132 34.6937 6.15145 34.274 6.14871 33.9303C6.1462 33.621 5.88215 33.1997 5.49937 33.1984L5.32926 33.1787L4.67802 33.437C4.58396 33.4418 4.50922 33.5176 4.50588 33.6116L4.48633 35.7874L4.69482 36.0111C4.9423 36.2761 5.37074 36.2479 5.58091 35.9524Z" fill="#A26760"/>
<path d="M5.32695 34.8241C5.33052 34.7973 5.34542 34.7736 5.3645 34.7573C5.40264 34.7246 5.45843 34.7215 5.4992 34.7496C5.53997 34.7778 5.56346 34.8353 5.55571 34.889C5.53282 34.9205 5.49777 34.9417 5.45891 34.945C5.45283 34.9455 5.44687 34.9457 5.44079 34.9456C5.41135 34.9449 5.38143 34.9349 5.35901 34.9133C5.3366 34.8916 5.32265 34.8573 5.32695 34.8241Z" fill="#7B4B45"/>
<path d="M6.01502 34.3229C6.01431 34.3579 5.98415 34.386 5.94767 34.386C5.91119 34.386 5.88223 34.3578 5.88282 34.3228C5.88354 34.2879 5.9137 34.2598 5.95006 34.2598C5.98665 34.2598 6.01574 34.2881 6.01502 34.3229Z" fill="#263238"/>
<path d="M6.03039 34.1293C6.02169 34.1375 5.97377 34.0979 5.9026 34.0941C5.83167 34.0893 5.77755 34.1229 5.77028 34.1139C5.7667 34.1098 5.77588 34.0948 5.79948 34.0795C5.82273 34.0643 5.86183 34.0504 5.90606 34.0531C5.95028 34.0557 5.98664 34.074 6.00715 34.0918C6.02801 34.1097 6.03457 34.1257 6.03039 34.1293Z" fill="#263238"/>
<path d="M5.56747 34.6688C5.56735 34.6647 5.61193 34.6596 5.68406 34.6544C5.70229 34.6535 5.7197 34.6508 5.7234 34.6386C5.7284 34.6258 5.72185 34.6059 5.71422 34.5843C5.69955 34.5396 5.68429 34.4926 5.66808 34.4435C5.6043 34.2431 5.55924 34.0787 5.56735 34.0762C5.57546 34.0737 5.63375 34.2342 5.69741 34.4345C5.71267 34.4839 5.72733 34.531 5.74116 34.576C5.74688 34.597 5.75737 34.621 5.74664 34.6477C5.74104 34.6609 5.72721 34.6701 5.71529 34.6725C5.70349 34.6754 5.69323 34.675 5.68429 34.6751C5.61217 34.675 5.56747 34.6728 5.56747 34.6688Z" fill="#263238"/>
<path d="M5.57024 35.4909C5.57024 35.4909 5.22262 35.4942 4.89062 35.2695C4.89062 35.2695 5.05478 35.6357 5.57286 35.616L5.57024 35.4909Z" fill="#7B4B45"/>
<path d="M5.35571 34.7012C5.36727 34.7012 5.36322 34.7782 5.42628 34.8364C5.4891 34.8948 5.57183 34.8906 5.57183 34.9015C5.57267 34.9064 5.55264 34.9154 5.51795 34.9145C5.48386 34.9137 5.43474 34.9002 5.39612 34.8645C5.35762 34.8289 5.34283 34.7832 5.34188 34.7514C5.34081 34.7191 5.35046 34.7005 5.35571 34.7012Z" fill="#263238"/>
<path d="M5.99937 33.8485C5.98649 33.8652 5.93273 33.8506 5.86883 33.8524C5.80494 33.8522 5.75141 33.868 5.73818 33.8517C5.73234 33.8437 5.74021 33.8273 5.76322 33.811C5.78587 33.7949 5.82425 33.7809 5.86824 33.7803C5.91211 33.7798 5.95073 33.7928 5.97362 33.8084C5.99699 33.8242 6.00509 33.8404 5.99937 33.8485Z" fill="#263238"/>
<path d="M5.16024 34.3182C5.15845 34.353 5.18646 34.3833 5.22282 34.386C5.25918 34.3886 5.29017 34.3625 5.29208 34.3277C5.29387 34.2928 5.26586 34.2626 5.2295 34.2599C5.19314 34.2573 5.16214 34.2834 5.16024 34.3182Z" fill="#263238"/>
<path d="M5.03814 34.1081C5.04613 34.1168 5.09691 34.0808 5.16808 34.0822C5.23913 34.0825 5.29075 34.1201 5.29861 34.1115C5.30243 34.1077 5.29432 34.092 5.27191 34.0751C5.24986 34.0583 5.21195 34.0416 5.1676 34.041C5.12326 34.0405 5.0857 34.0562 5.06401 34.0724C5.04184 34.0888 5.03409 34.1042 5.03814 34.1081Z" fill="#263238"/>
<path d="M5.04492 33.8925C5.05863 33.9088 5.11383 33.8931 5.17987 33.8934C5.24591 33.8917 5.30158 33.9064 5.31482 33.8897C5.32054 33.8816 5.31207 33.8653 5.28787 33.8497C5.26403 33.8341 5.22398 33.8209 5.17868 33.8213C5.13326 33.8218 5.09368 33.8357 5.07044 33.8518C5.04683 33.868 5.03884 33.8845 5.04492 33.8925Z" fill="#263238"/>
<path d="M4.60123 34.4854C4.60325 34.4472 4.56391 34.3545 4.52636 34.3466C4.42611 34.3253 4.24336 34.3234 4.2275 34.5796C4.20593 34.9299 4.56272 34.8792 4.56403 34.8693C4.56499 34.8614 4.59419 34.6175 4.60123 34.4854Z" fill="#A26760"/>
<path d="M4.46357 34.7235C4.46214 34.7223 4.45725 34.7275 4.44652 34.7315C4.43615 34.7355 4.41862 34.7376 4.40074 34.7296C4.3645 34.7138 4.33685 34.6531 4.33911 34.5899C4.34018 34.558 4.34877 34.528 4.36164 34.5036C4.37392 34.4787 4.39168 34.4617 4.41052 34.4596C4.42935 34.4564 4.44187 34.4684 4.44557 34.4786C4.44962 34.4887 4.447 34.4955 4.44878 34.4962C4.44974 34.4972 4.45665 34.4908 4.45474 34.4762C4.45367 34.4691 4.4501 34.4606 4.44223 34.4534C4.43424 34.446 4.42208 34.4418 4.40897 34.4424C4.38179 34.4427 4.35592 34.466 4.34173 34.4929C4.32612 34.5197 4.31575 34.5533 4.31455 34.5892C4.31241 34.6599 4.34459 34.7282 4.39442 34.7459C4.41874 34.7538 4.43972 34.7477 4.45093 34.7401C4.46249 34.732 4.46476 34.7243 4.46357 34.7235Z" fill="#7B4B45"/>
<path d="M4.50685 34.331L4.59602 34.4233C4.98107 34.0554 5.73376 33.1345 5.69168 33.1894C5.69168 33.1894 5.42787 33.0811 5.14152 33.1298C4.85518 33.1784 4.31206 33.3214 4.32041 33.6584C4.32875 33.9956 4.50685 34.331 4.50685 34.331Z" fill="#263238"/>
<path d="M3.89449 37.5003C3.88806 37.5003 3.88281 37.3447 3.88281 37.153C3.88281 36.9612 3.88806 36.8057 3.89449 36.8057C3.90093 36.8057 3.90618 36.9611 3.90618 37.153C3.90618 37.3448 3.90093 37.5003 3.89449 37.5003Z" fill="#263238"/>
<path d="M6.30077 37.4446C6.29731 37.4442 6.30053 37.3977 6.3047 37.3228C6.30804 37.2481 6.31281 37.1444 6.29493 37.0324C6.27645 36.9205 6.2395 36.8235 6.21327 36.7534C6.18621 36.6834 6.16904 36.6401 6.17226 36.6387C6.175 36.6375 6.19753 36.6783 6.22865 36.7471C6.25893 36.8158 6.29898 36.9136 6.31805 37.0288C6.33641 37.1439 6.3289 37.2495 6.32127 37.3243C6.31281 37.3991 6.30375 37.4449 6.30077 37.4446Z" fill="#263238"/>
<path d="M7.57692 35.2117C7.57585 35.2117 7.57406 35.1978 7.57168 35.1706C7.56941 35.1402 7.56631 35.1004 7.5625 35.05C7.56071 35.0232 7.55868 34.9936 7.55654 34.9612C7.55284 34.9286 7.54569 34.8935 7.53973 34.8551C7.52721 34.7785 7.51529 34.6897 7.48561 34.5932C7.44007 34.3972 7.34756 34.1658 7.20225 33.9207C7.05574 33.6767 6.84497 33.4219 6.55827 33.2058C6.27253 32.9918 5.91228 32.8099 5.49659 32.7366C5.08377 32.666 4.61778 32.679 4.17432 32.8478C4.06143 32.8841 3.95533 32.9398 3.84625 32.9923C3.7429 33.0549 3.63406 33.1125 3.53786 33.1907C3.43558 33.2609 3.34629 33.3487 3.25259 33.4334C3.16807 33.5271 3.07914 33.6187 3.0063 33.7251C2.8567 33.933 2.72604 34.164 2.64701 34.4179C2.56511 34.6703 2.521 34.9384 2.51731 35.2113C2.52088 35.4841 2.56487 35.7524 2.64689 36.0048C2.72592 36.2589 2.85658 36.4899 3.00618 36.6979C3.07914 36.8043 3.16795 36.8959 3.25259 36.9896C3.34629 37.0743 3.43558 37.1621 3.53786 37.2324C3.63406 37.3107 3.7429 37.3682 3.84625 37.4308C3.95533 37.4832 4.06155 37.5391 4.17432 37.5753C4.6179 37.7441 5.08389 37.7571 5.49683 37.6865C5.91252 37.6132 6.27277 37.4313 6.55851 37.2173C6.84509 37.0012 7.05597 36.7464 7.20236 36.5024C7.34756 36.2573 7.44019 36.0261 7.48561 35.8301C7.51529 35.7336 7.52721 35.6448 7.53973 35.5683C7.55487 35.492 7.56011 35.4266 7.5625 35.3735C7.56631 35.3231 7.56941 35.2833 7.57168 35.2529C7.57406 35.2257 7.57585 35.2117 7.57692 35.2117C7.578 35.2117 7.57835 35.2257 7.57799 35.253C7.57716 35.2835 7.57621 35.3237 7.57502 35.3743C7.57466 35.4279 7.57144 35.4938 7.55809 35.5709C7.54736 35.6483 7.53723 35.7382 7.50909 35.836C7.46677 36.0348 7.37653 36.2701 7.23217 36.5203C7.08661 36.7693 6.87502 37.0303 6.5851 37.2524C6.29613 37.4724 5.93004 37.6602 5.50625 37.7373C5.08532 37.8117 4.60932 37.8004 4.15477 37.6293C4.03926 37.5926 3.93042 37.5359 3.8186 37.4825C3.71262 37.4189 3.60116 37.36 3.50246 37.2803C3.39767 37.2085 3.30588 37.119 3.20991 37.0324C3.12301 36.9368 3.03193 36.8429 2.95707 36.7342C2.80341 36.5214 2.66942 36.2848 2.58812 36.0245C2.50395 35.7658 2.45877 35.4909 2.45508 35.2114C2.45877 34.932 2.50407 34.6572 2.58824 34.3986C2.66954 34.1385 2.80353 33.9019 2.95719 33.6892C3.03205 33.5805 3.12313 33.4867 3.21003 33.3911C3.306 33.3045 3.39779 33.215 3.50246 33.1432C3.60116 33.0635 3.71262 33.0046 3.8186 32.941C3.9303 32.8876 4.03914 32.831 4.15465 32.7942C4.60908 32.6232 5.08508 32.6118 5.50589 32.6862C5.92968 32.7632 6.29577 32.9511 6.58474 33.171C6.87466 33.3931 7.08625 33.6539 7.23193 33.9029C7.37641 34.153 7.46653 34.3885 7.50897 34.5872C7.53711 34.6851 7.54724 34.775 7.55797 34.8523C7.56297 34.8911 7.56917 34.9266 7.57192 34.9595C7.57299 34.9922 7.57406 35.022 7.57489 35.049C7.57621 35.0997 7.57716 35.1399 7.57788 35.1704C7.57835 35.1978 7.578 35.2117 7.57692 35.2117Z" fill="#263238"/>
<path d="M5.031 24.6802C6.50326 24.6802 7.69677 23.4867 7.69677 22.0144C7.69677 20.5421 6.50326 19.3486 5.031 19.3486C3.55874 19.3486 2.36523 20.5421 2.36523 22.0144C2.36523 23.4867 3.55874 24.6802 5.031 24.6802Z" fill="#F5F5F5"/>
<path d="M4.92142 19.8474C4.96124 19.7678 5.05601 19.7197 5.14375 19.7345C5.24531 19.6517 5.40589 19.6524 5.50674 19.7362C5.58363 19.6891 5.68532 19.6856 5.76519 19.7275C5.84506 19.7692 5.90025 19.8548 5.90538 19.9447C5.99526 19.9291 6.09266 19.9764 6.13593 20.0569C6.17908 20.1373 6.16478 20.2446 6.10207 20.311C6.20066 20.3414 6.2667 20.4526 6.24632 20.5537C6.22593 20.6548 6.12198 20.7318 6.01934 20.7217L4.96446 20.0931C4.89984 20.0316 4.88149 19.9269 4.92142 19.8474Z" fill="#E0E0E0"/>
<path d="M6.05676 20.7469C6.01266 20.2836 5.61998 19.9318 5.15447 19.9386L5.10821 19.9393C4.60992 19.9756 4.36244 20.4192 4.41262 20.9163L4.50906 22.576L4.51455 22.6566L5.66874 22.8705L5.66099 22.4472C5.66099 22.4472 6.13938 22.3657 6.1383 21.8862C6.13759 21.6547 6.09777 21.178 6.05676 20.7469Z" fill="#FFBE9D"/>
<path d="M5.66199 22.4412C5.66199 22.4412 5.3561 22.4641 5.03125 22.2666C5.03125 22.2666 5.18396 22.6094 5.66163 22.5593L5.66199 22.4412Z" fill="#EB996E"/>
<path d="M5.93138 21.1938C5.93316 21.2299 5.90408 21.2612 5.86641 21.2637C5.82874 21.2662 5.79679 21.2392 5.795 21.2031C5.79321 21.1669 5.8223 21.1356 5.85997 21.133C5.89752 21.1305 5.92959 21.1576 5.93138 21.1938Z" fill="#263238"/>
<path d="M5.95418 20.9811C5.94584 20.9902 5.89338 20.9525 5.81971 20.9538C5.74616 20.9541 5.69263 20.9927 5.68453 20.9839C5.68059 20.9799 5.68894 20.9637 5.71218 20.9462C5.73507 20.9288 5.77441 20.9116 5.82031 20.9111C5.8662 20.9108 5.90507 20.927 5.92748 20.944C5.95037 20.9611 5.95835 20.9771 5.95418 20.9811Z" fill="#263238"/>
<path d="M5.25376 21.2123C5.25555 21.2485 5.22646 21.2798 5.18879 21.2823C5.15112 21.2849 5.11917 21.2578 5.11727 21.2216C5.11548 21.1855 5.14457 21.1542 5.18224 21.1515C5.21991 21.1489 5.25197 21.1762 5.25376 21.2123Z" fill="#263238"/>
<path d="M5.23349 21.0213C5.22514 21.0303 5.17269 20.9927 5.09902 20.994C5.02546 20.9942 4.97194 21.0328 4.96383 21.0239C4.9599 21.02 4.96812 21.0038 4.99161 20.9862C5.0145 20.9688 5.05384 20.9517 5.09973 20.9512C5.14563 20.9507 5.18449 20.967 5.2069 20.9841C5.22955 21.0011 5.23754 21.0172 5.23349 21.0213Z" fill="#263238"/>
<path d="M5.49655 21.5508C5.4962 21.5466 5.54186 21.538 5.61588 21.5274C5.63472 21.5252 5.65236 21.5212 5.65534 21.5083C5.65963 21.4946 5.65141 21.4745 5.64199 21.4528C5.62363 21.4075 5.60444 21.36 5.58429 21.3103C5.50407 21.1075 5.44577 20.9406 5.45388 20.9375C5.4621 20.9344 5.53375 21.0962 5.61398 21.299C5.63329 21.3491 5.65177 21.3967 5.66941 21.4423C5.6768 21.4635 5.68944 21.4876 5.68026 21.5159C5.67537 21.53 5.66178 21.5405 5.64974 21.5438C5.6377 21.5477 5.62721 21.548 5.61791 21.5487C5.54317 21.5539 5.49691 21.5549 5.49655 21.5508Z" fill="#263238"/>
<path d="M5.2927 21.6016C5.30462 21.6007 5.30605 21.6806 5.37519 21.7364C5.44433 21.7923 5.52945 21.7822 5.53028 21.7933C5.53147 21.7983 5.51157 21.8091 5.47556 21.8105C5.44028 21.8122 5.38866 21.8017 5.34622 21.7676C5.30402 21.7334 5.28531 21.6873 5.28209 21.6545C5.27851 21.6211 5.28721 21.6011 5.2927 21.6016Z" fill="#263238"/>
<path d="M5.24196 20.724C5.23493 20.7442 5.16125 20.7357 5.07507 20.7474C4.98852 20.7573 4.91926 20.7836 4.90746 20.7659C4.90221 20.7573 4.91413 20.7383 4.94203 20.7186C4.96968 20.6988 5.01391 20.6797 5.06577 20.6733C5.1175 20.6668 5.16519 20.6743 5.1969 20.6867C5.22873 20.699 5.24494 20.7145 5.24196 20.724Z" fill="#E0E0E0"/>
<path d="M5.91898 20.7658C5.90622 20.7827 5.85532 20.7661 5.79428 20.7662C5.73325 20.7642 5.68175 20.7791 5.66959 20.7618C5.66422 20.7533 5.67209 20.7365 5.6945 20.7203C5.71656 20.7042 5.75351 20.6907 5.79547 20.6914C5.83744 20.6921 5.87403 20.7068 5.89549 20.7236C5.91719 20.7404 5.92458 20.7576 5.91898 20.7658Z" fill="#E0E0E0"/>
<path d="M6.00135 20.5274C6.00135 20.5274 5.87058 20.229 5.72479 20.161C5.54836 20.0788 5.47564 20.2723 5.30803 20.228C5.1403 20.1838 4.97186 20.1049 4.80306 20.2364C4.61828 20.3804 4.70733 20.4783 4.69887 20.6912C4.66465 21.5541 4.51075 21.8003 4.45997 21.3947C4.45437 21.3503 4.33039 21.3168 4.30941 21.129C4.28211 20.8856 4.2684 20.5897 4.32038 20.4159C4.36413 20.2694 4.44579 20.1675 4.59325 20.0542C4.82606 19.8754 5.14924 19.867 5.36918 19.8859C5.58901 19.9047 6.0159 20.1512 6.00135 20.5274Z" fill="#E0E0E0"/>
<path d="M4.48829 21.379C4.48423 21.3051 4.41962 21.2476 4.34595 21.2556C4.25666 21.2654 4.15796 21.3176 4.16654 21.5023C4.1818 21.8299 4.50748 21.747 4.5076 21.7376C4.50772 21.7313 4.4958 21.5161 4.48829 21.379Z" fill="#FFBE9D"/>
<path d="M4.43527 21.6204C4.43384 21.6194 4.42979 21.6247 4.42025 21.6296C4.41107 21.6343 4.39497 21.638 4.37769 21.6324C4.34252 21.6213 4.31081 21.5677 4.30652 21.5088C4.30426 21.479 4.30926 21.4504 4.31868 21.4264C4.32762 21.402 4.34228 21.3846 4.35957 21.3807C4.37674 21.3759 4.38949 21.3857 4.39402 21.3947C4.39879 21.4037 4.39712 21.4103 4.39879 21.4108C4.39974 21.4117 4.40559 21.405 4.40225 21.3916C4.40058 21.3852 4.3964 21.3777 4.38842 21.3717C4.38031 21.3656 4.36851 21.363 4.35647 21.3648C4.33132 21.3677 4.30962 21.392 4.29925 21.4183C4.28745 21.4448 4.28125 21.4771 4.28375 21.5105C4.28888 21.5764 4.3256 21.6366 4.37364 21.6481C4.397 21.6529 4.41584 21.6452 4.42537 21.637C4.43503 21.6283 4.43646 21.6209 4.43527 21.6204Z" fill="#EB996E"/>
<path d="M4.48745 20.7518C4.53049 20.7802 4.57579 20.8095 4.62717 20.8139C4.67854 20.8182 4.73672 20.7879 4.74471 20.737C4.74828 20.7141 4.74232 20.6878 4.75699 20.6699C4.77463 20.6485 4.80765 20.6547 4.83519 20.6573C4.93067 20.666 5.02723 20.5972 5.05012 20.5041C5.07492 20.5401 5.13166 20.5377 5.16802 20.5135C5.2045 20.4893 5.22751 20.4501 5.25588 20.4167C5.28413 20.3833 5.32418 20.3533 5.36758 20.3587C5.3919 20.3618 5.41478 20.3759 5.4391 20.3734C5.48214 20.369 5.5024 20.3182 5.50824 20.2754C5.51408 20.2326 5.5185 20.1827 5.55462 20.159C5.58811 20.1369 5.63198 20.1487 5.67168 20.1539C5.71138 20.1592 5.7624 20.1492 5.77194 20.1103C5.77694 20.0899 5.76788 20.0687 5.75644 20.0511C5.70422 19.9714 5.59241 19.9373 5.50479 19.9744C5.47117 19.8665 5.36865 19.7838 5.25612 19.7735C5.14358 19.7633 5.02783 19.8264 4.97538 19.9263C4.90516 19.8644 4.80419 19.8395 4.71323 19.8616C4.6224 19.8838 4.54408 19.9524 4.51022 20.0395C4.43023 20.0197 4.33975 20.0518 4.29028 20.1177C4.24069 20.1836 4.23497 20.2794 4.27621 20.3508C4.2178 20.3852 4.16821 20.4446 4.16797 20.5124C4.16773 20.5802 4.23485 20.6469 4.29994 20.628C4.27431 20.6812 4.29684 20.7526 4.34845 20.7813C4.40007 20.8101 4.47267 20.7917 4.50438 20.742" fill="#E0E0E0"/>
<path d="M4.27445 20.6221C4.27325 20.6213 4.26884 20.6498 4.29578 20.6848C4.30914 20.7014 4.33179 20.7187 4.36207 20.7229C4.39163 20.7275 4.42775 20.7197 4.45505 20.6945L4.4411 20.6925C4.45767 20.7206 4.47949 20.7489 4.50774 20.7733C4.52586 20.7888 4.54589 20.802 4.56794 20.8095C4.58952 20.8177 4.61408 20.8182 4.63398 20.8147C4.67547 20.8095 4.71135 20.7867 4.7278 20.7591C4.74485 20.7321 4.75009 20.7071 4.75331 20.6905C4.75641 20.6737 4.75653 20.6642 4.75546 20.6641C4.75403 20.6638 4.7514 20.6729 4.74616 20.6887C4.74091 20.7045 4.73364 20.7281 4.71683 20.7516C4.68643 20.799 4.58558 20.8245 4.52002 20.7591C4.49391 20.7364 4.47281 20.7096 4.45648 20.6834L4.45052 20.6738L4.44253 20.6815C4.42036 20.7028 4.38948 20.7107 4.36385 20.7078C4.33787 20.7051 4.31736 20.6915 4.30413 20.6774C4.27755 20.648 4.27731 20.6211 4.27445 20.6221Z" fill="white"/>
<path d="M4.88867 19.8676C4.88855 19.8688 4.89726 19.8698 4.91192 19.8757C4.92634 19.8818 4.94756 19.8938 4.96342 19.9183L4.96747 19.9245L4.97188 19.9184C5.00192 19.8769 5.05247 19.8233 5.12852 19.7877C5.16631 19.7703 5.21018 19.7582 5.25715 19.7576C5.30388 19.7566 5.35287 19.7694 5.39651 19.7953C5.43048 19.8153 5.45909 19.8421 5.48031 19.8724C5.50105 19.903 5.51393 19.937 5.51774 19.9706L5.51893 19.981L5.52883 19.9781C5.57782 19.9638 5.62813 19.9728 5.66532 19.9927C5.70299 20.0127 5.72719 20.0437 5.74102 20.0715C5.76832 20.1287 5.7595 20.1687 5.76284 20.1683C5.76355 20.1684 5.76618 20.1591 5.76641 20.1414C5.76653 20.1239 5.76391 20.0973 5.75056 20.0671C5.73745 20.0371 5.71265 20.0028 5.67236 19.98C5.63278 19.9574 5.57854 19.9465 5.52406 19.9614L5.53515 19.9689C5.53145 19.9323 5.51774 19.895 5.49557 19.862C5.47292 19.8292 5.44228 19.8005 5.40616 19.779C5.35967 19.7515 5.30686 19.738 5.25691 19.7393C5.20696 19.7404 5.16071 19.754 5.12161 19.7728C5.04281 19.8115 4.99227 19.8686 4.96366 19.9126H4.97212C4.95328 19.8864 4.92956 19.8754 4.91395 19.8706C4.89773 19.8659 4.88867 19.8668 4.88867 19.8676Z" fill="white"/>
<path d="M5.18041 21.6574C5.18577 21.6572 5.1872 21.6227 5.21474 21.5938C5.2412 21.5639 5.27554 21.5594 5.27506 21.5541C5.27506 21.5517 5.26588 21.5492 5.25098 21.552C5.2362 21.5546 5.21653 21.564 5.20079 21.5812C5.18518 21.5984 5.17743 21.6187 5.17612 21.6336C5.17469 21.6485 5.17814 21.6575 5.18041 21.6574Z" fill="#EB996E"/>
<path d="M5.14391 21.562C5.14856 21.5648 5.16024 21.5532 5.17753 21.5452C5.19458 21.5366 5.21091 21.5347 5.21174 21.5295C5.21305 21.5245 5.19219 21.5172 5.16942 21.5283C5.14653 21.5391 5.13926 21.56 5.14391 21.562Z" fill="#EB996E"/>
<path d="M4.76498 22.3395C4.76522 22.3379 4.76021 22.3371 4.75616 22.331C4.7521 22.3252 4.74889 22.3137 4.75496 22.3021C4.76009 22.2895 4.77475 22.2785 4.78465 22.2571C4.78954 22.247 4.79085 22.231 4.78369 22.219C4.77726 22.2072 4.76796 22.1994 4.76224 22.1913C4.73673 22.1589 4.81064 22.1358 4.80086 22.0942C4.79907 22.0766 4.79001 22.0651 4.78274 22.0593C4.77523 22.0536 4.76987 22.0531 4.76951 22.0541C4.76748 22.0561 4.78727 22.0666 4.78751 22.0946C4.78775 22.1086 4.77952 22.1203 4.76367 22.1335C4.75616 22.1403 4.74722 22.1488 4.74185 22.1609C4.73541 22.1729 4.73804 22.1917 4.74686 22.202C4.75473 22.2129 4.76331 22.22 4.76748 22.2277C4.77177 22.2348 4.77154 22.2423 4.76844 22.2506C4.76248 22.2667 4.74793 22.2804 4.74257 22.297C4.73613 22.3141 4.74316 22.3301 4.75079 22.3359C4.75878 22.3426 4.76522 22.3403 4.76498 22.3395Z" fill="#EB996E"/>
<path d="M4.66355 22.3221C4.6651 22.3219 4.6651 22.3172 4.66772 22.3102C4.67023 22.303 4.67642 22.2941 4.6856 22.2825C4.69001 22.2767 4.69514 22.2701 4.69955 22.2614C4.70384 22.253 4.70694 22.241 4.70396 22.2294C4.69824 22.2058 4.67881 22.1912 4.66963 22.1743C4.65914 22.1576 4.6682 22.1434 4.68203 22.129C4.68847 22.1217 4.69526 22.1141 4.69943 22.1048C4.7036 22.0956 4.70468 22.0862 4.70432 22.0781C4.70122 22.0439 4.67821 22.0341 4.67821 22.0365C4.67583 22.0384 4.69204 22.0511 4.69109 22.0782C4.69061 22.0918 4.68382 22.1038 4.66951 22.1172C4.66284 22.1241 4.65449 22.1318 4.64936 22.1442C4.644 22.1566 4.64662 22.1726 4.65318 22.1835C4.66617 22.2052 4.68334 22.2183 4.68715 22.2335C4.69168 22.248 4.68191 22.2626 4.67464 22.275C4.66689 22.2874 4.66117 22.2994 4.66057 22.3086C4.65986 22.3178 4.6626 22.3225 4.66355 22.3221Z" fill="#EB996E"/>
<path d="M6.8536 23.377C6.68039 23.0469 6.22656 22.8584 6.22656 22.8584L6.3683 24.3418C6.63617 24.1821 6.86529 23.9662 7.02956 23.7838C7.02956 23.7838 7.02682 23.7071 6.8536 23.377Z" fill="#455A64"/>
<path d="M6.43328 23.0791C6.43459 23.0797 6.42541 23.1034 6.41111 23.1419C6.3968 23.1804 6.37785 23.2338 6.35925 23.2937C6.34078 23.3535 6.32623 23.4084 6.31622 23.4482C6.3062 23.488 6.30036 23.5128 6.29905 23.5126C6.29846 23.5124 6.29905 23.5061 6.30084 23.4947C6.30251 23.4832 6.30561 23.4669 6.30978 23.4468C6.31812 23.4063 6.33171 23.351 6.35031 23.2909C6.36891 23.2309 6.38906 23.1775 6.40491 23.1395C6.4129 23.1205 6.41969 23.1053 6.4247 23.095C6.42959 23.0845 6.43268 23.0789 6.43328 23.0791Z" fill="#263238"/>
<path d="M6.22675 22.8593L5.64322 22.7103C5.25507 22.865 4.87181 22.7751 4.49153 22.5361L3.48826 22.961C3.16401 23.1569 3.11919 23.4242 3.08391 23.5541L3.01953 23.7682C3.25175 24.0322 3.5245 24.2822 3.86211 24.426C4.59966 24.7487 5.44795 24.8182 6.36861 24.3428L6.22675 22.8593Z" fill="#455A64"/>
<path d="M3.93641 24.1328C3.93379 24.1328 3.93164 24.0412 3.93164 23.9282C3.93164 23.8152 3.93379 23.7236 3.93641 23.7236C3.93903 23.7236 3.94118 23.8152 3.94118 23.9282C3.94118 24.0412 3.93903 24.1328 3.93641 24.1328Z" fill="#263238"/>
<path d="M3.82063 23.5197C3.82003 23.5198 3.81741 23.5117 3.81335 23.4969C3.80942 23.482 3.8031 23.4608 3.79452 23.4348C3.77747 23.3828 3.74874 23.3124 3.70642 23.2404C3.66398 23.1683 3.6163 23.1091 3.57922 23.0689C3.56063 23.0488 3.54513 23.0329 3.53404 23.0223C3.52308 23.0116 3.51724 23.0054 3.51759 23.0049C3.51807 23.0044 3.52475 23.0097 3.53655 23.0196C3.54847 23.0294 3.5648 23.0446 3.58411 23.0643C3.62286 23.1036 3.67173 23.1627 3.71465 23.2355C3.75732 23.3083 3.78534 23.3798 3.80095 23.4328C3.80882 23.4592 3.81419 23.4809 3.81693 23.4961C3.81991 23.5111 3.82122 23.5195 3.82063 23.5197Z" fill="#263238"/>
<path d="M7.66327 22.0476C7.6622 22.0476 7.66041 22.0331 7.6579 22.005C7.65552 21.9738 7.65242 21.9324 7.64849 21.8802C7.64658 21.8524 7.64455 21.8218 7.64241 21.7883C7.63859 21.7547 7.6312 21.7182 7.62512 21.6785C7.61225 21.5992 7.59985 21.5073 7.56921 21.4075C7.52212 21.2048 7.4264 20.9653 7.2762 20.7117C7.12468 20.4591 6.90653 20.1954 6.60993 19.9718C6.31429 19.7503 5.9414 19.5619 5.51118 19.4861C5.08393 19.413 4.60173 19.4265 4.14265 19.6011C4.02582 19.6386 3.91603 19.6964 3.80314 19.7506C3.69621 19.8154 3.58356 19.875 3.48402 19.9559C3.37816 20.0286 3.28565 20.1196 3.18873 20.2071C3.10123 20.304 3.0092 20.3989 2.93374 20.5089C2.77889 20.7241 2.64359 20.9631 2.56181 21.2261C2.47705 21.4874 2.4314 21.7648 2.42758 22.0472C2.43128 22.3297 2.47681 22.6073 2.56169 22.8686C2.64347 23.1315 2.77877 23.3707 2.93362 23.5858C3.00908 23.6959 3.10112 23.7908 3.18862 23.8878C3.28553 23.9753 3.37804 24.0664 3.4839 24.1391C3.58344 24.2202 3.69621 24.2798 3.80314 24.3445C3.91603 24.3987 4.02594 24.4566 4.14277 24.494C4.60196 24.6686 5.08417 24.6821 5.51153 24.609C5.94176 24.5331 6.31465 24.3449 6.61029 24.1232C6.90688 23.8996 7.12504 23.6359 7.27643 23.3833C7.42676 23.1296 7.52236 22.8903 7.56945 22.6875C7.60009 22.5876 7.61237 22.4958 7.62536 22.4165C7.63144 22.3768 7.63895 22.3405 7.64264 22.3067C7.64491 22.2732 7.64694 22.2426 7.64873 22.2148C7.65266 22.1625 7.65576 22.1212 7.65814 22.09C7.66041 22.062 7.6622 22.0476 7.66327 22.0476C7.66434 22.0476 7.6647 22.062 7.66422 22.0902C7.66339 22.1217 7.66231 22.1632 7.661 22.2158C7.66005 22.2438 7.65898 22.2745 7.65778 22.3084C7.65504 22.3424 7.64849 22.3791 7.64336 22.4191C7.63227 22.4992 7.62178 22.5921 7.59258 22.6934C7.54871 22.899 7.45537 23.1424 7.306 23.4011C7.15532 23.6587 6.93645 23.9285 6.63663 24.1582C6.33778 24.3857 5.95905 24.5799 5.52071 24.6597C5.08536 24.7366 4.59302 24.7248 4.12298 24.5479C4.00341 24.5098 3.89088 24.4512 3.77536 24.396C3.66581 24.3303 3.55042 24.2694 3.44837 24.1869C3.34001 24.1128 3.24512 24.02 3.14582 23.9305C3.05593 23.8315 2.96176 23.7345 2.88427 23.6221C2.72537 23.4021 2.58684 23.1574 2.5028 22.8882C2.41578 22.6207 2.36905 22.3364 2.36523 22.0473C2.36905 21.7584 2.4159 21.4742 2.50292 21.2068C2.58696 20.9377 2.7256 20.693 2.88451 20.4732C2.962 20.3607 3.05617 20.2637 3.14594 20.1648C3.24512 20.0752 3.34013 19.9826 3.44837 19.9085C3.55042 19.826 3.66569 19.7651 3.77524 19.6994C3.89076 19.6442 4.00329 19.5855 4.12286 19.5475C4.59278 19.3706 5.08512 19.3588 5.52036 19.4357C5.95869 19.5153 6.33742 19.7095 6.63628 19.9371C6.93609 20.1667 7.15508 20.4364 7.30576 20.6941C7.45525 20.9527 7.54847 21.1963 7.59246 21.4018C7.62155 21.503 7.63215 21.596 7.64324 21.6761C7.64849 21.7162 7.65492 21.753 7.65767 21.7869C7.65886 21.8206 7.65993 21.8515 7.66088 21.8795C7.66219 21.9321 7.66327 21.9735 7.6641 22.005C7.6647 22.033 7.66434 22.0476 7.66327 22.0476Z" fill="#263238"/>
<path d="M6.91187 30.4814C7.9355 29.4577 7.9355 27.7981 6.91187 26.7745C5.88825 25.7509 4.22863 25.7509 3.205 26.7745C2.18137 27.7981 2.18137 29.4577 3.205 30.4814C4.22863 31.505 5.88825 31.505 6.91187 30.4814Z" fill="#F5F5F5"/>
<path d="M5.95854 27.0443C5.90668 26.8737 5.78306 26.7263 5.62427 26.6452C5.44975 26.5561 5.24185 26.5486 5.05087 26.5925C4.8599 26.6364 4.68347 26.7284 4.51682 26.8314C4.42324 26.8891 4.33025 26.9523 4.26433 27.0403C4.14405 27.2008 4.02806 27.4621 4.02174 27.6627C4.01661 27.8248 4.09016 28.2282 4.16276 28.3733C4.18863 28.4249 4.24919 28.4705 4.32203 28.5089C4.40035 28.6519 4.50287 28.7816 4.62625 28.8884C4.6607 28.7786 4.69503 28.6689 4.72948 28.5591L5.95854 27.0443Z" fill="#263238"/>
<path d="M5.85962 26.8477L5.53906 26.7998C5.72527 27.2101 5.79965 28.1583 5.91195 28.5947C6.0246 28.4208 6.28293 27.8933 6.26243 27.6871C6.24192 27.4808 6.23763 26.8017 5.85962 26.8477Z" fill="#263238"/>
<path d="M4.36696 27.5836C4.37721 27.3405 4.5286 27.137 4.76249 27.0701L5.4917 26.8618C5.8082 26.8184 6.03136 27.2029 6.06117 27.5209C6.09443 27.8742 6.11922 28.2473 6.08548 28.5128C6.01742 29.0466 5.61246 29.1268 5.61246 29.1268C5.61234 29.1259 5.61961 29.3795 5.62378 29.5347L5.50493 30.2299L4.54339 29.409L4.36529 27.59C4.36493 27.581 4.36648 27.5957 4.36696 27.5836Z" fill="#FFBE9D"/>
<path d="M5.9776 27.9755C5.97998 28.0115 5.95149 28.0431 5.91406 28.0463C5.87663 28.0496 5.84432 28.023 5.84194 27.9871C5.83955 27.9512 5.86804 27.9195 5.90548 27.9163C5.94291 27.9131 5.97533 27.9396 5.9776 27.9755Z" fill="#263238"/>
<path d="M5.9959 27.7277C5.98768 27.7369 5.93499 27.7003 5.86167 27.7027C5.78836 27.7041 5.73579 27.7434 5.72756 27.7347C5.72351 27.7309 5.73162 27.7146 5.75451 27.6968C5.77704 27.6792 5.8159 27.6614 5.86155 27.6602C5.90721 27.659 5.94619 27.6746 5.96872 27.6912C5.99185 27.7077 5.99996 27.7235 5.9959 27.7277Z" fill="#263238"/>
<path d="M5.29205 27.9755C5.29443 28.0114 5.26594 28.0431 5.22851 28.0464C5.19108 28.0495 5.15877 28.023 5.15639 27.9871C5.15401 27.9512 5.1825 27.9195 5.21993 27.9163C5.25736 27.913 5.28967 27.9395 5.29205 27.9755Z" fill="#263238"/>
<path d="M5.28899 27.7472C5.28077 27.7564 5.22796 27.7198 5.15464 27.7222C5.08145 27.7236 5.02876 27.763 5.02053 27.7543C5.01648 27.7504 5.02459 27.7341 5.04747 27.7163C5.07 27.6987 5.10887 27.6809 5.15452 27.6798C5.20018 27.6786 5.23916 27.6943 5.26169 27.7107C5.28482 27.7273 5.29305 27.7432 5.28899 27.7472Z" fill="#263238"/>
<path d="M5.53353 28.3109C5.53305 28.3067 5.57835 28.2974 5.6519 28.2857C5.67062 28.2832 5.68814 28.2789 5.69088 28.266C5.69494 28.2523 5.68647 28.2324 5.6767 28.211C5.65774 28.1663 5.63784 28.1193 5.61697 28.0702C5.53389 27.8697 5.47309 27.7044 5.48119 27.7012C5.4893 27.698 5.56321 27.8579 5.64642 28.0584C5.66645 28.1078 5.68564 28.1551 5.70388 28.2001C5.71163 28.2212 5.7245 28.2449 5.7158 28.2733C5.71115 28.2875 5.6978 28.298 5.68588 28.3017C5.67396 28.3057 5.66347 28.3062 5.65417 28.307C5.58002 28.3134 5.53389 28.315 5.53353 28.3109Z" fill="#263238"/>
<path d="M4.90234 28.958C4.90234 28.958 5.08569 29.3179 5.6157 29.2519L5.61224 29.1269C5.61224 29.1269 5.26295 29.1599 4.90234 28.958Z" fill="#EB996E"/>
<path d="M5.26528 27.4882C5.25872 27.5083 5.18517 27.5012 5.09946 27.5142C5.01351 27.5255 4.94496 27.5528 4.93292 27.5353C4.92756 27.5269 4.93912 27.5077 4.96654 27.4876C4.99372 27.4674 5.03759 27.4478 5.08897 27.4405C5.14046 27.4332 5.18791 27.44 5.21962 27.4518C5.25169 27.4634 5.26802 27.4785 5.26528 27.4882Z" fill="#263238"/>
<path d="M5.95327 27.5038C5.94087 27.5208 5.88985 27.5051 5.82905 27.5061C5.76825 27.5051 5.71723 27.5208 5.70483 27.5038C5.69935 27.4954 5.70698 27.4785 5.72891 27.462C5.75061 27.4457 5.78721 27.4316 5.82893 27.4316C5.87065 27.4316 5.90725 27.4457 5.92895 27.462C5.95112 27.4786 5.95875 27.4955 5.95327 27.5038Z" fill="#263238"/>
<path d="M5.90344 27.0397C5.86863 26.9607 5.77958 26.9152 5.69328 26.9133C5.60697 26.9114 5.52376 26.9465 5.45033 26.9918C5.13919 27.1837 4.98922 27.63 4.68202 27.8281C4.60644 27.8769 4.50523 27.8371 4.44157 27.9006C4.37792 27.9642 4.33834 28.0638 4.37684 28.145C4.33321 28.0886 4.28899 28.0312 4.26312 27.9646C4.23737 27.8981 4.23212 27.8202 4.26598 27.7573C4.29173 27.7096 4.33846 27.6726 4.35002 27.6196C4.36027 27.5732 4.3406 27.5253 4.34132 27.4777C4.34192 27.4291 4.36349 27.3836 4.38614 27.3408C4.50237 27.1207 4.66521 26.9201 4.87872 26.7921C5.01819 26.7085 5.17889 26.6573 5.34149 26.6582C5.50409 26.6591 5.668 26.7141 5.79007 26.8217C5.86172 26.8848 5.93718 26.9503 5.90344 27.0397Z" fill="#263238"/>
<path d="M4.44339 27.959C4.43731 27.944 4.1574 27.8518 4.16217 28.1465C4.16682 28.4327 4.45388 28.3681 4.45423 28.3599C4.45447 28.3517 4.44339 27.959 4.44339 27.959Z" fill="#FFBE9D"/>
<path d="M4.37209 28.2526C4.37078 28.2518 4.3672 28.2562 4.35886 28.2603C4.35075 28.2642 4.33669 28.267 4.32155 28.2618C4.29115 28.2513 4.26468 28.2038 4.2623 28.1523C4.26111 28.1263 4.26599 28.1013 4.27493 28.0806C4.28328 28.0595 4.29651 28.0446 4.31165 28.0416C4.32679 28.0378 4.33776 28.0467 4.34134 28.0547C4.34539 28.0626 4.3436 28.0684 4.34515 28.0689C4.34598 28.0696 4.35123 28.064 4.34861 28.0522C4.3473 28.0465 4.34384 28.0398 4.33704 28.0345C4.33001 28.029 4.31988 28.0264 4.30939 28.0277C4.28733 28.0296 4.2679 28.0503 4.25813 28.0731C4.24716 28.096 4.24096 28.124 4.24239 28.1532C4.24537 28.2108 4.27589 28.2642 4.31749 28.2754C4.33776 28.2803 4.35445 28.2738 4.36291 28.2669C4.37161 28.2595 4.37304 28.2531 4.37209 28.2526Z" fill="#EB996E"/>
<path d="M4.33399 27.8221C4.33423 27.8225 4.34007 27.819 4.35104 27.812C4.36177 27.8047 4.37846 27.795 4.39813 27.7802C4.43735 27.7501 4.49147 27.7027 4.54857 27.6351C4.60603 27.5679 4.66575 27.4811 4.73048 27.3843C4.79533 27.2877 4.86638 27.1808 4.95829 27.0835C5.00514 27.0359 5.0545 26.993 5.10719 26.9588C5.15976 26.9244 5.21519 26.8985 5.26967 26.8794C5.37886 26.8408 5.48436 26.8301 5.57175 26.8335C5.65936 26.8365 5.7291 26.8531 5.77595 26.8675C5.79968 26.8739 5.81732 26.8813 5.82948 26.8856C5.84164 26.89 5.84819 26.8921 5.84831 26.8917C5.84855 26.8913 5.84235 26.8884 5.83043 26.8832C5.81851 26.8781 5.80111 26.87 5.77738 26.8627C5.73077 26.8468 5.66068 26.8285 5.5721 26.8244C5.48389 26.8196 5.37672 26.8295 5.26573 26.8681C5.2103 26.8872 5.15392 26.9132 5.10027 26.9481C5.04651 26.9828 4.99632 27.0263 4.94888 27.0746C4.85589 27.173 4.78484 27.2808 4.72059 27.3777C4.65645 27.4749 4.5978 27.5618 4.54166 27.6293C4.48587 27.6971 4.43317 27.745 4.39515 27.7762C4.37595 27.7916 4.35998 27.802 4.34973 27.81C4.33912 27.8175 4.33375 27.8218 4.33399 27.8221Z" fill="white"/>
<path d="M4.40718 27.9013C4.40492 27.9796 4.40373 28.0622 4.44175 28.1306C4.4799 28.199 4.57229 28.2436 4.63917 28.2029C4.69364 28.1696 4.70819 28.0981 4.71582 28.0348C4.73775 27.8518 4.7449 27.6671 4.76839 27.4844L4.40718 27.9013Z" fill="#263238"/>
<path d="M5.82968 26.9042C5.82945 26.9059 5.80429 26.9001 5.7584 26.9C5.71274 26.9001 5.64562 26.908 5.57004 26.9401C5.53237 26.9559 5.49244 26.9768 5.45322 27.0046C5.41388 27.0322 5.37383 27.0651 5.33353 27.1015C5.25342 27.1748 5.17093 27.2625 5.10131 27.3666C5.06639 27.4187 5.03575 27.4721 5.00225 27.5217C4.96911 27.5714 4.93192 27.6166 4.89115 27.6539C4.81008 27.7285 4.7258 27.7817 4.65392 27.8226C4.5818 27.8634 4.52136 27.8922 4.47975 27.9122C4.46008 27.9213 4.44411 27.9287 4.43136 27.9345C4.42027 27.9394 4.41431 27.9418 4.41407 27.9412C4.41383 27.9407 4.41931 27.9374 4.42992 27.9316C4.4422 27.925 4.45782 27.9168 4.47689 27.9066C4.51766 27.8851 4.57727 27.8547 4.6482 27.8128C4.71889 27.7709 4.80162 27.7172 4.88101 27.6432C4.92047 27.6063 4.95647 27.5622 4.98914 27.513C5.02204 27.464 5.05268 27.4105 5.08796 27.3578C5.15853 27.2522 5.24222 27.164 5.32364 27.0905C5.36465 27.054 5.4053 27.0214 5.44571 26.9936C5.48612 26.9658 5.52725 26.9451 5.56587 26.9296C5.64348 26.8984 5.71238 26.892 5.75863 26.8938C5.78188 26.8947 5.79976 26.8973 5.8118 26.8997C5.8236 26.9022 5.8298 26.9037 5.82968 26.9042Z" fill="#455A64"/>
<path d="M4.39516 27.7236C4.39564 27.7244 4.38682 27.7306 4.37036 27.7414C4.35105 27.7534 4.32733 27.7683 4.29908 27.7859C4.29133 27.7907 4.28334 27.7956 4.27512 27.8006C4.26618 27.8059 4.25628 27.8105 4.24412 27.8119C4.23816 27.8124 4.23101 27.8121 4.22457 27.8079C4.21825 27.8038 4.21408 27.7968 4.21337 27.7893C4.21241 27.7743 4.22004 27.7629 4.22588 27.7527C4.25044 27.7106 4.2775 27.6646 4.30611 27.6156L4.31779 27.6258C4.29157 27.6465 4.26069 27.6633 4.22719 27.6744C4.19346 27.6855 4.15865 27.6903 4.12515 27.6894C4.11693 27.6894 4.10775 27.6886 4.09904 27.6857C4.09058 27.6829 4.08069 27.6776 4.07628 27.667C4.07175 27.6566 4.07544 27.6449 4.08021 27.6379C4.08498 27.6304 4.09094 27.6248 4.09606 27.6195C4.13743 27.5772 4.16807 27.533 4.19 27.4939C4.23375 27.4152 4.2452 27.3593 4.24818 27.3604C4.24913 27.3606 4.2471 27.3746 4.24031 27.3991C4.23327 27.4235 4.22123 27.4587 4.20001 27.4992C4.17891 27.5398 4.14864 27.5858 4.10679 27.6298C4.09642 27.6402 4.08617 27.6522 4.09058 27.661C4.09428 27.67 4.11061 27.6739 4.12563 27.6735C4.15734 27.6742 4.19024 27.6696 4.22219 27.659C4.25402 27.6485 4.28322 27.6328 4.30814 27.6133L4.34164 27.5873L4.31982 27.6236C4.29049 27.6721 4.26296 27.7179 4.2378 27.7596C4.23149 27.7697 4.22576 27.7796 4.22648 27.7879C4.22707 27.796 4.23411 27.8005 4.24329 27.7995C4.26177 27.798 4.27822 27.785 4.29407 27.7769C4.32328 27.7608 4.34783 27.7473 4.36774 27.7364C4.38503 27.7274 4.39468 27.7228 4.39516 27.7236Z" fill="white"/>
<path d="M5.2633 28.4624C5.27176 28.4185 5.31551 28.3837 5.36009 28.3869C5.39288 28.3893 5.42292 28.4105 5.43853 28.4394C5.45415 28.4682 5.45582 28.5038 5.44557 28.535L5.44426 28.5419C5.41517 28.5759 5.36355 28.589 5.32242 28.5715C5.2813 28.5539 5.25483 28.5063 5.2633 28.4624Z" fill="#EB996E"/>
<path d="M5.4963 28.542C5.49607 28.5309 5.42204 28.5365 5.36458 28.4773C5.30688 28.4182 5.30903 28.3386 5.29865 28.3389C5.29389 28.3383 5.28566 28.3576 5.28733 28.391C5.28876 28.4238 5.30307 28.4706 5.33823 28.5068C5.37352 28.543 5.41774 28.5562 5.44838 28.5563C5.4795 28.5567 5.49714 28.547 5.4963 28.542Z" fill="#263238"/>
<path d="M4.02611 29.3725L4.53502 29.3301C4.53502 29.3301 4.81576 29.7001 5.19759 29.6715C5.57942 29.6429 5.62102 29.3865 5.62102 29.3865C5.62102 29.3865 6.30207 29.5176 6.67209 29.9091L6.68056 29.9197L6.95748 30.41C6.7255 30.6179 6.51843 30.8452 6.27071 30.9486C5.59062 31.2868 4.62479 31.3494 3.82227 30.9408L4.02611 29.3725Z" fill="#FF725E"/>
<path d="M4.03641 29.3701C4.03641 29.3701 3.77034 29.4139 3.61072 29.5078C3.25118 29.7193 3.06641 30.3592 3.06641 30.3592C3.314 30.6203 3.61668 30.8474 3.94129 30.9914C3.94129 30.9914 4.21785 30.6213 4.33349 30.2623C4.36055 30.1781 4.29892 29.7571 4.29892 29.7605C4.29892 29.7605 4.03653 29.3786 4.03641 29.3701Z" fill="#FF725E"/>
<path d="M6.45806 30.8554C6.45043 30.8553 6.4502 30.7736 6.42683 30.6776C6.40335 30.5815 6.3689 30.5073 6.37593 30.504C6.38106 30.501 6.42635 30.5716 6.45103 30.6718C6.47523 30.7722 6.46402 30.8561 6.45806 30.8554Z" fill="#263238"/>
<path d="M3.94207 30.9824C3.93838 30.9815 3.95054 30.929 3.96699 30.844C3.98344 30.759 4.00275 30.641 4.01443 30.5096C4.026 30.3782 4.02838 30.2586 4.02862 30.1719C4.02886 30.0853 4.02802 30.0315 4.03172 30.0313C4.03482 30.031 4.04185 30.0845 4.04614 30.1714C4.05031 30.2583 4.05079 30.3791 4.03911 30.5118C4.02731 30.6443 4.00502 30.7632 3.98403 30.8477C3.96305 30.9324 3.94493 30.9833 3.94207 30.9824Z" fill="#263238"/>
<path d="M7.65338 28.6158C7.65231 28.6158 7.65052 28.6014 7.64802 28.5732C7.64564 28.5419 7.64254 28.5006 7.6386 28.4484C7.6367 28.4207 7.63467 28.39 7.6324 28.3565C7.62859 28.3229 7.6212 28.2864 7.61512 28.2467C7.60212 28.1675 7.58985 28.0757 7.55921 27.9758C7.51212 27.773 7.4164 27.5335 7.26619 27.2799C7.11468 27.0273 6.89652 26.7636 6.59993 26.5401C6.30429 26.3186 5.9314 26.1303 5.50117 26.0545C5.07393 25.9813 4.59172 25.9949 4.13265 26.1695C4.01582 26.2069 3.90603 26.2648 3.79314 26.319C3.68621 26.3837 3.57355 26.4433 3.47401 26.5243C3.36816 26.597 3.27565 26.6879 3.17873 26.7754C3.09123 26.8724 2.9992 26.9673 2.92374 27.0773C2.76889 27.2925 2.63359 27.5315 2.55181 27.7945C2.46705 28.0556 2.42127 28.3332 2.41758 28.6156C2.42127 28.8981 2.46681 29.1756 2.55169 29.4369C2.63347 29.6999 2.76877 29.939 2.92362 30.1543C2.99908 30.2644 3.09111 30.3592 3.17861 30.4563C3.27553 30.5438 3.36804 30.6349 3.47389 30.7076C3.57343 30.7886 3.68621 30.8482 3.79314 30.913C3.90603 30.9672 4.01594 31.025 4.13277 31.0625C4.59196 31.2371 5.07416 31.2506 5.50153 31.1775C5.93176 31.1016 6.30465 30.9133 6.60029 30.6917C6.89688 30.4681 7.11503 30.2044 7.26655 29.9518C7.41675 29.6981 7.51248 29.4587 7.55957 29.256C7.5902 29.1561 7.60248 29.0643 7.61548 28.985C7.62156 28.9453 7.62907 28.9089 7.63276 28.8752C7.63503 28.8417 7.63705 28.8111 7.63896 28.7833C7.6429 28.731 7.64599 28.6897 7.64838 28.6585C7.65052 28.6302 7.65231 28.6158 7.65338 28.6158C7.65446 28.6158 7.65482 28.6302 7.65434 28.6585C7.6535 28.69 7.65243 28.7314 7.65112 28.784C7.65017 28.812 7.64909 28.8428 7.6479 28.8766C7.64516 28.9106 7.6386 28.9473 7.63348 28.9874C7.62239 29.0675 7.6119 29.1604 7.58269 29.2617C7.53883 29.4672 7.44548 29.7106 7.29611 29.9694C7.14543 30.227 6.92656 30.4968 6.62675 30.7265C6.32789 30.9541 5.94916 31.1483 5.51083 31.228C5.07548 31.3049 4.58314 31.2931 4.1131 31.1162C3.99353 31.0782 3.881 31.0195 3.76548 30.9644C3.65593 30.8987 3.54053 30.8378 3.43849 30.7553C3.33013 30.6811 3.23524 30.5884 3.13594 30.4988C3.04605 30.3999 2.95188 30.3029 2.87451 30.1904C2.7156 29.9704 2.57708 29.7258 2.49304 29.4566C2.40601 29.1891 2.35916 28.9048 2.35547 28.6157C2.35928 28.3267 2.40613 28.0425 2.49316 27.7751C2.5772 27.5061 2.71584 27.2615 2.87475 27.0415C2.95223 26.9291 3.04641 26.8321 3.13617 26.7331C3.23536 26.6436 3.33025 26.551 3.43861 26.4768C3.54065 26.3943 3.65593 26.3335 3.76548 26.2677C3.881 26.2125 3.99353 26.1539 4.1131 26.1159C4.58302 25.939 5.07536 25.9271 5.51059 26.004C5.94893 26.0837 6.32765 26.2779 6.62651 26.5054C6.92632 26.735 7.14531 27.0048 7.29599 27.2624C7.44548 27.5211 7.53871 27.7646 7.58269 27.9702C7.61178 28.0714 7.62239 28.1644 7.63348 28.2445C7.63872 28.2845 7.64516 28.3214 7.6479 28.3553C7.64909 28.3891 7.65017 28.4199 7.65112 28.448C7.65255 28.5005 7.65362 28.542 7.65434 28.5735C7.65482 28.6014 7.65446 28.6158 7.65338 28.6158Z" fill="#263238"/>
</svg>
