<svg width="24" height="24" viewBox="0 0 24 24" fill="none" xmlns="http://www.w3.org/2000/svg">
<path d="M11.8009 20.9977L11.9788 12.9996M11.8009 20.9977L4.84076 16.4293C4.38773 16.1319 4.16122 15.9832 4.04092 15.7543C3.92063 15.5254 3.92665 15.2545 3.9387 14.7128L4.09194 7.82298M11.8009 20.9977L15.8555 18.5872L18.9573 16.7432C19.4231 16.4663 19.656 16.3279 19.7863 16.1045C19.9167 15.8812 19.9227 15.6103 19.9347 15.0686L20.088 8.17877M11.9788 12.9996L4.09194 7.82298M11.9788 12.9996L20.088 8.17877M4.09194 7.82298L11.1267 3.64087C11.6492 3.33025 11.9104 3.17494 12.1972 3.18131C12.4839 3.18769 12.738 3.35447 13.2462 3.68802L20.088 8.17877" stroke="#333333" stroke-linejoin="round"/>
<path d="M15 14.5C15 15.0523 15.4477 15.5 16 15.5C16.5523 15.5 17 15.0523 17 14.5H15ZM15.8746 10.5695L16.7493 10.0847L15.8746 10.5695ZM7.47 6.348L14.53 10.7605L15.59 9.0645L8.53 4.652L7.47 6.348ZM17 14.5V11.6085H15V14.5H17ZM14.53 10.7605C14.7757 10.9141 14.9004 10.9932 14.9843 11.0575C15.0512 11.1089 15.027 11.1029 15 11.0542L16.7493 10.0847C16.5969 9.80984 16.3951 9.61902 16.201 9.47022C16.0238 9.33438 15.8038 9.19813 15.59 9.0645L14.53 10.7605ZM17 11.6085C17 11.3564 17.0011 11.0976 16.9798 10.8753C16.9565 10.6319 16.9016 10.3596 16.7493 10.0847L15 11.0542C14.973 11.0056 14.9808 10.9818 14.9889 11.0659C14.9989 11.1711 15 11.3187 15 11.6085H17Z" fill="#333333"/>
</svg>
