<svg width="23" height="17" viewBox="0 0 23 17" fill="none" xmlns="http://www.w3.org/2000/svg">
<mask id="path-1-inside-1_1571_9864" fill="white">
<path d="M4.02954 2.5774C4.0994 2.67042 4.22778 2.70786 4.2927 2.80586C4.37392 2.92989 4.3218 3.09634 4.33315 3.2467C4.3349 3.26952 4.33811 3.29409 4.34947 3.31545C4.36897 3.35143 4.40623 3.37103 4.44204 3.39063C4.57536 3.46083 4.7151 3.53923 4.78817 3.67145C4.82543 3.73844 4.84172 3.81508 4.85628 3.89026C4.90838 4.15324 4.94885 4.39984 5.03822 4.65113C5.05132 4.68535 5.06908 4.72631 5.10634 4.73596C5.12905 4.74093 5.1535 4.73099 5.1762 4.72133C5.32583 4.66429 5.49323 4.64791 5.65247 4.6757C5.67838 4.68067 5.70602 4.68886 5.72058 4.70993C5.73513 4.72952 5.73368 4.75556 5.73193 4.78013C5.72203 4.89276 5.71243 5.00392 5.70428 5.11654C5.70254 5.13292 5.70107 5.15252 5.71068 5.16715C5.72203 5.18675 5.74649 5.19172 5.76745 5.19669C6.09727 5.27333 6.39945 5.4743 6.59944 5.75015C6.36539 5.82036 6.11999 5.85459 5.87459 5.84991C5.82917 5.84991 5.78026 5.84669 5.743 5.82036C5.70399 5.79433 5.68273 5.75015 5.65682 5.71095C5.61461 5.6504 5.55291 5.5998 5.47955 5.58692C5.40649 5.57376 5.32352 5.60477 5.28946 5.67176C5.2717 5.70774 5.26821 5.7484 5.26355 5.78935C5.25045 5.89876 5.20678 6.01636 5.10751 6.06696C5.03765 6.10294 4.95467 6.09622 4.8752 6.08656C4.79718 6.07837 4.71423 6.06872 4.64116 6.09973C4.56809 6.12927 4.51103 6.21557 4.54189 6.28928C4.59225 6.40688 4.79719 6.37265 4.86036 6.48528C4.87172 6.50663 4.87812 6.53267 4.88977 6.55373C4.89937 6.57187 4.91567 6.58796 4.93023 6.60288C5.06501 6.7351 5.23734 6.82666 5.42103 6.86264C5.50865 6.88048 5.59977 6.88721 5.68099 6.92143C5.80762 6.97526 5.92145 7.15166 5.78667 7.26106C5.68275 7.34765 5.52351 7.2792 5.39338 7.3181C5.2813 7.35408 5.21144 7.46349 5.15467 7.56792C5.08655 7.68874 5.02309 7.8391 5.088 7.96137C5.16602 8.11173 5.37882 8.12139 5.49905 8.24074C5.58842 8.32879 5.63062 8.47739 5.75085 8.5084C5.81431 8.52303 5.87923 8.50021 5.94269 8.4888C6.11182 8.45779 6.29523 8.51834 6.414 8.64384C6.46611 8.69942 6.50658 8.76787 6.56684 8.81702C6.6303 8.86587 6.70832 8.89044 6.78284 8.91648C6.89347 8.95392 7.00233 8.99663 7.10771 9.04226C7.23114 9.09609 7.36302 9.16805 7.40173 9.29705C7.44715 9.44566 7.33827 9.60743 7.19854 9.67442C7.05706 9.74141 6.89638 9.73643 6.74034 9.73146C6.68853 9.72999 6.63321 9.72648 6.591 9.69869C6.53075 9.66125 6.50337 9.58285 6.43817 9.55506C6.36015 9.52084 6.27077 9.57963 6.22536 9.65306C6.1814 9.72648 6.16365 9.81483 6.11969 9.88825C6.07574 9.96167 5.98636 10.0205 5.90689 9.98771C5.80442 9.94354 5.80938 9.7885 5.7299 9.70835C5.63238 9.60889 5.45538 9.67412 5.37241 9.78499C5.28799 9.89615 5.2586 10.0398 5.18553 10.1574C5.0327 10.404 4.72237 10.502 4.53548 10.7223C4.48017 10.7875 4.42981 10.8676 4.34859 10.8937C4.27058 10.9215 4.18295 10.8905 4.10144 10.9083C4.04293 10.9215 3.99431 10.9571 3.94715 10.9949C3.71805 11.1763 3.4971 11.3883 3.21764 11.4781C3.13321 11.5059 3.04383 11.5223 2.96407 11.563C2.87295 11.6104 2.79988 11.687 2.73817 11.7686C2.50907 12.0723 2.4261 12.528 2.52362 12.8987C2.53672 12.9475 2.55448 12.9949 2.56758 13.0455C2.59669 13.1695 2.58389 13.2985 2.5967 13.4261C2.60806 13.5533 2.65201 13.6891 2.75914 13.7575C2.86626 13.826 3.02084 13.8213 3.0907 13.9272C3.11021 13.9582 3.12012 13.9942 3.12798 14.0302C3.14428 14.1053 3.16058 14.1837 3.21239 14.2393C3.2351 14.2653 3.26596 14.2849 3.28721 14.3127C3.32302 14.3601 3.32767 14.4254 3.31486 14.4842C3.30351 14.543 3.2776 14.5985 3.25809 14.6538C3.24674 14.6866 3.23858 14.7258 3.26129 14.7518C3.26304 14.7536 3.26624 14.7568 3.26945 14.7583C3.27585 14.7632 3.284 14.7682 3.29215 14.7714C3.49855 14.8563 3.72939 14.734 3.95035 14.7419C4.02836 14.7451 4.10464 14.7632 4.18266 14.7729C4.37275 14.7975 4.56459 14.7629 4.74478 14.7009C4.8164 14.6763 4.91218 14.6521 4.96429 14.5965C5.01639 14.5427 5.04055 14.4739 5.10575 14.4265C5.18552 14.3695 5.29905 14.3513 5.37707 14.4101C5.44694 14.464 5.46644 14.5588 5.5005 14.6404C5.53631 14.722 5.61578 14.8036 5.7005 14.7743C5.75581 14.7547 5.78492 14.6927 5.82393 14.6471C5.93281 14.5245 6.13105 14.5295 6.27719 14.6029C6.29669 14.6126 6.31794 14.6243 6.3357 14.6371C6.34705 14.6436 6.35695 14.6518 6.36656 14.66C6.37791 14.6696 6.38927 14.6796 6.39916 14.6927C6.41226 14.7074 6.4236 14.7237 6.43321 14.7416C6.45766 14.7904 6.46233 14.8478 6.47048 14.9016C6.5159 15.1956 6.68328 15.4682 6.92548 15.6396C6.9872 15.6838 7.08326 15.718 7.13188 15.6592C7.17263 15.6104 7.14817 15.5335 7.17903 15.4779C7.23754 15.3717 7.4163 15.4404 7.51061 15.3653C7.57903 15.3114 7.58048 15.2003 7.6486 15.1464C7.75253 15.0663 7.93941 15.1628 8.01423 15.0549C8.03198 15.0271 8.03693 14.9946 8.04333 14.9619C8.05789 14.8688 8.08235 14.774 8.14086 14.7024C8.19937 14.629 8.30009 14.583 8.38801 14.6143C8.50329 14.6535 8.54551 14.7957 8.55366 14.9197C8.56006 15.0423 8.5519 15.176 8.62526 15.2757C8.72773 15.3328 8.85582 15.2775 8.95189 15.2087C9.04766 15.1403 9.14373 15.0537 9.26046 15.0487C9.33353 15.0455 9.4034 15.0748 9.47501 15.0797C9.65055 15.0929 9.80338 14.9686 9.92827 14.8431C10.0517 14.7191 10.1786 14.5786 10.3507 14.5427C10.5879 14.4921 10.8642 14.6538 11.0624 14.5134C11.1372 14.4596 11.1844 14.368 11.2656 14.3206C11.3355 14.2797 11.4184 14.2814 11.4965 14.2896C11.5518 14.2946 11.6574 14.3142 11.6653 14.2291C11.6685 14.1981 11.6476 14.1703 11.6377 14.141C11.6199 14.0922 11.6327 14.0334 11.6703 13.9974C11.6898 13.9778 11.7142 13.9646 11.7337 13.9436C11.7841 13.8848 11.7663 13.7967 11.7663 13.7198C11.7663 13.589 11.833 13.4618 11.9337 13.3802C12.0362 13.2985 12.1692 13.2608 12.2993 13.2675C12.3675 13.2708 12.4391 13.2871 12.4944 13.3313C12.5448 13.3705 12.5756 13.4261 12.6082 13.4817C12.6408 13.5355 12.6763 13.5893 12.7316 13.6206C12.7852 13.6516 12.8632 13.6516 12.904 13.6028C12.9316 13.57 12.9366 13.5261 12.9479 13.4852C12.9692 13.4182 13.0129 13.3594 13.0714 13.3234C13.0909 13.3102 13.1153 13.3006 13.138 13.3038C13.1674 13.307 13.1901 13.3331 13.2062 13.3576C13.2452 13.4164 13.2711 13.4866 13.3246 13.5323C13.3814 13.5797 13.4644 13.596 13.5098 13.6563C13.547 13.7054 13.547 13.7739 13.5389 13.8359C13.5307 13.8962 13.513 13.9585 13.5211 14.0205C13.5275 14.0825 13.5665 14.1463 13.6282 14.1577C13.6868 14.1673 13.7403 14.1267 13.7956 14.1071C13.8509 14.0857 13.9336 14.1021 13.9371 14.1627C14.0396 14.117 14.1581 14.1103 14.2655 14.1463C14.2818 14.1527 14.2996 14.1595 14.3094 14.1755C14.3208 14.1934 14.3158 14.218 14.3112 14.2393C14.2966 14.3192 14.2867 14.4025 14.2853 14.4842C14.2835 14.5608 14.2885 14.641 14.3161 14.7126C14.3584 14.822 14.4541 14.9101 14.5665 14.9411C14.7193 14.9835 14.8541 14.9639 14.8914 14.7875C14.8978 14.7597 14.8978 14.7305 14.8995 14.7009C14.9027 14.5377 14.8882 14.4137 15.023 14.2943C15.0928 14.2323 15.1807 14.1931 15.2701 14.1653C15.3726 14.1325 15.4829 14.1147 15.5886 14.1393C15.6389 14.1507 15.6911 14.1735 15.7414 14.1621C15.7967 14.1507 15.8372 14.1033 15.8811 14.0673C15.9251 14.0299 15.99 14.0035 16.0372 14.0363C16.0552 14.0509 16.068 14.0705 16.0811 14.0884C16.1201 14.1407 16.1787 14.175 16.2372 14.2027C16.2893 14.2256 16.3542 14.2469 16.4028 14.2142C16.4631 14.175 16.4581 14.0851 16.4581 14.0117C16.4599 13.9661 16.468 13.9169 16.4989 13.8827C16.6013 13.7701 16.8141 13.9822 16.9326 13.9757C16.9993 13.9725 17.0593 13.9301 17.0968 13.8745C17.1341 13.8207 17.1536 13.7537 17.1649 13.6885C17.1876 13.5612 17.1876 13.4305 17.1635 13.3032C17.1489 13.2184 17.1294 13.1137 17.1975 13.0616C17.2316 13.0338 17.2837 13.0274 17.3032 12.9882C17.3227 12.9522 17.3015 12.908 17.3096 12.8688C17.3195 12.8232 17.3649 12.7922 17.4086 12.774C17.4508 12.7577 17.4997 12.7445 17.5338 12.7135C17.6036 12.6465 17.5859 12.5321 17.5632 12.4391C17.5582 12.4195 17.5536 12.3999 17.5419 12.3853C17.5224 12.3625 17.4933 12.3525 17.4656 12.3443C17.4249 12.3312 17.3844 12.3183 17.3518 12.2905C17.321 12.2627 17.2997 12.2185 17.3111 12.1779C17.3355 12.098 17.459 12.0881 17.4881 12.0114C17.4994 11.9787 17.4913 11.9412 17.5012 11.907C17.5256 11.8336 17.6182 11.8172 17.6913 11.7961C17.8147 11.7601 17.9253 11.6654 17.9544 11.5399C17.9658 11.4893 17.9643 11.4354 17.987 11.3895C18.0243 11.3111 18.1171 11.2751 18.2048 11.2704C18.2909 11.2655 18.3786 11.2851 18.4647 11.2801C18.5136 11.2769 18.5672 11.2637 18.5995 11.2245C18.6336 11.1853 18.6368 11.1479 18.6417 11.0987C18.6499 10.9844 18.7052 10.8799 18.7637 10.7869C18.7815 10.7591 18.8027 10.7331 18.8304 10.7167C18.8644 10.6988 18.9034 10.6971 18.941 10.6956C19.0499 10.6924 19.1619 10.6907 19.2612 10.7348C19.4041 10.7968 19.4903 10.9422 19.6123 11.0402C19.6676 11.0859 19.731 11.1201 19.796 11.1529C19.8187 11.1628 19.8399 11.1724 19.8626 11.1789C19.8772 11.1839 19.892 11.1871 19.9066 11.1888C19.9942 11.1938 20.074 11.1201 20.0949 11.0353C20.1162 10.9504 20.0868 10.8574 20.0347 10.7872C19.9826 10.717 19.9095 10.6632 19.8364 10.6158C19.7797 10.5798 19.7194 10.5438 19.6804 10.49C19.6414 10.4344 19.63 10.3545 19.6722 10.3022C19.7325 10.2255 19.8527 10.2548 19.9453 10.227C20.0134 10.2056 20.0687 10.1486 20.0868 10.0802C20.1031 10.0214 20.1095 9.94793 20.1453 9.90376C20.1665 9.87772 20.1957 9.8628 20.2443 9.86778C20.3272 9.87743 20.4329 9.99034 20.5141 9.97396C20.5662 9.96431 20.8798 9.98361 20.9415 9.97396C21.0014 9.96431 20.9415 9.87275 20.9415 9.87275C20.9415 9.87275 20.779 9.54629 20.779 9.51528C20.779 9.48427 20.8195 9.19847 20.7986 9.04489C20.779 8.89307 20.5354 9.04489 20.5354 9.04489C20.5354 9.04489 20.3925 8.96328 20.3826 8.92408C20.3729 8.88167 20.2411 8.70849 20.1794 8.67923C20.1176 8.64823 19.9357 8.5356 19.9048 8.39197C19.874 8.24981 19.8853 7.97395 19.9048 7.90199C19.9261 7.83178 20.0073 7.67821 20.0073 7.58694C20.0073 7.49391 20.4542 7.18851 20.6574 7.09695C20.8605 7.00393 21.1138 6.8015 21.2457 6.63798C21.379 6.47475 21.418 6.38172 21.5106 6.29016C21.6017 6.1986 21.5106 5.95375 21.5106 5.95375C21.5106 5.95375 21.3269 5.79052 21.2765 5.6583C21.2262 5.52432 21.2978 5.38245 21.1953 5.36109C21.0929 5.34149 21.0637 5.45266 21.002 5.56206C20.9744 5.60945 20.8623 5.57522 20.747 5.52286C20.6967 5.73494 20.6431 5.91134 20.6009 5.97189C20.5959 5.98008 20.591 5.98505 20.5863 5.98973C20.5831 5.99295 20.5799 5.99471 20.5767 5.99471C20.4742 6.01431 20.3639 5.84113 20.1558 5.74986C19.9462 5.6583 19.6018 5.79081 19.5203 5.86102C19.5153 5.86424 19.5107 5.86921 19.504 5.87418C19.5022 5.87594 19.5022 5.87594 19.5008 5.8774C19.4958 5.88062 19.4894 5.88559 19.4813 5.89057C19.465 5.90197 19.4455 5.91514 19.4228 5.92977L19.4225 5.93006C19.4129 5.9365 19.4015 5.94293 19.3904 5.95112C19.3904 5.95112 19.389 5.95288 19.3873 5.95288C19.3255 5.99208 19.2475 6.03625 19.1695 6.07866C19.1369 6.09651 19.1061 6.11465 19.0737 6.12927C19.0525 6.14068 19.0298 6.15209 19.0088 6.16203C19.0024 6.16525 18.996 6.16847 18.9893 6.17169C18.934 6.19772 18.8819 6.21907 18.8397 6.23224C18.7893 6.24686 18.7535 6.25184 18.7372 6.24043C18.656 6.17841 18.5553 5.93328 18.2708 5.97423C17.9864 6.01519 17.8744 6.34165 17.6517 6.363C17.4275 6.3826 17.2144 6.19977 17.1236 6.13775C17.031 6.07749 16.9807 5.81129 16.9807 5.71973C16.9807 5.62817 16.9612 5.19874 16.7987 5.33272C16.6363 5.46494 16.4526 5.69838 16.2997 5.85196C16.1487 6.00553 15.7522 6.20972 15.5798 6.25038C15.4061 6.29133 15.0614 6.21937 14.9397 6.06755C14.8177 5.91397 14.6553 5.61676 14.4425 5.54656C14.2297 5.47459 13.9857 5.46494 13.9857 5.46494C13.9857 5.46494 13.7307 5.17914 13.5892 5.22009C13.4463 5.26076 13.2545 5.37192 13.1619 5.39327C13.0708 5.41462 13.0498 5.31166 12.8679 5.2903C12.6859 5.2707 12.421 5.30171 12.2682 5.46494C12.1171 5.62817 12.065 5.74079 11.8522 5.63812C11.6394 5.53515 11.4557 5.46494 11.4557 5.22975C11.4557 4.99456 11.5483 4.67951 11.4557 4.60754C11.3646 4.53558 11.5273 4.33169 11.1209 4.47356C10.7145 4.61719 10.2581 4.9536 9.88111 4.9536C9.50558 4.9536 9.29277 4.82138 9.33353 4.68916C9.37428 4.55518 9.51722 4.44431 9.32859 4.40336C9.14024 4.36269 8.93705 4.3627 8.80547 4.3314C8.77286 4.32321 8.74375 4.3036 8.71609 4.27435C8.71435 4.2726 8.71288 4.27113 8.71114 4.26938C8.70473 4.26294 8.69804 4.25622 8.69339 4.24978C8.68698 4.24334 8.68202 4.23662 8.67707 4.23018C8.67533 4.23018 8.67388 4.22872 8.67388 4.22696C8.65437 4.20239 8.63313 4.1746 8.61217 4.1471C8.60227 4.13569 8.59411 4.12604 8.5845 4.11434C8.57315 4.10118 8.5618 4.0883 8.5487 4.07514C8.5356 4.06198 8.52104 4.0491 8.50649 4.0377C8.49659 4.0295 8.48699 4.02307 8.47564 4.01634C8.46108 4.00815 8.44653 3.99996 8.43023 3.99528C8.25643 3.93327 8.03373 3.89231 7.82093 3.89231C7.60638 3.89231 7.43404 4.01488 7.41483 3.71943C7.39358 3.42397 7.35312 2.97465 7.26201 2.87197C7.17089 2.77076 6.98748 2.45249 6.70307 2.41329C6.41865 2.37234 6.14415 2.35128 5.97181 2.30067C5.79948 2.25006 5.4647 1.74048 5.19019 1.87299C4.91567 2.00521 4.66212 2.24041 4.50929 2.24041C4.35646 2.24041 4.12415 2.07717 4.02197 2.18804C4.00246 2.21086 3.9812 2.23543 3.96024 2.26147C3.95209 2.26966 3.94569 2.27785 3.93899 2.28604C3.93259 2.29248 3.92765 2.29745 3.9227 2.30389C3.93405 2.34484 3.9486 2.3855 3.9617 2.42645C3.97917 2.47765 3.99693 2.53147 4.02954 2.5774Z"/>
</mask>
<path d="M4.02954 2.5774C4.0994 2.67042 4.22778 2.70786 4.2927 2.80586C4.37392 2.92989 4.3218 3.09634 4.33315 3.2467C4.3349 3.26952 4.33811 3.29409 4.34947 3.31545C4.36897 3.35143 4.40623 3.37103 4.44204 3.39063C4.57536 3.46083 4.7151 3.53923 4.78817 3.67145C4.82543 3.73844 4.84172 3.81508 4.85628 3.89026C4.90838 4.15324 4.94885 4.39984 5.03822 4.65113C5.05132 4.68535 5.06908 4.72631 5.10634 4.73596C5.12905 4.74093 5.1535 4.73099 5.1762 4.72133C5.32583 4.66429 5.49323 4.64791 5.65247 4.6757C5.67838 4.68067 5.70602 4.68886 5.72058 4.70993C5.73513 4.72952 5.73368 4.75556 5.73193 4.78013C5.72203 4.89276 5.71243 5.00392 5.70428 5.11654C5.70254 5.13292 5.70107 5.15252 5.71068 5.16715C5.72203 5.18675 5.74649 5.19172 5.76745 5.19669C6.09727 5.27333 6.39945 5.4743 6.59944 5.75015C6.36539 5.82036 6.11999 5.85459 5.87459 5.84991C5.82917 5.84991 5.78026 5.84669 5.743 5.82036C5.70399 5.79433 5.68273 5.75015 5.65682 5.71095C5.61461 5.6504 5.55291 5.5998 5.47955 5.58692C5.40649 5.57376 5.32352 5.60477 5.28946 5.67176C5.2717 5.70774 5.26821 5.7484 5.26355 5.78935C5.25045 5.89876 5.20678 6.01636 5.10751 6.06696C5.03765 6.10294 4.95467 6.09622 4.8752 6.08656C4.79718 6.07837 4.71423 6.06872 4.64116 6.09973C4.56809 6.12927 4.51103 6.21557 4.54189 6.28928C4.59225 6.40688 4.79719 6.37265 4.86036 6.48528C4.87172 6.50663 4.87812 6.53267 4.88977 6.55373C4.89937 6.57187 4.91567 6.58796 4.93023 6.60288C5.06501 6.7351 5.23734 6.82666 5.42103 6.86264C5.50865 6.88048 5.59977 6.88721 5.68099 6.92143C5.80762 6.97526 5.92145 7.15166 5.78667 7.26106C5.68275 7.34765 5.52351 7.2792 5.39338 7.3181C5.2813 7.35408 5.21144 7.46349 5.15467 7.56792C5.08655 7.68874 5.02309 7.8391 5.088 7.96137C5.16602 8.11173 5.37882 8.12139 5.49905 8.24074C5.58842 8.32879 5.63062 8.47739 5.75085 8.5084C5.81431 8.52303 5.87923 8.50021 5.94269 8.4888C6.11182 8.45779 6.29523 8.51834 6.414 8.64384C6.46611 8.69942 6.50658 8.76787 6.56684 8.81702C6.6303 8.86587 6.70832 8.89044 6.78284 8.91648C6.89347 8.95392 7.00233 8.99663 7.10771 9.04226C7.23114 9.09609 7.36302 9.16805 7.40173 9.29705C7.44715 9.44566 7.33827 9.60743 7.19854 9.67442C7.05706 9.74141 6.89638 9.73643 6.74034 9.73146C6.68853 9.72999 6.63321 9.72648 6.591 9.69869C6.53075 9.66125 6.50337 9.58285 6.43817 9.55506C6.36015 9.52084 6.27077 9.57963 6.22536 9.65306C6.1814 9.72648 6.16365 9.81483 6.11969 9.88825C6.07574 9.96167 5.98636 10.0205 5.90689 9.98771C5.80442 9.94354 5.80938 9.7885 5.7299 9.70835C5.63238 9.60889 5.45538 9.67412 5.37241 9.78499C5.28799 9.89615 5.2586 10.0398 5.18553 10.1574C5.0327 10.404 4.72237 10.502 4.53548 10.7223C4.48017 10.7875 4.42981 10.8676 4.34859 10.8937C4.27058 10.9215 4.18295 10.8905 4.10144 10.9083C4.04293 10.9215 3.99431 10.9571 3.94715 10.9949C3.71805 11.1763 3.4971 11.3883 3.21764 11.4781C3.13321 11.5059 3.04383 11.5223 2.96407 11.563C2.87295 11.6104 2.79988 11.687 2.73817 11.7686C2.50907 12.0723 2.4261 12.528 2.52362 12.8987C2.53672 12.9475 2.55448 12.9949 2.56758 13.0455C2.59669 13.1695 2.58389 13.2985 2.5967 13.4261C2.60806 13.5533 2.65201 13.6891 2.75914 13.7575C2.86626 13.826 3.02084 13.8213 3.0907 13.9272C3.11021 13.9582 3.12012 13.9942 3.12798 14.0302C3.14428 14.1053 3.16058 14.1837 3.21239 14.2393C3.2351 14.2653 3.26596 14.2849 3.28721 14.3127C3.32302 14.3601 3.32767 14.4254 3.31486 14.4842C3.30351 14.543 3.2776 14.5985 3.25809 14.6538C3.24674 14.6866 3.23858 14.7258 3.26129 14.7518C3.26304 14.7536 3.26624 14.7568 3.26945 14.7583C3.27585 14.7632 3.284 14.7682 3.29215 14.7714C3.49855 14.8563 3.72939 14.734 3.95035 14.7419C4.02836 14.7451 4.10464 14.7632 4.18266 14.7729C4.37275 14.7975 4.56459 14.7629 4.74478 14.7009C4.8164 14.6763 4.91218 14.6521 4.96429 14.5965C5.01639 14.5427 5.04055 14.4739 5.10575 14.4265C5.18552 14.3695 5.29905 14.3513 5.37707 14.4101C5.44694 14.464 5.46644 14.5588 5.5005 14.6404C5.53631 14.722 5.61578 14.8036 5.7005 14.7743C5.75581 14.7547 5.78492 14.6927 5.82393 14.6471C5.93281 14.5245 6.13105 14.5295 6.27719 14.6029C6.29669 14.6126 6.31794 14.6243 6.3357 14.6371C6.34705 14.6436 6.35695 14.6518 6.36656 14.66C6.37791 14.6696 6.38927 14.6796 6.39916 14.6927C6.41226 14.7074 6.4236 14.7237 6.43321 14.7416C6.45766 14.7904 6.46233 14.8478 6.47048 14.9016C6.5159 15.1956 6.68328 15.4682 6.92548 15.6396C6.9872 15.6838 7.08326 15.718 7.13188 15.6592C7.17263 15.6104 7.14817 15.5335 7.17903 15.4779C7.23754 15.3717 7.4163 15.4404 7.51061 15.3653C7.57903 15.3114 7.58048 15.2003 7.6486 15.1464C7.75253 15.0663 7.93941 15.1628 8.01423 15.0549C8.03198 15.0271 8.03693 14.9946 8.04333 14.9619C8.05789 14.8688 8.08235 14.774 8.14086 14.7024C8.19937 14.629 8.30009 14.583 8.38801 14.6143C8.50329 14.6535 8.54551 14.7957 8.55366 14.9197C8.56006 15.0423 8.5519 15.176 8.62526 15.2757C8.72773 15.3328 8.85582 15.2775 8.95189 15.2087C9.04766 15.1403 9.14373 15.0537 9.26046 15.0487C9.33353 15.0455 9.4034 15.0748 9.47501 15.0797C9.65055 15.0929 9.80338 14.9686 9.92827 14.8431C10.0517 14.7191 10.1786 14.5786 10.3507 14.5427C10.5879 14.4921 10.8642 14.6538 11.0624 14.5134C11.1372 14.4596 11.1844 14.368 11.2656 14.3206C11.3355 14.2797 11.4184 14.2814 11.4965 14.2896C11.5518 14.2946 11.6574 14.3142 11.6653 14.2291C11.6685 14.1981 11.6476 14.1703 11.6377 14.141C11.6199 14.0922 11.6327 14.0334 11.6703 13.9974C11.6898 13.9778 11.7142 13.9646 11.7337 13.9436C11.7841 13.8848 11.7663 13.7967 11.7663 13.7198C11.7663 13.589 11.833 13.4618 11.9337 13.3802C12.0362 13.2985 12.1692 13.2608 12.2993 13.2675C12.3675 13.2708 12.4391 13.2871 12.4944 13.3313C12.5448 13.3705 12.5756 13.4261 12.6082 13.4817C12.6408 13.5355 12.6763 13.5893 12.7316 13.6206C12.7852 13.6516 12.8632 13.6516 12.904 13.6028C12.9316 13.57 12.9366 13.5261 12.9479 13.4852C12.9692 13.4182 13.0129 13.3594 13.0714 13.3234C13.0909 13.3102 13.1153 13.3006 13.138 13.3038C13.1674 13.307 13.1901 13.3331 13.2062 13.3576C13.2452 13.4164 13.2711 13.4866 13.3246 13.5323C13.3814 13.5797 13.4644 13.596 13.5098 13.6563C13.547 13.7054 13.547 13.7739 13.5389 13.8359C13.5307 13.8962 13.513 13.9585 13.5211 14.0205C13.5275 14.0825 13.5665 14.1463 13.6282 14.1577C13.6868 14.1673 13.7403 14.1267 13.7956 14.1071C13.8509 14.0857 13.9336 14.1021 13.9371 14.1627C14.0396 14.117 14.1581 14.1103 14.2655 14.1463C14.2818 14.1527 14.2996 14.1595 14.3094 14.1755C14.3208 14.1934 14.3158 14.218 14.3112 14.2393C14.2966 14.3192 14.2867 14.4025 14.2853 14.4842C14.2835 14.5608 14.2885 14.641 14.3161 14.7126C14.3584 14.822 14.4541 14.9101 14.5665 14.9411C14.7193 14.9835 14.8541 14.9639 14.8914 14.7875C14.8978 14.7597 14.8978 14.7305 14.8995 14.7009C14.9027 14.5377 14.8882 14.4137 15.023 14.2943C15.0928 14.2323 15.1807 14.1931 15.2701 14.1653C15.3726 14.1325 15.4829 14.1147 15.5886 14.1393C15.6389 14.1507 15.6911 14.1735 15.7414 14.1621C15.7967 14.1507 15.8372 14.1033 15.8811 14.0673C15.9251 14.0299 15.99 14.0035 16.0372 14.0363C16.0552 14.0509 16.068 14.0705 16.0811 14.0884C16.1201 14.1407 16.1787 14.175 16.2372 14.2027C16.2893 14.2256 16.3542 14.2469 16.4028 14.2142C16.4631 14.175 16.4581 14.0851 16.4581 14.0117C16.4599 13.9661 16.468 13.9169 16.4989 13.8827C16.6013 13.7701 16.8141 13.9822 16.9326 13.9757C16.9993 13.9725 17.0593 13.9301 17.0968 13.8745C17.1341 13.8207 17.1536 13.7537 17.1649 13.6885C17.1876 13.5612 17.1876 13.4305 17.1635 13.3032C17.1489 13.2184 17.1294 13.1137 17.1975 13.0616C17.2316 13.0338 17.2837 13.0274 17.3032 12.9882C17.3227 12.9522 17.3015 12.908 17.3096 12.8688C17.3195 12.8232 17.3649 12.7922 17.4086 12.774C17.4508 12.7577 17.4997 12.7445 17.5338 12.7135C17.6036 12.6465 17.5859 12.5321 17.5632 12.4391C17.5582 12.4195 17.5536 12.3999 17.5419 12.3853C17.5224 12.3625 17.4933 12.3525 17.4656 12.3443C17.4249 12.3312 17.3844 12.3183 17.3518 12.2905C17.321 12.2627 17.2997 12.2185 17.3111 12.1779C17.3355 12.098 17.459 12.0881 17.4881 12.0114C17.4994 11.9787 17.4913 11.9412 17.5012 11.907C17.5256 11.8336 17.6182 11.8172 17.6913 11.7961C17.8147 11.7601 17.9253 11.6654 17.9544 11.5399C17.9658 11.4893 17.9643 11.4354 17.987 11.3895C18.0243 11.3111 18.1171 11.2751 18.2048 11.2704C18.2909 11.2655 18.3786 11.2851 18.4647 11.2801C18.5136 11.2769 18.5672 11.2637 18.5995 11.2245C18.6336 11.1853 18.6368 11.1479 18.6417 11.0987C18.6499 10.9844 18.7052 10.8799 18.7637 10.7869C18.7815 10.7591 18.8027 10.7331 18.8304 10.7167C18.8644 10.6988 18.9034 10.6971 18.941 10.6956C19.0499 10.6924 19.1619 10.6907 19.2612 10.7348C19.4041 10.7968 19.4903 10.9422 19.6123 11.0402C19.6676 11.0859 19.731 11.1201 19.796 11.1529C19.8187 11.1628 19.8399 11.1724 19.8626 11.1789C19.8772 11.1839 19.892 11.1871 19.9066 11.1888C19.9942 11.1938 20.074 11.1201 20.0949 11.0353C20.1162 10.9504 20.0868 10.8574 20.0347 10.7872C19.9826 10.717 19.9095 10.6632 19.8364 10.6158C19.7797 10.5798 19.7194 10.5438 19.6804 10.49C19.6414 10.4344 19.63 10.3545 19.6722 10.3022C19.7325 10.2255 19.8527 10.2548 19.9453 10.227C20.0134 10.2056 20.0687 10.1486 20.0868 10.0802C20.1031 10.0214 20.1095 9.94793 20.1453 9.90376C20.1665 9.87772 20.1957 9.8628 20.2443 9.86778C20.3272 9.87743 20.4329 9.99034 20.5141 9.97396C20.5662 9.96431 20.8798 9.98361 20.9415 9.97396C21.0014 9.96431 20.9415 9.87275 20.9415 9.87275C20.9415 9.87275 20.779 9.54629 20.779 9.51528C20.779 9.48427 20.8195 9.19847 20.7986 9.04489C20.779 8.89307 20.5354 9.04489 20.5354 9.04489C20.5354 9.04489 20.3925 8.96328 20.3826 8.92408C20.3729 8.88167 20.2411 8.70849 20.1794 8.67923C20.1176 8.64823 19.9357 8.5356 19.9048 8.39197C19.874 8.24981 19.8853 7.97395 19.9048 7.90199C19.9261 7.83178 20.0073 7.67821 20.0073 7.58694C20.0073 7.49391 20.4542 7.18851 20.6574 7.09695C20.8605 7.00393 21.1138 6.8015 21.2457 6.63798C21.379 6.47475 21.418 6.38172 21.5106 6.29016C21.6017 6.1986 21.5106 5.95375 21.5106 5.95375C21.5106 5.95375 21.3269 5.79052 21.2765 5.6583C21.2262 5.52432 21.2978 5.38245 21.1953 5.36109C21.0929 5.34149 21.0637 5.45266 21.002 5.56206C20.9744 5.60945 20.8623 5.57522 20.747 5.52286C20.6967 5.73494 20.6431 5.91134 20.6009 5.97189C20.5959 5.98008 20.591 5.98505 20.5863 5.98973C20.5831 5.99295 20.5799 5.99471 20.5767 5.99471C20.4742 6.01431 20.3639 5.84113 20.1558 5.74986C19.9462 5.6583 19.6018 5.79081 19.5203 5.86102C19.5153 5.86424 19.5107 5.86921 19.504 5.87418C19.5022 5.87594 19.5022 5.87594 19.5008 5.8774C19.4958 5.88062 19.4894 5.88559 19.4813 5.89057C19.465 5.90197 19.4455 5.91514 19.4228 5.92977L19.4225 5.93006C19.4129 5.9365 19.4015 5.94293 19.3904 5.95112C19.3904 5.95112 19.389 5.95288 19.3873 5.95288C19.3255 5.99208 19.2475 6.03625 19.1695 6.07866C19.1369 6.09651 19.1061 6.11465 19.0737 6.12927C19.0525 6.14068 19.0298 6.15209 19.0088 6.16203C19.0024 6.16525 18.996 6.16847 18.9893 6.17169C18.934 6.19772 18.8819 6.21907 18.8397 6.23224C18.7893 6.24686 18.7535 6.25184 18.7372 6.24043C18.656 6.17841 18.5553 5.93328 18.2708 5.97423C17.9864 6.01519 17.8744 6.34165 17.6517 6.363C17.4275 6.3826 17.2144 6.19977 17.1236 6.13775C17.031 6.07749 16.9807 5.81129 16.9807 5.71973C16.9807 5.62817 16.9612 5.19874 16.7987 5.33272C16.6363 5.46494 16.4526 5.69838 16.2997 5.85196C16.1487 6.00553 15.7522 6.20972 15.5798 6.25038C15.4061 6.29133 15.0614 6.21937 14.9397 6.06755C14.8177 5.91397 14.6553 5.61676 14.4425 5.54656C14.2297 5.47459 13.9857 5.46494 13.9857 5.46494C13.9857 5.46494 13.7307 5.17914 13.5892 5.22009C13.4463 5.26076 13.2545 5.37192 13.1619 5.39327C13.0708 5.41462 13.0498 5.31166 12.8679 5.2903C12.6859 5.2707 12.421 5.30171 12.2682 5.46494C12.1171 5.62817 12.065 5.74079 11.8522 5.63812C11.6394 5.53515 11.4557 5.46494 11.4557 5.22975C11.4557 4.99456 11.5483 4.67951 11.4557 4.60754C11.3646 4.53558 11.5273 4.33169 11.1209 4.47356C10.7145 4.61719 10.2581 4.9536 9.88111 4.9536C9.50558 4.9536 9.29277 4.82138 9.33353 4.68916C9.37428 4.55518 9.51722 4.44431 9.32859 4.40336C9.14024 4.36269 8.93705 4.3627 8.80547 4.3314C8.77286 4.32321 8.74375 4.3036 8.71609 4.27435C8.71435 4.2726 8.71288 4.27113 8.71114 4.26938C8.70473 4.26294 8.69804 4.25622 8.69339 4.24978C8.68698 4.24334 8.68202 4.23662 8.67707 4.23018C8.67533 4.23018 8.67388 4.22872 8.67388 4.22696C8.65437 4.20239 8.63313 4.1746 8.61217 4.1471C8.60227 4.13569 8.59411 4.12604 8.5845 4.11434C8.57315 4.10118 8.5618 4.0883 8.5487 4.07514C8.5356 4.06198 8.52104 4.0491 8.50649 4.0377C8.49659 4.0295 8.48699 4.02307 8.47564 4.01634C8.46108 4.00815 8.44653 3.99996 8.43023 3.99528C8.25643 3.93327 8.03373 3.89231 7.82093 3.89231C7.60638 3.89231 7.43404 4.01488 7.41483 3.71943C7.39358 3.42397 7.35312 2.97465 7.26201 2.87197C7.17089 2.77076 6.98748 2.45249 6.70307 2.41329C6.41865 2.37234 6.14415 2.35128 5.97181 2.30067C5.79948 2.25006 5.4647 1.74048 5.19019 1.87299C4.91567 2.00521 4.66212 2.24041 4.50929 2.24041C4.35646 2.24041 4.12415 2.07717 4.02197 2.18804C4.00246 2.21086 3.9812 2.23543 3.96024 2.26147C3.95209 2.26966 3.94569 2.27785 3.93899 2.28604C3.93259 2.29248 3.92765 2.29745 3.9227 2.30389C3.93405 2.34484 3.9486 2.3855 3.9617 2.42645C3.97917 2.47765 3.99693 2.53147 4.02954 2.5774Z" fill="url(#paint0_linear_1571_9864)" stroke="#510A32" stroke-width="0.459149" mask="url(#path-1-inside-1_1571_9864)"/>
<defs>
<linearGradient id="paint0_linear_1571_9864" x1="12.0172" y1="-10.3908" x2="12.0172" y2="49.7838" gradientUnits="userSpaceOnUse">
<stop stop-color="#FF984F"/>
<stop offset="0.2978" stop-color="#F37A56"/>
<stop offset="0.9428" stop-color="#D42F67"/>
<stop offset="1" stop-color="#D12869"/>
</linearGradient>
</defs>
</svg>
