<svg width="23" height="17" viewBox="0 0 23 17" fill="none" xmlns="http://www.w3.org/2000/svg">
<mask id="path-1-inside-1_1571_9847" fill="white">
<path d="M5.82271 12.9572C5.80833 13.0588 5.73004 13.1374 5.66581 13.2176C5.60157 13.2978 5.54981 13.4084 5.59615 13.4995C5.63705 13.5816 5.73707 13.612 5.82622 13.6315C6.47015 13.7705 7.13198 13.8296 7.79189 13.8047C7.91141 13.8011 8.03796 13.7938 8.14854 13.844C8.2198 13.8759 8.28243 13.9386 8.30735 14.0098C8.47129 13.9491 8.63747 13.8868 8.81036 13.8673C9.01552 13.8459 9.24369 13.8993 9.36864 14.0635C9.39357 14.0955 9.41498 14.1313 9.45077 14.1508C9.48656 14.1686 9.52747 14.1667 9.56677 14.1632C9.74509 14.1543 9.92341 14.1651 10.1001 14.1936C10.1874 14.208 10.2874 14.238 10.3197 14.322C10.3411 14.3773 10.3232 14.438 10.3251 14.4968C10.3251 14.6272 10.4197 14.7519 10.5443 14.7877C10.614 14.8071 10.6907 14.802 10.7565 14.8324C10.9173 14.9091 10.9134 15.1357 10.878 15.3105C10.8422 15.4853 10.8172 15.7048 10.9636 15.8045C11.0796 15.8847 11.2474 15.8349 11.3455 15.7349C11.4455 15.6348 11.4954 15.4977 11.5542 15.3693C11.6309 15.1999 11.7255 15.0392 11.8341 14.8912C11.8574 14.8628 11.8805 14.8324 11.9143 14.8164C11.9571 14.7969 12.007 14.804 12.0517 14.8164C12.3138 14.895 12.5477 15.1695 12.8046 15.0769C13.0117 15.0037 13.1185 14.7113 13.338 14.7183C13.6378 14.7273 13.6592 15.2606 13.9535 15.3248C14.0839 15.3552 14.2139 15.2715 14.3101 15.1769C14.4047 15.0807 14.4849 14.9663 14.6044 14.904C14.7345 14.8362 14.8898 14.8417 15.0253 14.7864C15.1592 14.7311 15.2733 14.5617 15.1893 14.4438C15.1624 14.4064 15.1215 14.3831 15.0857 14.3546C14.9697 14.253 14.9323 14.0817 14.9537 13.9299C14.9697 13.821 15.0215 13.7318 15.0538 13.6302C15.0697 13.5749 15.0448 13.4624 15.0662 13.4231C15.1285 13.3001 15.3411 13.4854 15.4516 13.4605C15.5692 13.432 15.614 13.2767 15.7264 13.2323C15.814 13.1949 15.9156 13.2393 15.9834 13.3055C16.0511 13.3716 16.0959 13.4573 16.1547 13.5321C16.1742 13.557 16.1956 13.5819 16.2278 13.5893C16.2688 13.5982 16.31 13.5733 16.3439 13.55C16.4276 13.4931 16.5132 13.434 16.5723 13.3522C16.6311 13.27 16.6596 13.1579 16.6168 13.0668C16.5973 13.0294 16.5685 12.9955 16.5506 12.9581C16.5187 12.8795 16.5382 12.7923 16.5631 12.7121C16.736 12.7424 16.9485 12.7603 17.0571 12.621C17.1536 12.4944 17.1249 12.2784 17.2658 12.2052C17.3067 12.1838 17.355 12.1803 17.4013 12.1803C17.5441 12.1822 17.6851 12.2142 17.8135 12.2768C17.8545 12.2963 17.9008 12.3196 17.9439 12.3052C17.9992 12.2874 18.0206 12.2215 18.0312 12.1643C18.0366 12.132 18.0417 12.1001 18.0455 12.0681C18.0491 12.0359 18.0526 12.002 18.0545 11.97C18.0615 11.8649 18.0599 11.7594 18.0491 11.6543C18.0366 11.5418 18.0098 11.4242 17.9331 11.3386C17.842 11.2369 17.7119 11.1832 17.6279 11.0692C17.5493 10.9621 17.4889 10.8372 17.3799 10.7569C17.2978 10.6997 17.2265 10.6678 17.2086 10.5607C17.1981 10.4965 17.1926 10.4268 17.2265 10.3699C17.2604 10.3127 17.3246 10.2683 17.3764 10.2271C17.4512 10.1683 17.5636 10.1664 17.6298 10.1005C17.6566 10.0737 17.6726 10.0382 17.678 10.0005C17.6886 9.93981 17.6761 9.88292 17.6496 9.82924C17.6052 9.72921 17.5106 9.64548 17.4125 9.58828C17.2626 9.49912 17.0897 9.4384 16.9788 9.30482C16.6935 8.96416 16.9967 8.42729 16.8523 8.00802C16.6526 7.98852 16.4458 7.94187 16.294 7.81372C16.2368 7.76387 16.1799 7.6942 16.155 7.62294C16.1301 7.54624 16.1604 7.51237 16.155 7.43918C16.1496 7.35897 16.1265 7.31775 16.0444 7.30177C15.9051 7.27333 15.6964 7.40883 15.645 7.53346C15.6165 7.59961 15.6127 7.67439 15.5788 7.73862C15.4807 7.91534 15.1899 7.8706 15.0685 7.71018C14.9489 7.54784 14.9454 7.3283 14.94 7.12697C14.9346 6.92532 14.9115 6.70418 14.7652 6.56325C14.685 6.48655 14.5779 6.44565 14.4977 6.36895C14.3462 6.2261 14.3283 6.00145 14.3424 5.80523C14.3549 5.64833 14.46 5.38436 14.2925 5.27379C14.2692 5.25941 14.2443 5.24887 14.2213 5.23289C14.1625 5.19006 14.1465 5.10986 14.134 5.03859C14.1216 4.96733 14.1091 4.89574 14.0966 4.8264C14.0807 4.73372 14.0593 4.63018 13.9791 4.58033C13.8864 4.52313 13.7525 4.56595 13.6617 4.50172C13.601 4.4589 13.578 4.37868 13.5403 4.31445C13.4601 4.17512 12.4413 3.86674 12.8944 3.53854C12.998 3.46376 13.1744 3.48325 13.2226 3.36373C13.2495 3.2995 13.2172 3.22632 13.2226 3.15506C13.2351 2.96971 13.4671 2.90515 13.64 2.83581C13.9378 2.71821 14.1714 2.44881 14.2465 2.13819C14.2983 1.9276 14.2839 1.63168 14.1698 1.42651C14.0807 1.54795 13.9218 1.63168 13.9094 1.78155C13.9039 1.83684 13.9219 1.89053 13.9199 1.94581C13.9164 2.1171 13.7397 2.2331 13.5758 2.27752C13.4099 2.32386 13.2277 2.33121 13.0871 2.42932C12.9961 2.49355 12.9318 2.58814 12.8446 2.65589C12.5931 2.85211 12.2345 2.78436 11.9204 2.82878C11.9114 2.8307 11.9009 2.83229 11.892 2.83421C11.8955 2.84124 11.8955 2.85019 11.8974 2.85914C11.9258 3.14259 12.015 3.32123 11.7331 3.49955C11.4513 3.67787 10.9 3.87057 10.7217 3.90093C10.5434 3.92937 10.2168 3.82615 9.87452 3.97411C9.53386 4.12399 9.08774 4.40585 8.95417 4.6289C8.82027 4.85196 8.71513 4.92674 8.56717 5.0747C8.41921 5.22266 8.26933 5.22266 8.33005 5.55086C8.38885 5.87714 8.50837 5.5956 8.62629 6.23409C8.74581 6.87259 8.64226 7.05123 8.50868 7.37943C8.37478 7.70571 8.2412 8.31576 8.37478 8.44966C8.50868 8.58356 8.687 8.79032 8.64226 8.85104C8.59784 8.90984 8.38885 8.98494 8.26933 9.02936C8.15173 9.0741 7.97309 9.1329 7.75035 9.35595C7.52729 9.57901 7.35248 9.80207 7.29912 9.87685C7.24383 9.95003 6.78366 10.5013 6.29312 10.9311C5.80259 11.3628 5.32643 11.3772 5.47631 11.7498C5.62427 12.1209 5.8617 12.2992 5.8617 12.4187C5.8617 12.5238 6.00615 12.5596 5.76552 12.7594C5.80834 12.8162 5.83326 12.884 5.82271 12.9572Z"/>
</mask>
<path d="M5.82271 12.9572C5.80833 13.0588 5.73004 13.1374 5.66581 13.2176C5.60157 13.2978 5.54981 13.4084 5.59615 13.4995C5.63705 13.5816 5.73707 13.612 5.82622 13.6315C6.47015 13.7705 7.13198 13.8296 7.79189 13.8047C7.91141 13.8011 8.03796 13.7938 8.14854 13.844C8.2198 13.8759 8.28243 13.9386 8.30735 14.0098C8.47129 13.9491 8.63747 13.8868 8.81036 13.8673C9.01552 13.8459 9.24369 13.8993 9.36864 14.0635C9.39357 14.0955 9.41498 14.1313 9.45077 14.1508C9.48656 14.1686 9.52747 14.1667 9.56677 14.1632C9.74509 14.1543 9.92341 14.1651 10.1001 14.1936C10.1874 14.208 10.2874 14.238 10.3197 14.322C10.3411 14.3773 10.3232 14.438 10.3251 14.4968C10.3251 14.6272 10.4197 14.7519 10.5443 14.7877C10.614 14.8071 10.6907 14.802 10.7565 14.8324C10.9173 14.9091 10.9134 15.1357 10.878 15.3105C10.8422 15.4853 10.8172 15.7048 10.9636 15.8045C11.0796 15.8847 11.2474 15.8349 11.3455 15.7349C11.4455 15.6348 11.4954 15.4977 11.5542 15.3693C11.6309 15.1999 11.7255 15.0392 11.8341 14.8912C11.8574 14.8628 11.8805 14.8324 11.9143 14.8164C11.9571 14.7969 12.007 14.804 12.0517 14.8164C12.3138 14.895 12.5477 15.1695 12.8046 15.0769C13.0117 15.0037 13.1185 14.7113 13.338 14.7183C13.6378 14.7273 13.6592 15.2606 13.9535 15.3248C14.0839 15.3552 14.2139 15.2715 14.3101 15.1769C14.4047 15.0807 14.4849 14.9663 14.6044 14.904C14.7345 14.8362 14.8898 14.8417 15.0253 14.7864C15.1592 14.7311 15.2733 14.5617 15.1893 14.4438C15.1624 14.4064 15.1215 14.3831 15.0857 14.3546C14.9697 14.253 14.9323 14.0817 14.9537 13.9299C14.9697 13.821 15.0215 13.7318 15.0538 13.6302C15.0697 13.5749 15.0448 13.4624 15.0662 13.4231C15.1285 13.3001 15.3411 13.4854 15.4516 13.4605C15.5692 13.432 15.614 13.2767 15.7264 13.2323C15.814 13.1949 15.9156 13.2393 15.9834 13.3055C16.0511 13.3716 16.0959 13.4573 16.1547 13.5321C16.1742 13.557 16.1956 13.5819 16.2278 13.5893C16.2688 13.5982 16.31 13.5733 16.3439 13.55C16.4276 13.4931 16.5132 13.434 16.5723 13.3522C16.6311 13.27 16.6596 13.1579 16.6168 13.0668C16.5973 13.0294 16.5685 12.9955 16.5506 12.9581C16.5187 12.8795 16.5382 12.7923 16.5631 12.7121C16.736 12.7424 16.9485 12.7603 17.0571 12.621C17.1536 12.4944 17.1249 12.2784 17.2658 12.2052C17.3067 12.1838 17.355 12.1803 17.4013 12.1803C17.5441 12.1822 17.6851 12.2142 17.8135 12.2768C17.8545 12.2963 17.9008 12.3196 17.9439 12.3052C17.9992 12.2874 18.0206 12.2215 18.0312 12.1643C18.0366 12.132 18.0417 12.1001 18.0455 12.0681C18.0491 12.0359 18.0526 12.002 18.0545 11.97C18.0615 11.8649 18.0599 11.7594 18.0491 11.6543C18.0366 11.5418 18.0098 11.4242 17.9331 11.3386C17.842 11.2369 17.7119 11.1832 17.6279 11.0692C17.5493 10.9621 17.4889 10.8372 17.3799 10.7569C17.2978 10.6997 17.2265 10.6678 17.2086 10.5607C17.1981 10.4965 17.1926 10.4268 17.2265 10.3699C17.2604 10.3127 17.3246 10.2683 17.3764 10.2271C17.4512 10.1683 17.5636 10.1664 17.6298 10.1005C17.6566 10.0737 17.6726 10.0382 17.678 10.0005C17.6886 9.93981 17.6761 9.88292 17.6496 9.82924C17.6052 9.72921 17.5106 9.64548 17.4125 9.58828C17.2626 9.49912 17.0897 9.4384 16.9788 9.30482C16.6935 8.96416 16.9967 8.42729 16.8523 8.00802C16.6526 7.98852 16.4458 7.94187 16.294 7.81372C16.2368 7.76387 16.1799 7.6942 16.155 7.62294C16.1301 7.54624 16.1604 7.51237 16.155 7.43918C16.1496 7.35897 16.1265 7.31775 16.0444 7.30177C15.9051 7.27333 15.6964 7.40883 15.645 7.53346C15.6165 7.59961 15.6127 7.67439 15.5788 7.73862C15.4807 7.91534 15.1899 7.8706 15.0685 7.71018C14.9489 7.54784 14.9454 7.3283 14.94 7.12697C14.9346 6.92532 14.9115 6.70418 14.7652 6.56325C14.685 6.48655 14.5779 6.44565 14.4977 6.36895C14.3462 6.2261 14.3283 6.00145 14.3424 5.80523C14.3549 5.64833 14.46 5.38436 14.2925 5.27379C14.2692 5.25941 14.2443 5.24887 14.2213 5.23289C14.1625 5.19006 14.1465 5.10986 14.134 5.03859C14.1216 4.96733 14.1091 4.89574 14.0966 4.8264C14.0807 4.73372 14.0593 4.63018 13.9791 4.58033C13.8864 4.52313 13.7525 4.56595 13.6617 4.50172C13.601 4.4589 13.578 4.37868 13.5403 4.31445C13.4601 4.17512 12.4413 3.86674 12.8944 3.53854C12.998 3.46376 13.1744 3.48325 13.2226 3.36373C13.2495 3.2995 13.2172 3.22632 13.2226 3.15506C13.2351 2.96971 13.4671 2.90515 13.64 2.83581C13.9378 2.71821 14.1714 2.44881 14.2465 2.13819C14.2983 1.9276 14.2839 1.63168 14.1698 1.42651C14.0807 1.54795 13.9218 1.63168 13.9094 1.78155C13.9039 1.83684 13.9219 1.89053 13.9199 1.94581C13.9164 2.1171 13.7397 2.2331 13.5758 2.27752C13.4099 2.32386 13.2277 2.33121 13.0871 2.42932C12.9961 2.49355 12.9318 2.58814 12.8446 2.65589C12.5931 2.85211 12.2345 2.78436 11.9204 2.82878C11.9114 2.8307 11.9009 2.83229 11.892 2.83421C11.8955 2.84124 11.8955 2.85019 11.8974 2.85914C11.9258 3.14259 12.015 3.32123 11.7331 3.49955C11.4513 3.67787 10.9 3.87057 10.7217 3.90093C10.5434 3.92937 10.2168 3.82615 9.87452 3.97411C9.53386 4.12399 9.08774 4.40585 8.95417 4.6289C8.82027 4.85196 8.71513 4.92674 8.56717 5.0747C8.41921 5.22266 8.26933 5.22266 8.33005 5.55086C8.38885 5.87714 8.50837 5.5956 8.62629 6.23409C8.74581 6.87259 8.64226 7.05123 8.50868 7.37943C8.37478 7.70571 8.2412 8.31576 8.37478 8.44966C8.50868 8.58356 8.687 8.79032 8.64226 8.85104C8.59784 8.90984 8.38885 8.98494 8.26933 9.02936C8.15173 9.0741 7.97309 9.1329 7.75035 9.35595C7.52729 9.57901 7.35248 9.80207 7.29912 9.87685C7.24383 9.95003 6.78366 10.5013 6.29312 10.9311C5.80259 11.3628 5.32643 11.3772 5.47631 11.7498C5.62427 12.1209 5.8617 12.2992 5.8617 12.4187C5.8617 12.5238 6.00615 12.5596 5.76552 12.7594C5.80834 12.8162 5.83326 12.884 5.82271 12.9572Z" fill="url(#paint0_linear_1571_9847)" stroke="#510A32" stroke-width="0.459149" mask="url(#path-1-inside-1_1571_9847)"/>
<defs>
<linearGradient id="paint0_linear_1571_9847" x1="11.7535" y1="-11.327" x2="11.7535" y2="51.3626" gradientUnits="userSpaceOnUse">
<stop stop-color="#FF984F"/>
<stop offset="0.2978" stop-color="#F37A56"/>
<stop offset="0.9428" stop-color="#D42F67"/>
<stop offset="1" stop-color="#D12869"/>
</linearGradient>
</defs>
</svg>
