<svg width="19" height="17" viewBox="0 0 19 17" fill="none" xmlns="http://www.w3.org/2000/svg">
<mask id="path-1-inside-1_1571_9877" fill="white">
<path d="M4.37362 13.1691C4.42388 13.1475 4.50345 13.0731 4.54673 13.06C4.59001 13.047 4.64802 13.0037 4.69828 13.0037C4.74854 13.0037 4.91467 13.0608 4.95113 13.0903C4.98665 13.1188 5.26803 13.1742 5.26803 13.1742C5.26803 13.1742 5.37631 13.0971 5.43432 13.1404C5.49234 13.1837 5.48458 13.2218 5.58587 13.1742C5.68716 13.1257 5.70889 13.1024 5.74425 13.0712C5.78055 13.0391 5.83872 12.989 5.88882 13.0106C5.93908 13.0323 6.04038 13.144 6.04038 13.1959C6.04038 13.2487 6.17021 13.3206 6.19891 13.3206C6.22838 13.3206 6.30718 13.3206 6.37202 13.3571C6.43702 13.3934 6.50977 13.5882 6.57461 13.6317C6.6396 13.6749 6.68288 13.7399 6.73298 13.6967C6.78324 13.6534 6.76153 13.4941 6.82652 13.5235C6.89152 13.5521 7.00754 13.6386 7.01437 13.6673C7.02135 13.6968 7.13738 13.8189 7.13738 13.8189C7.24565 13.8986 7.30273 13.9202 7.36773 13.9272C7.43272 13.9349 7.51928 13.8622 7.59203 13.9272C7.66386 13.9922 7.72187 13.9289 7.72187 13.9281V13.8338C7.72187 13.762 7.70015 13.7108 7.77213 13.6822C7.84395 13.6537 8.03878 13.6389 8.03878 13.7185C8.03878 13.7973 7.97378 13.8769 8.03878 13.9056C8.10378 13.9351 8.08981 13.9714 8.16179 13.9566C8.23361 13.9419 8.32808 13.9272 8.29163 13.9999C8.25533 14.0717 8.24835 14.115 8.18335 14.115C8.11836 14.115 8.0318 14.057 7.9955 14.115C7.95998 14.173 7.92368 14.2448 7.92368 14.3029C7.92368 14.3599 7.96013 14.4327 7.98868 14.476C8.01722 14.5193 8.06841 14.5478 8.11169 14.5911C8.15496 14.6343 8.18351 14.7139 8.21996 14.7139C8.25548 14.7139 8.22865 14.771 8.29969 14.6845C8.37151 14.5979 8.36376 14.5546 8.37849 14.5191C8.39323 14.4828 8.49359 14.3961 8.52306 14.4758C8.55161 14.5546 8.58015 14.6342 8.57317 14.6992C8.56634 14.7642 8.58961 14.7857 8.5741 14.894C8.55858 15.0023 8.46505 15.0594 8.45807 15.0889C8.45031 15.1174 8.44333 15.1469 8.48661 15.2404C8.52989 15.3339 8.47792 15.3634 8.58015 15.3702C8.68144 15.3772 8.70316 15.2905 8.7317 15.3702C8.76117 15.45 8.75326 15.5286 8.78273 15.5936C8.81127 15.6586 8.81128 15.6586 8.90481 15.6586C8.99913 15.6586 9.00611 15.6664 9.01309 15.6951C9.02084 15.7236 8.99928 15.7964 9.01309 15.8829C9.02782 15.9695 9.09964 16.0127 9.09964 16.0127C9.09964 16.0127 9.33077 15.9617 9.35931 16.0127C9.38879 16.063 9.40259 16.2361 9.48232 16.2647C9.56205 16.2941 9.54732 16.2941 9.66242 16.3079C9.77845 16.3227 9.78527 16.301 9.85725 16.4092C9.93 16.5175 9.96552 16.3945 9.98026 16.5028C9.99499 16.611 10.0383 16.7773 10.0885 16.7773C10.1388 16.7773 10.2184 16.7123 10.2686 16.7271C10.3197 16.7409 10.3803 16.9306 10.4253 16.9765C10.4331 16.9497 10.4478 16.9279 10.4729 16.9194C10.5379 16.8969 10.5959 16.9826 10.6643 16.9765C10.725 16.9714 10.7543 16.8994 10.8046 16.8656C10.8807 16.8136 10.9968 16.8535 11.0686 16.7955C11.0894 16.7798 11.1041 16.7565 11.1258 16.7418C11.1413 16.7297 11.1613 16.7227 11.1761 16.7089C11.2003 16.6855 11.2055 16.6483 11.1976 16.6163C11.1882 16.574 11.1587 16.5366 11.1205 16.5177C11.0998 16.5073 11.0763 16.502 11.0555 16.4925C10.9767 16.4596 10.9231 16.3678 10.9282 16.283C10.9342 16.1928 11.0469 16.1703 11.116 16.1331C11.2304 16.0742 11.3706 16.0084 11.452 15.96C11.5335 15.9114 11.6365 15.8578 11.7005 15.8085C11.7663 15.7599 11.723 15.327 11.723 15.295C11.723 15.2621 11.7117 15.1374 11.717 15.056C11.723 14.9755 11.8304 14.9919 11.8799 14.9486C11.9282 14.9053 11.9067 14.8127 11.8902 14.8023C11.8738 14.791 11.7716 14.689 11.7716 14.6344C11.7716 14.5797 11.7438 14.4881 11.723 14.4344C11.7005 14.3798 11.6469 14.3582 11.62 14.3478C11.5932 14.3365 11.4789 14.2284 11.4573 14.147C11.4356 14.0665 11.4634 14.0933 11.5387 14.0447C11.6141 13.9962 11.5933 13.9304 11.5603 13.8499C11.5274 13.7685 11.5119 13.8283 11.414 13.7953C11.3171 13.7634 11.3976 13.6931 11.414 13.6065C11.4305 13.52 11.4737 13.4221 11.4841 13.3571C11.4955 13.2921 11.5335 13.3085 11.62 13.2809C11.7066 13.2541 11.7551 13.3303 11.7871 13.3355C11.82 13.3408 11.8901 13.2169 11.8961 13.184C11.9014 13.1511 11.8901 13.1243 11.8415 13.0324C11.793 12.9406 11.7714 12.9778 11.7333 12.9406C11.6951 12.9026 11.6571 12.789 11.6631 12.6834C11.6683 12.5787 11.6951 12.6479 11.7869 12.6107C11.8795 12.5725 11.9168 12.7509 12.0146 12.854C12.1125 12.957 12.09 12.8592 12.1394 12.7943C12.1879 12.7293 12.2199 12.6428 12.2856 12.5449C12.3497 12.4479 12.4692 12.4644 12.5887 12.4427C12.7074 12.4209 12.6156 12.5345 12.5991 12.6375C12.5827 12.7405 12.6207 12.7673 12.6961 12.8106C12.7723 12.8539 12.7619 12.8643 12.7619 12.9076C12.7619 12.9508 12.6857 12.9508 12.6371 12.9508C12.5886 12.9508 12.5289 12.9941 12.4474 13.0756C12.366 13.157 12.4639 13.1942 12.4795 13.2435C12.496 13.2921 12.6258 13.2539 12.7186 13.2539C12.8104 13.2539 12.8753 13.26 13.0858 13.26C13.297 13.26 13.2105 13.2218 13.3516 13.1621C13.4919 13.1024 13.5187 13.1188 13.5784 13.1188C13.6381 13.1188 13.665 13.3137 13.665 13.4055C13.665 13.4973 13.7464 13.5198 13.7628 13.5249C13.7784 13.5301 13.8711 13.6064 13.898 13.6497C13.9248 13.6929 13.9308 13.8333 13.9308 13.9093C13.9308 13.9847 13.795 13.9414 13.7681 13.9301C13.7413 13.9197 13.6867 13.86 13.6114 13.86C13.5353 13.86 13.5353 13.9362 13.5353 14.0764C13.5353 14.2175 13.6167 14.2011 13.6436 14.2391C13.6713 14.2763 13.5846 14.3689 13.5353 14.4391C13.4867 14.5092 13.6003 14.5793 13.6218 14.6174C13.6434 14.6556 13.6487 14.6772 13.6487 14.7204C13.6487 14.7637 13.595 14.8667 13.5517 14.9204C13.5085 14.975 13.4055 14.9689 13.3682 14.9637C13.3301 14.9584 13.2652 14.9204 13.1838 14.8822C13.1023 14.845 12.9993 14.9316 12.9786 15.0017C12.9561 15.0718 12.9994 15.1532 13.0322 15.2233C13.0651 15.2944 13.2106 15.3749 13.2703 15.3861C13.3301 15.3965 13.3249 15.2717 13.3405 15.2285C13.3569 15.1852 13.5188 15.2285 13.5517 15.2285C13.5846 15.2285 13.7579 15.2181 13.8063 15.2016C13.8548 15.1852 13.8877 15.1697 13.9085 15.0181C13.931 14.8666 13.9363 14.9202 14.0064 14.8501C14.0765 14.78 14.1251 14.8016 14.2177 14.7471C14.3093 14.6934 14.293 14.6986 14.3093 14.574C14.3258 14.4493 14.2878 14.4657 14.3093 14.3627C14.331 14.2605 14.3691 14.2709 14.4123 14.2709C14.4556 14.2709 14.4938 14.3627 14.5422 14.444C14.5906 14.5255 14.6176 14.5037 14.6444 14.5202C14.6722 14.5357 14.6937 14.5202 14.8402 14.444C14.9857 14.3686 14.97 14.4822 15.0133 14.509C15.0565 14.5358 15.0998 14.5523 15.202 14.5419C15.305 14.5306 15.2506 14.4605 15.267 14.4225C15.2835 14.3852 15.3865 14.3792 15.4299 14.3792C15.4732 14.3792 15.4896 14.5523 15.5329 14.6502C15.5762 14.7471 15.7329 14.7688 15.8515 14.7853C15.971 14.8017 15.9866 14.7316 16.0195 14.6286C16.0524 14.5256 15.971 14.4875 15.933 14.4225C15.8948 14.3575 15.8196 14.3091 15.7546 14.1895C15.6896 14.0708 15.7268 14.0388 15.7268 13.941C15.7268 13.8431 15.7493 13.8544 15.8515 13.8111C15.9545 13.7679 15.9165 13.838 15.9494 13.8431C15.9814 13.8491 16.1598 13.8977 16.1762 13.8864C16.1926 13.876 16.2741 13.7945 16.2741 13.7357C16.2741 13.676 16.203 13.5133 16.139 13.405C16.0732 13.2968 16.0524 13.3617 15.933 13.3461C15.8135 13.3296 15.727 13.2595 15.6949 13.1938C15.6628 13.1297 15.7599 13.0968 15.83 13.0915C15.9001 13.0863 15.9762 13.0915 16.0093 13.0154C16.0412 12.94 15.9435 12.902 15.8846 12.8041C15.8249 12.7071 15.8681 12.669 15.9496 12.5824C16.0301 12.4959 16.1444 12.5824 16.1712 12.5824C16.1981 12.5824 16.3392 12.5824 16.3825 12.5443C16.4258 12.507 16.4691 12.4638 16.5496 12.4577C16.631 12.4526 16.7661 12.5443 16.7886 12.5443C16.8094 12.5443 16.8856 12.539 16.9938 12.4577C17.1021 12.3772 17.0259 12.3226 16.9938 12.2689C16.9619 12.2143 16.8804 12.1546 16.8804 12.0905C16.8804 12.0248 16.9506 11.8742 16.9454 11.8031C16.9394 11.733 16.8043 11.7277 16.7342 11.7649C16.664 11.8031 16.6527 11.8307 16.6312 11.9658C16.6094 12.1009 16.5826 11.9813 16.5064 12.0091C16.4311 12.0359 16.2528 12.1061 16.2033 12.1278C16.1548 12.1493 15.9981 12.0741 15.928 12.0359C15.857 11.9978 15.7549 12.0359 15.6137 11.9927C15.4735 11.9494 15.1592 11.4299 15.1322 11.2731C15.1054 11.1155 15.4085 10.6617 15.4673 10.6237C15.527 10.5856 15.63 10.6341 15.7383 10.6237C15.8466 10.6124 15.8249 10.4661 15.8681 10.396C15.9556 10.2541 16.172 10.1207 16.3141 10.0332C16.5002 9.91716 16.7272 9.88692 16.9081 9.76127C17.0543 9.65998 17.1566 9.49896 17.3159 9.4183C17.5063 9.32135 17.7626 9.34989 17.9081 9.19229C17.9652 9.12993 17.999 9.04431 18.0718 9.00273C18.1315 8.96814 18.2035 8.97062 18.27 8.95682C18.4692 8.91525 18.6051 8.73345 18.7046 8.55584C18.7141 8.53939 18.7237 8.52202 18.7324 8.50558C18.7341 8.49518 18.7358 8.48479 18.7394 8.47533C18.7532 8.43546 18.7757 8.39653 18.7723 8.35496C18.7713 8.33929 18.7653 8.32207 18.7515 8.31509C18.7445 8.31075 18.7368 8.30981 18.729 8.30904C18.6494 8.30128 18.6268 8.31509 18.5897 8.37745C18.5595 8.42941 18.5135 8.4761 18.4538 8.49084C18.3516 8.51597 18.2399 8.44058 18.1439 8.48138C18.1292 8.48836 18.1144 8.49689 18.0997 8.50387C18.0547 8.52295 18.0027 8.51597 17.9568 8.49953C17.9109 8.48231 17.8693 8.45625 17.8251 8.43639C17.8096 8.42941 17.7932 8.42243 17.7758 8.42243C17.7584 8.42166 17.7412 8.42771 17.7255 8.43546C17.6199 8.48572 17.5602 8.59741 17.47 8.67264C17.3782 8.7488 17.2527 8.78432 17.1341 8.76695C17.1038 8.76261 17.0726 8.75392 17.0492 8.73407C17.0146 8.70382 17.0042 8.65092 17.019 8.60765C17.0337 8.56344 17.07 8.52977 17.1125 8.51069C17.1507 8.49425 17.1947 8.48727 17.2259 8.45873C17.2467 8.43965 17.258 8.41204 17.2744 8.38862C17.3066 8.34192 17.3619 8.31152 17.419 8.30982C17.458 8.30811 17.4969 8.31928 17.536 8.32455C17.6017 8.33401 17.6745 8.32626 17.7221 8.28034C17.7697 8.23443 17.7732 8.1426 17.7161 8.10894C17.6866 8.09172 17.6503 8.09249 17.6157 8.09513C17.5447 8.09947 17.4738 8.10382 17.4027 8.10723C17.3819 8.10894 17.3604 8.10987 17.3421 8.09947C17.3308 8.09249 17.3213 8.08039 17.3143 8.06829C17.2867 8.01974 17.2858 7.95227 17.3204 7.90635C17.3619 7.85361 17.44 7.86043 17.4987 7.84321C17.6218 7.80769 17.6218 7.74968 17.645 7.7064C17.6684 7.66312 17.535 7.48303 17.535 7.48303C17.535 7.48303 17.4485 7.47527 17.3402 7.4033C17.2319 7.33148 17.2467 7.19373 17.1454 7.12874C17.0441 7.06374 17.0155 7.00665 16.9765 6.91219C16.9366 6.81865 16.9721 6.71038 17.0388 6.56581C17.076 6.48437 17.0275 6.36663 16.9774 6.27914C16.9748 6.28085 16.973 6.28178 16.9721 6.28256C16.9557 6.299 16.837 6.36911 16.8154 6.39083C16.7937 6.41255 16.7021 6.4186 16.5825 6.42372C16.463 6.42884 16.3228 6.59683 16.2578 6.64011C16.1928 6.68339 16.0958 6.6505 16.0958 6.54223C16.0958 6.43395 16.0412 6.299 16.1227 6.22873C16.2032 6.15862 16.2257 6.20189 16.231 6.08245C16.2361 5.96301 16.1981 5.8929 16.2032 5.80619C16.2092 5.71963 16.2794 5.67108 16.2629 5.58452C16.2465 5.49796 16.1252 5.3568 16.0777 5.36797C16.0301 5.3793 15.9331 5.38969 15.857 5.49781C15.7816 5.60608 15.7547 5.58964 15.6735 5.63897C15.592 5.68752 15.5869 5.88747 15.5003 5.93602C15.4138 5.98535 15.3541 6.06074 15.2838 5.89274C15.2137 5.72568 15.2076 5.67619 15.1644 5.61647C15.1211 5.55753 15.1592 5.50913 15.089 5.52464C15.0188 5.54109 15.0189 5.53597 14.9756 5.63897C14.9323 5.74119 14.9705 5.80603 14.8777 5.80091C14.7859 5.79564 14.721 5.77407 14.6942 5.77919C14.6673 5.78431 14.5097 5.88219 14.6241 5.97403C14.7375 6.06586 14.8025 6.1203 14.8025 6.1203C14.8025 6.1203 14.786 6.20174 14.7159 6.21213C14.6449 6.22253 14.5479 6.23369 14.5315 6.21725C14.515 6.20174 14.5696 6.09858 14.4778 6.10386C14.3852 6.10898 14.3315 6.11518 14.2778 6.1203C14.2232 6.12558 14.1254 6.17397 14.1151 6.08214C14.1047 5.99031 14.0987 5.88731 14.1151 5.83271C14.1316 5.77904 14.1913 5.64393 14.2017 5.62749C14.2121 5.61104 14.1748 5.54093 14.1801 5.51409C14.1854 5.48633 14.2667 5.41621 14.3264 5.38426C14.3853 5.35138 14.3914 5.28126 14.3585 5.25442C14.3264 5.22666 14.2667 5.10815 14.1317 5.04827C13.9958 4.98933 13.9153 4.92961 13.8658 4.86477C13.8173 4.79977 13.8503 4.7886 13.7092 4.64822C13.5689 4.50706 13.4278 4.49062 13.3958 4.43183C13.363 4.37211 13.3257 4.22055 13.3093 4.08544C13.2928 3.95034 13.201 3.8205 13.2443 3.75473C13.2876 3.69066 13.3526 3.63094 13.3526 3.57634C13.3526 3.52267 13.3794 3.51135 13.2711 3.45163C13.1628 3.39268 13.0927 3.37639 13.0927 3.30612C13.0927 3.23508 13.13 3.06196 13.0927 2.98146C13.0546 2.90002 13.0763 2.84557 12.9793 2.86806C12.8815 2.88885 12.8331 2.91134 12.7248 2.92701C12.6165 2.94345 12.4702 2.96517 12.4538 2.94345C12.4374 2.92174 12.4322 2.82479 12.4001 2.7919C12.3672 2.75902 12.3022 2.75902 12.2703 2.72179C12.2374 2.68363 12.1888 2.55379 12.1405 2.54247C12.0911 2.53208 11.9127 2.5372 11.8859 2.55891C11.8591 2.58063 11.7561 2.63508 11.6746 2.65152C11.5941 2.66703 11.4798 2.5918 11.4694 2.55364C11.4581 2.51548 11.4097 2.3692 11.4694 2.35881C11.5283 2.34842 11.5941 2.38052 11.621 2.31026C11.6478 2.23921 11.5881 2.19593 11.556 2.14754C11.5231 2.09898 11.491 2.04531 11.5178 1.99598C11.5524 1.93456 11.6269 1.86088 11.6251 1.78549C11.6234 1.68683 11.5144 1.67721 11.4528 1.62959C11.4061 1.59236 11.3931 1.51883 11.4243 1.46765C11.452 1.42173 11.5083 1.39582 11.5239 1.34464C11.5299 1.32478 11.529 1.304 11.5221 1.28492C11.51 1.25032 11.4796 1.21992 11.445 1.20441C11.3914 1.18021 11.33 1.18362 11.2719 1.18533C10.9516 1.19743 10.6304 1.16889 10.3178 1.10125C10.2745 1.09179 10.226 1.07706 10.2061 1.03719C10.1836 0.99298 10.2087 0.939308 10.2399 0.900373C10.2711 0.861438 10.3093 0.82328 10.3161 0.773952C10.3212 0.738429 10.3091 0.705544 10.2875 0.677002C10.2745 0.688326 10.259 0.700425 10.2409 0.713455C10.0608 0.84329 9.91619 0.871832 9.8149 0.908285C9.71438 0.944583 9.25212 1.0814 9.20186 1.13166C9.15161 1.18269 9.08677 1.42778 8.9923 1.62959C8.89876 1.83218 8.48754 2.74133 8.24943 3.01496C8.01132 3.28953 7.73676 3.44092 7.42683 3.58565C7.1169 3.72944 6.91416 3.69392 6.78433 3.99687C6.65449 4.29997 6.51768 4.66016 6.4094 4.78302C6.30113 4.90603 6.15656 4.95613 6.09172 5.0644C6.02672 5.17268 6.09947 5.56916 5.74534 5.62718C5.39213 5.68519 5.09601 5.70675 4.81446 5.75701C4.53308 5.80727 4.11488 5.96658 3.9703 6.00195C3.82651 6.0384 3.48711 6.0747 3.45081 5.83659C3.41529 5.59848 3.45081 5.45391 3.32873 5.32392C3.20572 5.19408 2.80148 5.10753 2.55639 5.38193C2.3113 5.65556 2.275 5.71358 2.10871 5.99497C1.94336 6.27635 1.76233 6.39936 1.59697 6.56472C1.43068 6.73101 1.15628 6.9474 1.09129 7.01938C1.02629 7.09213 0.78818 7.38732 0.796091 7.74844C0.805553 8.22124 1.34335 8.435 1.74341 8.45671C1.88968 8.4654 2.06295 8.41855 2.14951 8.57538C2.25003 8.7564 2.35132 8.94425 2.2249 9.14855C2.09506 9.35718 1.84904 9.42218 1.87076 9.64648C1.87076 9.64648 1.84222 10.1149 2.11662 10.4179C2.39025 10.721 2.52785 10.721 2.74439 10.6492C2.96094 10.5774 3.15577 10.4908 3.1626 10.5626C3.16958 10.6344 3.11932 10.7289 3.05432 10.8873C2.98933 11.0457 2.85251 11.1254 2.99631 11.3132C3.14088 11.5003 3.13405 11.4648 3.24915 11.6232C3.36425 11.7815 3.45096 11.76 3.4657 11.9626C3.48043 12.1644 3.38612 12.179 3.50898 12.3592C3.63199 12.5393 3.69698 12.6406 3.77563 12.7704C3.82154 12.8449 3.84311 12.9314 3.8414 12.9938C3.89244 13.0112 3.94269 13.0327 3.97821 13.0588C4.07765 13.1337 4.32351 13.1908 4.37362 13.1691Z"/>
</mask>
<path d="M4.37362 13.1691C4.42388 13.1475 4.50345 13.0731 4.54673 13.06C4.59001 13.047 4.64802 13.0037 4.69828 13.0037C4.74854 13.0037 4.91467 13.0608 4.95113 13.0903C4.98665 13.1188 5.26803 13.1742 5.26803 13.1742C5.26803 13.1742 5.37631 13.0971 5.43432 13.1404C5.49234 13.1837 5.48458 13.2218 5.58587 13.1742C5.68716 13.1257 5.70889 13.1024 5.74425 13.0712C5.78055 13.0391 5.83872 12.989 5.88882 13.0106C5.93908 13.0323 6.04038 13.144 6.04038 13.1959C6.04038 13.2487 6.17021 13.3206 6.19891 13.3206C6.22838 13.3206 6.30718 13.3206 6.37202 13.3571C6.43702 13.3934 6.50977 13.5882 6.57461 13.6317C6.6396 13.6749 6.68288 13.7399 6.73298 13.6967C6.78324 13.6534 6.76153 13.4941 6.82652 13.5235C6.89152 13.5521 7.00754 13.6386 7.01437 13.6673C7.02135 13.6968 7.13738 13.8189 7.13738 13.8189C7.24565 13.8986 7.30273 13.9202 7.36773 13.9272C7.43272 13.9349 7.51928 13.8622 7.59203 13.9272C7.66386 13.9922 7.72187 13.9289 7.72187 13.9281V13.8338C7.72187 13.762 7.70015 13.7108 7.77213 13.6822C7.84395 13.6537 8.03878 13.6389 8.03878 13.7185C8.03878 13.7973 7.97378 13.8769 8.03878 13.9056C8.10378 13.9351 8.08981 13.9714 8.16179 13.9566C8.23361 13.9419 8.32808 13.9272 8.29163 13.9999C8.25533 14.0717 8.24835 14.115 8.18335 14.115C8.11836 14.115 8.0318 14.057 7.9955 14.115C7.95998 14.173 7.92368 14.2448 7.92368 14.3029C7.92368 14.3599 7.96013 14.4327 7.98868 14.476C8.01722 14.5193 8.06841 14.5478 8.11169 14.5911C8.15496 14.6343 8.18351 14.7139 8.21996 14.7139C8.25548 14.7139 8.22865 14.771 8.29969 14.6845C8.37151 14.5979 8.36376 14.5546 8.37849 14.5191C8.39323 14.4828 8.49359 14.3961 8.52306 14.4758C8.55161 14.5546 8.58015 14.6342 8.57317 14.6992C8.56634 14.7642 8.58961 14.7857 8.5741 14.894C8.55858 15.0023 8.46505 15.0594 8.45807 15.0889C8.45031 15.1174 8.44333 15.1469 8.48661 15.2404C8.52989 15.3339 8.47792 15.3634 8.58015 15.3702C8.68144 15.3772 8.70316 15.2905 8.7317 15.3702C8.76117 15.45 8.75326 15.5286 8.78273 15.5936C8.81127 15.6586 8.81128 15.6586 8.90481 15.6586C8.99913 15.6586 9.00611 15.6664 9.01309 15.6951C9.02084 15.7236 8.99928 15.7964 9.01309 15.8829C9.02782 15.9695 9.09964 16.0127 9.09964 16.0127C9.09964 16.0127 9.33077 15.9617 9.35931 16.0127C9.38879 16.063 9.40259 16.2361 9.48232 16.2647C9.56205 16.2941 9.54732 16.2941 9.66242 16.3079C9.77845 16.3227 9.78527 16.301 9.85725 16.4092C9.93 16.5175 9.96552 16.3945 9.98026 16.5028C9.99499 16.611 10.0383 16.7773 10.0885 16.7773C10.1388 16.7773 10.2184 16.7123 10.2686 16.7271C10.3197 16.7409 10.3803 16.9306 10.4253 16.9765C10.4331 16.9497 10.4478 16.9279 10.4729 16.9194C10.5379 16.8969 10.5959 16.9826 10.6643 16.9765C10.725 16.9714 10.7543 16.8994 10.8046 16.8656C10.8807 16.8136 10.9968 16.8535 11.0686 16.7955C11.0894 16.7798 11.1041 16.7565 11.1258 16.7418C11.1413 16.7297 11.1613 16.7227 11.1761 16.7089C11.2003 16.6855 11.2055 16.6483 11.1976 16.6163C11.1882 16.574 11.1587 16.5366 11.1205 16.5177C11.0998 16.5073 11.0763 16.502 11.0555 16.4925C10.9767 16.4596 10.9231 16.3678 10.9282 16.283C10.9342 16.1928 11.0469 16.1703 11.116 16.1331C11.2304 16.0742 11.3706 16.0084 11.452 15.96C11.5335 15.9114 11.6365 15.8578 11.7005 15.8085C11.7663 15.7599 11.723 15.327 11.723 15.295C11.723 15.2621 11.7117 15.1374 11.717 15.056C11.723 14.9755 11.8304 14.9919 11.8799 14.9486C11.9282 14.9053 11.9067 14.8127 11.8902 14.8023C11.8738 14.791 11.7716 14.689 11.7716 14.6344C11.7716 14.5797 11.7438 14.4881 11.723 14.4344C11.7005 14.3798 11.6469 14.3582 11.62 14.3478C11.5932 14.3365 11.4789 14.2284 11.4573 14.147C11.4356 14.0665 11.4634 14.0933 11.5387 14.0447C11.6141 13.9962 11.5933 13.9304 11.5603 13.8499C11.5274 13.7685 11.5119 13.8283 11.414 13.7953C11.3171 13.7634 11.3976 13.6931 11.414 13.6065C11.4305 13.52 11.4737 13.4221 11.4841 13.3571C11.4955 13.2921 11.5335 13.3085 11.62 13.2809C11.7066 13.2541 11.7551 13.3303 11.7871 13.3355C11.82 13.3408 11.8901 13.2169 11.8961 13.184C11.9014 13.1511 11.8901 13.1243 11.8415 13.0324C11.793 12.9406 11.7714 12.9778 11.7333 12.9406C11.6951 12.9026 11.6571 12.789 11.6631 12.6834C11.6683 12.5787 11.6951 12.6479 11.7869 12.6107C11.8795 12.5725 11.9168 12.7509 12.0146 12.854C12.1125 12.957 12.09 12.8592 12.1394 12.7943C12.1879 12.7293 12.2199 12.6428 12.2856 12.5449C12.3497 12.4479 12.4692 12.4644 12.5887 12.4427C12.7074 12.4209 12.6156 12.5345 12.5991 12.6375C12.5827 12.7405 12.6207 12.7673 12.6961 12.8106C12.7723 12.8539 12.7619 12.8643 12.7619 12.9076C12.7619 12.9508 12.6857 12.9508 12.6371 12.9508C12.5886 12.9508 12.5289 12.9941 12.4474 13.0756C12.366 13.157 12.4639 13.1942 12.4795 13.2435C12.496 13.2921 12.6258 13.2539 12.7186 13.2539C12.8104 13.2539 12.8753 13.26 13.0858 13.26C13.297 13.26 13.2105 13.2218 13.3516 13.1621C13.4919 13.1024 13.5187 13.1188 13.5784 13.1188C13.6381 13.1188 13.665 13.3137 13.665 13.4055C13.665 13.4973 13.7464 13.5198 13.7628 13.5249C13.7784 13.5301 13.8711 13.6064 13.898 13.6497C13.9248 13.6929 13.9308 13.8333 13.9308 13.9093C13.9308 13.9847 13.795 13.9414 13.7681 13.9301C13.7413 13.9197 13.6867 13.86 13.6114 13.86C13.5353 13.86 13.5353 13.9362 13.5353 14.0764C13.5353 14.2175 13.6167 14.2011 13.6436 14.2391C13.6713 14.2763 13.5846 14.3689 13.5353 14.4391C13.4867 14.5092 13.6003 14.5793 13.6218 14.6174C13.6434 14.6556 13.6487 14.6772 13.6487 14.7204C13.6487 14.7637 13.595 14.8667 13.5517 14.9204C13.5085 14.975 13.4055 14.9689 13.3682 14.9637C13.3301 14.9584 13.2652 14.9204 13.1838 14.8822C13.1023 14.845 12.9993 14.9316 12.9786 15.0017C12.9561 15.0718 12.9994 15.1532 13.0322 15.2233C13.0651 15.2944 13.2106 15.3749 13.2703 15.3861C13.3301 15.3965 13.3249 15.2717 13.3405 15.2285C13.3569 15.1852 13.5188 15.2285 13.5517 15.2285C13.5846 15.2285 13.7579 15.2181 13.8063 15.2016C13.8548 15.1852 13.8877 15.1697 13.9085 15.0181C13.931 14.8666 13.9363 14.9202 14.0064 14.8501C14.0765 14.78 14.1251 14.8016 14.2177 14.7471C14.3093 14.6934 14.293 14.6986 14.3093 14.574C14.3258 14.4493 14.2878 14.4657 14.3093 14.3627C14.331 14.2605 14.3691 14.2709 14.4123 14.2709C14.4556 14.2709 14.4938 14.3627 14.5422 14.444C14.5906 14.5255 14.6176 14.5037 14.6444 14.5202C14.6722 14.5357 14.6937 14.5202 14.8402 14.444C14.9857 14.3686 14.97 14.4822 15.0133 14.509C15.0565 14.5358 15.0998 14.5523 15.202 14.5419C15.305 14.5306 15.2506 14.4605 15.267 14.4225C15.2835 14.3852 15.3865 14.3792 15.4299 14.3792C15.4732 14.3792 15.4896 14.5523 15.5329 14.6502C15.5762 14.7471 15.7329 14.7688 15.8515 14.7853C15.971 14.8017 15.9866 14.7316 16.0195 14.6286C16.0524 14.5256 15.971 14.4875 15.933 14.4225C15.8948 14.3575 15.8196 14.3091 15.7546 14.1895C15.6896 14.0708 15.7268 14.0388 15.7268 13.941C15.7268 13.8431 15.7493 13.8544 15.8515 13.8111C15.9545 13.7679 15.9165 13.838 15.9494 13.8431C15.9814 13.8491 16.1598 13.8977 16.1762 13.8864C16.1926 13.876 16.2741 13.7945 16.2741 13.7357C16.2741 13.676 16.203 13.5133 16.139 13.405C16.0732 13.2968 16.0524 13.3617 15.933 13.3461C15.8135 13.3296 15.727 13.2595 15.6949 13.1938C15.6628 13.1297 15.7599 13.0968 15.83 13.0915C15.9001 13.0863 15.9762 13.0915 16.0093 13.0154C16.0412 12.94 15.9435 12.902 15.8846 12.8041C15.8249 12.7071 15.8681 12.669 15.9496 12.5824C16.0301 12.4959 16.1444 12.5824 16.1712 12.5824C16.1981 12.5824 16.3392 12.5824 16.3825 12.5443C16.4258 12.507 16.4691 12.4638 16.5496 12.4577C16.631 12.4526 16.7661 12.5443 16.7886 12.5443C16.8094 12.5443 16.8856 12.539 16.9938 12.4577C17.1021 12.3772 17.0259 12.3226 16.9938 12.2689C16.9619 12.2143 16.8804 12.1546 16.8804 12.0905C16.8804 12.0248 16.9506 11.8742 16.9454 11.8031C16.9394 11.733 16.8043 11.7277 16.7342 11.7649C16.664 11.8031 16.6527 11.8307 16.6312 11.9658C16.6094 12.1009 16.5826 11.9813 16.5064 12.0091C16.4311 12.0359 16.2528 12.1061 16.2033 12.1278C16.1548 12.1493 15.9981 12.0741 15.928 12.0359C15.857 11.9978 15.7549 12.0359 15.6137 11.9927C15.4735 11.9494 15.1592 11.4299 15.1322 11.2731C15.1054 11.1155 15.4085 10.6617 15.4673 10.6237C15.527 10.5856 15.63 10.6341 15.7383 10.6237C15.8466 10.6124 15.8249 10.4661 15.8681 10.396C15.9556 10.2541 16.172 10.1207 16.3141 10.0332C16.5002 9.91716 16.7272 9.88692 16.9081 9.76127C17.0543 9.65998 17.1566 9.49896 17.3159 9.4183C17.5063 9.32135 17.7626 9.34989 17.9081 9.19229C17.9652 9.12993 17.999 9.04431 18.0718 9.00273C18.1315 8.96814 18.2035 8.97062 18.27 8.95682C18.4692 8.91525 18.6051 8.73345 18.7046 8.55584C18.7141 8.53939 18.7237 8.52202 18.7324 8.50558C18.7341 8.49518 18.7358 8.48479 18.7394 8.47533C18.7532 8.43546 18.7757 8.39653 18.7723 8.35496C18.7713 8.33929 18.7653 8.32207 18.7515 8.31509C18.7445 8.31075 18.7368 8.30981 18.729 8.30904C18.6494 8.30128 18.6268 8.31509 18.5897 8.37745C18.5595 8.42941 18.5135 8.4761 18.4538 8.49084C18.3516 8.51597 18.2399 8.44058 18.1439 8.48138C18.1292 8.48836 18.1144 8.49689 18.0997 8.50387C18.0547 8.52295 18.0027 8.51597 17.9568 8.49953C17.9109 8.48231 17.8693 8.45625 17.8251 8.43639C17.8096 8.42941 17.7932 8.42243 17.7758 8.42243C17.7584 8.42166 17.7412 8.42771 17.7255 8.43546C17.6199 8.48572 17.5602 8.59741 17.47 8.67264C17.3782 8.7488 17.2527 8.78432 17.1341 8.76695C17.1038 8.76261 17.0726 8.75392 17.0492 8.73407C17.0146 8.70382 17.0042 8.65092 17.019 8.60765C17.0337 8.56344 17.07 8.52977 17.1125 8.51069C17.1507 8.49425 17.1947 8.48727 17.2259 8.45873C17.2467 8.43965 17.258 8.41204 17.2744 8.38862C17.3066 8.34192 17.3619 8.31152 17.419 8.30982C17.458 8.30811 17.4969 8.31928 17.536 8.32455C17.6017 8.33401 17.6745 8.32626 17.7221 8.28034C17.7697 8.23443 17.7732 8.1426 17.7161 8.10894C17.6866 8.09172 17.6503 8.09249 17.6157 8.09513C17.5447 8.09947 17.4738 8.10382 17.4027 8.10723C17.3819 8.10894 17.3604 8.10987 17.3421 8.09947C17.3308 8.09249 17.3213 8.08039 17.3143 8.06829C17.2867 8.01974 17.2858 7.95227 17.3204 7.90635C17.3619 7.85361 17.44 7.86043 17.4987 7.84321C17.6218 7.80769 17.6218 7.74968 17.645 7.7064C17.6684 7.66312 17.535 7.48303 17.535 7.48303C17.535 7.48303 17.4485 7.47527 17.3402 7.4033C17.2319 7.33148 17.2467 7.19373 17.1454 7.12874C17.0441 7.06374 17.0155 7.00665 16.9765 6.91219C16.9366 6.81865 16.9721 6.71038 17.0388 6.56581C17.076 6.48437 17.0275 6.36663 16.9774 6.27914C16.9748 6.28085 16.973 6.28178 16.9721 6.28256C16.9557 6.299 16.837 6.36911 16.8154 6.39083C16.7937 6.41255 16.7021 6.4186 16.5825 6.42372C16.463 6.42884 16.3228 6.59683 16.2578 6.64011C16.1928 6.68339 16.0958 6.6505 16.0958 6.54223C16.0958 6.43395 16.0412 6.299 16.1227 6.22873C16.2032 6.15862 16.2257 6.20189 16.231 6.08245C16.2361 5.96301 16.1981 5.8929 16.2032 5.80619C16.2092 5.71963 16.2794 5.67108 16.2629 5.58452C16.2465 5.49796 16.1252 5.3568 16.0777 5.36797C16.0301 5.3793 15.9331 5.38969 15.857 5.49781C15.7816 5.60608 15.7547 5.58964 15.6735 5.63897C15.592 5.68752 15.5869 5.88747 15.5003 5.93602C15.4138 5.98535 15.3541 6.06074 15.2838 5.89274C15.2137 5.72568 15.2076 5.67619 15.1644 5.61647C15.1211 5.55753 15.1592 5.50913 15.089 5.52464C15.0188 5.54109 15.0189 5.53597 14.9756 5.63897C14.9323 5.74119 14.9705 5.80603 14.8777 5.80091C14.7859 5.79564 14.721 5.77407 14.6942 5.77919C14.6673 5.78431 14.5097 5.88219 14.6241 5.97403C14.7375 6.06586 14.8025 6.1203 14.8025 6.1203C14.8025 6.1203 14.786 6.20174 14.7159 6.21213C14.6449 6.22253 14.5479 6.23369 14.5315 6.21725C14.515 6.20174 14.5696 6.09858 14.4778 6.10386C14.3852 6.10898 14.3315 6.11518 14.2778 6.1203C14.2232 6.12558 14.1254 6.17397 14.1151 6.08214C14.1047 5.99031 14.0987 5.88731 14.1151 5.83271C14.1316 5.77904 14.1913 5.64393 14.2017 5.62749C14.2121 5.61104 14.1748 5.54093 14.1801 5.51409C14.1854 5.48633 14.2667 5.41621 14.3264 5.38426C14.3853 5.35138 14.3914 5.28126 14.3585 5.25442C14.3264 5.22666 14.2667 5.10815 14.1317 5.04827C13.9958 4.98933 13.9153 4.92961 13.8658 4.86477C13.8173 4.79977 13.8503 4.7886 13.7092 4.64822C13.5689 4.50706 13.4278 4.49062 13.3958 4.43183C13.363 4.37211 13.3257 4.22055 13.3093 4.08544C13.2928 3.95034 13.201 3.8205 13.2443 3.75473C13.2876 3.69066 13.3526 3.63094 13.3526 3.57634C13.3526 3.52267 13.3794 3.51135 13.2711 3.45163C13.1628 3.39268 13.0927 3.37639 13.0927 3.30612C13.0927 3.23508 13.13 3.06196 13.0927 2.98146C13.0546 2.90002 13.0763 2.84557 12.9793 2.86806C12.8815 2.88885 12.8331 2.91134 12.7248 2.92701C12.6165 2.94345 12.4702 2.96517 12.4538 2.94345C12.4374 2.92174 12.4322 2.82479 12.4001 2.7919C12.3672 2.75902 12.3022 2.75902 12.2703 2.72179C12.2374 2.68363 12.1888 2.55379 12.1405 2.54247C12.0911 2.53208 11.9127 2.5372 11.8859 2.55891C11.8591 2.58063 11.7561 2.63508 11.6746 2.65152C11.5941 2.66703 11.4798 2.5918 11.4694 2.55364C11.4581 2.51548 11.4097 2.3692 11.4694 2.35881C11.5283 2.34842 11.5941 2.38052 11.621 2.31026C11.6478 2.23921 11.5881 2.19593 11.556 2.14754C11.5231 2.09898 11.491 2.04531 11.5178 1.99598C11.5524 1.93456 11.6269 1.86088 11.6251 1.78549C11.6234 1.68683 11.5144 1.67721 11.4528 1.62959C11.4061 1.59236 11.3931 1.51883 11.4243 1.46765C11.452 1.42173 11.5083 1.39582 11.5239 1.34464C11.5299 1.32478 11.529 1.304 11.5221 1.28492C11.51 1.25032 11.4796 1.21992 11.445 1.20441C11.3914 1.18021 11.33 1.18362 11.2719 1.18533C10.9516 1.19743 10.6304 1.16889 10.3178 1.10125C10.2745 1.09179 10.226 1.07706 10.2061 1.03719C10.1836 0.99298 10.2087 0.939308 10.2399 0.900373C10.2711 0.861438 10.3093 0.82328 10.3161 0.773952C10.3212 0.738429 10.3091 0.705544 10.2875 0.677002C10.2745 0.688326 10.259 0.700425 10.2409 0.713455C10.0608 0.84329 9.91619 0.871832 9.8149 0.908285C9.71438 0.944583 9.25212 1.0814 9.20186 1.13166C9.15161 1.18269 9.08677 1.42778 8.9923 1.62959C8.89876 1.83218 8.48754 2.74133 8.24943 3.01496C8.01132 3.28953 7.73676 3.44092 7.42683 3.58565C7.1169 3.72944 6.91416 3.69392 6.78433 3.99687C6.65449 4.29997 6.51768 4.66016 6.4094 4.78302C6.30113 4.90603 6.15656 4.95613 6.09172 5.0644C6.02672 5.17268 6.09947 5.56916 5.74534 5.62718C5.39213 5.68519 5.09601 5.70675 4.81446 5.75701C4.53308 5.80727 4.11488 5.96658 3.9703 6.00195C3.82651 6.0384 3.48711 6.0747 3.45081 5.83659C3.41529 5.59848 3.45081 5.45391 3.32873 5.32392C3.20572 5.19408 2.80148 5.10753 2.55639 5.38193C2.3113 5.65556 2.275 5.71358 2.10871 5.99497C1.94336 6.27635 1.76233 6.39936 1.59697 6.56472C1.43068 6.73101 1.15628 6.9474 1.09129 7.01938C1.02629 7.09213 0.78818 7.38732 0.796091 7.74844C0.805553 8.22124 1.34335 8.435 1.74341 8.45671C1.88968 8.4654 2.06295 8.41855 2.14951 8.57538C2.25003 8.7564 2.35132 8.94425 2.2249 9.14855C2.09506 9.35718 1.84904 9.42218 1.87076 9.64648C1.87076 9.64648 1.84222 10.1149 2.11662 10.4179C2.39025 10.721 2.52785 10.721 2.74439 10.6492C2.96094 10.5774 3.15577 10.4908 3.1626 10.5626C3.16958 10.6344 3.11932 10.7289 3.05432 10.8873C2.98933 11.0457 2.85251 11.1254 2.99631 11.3132C3.14088 11.5003 3.13405 11.4648 3.24915 11.6232C3.36425 11.7815 3.45096 11.76 3.4657 11.9626C3.48043 12.1644 3.38612 12.179 3.50898 12.3592C3.63199 12.5393 3.69698 12.6406 3.77563 12.7704C3.82154 12.8449 3.84311 12.9314 3.8414 12.9938C3.89244 13.0112 3.94269 13.0327 3.97821 13.0588C4.07765 13.1337 4.32351 13.1908 4.37362 13.1691Z" fill="#E0D47C"/>
<path d="M4.37362 13.1691C4.42388 13.1475 4.50345 13.0731 4.54673 13.06C4.59001 13.047 4.64802 13.0037 4.69828 13.0037C4.74854 13.0037 4.91467 13.0608 4.95113 13.0903C4.98665 13.1188 5.26803 13.1742 5.26803 13.1742C5.26803 13.1742 5.37631 13.0971 5.43432 13.1404C5.49234 13.1837 5.48458 13.2218 5.58587 13.1742C5.68716 13.1257 5.70889 13.1024 5.74425 13.0712C5.78055 13.0391 5.83872 12.989 5.88882 13.0106C5.93908 13.0323 6.04038 13.144 6.04038 13.1959C6.04038 13.2487 6.17021 13.3206 6.19891 13.3206C6.22838 13.3206 6.30718 13.3206 6.37202 13.3571C6.43702 13.3934 6.50977 13.5882 6.57461 13.6317C6.6396 13.6749 6.68288 13.7399 6.73298 13.6967C6.78324 13.6534 6.76153 13.4941 6.82652 13.5235C6.89152 13.5521 7.00754 13.6386 7.01437 13.6673C7.02135 13.6968 7.13738 13.8189 7.13738 13.8189C7.24565 13.8986 7.30273 13.9202 7.36773 13.9272C7.43272 13.9349 7.51928 13.8622 7.59203 13.9272C7.66386 13.9922 7.72187 13.9289 7.72187 13.9281V13.8338C7.72187 13.762 7.70015 13.7108 7.77213 13.6822C7.84395 13.6537 8.03878 13.6389 8.03878 13.7185C8.03878 13.7973 7.97378 13.8769 8.03878 13.9056C8.10378 13.9351 8.08981 13.9714 8.16179 13.9566C8.23361 13.9419 8.32808 13.9272 8.29163 13.9999C8.25533 14.0717 8.24835 14.115 8.18335 14.115C8.11836 14.115 8.0318 14.057 7.9955 14.115C7.95998 14.173 7.92368 14.2448 7.92368 14.3029C7.92368 14.3599 7.96013 14.4327 7.98868 14.476C8.01722 14.5193 8.06841 14.5478 8.11169 14.5911C8.15496 14.6343 8.18351 14.7139 8.21996 14.7139C8.25548 14.7139 8.22865 14.771 8.29969 14.6845C8.37151 14.5979 8.36376 14.5546 8.37849 14.5191C8.39323 14.4828 8.49359 14.3961 8.52306 14.4758C8.55161 14.5546 8.58015 14.6342 8.57317 14.6992C8.56634 14.7642 8.58961 14.7857 8.5741 14.894C8.55858 15.0023 8.46505 15.0594 8.45807 15.0889C8.45031 15.1174 8.44333 15.1469 8.48661 15.2404C8.52989 15.3339 8.47792 15.3634 8.58015 15.3702C8.68144 15.3772 8.70316 15.2905 8.7317 15.3702C8.76117 15.45 8.75326 15.5286 8.78273 15.5936C8.81127 15.6586 8.81128 15.6586 8.90481 15.6586C8.99913 15.6586 9.00611 15.6664 9.01309 15.6951C9.02084 15.7236 8.99928 15.7964 9.01309 15.8829C9.02782 15.9695 9.09964 16.0127 9.09964 16.0127C9.09964 16.0127 9.33077 15.9617 9.35931 16.0127C9.38879 16.063 9.40259 16.2361 9.48232 16.2647C9.56205 16.2941 9.54732 16.2941 9.66242 16.3079C9.77845 16.3227 9.78527 16.301 9.85725 16.4092C9.93 16.5175 9.96552 16.3945 9.98026 16.5028C9.99499 16.611 10.0383 16.7773 10.0885 16.7773C10.1388 16.7773 10.2184 16.7123 10.2686 16.7271C10.3197 16.7409 10.3803 16.9306 10.4253 16.9765C10.4331 16.9497 10.4478 16.9279 10.4729 16.9194C10.5379 16.8969 10.5959 16.9826 10.6643 16.9765C10.725 16.9714 10.7543 16.8994 10.8046 16.8656C10.8807 16.8136 10.9968 16.8535 11.0686 16.7955C11.0894 16.7798 11.1041 16.7565 11.1258 16.7418C11.1413 16.7297 11.1613 16.7227 11.1761 16.7089C11.2003 16.6855 11.2055 16.6483 11.1976 16.6163C11.1882 16.574 11.1587 16.5366 11.1205 16.5177C11.0998 16.5073 11.0763 16.502 11.0555 16.4925C10.9767 16.4596 10.9231 16.3678 10.9282 16.283C10.9342 16.1928 11.0469 16.1703 11.116 16.1331C11.2304 16.0742 11.3706 16.0084 11.452 15.96C11.5335 15.9114 11.6365 15.8578 11.7005 15.8085C11.7663 15.7599 11.723 15.327 11.723 15.295C11.723 15.2621 11.7117 15.1374 11.717 15.056C11.723 14.9755 11.8304 14.9919 11.8799 14.9486C11.9282 14.9053 11.9067 14.8127 11.8902 14.8023C11.8738 14.791 11.7716 14.689 11.7716 14.6344C11.7716 14.5797 11.7438 14.4881 11.723 14.4344C11.7005 14.3798 11.6469 14.3582 11.62 14.3478C11.5932 14.3365 11.4789 14.2284 11.4573 14.147C11.4356 14.0665 11.4634 14.0933 11.5387 14.0447C11.6141 13.9962 11.5933 13.9304 11.5603 13.8499C11.5274 13.7685 11.5119 13.8283 11.414 13.7953C11.3171 13.7634 11.3976 13.6931 11.414 13.6065C11.4305 13.52 11.4737 13.4221 11.4841 13.3571C11.4955 13.2921 11.5335 13.3085 11.62 13.2809C11.7066 13.2541 11.7551 13.3303 11.7871 13.3355C11.82 13.3408 11.8901 13.2169 11.8961 13.184C11.9014 13.1511 11.8901 13.1243 11.8415 13.0324C11.793 12.9406 11.7714 12.9778 11.7333 12.9406C11.6951 12.9026 11.6571 12.789 11.6631 12.6834C11.6683 12.5787 11.6951 12.6479 11.7869 12.6107C11.8795 12.5725 11.9168 12.7509 12.0146 12.854C12.1125 12.957 12.09 12.8592 12.1394 12.7943C12.1879 12.7293 12.2199 12.6428 12.2856 12.5449C12.3497 12.4479 12.4692 12.4644 12.5887 12.4427C12.7074 12.4209 12.6156 12.5345 12.5991 12.6375C12.5827 12.7405 12.6207 12.7673 12.6961 12.8106C12.7723 12.8539 12.7619 12.8643 12.7619 12.9076C12.7619 12.9508 12.6857 12.9508 12.6371 12.9508C12.5886 12.9508 12.5289 12.9941 12.4474 13.0756C12.366 13.157 12.4639 13.1942 12.4795 13.2435C12.496 13.2921 12.6258 13.2539 12.7186 13.2539C12.8104 13.2539 12.8753 13.26 13.0858 13.26C13.297 13.26 13.2105 13.2218 13.3516 13.1621C13.4919 13.1024 13.5187 13.1188 13.5784 13.1188C13.6381 13.1188 13.665 13.3137 13.665 13.4055C13.665 13.4973 13.7464 13.5198 13.7628 13.5249C13.7784 13.5301 13.8711 13.6064 13.898 13.6497C13.9248 13.6929 13.9308 13.8333 13.9308 13.9093C13.9308 13.9847 13.795 13.9414 13.7681 13.9301C13.7413 13.9197 13.6867 13.86 13.6114 13.86C13.5353 13.86 13.5353 13.9362 13.5353 14.0764C13.5353 14.2175 13.6167 14.2011 13.6436 14.2391C13.6713 14.2763 13.5846 14.3689 13.5353 14.4391C13.4867 14.5092 13.6003 14.5793 13.6218 14.6174C13.6434 14.6556 13.6487 14.6772 13.6487 14.7204C13.6487 14.7637 13.595 14.8667 13.5517 14.9204C13.5085 14.975 13.4055 14.9689 13.3682 14.9637C13.3301 14.9584 13.2652 14.9204 13.1838 14.8822C13.1023 14.845 12.9993 14.9316 12.9786 15.0017C12.9561 15.0718 12.9994 15.1532 13.0322 15.2233C13.0651 15.2944 13.2106 15.3749 13.2703 15.3861C13.3301 15.3965 13.3249 15.2717 13.3405 15.2285C13.3569 15.1852 13.5188 15.2285 13.5517 15.2285C13.5846 15.2285 13.7579 15.2181 13.8063 15.2016C13.8548 15.1852 13.8877 15.1697 13.9085 15.0181C13.931 14.8666 13.9363 14.9202 14.0064 14.8501C14.0765 14.78 14.1251 14.8016 14.2177 14.7471C14.3093 14.6934 14.293 14.6986 14.3093 14.574C14.3258 14.4493 14.2878 14.4657 14.3093 14.3627C14.331 14.2605 14.3691 14.2709 14.4123 14.2709C14.4556 14.2709 14.4938 14.3627 14.5422 14.444C14.5906 14.5255 14.6176 14.5037 14.6444 14.5202C14.6722 14.5357 14.6937 14.5202 14.8402 14.444C14.9857 14.3686 14.97 14.4822 15.0133 14.509C15.0565 14.5358 15.0998 14.5523 15.202 14.5419C15.305 14.5306 15.2506 14.4605 15.267 14.4225C15.2835 14.3852 15.3865 14.3792 15.4299 14.3792C15.4732 14.3792 15.4896 14.5523 15.5329 14.6502C15.5762 14.7471 15.7329 14.7688 15.8515 14.7853C15.971 14.8017 15.9866 14.7316 16.0195 14.6286C16.0524 14.5256 15.971 14.4875 15.933 14.4225C15.8948 14.3575 15.8196 14.3091 15.7546 14.1895C15.6896 14.0708 15.7268 14.0388 15.7268 13.941C15.7268 13.8431 15.7493 13.8544 15.8515 13.8111C15.9545 13.7679 15.9165 13.838 15.9494 13.8431C15.9814 13.8491 16.1598 13.8977 16.1762 13.8864C16.1926 13.876 16.2741 13.7945 16.2741 13.7357C16.2741 13.676 16.203 13.5133 16.139 13.405C16.0732 13.2968 16.0524 13.3617 15.933 13.3461C15.8135 13.3296 15.727 13.2595 15.6949 13.1938C15.6628 13.1297 15.7599 13.0968 15.83 13.0915C15.9001 13.0863 15.9762 13.0915 16.0093 13.0154C16.0412 12.94 15.9435 12.902 15.8846 12.8041C15.8249 12.7071 15.8681 12.669 15.9496 12.5824C16.0301 12.4959 16.1444 12.5824 16.1712 12.5824C16.1981 12.5824 16.3392 12.5824 16.3825 12.5443C16.4258 12.507 16.4691 12.4638 16.5496 12.4577C16.631 12.4526 16.7661 12.5443 16.7886 12.5443C16.8094 12.5443 16.8856 12.539 16.9938 12.4577C17.1021 12.3772 17.0259 12.3226 16.9938 12.2689C16.9619 12.2143 16.8804 12.1546 16.8804 12.0905C16.8804 12.0248 16.9506 11.8742 16.9454 11.8031C16.9394 11.733 16.8043 11.7277 16.7342 11.7649C16.664 11.8031 16.6527 11.8307 16.6312 11.9658C16.6094 12.1009 16.5826 11.9813 16.5064 12.0091C16.4311 12.0359 16.2528 12.1061 16.2033 12.1278C16.1548 12.1493 15.9981 12.0741 15.928 12.0359C15.857 11.9978 15.7549 12.0359 15.6137 11.9927C15.4735 11.9494 15.1592 11.4299 15.1322 11.2731C15.1054 11.1155 15.4085 10.6617 15.4673 10.6237C15.527 10.5856 15.63 10.6341 15.7383 10.6237C15.8466 10.6124 15.8249 10.4661 15.8681 10.396C15.9556 10.2541 16.172 10.1207 16.3141 10.0332C16.5002 9.91716 16.7272 9.88692 16.9081 9.76127C17.0543 9.65998 17.1566 9.49896 17.3159 9.4183C17.5063 9.32135 17.7626 9.34989 17.9081 9.19229C17.9652 9.12993 17.999 9.04431 18.0718 9.00273C18.1315 8.96814 18.2035 8.97062 18.27 8.95682C18.4692 8.91525 18.6051 8.73345 18.7046 8.55584C18.7141 8.53939 18.7237 8.52202 18.7324 8.50558C18.7341 8.49518 18.7358 8.48479 18.7394 8.47533C18.7532 8.43546 18.7757 8.39653 18.7723 8.35496C18.7713 8.33929 18.7653 8.32207 18.7515 8.31509C18.7445 8.31075 18.7368 8.30981 18.729 8.30904C18.6494 8.30128 18.6268 8.31509 18.5897 8.37745C18.5595 8.42941 18.5135 8.4761 18.4538 8.49084C18.3516 8.51597 18.2399 8.44058 18.1439 8.48138C18.1292 8.48836 18.1144 8.49689 18.0997 8.50387C18.0547 8.52295 18.0027 8.51597 17.9568 8.49953C17.9109 8.48231 17.8693 8.45625 17.8251 8.43639C17.8096 8.42941 17.7932 8.42243 17.7758 8.42243C17.7584 8.42166 17.7412 8.42771 17.7255 8.43546C17.6199 8.48572 17.5602 8.59741 17.47 8.67264C17.3782 8.7488 17.2527 8.78432 17.1341 8.76695C17.1038 8.76261 17.0726 8.75392 17.0492 8.73407C17.0146 8.70382 17.0042 8.65092 17.019 8.60765C17.0337 8.56344 17.07 8.52977 17.1125 8.51069C17.1507 8.49425 17.1947 8.48727 17.2259 8.45873C17.2467 8.43965 17.258 8.41204 17.2744 8.38862C17.3066 8.34192 17.3619 8.31152 17.419 8.30982C17.458 8.30811 17.4969 8.31928 17.536 8.32455C17.6017 8.33401 17.6745 8.32626 17.7221 8.28034C17.7697 8.23443 17.7732 8.1426 17.7161 8.10894C17.6866 8.09172 17.6503 8.09249 17.6157 8.09513C17.5447 8.09947 17.4738 8.10382 17.4027 8.10723C17.3819 8.10894 17.3604 8.10987 17.3421 8.09947C17.3308 8.09249 17.3213 8.08039 17.3143 8.06829C17.2867 8.01974 17.2858 7.95227 17.3204 7.90635C17.3619 7.85361 17.44 7.86043 17.4987 7.84321C17.6218 7.80769 17.6218 7.74968 17.645 7.7064C17.6684 7.66312 17.535 7.48303 17.535 7.48303C17.535 7.48303 17.4485 7.47527 17.3402 7.4033C17.2319 7.33148 17.2467 7.19373 17.1454 7.12874C17.0441 7.06374 17.0155 7.00665 16.9765 6.91219C16.9366 6.81865 16.9721 6.71038 17.0388 6.56581C17.076 6.48437 17.0275 6.36663 16.9774 6.27914C16.9748 6.28085 16.973 6.28178 16.9721 6.28256C16.9557 6.299 16.837 6.36911 16.8154 6.39083C16.7937 6.41255 16.7021 6.4186 16.5825 6.42372C16.463 6.42884 16.3228 6.59683 16.2578 6.64011C16.1928 6.68339 16.0958 6.6505 16.0958 6.54223C16.0958 6.43395 16.0412 6.299 16.1227 6.22873C16.2032 6.15862 16.2257 6.20189 16.231 6.08245C16.2361 5.96301 16.1981 5.8929 16.2032 5.80619C16.2092 5.71963 16.2794 5.67108 16.2629 5.58452C16.2465 5.49796 16.1252 5.3568 16.0777 5.36797C16.0301 5.3793 15.9331 5.38969 15.857 5.49781C15.7816 5.60608 15.7547 5.58964 15.6735 5.63897C15.592 5.68752 15.5869 5.88747 15.5003 5.93602C15.4138 5.98535 15.3541 6.06074 15.2838 5.89274C15.2137 5.72568 15.2076 5.67619 15.1644 5.61647C15.1211 5.55753 15.1592 5.50913 15.089 5.52464C15.0188 5.54109 15.0189 5.53597 14.9756 5.63897C14.9323 5.74119 14.9705 5.80603 14.8777 5.80091C14.7859 5.79564 14.721 5.77407 14.6942 5.77919C14.6673 5.78431 14.5097 5.88219 14.6241 5.97403C14.7375 6.06586 14.8025 6.1203 14.8025 6.1203C14.8025 6.1203 14.786 6.20174 14.7159 6.21213C14.6449 6.22253 14.5479 6.23369 14.5315 6.21725C14.515 6.20174 14.5696 6.09858 14.4778 6.10386C14.3852 6.10898 14.3315 6.11518 14.2778 6.1203C14.2232 6.12558 14.1254 6.17397 14.1151 6.08214C14.1047 5.99031 14.0987 5.88731 14.1151 5.83271C14.1316 5.77904 14.1913 5.64393 14.2017 5.62749C14.2121 5.61104 14.1748 5.54093 14.1801 5.51409C14.1854 5.48633 14.2667 5.41621 14.3264 5.38426C14.3853 5.35138 14.3914 5.28126 14.3585 5.25442C14.3264 5.22666 14.2667 5.10815 14.1317 5.04827C13.9958 4.98933 13.9153 4.92961 13.8658 4.86477C13.8173 4.79977 13.8503 4.7886 13.7092 4.64822C13.5689 4.50706 13.4278 4.49062 13.3958 4.43183C13.363 4.37211 13.3257 4.22055 13.3093 4.08544C13.2928 3.95034 13.201 3.8205 13.2443 3.75473C13.2876 3.69066 13.3526 3.63094 13.3526 3.57634C13.3526 3.52267 13.3794 3.51135 13.2711 3.45163C13.1628 3.39268 13.0927 3.37639 13.0927 3.30612C13.0927 3.23508 13.13 3.06196 13.0927 2.98146C13.0546 2.90002 13.0763 2.84557 12.9793 2.86806C12.8815 2.88885 12.8331 2.91134 12.7248 2.92701C12.6165 2.94345 12.4702 2.96517 12.4538 2.94345C12.4374 2.92174 12.4322 2.82479 12.4001 2.7919C12.3672 2.75902 12.3022 2.75902 12.2703 2.72179C12.2374 2.68363 12.1888 2.55379 12.1405 2.54247C12.0911 2.53208 11.9127 2.5372 11.8859 2.55891C11.8591 2.58063 11.7561 2.63508 11.6746 2.65152C11.5941 2.66703 11.4798 2.5918 11.4694 2.55364C11.4581 2.51548 11.4097 2.3692 11.4694 2.35881C11.5283 2.34842 11.5941 2.38052 11.621 2.31026C11.6478 2.23921 11.5881 2.19593 11.556 2.14754C11.5231 2.09898 11.491 2.04531 11.5178 1.99598C11.5524 1.93456 11.6269 1.86088 11.6251 1.78549C11.6234 1.68683 11.5144 1.67721 11.4528 1.62959C11.4061 1.59236 11.3931 1.51883 11.4243 1.46765C11.452 1.42173 11.5083 1.39582 11.5239 1.34464C11.5299 1.32478 11.529 1.304 11.5221 1.28492C11.51 1.25032 11.4796 1.21992 11.445 1.20441C11.3914 1.18021 11.33 1.18362 11.2719 1.18533C10.9516 1.19743 10.6304 1.16889 10.3178 1.10125C10.2745 1.09179 10.226 1.07706 10.2061 1.03719C10.1836 0.99298 10.2087 0.939308 10.2399 0.900373C10.2711 0.861438 10.3093 0.82328 10.3161 0.773952C10.3212 0.738429 10.3091 0.705544 10.2875 0.677002C10.2745 0.688326 10.259 0.700425 10.2409 0.713455C10.0608 0.84329 9.91619 0.871832 9.8149 0.908285C9.71438 0.944583 9.25212 1.0814 9.20186 1.13166C9.15161 1.18269 9.08677 1.42778 8.9923 1.62959C8.89876 1.83218 8.48754 2.74133 8.24943 3.01496C8.01132 3.28953 7.73676 3.44092 7.42683 3.58565C7.1169 3.72944 6.91416 3.69392 6.78433 3.99687C6.65449 4.29997 6.51768 4.66016 6.4094 4.78302C6.30113 4.90603 6.15656 4.95613 6.09172 5.0644C6.02672 5.17268 6.09947 5.56916 5.74534 5.62718C5.39213 5.68519 5.09601 5.70675 4.81446 5.75701C4.53308 5.80727 4.11488 5.96658 3.9703 6.00195C3.82651 6.0384 3.48711 6.0747 3.45081 5.83659C3.41529 5.59848 3.45081 5.45391 3.32873 5.32392C3.20572 5.19408 2.80148 5.10753 2.55639 5.38193C2.3113 5.65556 2.275 5.71358 2.10871 5.99497C1.94336 6.27635 1.76233 6.39936 1.59697 6.56472C1.43068 6.73101 1.15628 6.9474 1.09129 7.01938C1.02629 7.09213 0.78818 7.38732 0.796091 7.74844C0.805553 8.22124 1.34335 8.435 1.74341 8.45671C1.88968 8.4654 2.06295 8.41855 2.14951 8.57538C2.25003 8.7564 2.35132 8.94425 2.2249 9.14855C2.09506 9.35718 1.84904 9.42218 1.87076 9.64648C1.87076 9.64648 1.84222 10.1149 2.11662 10.4179C2.39025 10.721 2.52785 10.721 2.74439 10.6492C2.96094 10.5774 3.15577 10.4908 3.1626 10.5626C3.16958 10.6344 3.11932 10.7289 3.05432 10.8873C2.98933 11.0457 2.85251 11.1254 2.99631 11.3132C3.14088 11.5003 3.13405 11.4648 3.24915 11.6232C3.36425 11.7815 3.45096 11.76 3.4657 11.9626C3.48043 12.1644 3.38612 12.179 3.50898 12.3592C3.63199 12.5393 3.69698 12.6406 3.77563 12.7704C3.82154 12.8449 3.84311 12.9314 3.8414 12.9938C3.89244 13.0112 3.94269 13.0327 3.97821 13.0588C4.07765 13.1337 4.32351 13.1908 4.37362 13.1691Z" fill="url(#paint0_linear_1571_9877)"/>
<path d="M4.37362 13.1691C4.42388 13.1475 4.50345 13.0731 4.54673 13.06C4.59001 13.047 4.64802 13.0037 4.69828 13.0037C4.74854 13.0037 4.91467 13.0608 4.95113 13.0903C4.98665 13.1188 5.26803 13.1742 5.26803 13.1742C5.26803 13.1742 5.37631 13.0971 5.43432 13.1404C5.49234 13.1837 5.48458 13.2218 5.58587 13.1742C5.68716 13.1257 5.70889 13.1024 5.74425 13.0712C5.78055 13.0391 5.83872 12.989 5.88882 13.0106C5.93908 13.0323 6.04038 13.144 6.04038 13.1959C6.04038 13.2487 6.17021 13.3206 6.19891 13.3206C6.22838 13.3206 6.30718 13.3206 6.37202 13.3571C6.43702 13.3934 6.50977 13.5882 6.57461 13.6317C6.6396 13.6749 6.68288 13.7399 6.73298 13.6967C6.78324 13.6534 6.76153 13.4941 6.82652 13.5235C6.89152 13.5521 7.00754 13.6386 7.01437 13.6673C7.02135 13.6968 7.13738 13.8189 7.13738 13.8189C7.24565 13.8986 7.30273 13.9202 7.36773 13.9272C7.43272 13.9349 7.51928 13.8622 7.59203 13.9272C7.66386 13.9922 7.72187 13.9289 7.72187 13.9281V13.8338C7.72187 13.762 7.70015 13.7108 7.77213 13.6822C7.84395 13.6537 8.03878 13.6389 8.03878 13.7185C8.03878 13.7973 7.97378 13.8769 8.03878 13.9056C8.10378 13.9351 8.08981 13.9714 8.16179 13.9566C8.23361 13.9419 8.32808 13.9272 8.29163 13.9999C8.25533 14.0717 8.24835 14.115 8.18335 14.115C8.11836 14.115 8.0318 14.057 7.9955 14.115C7.95998 14.173 7.92368 14.2448 7.92368 14.3029C7.92368 14.3599 7.96013 14.4327 7.98868 14.476C8.01722 14.5193 8.06841 14.5478 8.11169 14.5911C8.15496 14.6343 8.18351 14.7139 8.21996 14.7139C8.25548 14.7139 8.22865 14.771 8.29969 14.6845C8.37151 14.5979 8.36376 14.5546 8.37849 14.5191C8.39323 14.4828 8.49359 14.3961 8.52306 14.4758C8.55161 14.5546 8.58015 14.6342 8.57317 14.6992C8.56634 14.7642 8.58961 14.7857 8.5741 14.894C8.55858 15.0023 8.46505 15.0594 8.45807 15.0889C8.45031 15.1174 8.44333 15.1469 8.48661 15.2404C8.52989 15.3339 8.47792 15.3634 8.58015 15.3702C8.68144 15.3772 8.70316 15.2905 8.7317 15.3702C8.76117 15.45 8.75326 15.5286 8.78273 15.5936C8.81127 15.6586 8.81128 15.6586 8.90481 15.6586C8.99913 15.6586 9.00611 15.6664 9.01309 15.6951C9.02084 15.7236 8.99928 15.7964 9.01309 15.8829C9.02782 15.9695 9.09964 16.0127 9.09964 16.0127C9.09964 16.0127 9.33077 15.9617 9.35931 16.0127C9.38879 16.063 9.40259 16.2361 9.48232 16.2647C9.56205 16.2941 9.54732 16.2941 9.66242 16.3079C9.77845 16.3227 9.78527 16.301 9.85725 16.4092C9.93 16.5175 9.96552 16.3945 9.98026 16.5028C9.99499 16.611 10.0383 16.7773 10.0885 16.7773C10.1388 16.7773 10.2184 16.7123 10.2686 16.7271C10.3197 16.7409 10.3803 16.9306 10.4253 16.9765C10.4331 16.9497 10.4478 16.9279 10.4729 16.9194C10.5379 16.8969 10.5959 16.9826 10.6643 16.9765C10.725 16.9714 10.7543 16.8994 10.8046 16.8656C10.8807 16.8136 10.9968 16.8535 11.0686 16.7955C11.0894 16.7798 11.1041 16.7565 11.1258 16.7418C11.1413 16.7297 11.1613 16.7227 11.1761 16.7089C11.2003 16.6855 11.2055 16.6483 11.1976 16.6163C11.1882 16.574 11.1587 16.5366 11.1205 16.5177C11.0998 16.5073 11.0763 16.502 11.0555 16.4925C10.9767 16.4596 10.9231 16.3678 10.9282 16.283C10.9342 16.1928 11.0469 16.1703 11.116 16.1331C11.2304 16.0742 11.3706 16.0084 11.452 15.96C11.5335 15.9114 11.6365 15.8578 11.7005 15.8085C11.7663 15.7599 11.723 15.327 11.723 15.295C11.723 15.2621 11.7117 15.1374 11.717 15.056C11.723 14.9755 11.8304 14.9919 11.8799 14.9486C11.9282 14.9053 11.9067 14.8127 11.8902 14.8023C11.8738 14.791 11.7716 14.689 11.7716 14.6344C11.7716 14.5797 11.7438 14.4881 11.723 14.4344C11.7005 14.3798 11.6469 14.3582 11.62 14.3478C11.5932 14.3365 11.4789 14.2284 11.4573 14.147C11.4356 14.0665 11.4634 14.0933 11.5387 14.0447C11.6141 13.9962 11.5933 13.9304 11.5603 13.8499C11.5274 13.7685 11.5119 13.8283 11.414 13.7953C11.3171 13.7634 11.3976 13.6931 11.414 13.6065C11.4305 13.52 11.4737 13.4221 11.4841 13.3571C11.4955 13.2921 11.5335 13.3085 11.62 13.2809C11.7066 13.2541 11.7551 13.3303 11.7871 13.3355C11.82 13.3408 11.8901 13.2169 11.8961 13.184C11.9014 13.1511 11.8901 13.1243 11.8415 13.0324C11.793 12.9406 11.7714 12.9778 11.7333 12.9406C11.6951 12.9026 11.6571 12.789 11.6631 12.6834C11.6683 12.5787 11.6951 12.6479 11.7869 12.6107C11.8795 12.5725 11.9168 12.7509 12.0146 12.854C12.1125 12.957 12.09 12.8592 12.1394 12.7943C12.1879 12.7293 12.2199 12.6428 12.2856 12.5449C12.3497 12.4479 12.4692 12.4644 12.5887 12.4427C12.7074 12.4209 12.6156 12.5345 12.5991 12.6375C12.5827 12.7405 12.6207 12.7673 12.6961 12.8106C12.7723 12.8539 12.7619 12.8643 12.7619 12.9076C12.7619 12.9508 12.6857 12.9508 12.6371 12.9508C12.5886 12.9508 12.5289 12.9941 12.4474 13.0756C12.366 13.157 12.4639 13.1942 12.4795 13.2435C12.496 13.2921 12.6258 13.2539 12.7186 13.2539C12.8104 13.2539 12.8753 13.26 13.0858 13.26C13.297 13.26 13.2105 13.2218 13.3516 13.1621C13.4919 13.1024 13.5187 13.1188 13.5784 13.1188C13.6381 13.1188 13.665 13.3137 13.665 13.4055C13.665 13.4973 13.7464 13.5198 13.7628 13.5249C13.7784 13.5301 13.8711 13.6064 13.898 13.6497C13.9248 13.6929 13.9308 13.8333 13.9308 13.9093C13.9308 13.9847 13.795 13.9414 13.7681 13.9301C13.7413 13.9197 13.6867 13.86 13.6114 13.86C13.5353 13.86 13.5353 13.9362 13.5353 14.0764C13.5353 14.2175 13.6167 14.2011 13.6436 14.2391C13.6713 14.2763 13.5846 14.3689 13.5353 14.4391C13.4867 14.5092 13.6003 14.5793 13.6218 14.6174C13.6434 14.6556 13.6487 14.6772 13.6487 14.7204C13.6487 14.7637 13.595 14.8667 13.5517 14.9204C13.5085 14.975 13.4055 14.9689 13.3682 14.9637C13.3301 14.9584 13.2652 14.9204 13.1838 14.8822C13.1023 14.845 12.9993 14.9316 12.9786 15.0017C12.9561 15.0718 12.9994 15.1532 13.0322 15.2233C13.0651 15.2944 13.2106 15.3749 13.2703 15.3861C13.3301 15.3965 13.3249 15.2717 13.3405 15.2285C13.3569 15.1852 13.5188 15.2285 13.5517 15.2285C13.5846 15.2285 13.7579 15.2181 13.8063 15.2016C13.8548 15.1852 13.8877 15.1697 13.9085 15.0181C13.931 14.8666 13.9363 14.9202 14.0064 14.8501C14.0765 14.78 14.1251 14.8016 14.2177 14.7471C14.3093 14.6934 14.293 14.6986 14.3093 14.574C14.3258 14.4493 14.2878 14.4657 14.3093 14.3627C14.331 14.2605 14.3691 14.2709 14.4123 14.2709C14.4556 14.2709 14.4938 14.3627 14.5422 14.444C14.5906 14.5255 14.6176 14.5037 14.6444 14.5202C14.6722 14.5357 14.6937 14.5202 14.8402 14.444C14.9857 14.3686 14.97 14.4822 15.0133 14.509C15.0565 14.5358 15.0998 14.5523 15.202 14.5419C15.305 14.5306 15.2506 14.4605 15.267 14.4225C15.2835 14.3852 15.3865 14.3792 15.4299 14.3792C15.4732 14.3792 15.4896 14.5523 15.5329 14.6502C15.5762 14.7471 15.7329 14.7688 15.8515 14.7853C15.971 14.8017 15.9866 14.7316 16.0195 14.6286C16.0524 14.5256 15.971 14.4875 15.933 14.4225C15.8948 14.3575 15.8196 14.3091 15.7546 14.1895C15.6896 14.0708 15.7268 14.0388 15.7268 13.941C15.7268 13.8431 15.7493 13.8544 15.8515 13.8111C15.9545 13.7679 15.9165 13.838 15.9494 13.8431C15.9814 13.8491 16.1598 13.8977 16.1762 13.8864C16.1926 13.876 16.2741 13.7945 16.2741 13.7357C16.2741 13.676 16.203 13.5133 16.139 13.405C16.0732 13.2968 16.0524 13.3617 15.933 13.3461C15.8135 13.3296 15.727 13.2595 15.6949 13.1938C15.6628 13.1297 15.7599 13.0968 15.83 13.0915C15.9001 13.0863 15.9762 13.0915 16.0093 13.0154C16.0412 12.94 15.9435 12.902 15.8846 12.8041C15.8249 12.7071 15.8681 12.669 15.9496 12.5824C16.0301 12.4959 16.1444 12.5824 16.1712 12.5824C16.1981 12.5824 16.3392 12.5824 16.3825 12.5443C16.4258 12.507 16.4691 12.4638 16.5496 12.4577C16.631 12.4526 16.7661 12.5443 16.7886 12.5443C16.8094 12.5443 16.8856 12.539 16.9938 12.4577C17.1021 12.3772 17.0259 12.3226 16.9938 12.2689C16.9619 12.2143 16.8804 12.1546 16.8804 12.0905C16.8804 12.0248 16.9506 11.8742 16.9454 11.8031C16.9394 11.733 16.8043 11.7277 16.7342 11.7649C16.664 11.8031 16.6527 11.8307 16.6312 11.9658C16.6094 12.1009 16.5826 11.9813 16.5064 12.0091C16.4311 12.0359 16.2528 12.1061 16.2033 12.1278C16.1548 12.1493 15.9981 12.0741 15.928 12.0359C15.857 11.9978 15.7549 12.0359 15.6137 11.9927C15.4735 11.9494 15.1592 11.4299 15.1322 11.2731C15.1054 11.1155 15.4085 10.6617 15.4673 10.6237C15.527 10.5856 15.63 10.6341 15.7383 10.6237C15.8466 10.6124 15.8249 10.4661 15.8681 10.396C15.9556 10.2541 16.172 10.1207 16.3141 10.0332C16.5002 9.91716 16.7272 9.88692 16.9081 9.76127C17.0543 9.65998 17.1566 9.49896 17.3159 9.4183C17.5063 9.32135 17.7626 9.34989 17.9081 9.19229C17.9652 9.12993 17.999 9.04431 18.0718 9.00273C18.1315 8.96814 18.2035 8.97062 18.27 8.95682C18.4692 8.91525 18.6051 8.73345 18.7046 8.55584C18.7141 8.53939 18.7237 8.52202 18.7324 8.50558C18.7341 8.49518 18.7358 8.48479 18.7394 8.47533C18.7532 8.43546 18.7757 8.39653 18.7723 8.35496C18.7713 8.33929 18.7653 8.32207 18.7515 8.31509C18.7445 8.31075 18.7368 8.30981 18.729 8.30904C18.6494 8.30128 18.6268 8.31509 18.5897 8.37745C18.5595 8.42941 18.5135 8.4761 18.4538 8.49084C18.3516 8.51597 18.2399 8.44058 18.1439 8.48138C18.1292 8.48836 18.1144 8.49689 18.0997 8.50387C18.0547 8.52295 18.0027 8.51597 17.9568 8.49953C17.9109 8.48231 17.8693 8.45625 17.8251 8.43639C17.8096 8.42941 17.7932 8.42243 17.7758 8.42243C17.7584 8.42166 17.7412 8.42771 17.7255 8.43546C17.6199 8.48572 17.5602 8.59741 17.47 8.67264C17.3782 8.7488 17.2527 8.78432 17.1341 8.76695C17.1038 8.76261 17.0726 8.75392 17.0492 8.73407C17.0146 8.70382 17.0042 8.65092 17.019 8.60765C17.0337 8.56344 17.07 8.52977 17.1125 8.51069C17.1507 8.49425 17.1947 8.48727 17.2259 8.45873C17.2467 8.43965 17.258 8.41204 17.2744 8.38862C17.3066 8.34192 17.3619 8.31152 17.419 8.30982C17.458 8.30811 17.4969 8.31928 17.536 8.32455C17.6017 8.33401 17.6745 8.32626 17.7221 8.28034C17.7697 8.23443 17.7732 8.1426 17.7161 8.10894C17.6866 8.09172 17.6503 8.09249 17.6157 8.09513C17.5447 8.09947 17.4738 8.10382 17.4027 8.10723C17.3819 8.10894 17.3604 8.10987 17.3421 8.09947C17.3308 8.09249 17.3213 8.08039 17.3143 8.06829C17.2867 8.01974 17.2858 7.95227 17.3204 7.90635C17.3619 7.85361 17.44 7.86043 17.4987 7.84321C17.6218 7.80769 17.6218 7.74968 17.645 7.7064C17.6684 7.66312 17.535 7.48303 17.535 7.48303C17.535 7.48303 17.4485 7.47527 17.3402 7.4033C17.2319 7.33148 17.2467 7.19373 17.1454 7.12874C17.0441 7.06374 17.0155 7.00665 16.9765 6.91219C16.9366 6.81865 16.9721 6.71038 17.0388 6.56581C17.076 6.48437 17.0275 6.36663 16.9774 6.27914C16.9748 6.28085 16.973 6.28178 16.9721 6.28256C16.9557 6.299 16.837 6.36911 16.8154 6.39083C16.7937 6.41255 16.7021 6.4186 16.5825 6.42372C16.463 6.42884 16.3228 6.59683 16.2578 6.64011C16.1928 6.68339 16.0958 6.6505 16.0958 6.54223C16.0958 6.43395 16.0412 6.299 16.1227 6.22873C16.2032 6.15862 16.2257 6.20189 16.231 6.08245C16.2361 5.96301 16.1981 5.8929 16.2032 5.80619C16.2092 5.71963 16.2794 5.67108 16.2629 5.58452C16.2465 5.49796 16.1252 5.3568 16.0777 5.36797C16.0301 5.3793 15.9331 5.38969 15.857 5.49781C15.7816 5.60608 15.7547 5.58964 15.6735 5.63897C15.592 5.68752 15.5869 5.88747 15.5003 5.93602C15.4138 5.98535 15.3541 6.06074 15.2838 5.89274C15.2137 5.72568 15.2076 5.67619 15.1644 5.61647C15.1211 5.55753 15.1592 5.50913 15.089 5.52464C15.0188 5.54109 15.0189 5.53597 14.9756 5.63897C14.9323 5.74119 14.9705 5.80603 14.8777 5.80091C14.7859 5.79564 14.721 5.77407 14.6942 5.77919C14.6673 5.78431 14.5097 5.88219 14.6241 5.97403C14.7375 6.06586 14.8025 6.1203 14.8025 6.1203C14.8025 6.1203 14.786 6.20174 14.7159 6.21213C14.6449 6.22253 14.5479 6.23369 14.5315 6.21725C14.515 6.20174 14.5696 6.09858 14.4778 6.10386C14.3852 6.10898 14.3315 6.11518 14.2778 6.1203C14.2232 6.12558 14.1254 6.17397 14.1151 6.08214C14.1047 5.99031 14.0987 5.88731 14.1151 5.83271C14.1316 5.77904 14.1913 5.64393 14.2017 5.62749C14.2121 5.61104 14.1748 5.54093 14.1801 5.51409C14.1854 5.48633 14.2667 5.41621 14.3264 5.38426C14.3853 5.35138 14.3914 5.28126 14.3585 5.25442C14.3264 5.22666 14.2667 5.10815 14.1317 5.04827C13.9958 4.98933 13.9153 4.92961 13.8658 4.86477C13.8173 4.79977 13.8503 4.7886 13.7092 4.64822C13.5689 4.50706 13.4278 4.49062 13.3958 4.43183C13.363 4.37211 13.3257 4.22055 13.3093 4.08544C13.2928 3.95034 13.201 3.8205 13.2443 3.75473C13.2876 3.69066 13.3526 3.63094 13.3526 3.57634C13.3526 3.52267 13.3794 3.51135 13.2711 3.45163C13.1628 3.39268 13.0927 3.37639 13.0927 3.30612C13.0927 3.23508 13.13 3.06196 13.0927 2.98146C13.0546 2.90002 13.0763 2.84557 12.9793 2.86806C12.8815 2.88885 12.8331 2.91134 12.7248 2.92701C12.6165 2.94345 12.4702 2.96517 12.4538 2.94345C12.4374 2.92174 12.4322 2.82479 12.4001 2.7919C12.3672 2.75902 12.3022 2.75902 12.2703 2.72179C12.2374 2.68363 12.1888 2.55379 12.1405 2.54247C12.0911 2.53208 11.9127 2.5372 11.8859 2.55891C11.8591 2.58063 11.7561 2.63508 11.6746 2.65152C11.5941 2.66703 11.4798 2.5918 11.4694 2.55364C11.4581 2.51548 11.4097 2.3692 11.4694 2.35881C11.5283 2.34842 11.5941 2.38052 11.621 2.31026C11.6478 2.23921 11.5881 2.19593 11.556 2.14754C11.5231 2.09898 11.491 2.04531 11.5178 1.99598C11.5524 1.93456 11.6269 1.86088 11.6251 1.78549C11.6234 1.68683 11.5144 1.67721 11.4528 1.62959C11.4061 1.59236 11.3931 1.51883 11.4243 1.46765C11.452 1.42173 11.5083 1.39582 11.5239 1.34464C11.5299 1.32478 11.529 1.304 11.5221 1.28492C11.51 1.25032 11.4796 1.21992 11.445 1.20441C11.3914 1.18021 11.33 1.18362 11.2719 1.18533C10.9516 1.19743 10.6304 1.16889 10.3178 1.10125C10.2745 1.09179 10.226 1.07706 10.2061 1.03719C10.1836 0.99298 10.2087 0.939308 10.2399 0.900373C10.2711 0.861438 10.3093 0.82328 10.3161 0.773952C10.3212 0.738429 10.3091 0.705544 10.2875 0.677002C10.2745 0.688326 10.259 0.700425 10.2409 0.713455C10.0608 0.84329 9.91619 0.871832 9.8149 0.908285C9.71438 0.944583 9.25212 1.0814 9.20186 1.13166C9.15161 1.18269 9.08677 1.42778 8.9923 1.62959C8.89876 1.83218 8.48754 2.74133 8.24943 3.01496C8.01132 3.28953 7.73676 3.44092 7.42683 3.58565C7.1169 3.72944 6.91416 3.69392 6.78433 3.99687C6.65449 4.29997 6.51768 4.66016 6.4094 4.78302C6.30113 4.90603 6.15656 4.95613 6.09172 5.0644C6.02672 5.17268 6.09947 5.56916 5.74534 5.62718C5.39213 5.68519 5.09601 5.70675 4.81446 5.75701C4.53308 5.80727 4.11488 5.96658 3.9703 6.00195C3.82651 6.0384 3.48711 6.0747 3.45081 5.83659C3.41529 5.59848 3.45081 5.45391 3.32873 5.32392C3.20572 5.19408 2.80148 5.10753 2.55639 5.38193C2.3113 5.65556 2.275 5.71358 2.10871 5.99497C1.94336 6.27635 1.76233 6.39936 1.59697 6.56472C1.43068 6.73101 1.15628 6.9474 1.09129 7.01938C1.02629 7.09213 0.78818 7.38732 0.796091 7.74844C0.805553 8.22124 1.34335 8.435 1.74341 8.45671C1.88968 8.4654 2.06295 8.41855 2.14951 8.57538C2.25003 8.7564 2.35132 8.94425 2.2249 9.14855C2.09506 9.35718 1.84904 9.42218 1.87076 9.64648C1.87076 9.64648 1.84222 10.1149 2.11662 10.4179C2.39025 10.721 2.52785 10.721 2.74439 10.6492C2.96094 10.5774 3.15577 10.4908 3.1626 10.5626C3.16958 10.6344 3.11932 10.7289 3.05432 10.8873C2.98933 11.0457 2.85251 11.1254 2.99631 11.3132C3.14088 11.5003 3.13405 11.4648 3.24915 11.6232C3.36425 11.7815 3.45096 11.76 3.4657 11.9626C3.48043 12.1644 3.38612 12.179 3.50898 12.3592C3.63199 12.5393 3.69698 12.6406 3.77563 12.7704C3.82154 12.8449 3.84311 12.9314 3.8414 12.9938C3.89244 13.0112 3.94269 13.0327 3.97821 13.0588C4.07765 13.1337 4.32351 13.1908 4.37362 13.1691Z" stroke="#510A32" stroke-width="0.378007" mask="url(#path-1-inside-1_1571_9877)"/>
<defs>
<linearGradient id="paint0_linear_1571_9877" x1="9.78411" y1="-12.174" x2="9.78411" y2="95.2624" gradientUnits="userSpaceOnUse">
<stop stop-color="#FF984F"/>
<stop offset="0.2978" stop-color="#F37A56"/>
<stop offset="0.9428" stop-color="#D42F67"/>
<stop offset="1" stop-color="#D12869"/>
</linearGradient>
</defs>
</svg>
