<svg width="24" height="24" viewBox="0 0 24 24" fill="none" xmlns="http://www.w3.org/2000/svg">
<g clip-path="url(#clip0_2120_18667)">
<path d="M23.8333 8.79542C23.6287 8.14432 23.22 7.57633 22.6677 7.17545C22.1154 6.77457 21.4487 6.56209 20.7663 6.56942H16.3973L15.0703 2.43342C14.8616 1.78238 14.4515 1.21443 13.8992 0.811485C13.3469 0.408536 12.6809 0.191406 11.9973 0.191406C11.3136 0.191406 10.6476 0.408536 10.0953 0.811485C9.54299 1.21443 9.13294 1.78238 8.92426 2.43342L7.59726 6.56942H3.22826C2.54801 6.57039 1.88545 6.7863 1.33524 7.18632C0.785031 7.58635 0.375304 8.15001 0.164585 8.79681C-0.0461347 9.44361 -0.0470674 10.1405 0.16192 10.7878C0.370907 11.4352 0.779124 11.9999 1.32826 12.4014L4.88426 15.0014L3.53226 19.1884C3.31377 19.8378 3.31101 20.5404 3.52437 21.1915C3.73774 21.8426 4.15581 22.4073 4.71626 22.8014C5.26712 23.2082 5.93466 23.4261 6.61942 23.4227C7.30418 23.4193 7.96951 23.1947 8.51626 22.7824L11.9973 20.2204L15.4793 22.7794C16.0291 23.1839 16.6931 23.4036 17.3756 23.4069C18.0582 23.4102 18.7243 23.197 19.278 22.7979C19.8318 22.3989 20.2448 21.8345 20.4575 21.1859C20.6703 20.5373 20.672 19.838 20.4623 19.1884L19.1103 15.0014L22.6703 12.4014C23.2257 12.005 23.6387 11.4402 23.8481 10.7908C24.0576 10.1413 24.0524 9.44168 23.8333 8.79542ZM21.4903 10.7864L17.3463 13.8154C17.1761 13.9396 17.0494 14.1143 16.9844 14.3148C16.9194 14.5152 16.9193 14.731 16.9843 14.9314L18.5593 19.8014C18.639 20.0484 18.6383 20.3143 18.5573 20.5609C18.4764 20.8075 18.3193 21.0221 18.1087 21.1738C17.8981 21.3255 17.6448 21.4065 17.3853 21.4052C17.1257 21.4039 16.8733 21.3203 16.6643 21.1664L12.5893 18.1664C12.4176 18.0403 12.2102 17.9724 11.9973 17.9724C11.7843 17.9724 11.5769 18.0403 11.4053 18.1664L7.33026 21.1664C7.12135 21.3223 6.8682 21.4077 6.60753 21.41C6.34686 21.4124 6.0922 21.3317 5.88049 21.1796C5.66878 21.0275 5.51101 20.8119 5.43006 20.5641C5.34911 20.3163 5.34918 20.0492 5.43026 19.8014L7.01026 14.9314C7.07518 14.731 7.07513 14.5152 7.01012 14.3148C6.94512 14.1143 6.81847 13.9396 6.64826 13.8154L2.50426 10.7864C2.29557 10.6336 2.1405 10.4188 2.0612 10.1726C1.98191 9.92636 1.98245 9.6614 2.06275 9.41552C2.14304 9.16964 2.29899 8.95543 2.5083 8.80347C2.71762 8.65152 2.96961 8.5696 3.22826 8.56942H8.32826C8.53998 8.56941 8.74623 8.50221 8.91731 8.37749C9.08839 8.25278 9.21548 8.07698 9.28026 7.87542L10.8303 3.04442C10.9098 2.7972 11.0658 2.58161 11.2757 2.42867C11.4856 2.27573 11.7386 2.19332 11.9983 2.19332C12.258 2.19332 12.511 2.27573 12.7209 2.42867C12.9307 2.58161 13.0867 2.7972 13.1663 3.04442L14.7163 7.87542C14.781 8.07698 14.9081 8.25278 15.0792 8.37749C15.2503 8.50221 15.4565 8.56941 15.6683 8.56942H20.7683C21.0269 8.5696 21.2789 8.65152 21.4882 8.80347C21.6975 8.95543 21.8535 9.16964 21.9338 9.41552C22.0141 9.6614 22.0146 9.92636 21.9353 10.1726C21.856 10.4188 21.701 10.6336 21.4923 10.7864H21.4903Z" fill="#FC5D5D"/>
</g>
<defs>
<clipPath id="clip0_2120_18667">
<rect width="24" height="24" fill="white"/>
</clipPath>
</defs>
</svg>
