<svg width="53" height="46" viewBox="0 0 53 46" fill="none" xmlns="http://www.w3.org/2000/svg">
<path d="M51.9795 39.4914C52.2053 40.4965 52.0028 41.6204 51.4389 42.4965C50.9409 43.268 50.2015 43.7906 49.3551 43.9674C49.1293 44.0151 48.8971 44.0383 48.6571 44.0383C47.9358 44.0383 47.1449 43.8254 46.261 43.3945C45.9423 43.2397 45.6301 43.0681 45.3282 42.9029C44.7695 42.5971 44.2431 42.3081 43.6753 42.1094C43.4276 42.0216 43.056 41.9197 42.6754 41.9197C42.4147 41.9197 42.1502 41.9675 41.9219 42.1042C41.869 41.9765 41.8212 41.8462 41.7773 41.7146C42.3851 41.392 43.1541 41.4913 43.8108 41.7223C44.7346 42.0475 45.5591 42.5971 46.4391 43.0268C47.3191 43.4551 48.3126 43.7674 49.2712 43.5674C51.0209 43.2022 51.9524 41.2436 51.5795 39.5804C51.4105 38.8256 50.9628 38.1353 50.3357 37.6837C50.0428 37.4747 49.7177 37.3173 49.3809 37.1896C47.9513 36.6464 46.4133 36.7083 44.9488 36.3535C44.4547 36.2348 43.9695 36.0012 43.6547 35.6012L43.6469 35.5922C43.7553 35.5083 43.8663 35.4284 43.9811 35.3535C44.2624 35.7058 44.714 35.8748 45.0456 35.9561C45.6198 36.0941 46.1991 36.1664 46.8133 36.2425C47.7087 36.3535 48.6339 36.467 49.5267 36.8064C49.9396 36.9638 50.2815 37.1418 50.5744 37.3509C51.275 37.8554 51.7873 38.6347 51.9795 39.4914Z" fill="#FFF3D1"/>
<path d="M51.5801 39.581C51.953 41.2442 51.0214 43.2028 49.2718 43.5679C48.3131 43.7679 47.3196 43.4557 46.4397 43.0273C45.5597 42.5977 44.7352 42.048 43.8114 41.7229C43.1546 41.4919 42.3856 41.3925 41.7779 41.7151C41.4295 40.661 41.3934 39.4933 41.7431 38.3514C42.0914 37.2134 42.7727 36.2689 43.6475 35.5928L43.6552 35.6018C43.9701 36.0018 44.4552 36.2353 44.9494 36.354C46.4139 36.7089 47.9519 36.6469 49.3815 37.1901C49.7182 37.3179 50.0434 37.4753 50.3363 37.6843C50.9634 38.1359 51.4111 38.8262 51.5801 39.581Z" fill="#C0E895"/>
<path d="M48.6713 34.6724C51.6015 35.5704 53.2479 38.6735 52.3511 41.6024C51.4531 44.5314 48.35 46.179 45.4211 45.281C43.776 44.7765 42.5348 43.5778 41.9219 42.1044C42.1503 41.9676 42.4148 41.9198 42.6754 41.9198C43.056 41.9198 43.4276 42.0218 43.6754 42.1095C44.2431 42.3082 44.7695 42.5972 45.3282 42.903C45.6301 43.0682 45.9424 43.2398 46.2611 43.3946C47.1449 43.8256 47.9358 44.0385 48.6571 44.0385C48.8971 44.0385 49.1293 44.0152 49.3551 43.9675C50.2016 43.7907 50.9409 43.2682 51.4389 42.4966C52.0028 41.6205 52.2053 40.4967 51.9795 39.4915C51.7873 38.6348 51.2751 37.8555 50.5744 37.351C50.2815 37.142 49.9396 36.9639 49.5267 36.8065C48.6339 36.4672 47.7087 36.3536 46.8133 36.2426C46.1991 36.1665 45.6198 36.0943 45.0456 35.9562C44.714 35.8749 44.2624 35.7059 43.9811 35.3536C45.3153 34.4698 47.021 34.1666 48.6713 34.6724Z" fill="#C0E895"/>
<path d="M14.2793 3.22309C14.7064 3.78436 14.9309 4.48885 14.0535 4.9869L11.6484 3.04504C12.8523 2.27733 13.8367 2.64118 14.2793 3.22309Z" fill="#8996CE"/>
<path d="M9.04948 2.70546C9.04948 3.62671 9.04948 5.34407 9.04948 5.34407H8.77594H8.12823H7.85469C7.85469 4.23056 7.62502 3.63188 7.27148 3.28866L8.91013 1.96484H8.91142C9.01206 2.16613 9.04948 2.39321 9.04948 2.70546Z" fill="#8996CE"/>
<path d="M7.14875 0.436639L4.74368 2.3785C3.86759 1.88045 4.0921 1.17597 4.51789 0.614697C4.96045 0.032784 5.94493 -0.331073 7.14875 0.436639Z" fill="#8996CE"/>
<path d="M6.7819 6.49062C6.7819 7.41187 6.7819 9.12922 6.7819 9.12922H6.50836H5.86065H5.58711C5.58711 8.01572 5.35744 7.41703 5.00391 7.07253L6.64255 5.75H6.64384C6.74448 5.95128 6.7819 6.17837 6.7819 6.49062Z" fill="#8996CE"/>
<path d="M4.88214 4.2218L2.47707 6.16366C1.59969 5.66561 1.8242 4.96112 2.25128 4.39985C2.69384 3.81794 3.67832 3.45408 4.88214 4.2218Z" fill="#8996CE"/>
<path d="M9.8874 4.57422L11.526 5.89804C11.1725 6.24125 10.9428 6.83994 10.9428 7.95344H10.6693H10.0216H9.74805C9.74805 7.95344 9.74805 6.23609 9.74805 5.31483C9.74805 5.00259 9.78547 4.7755 9.8874 4.57422Z" fill="#8996CE"/>
<path d="M6.64414 5.74968H6.64285L5.00421 7.0722C4.44165 6.52384 3.56297 6.6219 2.79913 6.31611C2.67784 6.26707 2.57075 6.21675 2.47656 6.16256L4.88163 4.2207C4.96679 4.2736 5.05324 4.33296 5.13968 4.39876C6.01062 5.0568 6.44802 5.35614 6.64414 5.74968Z" fill="#505EA5"/>
<path d="M8.91172 1.9655H8.91043L7.27178 3.28932C6.70923 2.73966 5.83184 2.83772 5.06671 2.53193C4.94542 2.4829 4.83833 2.43257 4.74414 2.37838L7.14921 0.436523C7.23437 0.489425 7.32081 0.548777 7.40726 0.614581C8.2782 1.27262 8.7156 1.57196 8.91172 1.9655Z" fill="#505EA5"/>
<path d="M11.6473 3.04492L14.0523 4.98678C13.9582 5.04097 13.8511 5.09129 13.7298 5.14032C12.9659 5.44612 12.0873 5.34806 11.5247 5.89771L9.88606 4.57389H9.88477C10.0809 4.18036 10.5183 3.88102 11.3892 3.22298C11.4757 3.15718 11.5621 3.09782 11.6473 3.04492Z" fill="#505EA5"/>
<path d="M10.6692 7.9541H10.0215V33.2318H10.6692V7.9541Z" fill="#E8B23A"/>
<path d="M8.77662 5.3457H8.12891V33.2324H8.77662V5.3457Z" fill="#E8B23A"/>
<path d="M6.50904 9.12891H5.86133V33.2312H6.50904V9.12891Z" fill="#E8B23A"/>
<path d="M44.7342 2.7793C48.8321 8.97131 47.8283 19.8406 45.1342 27.5732C42.8904 34.0168 38.9976 40.6436 37.7615 42.6745L36.888 42.0668C38.1396 40.0011 41.9523 33.4788 44.1316 27.2248C46.6051 20.1206 47.6334 10.041 44.2826 4.07731C37.9512 6.66947 32.4959 15.2085 30.0225 22.3114C27.7245 28.9112 26.6691 36.8735 26.4381 38.7921H25.3672C25.5672 37.0876 26.6188 28.8557 29.0199 21.9618C31.7127 14.2292 37.6764 5.0863 44.7342 2.7793Z" fill="#95CE5F"/>
<path d="M44.2825 4.07715C47.6334 10.0408 46.605 20.1204 44.1316 27.2246C41.9523 33.4786 38.1396 40.0009 36.888 42.0666L32.1914 38.7984L44.2825 4.07715Z" fill="#FFCC4D"/>
<path d="M44.282 4.07715L32.1908 38.7984L32.1818 38.7919H26.4375C26.6685 36.8733 27.7239 28.911 30.0219 22.3113C32.4953 15.2083 37.9506 6.66931 44.282 4.07715Z" fill="#E8B23A"/>
<path d="M34.2778 28.4694C34.074 28.6745 33.852 28.8591 33.6185 29.0203L33.6107 29.0255C33.6107 29.0255 31.5115 29.5261 30.9605 30.2164C30.3709 30.9519 30.6367 32.815 30.4328 33.6705C30.2289 34.5234 29.2251 34.2924 29.2251 34.2924C29.2251 34.2924 28.3026 34.0847 28.3981 33.2137C28.4948 32.3415 29.349 30.748 29.398 29.8655C29.3993 29.8539 29.3993 29.8422 29.3993 29.8319C29.3993 28.9494 27.5116 27.6565 27.5116 27.6565C27.3671 27.4075 27.2433 27.1443 27.1465 26.8682C27.2226 26.8746 29.6509 27.0888 34.2778 28.4694Z" fill="#FFF3D1"/>
<path d="M34.6891 27.9998C34.5627 28.1662 34.4246 28.3223 34.2775 28.4694H34.2762C29.6493 27.0888 27.221 26.8746 27.1449 26.8682C27.1436 26.8682 27.1436 26.8682 27.1436 26.8682C27.0739 26.6734 27.0159 26.4721 26.9707 26.2656C26.9707 26.2656 29.5964 26.5095 34.6891 27.9998Z" fill="#E8B23A"/>
<path d="M32.3548 20.3494C34.7418 20.8862 36.2075 23.4138 35.6269 25.997C35.4566 26.7544 35.1301 27.433 34.6915 27.9995H34.6902C29.5975 26.5092 26.9718 26.2653 26.9718 26.2653C26.8182 25.566 26.8118 24.8125 26.9821 24.0551C27.5627 21.4733 29.9678 19.814 32.3548 20.3494Z" fill="#505EA5"/>
<path d="M24.5747 25.8434C24.6276 26.1776 24.656 26.5221 24.656 26.8717C24.656 27.3427 24.607 27.802 24.5102 28.2433C24.1283 27.4743 23.1348 26.8717 23.1348 26.8717C23.3567 26.2872 23.5399 25.6692 23.6547 25.0305C23.6547 25.0305 24.0109 24.9931 24.5747 25.8434Z" fill="#FFD578"/>
<path d="M23.2325 30.9292V30.9305C22.6377 31.6763 21.8803 32.2879 21.0158 32.7111C20.8739 31.9318 20.3242 31.4402 20.3242 31.4402C20.3242 31.4402 21.2622 30.4325 22.1616 28.8867C22.1603 28.888 23.1473 29.7641 23.2325 30.9292Z" fill="#FFD578"/>
<path d="M17.2184 21.1603C17.2184 21.1603 16.532 21.8467 15.723 23.0596C15.723 23.0596 14.6688 22.2402 13.4082 22.426C14.0495 21.7409 14.8391 21.1951 15.723 20.839C16.4778 20.8313 17.2184 21.1603 17.2184 21.1603Z" fill="#FFD578"/>
<path d="M14.7032 24.8072C14.2903 25.6265 13.9045 26.5619 13.6193 27.5955C13.6193 27.5955 12.6697 27.3077 11.6775 27.4561C11.6607 27.2639 11.6504 27.0677 11.6504 26.8716C11.6504 26.0187 11.8155 25.2046 12.1136 24.4588C13.2619 24.1362 14.7032 24.8072 14.7032 24.8072Z" fill="#FFD578"/>
<path d="M22.1616 22.9951C22.1616 22.9951 21.0261 28.2169 17.5256 30.9884C16.6005 30.6465 15.856 30.1497 15.2754 29.64C17.0663 24.3925 19.7772 21.6829 19.7772 21.6829V21.6816C20.8184 22.0352 21.5913 22.5113 22.1616 22.9951Z" fill="#FFD578"/>
<path d="M24.5753 25.8441C24.0114 24.9938 23.6566 25.0325 23.6566 25.0325C23.6566 25.0325 23.3547 24.0003 22.1637 22.9965C21.5934 22.5139 20.8206 22.0365 19.778 21.683C19.0593 21.4391 18.2155 21.252 17.222 21.163C17.222 21.163 16.4801 20.834 15.7266 20.8417C16.4775 20.5385 17.2955 20.3721 18.1549 20.3721C21.3947 20.3695 24.0824 22.741 24.5753 25.8441Z" fill="#FFF3D1"/>
<path d="M20.3238 31.44C20.3238 31.44 20.8735 31.9328 21.0154 32.7109C20.1522 33.1367 19.1794 33.3741 18.1523 33.3741C14.7576 33.3741 11.9719 30.7729 11.6777 27.4556C12.6687 27.3072 13.6196 27.5949 13.6196 27.5949C13.6196 27.5949 14.1305 28.6388 15.275 29.6387C15.8556 30.1484 16.6014 30.6451 17.5252 30.9871C18.3213 31.2838 19.2503 31.4645 20.3238 31.44Z" fill="#FFF3D1"/>
<path d="M23.135 26.873C23.135 26.873 24.1298 27.4756 24.5104 28.2446C24.2962 29.2459 23.8524 30.1594 23.2343 30.9297C23.1505 29.7645 22.1621 28.8872 22.1621 28.8872C22.5118 28.2872 22.8537 27.6072 23.135 26.873Z" fill="#FFF3D1"/>
<path d="M15.7235 23.0581C15.3919 23.5561 15.0383 24.1419 14.7029 24.8064C14.7029 24.8064 13.2616 24.1355 12.1133 24.458C12.4152 23.6994 12.8591 23.0103 13.4087 22.4246C14.6693 22.2401 15.7235 23.0581 15.7235 23.0581Z" fill="#FFF3D1"/>
<path d="M17.2183 21.1602C18.2106 21.2492 19.0557 21.4376 19.7744 21.6801V21.6814C19.7744 21.6814 17.0635 24.391 15.2726 29.6385C14.1281 28.6386 13.6172 27.5947 13.6172 27.5947C13.9023 26.5599 14.2881 25.6245 14.701 24.8065C15.0365 24.142 15.39 23.5549 15.7216 23.0581C16.5319 21.8466 17.2183 21.1602 17.2183 21.1602Z" fill="#FFF3D1"/>
<path d="M22.1613 22.9951C23.3523 24.0002 23.6542 25.0312 23.6542 25.0312C23.5394 25.6699 23.3561 26.2879 23.1342 26.8724C22.8529 27.6065 22.511 28.2865 22.1613 28.8878C21.262 30.4335 20.324 31.4412 20.324 31.4412C19.2505 31.4658 18.3215 31.2851 17.5254 30.9884C21.0259 28.2156 22.1613 22.9951 22.1613 22.9951Z" fill="#FFF3D1"/>
<path d="M45.2392 36.3011C44.7012 39.3552 42.4677 41.826 39.5453 42.7047L39.5401 42.6854C37.9801 41.7744 35.4796 39.6881 35.8809 35.8018C38.1698 36.0366 41.2071 36.2263 45.2392 36.3011Z" fill="#FF9045"/>
<path d="M33.5768 35.5157C33.2271 41.0509 34.7186 42.6418 34.7599 42.6844C32.7677 42.0664 31.102 40.709 30.084 38.931L30.0866 38.9297C31.1201 37.8072 31.6039 36.4872 31.7768 35.1982C32.2826 35.304 32.8761 35.4111 33.5768 35.5157Z" fill="#FF9045"/>
<path d="M30.9893 29.5423C30.9893 29.5423 32.1686 32.2945 31.7763 35.1989C29.4293 34.7047 29.0332 34.2363 29.0332 34.2363C29.1713 32.4493 29.8848 30.8223 30.988 29.541L30.9893 29.5423Z" fill="#FF9045"/>
<path d="M41.463 29.1898C39.6398 29.8555 36.3806 31.6039 35.8955 35.6695C35.8903 35.7147 35.8851 35.7585 35.8813 35.8024C35.0077 35.7121 34.2452 35.6153 33.5781 35.516C33.5833 35.4476 33.5872 35.3779 33.5923 35.3082C33.9988 29.5265 37.187 26.6982 37.187 26.6982C39.3069 26.6982 41.2385 27.5047 42.6913 28.8285C42.69 28.8285 42.1907 28.9227 41.463 29.1898Z" fill="#FF9045"/>
<path d="M29.0343 34.2354C29.0343 34.2354 29.4304 34.7037 31.7774 35.1979C31.6045 36.4869 31.1207 37.8068 30.0871 38.9294L30.0846 38.9307C29.4007 37.7359 29.0098 36.3501 29.0098 34.874C29.0098 34.6599 29.0175 34.447 29.0343 34.2354Z" fill="#F27521"/>
<path d="M41.4626 29.1904C42.1916 28.9233 42.6909 28.8291 42.6909 28.8291C44.3321 30.3245 45.3631 32.4793 45.3631 34.8753C45.3631 35.3618 45.3205 35.8392 45.2392 36.3024C41.2071 36.2275 38.1685 36.0379 35.8809 35.803C35.8847 35.7592 35.8899 35.7153 35.8951 35.6701C36.3789 31.6045 39.6381 29.8562 41.4626 29.1904Z" fill="#F27521"/>
<path d="M39.5408 42.6866L39.546 42.706C38.7989 42.9305 38.008 43.0518 37.1873 43.0518C36.3435 43.0518 35.5281 42.9241 34.7629 42.6866C34.7629 42.6866 34.7629 42.6866 34.7616 42.6854C34.7203 42.6428 33.2288 41.0519 33.5784 35.5166C34.2455 35.616 35.0081 35.7127 35.8816 35.803C35.4803 39.6893 37.9809 41.7757 39.5408 42.6866Z" fill="#F27521"/>
<path d="M37.1874 26.6982C37.1874 26.6982 33.9991 29.5265 33.5927 35.3082C33.5876 35.3779 33.5837 35.4476 33.5785 35.516C32.8779 35.4115 32.2831 35.3044 31.7786 35.1986C32.1708 32.2942 30.9915 29.542 30.9915 29.542L30.9902 29.5407C32.4908 27.8001 34.7114 26.6982 37.1874 26.6982Z" fill="#F27521"/>
<path d="M5.49867 35.4339C5.41351 35.6171 5.31803 35.7964 5.21351 35.9706C5.02643 36.2867 4.81224 36.5874 4.57612 36.8687C4.34903 37.1383 4.10259 37.3912 3.84067 37.6247C3.78518 37.6738 3.72841 37.7241 3.67035 37.7718C3.52197 37.897 3.36843 38.0209 3.21101 38.1396C2.94909 38.3396 2.67555 38.5305 2.3904 38.7021C2.17105 38.835 1.94526 38.9576 1.7143 39.0647C1.52205 39.155 1.32592 39.2337 1.12722 39.2995C0.940133 39.3615 0.749173 39.4131 0.556922 39.4518C0.40338 39.4815 0.247257 39.5034 0.0898438 39.5163C0.12081 39.1279 0.195646 38.7383 0.314351 38.3512C1.07045 35.8842 3.39294 34.3268 5.85736 34.4339C5.77091 34.7784 5.64834 35.1126 5.49867 35.4339Z" fill="#FFD578"/>
<path d="M10.666 39.4246C10.8363 39.4865 11.0015 39.5626 11.1589 39.6542C11.1976 40.2942 11.1228 40.9522 10.9241 41.6025C10.1331 44.1805 7.63516 45.7663 5.04945 45.4966V45.4953L5.05074 45.4876C4.91139 45.2101 4.81333 44.9198 4.75527 44.6244C4.71398 44.4128 4.69076 44.1986 4.68818 43.9831C4.68302 43.7096 4.70753 43.4347 4.75656 43.1625C4.81333 42.8541 4.90236 42.5496 5.02107 42.2567C5.15267 41.9316 5.31783 41.6193 5.51266 41.3316C5.68814 41.071 5.88813 40.8284 6.10619 40.6129C6.16038 40.5574 6.21715 40.5045 6.27521 40.4529C6.41972 40.3239 6.57585 40.2026 6.74358 40.0891C6.94615 39.951 7.1655 39.8271 7.39388 39.7175C7.63516 39.6013 7.88934 39.502 8.14869 39.4246C8.46222 39.3317 8.78479 39.2684 9.10607 39.2401C9.42606 39.213 9.74734 39.2207 10.057 39.2697C10.266 39.302 10.4699 39.3536 10.666 39.4246Z" fill="#FFD578"/>
<path d="M10.665 39.4244C10.4689 39.3534 10.265 39.3018 10.056 39.2695C9.74633 39.2205 9.42505 39.2128 9.10506 39.2399C8.78378 39.2682 8.46121 39.3315 8.14768 39.4244C7.88833 39.5018 7.63415 39.6011 7.39287 39.7173C7.16449 39.8269 6.94514 39.9508 6.74257 40.0889C6.57484 40.2024 6.41871 40.3237 6.2742 40.4527C6.21614 40.5043 6.15937 40.5572 6.10518 40.6127C5.88712 40.8282 5.68713 41.0708 5.51165 41.3314C5.31682 41.6191 5.15166 41.9314 5.02006 42.2565C4.90135 42.5494 4.81232 42.8539 4.75555 43.1623C4.70652 43.4345 4.68201 43.7094 4.68717 43.9829C4.68975 44.1984 4.71297 44.4126 4.75426 44.6242C4.81232 44.9196 4.91038 45.2099 5.04973 45.4874L5.04844 45.4951C4.6962 45.459 4.34395 45.388 3.993 45.2809C1.45116 44.5016 -0.125549 42.0617 0.089926 39.516C0.247339 39.5031 0.403462 39.4811 0.557005 39.4515C0.749255 39.4128 0.940216 39.3611 1.12731 39.2992C1.32601 39.2334 1.52213 39.1547 1.71438 39.0644C1.94534 38.9573 2.17114 38.8347 2.39048 38.7018C2.67563 38.5302 2.94917 38.3392 3.2111 38.1393C3.36851 38.0206 3.52205 37.8967 3.67043 37.7715C3.72849 37.7238 3.78527 37.6735 3.84075 37.6244C4.10267 37.3909 4.34912 37.138 4.5762 36.8683C4.81232 36.5871 5.02651 36.2864 5.2136 35.9703C5.31811 35.7961 5.41359 35.6168 5.49875 35.4336C5.64842 35.1123 5.771 34.7781 5.85744 34.4336C6.31807 34.4529 6.78386 34.5317 7.24449 34.6723C9.52311 35.3703 11.0276 37.4051 11.1579 39.654C11.0005 39.5624 10.8353 39.4863 10.665 39.4244Z" fill="#FFD578"/>
<path d="M20.8954 35.2159C20.8954 36.0804 20.7561 36.9126 20.4968 37.6906L19.502 36.163L19.7136 32.1734L20.12 31.8096C20.6167 32.8405 20.8954 33.9953 20.8954 35.2159Z" fill="#FFF3D1"/>
<path d="M15.9838 40.5088L18.0173 41.2881C16.6638 42.399 14.9323 43.0648 13.0446 43.0648C12.5711 43.0648 12.1066 43.0222 11.6562 42.9422L12.7491 41.5913L15.9838 40.5088Z" fill="#FFF3D1"/>
<path d="M17.142 28.5174L16.7278 30.4348L14.4479 31.6954L11.221 30.4593L10.75 27.7072C11.4764 27.4852 12.248 27.3652 13.0467 27.3652C14.5473 27.3652 15.9498 27.7859 17.142 28.5174Z" fill="#FFF3D1"/>
<path d="M14.2664 35.1475L16.1631 37.0584L15.9837 40.5098L12.749 41.5924L10.8652 38.6957L10.9285 36.0442L14.2664 35.1475Z" fill="#FFF3D1"/>
<path d="M6.49538 32.5559L5.91992 31.9172C6.85021 29.9095 8.60369 28.3612 10.7481 27.707L11.2191 30.4592L9.04496 33.1455L7.36632 33.5236L6.49538 32.5559Z" fill="#FFF3D1"/>
<path d="M9.04613 33.1455L10.9299 36.0435L10.8667 38.695L7.52878 39.5904L5.92755 36.9841C5.8811 36.717 5.85013 36.4473 5.83594 36.1751L7.36749 33.5236L9.04613 33.1455Z" fill="#FFF3D1"/>
<path d="M5.9264 36.9838L5.63867 36.5154L5.83479 36.1748C5.84899 36.4471 5.87995 36.7167 5.9264 36.9838Z" fill="#FFF3D1"/>
<path d="M5.92712 36.9843L7.52835 39.5906L7.46899 40.739C6.33485 39.5958 5.55165 38.1055 5.29102 36.4424L5.63939 36.5159L5.92712 36.9843Z" fill="#FFF3D1"/>
<path d="M19.7138 32.1726L19.5022 36.1621L16.1643 37.0575L14.2676 35.1466L14.4469 31.6952L16.7268 30.4346L19.7138 32.1726Z" fill="#FFF3D1"/>
<path d="M10.866 38.6953L12.7498 41.592L11.657 42.9429C10.0325 42.6526 8.58096 41.8642 7.46875 40.7391L7.5281 39.5908L10.866 38.6953Z" fill="#272B4F"/>
<path d="M20.4965 37.6908C20.0229 39.1165 19.1533 40.359 18.0178 41.2893L15.9844 40.51L16.1637 37.0585L19.5017 36.1631L20.4965 37.6908Z" fill="#272B4F"/>
<path d="M20.12 31.8091L19.7135 32.1729L16.7266 30.4349L17.1407 28.5176C18.4233 29.3034 19.4632 30.4465 20.12 31.8091Z" fill="#272B4F"/>
<path d="M5.92044 31.918L6.49591 32.5567C6.00818 33.7011 5.7669 34.9514 5.83529 36.1759L5.63917 36.5165L5.29079 36.443C5.22757 36.043 5.19531 35.6327 5.19531 35.2159C5.19531 34.0379 5.45466 32.9205 5.92044 31.918Z" fill="#272B4F"/>
<path d="M6.49625 32.5566L7.36719 33.5243L5.83563 36.1759C5.76725 34.9514 6.00853 33.7011 6.49625 32.5566Z" fill="#272B4F"/>
<path d="M14.446 31.696L14.2667 35.1475L10.9287 36.0443L9.04492 33.1463L11.219 30.46L14.446 31.696Z" fill="#272B4F"/>
<path d="M31.2836 34.5322V39.8649H25.0491H18.8145V34.5322H25.0491H31.2836Z" fill="#FF9045"/>
<path d="M32.1825 34.2305V40.1671C32.1825 40.4974 31.9141 40.7658 31.5825 40.7658H25.0473H18.5108C18.1805 40.7658 17.9121 40.4974 17.9121 40.1671V34.2305C17.9121 33.9002 18.1805 33.6318 18.5108 33.6318H20.6539H25.0473H29.4394H31.5825C31.9141 33.6318 32.1825 33.9002 32.1825 34.2305ZM31.2819 39.8651V34.5324H25.0473H18.8127V39.8651H25.0473H31.2819Z" fill="#3D4784"/>
<path d="M21.1866 18.3635C20.2859 18.6305 19.4744 18.7402 18.7467 18.7402C16.779 18.7402 15.4371 17.9467 14.7055 17.348C13.1972 16.1158 12.3675 14.183 12.5933 12.423C12.7262 11.3792 13.1701 10.5792 13.912 10.0438C14.6629 9.50186 15.5661 9.36251 16.2435 9.34961V10.6992C15.7726 10.7096 15.1674 10.8012 14.6978 11.1431C14.2681 11.4553 14.0191 11.9302 13.9326 12.5946C13.7662 13.903 14.4036 15.3584 15.5597 16.3016C16.5454 17.1067 17.797 17.4667 19.1957 17.3674C19.7273 17.7544 20.3814 18.0989 21.1866 18.3635Z" fill="#FFD578"/>
<path d="M37.5034 12.423C37.7292 14.183 36.8995 16.1158 35.3912 17.348C34.6583 17.9467 33.3164 18.7402 31.3501 18.7402C30.6223 18.7402 29.8095 18.6305 28.9102 18.3635C29.714 18.0989 30.3682 17.7544 30.901 17.3674C32.2997 17.4667 33.5513 17.1067 34.5357 16.3016C35.6918 15.3584 36.3305 13.903 36.1628 12.5946C36.0776 11.9302 35.8273 11.4553 35.3989 11.1431C34.9293 10.8012 34.3228 10.7096 33.8519 10.6992V9.34961C34.5293 9.36251 35.4338 9.50186 36.1847 10.0438C36.9253 10.5792 37.3692 11.3792 37.5034 12.423Z" fill="#FFD578"/>
<path d="M33.8525 10.6985V12.5216C33.8525 12.7552 33.6628 12.9461 33.4293 12.9461H33.2164H25.049H16.8802H16.6686C16.4338 12.9461 16.2441 12.7552 16.2441 12.5216V10.6985V9.34886V9.15661C16.2441 8.92307 16.4338 8.7334 16.6686 8.7334H25.049H33.4293C33.6628 8.7334 33.8525 8.92307 33.8525 9.15661V9.34886V10.6985Z" fill="#E8B23A"/>
<path d="M28.1138 32.2107H25.0481H21.9824C21.9824 32.2107 22.0534 30.9424 23.6856 30.474C24.0546 30.3682 24.5023 30.3037 25.0481 30.3037C25.5939 30.3037 26.0416 30.3682 26.4106 30.474C28.0428 30.9424 28.1138 32.2107 28.1138 32.2107Z" fill="#E8B23A"/>
<path d="M28.0774 18.5938C28.0774 18.5938 28.5032 20.5163 26.422 21.0982C26.0491 21.2027 25.5975 21.2646 25.0479 21.2646C24.4982 21.2646 24.0466 21.2027 23.6737 21.0982C21.5925 20.5163 22.0183 18.5938 22.0183 18.5938C22.8764 18.7925 23.8789 18.9073 25.0479 18.9073C26.2169 18.9073 27.2194 18.7925 28.0774 18.5938Z" fill="#E8B23A"/>
<path d="M29.4417 33.6315H25.0496H20.6562V32.2109H21.9839H25.0496H28.1153H29.4417V33.6315Z" fill="#FFCC4D"/>
<path d="M26.4221 21.0977V30.4315L26.4105 30.4741C26.0415 30.3683 25.5938 30.3037 25.048 30.3037C24.5022 30.3037 24.0545 30.3683 23.6854 30.4741L23.6738 30.4315V21.0977C24.0467 21.2022 24.4983 21.2641 25.048 21.2641C25.5976 21.2641 26.0492 21.2022 26.4221 21.0977Z" fill="#FFCC4D"/>
<path d="M30.9011 17.3668C30.3682 17.7538 29.714 18.0983 28.9102 18.3629H28.9089C28.6483 18.4493 28.3721 18.5267 28.078 18.5938C27.2199 18.7925 26.2174 18.9073 25.0484 18.9073C23.8794 18.9073 22.8769 18.7925 22.0188 18.5938C21.7247 18.5267 21.4485 18.4493 21.1879 18.3629H21.1866C20.3815 18.0983 19.7273 17.7538 19.1957 17.3668C16.7687 15.6004 16.8797 12.9463 16.8797 12.9463H25.0484H33.2158C33.2158 12.9463 33.3268 15.6004 30.9011 17.3668Z" fill="#FFCC4D"/>
<path d="M20.6735 42.7876C20.9909 43.4211 20.6567 43.5889 20.1935 43.8211C19.7316 44.0521 19.3974 44.2198 19.08 43.5863C19.0632 43.554 19.0374 43.5011 19 43.4276L20.5935 42.6289C20.6309 42.7025 20.658 42.7554 20.6735 42.7876Z" fill="#F27521"/>
<path d="M19.6246 40.6989L19.6143 40.7041L18.0311 41.4976C17.8492 41.1337 17.6505 40.7389 17.4453 40.3273L17.5047 40.2976L19.0375 39.5273C19.244 39.9389 19.4427 40.3338 19.6246 40.6989Z" fill="#F27521"/>
<path d="M17.8482 37.1557L17.8379 37.1608L16.2547 37.9543C16.0935 37.6305 15.9322 37.3105 15.7773 37.0021L17.3592 36.2073L17.3708 36.2021C17.5257 36.5105 17.6857 36.8305 17.8482 37.1557Z" fill="#F27521"/>
<path d="M16.4722 34.4081L14.8787 35.2081C14.8193 35.0906 14.7638 34.9784 14.7109 34.8739L16.3044 34.0752C16.3573 34.1797 16.4128 34.2907 16.4722 34.4081Z" fill="#F27521"/>
<path d="M20.5937 42.6285L19.0002 43.4272C18.8364 43.102 18.4803 42.3911 18.0312 41.4969L19.6144 40.7034L19.6247 40.6982C20.075 41.5924 20.4312 42.3033 20.5937 42.6285Z" fill="#E8B23A"/>
<path d="M19.039 39.5275L17.5061 40.2977L17.4468 40.3274C17.0649 39.5662 16.6533 38.7468 16.2559 37.9559L17.839 37.1624L17.8493 37.1572C18.2468 37.9469 18.6571 38.7662 19.039 39.5275Z" fill="#E8B23A"/>
<path d="M17.3717 36.203L17.3601 36.2081L15.7782 37.0029C15.444 36.3346 15.1331 35.7153 14.8789 35.2082L16.4724 34.4082C16.7266 34.9153 17.0362 35.5346 17.3717 36.203Z" fill="#E8B23A"/>
<path d="M16.3043 34.076L14.7108 34.8747C14.3998 34.2554 14.2063 33.8683 14.2063 33.8683L8.14844 29.6207V29.6194C8.91099 29.9743 9.70451 30.182 10.4903 30.2246C10.5742 30.2865 13.2992 32.2619 13.7676 32.5729C14.454 33.0296 14.9391 32.778 14.983 31.9626C15.0127 31.4181 15.0566 28.2389 15.0604 27.9498C15.5069 27.2853 15.8217 26.5112 15.9972 25.6699L16.0165 25.6738L15.7998 33.0696C15.7998 33.0696 15.9933 33.4567 16.3043 34.076Z" fill="#FFCC4D"/>
<path d="M10.4899 30.224C9.70413 30.1814 8.91061 29.9737 8.14806 29.6189C6.49522 28.8537 4.98431 27.4048 4.00629 25.4564C2.05926 21.574 2.97149 17.1768 6.04363 15.6349C9.11705 14.0943 13.1866 15.9923 15.1349 19.876C16.109 21.8192 16.3671 23.8913 15.9968 25.6693C15.8213 26.5106 15.5065 27.2848 15.06 27.9493C14.5633 28.6886 13.904 29.2924 13.0963 29.6976C12.2782 30.1079 11.3892 30.2743 10.4899 30.224ZM15.4639 23.1507C15.4562 23.0746 15.4458 22.9985 15.4342 22.9224C15.3955 22.6488 15.3426 22.374 15.2742 22.0992C15.1942 21.7676 15.0923 21.4347 14.9697 21.1044C14.8523 20.7882 14.7168 20.4747 14.5607 20.1638C14.4046 19.8528 14.2343 19.5547 14.0498 19.2722C13.8588 18.9767 13.6537 18.6967 13.4369 18.4335H13.4356C13.2562 18.2154 13.0679 18.0077 12.873 17.8155C12.8176 17.7587 12.7621 17.7045 12.7053 17.6529C12.4279 17.3897 12.1376 17.1523 11.8382 16.9407C11.5789 16.7574 11.3131 16.5949 11.0421 16.4529C10.957 16.4065 10.8705 16.3626 10.7841 16.3226C10.4009 16.1394 10.0099 15.9988 9.61768 15.9007C9.54413 15.8826 9.47059 15.8659 9.39704 15.8517C9.06028 15.7807 8.72352 15.7433 8.39063 15.742C8.02161 15.7368 7.65776 15.7755 7.30293 15.8581C6.97004 15.9355 6.64489 16.0517 6.33136 16.2091C6.01782 16.3665 5.73138 16.5574 5.46945 16.7794C5.19076 17.0129 4.94173 17.2826 4.72497 17.5793C4.52756 17.849 4.35466 18.1406 4.21015 18.4529C4.17789 18.5199 4.14822 18.5883 4.11983 18.658C3.96242 19.0322 3.84113 19.4309 3.75855 19.8463C3.7392 19.9392 3.72372 20.0334 3.70952 20.1276C3.66049 20.4308 3.63211 20.7431 3.62436 21.0618C3.61533 21.4269 3.63211 21.7998 3.67469 22.1779C3.68372 22.254 3.69404 22.3314 3.70565 22.4075C3.74307 22.6811 3.79726 22.9572 3.86565 23.2333C3.94564 23.5649 4.04628 23.8978 4.17015 24.2281C4.28627 24.5442 4.42304 24.8591 4.57917 25.17C4.73529 25.481 4.90561 25.7777 5.09011 26.0603C5.27978 26.3558 5.48623 26.637 5.70428 26.899C5.88363 27.1183 6.0733 27.3261 6.27071 27.5209V27.5222C6.3249 27.5764 6.3791 27.6293 6.43458 27.6809C6.71199 27.9428 7.00359 28.1802 7.30293 28.3918C7.56228 28.575 7.82936 28.7389 8.10032 28.8808V28.8821C8.18548 28.9273 8.27064 28.9699 8.35579 29.0112C8.739 29.1931 9.12996 29.3337 9.52349 29.4318C9.55317 29.4395 9.58284 29.4473 9.61381 29.4524C9.99315 29.5415 10.3725 29.5879 10.7492 29.5905C11.1183 29.5956 11.4821 29.5569 11.8382 29.4744C12.1711 29.3969 12.4963 29.2808 12.8098 29.1234C13.1221 28.9673 13.4098 28.7763 13.6704 28.5544C13.9491 28.3209 14.1981 28.0512 14.4162 27.7531C14.6394 27.4486 14.8291 27.1144 14.9852 26.757C15.0059 26.7132 15.0239 26.6693 15.0407 26.6254C15.1891 26.2667 15.3026 25.8848 15.3813 25.4874C15.402 25.3842 15.42 25.2797 15.4355 25.1739C15.4807 24.881 15.5078 24.5804 15.5155 24.2733C15.5245 23.9055 15.5078 23.5301 15.4639 23.1507Z" fill="#F27521"/>
<path d="M23.9063 38.9093H23.3222V36.5752H23.0312V35.9912H23.9063V38.9093Z" fill="#FFF3D1"/>
<path d="M24.299 36.8662C24.299 36.7455 24.3221 36.6322 24.3682 36.5264C24.4143 36.4206 24.4767 36.3283 24.5554 36.2496C24.6355 36.1696 24.7284 36.1065 24.8342 36.0604C24.94 36.0143 25.0533 35.9912 25.174 35.9912H26.513V36.5752H25.174C25.1333 36.5752 25.0954 36.5827 25.0601 36.5976C25.0248 36.6125 24.9936 36.6336 24.9665 36.6607C24.9407 36.6865 24.9203 36.717 24.9054 36.7523C24.8905 36.7875 24.883 36.8255 24.883 36.8662C24.883 36.9069 24.8905 36.9456 24.9054 36.9822C24.9203 37.0175 24.9407 37.0487 24.9665 37.0758C24.9936 37.1016 25.0248 37.122 25.0601 37.1369C25.0954 37.1518 25.1333 37.1593 25.174 37.1593H25.7581C25.8788 37.1593 25.9921 37.1823 26.0979 37.2285C26.2051 37.2732 26.298 37.3356 26.3767 37.4157C26.4567 37.4943 26.5191 37.5873 26.5639 37.6945C26.61 37.8003 26.6331 37.9135 26.6331 38.0343C26.6331 38.155 26.61 38.2683 26.5639 38.3741C26.5191 38.4799 26.4567 38.5729 26.3767 38.6529C26.298 38.7316 26.2051 38.794 26.0979 38.8401C25.9921 38.8862 25.8788 38.9093 25.7581 38.9093H24.4618V38.3253H25.7581C25.7988 38.3253 25.8367 38.3178 25.872 38.3029C25.9073 38.288 25.9378 38.2676 25.9636 38.2418C25.9907 38.2147 26.0118 38.1835 26.0267 38.1482C26.0416 38.113 26.0491 38.075 26.0491 38.0343C26.0491 37.9936 26.0416 37.9556 26.0267 37.9203C26.0118 37.8851 25.9907 37.8545 25.9636 37.8288C25.9378 37.8016 25.9073 37.7806 25.872 37.7657C25.8367 37.7508 25.7988 37.7433 25.7581 37.7433H25.174C25.0533 37.7433 24.94 37.7202 24.8342 37.6741C24.7284 37.628 24.6355 37.5656 24.5554 37.4869C24.4767 37.4068 24.4143 37.3139 24.3682 37.2081C24.3221 37.1009 24.299 36.987 24.299 36.8662Z" fill="#FFF3D1"/>
<path d="M28.202 38.9093H27.62V36.5752H26.743V35.9912H29.077V36.5752H28.202V38.9093Z" fill="#FFF3D1"/>
<path d="M19.2181 8.72852C19.2336 10.0949 19.329 11.5697 19.4748 12.9284C19.3277 12.9284 19.1703 12.9296 19.0232 12.9296C19.0542 12.9296 19.3123 13.9915 19.3703 14.1167C19.5961 14.6057 19.978 15.0418 20.3754 15.3979C21.1935 16.1321 22.2231 16.6121 23.267 16.9282C26.032 17.7643 29.0758 17.6495 31.7698 16.6056C30.7776 17.5553 29.4615 18.2185 28.1287 18.5514C26.7958 18.8842 25.4127 18.9617 24.0398 18.9642C24.0024 19.8016 24.2643 20.6584 24.7946 21.3074C24.6579 21.2648 24.5005 21.208 24.3572 21.208C24.3572 21.2364 24.3005 21.2945 24.3005 21.3229V30.2786C23.8334 30.7664 23.6127 31.5883 23.7211 32.254C23.7018 32.254 23.6682 32.2566 23.6489 32.2566H22.685V33.6166H21.3251C21.3251 33.6256 21.3251 33.6346 21.3251 33.645V40.6434L19.6245 40.6989L17.9136 37.3674C17.9136 37.3674 17.8478 35.2694 17.8478 34.5275C17.8478 33.7856 18.1794 33.6269 18.8168 33.6269C19.4555 33.6269 20.6541 33.6269 20.6541 33.6269V32.2063H21.9818C21.9818 32.2063 22.1947 30.6386 23.685 30.4696L23.6734 21.0932C23.6734 21.0932 21.8335 20.5913 22.018 18.5888C22.018 18.5888 17.2194 17.7901 16.8788 12.9413C16.8788 12.9413 16.8569 12.9413 16.5433 12.9413C16.0853 12.9413 16.2427 11.6845 16.2427 10.6936C16.2427 9.0885 15.973 8.72852 16.8775 8.72852C17.7846 8.72852 19.2181 8.72852 19.2181 8.72852Z" fill="black"/>
</svg>
