<svg width="18" height="17" viewBox="0 0 18 17" fill="none" xmlns="http://www.w3.org/2000/svg">
<mask id="path-1-inside-1_1571_9880" fill="white">
<path d="M7.22858 4.8695C7.11616 4.91674 7.06316 4.90539 6.9394 4.84021C6.81563 4.77502 6.75603 4.6389 6.66156 4.62755C6.56708 4.61621 6.34867 4.62755 6.17682 4.62755C6.00581 4.62755 5.84039 4.6692 5.82329 4.55661C5.80535 4.44419 5.79299 4.39695 5.72222 4.32025C5.65127 4.24372 5.45673 4.14925 5.39138 4.08965C5.32619 4.03107 5.16738 3.85346 5.16738 3.85346C5.16738 3.85346 5.22037 3.75898 5.06054 3.80622C4.90071 3.85346 4.84789 3.87141 4.8186 3.85346C4.78931 3.83551 4.8423 3.78827 4.76577 3.70599C4.68924 3.6237 4.57022 3.59357 4.52941 3.53498C4.48776 3.47539 4.35841 3.36296 4.45847 3.29304C4.5587 3.22125 4.64183 3.2099 4.67671 3.16267C4.71176 3.11543 4.77119 3.05025 4.67671 3.00961C4.58224 2.96796 4.64928 3.04449 4.42054 2.92648C4.1918 2.8083 4.17487 2.79611 4.13322 2.74311C4.09157 2.69012 4.00285 2.59006 3.94986 2.47188C3.89686 2.3537 3.82033 2.20623 3.73161 2.20623C3.64273 2.20623 3.54825 2.19962 3.40078 2.33575C3.25331 2.47188 3.10499 2.57211 3.05776 2.62493C3.01052 2.67877 2.92823 2.8083 2.84612 2.76106C2.76298 2.71382 2.6741 2.69587 2.72709 2.59564C2.78093 2.49541 2.85187 2.44258 2.78669 2.43581C2.7215 2.43022 2.66292 2.44241 2.56269 2.45376C2.46161 2.4651 2.35579 2.59547 2.33208 2.4651C2.30838 2.33558 2.16006 2.24669 2.21966 1.98121C2.27926 1.71573 2.24895 1.50866 2.42673 1.41977C2.60349 1.33088 2.75181 1.29601 2.7215 1.18917C2.69221 1.08335 2.53814 0.970757 2.43232 0.917932C2.33209 0.867816 2.08083 0.693933 2.05611 0.677002C2.05526 0.67988 2.05052 0.691225 2.03258 0.723225C2.01361 0.754378 1.98347 0.80551 1.93048 0.888642C1.7764 1.13059 1.67058 1.31954 1.49856 1.45567C1.32756 1.59179 1.10915 1.73351 1.06191 1.87522C1.01467 2.01694 0.925781 2.80237 0.925781 2.82032C0.925781 2.83725 1.14504 3.04432 1.0912 3.26832C1.0382 3.49333 0.920028 3.54057 0.978779 3.74747C1.03838 3.95437 1.1508 4.10184 1.15638 4.20207C1.16112 4.28622 1.1044 4.33244 1.12709 4.44961C1.13183 4.4723 1.13928 4.49786 1.15063 4.52715C1.22157 4.70391 1.30944 4.80499 1.33958 4.82209C1.36887 4.84004 1.38682 4.98175 1.35093 5.06404C1.33484 5.10281 1.33873 5.16241 1.35465 5.22099C1.37259 5.28906 1.40764 5.35525 1.4454 5.38353C1.51634 5.43652 1.66466 5.5073 1.69954 5.59618C1.73458 5.68507 1.69395 5.87403 1.7119 5.93261C1.72883 5.9922 1.80637 6.00914 1.81772 6.06873C1.82906 6.12833 1.78182 6.28698 1.75253 6.33438C1.72324 6.38162 1.57577 6.5357 1.68159 6.59428C1.78843 6.65388 1.84701 6.65388 1.82906 6.71246C1.81196 6.77206 1.72324 6.83064 1.67025 6.88448C1.62013 6.9346 1.34703 7.03754 1.30352 7.0631C1.35838 7.15859 1.4112 7.2871 1.37057 7.37599C1.29776 7.53379 1.25899 7.65197 1.3025 7.75407C1.345 7.85718 1.37615 7.91948 1.48688 7.99042C1.59744 8.06137 1.58136 8.21155 1.69954 8.29011C1.81772 8.3685 1.91219 8.37713 1.91219 8.37713C1.91219 8.37713 2.0578 8.5737 2.03223 8.62094C2.00667 8.66818 2.00667 8.7315 1.87257 8.77027C1.80824 8.78924 1.72324 8.78162 1.67787 8.83918C1.64011 8.8893 1.64113 8.96295 1.67126 9.01595C1.67888 9.02915 1.68921 9.04236 1.70157 9.04998C1.72138 9.06132 1.74508 9.0603 1.76777 9.05844C1.84531 9.05472 1.92286 9.04998 2.00024 9.04523C2.03799 9.04236 2.07778 9.04151 2.10978 9.0603C2.17209 9.09721 2.16836 9.19728 2.11638 9.24739C2.06441 9.29751 1.985 9.30598 1.91321 9.29565C1.87071 9.28989 1.82821 9.2777 1.78555 9.27956C1.72324 9.28143 1.66263 9.31444 1.62775 9.36557C1.6098 9.39114 1.59761 9.42128 1.57475 9.4421C1.54072 9.47326 1.49247 9.48087 1.45098 9.49882C1.40459 9.51965 1.36497 9.55656 1.34889 9.60464C1.33281 9.65188 1.34415 9.70961 1.38191 9.74263C1.40747 9.7643 1.4415 9.77378 1.47452 9.77853C1.60404 9.79749 1.74102 9.75872 1.84125 9.67558C1.93962 9.5933 2.00481 9.47139 2.12011 9.41671C2.13721 9.40824 2.156 9.40164 2.17496 9.40248C2.19392 9.40248 2.21188 9.4101 2.22881 9.41772C2.27706 9.43939 2.32244 9.46784 2.37255 9.48663C2.42267 9.50458 2.47939 9.5122 2.52849 9.49137C2.54457 9.48375 2.56066 9.47444 2.57674 9.46682C2.68171 9.42246 2.80362 9.50458 2.91502 9.47715C2.98021 9.46107 3.03033 9.4101 3.06334 9.35338C3.10398 9.28532 3.12853 9.27025 3.21539 9.27872C3.22385 9.27956 3.23248 9.28058 3.23993 9.28532C3.255 9.29277 3.26161 9.31173 3.26262 9.32883C3.26635 9.37421 3.2418 9.41671 3.22673 9.46022C3.223 9.47055 3.22097 9.48189 3.21911 9.49323C3.21437 9.52913 3.22199 9.56706 3.25128 9.58585C3.27109 9.59804 3.29564 9.59804 3.31833 9.59618C3.40908 9.58585 3.49695 9.53201 3.58669 9.5508C3.69166 9.57247 3.75024 9.6832 3.83523 9.74923C3.93445 9.82678 4.08006 9.841 4.1935 9.78411C4.1935 9.78411 4.27105 9.56587 4.44019 9.69522C4.60933 9.82559 4.7077 9.93141 4.7673 9.94005C4.82588 9.94767 4.94406 9.91651 4.9874 9.94005C5.03092 9.96375 5.03092 10.0543 5.01957 10.1451C5.00721 10.2348 5.00721 10.3181 5.0895 10.3767C5.17263 10.4363 5.23595 10.4287 5.25966 10.5184C5.28336 10.6092 5.32196 10.767 5.2947 10.7944C5.26728 10.8218 5.11794 11.0108 5.03854 11.1053C4.96014 11.1997 4.88548 11.2073 4.90901 11.2905C4.93254 11.3736 5.01111 11.3728 4.96759 11.4757C4.9251 11.5778 4.89665 11.59 4.79456 11.7082C4.69246 11.8263 4.7038 12.0106 4.66893 12.0702C4.63303 12.1298 4.60561 12.1211 4.50351 12.1883C4.40057 12.2554 4.41648 12.3461 4.47134 12.4245C4.52704 12.5029 4.71616 12.4955 4.56971 12.5862C4.4241 12.677 4.29085 12.7195 4.14067 12.7279C3.99134 12.7356 3.86944 12.7195 3.7985 12.7515C3.72755 12.7826 3.62461 12.7911 3.57365 12.8971C3.52252 13.0029 3.47155 13.1446 3.44802 13.1881C3.42432 13.2316 3.37708 13.2438 3.44429 13.3894C3.51134 13.535 3.56992 13.5662 3.58973 13.6332C3.60954 13.7003 3.62089 13.8346 3.55011 13.8781C3.47917 13.9206 3.43583 14.0037 3.44802 14.0311C3.46038 14.0586 3.46038 14.1369 3.41687 14.1965C3.37335 14.2561 3.20421 14.342 3.14089 14.4055C3.07757 14.4678 3.05386 14.587 3.10974 14.6493C3.16459 14.7126 3.24485 14.8034 3.26195 14.8421C3.27905 14.8819 3.33373 14.9838 3.33763 15.0397C3.34135 15.0946 3.37352 15.1381 3.3141 15.24C3.25551 15.343 3.20455 15.3345 3.24315 15.4092C3.28277 15.4848 3.41704 15.5197 3.4321 15.5944C3.44819 15.669 3.42449 15.7759 3.46427 15.8382C3.50305 15.9015 3.48324 15.9648 3.5899 15.91C3.69674 15.8543 3.76294 15.8467 3.78275 15.791C3.80256 15.7361 3.90465 15.6738 3.92446 15.6965C3.94427 15.721 4.01894 15.7994 4.06618 15.8627C4.11341 15.925 4.15693 15.9572 4.24379 16.0319C4.3298 16.1066 4.36569 16.1264 4.47151 16.1103C4.57835 16.0942 4.68417 16.1066 4.71159 16.0744C4.73987 16.0432 4.96014 15.838 4.96776 15.7794C4.97623 15.7209 5.00365 15.6066 4.95269 15.5829C4.90071 15.5592 4.80234 15.5433 4.78728 15.5319C4.77119 15.5197 4.70025 15.5082 4.72395 15.4412C4.74749 15.3741 4.78355 15.3382 4.759 15.2522C4.73631 15.1652 4.77881 15.1066 4.64946 15.1218C4.51909 15.1379 4.4368 15.1965 4.4009 15.1852C4.36603 15.1728 4.34994 15.153 4.34994 15.0311C4.34994 14.9092 4.39718 14.8071 4.41326 14.74C4.42833 14.673 4.46423 14.6097 4.4009 14.5472C4.3386 14.4839 4.27528 14.4678 4.20806 14.3855C4.14101 14.3032 4.03892 14.1889 4.0313 14.1454C4.02283 14.1019 4.10596 13.9602 4.10596 13.9441C4.10596 13.929 3.9717 13.8259 3.9717 13.7712C3.9717 13.7164 3.92074 13.5586 3.88569 13.5151C3.84979 13.4716 3.71181 13.3894 3.77886 13.3061C3.8459 13.2238 3.99151 13.0972 4.05856 13.0972C4.1256 13.0972 4.2277 13.1407 4.25885 13.1492C4.29102 13.1568 4.36941 13.1255 4.40531 13.0782C4.44018 13.031 4.46016 12.9912 4.49504 12.9403C4.53094 12.8893 4.54228 12.8297 4.6415 12.806C4.73987 12.7823 4.88158 12.7909 4.90055 12.893C4.92036 12.9951 4.95252 13.1331 4.86939 13.188C4.7871 13.2437 4.71634 13.2589 4.71159 13.3222C4.70787 13.3855 4.6889 13.4206 4.7314 13.4753C4.77491 13.531 4.87786 13.5943 4.94778 13.6056C5.01957 13.617 5.26998 13.6217 5.30402 13.6566C5.33805 13.6925 5.35413 13.7474 5.43252 13.7474C5.51091 13.7474 5.56679 13.7709 5.55815 13.6803C5.55053 13.5896 5.37394 13.4091 5.51091 13.342C5.6489 13.275 5.69987 13.2315 5.74711 13.275C5.79434 13.3185 5.77927 13.413 5.83396 13.4479C5.88882 13.4837 5.94452 13.4988 6.01919 13.4914C6.09385 13.4837 6.17225 13.4054 6.17614 13.4837C6.18088 13.5621 6.18088 13.5782 6.12518 13.6255C6.07032 13.6727 5.98719 13.7199 5.98719 13.7436C5.98719 13.7673 5.95976 13.8107 6.07032 13.8146C6.18088 13.8183 6.18478 13.8457 6.27925 13.7948C6.37373 13.7438 6.42096 13.7164 6.45974 13.7475C6.49935 13.7787 6.61381 13.8383 6.6685 13.842C6.7242 13.8457 6.77906 13.8344 6.83392 13.8183C6.88962 13.8022 6.94837 13.7673 6.94837 13.704C6.94837 13.6417 6.83019 13.6644 6.94837 13.566C7.06655 13.4678 7.14968 13.428 7.17711 13.428C7.20454 13.428 7.22435 13.3458 7.33491 13.342C7.44445 13.3383 7.46816 13.3618 7.51912 13.3185C7.5711 13.275 7.5711 13.2636 7.64103 13.2079C7.71282 13.1531 7.82253 13.0898 7.86215 13.1096C7.90177 13.1294 8.0191 13.275 7.97643 13.3459C7.93292 13.4169 7.85453 13.4367 7.93292 13.5C8.01131 13.5623 8.08598 13.5623 8.11815 13.5945C8.1493 13.6256 8.17673 13.7438 8.09834 13.8147C8.01893 13.8857 7.89702 13.8818 8.04348 13.9527C8.18909 14.0237 8.2751 14.0311 8.36196 14.015C8.44898 14 8.53499 13.9725 8.62947 13.948C8.72394 13.9253 8.8147 13.9055 8.86193 13.8818C8.90917 13.8583 8.90172 13.8657 8.94507 13.8147C8.98858 13.7638 9.04344 13.7079 9.08306 13.6805C9.12183 13.6531 9.22866 13.5945 9.26743 13.6454C9.30705 13.6964 9.31941 13.7399 9.31941 13.7948C9.31941 13.8496 9.32314 13.8694 9.24373 13.9526C9.16534 14.0349 9.12555 14.0745 9.12555 14.1331C9.12555 14.1927 9.11421 14.1766 9.14163 14.2162C9.16906 14.2558 9.35802 14.271 9.55933 14.2785C9.75962 14.287 9.8778 14.3257 9.93368 14.2832C9.98853 14.2397 10.0083 14.1888 10.0197 14.1292C10.032 14.0706 9.98853 13.9836 10.0197 13.9202C10.0508 13.8579 10.0593 13.7748 10.1501 13.7633C10.2398 13.7509 10.288 13.8456 10.339 13.8578C10.39 13.8691 10.3229 13.9201 10.4883 13.8654C10.6538 13.8105 10.6538 13.7311 10.7047 13.7C10.7557 13.6688 10.8153 13.6092 10.8541 13.6641C10.8937 13.7198 10.9258 13.8379 10.9297 13.8891C10.9335 13.94 10.9487 13.9836 10.992 13.9996C11.0356 14.0147 11.0913 14.0073 11.2008 14.0147C11.3114 14.0232 11.3823 14.0545 11.4058 14.0818C11.4294 14.1092 11.5987 14.0978 11.6061 14.1999C11.6146 14.3029 11.555 14.4448 11.6571 14.4996C11.7602 14.5545 11.8858 14.5667 11.9729 14.5667C12.0597 14.5667 12.2204 14.5865 12.2676 14.6337C12.3149 14.6809 12.3621 14.7868 12.4217 14.8851C12.4803 14.9835 12.6069 15.078 12.6967 15.0467C12.7874 15.0155 12.8035 14.9087 12.8943 14.9087C12.985 14.9087 12.9887 14.9361 13.0671 14.9522C13.1465 14.9683 13.2996 14.972 13.3307 14.9446C13.3629 14.9171 13.3978 14.8303 13.4885 14.9011C13.5793 14.972 13.6661 15.0504 13.6616 15.1251C13.6579 15.2007 13.6814 15.2234 13.5671 15.2754C13.4528 15.3264 13.327 15.4324 13.4415 15.5825C13.5559 15.7319 13.6428 15.8622 13.6267 15.9681C13.6106 16.0739 13.5558 16.0862 13.5397 16.1807C13.5246 16.2752 13.5434 16.3102 13.5906 16.4047C13.6379 16.4992 13.7012 16.539 13.7173 16.6533C13.7183 16.6627 13.7202 16.6731 13.721 16.6844C13.755 16.6768 13.7872 16.6759 13.8013 16.6947C13.8306 16.7335 13.9081 16.8451 13.9609 16.8961C13.9723 16.9064 13.9818 16.915 13.9902 16.9187C14.0375 16.9424 14.3097 17.0256 14.4155 16.9367C14.5224 16.8478 14.5933 16.8299 14.6405 16.7533C14.6878 16.6768 14.735 16.6003 14.7587 16.4878C14.7785 16.3942 14.7492 16.3121 14.789 16.2469C14.7966 16.2337 14.807 16.2213 14.8212 16.21C14.9062 16.1391 14.9423 16.1685 14.9478 16.0446C14.9534 15.9208 14.9649 15.743 14.9649 15.6731C14.9649 15.6013 14.9478 15.4481 14.9895 15.3773C15.0301 15.3064 15.0481 15.2705 15.1246 15.2591C15.1803 15.2507 15.1955 15.261 15.2787 15.2222C15.2768 15.2212 15.275 15.2194 15.2739 15.2185C15.2607 15.2034 15.2655 15.1808 15.2721 15.1618C15.2834 15.1296 15.2985 15.0975 15.3051 15.0636C15.3127 15.0296 15.3098 14.9918 15.289 14.9644C15.2766 14.9483 15.2587 14.9369 15.2455 14.9219C15.2152 14.8897 15.2059 14.8443 15.1964 14.8008C15.1916 14.78 15.1861 14.7593 15.1747 14.7412C15.1341 14.6798 15.0444 14.6826 14.9819 14.643C14.9196 14.6034 14.894 14.5248 14.8874 14.4512C14.8798 14.3774 14.8874 14.3029 14.8705 14.2309C14.8628 14.2016 14.8525 14.1742 14.8449 14.1459C14.7882 13.9314 14.8364 13.6678 14.9697 13.4919C15.0056 13.4446 15.0481 13.4001 15.1011 13.3728C15.1473 13.3491 15.1994 13.3398 15.2485 13.3237C15.4111 13.2718 15.5396 13.1488 15.6728 13.044C15.7003 13.0224 15.7285 13.0015 15.7626 12.9939C15.8098 12.9836 15.8609 13.0015 15.9063 12.9855C15.9536 12.9704 15.9828 12.924 16.015 12.8862C16.1237 12.7586 16.3042 12.702 16.3931 12.5593C16.4356 12.4912 16.4527 12.4081 16.5018 12.3438C16.55 12.2796 16.653 12.2417 16.7097 12.2994C16.7559 12.3458 16.7532 12.4355 16.8126 12.4611C16.859 12.4801 16.911 12.446 16.9364 12.4035C16.962 12.361 16.9723 12.3099 16.9979 12.2674C17.0243 12.2249 17.0763 12.1909 17.1216 12.2107C17.1594 12.2268 17.1755 12.2721 17.2105 12.2938C17.2351 12.3099 17.2672 12.3118 17.2974 12.3128C17.3881 12.3157 17.4818 12.3185 17.5639 12.2798C17.6452 12.241 17.7085 12.1474 17.6821 12.0614C17.6594 11.9867 17.5828 11.945 17.5111 11.9139C17.4496 11.8875 17.3863 11.8629 17.3221 11.8411C17.2786 11.826 17.2332 11.8118 17.1965 11.7835C17.1614 11.7551 17.1379 11.7155 17.1076 11.6833C17.0387 11.6105 16.9318 11.5756 16.8335 11.5935C16.7966 11.6002 16.7588 11.6134 16.7219 11.6049C16.652 11.5869 16.6274 11.5009 16.5754 11.45C16.5055 11.3809 16.3817 11.3753 16.3364 11.2883C16.2986 11.2173 16.3354 11.1305 16.3751 11.0606C16.4082 11.0001 16.4488 10.9368 16.514 10.916C16.5897 10.8933 16.6823 10.9331 16.7427 10.8829C16.8211 10.8196 16.7551 10.7175 16.6813 10.6864C16.634 10.6666 16.581 10.6627 16.5301 10.6523C16.4232 10.6315 16.323 10.5787 16.2446 10.502C16.2361 10.4935 16.2267 10.484 16.2211 10.4735C16.2145 10.4614 16.2106 10.4461 16.204 10.4339C16.1671 10.3687 16.048 10.3886 16.0187 10.3205C16.0008 10.278 16.0338 10.2279 16.0765 10.2108C16.119 10.1928 16.1672 10.1986 16.2126 10.2032C16.2588 10.2087 16.3071 10.2126 16.3477 10.1918C16.4055 10.1625 16.4308 10.0945 16.4385 10.0311C16.4413 10.0074 16.4432 9.9839 16.4535 9.96307C16.4733 9.9243 16.5216 9.90635 16.5641 9.91397C16.6066 9.92159 16.6425 9.95088 16.6672 9.98576C16.6823 10.0085 16.6946 10.034 16.7173 10.0491C16.739 10.0643 16.7674 10.0662 16.7938 10.0662C16.9366 10.0689 17.0793 10.0491 17.2154 10.0085C17.0991 9.84879 16.9234 9.73247 16.7315 9.68811C16.7194 9.68523 16.7051 9.68235 16.6985 9.67101C16.6929 9.66255 16.6938 9.6512 16.6948 9.64172C16.6995 9.57654 16.7051 9.5122 16.7109 9.44701C16.7119 9.43279 16.7127 9.41772 16.7043 9.40638C16.6958 9.39419 16.6797 9.38945 16.6647 9.38657C16.572 9.37048 16.4747 9.37996 16.3877 9.41298C16.3745 9.41857 16.3602 9.42432 16.347 9.42145C16.3254 9.41586 16.3149 9.39216 16.3074 9.37235C16.2554 9.22674 16.2317 9.08418 16.2016 8.93197C16.1931 8.88845 16.1836 8.84409 16.162 8.80532C16.1195 8.72879 16.0382 8.68342 15.9607 8.64278C15.9398 8.63144 15.9182 8.62009 15.9068 8.59927C15.9002 8.58691 15.8984 8.57285 15.8973 8.55948C15.8907 8.47245 15.9211 8.37612 15.8738 8.30433C15.8361 8.24761 15.7614 8.22594 15.7208 8.17209C15.7018 8.14568 15.6915 8.11436 15.6811 8.08422C15.6735 8.06052 15.665 8.03698 15.6584 8.01328C15.6141 8.0634 15.563 8.10505 15.4978 8.0766C15.4033 8.03495 15.2616 7.86395 15.1434 7.88765C15.0252 7.91119 14.754 7.79876 14.754 7.95284C14.754 8.10589 14.8183 8.38373 14.6708 8.31296C14.5234 8.24202 14.4875 8.10606 14.3693 8.01802C14.2511 7.92913 14.2162 7.9056 14.1094 7.92913C14.0036 7.95267 13.7965 7.94048 13.755 7.92338C13.7144 7.90543 13.7843 7.79301 13.6426 7.79301C13.5009 7.79301 13.2825 7.86395 13.3062 7.70987C13.3299 7.55682 13.5312 7.38581 13.3365 7.3384C13.1408 7.29117 13.0284 7.3384 12.8866 7.37328C12.7449 7.40918 12.5975 7.40918 12.5975 7.40918C12.5975 7.40918 12.379 7.24951 12.2317 7.11339C12.0834 6.97828 11.7468 6.69468 11.6703 6.74768C11.5938 6.80067 11.5635 7.0482 11.416 6.99521C11.2685 6.94238 10.9964 6.78916 10.9492 6.72397C10.902 6.65879 10.8254 6.60579 10.6836 6.55297C10.5418 6.49912 10.4067 6.44613 10.382 6.3696C10.3593 6.29206 10.3177 6.21553 10.2704 6.19758C10.2232 6.18065 9.9926 6.17489 9.95671 6.06247C9.92166 5.95005 9.90371 5.80258 9.85088 5.73163C9.79789 5.66069 9.49651 5.52474 9.49651 5.52474C9.49651 5.52474 9.10625 5.40097 8.91713 5.27703C8.72818 5.15225 8.39734 4.90472 8.39158 4.9396C8.386 4.97549 8.52196 5.21743 8.46913 5.24114C8.41529 5.26467 8.28577 5.29413 8.0787 5.17595C7.87163 5.05777 7.78951 5.00969 7.70638 4.93689C7.69317 4.92554 7.67997 4.91233 7.66676 4.89811C7.59311 4.82446 7.51083 4.72982 7.4409 4.74506C7.4409 4.74506 7.4343 4.74031 7.42481 4.73083C7.39552 4.7564 7.36623 4.77993 7.33593 4.80364C7.30985 4.82497 7.2787 4.84867 7.22858 4.8695Z"/>
</mask>
<path d="M7.22858 4.8695C7.11616 4.91674 7.06316 4.90539 6.9394 4.84021C6.81563 4.77502 6.75603 4.6389 6.66156 4.62755C6.56708 4.61621 6.34867 4.62755 6.17682 4.62755C6.00581 4.62755 5.84039 4.6692 5.82329 4.55661C5.80535 4.44419 5.79299 4.39695 5.72222 4.32025C5.65127 4.24372 5.45673 4.14925 5.39138 4.08965C5.32619 4.03107 5.16738 3.85346 5.16738 3.85346C5.16738 3.85346 5.22037 3.75898 5.06054 3.80622C4.90071 3.85346 4.84789 3.87141 4.8186 3.85346C4.78931 3.83551 4.8423 3.78827 4.76577 3.70599C4.68924 3.6237 4.57022 3.59357 4.52941 3.53498C4.48776 3.47539 4.35841 3.36296 4.45847 3.29304C4.5587 3.22125 4.64183 3.2099 4.67671 3.16267C4.71176 3.11543 4.77119 3.05025 4.67671 3.00961C4.58224 2.96796 4.64928 3.04449 4.42054 2.92648C4.1918 2.8083 4.17487 2.79611 4.13322 2.74311C4.09157 2.69012 4.00285 2.59006 3.94986 2.47188C3.89686 2.3537 3.82033 2.20623 3.73161 2.20623C3.64273 2.20623 3.54825 2.19962 3.40078 2.33575C3.25331 2.47188 3.10499 2.57211 3.05776 2.62493C3.01052 2.67877 2.92823 2.8083 2.84612 2.76106C2.76298 2.71382 2.6741 2.69587 2.72709 2.59564C2.78093 2.49541 2.85187 2.44258 2.78669 2.43581C2.7215 2.43022 2.66292 2.44241 2.56269 2.45376C2.46161 2.4651 2.35579 2.59547 2.33208 2.4651C2.30838 2.33558 2.16006 2.24669 2.21966 1.98121C2.27926 1.71573 2.24895 1.50866 2.42673 1.41977C2.60349 1.33088 2.75181 1.29601 2.7215 1.18917C2.69221 1.08335 2.53814 0.970757 2.43232 0.917932C2.33209 0.867816 2.08083 0.693933 2.05611 0.677002C2.05526 0.67988 2.05052 0.691225 2.03258 0.723225C2.01361 0.754378 1.98347 0.80551 1.93048 0.888642C1.7764 1.13059 1.67058 1.31954 1.49856 1.45567C1.32756 1.59179 1.10915 1.73351 1.06191 1.87522C1.01467 2.01694 0.925781 2.80237 0.925781 2.82032C0.925781 2.83725 1.14504 3.04432 1.0912 3.26832C1.0382 3.49333 0.920028 3.54057 0.978779 3.74747C1.03838 3.95437 1.1508 4.10184 1.15638 4.20207C1.16112 4.28622 1.1044 4.33244 1.12709 4.44961C1.13183 4.4723 1.13928 4.49786 1.15063 4.52715C1.22157 4.70391 1.30944 4.80499 1.33958 4.82209C1.36887 4.84004 1.38682 4.98175 1.35093 5.06404C1.33484 5.10281 1.33873 5.16241 1.35465 5.22099C1.37259 5.28906 1.40764 5.35525 1.4454 5.38353C1.51634 5.43652 1.66466 5.5073 1.69954 5.59618C1.73458 5.68507 1.69395 5.87403 1.7119 5.93261C1.72883 5.9922 1.80637 6.00914 1.81772 6.06873C1.82906 6.12833 1.78182 6.28698 1.75253 6.33438C1.72324 6.38162 1.57577 6.5357 1.68159 6.59428C1.78843 6.65388 1.84701 6.65388 1.82906 6.71246C1.81196 6.77206 1.72324 6.83064 1.67025 6.88448C1.62013 6.9346 1.34703 7.03754 1.30352 7.0631C1.35838 7.15859 1.4112 7.2871 1.37057 7.37599C1.29776 7.53379 1.25899 7.65197 1.3025 7.75407C1.345 7.85718 1.37615 7.91948 1.48688 7.99042C1.59744 8.06137 1.58136 8.21155 1.69954 8.29011C1.81772 8.3685 1.91219 8.37713 1.91219 8.37713C1.91219 8.37713 2.0578 8.5737 2.03223 8.62094C2.00667 8.66818 2.00667 8.7315 1.87257 8.77027C1.80824 8.78924 1.72324 8.78162 1.67787 8.83918C1.64011 8.8893 1.64113 8.96295 1.67126 9.01595C1.67888 9.02915 1.68921 9.04236 1.70157 9.04998C1.72138 9.06132 1.74508 9.0603 1.76777 9.05844C1.84531 9.05472 1.92286 9.04998 2.00024 9.04523C2.03799 9.04236 2.07778 9.04151 2.10978 9.0603C2.17209 9.09721 2.16836 9.19728 2.11638 9.24739C2.06441 9.29751 1.985 9.30598 1.91321 9.29565C1.87071 9.28989 1.82821 9.2777 1.78555 9.27956C1.72324 9.28143 1.66263 9.31444 1.62775 9.36557C1.6098 9.39114 1.59761 9.42128 1.57475 9.4421C1.54072 9.47326 1.49247 9.48087 1.45098 9.49882C1.40459 9.51965 1.36497 9.55656 1.34889 9.60464C1.33281 9.65188 1.34415 9.70961 1.38191 9.74263C1.40747 9.7643 1.4415 9.77378 1.47452 9.77853C1.60404 9.79749 1.74102 9.75872 1.84125 9.67558C1.93962 9.5933 2.00481 9.47139 2.12011 9.41671C2.13721 9.40824 2.156 9.40164 2.17496 9.40248C2.19392 9.40248 2.21188 9.4101 2.22881 9.41772C2.27706 9.43939 2.32244 9.46784 2.37255 9.48663C2.42267 9.50458 2.47939 9.5122 2.52849 9.49137C2.54457 9.48375 2.56066 9.47444 2.57674 9.46682C2.68171 9.42246 2.80362 9.50458 2.91502 9.47715C2.98021 9.46107 3.03033 9.4101 3.06334 9.35338C3.10398 9.28532 3.12853 9.27025 3.21539 9.27872C3.22385 9.27956 3.23248 9.28058 3.23993 9.28532C3.255 9.29277 3.26161 9.31173 3.26262 9.32883C3.26635 9.37421 3.2418 9.41671 3.22673 9.46022C3.223 9.47055 3.22097 9.48189 3.21911 9.49323C3.21437 9.52913 3.22199 9.56706 3.25128 9.58585C3.27109 9.59804 3.29564 9.59804 3.31833 9.59618C3.40908 9.58585 3.49695 9.53201 3.58669 9.5508C3.69166 9.57247 3.75024 9.6832 3.83523 9.74923C3.93445 9.82678 4.08006 9.841 4.1935 9.78411C4.1935 9.78411 4.27105 9.56587 4.44019 9.69522C4.60933 9.82559 4.7077 9.93141 4.7673 9.94005C4.82588 9.94767 4.94406 9.91651 4.9874 9.94005C5.03092 9.96375 5.03092 10.0543 5.01957 10.1451C5.00721 10.2348 5.00721 10.3181 5.0895 10.3767C5.17263 10.4363 5.23595 10.4287 5.25966 10.5184C5.28336 10.6092 5.32196 10.767 5.2947 10.7944C5.26728 10.8218 5.11794 11.0108 5.03854 11.1053C4.96014 11.1997 4.88548 11.2073 4.90901 11.2905C4.93254 11.3736 5.01111 11.3728 4.96759 11.4757C4.9251 11.5778 4.89665 11.59 4.79456 11.7082C4.69246 11.8263 4.7038 12.0106 4.66893 12.0702C4.63303 12.1298 4.60561 12.1211 4.50351 12.1883C4.40057 12.2554 4.41648 12.3461 4.47134 12.4245C4.52704 12.5029 4.71616 12.4955 4.56971 12.5862C4.4241 12.677 4.29085 12.7195 4.14067 12.7279C3.99134 12.7356 3.86944 12.7195 3.7985 12.7515C3.72755 12.7826 3.62461 12.7911 3.57365 12.8971C3.52252 13.0029 3.47155 13.1446 3.44802 13.1881C3.42432 13.2316 3.37708 13.2438 3.44429 13.3894C3.51134 13.535 3.56992 13.5662 3.58973 13.6332C3.60954 13.7003 3.62089 13.8346 3.55011 13.8781C3.47917 13.9206 3.43583 14.0037 3.44802 14.0311C3.46038 14.0586 3.46038 14.1369 3.41687 14.1965C3.37335 14.2561 3.20421 14.342 3.14089 14.4055C3.07757 14.4678 3.05386 14.587 3.10974 14.6493C3.16459 14.7126 3.24485 14.8034 3.26195 14.8421C3.27905 14.8819 3.33373 14.9838 3.33763 15.0397C3.34135 15.0946 3.37352 15.1381 3.3141 15.24C3.25551 15.343 3.20455 15.3345 3.24315 15.4092C3.28277 15.4848 3.41704 15.5197 3.4321 15.5944C3.44819 15.669 3.42449 15.7759 3.46427 15.8382C3.50305 15.9015 3.48324 15.9648 3.5899 15.91C3.69674 15.8543 3.76294 15.8467 3.78275 15.791C3.80256 15.7361 3.90465 15.6738 3.92446 15.6965C3.94427 15.721 4.01894 15.7994 4.06618 15.8627C4.11341 15.925 4.15693 15.9572 4.24379 16.0319C4.3298 16.1066 4.36569 16.1264 4.47151 16.1103C4.57835 16.0942 4.68417 16.1066 4.71159 16.0744C4.73987 16.0432 4.96014 15.838 4.96776 15.7794C4.97623 15.7209 5.00365 15.6066 4.95269 15.5829C4.90071 15.5592 4.80234 15.5433 4.78728 15.5319C4.77119 15.5197 4.70025 15.5082 4.72395 15.4412C4.74749 15.3741 4.78355 15.3382 4.759 15.2522C4.73631 15.1652 4.77881 15.1066 4.64946 15.1218C4.51909 15.1379 4.4368 15.1965 4.4009 15.1852C4.36603 15.1728 4.34994 15.153 4.34994 15.0311C4.34994 14.9092 4.39718 14.8071 4.41326 14.74C4.42833 14.673 4.46423 14.6097 4.4009 14.5472C4.3386 14.4839 4.27528 14.4678 4.20806 14.3855C4.14101 14.3032 4.03892 14.1889 4.0313 14.1454C4.02283 14.1019 4.10596 13.9602 4.10596 13.9441C4.10596 13.929 3.9717 13.8259 3.9717 13.7712C3.9717 13.7164 3.92074 13.5586 3.88569 13.5151C3.84979 13.4716 3.71181 13.3894 3.77886 13.3061C3.8459 13.2238 3.99151 13.0972 4.05856 13.0972C4.1256 13.0972 4.2277 13.1407 4.25885 13.1492C4.29102 13.1568 4.36941 13.1255 4.40531 13.0782C4.44018 13.031 4.46016 12.9912 4.49504 12.9403C4.53094 12.8893 4.54228 12.8297 4.6415 12.806C4.73987 12.7823 4.88158 12.7909 4.90055 12.893C4.92036 12.9951 4.95252 13.1331 4.86939 13.188C4.7871 13.2437 4.71634 13.2589 4.71159 13.3222C4.70787 13.3855 4.6889 13.4206 4.7314 13.4753C4.77491 13.531 4.87786 13.5943 4.94778 13.6056C5.01957 13.617 5.26998 13.6217 5.30402 13.6566C5.33805 13.6925 5.35413 13.7474 5.43252 13.7474C5.51091 13.7474 5.56679 13.7709 5.55815 13.6803C5.55053 13.5896 5.37394 13.4091 5.51091 13.342C5.6489 13.275 5.69987 13.2315 5.74711 13.275C5.79434 13.3185 5.77927 13.413 5.83396 13.4479C5.88882 13.4837 5.94452 13.4988 6.01919 13.4914C6.09385 13.4837 6.17225 13.4054 6.17614 13.4837C6.18088 13.5621 6.18088 13.5782 6.12518 13.6255C6.07032 13.6727 5.98719 13.7199 5.98719 13.7436C5.98719 13.7673 5.95976 13.8107 6.07032 13.8146C6.18088 13.8183 6.18478 13.8457 6.27925 13.7948C6.37373 13.7438 6.42096 13.7164 6.45974 13.7475C6.49935 13.7787 6.61381 13.8383 6.6685 13.842C6.7242 13.8457 6.77906 13.8344 6.83392 13.8183C6.88962 13.8022 6.94837 13.7673 6.94837 13.704C6.94837 13.6417 6.83019 13.6644 6.94837 13.566C7.06655 13.4678 7.14968 13.428 7.17711 13.428C7.20454 13.428 7.22435 13.3458 7.33491 13.342C7.44445 13.3383 7.46816 13.3618 7.51912 13.3185C7.5711 13.275 7.5711 13.2636 7.64103 13.2079C7.71282 13.1531 7.82253 13.0898 7.86215 13.1096C7.90177 13.1294 8.0191 13.275 7.97643 13.3459C7.93292 13.4169 7.85453 13.4367 7.93292 13.5C8.01131 13.5623 8.08598 13.5623 8.11815 13.5945C8.1493 13.6256 8.17673 13.7438 8.09834 13.8147C8.01893 13.8857 7.89702 13.8818 8.04348 13.9527C8.18909 14.0237 8.2751 14.0311 8.36196 14.015C8.44898 14 8.53499 13.9725 8.62947 13.948C8.72394 13.9253 8.8147 13.9055 8.86193 13.8818C8.90917 13.8583 8.90172 13.8657 8.94507 13.8147C8.98858 13.7638 9.04344 13.7079 9.08306 13.6805C9.12183 13.6531 9.22866 13.5945 9.26743 13.6454C9.30705 13.6964 9.31941 13.7399 9.31941 13.7948C9.31941 13.8496 9.32314 13.8694 9.24373 13.9526C9.16534 14.0349 9.12555 14.0745 9.12555 14.1331C9.12555 14.1927 9.11421 14.1766 9.14163 14.2162C9.16906 14.2558 9.35802 14.271 9.55933 14.2785C9.75962 14.287 9.8778 14.3257 9.93368 14.2832C9.98853 14.2397 10.0083 14.1888 10.0197 14.1292C10.032 14.0706 9.98853 13.9836 10.0197 13.9202C10.0508 13.8579 10.0593 13.7748 10.1501 13.7633C10.2398 13.7509 10.288 13.8456 10.339 13.8578C10.39 13.8691 10.3229 13.9201 10.4883 13.8654C10.6538 13.8105 10.6538 13.7311 10.7047 13.7C10.7557 13.6688 10.8153 13.6092 10.8541 13.6641C10.8937 13.7198 10.9258 13.8379 10.9297 13.8891C10.9335 13.94 10.9487 13.9836 10.992 13.9996C11.0356 14.0147 11.0913 14.0073 11.2008 14.0147C11.3114 14.0232 11.3823 14.0545 11.4058 14.0818C11.4294 14.1092 11.5987 14.0978 11.6061 14.1999C11.6146 14.3029 11.555 14.4448 11.6571 14.4996C11.7602 14.5545 11.8858 14.5667 11.9729 14.5667C12.0597 14.5667 12.2204 14.5865 12.2676 14.6337C12.3149 14.6809 12.3621 14.7868 12.4217 14.8851C12.4803 14.9835 12.6069 15.078 12.6967 15.0467C12.7874 15.0155 12.8035 14.9087 12.8943 14.9087C12.985 14.9087 12.9887 14.9361 13.0671 14.9522C13.1465 14.9683 13.2996 14.972 13.3307 14.9446C13.3629 14.9171 13.3978 14.8303 13.4885 14.9011C13.5793 14.972 13.6661 15.0504 13.6616 15.1251C13.6579 15.2007 13.6814 15.2234 13.5671 15.2754C13.4528 15.3264 13.327 15.4324 13.4415 15.5825C13.5559 15.7319 13.6428 15.8622 13.6267 15.9681C13.6106 16.0739 13.5558 16.0862 13.5397 16.1807C13.5246 16.2752 13.5434 16.3102 13.5906 16.4047C13.6379 16.4992 13.7012 16.539 13.7173 16.6533C13.7183 16.6627 13.7202 16.6731 13.721 16.6844C13.755 16.6768 13.7872 16.6759 13.8013 16.6947C13.8306 16.7335 13.9081 16.8451 13.9609 16.8961C13.9723 16.9064 13.9818 16.915 13.9902 16.9187C14.0375 16.9424 14.3097 17.0256 14.4155 16.9367C14.5224 16.8478 14.5933 16.8299 14.6405 16.7533C14.6878 16.6768 14.735 16.6003 14.7587 16.4878C14.7785 16.3942 14.7492 16.3121 14.789 16.2469C14.7966 16.2337 14.807 16.2213 14.8212 16.21C14.9062 16.1391 14.9423 16.1685 14.9478 16.0446C14.9534 15.9208 14.9649 15.743 14.9649 15.6731C14.9649 15.6013 14.9478 15.4481 14.9895 15.3773C15.0301 15.3064 15.0481 15.2705 15.1246 15.2591C15.1803 15.2507 15.1955 15.261 15.2787 15.2222C15.2768 15.2212 15.275 15.2194 15.2739 15.2185C15.2607 15.2034 15.2655 15.1808 15.2721 15.1618C15.2834 15.1296 15.2985 15.0975 15.3051 15.0636C15.3127 15.0296 15.3098 14.9918 15.289 14.9644C15.2766 14.9483 15.2587 14.9369 15.2455 14.9219C15.2152 14.8897 15.2059 14.8443 15.1964 14.8008C15.1916 14.78 15.1861 14.7593 15.1747 14.7412C15.1341 14.6798 15.0444 14.6826 14.9819 14.643C14.9196 14.6034 14.894 14.5248 14.8874 14.4512C14.8798 14.3774 14.8874 14.3029 14.8705 14.2309C14.8628 14.2016 14.8525 14.1742 14.8449 14.1459C14.7882 13.9314 14.8364 13.6678 14.9697 13.4919C15.0056 13.4446 15.0481 13.4001 15.1011 13.3728C15.1473 13.3491 15.1994 13.3398 15.2485 13.3237C15.4111 13.2718 15.5396 13.1488 15.6728 13.044C15.7003 13.0224 15.7285 13.0015 15.7626 12.9939C15.8098 12.9836 15.8609 13.0015 15.9063 12.9855C15.9536 12.9704 15.9828 12.924 16.015 12.8862C16.1237 12.7586 16.3042 12.702 16.3931 12.5593C16.4356 12.4912 16.4527 12.4081 16.5018 12.3438C16.55 12.2796 16.653 12.2417 16.7097 12.2994C16.7559 12.3458 16.7532 12.4355 16.8126 12.4611C16.859 12.4801 16.911 12.446 16.9364 12.4035C16.962 12.361 16.9723 12.3099 16.9979 12.2674C17.0243 12.2249 17.0763 12.1909 17.1216 12.2107C17.1594 12.2268 17.1755 12.2721 17.2105 12.2938C17.2351 12.3099 17.2672 12.3118 17.2974 12.3128C17.3881 12.3157 17.4818 12.3185 17.5639 12.2798C17.6452 12.241 17.7085 12.1474 17.6821 12.0614C17.6594 11.9867 17.5828 11.945 17.5111 11.9139C17.4496 11.8875 17.3863 11.8629 17.3221 11.8411C17.2786 11.826 17.2332 11.8118 17.1965 11.7835C17.1614 11.7551 17.1379 11.7155 17.1076 11.6833C17.0387 11.6105 16.9318 11.5756 16.8335 11.5935C16.7966 11.6002 16.7588 11.6134 16.7219 11.6049C16.652 11.5869 16.6274 11.5009 16.5754 11.45C16.5055 11.3809 16.3817 11.3753 16.3364 11.2883C16.2986 11.2173 16.3354 11.1305 16.3751 11.0606C16.4082 11.0001 16.4488 10.9368 16.514 10.916C16.5897 10.8933 16.6823 10.9331 16.7427 10.8829C16.8211 10.8196 16.7551 10.7175 16.6813 10.6864C16.634 10.6666 16.581 10.6627 16.5301 10.6523C16.4232 10.6315 16.323 10.5787 16.2446 10.502C16.2361 10.4935 16.2267 10.484 16.2211 10.4735C16.2145 10.4614 16.2106 10.4461 16.204 10.4339C16.1671 10.3687 16.048 10.3886 16.0187 10.3205C16.0008 10.278 16.0338 10.2279 16.0765 10.2108C16.119 10.1928 16.1672 10.1986 16.2126 10.2032C16.2588 10.2087 16.3071 10.2126 16.3477 10.1918C16.4055 10.1625 16.4308 10.0945 16.4385 10.0311C16.4413 10.0074 16.4432 9.9839 16.4535 9.96307C16.4733 9.9243 16.5216 9.90635 16.5641 9.91397C16.6066 9.92159 16.6425 9.95088 16.6672 9.98576C16.6823 10.0085 16.6946 10.034 16.7173 10.0491C16.739 10.0643 16.7674 10.0662 16.7938 10.0662C16.9366 10.0689 17.0793 10.0491 17.2154 10.0085C17.0991 9.84879 16.9234 9.73247 16.7315 9.68811C16.7194 9.68523 16.7051 9.68235 16.6985 9.67101C16.6929 9.66255 16.6938 9.6512 16.6948 9.64172C16.6995 9.57654 16.7051 9.5122 16.7109 9.44701C16.7119 9.43279 16.7127 9.41772 16.7043 9.40638C16.6958 9.39419 16.6797 9.38945 16.6647 9.38657C16.572 9.37048 16.4747 9.37996 16.3877 9.41298C16.3745 9.41857 16.3602 9.42432 16.347 9.42145C16.3254 9.41586 16.3149 9.39216 16.3074 9.37235C16.2554 9.22674 16.2317 9.08418 16.2016 8.93197C16.1931 8.88845 16.1836 8.84409 16.162 8.80532C16.1195 8.72879 16.0382 8.68342 15.9607 8.64278C15.9398 8.63144 15.9182 8.62009 15.9068 8.59927C15.9002 8.58691 15.8984 8.57285 15.8973 8.55948C15.8907 8.47245 15.9211 8.37612 15.8738 8.30433C15.8361 8.24761 15.7614 8.22594 15.7208 8.17209C15.7018 8.14568 15.6915 8.11436 15.6811 8.08422C15.6735 8.06052 15.665 8.03698 15.6584 8.01328C15.6141 8.0634 15.563 8.10505 15.4978 8.0766C15.4033 8.03495 15.2616 7.86395 15.1434 7.88765C15.0252 7.91119 14.754 7.79876 14.754 7.95284C14.754 8.10589 14.8183 8.38373 14.6708 8.31296C14.5234 8.24202 14.4875 8.10606 14.3693 8.01802C14.2511 7.92913 14.2162 7.9056 14.1094 7.92913C14.0036 7.95267 13.7965 7.94048 13.755 7.92338C13.7144 7.90543 13.7843 7.79301 13.6426 7.79301C13.5009 7.79301 13.2825 7.86395 13.3062 7.70987C13.3299 7.55682 13.5312 7.38581 13.3365 7.3384C13.1408 7.29117 13.0284 7.3384 12.8866 7.37328C12.7449 7.40918 12.5975 7.40918 12.5975 7.40918C12.5975 7.40918 12.379 7.24951 12.2317 7.11339C12.0834 6.97828 11.7468 6.69468 11.6703 6.74768C11.5938 6.80067 11.5635 7.0482 11.416 6.99521C11.2685 6.94238 10.9964 6.78916 10.9492 6.72397C10.902 6.65879 10.8254 6.60579 10.6836 6.55297C10.5418 6.49912 10.4067 6.44613 10.382 6.3696C10.3593 6.29206 10.3177 6.21553 10.2704 6.19758C10.2232 6.18065 9.9926 6.17489 9.95671 6.06247C9.92166 5.95005 9.90371 5.80258 9.85088 5.73163C9.79789 5.66069 9.49651 5.52474 9.49651 5.52474C9.49651 5.52474 9.10625 5.40097 8.91713 5.27703C8.72818 5.15225 8.39734 4.90472 8.39158 4.9396C8.386 4.97549 8.52196 5.21743 8.46913 5.24114C8.41529 5.26467 8.28577 5.29413 8.0787 5.17595C7.87163 5.05777 7.78951 5.00969 7.70638 4.93689C7.69317 4.92554 7.67997 4.91233 7.66676 4.89811C7.59311 4.82446 7.51083 4.72982 7.4409 4.74506C7.4409 4.74506 7.4343 4.74031 7.42481 4.73083C7.39552 4.7564 7.36623 4.77993 7.33593 4.80364C7.30985 4.82497 7.2787 4.84867 7.22858 4.8695Z" fill="#E0D47C"/>
<path d="M7.22858 4.8695C7.11616 4.91674 7.06316 4.90539 6.9394 4.84021C6.81563 4.77502 6.75603 4.6389 6.66156 4.62755C6.56708 4.61621 6.34867 4.62755 6.17682 4.62755C6.00581 4.62755 5.84039 4.6692 5.82329 4.55661C5.80535 4.44419 5.79299 4.39695 5.72222 4.32025C5.65127 4.24372 5.45673 4.14925 5.39138 4.08965C5.32619 4.03107 5.16738 3.85346 5.16738 3.85346C5.16738 3.85346 5.22037 3.75898 5.06054 3.80622C4.90071 3.85346 4.84789 3.87141 4.8186 3.85346C4.78931 3.83551 4.8423 3.78827 4.76577 3.70599C4.68924 3.6237 4.57022 3.59357 4.52941 3.53498C4.48776 3.47539 4.35841 3.36296 4.45847 3.29304C4.5587 3.22125 4.64183 3.2099 4.67671 3.16267C4.71176 3.11543 4.77119 3.05025 4.67671 3.00961C4.58224 2.96796 4.64928 3.04449 4.42054 2.92648C4.1918 2.8083 4.17487 2.79611 4.13322 2.74311C4.09157 2.69012 4.00285 2.59006 3.94986 2.47188C3.89686 2.3537 3.82033 2.20623 3.73161 2.20623C3.64273 2.20623 3.54825 2.19962 3.40078 2.33575C3.25331 2.47188 3.10499 2.57211 3.05776 2.62493C3.01052 2.67877 2.92823 2.8083 2.84612 2.76106C2.76298 2.71382 2.6741 2.69587 2.72709 2.59564C2.78093 2.49541 2.85187 2.44258 2.78669 2.43581C2.7215 2.43022 2.66292 2.44241 2.56269 2.45376C2.46161 2.4651 2.35579 2.59547 2.33208 2.4651C2.30838 2.33558 2.16006 2.24669 2.21966 1.98121C2.27926 1.71573 2.24895 1.50866 2.42673 1.41977C2.60349 1.33088 2.75181 1.29601 2.7215 1.18917C2.69221 1.08335 2.53814 0.970757 2.43232 0.917932C2.33209 0.867816 2.08083 0.693933 2.05611 0.677002C2.05526 0.67988 2.05052 0.691225 2.03258 0.723225C2.01361 0.754378 1.98347 0.80551 1.93048 0.888642C1.7764 1.13059 1.67058 1.31954 1.49856 1.45567C1.32756 1.59179 1.10915 1.73351 1.06191 1.87522C1.01467 2.01694 0.925781 2.80237 0.925781 2.82032C0.925781 2.83725 1.14504 3.04432 1.0912 3.26832C1.0382 3.49333 0.920028 3.54057 0.978779 3.74747C1.03838 3.95437 1.1508 4.10184 1.15638 4.20207C1.16112 4.28622 1.1044 4.33244 1.12709 4.44961C1.13183 4.4723 1.13928 4.49786 1.15063 4.52715C1.22157 4.70391 1.30944 4.80499 1.33958 4.82209C1.36887 4.84004 1.38682 4.98175 1.35093 5.06404C1.33484 5.10281 1.33873 5.16241 1.35465 5.22099C1.37259 5.28906 1.40764 5.35525 1.4454 5.38353C1.51634 5.43652 1.66466 5.5073 1.69954 5.59618C1.73458 5.68507 1.69395 5.87403 1.7119 5.93261C1.72883 5.9922 1.80637 6.00914 1.81772 6.06873C1.82906 6.12833 1.78182 6.28698 1.75253 6.33438C1.72324 6.38162 1.57577 6.5357 1.68159 6.59428C1.78843 6.65388 1.84701 6.65388 1.82906 6.71246C1.81196 6.77206 1.72324 6.83064 1.67025 6.88448C1.62013 6.9346 1.34703 7.03754 1.30352 7.0631C1.35838 7.15859 1.4112 7.2871 1.37057 7.37599C1.29776 7.53379 1.25899 7.65197 1.3025 7.75407C1.345 7.85718 1.37615 7.91948 1.48688 7.99042C1.59744 8.06137 1.58136 8.21155 1.69954 8.29011C1.81772 8.3685 1.91219 8.37713 1.91219 8.37713C1.91219 8.37713 2.0578 8.5737 2.03223 8.62094C2.00667 8.66818 2.00667 8.7315 1.87257 8.77027C1.80824 8.78924 1.72324 8.78162 1.67787 8.83918C1.64011 8.8893 1.64113 8.96295 1.67126 9.01595C1.67888 9.02915 1.68921 9.04236 1.70157 9.04998C1.72138 9.06132 1.74508 9.0603 1.76777 9.05844C1.84531 9.05472 1.92286 9.04998 2.00024 9.04523C2.03799 9.04236 2.07778 9.04151 2.10978 9.0603C2.17209 9.09721 2.16836 9.19728 2.11638 9.24739C2.06441 9.29751 1.985 9.30598 1.91321 9.29565C1.87071 9.28989 1.82821 9.2777 1.78555 9.27956C1.72324 9.28143 1.66263 9.31444 1.62775 9.36557C1.6098 9.39114 1.59761 9.42128 1.57475 9.4421C1.54072 9.47326 1.49247 9.48087 1.45098 9.49882C1.40459 9.51965 1.36497 9.55656 1.34889 9.60464C1.33281 9.65188 1.34415 9.70961 1.38191 9.74263C1.40747 9.7643 1.4415 9.77378 1.47452 9.77853C1.60404 9.79749 1.74102 9.75872 1.84125 9.67558C1.93962 9.5933 2.00481 9.47139 2.12011 9.41671C2.13721 9.40824 2.156 9.40164 2.17496 9.40248C2.19392 9.40248 2.21188 9.4101 2.22881 9.41772C2.27706 9.43939 2.32244 9.46784 2.37255 9.48663C2.42267 9.50458 2.47939 9.5122 2.52849 9.49137C2.54457 9.48375 2.56066 9.47444 2.57674 9.46682C2.68171 9.42246 2.80362 9.50458 2.91502 9.47715C2.98021 9.46107 3.03033 9.4101 3.06334 9.35338C3.10398 9.28532 3.12853 9.27025 3.21539 9.27872C3.22385 9.27956 3.23248 9.28058 3.23993 9.28532C3.255 9.29277 3.26161 9.31173 3.26262 9.32883C3.26635 9.37421 3.2418 9.41671 3.22673 9.46022C3.223 9.47055 3.22097 9.48189 3.21911 9.49323C3.21437 9.52913 3.22199 9.56706 3.25128 9.58585C3.27109 9.59804 3.29564 9.59804 3.31833 9.59618C3.40908 9.58585 3.49695 9.53201 3.58669 9.5508C3.69166 9.57247 3.75024 9.6832 3.83523 9.74923C3.93445 9.82678 4.08006 9.841 4.1935 9.78411C4.1935 9.78411 4.27105 9.56587 4.44019 9.69522C4.60933 9.82559 4.7077 9.93141 4.7673 9.94005C4.82588 9.94767 4.94406 9.91651 4.9874 9.94005C5.03092 9.96375 5.03092 10.0543 5.01957 10.1451C5.00721 10.2348 5.00721 10.3181 5.0895 10.3767C5.17263 10.4363 5.23595 10.4287 5.25966 10.5184C5.28336 10.6092 5.32196 10.767 5.2947 10.7944C5.26728 10.8218 5.11794 11.0108 5.03854 11.1053C4.96014 11.1997 4.88548 11.2073 4.90901 11.2905C4.93254 11.3736 5.01111 11.3728 4.96759 11.4757C4.9251 11.5778 4.89665 11.59 4.79456 11.7082C4.69246 11.8263 4.7038 12.0106 4.66893 12.0702C4.63303 12.1298 4.60561 12.1211 4.50351 12.1883C4.40057 12.2554 4.41648 12.3461 4.47134 12.4245C4.52704 12.5029 4.71616 12.4955 4.56971 12.5862C4.4241 12.677 4.29085 12.7195 4.14067 12.7279C3.99134 12.7356 3.86944 12.7195 3.7985 12.7515C3.72755 12.7826 3.62461 12.7911 3.57365 12.8971C3.52252 13.0029 3.47155 13.1446 3.44802 13.1881C3.42432 13.2316 3.37708 13.2438 3.44429 13.3894C3.51134 13.535 3.56992 13.5662 3.58973 13.6332C3.60954 13.7003 3.62089 13.8346 3.55011 13.8781C3.47917 13.9206 3.43583 14.0037 3.44802 14.0311C3.46038 14.0586 3.46038 14.1369 3.41687 14.1965C3.37335 14.2561 3.20421 14.342 3.14089 14.4055C3.07757 14.4678 3.05386 14.587 3.10974 14.6493C3.16459 14.7126 3.24485 14.8034 3.26195 14.8421C3.27905 14.8819 3.33373 14.9838 3.33763 15.0397C3.34135 15.0946 3.37352 15.1381 3.3141 15.24C3.25551 15.343 3.20455 15.3345 3.24315 15.4092C3.28277 15.4848 3.41704 15.5197 3.4321 15.5944C3.44819 15.669 3.42449 15.7759 3.46427 15.8382C3.50305 15.9015 3.48324 15.9648 3.5899 15.91C3.69674 15.8543 3.76294 15.8467 3.78275 15.791C3.80256 15.7361 3.90465 15.6738 3.92446 15.6965C3.94427 15.721 4.01894 15.7994 4.06618 15.8627C4.11341 15.925 4.15693 15.9572 4.24379 16.0319C4.3298 16.1066 4.36569 16.1264 4.47151 16.1103C4.57835 16.0942 4.68417 16.1066 4.71159 16.0744C4.73987 16.0432 4.96014 15.838 4.96776 15.7794C4.97623 15.7209 5.00365 15.6066 4.95269 15.5829C4.90071 15.5592 4.80234 15.5433 4.78728 15.5319C4.77119 15.5197 4.70025 15.5082 4.72395 15.4412C4.74749 15.3741 4.78355 15.3382 4.759 15.2522C4.73631 15.1652 4.77881 15.1066 4.64946 15.1218C4.51909 15.1379 4.4368 15.1965 4.4009 15.1852C4.36603 15.1728 4.34994 15.153 4.34994 15.0311C4.34994 14.9092 4.39718 14.8071 4.41326 14.74C4.42833 14.673 4.46423 14.6097 4.4009 14.5472C4.3386 14.4839 4.27528 14.4678 4.20806 14.3855C4.14101 14.3032 4.03892 14.1889 4.0313 14.1454C4.02283 14.1019 4.10596 13.9602 4.10596 13.9441C4.10596 13.929 3.9717 13.8259 3.9717 13.7712C3.9717 13.7164 3.92074 13.5586 3.88569 13.5151C3.84979 13.4716 3.71181 13.3894 3.77886 13.3061C3.8459 13.2238 3.99151 13.0972 4.05856 13.0972C4.1256 13.0972 4.2277 13.1407 4.25885 13.1492C4.29102 13.1568 4.36941 13.1255 4.40531 13.0782C4.44018 13.031 4.46016 12.9912 4.49504 12.9403C4.53094 12.8893 4.54228 12.8297 4.6415 12.806C4.73987 12.7823 4.88158 12.7909 4.90055 12.893C4.92036 12.9951 4.95252 13.1331 4.86939 13.188C4.7871 13.2437 4.71634 13.2589 4.71159 13.3222C4.70787 13.3855 4.6889 13.4206 4.7314 13.4753C4.77491 13.531 4.87786 13.5943 4.94778 13.6056C5.01957 13.617 5.26998 13.6217 5.30402 13.6566C5.33805 13.6925 5.35413 13.7474 5.43252 13.7474C5.51091 13.7474 5.56679 13.7709 5.55815 13.6803C5.55053 13.5896 5.37394 13.4091 5.51091 13.342C5.6489 13.275 5.69987 13.2315 5.74711 13.275C5.79434 13.3185 5.77927 13.413 5.83396 13.4479C5.88882 13.4837 5.94452 13.4988 6.01919 13.4914C6.09385 13.4837 6.17225 13.4054 6.17614 13.4837C6.18088 13.5621 6.18088 13.5782 6.12518 13.6255C6.07032 13.6727 5.98719 13.7199 5.98719 13.7436C5.98719 13.7673 5.95976 13.8107 6.07032 13.8146C6.18088 13.8183 6.18478 13.8457 6.27925 13.7948C6.37373 13.7438 6.42096 13.7164 6.45974 13.7475C6.49935 13.7787 6.61381 13.8383 6.6685 13.842C6.7242 13.8457 6.77906 13.8344 6.83392 13.8183C6.88962 13.8022 6.94837 13.7673 6.94837 13.704C6.94837 13.6417 6.83019 13.6644 6.94837 13.566C7.06655 13.4678 7.14968 13.428 7.17711 13.428C7.20454 13.428 7.22435 13.3458 7.33491 13.342C7.44445 13.3383 7.46816 13.3618 7.51912 13.3185C7.5711 13.275 7.5711 13.2636 7.64103 13.2079C7.71282 13.1531 7.82253 13.0898 7.86215 13.1096C7.90177 13.1294 8.0191 13.275 7.97643 13.3459C7.93292 13.4169 7.85453 13.4367 7.93292 13.5C8.01131 13.5623 8.08598 13.5623 8.11815 13.5945C8.1493 13.6256 8.17673 13.7438 8.09834 13.8147C8.01893 13.8857 7.89702 13.8818 8.04348 13.9527C8.18909 14.0237 8.2751 14.0311 8.36196 14.015C8.44898 14 8.53499 13.9725 8.62947 13.948C8.72394 13.9253 8.8147 13.9055 8.86193 13.8818C8.90917 13.8583 8.90172 13.8657 8.94507 13.8147C8.98858 13.7638 9.04344 13.7079 9.08306 13.6805C9.12183 13.6531 9.22866 13.5945 9.26743 13.6454C9.30705 13.6964 9.31941 13.7399 9.31941 13.7948C9.31941 13.8496 9.32314 13.8694 9.24373 13.9526C9.16534 14.0349 9.12555 14.0745 9.12555 14.1331C9.12555 14.1927 9.11421 14.1766 9.14163 14.2162C9.16906 14.2558 9.35802 14.271 9.55933 14.2785C9.75962 14.287 9.8778 14.3257 9.93368 14.2832C9.98853 14.2397 10.0083 14.1888 10.0197 14.1292C10.032 14.0706 9.98853 13.9836 10.0197 13.9202C10.0508 13.8579 10.0593 13.7748 10.1501 13.7633C10.2398 13.7509 10.288 13.8456 10.339 13.8578C10.39 13.8691 10.3229 13.9201 10.4883 13.8654C10.6538 13.8105 10.6538 13.7311 10.7047 13.7C10.7557 13.6688 10.8153 13.6092 10.8541 13.6641C10.8937 13.7198 10.9258 13.8379 10.9297 13.8891C10.9335 13.94 10.9487 13.9836 10.992 13.9996C11.0356 14.0147 11.0913 14.0073 11.2008 14.0147C11.3114 14.0232 11.3823 14.0545 11.4058 14.0818C11.4294 14.1092 11.5987 14.0978 11.6061 14.1999C11.6146 14.3029 11.555 14.4448 11.6571 14.4996C11.7602 14.5545 11.8858 14.5667 11.9729 14.5667C12.0597 14.5667 12.2204 14.5865 12.2676 14.6337C12.3149 14.6809 12.3621 14.7868 12.4217 14.8851C12.4803 14.9835 12.6069 15.078 12.6967 15.0467C12.7874 15.0155 12.8035 14.9087 12.8943 14.9087C12.985 14.9087 12.9887 14.9361 13.0671 14.9522C13.1465 14.9683 13.2996 14.972 13.3307 14.9446C13.3629 14.9171 13.3978 14.8303 13.4885 14.9011C13.5793 14.972 13.6661 15.0504 13.6616 15.1251C13.6579 15.2007 13.6814 15.2234 13.5671 15.2754C13.4528 15.3264 13.327 15.4324 13.4415 15.5825C13.5559 15.7319 13.6428 15.8622 13.6267 15.9681C13.6106 16.0739 13.5558 16.0862 13.5397 16.1807C13.5246 16.2752 13.5434 16.3102 13.5906 16.4047C13.6379 16.4992 13.7012 16.539 13.7173 16.6533C13.7183 16.6627 13.7202 16.6731 13.721 16.6844C13.755 16.6768 13.7872 16.6759 13.8013 16.6947C13.8306 16.7335 13.9081 16.8451 13.9609 16.8961C13.9723 16.9064 13.9818 16.915 13.9902 16.9187C14.0375 16.9424 14.3097 17.0256 14.4155 16.9367C14.5224 16.8478 14.5933 16.8299 14.6405 16.7533C14.6878 16.6768 14.735 16.6003 14.7587 16.4878C14.7785 16.3942 14.7492 16.3121 14.789 16.2469C14.7966 16.2337 14.807 16.2213 14.8212 16.21C14.9062 16.1391 14.9423 16.1685 14.9478 16.0446C14.9534 15.9208 14.9649 15.743 14.9649 15.6731C14.9649 15.6013 14.9478 15.4481 14.9895 15.3773C15.0301 15.3064 15.0481 15.2705 15.1246 15.2591C15.1803 15.2507 15.1955 15.261 15.2787 15.2222C15.2768 15.2212 15.275 15.2194 15.2739 15.2185C15.2607 15.2034 15.2655 15.1808 15.2721 15.1618C15.2834 15.1296 15.2985 15.0975 15.3051 15.0636C15.3127 15.0296 15.3098 14.9918 15.289 14.9644C15.2766 14.9483 15.2587 14.9369 15.2455 14.9219C15.2152 14.8897 15.2059 14.8443 15.1964 14.8008C15.1916 14.78 15.1861 14.7593 15.1747 14.7412C15.1341 14.6798 15.0444 14.6826 14.9819 14.643C14.9196 14.6034 14.894 14.5248 14.8874 14.4512C14.8798 14.3774 14.8874 14.3029 14.8705 14.2309C14.8628 14.2016 14.8525 14.1742 14.8449 14.1459C14.7882 13.9314 14.8364 13.6678 14.9697 13.4919C15.0056 13.4446 15.0481 13.4001 15.1011 13.3728C15.1473 13.3491 15.1994 13.3398 15.2485 13.3237C15.4111 13.2718 15.5396 13.1488 15.6728 13.044C15.7003 13.0224 15.7285 13.0015 15.7626 12.9939C15.8098 12.9836 15.8609 13.0015 15.9063 12.9855C15.9536 12.9704 15.9828 12.924 16.015 12.8862C16.1237 12.7586 16.3042 12.702 16.3931 12.5593C16.4356 12.4912 16.4527 12.4081 16.5018 12.3438C16.55 12.2796 16.653 12.2417 16.7097 12.2994C16.7559 12.3458 16.7532 12.4355 16.8126 12.4611C16.859 12.4801 16.911 12.446 16.9364 12.4035C16.962 12.361 16.9723 12.3099 16.9979 12.2674C17.0243 12.2249 17.0763 12.1909 17.1216 12.2107C17.1594 12.2268 17.1755 12.2721 17.2105 12.2938C17.2351 12.3099 17.2672 12.3118 17.2974 12.3128C17.3881 12.3157 17.4818 12.3185 17.5639 12.2798C17.6452 12.241 17.7085 12.1474 17.6821 12.0614C17.6594 11.9867 17.5828 11.945 17.5111 11.9139C17.4496 11.8875 17.3863 11.8629 17.3221 11.8411C17.2786 11.826 17.2332 11.8118 17.1965 11.7835C17.1614 11.7551 17.1379 11.7155 17.1076 11.6833C17.0387 11.6105 16.9318 11.5756 16.8335 11.5935C16.7966 11.6002 16.7588 11.6134 16.7219 11.6049C16.652 11.5869 16.6274 11.5009 16.5754 11.45C16.5055 11.3809 16.3817 11.3753 16.3364 11.2883C16.2986 11.2173 16.3354 11.1305 16.3751 11.0606C16.4082 11.0001 16.4488 10.9368 16.514 10.916C16.5897 10.8933 16.6823 10.9331 16.7427 10.8829C16.8211 10.8196 16.7551 10.7175 16.6813 10.6864C16.634 10.6666 16.581 10.6627 16.5301 10.6523C16.4232 10.6315 16.323 10.5787 16.2446 10.502C16.2361 10.4935 16.2267 10.484 16.2211 10.4735C16.2145 10.4614 16.2106 10.4461 16.204 10.4339C16.1671 10.3687 16.048 10.3886 16.0187 10.3205C16.0008 10.278 16.0338 10.2279 16.0765 10.2108C16.119 10.1928 16.1672 10.1986 16.2126 10.2032C16.2588 10.2087 16.3071 10.2126 16.3477 10.1918C16.4055 10.1625 16.4308 10.0945 16.4385 10.0311C16.4413 10.0074 16.4432 9.9839 16.4535 9.96307C16.4733 9.9243 16.5216 9.90635 16.5641 9.91397C16.6066 9.92159 16.6425 9.95088 16.6672 9.98576C16.6823 10.0085 16.6946 10.034 16.7173 10.0491C16.739 10.0643 16.7674 10.0662 16.7938 10.0662C16.9366 10.0689 17.0793 10.0491 17.2154 10.0085C17.0991 9.84879 16.9234 9.73247 16.7315 9.68811C16.7194 9.68523 16.7051 9.68235 16.6985 9.67101C16.6929 9.66255 16.6938 9.6512 16.6948 9.64172C16.6995 9.57654 16.7051 9.5122 16.7109 9.44701C16.7119 9.43279 16.7127 9.41772 16.7043 9.40638C16.6958 9.39419 16.6797 9.38945 16.6647 9.38657C16.572 9.37048 16.4747 9.37996 16.3877 9.41298C16.3745 9.41857 16.3602 9.42432 16.347 9.42145C16.3254 9.41586 16.3149 9.39216 16.3074 9.37235C16.2554 9.22674 16.2317 9.08418 16.2016 8.93197C16.1931 8.88845 16.1836 8.84409 16.162 8.80532C16.1195 8.72879 16.0382 8.68342 15.9607 8.64278C15.9398 8.63144 15.9182 8.62009 15.9068 8.59927C15.9002 8.58691 15.8984 8.57285 15.8973 8.55948C15.8907 8.47245 15.9211 8.37612 15.8738 8.30433C15.8361 8.24761 15.7614 8.22594 15.7208 8.17209C15.7018 8.14568 15.6915 8.11436 15.6811 8.08422C15.6735 8.06052 15.665 8.03698 15.6584 8.01328C15.6141 8.0634 15.563 8.10505 15.4978 8.0766C15.4033 8.03495 15.2616 7.86395 15.1434 7.88765C15.0252 7.91119 14.754 7.79876 14.754 7.95284C14.754 8.10589 14.8183 8.38373 14.6708 8.31296C14.5234 8.24202 14.4875 8.10606 14.3693 8.01802C14.2511 7.92913 14.2162 7.9056 14.1094 7.92913C14.0036 7.95267 13.7965 7.94048 13.755 7.92338C13.7144 7.90543 13.7843 7.79301 13.6426 7.79301C13.5009 7.79301 13.2825 7.86395 13.3062 7.70987C13.3299 7.55682 13.5312 7.38581 13.3365 7.3384C13.1408 7.29117 13.0284 7.3384 12.8866 7.37328C12.7449 7.40918 12.5975 7.40918 12.5975 7.40918C12.5975 7.40918 12.379 7.24951 12.2317 7.11339C12.0834 6.97828 11.7468 6.69468 11.6703 6.74768C11.5938 6.80067 11.5635 7.0482 11.416 6.99521C11.2685 6.94238 10.9964 6.78916 10.9492 6.72397C10.902 6.65879 10.8254 6.60579 10.6836 6.55297C10.5418 6.49912 10.4067 6.44613 10.382 6.3696C10.3593 6.29206 10.3177 6.21553 10.2704 6.19758C10.2232 6.18065 9.9926 6.17489 9.95671 6.06247C9.92166 5.95005 9.90371 5.80258 9.85088 5.73163C9.79789 5.66069 9.49651 5.52474 9.49651 5.52474C9.49651 5.52474 9.10625 5.40097 8.91713 5.27703C8.72818 5.15225 8.39734 4.90472 8.39158 4.9396C8.386 4.97549 8.52196 5.21743 8.46913 5.24114C8.41529 5.26467 8.28577 5.29413 8.0787 5.17595C7.87163 5.05777 7.78951 5.00969 7.70638 4.93689C7.69317 4.92554 7.67997 4.91233 7.66676 4.89811C7.59311 4.82446 7.51083 4.72982 7.4409 4.74506C7.4409 4.74506 7.4343 4.74031 7.42481 4.73083C7.39552 4.7564 7.36623 4.77993 7.33593 4.80364C7.30985 4.82497 7.2787 4.84867 7.22858 4.8695Z" fill="url(#paint0_linear_1571_9880)"/>
<path d="M7.22858 4.8695C7.11616 4.91674 7.06316 4.90539 6.9394 4.84021C6.81563 4.77502 6.75603 4.6389 6.66156 4.62755C6.56708 4.61621 6.34867 4.62755 6.17682 4.62755C6.00581 4.62755 5.84039 4.6692 5.82329 4.55661C5.80535 4.44419 5.79299 4.39695 5.72222 4.32025C5.65127 4.24372 5.45673 4.14925 5.39138 4.08965C5.32619 4.03107 5.16738 3.85346 5.16738 3.85346C5.16738 3.85346 5.22037 3.75898 5.06054 3.80622C4.90071 3.85346 4.84789 3.87141 4.8186 3.85346C4.78931 3.83551 4.8423 3.78827 4.76577 3.70599C4.68924 3.6237 4.57022 3.59357 4.52941 3.53498C4.48776 3.47539 4.35841 3.36296 4.45847 3.29304C4.5587 3.22125 4.64183 3.2099 4.67671 3.16267C4.71176 3.11543 4.77119 3.05025 4.67671 3.00961C4.58224 2.96796 4.64928 3.04449 4.42054 2.92648C4.1918 2.8083 4.17487 2.79611 4.13322 2.74311C4.09157 2.69012 4.00285 2.59006 3.94986 2.47188C3.89686 2.3537 3.82033 2.20623 3.73161 2.20623C3.64273 2.20623 3.54825 2.19962 3.40078 2.33575C3.25331 2.47188 3.10499 2.57211 3.05776 2.62493C3.01052 2.67877 2.92823 2.8083 2.84612 2.76106C2.76298 2.71382 2.6741 2.69587 2.72709 2.59564C2.78093 2.49541 2.85187 2.44258 2.78669 2.43581C2.7215 2.43022 2.66292 2.44241 2.56269 2.45376C2.46161 2.4651 2.35579 2.59547 2.33208 2.4651C2.30838 2.33558 2.16006 2.24669 2.21966 1.98121C2.27926 1.71573 2.24895 1.50866 2.42673 1.41977C2.60349 1.33088 2.75181 1.29601 2.7215 1.18917C2.69221 1.08335 2.53814 0.970757 2.43232 0.917932C2.33209 0.867816 2.08083 0.693933 2.05611 0.677002C2.05526 0.67988 2.05052 0.691225 2.03258 0.723225C2.01361 0.754378 1.98347 0.80551 1.93048 0.888642C1.7764 1.13059 1.67058 1.31954 1.49856 1.45567C1.32756 1.59179 1.10915 1.73351 1.06191 1.87522C1.01467 2.01694 0.925781 2.80237 0.925781 2.82032C0.925781 2.83725 1.14504 3.04432 1.0912 3.26832C1.0382 3.49333 0.920028 3.54057 0.978779 3.74747C1.03838 3.95437 1.1508 4.10184 1.15638 4.20207C1.16112 4.28622 1.1044 4.33244 1.12709 4.44961C1.13183 4.4723 1.13928 4.49786 1.15063 4.52715C1.22157 4.70391 1.30944 4.80499 1.33958 4.82209C1.36887 4.84004 1.38682 4.98175 1.35093 5.06404C1.33484 5.10281 1.33873 5.16241 1.35465 5.22099C1.37259 5.28906 1.40764 5.35525 1.4454 5.38353C1.51634 5.43652 1.66466 5.5073 1.69954 5.59618C1.73458 5.68507 1.69395 5.87403 1.7119 5.93261C1.72883 5.9922 1.80637 6.00914 1.81772 6.06873C1.82906 6.12833 1.78182 6.28698 1.75253 6.33438C1.72324 6.38162 1.57577 6.5357 1.68159 6.59428C1.78843 6.65388 1.84701 6.65388 1.82906 6.71246C1.81196 6.77206 1.72324 6.83064 1.67025 6.88448C1.62013 6.9346 1.34703 7.03754 1.30352 7.0631C1.35838 7.15859 1.4112 7.2871 1.37057 7.37599C1.29776 7.53379 1.25899 7.65197 1.3025 7.75407C1.345 7.85718 1.37615 7.91948 1.48688 7.99042C1.59744 8.06137 1.58136 8.21155 1.69954 8.29011C1.81772 8.3685 1.91219 8.37713 1.91219 8.37713C1.91219 8.37713 2.0578 8.5737 2.03223 8.62094C2.00667 8.66818 2.00667 8.7315 1.87257 8.77027C1.80824 8.78924 1.72324 8.78162 1.67787 8.83918C1.64011 8.8893 1.64113 8.96295 1.67126 9.01595C1.67888 9.02915 1.68921 9.04236 1.70157 9.04998C1.72138 9.06132 1.74508 9.0603 1.76777 9.05844C1.84531 9.05472 1.92286 9.04998 2.00024 9.04523C2.03799 9.04236 2.07778 9.04151 2.10978 9.0603C2.17209 9.09721 2.16836 9.19728 2.11638 9.24739C2.06441 9.29751 1.985 9.30598 1.91321 9.29565C1.87071 9.28989 1.82821 9.2777 1.78555 9.27956C1.72324 9.28143 1.66263 9.31444 1.62775 9.36557C1.6098 9.39114 1.59761 9.42128 1.57475 9.4421C1.54072 9.47326 1.49247 9.48087 1.45098 9.49882C1.40459 9.51965 1.36497 9.55656 1.34889 9.60464C1.33281 9.65188 1.34415 9.70961 1.38191 9.74263C1.40747 9.7643 1.4415 9.77378 1.47452 9.77853C1.60404 9.79749 1.74102 9.75872 1.84125 9.67558C1.93962 9.5933 2.00481 9.47139 2.12011 9.41671C2.13721 9.40824 2.156 9.40164 2.17496 9.40248C2.19392 9.40248 2.21188 9.4101 2.22881 9.41772C2.27706 9.43939 2.32244 9.46784 2.37255 9.48663C2.42267 9.50458 2.47939 9.5122 2.52849 9.49137C2.54457 9.48375 2.56066 9.47444 2.57674 9.46682C2.68171 9.42246 2.80362 9.50458 2.91502 9.47715C2.98021 9.46107 3.03033 9.4101 3.06334 9.35338C3.10398 9.28532 3.12853 9.27025 3.21539 9.27872C3.22385 9.27956 3.23248 9.28058 3.23993 9.28532C3.255 9.29277 3.26161 9.31173 3.26262 9.32883C3.26635 9.37421 3.2418 9.41671 3.22673 9.46022C3.223 9.47055 3.22097 9.48189 3.21911 9.49323C3.21437 9.52913 3.22199 9.56706 3.25128 9.58585C3.27109 9.59804 3.29564 9.59804 3.31833 9.59618C3.40908 9.58585 3.49695 9.53201 3.58669 9.5508C3.69166 9.57247 3.75024 9.6832 3.83523 9.74923C3.93445 9.82678 4.08006 9.841 4.1935 9.78411C4.1935 9.78411 4.27105 9.56587 4.44019 9.69522C4.60933 9.82559 4.7077 9.93141 4.7673 9.94005C4.82588 9.94767 4.94406 9.91651 4.9874 9.94005C5.03092 9.96375 5.03092 10.0543 5.01957 10.1451C5.00721 10.2348 5.00721 10.3181 5.0895 10.3767C5.17263 10.4363 5.23595 10.4287 5.25966 10.5184C5.28336 10.6092 5.32196 10.767 5.2947 10.7944C5.26728 10.8218 5.11794 11.0108 5.03854 11.1053C4.96014 11.1997 4.88548 11.2073 4.90901 11.2905C4.93254 11.3736 5.01111 11.3728 4.96759 11.4757C4.9251 11.5778 4.89665 11.59 4.79456 11.7082C4.69246 11.8263 4.7038 12.0106 4.66893 12.0702C4.63303 12.1298 4.60561 12.1211 4.50351 12.1883C4.40057 12.2554 4.41648 12.3461 4.47134 12.4245C4.52704 12.5029 4.71616 12.4955 4.56971 12.5862C4.4241 12.677 4.29085 12.7195 4.14067 12.7279C3.99134 12.7356 3.86944 12.7195 3.7985 12.7515C3.72755 12.7826 3.62461 12.7911 3.57365 12.8971C3.52252 13.0029 3.47155 13.1446 3.44802 13.1881C3.42432 13.2316 3.37708 13.2438 3.44429 13.3894C3.51134 13.535 3.56992 13.5662 3.58973 13.6332C3.60954 13.7003 3.62089 13.8346 3.55011 13.8781C3.47917 13.9206 3.43583 14.0037 3.44802 14.0311C3.46038 14.0586 3.46038 14.1369 3.41687 14.1965C3.37335 14.2561 3.20421 14.342 3.14089 14.4055C3.07757 14.4678 3.05386 14.587 3.10974 14.6493C3.16459 14.7126 3.24485 14.8034 3.26195 14.8421C3.27905 14.8819 3.33373 14.9838 3.33763 15.0397C3.34135 15.0946 3.37352 15.1381 3.3141 15.24C3.25551 15.343 3.20455 15.3345 3.24315 15.4092C3.28277 15.4848 3.41704 15.5197 3.4321 15.5944C3.44819 15.669 3.42449 15.7759 3.46427 15.8382C3.50305 15.9015 3.48324 15.9648 3.5899 15.91C3.69674 15.8543 3.76294 15.8467 3.78275 15.791C3.80256 15.7361 3.90465 15.6738 3.92446 15.6965C3.94427 15.721 4.01894 15.7994 4.06618 15.8627C4.11341 15.925 4.15693 15.9572 4.24379 16.0319C4.3298 16.1066 4.36569 16.1264 4.47151 16.1103C4.57835 16.0942 4.68417 16.1066 4.71159 16.0744C4.73987 16.0432 4.96014 15.838 4.96776 15.7794C4.97623 15.7209 5.00365 15.6066 4.95269 15.5829C4.90071 15.5592 4.80234 15.5433 4.78728 15.5319C4.77119 15.5197 4.70025 15.5082 4.72395 15.4412C4.74749 15.3741 4.78355 15.3382 4.759 15.2522C4.73631 15.1652 4.77881 15.1066 4.64946 15.1218C4.51909 15.1379 4.4368 15.1965 4.4009 15.1852C4.36603 15.1728 4.34994 15.153 4.34994 15.0311C4.34994 14.9092 4.39718 14.8071 4.41326 14.74C4.42833 14.673 4.46423 14.6097 4.4009 14.5472C4.3386 14.4839 4.27528 14.4678 4.20806 14.3855C4.14101 14.3032 4.03892 14.1889 4.0313 14.1454C4.02283 14.1019 4.10596 13.9602 4.10596 13.9441C4.10596 13.929 3.9717 13.8259 3.9717 13.7712C3.9717 13.7164 3.92074 13.5586 3.88569 13.5151C3.84979 13.4716 3.71181 13.3894 3.77886 13.3061C3.8459 13.2238 3.99151 13.0972 4.05856 13.0972C4.1256 13.0972 4.2277 13.1407 4.25885 13.1492C4.29102 13.1568 4.36941 13.1255 4.40531 13.0782C4.44018 13.031 4.46016 12.9912 4.49504 12.9403C4.53094 12.8893 4.54228 12.8297 4.6415 12.806C4.73987 12.7823 4.88158 12.7909 4.90055 12.893C4.92036 12.9951 4.95252 13.1331 4.86939 13.188C4.7871 13.2437 4.71634 13.2589 4.71159 13.3222C4.70787 13.3855 4.6889 13.4206 4.7314 13.4753C4.77491 13.531 4.87786 13.5943 4.94778 13.6056C5.01957 13.617 5.26998 13.6217 5.30402 13.6566C5.33805 13.6925 5.35413 13.7474 5.43252 13.7474C5.51091 13.7474 5.56679 13.7709 5.55815 13.6803C5.55053 13.5896 5.37394 13.4091 5.51091 13.342C5.6489 13.275 5.69987 13.2315 5.74711 13.275C5.79434 13.3185 5.77927 13.413 5.83396 13.4479C5.88882 13.4837 5.94452 13.4988 6.01919 13.4914C6.09385 13.4837 6.17225 13.4054 6.17614 13.4837C6.18088 13.5621 6.18088 13.5782 6.12518 13.6255C6.07032 13.6727 5.98719 13.7199 5.98719 13.7436C5.98719 13.7673 5.95976 13.8107 6.07032 13.8146C6.18088 13.8183 6.18478 13.8457 6.27925 13.7948C6.37373 13.7438 6.42096 13.7164 6.45974 13.7475C6.49935 13.7787 6.61381 13.8383 6.6685 13.842C6.7242 13.8457 6.77906 13.8344 6.83392 13.8183C6.88962 13.8022 6.94837 13.7673 6.94837 13.704C6.94837 13.6417 6.83019 13.6644 6.94837 13.566C7.06655 13.4678 7.14968 13.428 7.17711 13.428C7.20454 13.428 7.22435 13.3458 7.33491 13.342C7.44445 13.3383 7.46816 13.3618 7.51912 13.3185C7.5711 13.275 7.5711 13.2636 7.64103 13.2079C7.71282 13.1531 7.82253 13.0898 7.86215 13.1096C7.90177 13.1294 8.0191 13.275 7.97643 13.3459C7.93292 13.4169 7.85453 13.4367 7.93292 13.5C8.01131 13.5623 8.08598 13.5623 8.11815 13.5945C8.1493 13.6256 8.17673 13.7438 8.09834 13.8147C8.01893 13.8857 7.89702 13.8818 8.04348 13.9527C8.18909 14.0237 8.2751 14.0311 8.36196 14.015C8.44898 14 8.53499 13.9725 8.62947 13.948C8.72394 13.9253 8.8147 13.9055 8.86193 13.8818C8.90917 13.8583 8.90172 13.8657 8.94507 13.8147C8.98858 13.7638 9.04344 13.7079 9.08306 13.6805C9.12183 13.6531 9.22866 13.5945 9.26743 13.6454C9.30705 13.6964 9.31941 13.7399 9.31941 13.7948C9.31941 13.8496 9.32314 13.8694 9.24373 13.9526C9.16534 14.0349 9.12555 14.0745 9.12555 14.1331C9.12555 14.1927 9.11421 14.1766 9.14163 14.2162C9.16906 14.2558 9.35802 14.271 9.55933 14.2785C9.75962 14.287 9.8778 14.3257 9.93368 14.2832C9.98853 14.2397 10.0083 14.1888 10.0197 14.1292C10.032 14.0706 9.98853 13.9836 10.0197 13.9202C10.0508 13.8579 10.0593 13.7748 10.1501 13.7633C10.2398 13.7509 10.288 13.8456 10.339 13.8578C10.39 13.8691 10.3229 13.9201 10.4883 13.8654C10.6538 13.8105 10.6538 13.7311 10.7047 13.7C10.7557 13.6688 10.8153 13.6092 10.8541 13.6641C10.8937 13.7198 10.9258 13.8379 10.9297 13.8891C10.9335 13.94 10.9487 13.9836 10.992 13.9996C11.0356 14.0147 11.0913 14.0073 11.2008 14.0147C11.3114 14.0232 11.3823 14.0545 11.4058 14.0818C11.4294 14.1092 11.5987 14.0978 11.6061 14.1999C11.6146 14.3029 11.555 14.4448 11.6571 14.4996C11.7602 14.5545 11.8858 14.5667 11.9729 14.5667C12.0597 14.5667 12.2204 14.5865 12.2676 14.6337C12.3149 14.6809 12.3621 14.7868 12.4217 14.8851C12.4803 14.9835 12.6069 15.078 12.6967 15.0467C12.7874 15.0155 12.8035 14.9087 12.8943 14.9087C12.985 14.9087 12.9887 14.9361 13.0671 14.9522C13.1465 14.9683 13.2996 14.972 13.3307 14.9446C13.3629 14.9171 13.3978 14.8303 13.4885 14.9011C13.5793 14.972 13.6661 15.0504 13.6616 15.1251C13.6579 15.2007 13.6814 15.2234 13.5671 15.2754C13.4528 15.3264 13.327 15.4324 13.4415 15.5825C13.5559 15.7319 13.6428 15.8622 13.6267 15.9681C13.6106 16.0739 13.5558 16.0862 13.5397 16.1807C13.5246 16.2752 13.5434 16.3102 13.5906 16.4047C13.6379 16.4992 13.7012 16.539 13.7173 16.6533C13.7183 16.6627 13.7202 16.6731 13.721 16.6844C13.755 16.6768 13.7872 16.6759 13.8013 16.6947C13.8306 16.7335 13.9081 16.8451 13.9609 16.8961C13.9723 16.9064 13.9818 16.915 13.9902 16.9187C14.0375 16.9424 14.3097 17.0256 14.4155 16.9367C14.5224 16.8478 14.5933 16.8299 14.6405 16.7533C14.6878 16.6768 14.735 16.6003 14.7587 16.4878C14.7785 16.3942 14.7492 16.3121 14.789 16.2469C14.7966 16.2337 14.807 16.2213 14.8212 16.21C14.9062 16.1391 14.9423 16.1685 14.9478 16.0446C14.9534 15.9208 14.9649 15.743 14.9649 15.6731C14.9649 15.6013 14.9478 15.4481 14.9895 15.3773C15.0301 15.3064 15.0481 15.2705 15.1246 15.2591C15.1803 15.2507 15.1955 15.261 15.2787 15.2222C15.2768 15.2212 15.275 15.2194 15.2739 15.2185C15.2607 15.2034 15.2655 15.1808 15.2721 15.1618C15.2834 15.1296 15.2985 15.0975 15.3051 15.0636C15.3127 15.0296 15.3098 14.9918 15.289 14.9644C15.2766 14.9483 15.2587 14.9369 15.2455 14.9219C15.2152 14.8897 15.2059 14.8443 15.1964 14.8008C15.1916 14.78 15.1861 14.7593 15.1747 14.7412C15.1341 14.6798 15.0444 14.6826 14.9819 14.643C14.9196 14.6034 14.894 14.5248 14.8874 14.4512C14.8798 14.3774 14.8874 14.3029 14.8705 14.2309C14.8628 14.2016 14.8525 14.1742 14.8449 14.1459C14.7882 13.9314 14.8364 13.6678 14.9697 13.4919C15.0056 13.4446 15.0481 13.4001 15.1011 13.3728C15.1473 13.3491 15.1994 13.3398 15.2485 13.3237C15.4111 13.2718 15.5396 13.1488 15.6728 13.044C15.7003 13.0224 15.7285 13.0015 15.7626 12.9939C15.8098 12.9836 15.8609 13.0015 15.9063 12.9855C15.9536 12.9704 15.9828 12.924 16.015 12.8862C16.1237 12.7586 16.3042 12.702 16.3931 12.5593C16.4356 12.4912 16.4527 12.4081 16.5018 12.3438C16.55 12.2796 16.653 12.2417 16.7097 12.2994C16.7559 12.3458 16.7532 12.4355 16.8126 12.4611C16.859 12.4801 16.911 12.446 16.9364 12.4035C16.962 12.361 16.9723 12.3099 16.9979 12.2674C17.0243 12.2249 17.0763 12.1909 17.1216 12.2107C17.1594 12.2268 17.1755 12.2721 17.2105 12.2938C17.2351 12.3099 17.2672 12.3118 17.2974 12.3128C17.3881 12.3157 17.4818 12.3185 17.5639 12.2798C17.6452 12.241 17.7085 12.1474 17.6821 12.0614C17.6594 11.9867 17.5828 11.945 17.5111 11.9139C17.4496 11.8875 17.3863 11.8629 17.3221 11.8411C17.2786 11.826 17.2332 11.8118 17.1965 11.7835C17.1614 11.7551 17.1379 11.7155 17.1076 11.6833C17.0387 11.6105 16.9318 11.5756 16.8335 11.5935C16.7966 11.6002 16.7588 11.6134 16.7219 11.6049C16.652 11.5869 16.6274 11.5009 16.5754 11.45C16.5055 11.3809 16.3817 11.3753 16.3364 11.2883C16.2986 11.2173 16.3354 11.1305 16.3751 11.0606C16.4082 11.0001 16.4488 10.9368 16.514 10.916C16.5897 10.8933 16.6823 10.9331 16.7427 10.8829C16.8211 10.8196 16.7551 10.7175 16.6813 10.6864C16.634 10.6666 16.581 10.6627 16.5301 10.6523C16.4232 10.6315 16.323 10.5787 16.2446 10.502C16.2361 10.4935 16.2267 10.484 16.2211 10.4735C16.2145 10.4614 16.2106 10.4461 16.204 10.4339C16.1671 10.3687 16.048 10.3886 16.0187 10.3205C16.0008 10.278 16.0338 10.2279 16.0765 10.2108C16.119 10.1928 16.1672 10.1986 16.2126 10.2032C16.2588 10.2087 16.3071 10.2126 16.3477 10.1918C16.4055 10.1625 16.4308 10.0945 16.4385 10.0311C16.4413 10.0074 16.4432 9.9839 16.4535 9.96307C16.4733 9.9243 16.5216 9.90635 16.5641 9.91397C16.6066 9.92159 16.6425 9.95088 16.6672 9.98576C16.6823 10.0085 16.6946 10.034 16.7173 10.0491C16.739 10.0643 16.7674 10.0662 16.7938 10.0662C16.9366 10.0689 17.0793 10.0491 17.2154 10.0085C17.0991 9.84879 16.9234 9.73247 16.7315 9.68811C16.7194 9.68523 16.7051 9.68235 16.6985 9.67101C16.6929 9.66255 16.6938 9.6512 16.6948 9.64172C16.6995 9.57654 16.7051 9.5122 16.7109 9.44701C16.7119 9.43279 16.7127 9.41772 16.7043 9.40638C16.6958 9.39419 16.6797 9.38945 16.6647 9.38657C16.572 9.37048 16.4747 9.37996 16.3877 9.41298C16.3745 9.41857 16.3602 9.42432 16.347 9.42145C16.3254 9.41586 16.3149 9.39216 16.3074 9.37235C16.2554 9.22674 16.2317 9.08418 16.2016 8.93197C16.1931 8.88845 16.1836 8.84409 16.162 8.80532C16.1195 8.72879 16.0382 8.68342 15.9607 8.64278C15.9398 8.63144 15.9182 8.62009 15.9068 8.59927C15.9002 8.58691 15.8984 8.57285 15.8973 8.55948C15.8907 8.47245 15.9211 8.37612 15.8738 8.30433C15.8361 8.24761 15.7614 8.22594 15.7208 8.17209C15.7018 8.14568 15.6915 8.11436 15.6811 8.08422C15.6735 8.06052 15.665 8.03698 15.6584 8.01328C15.6141 8.0634 15.563 8.10505 15.4978 8.0766C15.4033 8.03495 15.2616 7.86395 15.1434 7.88765C15.0252 7.91119 14.754 7.79876 14.754 7.95284C14.754 8.10589 14.8183 8.38373 14.6708 8.31296C14.5234 8.24202 14.4875 8.10606 14.3693 8.01802C14.2511 7.92913 14.2162 7.9056 14.1094 7.92913C14.0036 7.95267 13.7965 7.94048 13.755 7.92338C13.7144 7.90543 13.7843 7.79301 13.6426 7.79301C13.5009 7.79301 13.2825 7.86395 13.3062 7.70987C13.3299 7.55682 13.5312 7.38581 13.3365 7.3384C13.1408 7.29117 13.0284 7.3384 12.8866 7.37328C12.7449 7.40918 12.5975 7.40918 12.5975 7.40918C12.5975 7.40918 12.379 7.24951 12.2317 7.11339C12.0834 6.97828 11.7468 6.69468 11.6703 6.74768C11.5938 6.80067 11.5635 7.0482 11.416 6.99521C11.2685 6.94238 10.9964 6.78916 10.9492 6.72397C10.902 6.65879 10.8254 6.60579 10.6836 6.55297C10.5418 6.49912 10.4067 6.44613 10.382 6.3696C10.3593 6.29206 10.3177 6.21553 10.2704 6.19758C10.2232 6.18065 9.9926 6.17489 9.95671 6.06247C9.92166 5.95005 9.90371 5.80258 9.85088 5.73163C9.79789 5.66069 9.49651 5.52474 9.49651 5.52474C9.49651 5.52474 9.10625 5.40097 8.91713 5.27703C8.72818 5.15225 8.39734 4.90472 8.39158 4.9396C8.386 4.97549 8.52196 5.21743 8.46913 5.24114C8.41529 5.26467 8.28577 5.29413 8.0787 5.17595C7.87163 5.05777 7.78951 5.00969 7.70638 4.93689C7.69317 4.92554 7.67997 4.91233 7.66676 4.89811C7.59311 4.82446 7.51083 4.72982 7.4409 4.74506C7.4409 4.74506 7.4343 4.74031 7.42481 4.73083C7.39552 4.7564 7.36623 4.77993 7.33593 4.80364C7.30985 4.82497 7.2787 4.84867 7.22858 4.8695Z" stroke="#510A32" stroke-width="0.378007" mask="url(#path-1-inside-1_1571_9880)"/>
<defs>
<linearGradient id="paint0_linear_1571_9880" x1="9.30682" y1="-12.174" x2="9.30682" y2="95.2624" gradientUnits="userSpaceOnUse">
<stop stop-color="#FF984F"/>
<stop offset="0.2978" stop-color="#F37A56"/>
<stop offset="0.9428" stop-color="#D42F67"/>
<stop offset="1" stop-color="#D12869"/>
</linearGradient>
</defs>
</svg>
