<svg width="23" height="17" viewBox="0 0 23 17" fill="none" xmlns="http://www.w3.org/2000/svg">
<mask id="path-1-inside-1_1571_9859" fill="white">
<path d="M8.41164 4.58524C8.32292 4.64581 8.26255 4.7413 8.1789 4.80858C7.9268 5.01388 7.48184 4.86152 7.40718 4.54524C7.28366 4.44467 7.09471 4.57114 7.03687 4.71957C6.97903 4.86799 6.98664 5.03954 6.90691 5.17757C6.83755 5.29501 6.71265 5.3764 6.6638 5.50402C6.59813 5.67695 6.69583 5.86792 6.68569 6.0538C6.67671 6.19691 6.60458 6.32477 6.55066 6.45909C6.52877 6.50949 6.51079 6.56105 6.49927 6.61515C6.49282 6.64474 6.49143 6.67711 6.4942 6.70925C6.49558 6.71965 6.49674 6.72867 6.49812 6.73884C6.4995 6.74924 6.50203 6.75826 6.50319 6.76843C6.51355 6.80704 6.52761 6.84588 6.54812 6.87941C6.55204 6.88842 6.55711 6.89628 6.56356 6.90391C6.56863 6.91039 6.5737 6.91802 6.58039 6.92449C6.58177 6.92842 6.58545 6.93096 6.58822 6.93489L6.58937 6.93628C6.59583 6.94275 6.60343 6.95061 6.61126 6.95686C6.62532 6.96842 6.64075 6.97882 6.65619 6.98922C6.65873 6.99061 6.66011 6.99177 6.66265 6.99315C6.70367 7.01258 6.75021 7.01651 6.79768 6.99709C6.8092 7.06806 6.79261 7.13904 6.75643 7.20354C6.75643 7.20493 6.75505 7.20609 6.75505 7.20747C6.72924 7.26805 6.67141 7.32354 6.6161 7.36099C6.59813 7.37255 6.5813 7.38295 6.56586 7.39058C6.42184 7.46665 6.25594 7.48098 6.09371 7.49393C6.07574 7.53392 6.06537 7.57253 6.06283 7.61253C6.05891 7.66802 6.06928 7.72351 6.08864 7.78038C6.11307 7.73645 6.11952 7.72096 6.12067 7.71726C6.15408 7.74038 6.49628 7.97805 6.63269 8.04626C6.77671 8.11839 6.98641 8.27214 7.02627 8.41663C7.06752 8.56252 6.86543 8.61015 6.62509 8.73152C6.38337 8.8529 6.42438 9.13542 6.34326 9.49817C6.26238 9.86069 6.46424 9.98207 6.49627 10.1589C6.52853 10.337 6.67255 10.1589 6.81012 10.1434C6.94654 10.128 7.02627 10.1113 7.11499 10.1189C7.2037 10.128 7.10738 10.2003 7.03388 10.3372C6.96175 10.4741 7.08273 10.4986 7.19587 10.5631C7.30786 10.6276 7.41962 10.4507 7.48391 10.3772C7.5482 10.3048 7.75006 10.1682 7.95077 9.9823C8.15148 9.79642 8.28006 9.80543 8.40104 9.80543C8.52202 9.80543 8.62617 10.0068 8.69807 10.1682C8.7702 10.3296 8.89094 10.4662 8.94762 10.5386C9.00431 10.6109 9.02736 10.6276 9.33867 10.7889C9.64999 10.9503 9.55851 10.8458 9.68732 10.9025C9.8159 10.9579 9.73502 11.047 9.68732 11.1115C9.63962 11.176 9.52648 11.1915 9.39029 11.2895C9.25388 11.385 9.43015 11.5385 9.48684 11.6199C9.54214 11.6999 9.70414 11.7412 9.80853 11.8534C9.91268 11.9657 9.84055 12.0302 9.88042 12.0547C9.92028 12.0793 9.99241 12.0547 10.2097 11.9902C10.427 11.9257 10.3551 12.0547 10.3551 12.0547C10.3551 12.0547 10.5713 12.2973 10.66 12.3773C10.7487 12.4586 11.0137 12.5877 11.1102 12.6922C11.2068 12.7967 11.2234 12.8612 11.2478 13.0149C11.2709 13.1684 11.496 13.1118 11.729 13.1118C11.9631 13.1118 12.2601 13.0963 12.3887 13.1118C12.5173 13.1273 12.5984 13.3132 12.7668 13.4022C12.9353 13.4912 13.0074 13.5067 13.1604 13.4422C13.2286 13.4137 13.271 13.3816 13.307 13.3531C13.3482 13.321 13.3881 13.2886 13.4279 13.2537C13.4035 13.2306 13.3623 13.1892 13.3263 13.1388C13.2915 13.0884 13.262 13.0279 13.262 12.967C13.262 12.811 13.2789 12.6327 13.4229 12.5682C13.5683 12.5037 13.6646 12.4494 13.675 12.3578C13.6853 12.2674 13.6056 12.2083 13.7547 12.1165C13.9052 12.0249 13.9271 12.0469 14.0068 11.9449C14.0879 11.843 14.1522 11.7396 14.1522 11.6224C14.1522 11.5036 14.066 11.4664 14.0183 11.305C13.9695 11.1436 13.8628 11.1216 13.9591 11.0095C13.9835 10.9811 14.0144 10.9475 14.0478 10.9126C14.0644 10.8958 14.0826 10.8777 14.1006 10.8597C14.1096 10.8493 14.1199 10.8403 14.1289 10.8313C14.2087 10.7526 14.2872 10.6764 14.3232 10.6377C14.3875 10.5682 14.5329 10.4234 14.4789 10.2184C14.425 10.0144 14.3451 9.82092 14.4366 9.74602C14.5267 9.66995 14.4893 9.78856 14.7734 9.57308C15.0578 9.35876 15.0732 9.39113 15.1541 9.24524C15.2339 9.10075 15.2456 8.99879 15.3947 8.92249C15.5452 8.84759 15.6417 8.8425 15.733 8.75603C15.8242 8.66956 15.7807 8.57269 15.9581 8.46056C16.1344 8.34704 16.2372 8.36369 16.2051 8.25665C16.1729 8.14821 16.1408 7.99863 15.9581 7.93389C15.7754 7.86939 15.4488 7.5945 15.3843 7.55704C15.32 7.51959 15.1272 7.45509 15.0152 7.44353C14.902 7.43335 14.758 7.35845 14.6935 7.31452C14.6292 7.27198 14.5534 7.2551 14.3771 7.22412C14.1997 7.1906 14.0388 7.13257 13.9591 7.07824C13.878 7.0239 13.8188 6.93882 13.8356 6.83039C13.851 6.72335 13.8729 6.55157 13.8625 6.43805C13.851 6.32569 13.8086 6.28708 13.7017 6.27159C13.5936 6.2561 13.5293 6.2561 13.4226 6.21217C13.316 6.16963 13.0046 6.02375 13.0046 6.00317C13.0046 5.98121 12.7848 5.62123 12.683 5.57731C12.5813 5.53477 12.512 5.46495 12.4205 5.52945C12.3292 5.59395 12.1092 5.701 12.0564 5.68042C12.0022 5.65846 11.6538 5.51904 11.6216 5.44807C11.5893 5.37848 11.6165 5.23906 11.493 5.15907C11.3695 5.07769 11.2086 5.04024 11.1561 4.94868C11.1022 4.85713 11.0275 4.80927 11.0275 4.69067C11.0275 4.57183 10.9736 4.44282 10.8989 4.33069C10.8231 4.21718 10.7485 4.17972 10.7111 4.14227C10.6738 4.10481 10.6199 3.95384 10.5065 3.94876C10.3945 3.94367 10.3252 3.95384 10.2235 4.07776C10.1205 4.20168 10.0307 4.20169 10.0627 4.33578C10.095 4.46987 10.2286 4.5783 10.1747 4.64813C10.1208 4.71772 10.1155 4.86222 10.0037 4.71772C9.89056 4.57183 9.76198 4.45438 9.73479 4.33578C9.71935 4.26342 9.67303 4.21324 9.62672 4.15128C9.40688 4.32283 9.14188 4.43658 8.86651 4.47404C8.71028 4.49484 8.54299 4.496 8.41164 4.58524Z"/>
</mask>
<path d="M8.41164 4.58524C8.32292 4.64581 8.26255 4.7413 8.1789 4.80858C7.9268 5.01388 7.48184 4.86152 7.40718 4.54524C7.28366 4.44467 7.09471 4.57114 7.03687 4.71957C6.97903 4.86799 6.98664 5.03954 6.90691 5.17757C6.83755 5.29501 6.71265 5.3764 6.6638 5.50402C6.59813 5.67695 6.69583 5.86792 6.68569 6.0538C6.67671 6.19691 6.60458 6.32477 6.55066 6.45909C6.52877 6.50949 6.51079 6.56105 6.49927 6.61515C6.49282 6.64474 6.49143 6.67711 6.4942 6.70925C6.49558 6.71965 6.49674 6.72867 6.49812 6.73884C6.4995 6.74924 6.50203 6.75826 6.50319 6.76843C6.51355 6.80704 6.52761 6.84588 6.54812 6.87941C6.55204 6.88842 6.55711 6.89628 6.56356 6.90391C6.56863 6.91039 6.5737 6.91802 6.58039 6.92449C6.58177 6.92842 6.58545 6.93096 6.58822 6.93489L6.58937 6.93628C6.59583 6.94275 6.60343 6.95061 6.61126 6.95686C6.62532 6.96842 6.64075 6.97882 6.65619 6.98922C6.65873 6.99061 6.66011 6.99177 6.66265 6.99315C6.70367 7.01258 6.75021 7.01651 6.79768 6.99709C6.8092 7.06806 6.79261 7.13904 6.75643 7.20354C6.75643 7.20493 6.75505 7.20609 6.75505 7.20747C6.72924 7.26805 6.67141 7.32354 6.6161 7.36099C6.59813 7.37255 6.5813 7.38295 6.56586 7.39058C6.42184 7.46665 6.25594 7.48098 6.09371 7.49393C6.07574 7.53392 6.06537 7.57253 6.06283 7.61253C6.05891 7.66802 6.06928 7.72351 6.08864 7.78038C6.11307 7.73645 6.11952 7.72096 6.12067 7.71726C6.15408 7.74038 6.49628 7.97805 6.63269 8.04626C6.77671 8.11839 6.98641 8.27214 7.02627 8.41663C7.06752 8.56252 6.86543 8.61015 6.62509 8.73152C6.38337 8.8529 6.42438 9.13542 6.34326 9.49817C6.26238 9.86069 6.46424 9.98207 6.49627 10.1589C6.52853 10.337 6.67255 10.1589 6.81012 10.1434C6.94654 10.128 7.02627 10.1113 7.11499 10.1189C7.2037 10.128 7.10738 10.2003 7.03388 10.3372C6.96175 10.4741 7.08273 10.4986 7.19587 10.5631C7.30786 10.6276 7.41962 10.4507 7.48391 10.3772C7.5482 10.3048 7.75006 10.1682 7.95077 9.9823C8.15148 9.79642 8.28006 9.80543 8.40104 9.80543C8.52202 9.80543 8.62617 10.0068 8.69807 10.1682C8.7702 10.3296 8.89094 10.4662 8.94762 10.5386C9.00431 10.6109 9.02736 10.6276 9.33867 10.7889C9.64999 10.9503 9.55851 10.8458 9.68732 10.9025C9.8159 10.9579 9.73502 11.047 9.68732 11.1115C9.63962 11.176 9.52648 11.1915 9.39029 11.2895C9.25388 11.385 9.43015 11.5385 9.48684 11.6199C9.54214 11.6999 9.70414 11.7412 9.80853 11.8534C9.91268 11.9657 9.84055 12.0302 9.88042 12.0547C9.92028 12.0793 9.99241 12.0547 10.2097 11.9902C10.427 11.9257 10.3551 12.0547 10.3551 12.0547C10.3551 12.0547 10.5713 12.2973 10.66 12.3773C10.7487 12.4586 11.0137 12.5877 11.1102 12.6922C11.2068 12.7967 11.2234 12.8612 11.2478 13.0149C11.2709 13.1684 11.496 13.1118 11.729 13.1118C11.9631 13.1118 12.2601 13.0963 12.3887 13.1118C12.5173 13.1273 12.5984 13.3132 12.7668 13.4022C12.9353 13.4912 13.0074 13.5067 13.1604 13.4422C13.2286 13.4137 13.271 13.3816 13.307 13.3531C13.3482 13.321 13.3881 13.2886 13.4279 13.2537C13.4035 13.2306 13.3623 13.1892 13.3263 13.1388C13.2915 13.0884 13.262 13.0279 13.262 12.967C13.262 12.811 13.2789 12.6327 13.4229 12.5682C13.5683 12.5037 13.6646 12.4494 13.675 12.3578C13.6853 12.2674 13.6056 12.2083 13.7547 12.1165C13.9052 12.0249 13.9271 12.0469 14.0068 11.9449C14.0879 11.843 14.1522 11.7396 14.1522 11.6224C14.1522 11.5036 14.066 11.4664 14.0183 11.305C13.9695 11.1436 13.8628 11.1216 13.9591 11.0095C13.9835 10.9811 14.0144 10.9475 14.0478 10.9126C14.0644 10.8958 14.0826 10.8777 14.1006 10.8597C14.1096 10.8493 14.1199 10.8403 14.1289 10.8313C14.2087 10.7526 14.2872 10.6764 14.3232 10.6377C14.3875 10.5682 14.5329 10.4234 14.4789 10.2184C14.425 10.0144 14.3451 9.82092 14.4366 9.74602C14.5267 9.66995 14.4893 9.78856 14.7734 9.57308C15.0578 9.35876 15.0732 9.39113 15.1541 9.24524C15.2339 9.10075 15.2456 8.99879 15.3947 8.92249C15.5452 8.84759 15.6417 8.8425 15.733 8.75603C15.8242 8.66956 15.7807 8.57269 15.9581 8.46056C16.1344 8.34704 16.2372 8.36369 16.2051 8.25665C16.1729 8.14821 16.1408 7.99863 15.9581 7.93389C15.7754 7.86939 15.4488 7.5945 15.3843 7.55704C15.32 7.51959 15.1272 7.45509 15.0152 7.44353C14.902 7.43335 14.758 7.35845 14.6935 7.31452C14.6292 7.27198 14.5534 7.2551 14.3771 7.22412C14.1997 7.1906 14.0388 7.13257 13.9591 7.07824C13.878 7.0239 13.8188 6.93882 13.8356 6.83039C13.851 6.72335 13.8729 6.55157 13.8625 6.43805C13.851 6.32569 13.8086 6.28708 13.7017 6.27159C13.5936 6.2561 13.5293 6.2561 13.4226 6.21217C13.316 6.16963 13.0046 6.02375 13.0046 6.00317C13.0046 5.98121 12.7848 5.62123 12.683 5.57731C12.5813 5.53477 12.512 5.46495 12.4205 5.52945C12.3292 5.59395 12.1092 5.701 12.0564 5.68042C12.0022 5.65846 11.6538 5.51904 11.6216 5.44807C11.5893 5.37848 11.6165 5.23906 11.493 5.15907C11.3695 5.07769 11.2086 5.04024 11.1561 4.94868C11.1022 4.85713 11.0275 4.80927 11.0275 4.69067C11.0275 4.57183 10.9736 4.44282 10.8989 4.33069C10.8231 4.21718 10.7485 4.17972 10.7111 4.14227C10.6738 4.10481 10.6199 3.95384 10.5065 3.94876C10.3945 3.94367 10.3252 3.95384 10.2235 4.07776C10.1205 4.20168 10.0307 4.20169 10.0627 4.33578C10.095 4.46987 10.2286 4.5783 10.1747 4.64813C10.1208 4.71772 10.1155 4.86222 10.0037 4.71772C9.89056 4.57183 9.76198 4.45438 9.73479 4.33578C9.71935 4.26342 9.67303 4.21324 9.62672 4.15128C9.40688 4.32283 9.14188 4.43658 8.86651 4.47404C8.71028 4.49484 8.54299 4.496 8.41164 4.58524Z" fill="url(#paint0_linear_1571_9859)" stroke="#510A32" stroke-width="0.459149" mask="url(#path-1-inside-1_1571_9859)"/>
<defs>
<linearGradient id="paint0_linear_1571_9859" x1="11.1365" y1="-4.48552" x2="11.1365" y2="36.9681" gradientUnits="userSpaceOnUse">
<stop stop-color="#FF984F"/>
<stop offset="0.2978" stop-color="#F37A56"/>
<stop offset="0.9428" stop-color="#D42F67"/>
<stop offset="1" stop-color="#D12869"/>
</linearGradient>
</defs>
</svg>
